<svg xmlns="http://www.w3.org/2000/svg" viewBox="0 0 512 512"><!--! Font Awesome Free 7.0.1 by @fontawesome - https://fontawesome.com License - https://fontawesome.com/license/free (Icons: CC BY 4.0, Fonts: SIL OFL 1.1, Code: MIT License) Copyright 2025 Fonticons, Inc.--><path fill="currentColor" d="M190.4 292.16h46.96L255.2 268h-46.96zM0 277.52v5.12h65.44l3.76-5.12zM138.32 268c-6.96 0-4.8-2.88-3.68-4.4 2.24-3.04 6.08-8.32 8.32-11.28s2.24-4.72-2.24-4.72h-40.8l-32.88 44.64h80.08c26.48 0 41.2-18 45.76-24.24zm254-5.52 31.44-42.72H374l-31.44 42.72zM76.24 268H0v5.12h72.48zm88.8-21.28c-2.24 3.04-6 8.32-8.24 11.36-1.12 1.6-3.28 4.4 3.68 4.4h36.48s5.84-8 10.8-14.72c6.72-9.12.56-28-23.36-28H90.08L73.76 242h89.12c4.48 0 4.4 1.76 2.16 4.72M0 292.16h58.48l3.76-5.12H0zm258.4 0h46.96L323.2 268h-46.96c-.08 0-17.84 24.16-17.84 24.16m177.6.08h76v-5.12h-72.24zM453.84 268l-3.76 5.12H512V268zm-10.8 14.64H512v-5.12h-65.2zm-131.36-62.88-18 24.48h-20.96l18-24.48h-46.96l-31.44 42.72H327.2l31.44-42.72zm26.8 48.24s-3.44 4.72-5.12 6.96c-5.92 8-.72 17.28 18.56 17.28h75.44L445.2 268z"/></svg>