<svg xmlns="http://www.w3.org/2000/svg" viewBox="0 0 512 512"><!--! Font Awesome Free 7.0.1 by @fontawesome - https://fontawesome.com License - https://fontawesome.com/license/free (Icons: CC BY 4.0, Fonts: SIL OFL 1.1, Code: MIT License) Copyright 2025 Fonticons, Inc.--><path fill="currentColor" d="m512 92.146-.24 9.758c-22.476.64-35.994 12.638-44.633 32.235-19.997 46.233-82.627 191.97-124.22 286.835h-10.879l-65.51-154.456c-25.996 50.872-54.631 103.984-79.347 154.456-.24.24-11.998 0-11.998-.24-37.515-87.746-76.868-174.852-114.462-262.839-9.12-21.356-39.514-55.99-60.471-55.751 0-2.48-.24-7.999-.24-11.358h129.5v11.118c-15.358.88-42.234 10.638-34.635 27.356 17.517 39.754 82.867 192.21 100.464 230.844 11.999-23.757 46.233-87.347 60.231-114.222-11.118-22.637-46.873-107.104-58.23-127.98-7.76-14.238-28.876-15.518-44.634-15.758V91.026l113.982.24v10.478c-15.517.48-30.475 6.24-23.516 20.877 15.118 31.995 24.476 54.471 38.474 83.747 4.48-8.639 27.756-55.512 38.474-80.628 7.119-16.477-3.12-22.876-30.875-23.516.24-2.88 0-8.239.24-10.878 35.514-.24 88.866-.24 98.464-.48v10.878c-17.997.64-36.634 10.239-46.472 25.356l-47.353 98.225c5.12 12.878 50.632 114.222 55.351 125.34l97.905-226.044c-6.879-18.478-29.115-22.477-37.754-22.637V90.866l102.224.88z"/></svg>