<svg xmlns="http://www.w3.org/2000/svg" viewBox="0 0 512 512"><!--! Font Awesome Free 7.0.1 by @fontawesome - https://fontawesome.com License - https://fontawesome.com/license/free (Icons: CC BY 4.0, Fonts: SIL OFL 1.1, Code: MIT License) Copyright 2025 Fonticons, Inc.--><path fill="currentColor" d="M0 0v512h512V0zm299.657 382.171c-7.543 3.429-37.943 6.858-57.143-16.228-10.514-12.114-28.914-38.057-48.228-72.686-10.172 0-16.8 0-24.457-.686V345.6c0 26.857 6.857 24.229 29.485 27.314v9.257c-7.885-.342-26.4-.914-40.685-.914-14.972 0-29.829.686-38.4.914v-9.257c17.714-3.314 25.142-1.485 25.142-27.314V220.571c0-25.828-7.314-24-25.142-27.314V184c29.485 1.143 60.685-.686 81.028-.686 36.229 0 63.886 16.457 63.886 52.115 0 24.114-19.086 48.228-44.8 54.285 15.543 27.657 34.286 52.115 48.228 67.315 8.229 8.914 19.658 16.8 31.086 16.8zm26.172-154.285c-26.629 0-36.8-17.943-36.8-36.8v-36.8c0-13.943 10.057-34.743 38.857-34.743S362.629 140 362.629 140l-12.229 8.229s-6.286-14.286-22.514-14.286c-9.029 0-22.515 8.343-22.515 22.514v30.629c0 15.314 7.543 26.628 20.458 26.628 16.114 0 24.571-12.457 24.571-30.628h-20.457v-12.229h34.743c0 23.429 5.371 57.029-38.857 57.029M192.686 278.97c-10.743 0-15.543-.342-22.857-.914V198.4c7.314-.686 17.142-.686 25.714-.686 26.628 0 42.514 13.943 42.514 39.429 0 25.028-17.143 41.828-45.371 41.828"/></svg>