<svg xmlns="http://www.w3.org/2000/svg" viewBox="0 0 512 512"><!--! Font Awesome Free 7.0.1 by @fontawesome - https://fontawesome.com License - https://fontawesome.com/license/free (Icons: CC BY 4.0, Fonts: SIL OFL 1.1, Code: MIT License) Copyright 2025 Fonticons, Inc.--><path fill="currentColor" d="m363.543 139.429-10.743 8.685c-25.714-22.057-58.857-38.4-95.2-38.4-81.829 0-147.886 69.486-147.886 151.2 0 7.543.457 14.972 1.6 22.172-2.285-64 47.772-111.315 105.829-111.315 27.657 0 52.8 10.743 71.543 28.229l-28.8 23.314c-9.486-1.028-19.2 2.057-26.4 9.257-12.686 12.572-12.686 33.029 0 45.715 12.685 12.571 33.028 12.571 45.714 0 7.2-7.2 10.286-17.029 9.257-26.4L374.4 150.4c7.2-7.429-3.771-18.171-10.857-10.971M244.229 245.143c5.942-6.514 16.114-6.857 22.628-.914 6.514 5.942 6.857 16.114.914 22.628-5.942 6.514-16.114 6.857-22.628.914-6.514-5.942-6.857-16.114-.914-22.628M256 0C114.629 0 0 114.629 0 256s114.629 256 256 256 256-114.629 256-256S397.371 0 256 0m0 73.143c101.029 0 182.857 81.828 182.857 182.857S357.03 438.857 256 438.857 73.143 357.03 73.143 256 154.97 73.143 256 73.143"/></svg>