<svg xmlns="http://www.w3.org/2000/svg" viewBox="0 0 512 512"><!--! Font Awesome Free 7.0.1 by @fontawesome - https://fontawesome.com License - https://fontawesome.com/license/free (Icons: CC BY 4.0, Fonts: SIL OFL 1.1, Code: MIT License) Copyright 2025 Fonticons, Inc.--><path fill="currentColor" d="M198.507 332.107c0 22.293-11.627 58.773-39.147 58.773s-39.147-36.48-39.147-58.773 11.627-58.774 39.147-58.774 39.147 36.48 39.147 58.774M512 278.24c0 34.027-3.413 70.08-18.667 101.333-40.426 81.707-151.573 79.787-231.146 79.787-80.854 0-198.614 2.88-240.64-79.787C5.973 348.64 0 312.267 0 278.24c0-44.693 14.827-86.933 44.267-121.173-5.547-16.854-8.214-34.56-8.214-52.054 0-22.933 5.227-34.453 15.574-55.253 48.32 0 79.253 9.6 116.053 38.4 30.933-7.36 62.72-10.667 94.613-10.667 28.8 0 57.814 3.094 85.76 9.814 36.267-28.48 67.2-37.547 114.987-37.547 10.453 20.8 15.573 32.32 15.573 55.253 0 17.494-2.773 34.88-8.213 51.414 29.333 34.56 41.6 77.12 41.6 121.813m-68.587 53.867c0-46.827-28.48-88.107-78.4-88.107-20.16 0-39.466 3.627-59.733 6.4-15.893 2.453-31.787 3.413-48.107 3.413-16.213 0-32.106-.96-48.106-3.413-19.947-2.773-39.467-6.4-59.734-6.4-49.92 0-78.4 41.28-78.4 88.107 0 93.653 85.76 108.053 160.427 108.053h51.413c74.987 0 160.64-14.293 160.64-108.053m-88.106-58.774c-27.52 0-39.147 36.48-39.147 58.774 0 22.293 11.627 58.773 39.147 58.773s39.146-36.48 39.146-58.773-11.626-58.774-39.146-58.774"/></svg>