<svg xmlns="http://www.w3.org/2000/svg" viewBox="0 0 512 512"><!--! Font Awesome Free 7.0.1 by @fontawesome - https://fontawesome.com License - https://fontawesome.com/license/free (Icons: CC BY 4.0, Fonts: SIL OFL 1.1, Code: MIT License) Copyright 2025 Fonticons, Inc.--><path fill="currentColor" d="M417.04 161.12c52.48 0 94.96 42.48 94.96 94.88s-42.48 94.88-94.96 94.88c-34 0-63.76-17.84-80.56-44.64 9.12-14.56 14.4-31.76 14.4-50.24s-5.28-35.68-14.4-50.24l.64-.96c16.64-25.84 45.44-43.12 78.32-43.68zm-161.04 0c34 0 63.76 17.84 80.56 44.64-9.12 14.56-14.4 31.76-14.4 50.24s5.28 35.68 14.4 50.24l-.64.96c-16.64 25.84-45.44 43.12-78.32 43.68H256c-34 0-63.76-17.84-80.56-44.64 9.12-14.56 14.4-31.76 14.4-50.24s-5.28-35.68-14.4-50.24l.64-.96c16.64-25.84 45.44-43.12 78.32-43.68zm-161.04 0c34 0 63.76 17.84 80.56 44.64-9.12 14.56-14.4 31.76-14.4 50.24s5.28 35.68 14.4 50.24l-.64.96c-16.64 25.84-45.44 43.12-78.32 43.68h-1.6C42.48 350.8 0 308.4 0 256s42.48-94.88 94.96-94.88"/></svg>