<svg xmlns="http://www.w3.org/2000/svg" viewBox="0 0 512 512"><!--! Font Awesome Free 7.0.1 by @fontawesome - https://fontawesome.com License - https://fontawesome.com/license/free (Icons: CC BY 4.0, Fonts: SIL OFL 1.1, Code: MIT License) Copyright 2025 Fonticons, Inc.--><path fill="currentColor" d="M73.143 0h365.714C479.2 0 512 32.8 512 73.143v365.714C512 479.2 479.2 512 438.857 512H73.143C32.8 512 0 479.2 0 438.857V73.143C0 32.8 32.8 0 73.143 0M349.6 153.6c23.543 0 42.629-19.086 42.629-42.629S373.143 68.343 349.6 68.343c-20.571 0-37.829 14.628-41.829 34.057-34.514 3.657-61.485 32.914-61.485 68.457v.229c-37.486 1.6-71.772 12.228-98.972 29.143-10.057-7.772-22.743-12.458-36.571-12.458-33.029 0-59.772 26.743-59.772 59.772 0 24 14.058 44.571 34.4 54.171 1.943 69.372 77.6 125.257 170.629 125.257S424.686 371.086 426.629 301.6c20.228-9.6 34.171-30.171 34.171-54.057 0-33.029-26.743-59.772-59.771-59.772-13.715 0-26.286 4.572-36.458 12.343-27.428-17.028-62.057-27.657-100-29.028v-.115c0-25.371 18.858-46.514 43.315-49.942 4.457 18.857 21.371 32.8 41.485 32.8zm-172.457 93.371c16.686 0 29.486 17.6 28.571 39.315s-13.485 29.6-30.285 29.6-31.429-8.8-30.4-30.515c1.028-21.714 15.428-38.285 32.114-38.285zm190.171 38.286c1.029 21.714-13.714 30.514-30.4 30.514-16.685 0-29.257-7.885-30.285-29.6-1.029-21.714 11.771-39.314 28.571-39.314s31.2 16.686 32.114 38.286zM319.2 341.943c-10.286 24.571-34.629 41.943-62.971 41.943-28.343 0-52.686-17.257-62.972-41.943-1.257-2.972.8-6.172 3.886-6.514 18.4-1.829 38.286-2.858 59.086-2.858s40.685 1.029 59.085 2.858c3.086.342 5.143 3.542 3.886 6.514"/></svg>