<svg xmlns="http://www.w3.org/2000/svg" viewBox="0 0 512 512"><!--! Font Awesome Free 7.0.1 by @fontawesome - https://fontawesome.com License - https://fontawesome.com/license/free (Icons: CC BY 4.0, Fonts: SIL OFL 1.1, Code: MIT License) Copyright 2025 Fonticons, Inc.--><path fill="currentColor" d="M256 512c45.143 0 87.086-13.486 122.057-36.8h-244C168.914 498.514 210.857 512 256 512M154.171 291.314v-14.171h-117.6v14.171c0 2.857 0 5.715.115 8.457h117.828a103 103 0 0 1-.343-8.457m23.429 65.143H46.286A207.6 207.6 0 0 0 57.257 384.8h158.057a104.1 104.1 0 0 1-37.714-28.343M157.371 316.8H38.057a233 233 0 0 0 4.457 25.486h125.372c-4.572-7.886-8.229-16.457-10.515-25.486m-3.2-79.2h-117.6v19.771h117.6zm0-197.943h-117.6v5.6h117.6zm0-39.657h-117.6v2.857h117.6zm0 79.2h-117.6v8.457h117.6zm0 118.857h-117.6v16.914h117.6zm0-79.2h-117.6v11.314h117.6zm0 39.543h-117.6v14.171h117.6zm189.943 183.886h125.372a188.5 188.5 0 0 0 4.457-25.486H354.629c-2.4 9.029-5.943 17.6-10.515 25.486m13.715-212.229h117.6v-11.2h-117.6zm0 42.514h117.6V158.4h-117.6zm0-84.914h117.6V79.2h-117.6zm0-87.657v2.857h117.6V0zm-232 469.6h260.228c13.486-9.943 25.943-21.257 36.8-33.943H87.886c10.971 12.572 24.457 24 37.943 33.943m232-424.343h117.6v-5.6h-117.6zm0 169.714h117.6v-16.914h-117.6zM80.914 427.086H429.83c7.657-9.715 14.4-20.115 20.342-31.086H62.857c5.943 10.971 10.514 21.371 18.057 31.086m215.772-42.4H456c4.229-9.143 6.629-18.515 9.714-28.343H334.286c-10.057 12.228-22.972 21.943-37.6 28.343m61.143-93.372c0 2.857-.115 5.715-.458 8.457H475.2c.114-2.857.229-5.6.229-8.457v-14.171h-117.6zm0-33.943h117.6V237.6h-117.6z"/></svg>