<svg xmlns="http://www.w3.org/2000/svg" viewBox="0 0 512 512"><!--! Font Awesome Free 7.0.1 by @fontawesome - https://fontawesome.com License - https://fontawesome.com/license/free (Icons: CC BY 4.0, Fonts: SIL OFL 1.1, Code: MIT License) Copyright 2025 Fonticons, Inc.--><path fill="currentColor" d="m131.94 166.986-34.645 7.361-.16 113.938c0 21.043 15.843 34.645 36.886 34.645 11.682 0 20.243-2.16 24.964-4.72v-27.045c-4.56 1.84-26.964 8.402-26.964-12.561v-50.568h26.964V197.79H132.02zm71.292 41.287-2.16-10.482h-30.725v122.58h35.445v-82.494c8.401-11.042 22.564-8.881 27.124-7.441v-32.645c-4.8-1.68-21.363-4.8-29.684 10.482m73.851-57.85-35.685 7.602v28.964l35.685-7.601zM35.846 233.878c0-5.521 4.64-7.682 12.081-7.762 10.802 0 24.564 3.28 35.366 9.122v-33.445c-11.762-4.641-23.524-6.481-35.285-6.481C19.203 195.31 0 210.353 0 235.477c0 39.366 54.008 32.965 54.008 49.928 0 6.56-5.68 8.721-13.602 8.721-11.762 0-26.964-4.88-38.886-11.362v32.005c13.202 5.681 26.564 8.081 38.806 8.081 29.525 0 49.848-12.642 49.848-38.246 0-42.326-54.328-34.725-54.328-50.727M512 260.52c0-36.406-17.603-65.13-51.368-65.13s-54.329 28.724-54.329 64.89c0 42.806 24.244 62.57 58.81 62.57 16.962 0 29.684-3.841 39.366-9.202v-26.724c-9.682 4.88-20.803 7.841-34.886 7.841-13.842 0-26.004-4.88-27.604-21.523h69.53c.16-1.84.481-9.282.481-12.722m-70.331-13.442c0-16.003 9.842-22.724 18.723-22.724 8.721 0 18.003 6.721 18.003 22.724zm-90.334-51.688c-13.922 0-22.884 6.56-27.844 11.121l-1.84-8.801h-31.286v163.865l35.526-7.52.08-40.167c5.12 3.76 12.722 8.961 25.124 8.961 25.444 0 48.647-18.562 48.647-63.69.08-41.286-23.443-63.77-48.407-63.77m-8.481 98.015c-8.322 0-13.283-3.04-16.723-6.721l-.24-52.808c3.68-4.081 8.801-7.042 16.963-7.042 12.962 0 21.923 14.563 21.923 33.126.08 19.123-8.721 33.445-21.923 33.445M241.478 320.37h35.685V197.79h-35.685z"/></svg>