<svg xmlns="http://www.w3.org/2000/svg" viewBox="0 0 512 512"><!--! Font Awesome Free 7.0.1 by @fontawesome - https://fontawesome.com License - https://fontawesome.com/license/free (Icons: CC BY 4.0, Fonts: SIL OFL 1.1, Code: MIT License) Copyright 2025 Fonticons, Inc.--><path fill="currentColor" d="m0 0 79.657 135.771-67.314-13.142 79.771 104a169 169 0 0 0 0 58.742l-79.771 104 67.314-13.142L0 512l135.771-79.657-13.142 67.314 104-79.771a169.7 169.7 0 0 0 58.857 0l104 79.771-13.143-67.314L512 512l-79.657-135.771 67.314 13.142-79.771-104a169 169 0 0 0 0-58.742l79.771-104-67.314 13.142L512 0 376.343 79.657l13.143-67.314L285.37 92.229C275.657 90.514 265.83 89.6 256 89.6s-19.657.914-29.371 2.629L122.514 12.343l13.257 67.314zm256 397.943c-78.4 0-141.943-63.543-141.943-141.943S177.6 114.057 256 114.057 397.943 177.6 397.943 256 334.4 397.943 256 397.943m0-242.057c-36.571-1.257-70.857 17.6-89.486 49.028-18.628 31.429-18.628 70.629 0 102.057C185.143 338.4 219.43 357.257 256 356c36.571 1.257 70.857-17.6 89.486-49.029 18.628-31.428 18.628-70.628 0-102.057-18.629-31.428-52.915-50.285-89.486-49.028"/></svg>