<svg xmlns="http://www.w3.org/2000/svg" viewBox="0 0 512 512"><!--! Font Awesome Free 7.0.1 by @fontawesome - https://fontawesome.com License - https://fontawesome.com/license/free (Icons: CC BY 4.0, Fonts: SIL OFL 1.1, Code: MIT License) Copyright 2025 Fonticons, Inc.--><path fill="currentColor" d="M438.857 0H73.143C32.8 0 0 32.8 0 73.143v365.714C0 479.2 32.8 512 73.143 512h82.971l-2.514-.914c-6.171-54.972-3.543-65.715 17.943-153.943 4.457-18.286 9.714-40 15.886-66.172 0 0-8.343-16.914-8.343-41.714 0-80.8 86.285-89.143 86.285-28.571 0 15.428-6.171 35.543-12.8 56.914-3.771 12.114-7.542 24.571-10.4 36.571-6.514 28 14.058 50.743 41.6 50.743 49.943 0 88.229-52.571 88.229-128.457 0-67.2-48.343-114.171-117.257-114.171C174.857 122.286 128 182.17 128 244.114c0 24.115 9.371 49.943 20.914 64 2.286 2.743 2.629 5.143 1.943 8a1409 1409 0 0 1-5.371 21.943 713 713 0 0 0-2.4 9.829c-1.257 5.143-4 6.285-9.372 3.771C98.743 335.314 76.8 284.114 76.8 242.971c0-88.571 64.229-169.828 185.371-169.828 97.372 0 173.029 69.371 173.029 162.057 0 96.686-60.914 174.514-145.6 174.514-28.457 0-55.2-14.743-64.343-32.228 0 0-14.057 53.6-17.486 66.743-5.714 22.057-20.114 49.028-31.314 67.771h262.4C479.2 512 512 479.2 512 438.857V73.143C512 32.8 479.2 0 438.857 0"/></svg>