<svg xmlns="http://www.w3.org/2000/svg" viewBox="0 0 512 512"><!--! Font Awesome Free 7.0.1 by @fontawesome - https://fontawesome.com License - https://fontawesome.com/license/free (Icons: CC BY 4.0, Fonts: SIL OFL 1.1, Code: MIT License) Copyright 2025 Fonticons, Inc.--><path fill="currentColor" d="M255.69 0C106.942 0 0 120.568 0 256c0 140.697 115.303 256 255.69 256C390.09 512 512 407.845 512 256 512 112.516 400.929 0 255.69 0m.62 465.239c-115.613 0-210.168-95.484-210.168-209.239 0-23.948 3.82-46.658 11.252-68.129l67.819 30.039h-4.852v30.451h24.052c0 6.4-.413 3.304-.413 20.13h-23.535v30.45h27.87c11.768 69.162 69.368 104.569 128.62 104.569 27.458 0 52.232-8.155 66.89-16.31l-10.322-47.587c-8.981 4.748-29.11 11.148-48.826 11.148-29.11 0-59.974-11.251-69.471-51.82h93.213l132.438 58.633c-1.548 2.168-58.012 107.665-184.567 107.665M239.07 268.49l-.516-.413.929.413zm79.69-20.129h3.82V217.91h-72.568l-29.523-13.007c2.581-5.677 5.575-10.838 9.084-14.761 13.316-16.31 32.103-23.123 52.749-23.123 18.89 0 36.438 5.575 47.587 10.323l11.974-48.826c-15.484-6.813-38.194-12.8-64.31-12.8-40.258 0-74.529 16.31-98.993 43.665-5.471 6.296-10.116 13.316-14.349 20.748L80 142.865c66.684-99.923 162.787-96.62 176.206-96.62 116.646 0 209.549 93.11 209.549 209.961 0 19.304-2.168 37.471-6.503 54.607z"/></svg>