<svg xmlns="http://www.w3.org/2000/svg" viewBox="0 0 512 512"><!--! Font Awesome Free 7.0.1 by @fontawesome - https://fontawesome.com License - https://fontawesome.com/license/free (Icons: CC BY 4.0, Fonts: SIL OFL 1.1, Code: MIT License) Copyright 2025 Fonticons, Inc.--><path fill="currentColor" d="M511.682 302.289a71.22 71.22 0 0 1-22.607 48.159c-13.453 12.497-31.204 19.423-49.592 19.184H265.95c-3.82 0-7.482-1.592-10.189-4.299a14.4 14.4 0 0 1-4.219-10.189V168.24c-.159-3.184.717-6.368 2.468-9.075s4.219-4.856 7.164-6.13c0 0 16-11.064 49.592-11.064 20.537 0 40.677 5.493 58.348 16 13.772 8.12 25.712 18.945 35.105 31.92a114.8 114.8 0 0 1 19.264 43.304 68.3 68.3 0 0 1 18.388-2.547c9.313-.08 18.547 1.751 27.224 5.333s16.318 8.995 22.845 15.682a69.5 69.5 0 0 1 15.045 23.323c3.423 8.756 5.015 17.99 4.697 27.304M229.89 180.099c.08-.796 0-1.592-.24-2.308a6.1 6.1 0 0 0-1.193-2.07c-.558-.636-1.194-1.034-1.91-1.353a5.82 5.82 0 0 0-4.618 0c-.716.319-1.353.796-1.91 1.353-.557.558-.955 1.274-1.194 2.07s-.319 1.512-.239 2.309c-4.776 62.805-8.438 121.71 0 184.358a5.8 5.8 0 0 0 1.83 3.582c2.07 1.91 5.414 1.91 7.483 0a5.8 5.8 0 0 0 1.831-3.582c8.995-63.204 5.254-120.995 0-184.358zm-35.025 21.732c-.16-1.433-.876-2.786-1.91-3.741-1.036-.956-2.468-1.513-3.98-1.513s-2.867.557-3.981 1.513-1.751 2.308-1.91 3.74a704 704 0 0 0 0 162.707c.238 1.433.955 2.707 1.99 3.582 1.034.876 2.467 1.433 3.82 1.433 1.354 0 2.787-.477 3.821-1.433 1.035-.955 1.752-2.228 1.99-3.582 7.005-53.97 7.005-108.656.08-162.706zm-35.264-5.493c-.16-1.433-.796-2.706-1.83-3.661-1.036-.956-2.389-1.433-3.822-1.433s-2.786.557-3.82 1.433c-1.035.875-1.672 2.228-1.831 3.661-5.334 57.314-8.12 110.886 0 168.04 0 1.513.557 2.945 1.671 3.98 1.115 1.035 2.468 1.672 3.98 1.672s2.946-.557 3.98-1.672c1.035-1.114 1.672-2.467 1.672-3.98 8.358-57.95 5.81-110.01.08-168.04zm-35.025 16.398c0-1.512-.637-3.025-1.672-4.139s-2.547-1.672-4.139-1.672-3.025.637-4.14 1.672-1.67 2.547-1.67 4.14a598.7 598.7 0 0 0 0 151.88c.158 1.433.795 2.706 1.91 3.662 1.114.955 2.467 1.512 3.82 1.512 1.354 0 2.787-.557 3.821-1.512 1.035-.956 1.752-2.23 1.91-3.662a557.8 557.8 0 0 0 .24-151.88zm-35.423 37.89c0-1.512-.637-3.024-1.671-4.059s-2.548-1.671-4.06-1.671c-1.513 0-3.025.636-4.06 1.671s-1.671 2.547-1.671 4.06c-8.359 39.164-4.379 74.746.318 114.308.239 1.274.876 2.468 1.83 3.344.956.875 2.23 1.353 3.583 1.353s2.547-.478 3.582-1.353c1.035-.876 1.672-1.99 1.83-3.344 5.255-40.12 9.235-74.905.32-114.308m-35.104-5.97c-.16-1.432-.876-2.785-1.91-3.82-1.036-1.035-2.548-1.513-3.98-1.513-1.434 0-2.866.558-3.98 1.513-1.115.955-1.752 2.308-1.911 3.82-7.403 39.96-4.936 75.145.238 115.026.558 6.05 10.826 5.97 11.463 0 5.731-40.518 8.358-74.667.239-115.025zM18.547 264.24c-.159-1.433-.875-2.786-1.91-3.821s-2.547-1.513-3.98-1.513-2.866.558-3.98 1.513c-1.115.955-1.831 2.308-1.91 3.82C0 291.066 2.07 313.275 7.243 340.18c.159 1.353.796 2.627 1.83 3.503 1.035.875 2.31 1.432 3.742 1.432 1.433 0 2.706-.477 3.741-1.432 1.035-.956 1.672-2.15 1.831-3.503 5.97-27.463 8.915-49.194.318-75.94z"/></svg>