<svg xmlns="http://www.w3.org/2000/svg" viewBox="0 0 512 512"><!--! Font Awesome Free 7.0.1 by @fontawesome - https://fontawesome.com License - https://fontawesome.com/license/free (Icons: CC BY 4.0, Fonts: SIL OFL 1.1, Code: MIT License) Copyright 2025 Fonticons, Inc.--><path fill="currentColor" d="M440.004 287.628c-15.973 0-31.787 3.655-46.09 10.727-4.69-9.456-9.537-17.72-10.331-23.919-.954-7.231-1.987-11.522-.874-20.105s6.119-20.74 6.04-21.615c-.08-.874-1.113-5.244-11.365-5.324-10.25-.08-19.071 1.987-20.104 4.689-1.828 4.927-3.259 10.012-4.212 15.178-1.828 9.297-20.502 42.514-31.071 59.838-3.497-6.755-6.437-12.715-7.073-17.483-.953-7.231-1.987-11.522-.874-20.105s6.119-20.74 6.04-21.615c-.08-.874-1.113-5.244-11.364-5.324s-19.072 1.987-20.105 4.689-2.146 9.059-4.212 15.178-26.939 61.427-33.455 75.81c-3.338 7.311-6.198 13.192-8.265 17.165-.317.636-.556 1.033-.715 1.351.239-.397.398-.795.398-.636a284 284 0 0 1-2.782 5.324v.08c-1.35 2.543-2.86 4.847-3.576 4.847-.477 0-1.51-6.675.239-15.813 3.735-19.231 12.555-49.11 12.476-50.143-.08-.557 1.669-5.722-5.801-8.503-7.232-2.623-9.854 1.748-10.49 1.748-.635 0-1.112 1.59-1.112 1.59s8.026-33.694-15.417-33.694c-14.621 0-34.965 16.052-44.977 30.594-6.278 3.417-19.867 10.807-34.17 18.675-5.484 3.02-11.126 6.118-16.45 9.059-.398-.398-.716-.795-1.113-1.192-28.449-30.356-80.976-51.812-78.75-92.578.794-14.86 5.96-53.878 101-101.24 77.877-38.78 140.1-28.131 150.827-4.45 15.417 33.773-33.296 96.63-114.192 105.69-30.833 3.417-47.044-8.503-51.097-12.953-4.212-4.689-4.848-4.927-6.437-4.053-2.622 1.43-.954 5.563 0 8.026 2.384 6.278 12.317 17.403 29.244 22.966 14.86 4.847 51.017 7.55 94.723-9.377 49.11-18.913 87.333-71.6 76.129-115.703-11.443-44.819-85.744-59.52-155.992-34.568-41.879 14.86-87.175 38.224-119.756 68.66C6.198 185.354 0 216.902 2.543 230.093c9.059 46.806 73.586 77.32 99.412 99.889-1.271.715-2.463 1.35-3.576 1.987-12.953 6.436-62.142 32.183-74.46 59.36-13.906 30.834 2.305 52.925 12.953 55.945 33.217 9.218 67.229-7.39 85.506-34.647s16.052-62.858 7.629-79.07c-.08-.237-.239-.396-.318-.635 3.337-1.986 6.754-3.973 10.171-5.96 6.596-3.894 13.033-7.47 18.675-10.569-3.179 8.583-5.483 18.913-6.675 33.853-1.43 17.482 5.8 40.13 15.178 49.03 4.132 3.894 9.138 3.974 12.237 3.974 10.967 0 15.894-9.06 21.377-19.867 6.754-13.191 12.714-28.528 12.714-28.528s-7.47 41.481 12.953 41.481c7.47 0 14.94-9.615 18.278-14.542v.08s.159-.319.556-.954c.795-1.192 1.192-1.907 1.192-1.907v-.239c3.02-5.165 9.615-17.006 19.549-36.554 12.873-25.27 25.19-56.819 25.19-56.819 1.192 6.914 2.861 13.748 4.927 20.503 2.225 7.549 6.914 15.813 10.649 23.84-3.02 4.132-4.848 6.516-4.848 6.516 0 .08 0 .08.08.159a251 251 0 0 1-7.867 9.933c-10.172 12.079-22.251 25.906-23.84 29.88-1.907 4.688-1.43 8.184 2.225 10.886 2.702 2.066 7.47 2.384 12.476 1.987 9.139-.636 15.575-2.861 18.674-4.291 5.722-2.067 11.126-4.848 16.053-8.424 9.933-7.31 15.972-17.8 15.416-31.627-.318-7.63-2.781-15.258-5.801-22.41.874-1.271 1.828-2.622 2.702-3.973 15.734-22.966 27.892-48.157 27.892-48.157 1.192 6.914 2.861 13.748 4.927 20.503 1.908 6.436 5.642 13.509 9.06 20.422-14.781 12-23.92 25.906-27.098 35.045-5.881 16.926-1.272 24.555 7.39 26.303 3.894.795 9.456-1.033 13.589-2.781 6.118-2.066 11.92-5.006 17.164-8.82 9.934-7.312 19.549-17.563 18.913-31.47-.238-6.277-1.986-12.555-4.291-18.594 12.476-5.245 28.687-8.106 49.348-5.722 44.263 5.165 52.925 32.82 51.256 44.342-1.669 11.523-10.966 17.96-14.065 19.867s-4.053 2.622-3.815 4.052c.398 2.067 1.828 1.987 4.45 1.51 3.656-.635 23.204-9.377 24.079-30.753 1.271-27.019-24.714-56.739-70.725-56.5M99.014 402.615c-14.621 15.973-35.123 22.012-43.944 16.926-9.456-5.483-5.722-29.005 12.317-46.01 10.967-10.331 25.112-19.867 34.489-25.748 2.145-1.271 5.244-3.178 9.059-5.483.635-.397.953-.556.953-.556.715-.477 1.51-.874 2.305-1.351 6.595 24.158.238 45.455-15.178 62.222m106.803-72.632c-5.086 12.476-15.814 44.263-22.33 42.594-5.562-1.43-8.98-25.668-1.112-49.508 3.973-11.999 12.396-26.303 17.403-31.866 8.026-8.98 16.847-11.84 18.913-8.264 2.781 4.689-9.695 39.256-12.874 47.044m88.208 42.117c-2.146 1.112-4.133 1.828-5.086 1.271-.716-.397.874-1.907.874-1.907s11.046-11.84 15.416-17.244a742 742 0 0 0 8.662-11.046c0 .398.08.795.08 1.272-.08 14.224-13.748 23.84-19.946 27.654m68.022-15.496c-1.589-1.112-1.35-4.847 3.974-16.45 2.066-4.529 6.834-12.158 15.098-19.469.954 2.782 1.43 5.642 1.51 8.583-.08 17.88-12.873 24.555-20.582 27.336"/></svg>