<svg xmlns="http://www.w3.org/2000/svg" viewBox="0 0 512 512"><!--! Font Awesome Free 7.0.1 by @fontawesome - https://fontawesome.com License - https://fontawesome.com/license/free (Icons: CC BY 4.0, Fonts: SIL OFL 1.1, Code: MIT License) Copyright 2025 Fonticons, Inc.--><path fill="currentColor" d="M512 211.64v43.2l-256 160L0 254.92v-43.2l256 160zm-155.6 57.6 37.68-23.52c-29.76-44.64-80.56-74.08-138.16-74.08S147.52 201 117.84 245.56h.24c2-1.84 4.08-3.6 6.16-5.36 71.76-59.52 175.52-46.48 232.16 29.04m-176.08 15.04c13.52-9.52 29.2-14.96 45.92-14.96 27.52 0 52.16 14.72 69.12 38.08l36.32-22.72c-16.72-23.92-44.48-39.6-75.84-39.6-31.12 0-58.72 15.52-75.52 39.2M82.88 180.6c105.44-83.44 254.56-61.12 334 49.68l.56.8 39.04-24.32C413.68 141.4 339.84 98.2 255.92 98.2c-82.8 0-157.28 42.8-200.4 108.48 7.92-8.4 18.16-18.8 27.36-26.08"/></svg>