<svg xmlns="http://www.w3.org/2000/svg" viewBox="0 0 512 512"><!--! Font Awesome Free 7.0.1 by @fontawesome - https://fontawesome.com License - https://fontawesome.com/license/free (Icons: CC BY 4.0, Fonts: SIL OFL 1.1, Code: MIT License) Copyright 2025 Fonticons, Inc.--><path fill="currentColor" d="M448.516 201.187c31.69 0 34.58 54.813-.31 54.813h-11.148v45.729H409.6V201.187zm51.097 154.53C456.155 450.58 374.09 512 268.387 512c-141.42 0-256-114.58-256-256s114.58-256 256-256C368.93 0 446.761 55.432 493.626 142.865l-192 112.31zm-39.742 12.902-62.245-31.69c-27.974 45.73-72.671 73.703-126.349 73.703-85.16 0-154.012-68.851-154.012-153.703 0-85.161 68.851-154.013 154.012-154.013 49.962 0 91.768 24.258 120.671 65.445l61.42-35.716C411.355 68.025 345.29 29.42 268.388 29.42 143.277 29.42 41.805 130.89 41.805 256s101.471 226.58 226.581 226.58c81.136 0 151.226-43.457 191.484-113.96"/></svg>