<svg xmlns="http://www.w3.org/2000/svg" viewBox="0 0 512 512"><!--! Font Awesome Free 7.0.1 by @fontawesome - https://fontawesome.com License - https://fontawesome.com/license/free (Icons: CC BY 4.0, Fonts: SIL OFL 1.1, Code: MIT License) Copyright 2025 Fonticons, Inc.--><path fill="currentColor" d="M512 73.143C512 32.8 479.2 0 438.857 0H73.143C32.8 0 0 32.8 0 73.143v365.714C0 479.2 32.8 512 73.143 512h365.714C479.2 512 512 479.2 512 438.857zm-148 244c-49.714 64.571-91.771 96.914-126.171 96.914-21.372 0-39.315-19.657-54.058-58.971a5571 5571 0 0 1-12-44.572c-20.8-78.057-32.685-122.743-52.8-122.743-2.742 0-12.342 5.715-28.685 17.258l-17.143-22.172c8-6.971 15.886-14.171 23.543-21.143 33.257-30.057 63.543-57.485 84-59.314 28.457-2.743 45.943 16.686 52.571 58.4 23.429 148.114 33.829 170.514 76.343 103.429 15.314-24.229 23.543-42.515 24.571-55.2 3.886-37.486-29.257-34.972-51.657-25.372C300.457 124.8 334.857 96.23 385.486 97.83c37.6 1.142 55.314 25.6 53.143 73.142-1.6 35.543-26.515 84.343-74.629 146.172"/></svg>