<svg xmlns="http://www.w3.org/2000/svg" viewBox="0 0 512 512"><!--! Font Awesome Free 7.0.1 by @fontawesome - https://fontawesome.com License - https://fontawesome.com/license/free (Icons: CC BY 4.0, Fonts: SIL OFL 1.1, Code: MIT License) Copyright 2025 Fonticons, Inc.--><path fill="currentColor" d="M16.5 25.928c-2.153 0-4.305.41-6.252 1.127S6.456 29.002 4.92 30.54s-2.767 3.28-3.587 5.226S0 39.866 0 42.018c0 .922.102 1.947.205 2.87l69.483 422.43a21.87 21.87 0 0 0 7.48 13.323c3.998 3.381 9.02 5.329 14.348 5.329H425.3c3.895.102 7.686-1.333 10.76-3.792 3.075-2.46 5.022-6.047 5.637-9.941l69.586-427.145c.717-4.304-.308-8.608-2.87-12.195s-6.354-5.842-10.658-6.56c-.922-.102-1.947-.204-2.87-.204zm292.996 305.191H202.914l-28.797-150.648H335.32z"/></svg>