<svg xmlns="http://www.w3.org/2000/svg" viewBox="0 0 512 512"><!--! Font Awesome Free 7.0.1 by @fontawesome - https://fontawesome.com License - https://fontawesome.com/license/free (Icons: CC BY 4.0, Fonts: SIL OFL 1.1, Code: MIT License) Copyright 2025 Fonticons, Inc.--><path fill="currentColor" d="M103.107 333.616H62.503V176.902h40.604zm75.962-83.376 10.379-73.338h52.808v156.714H206.9v-105.73l-15.284 105.73h-24.294l-14.827-103.45-.114 103.45h-35.586V176.902h52.58c.57 9.466 3.194 20.644 4.904 33.532zm77.102 83.376V176.902h30.34c19.389 0 30.794 1.026 37.638 2.737 6.957 1.94 12.204 4.79 15.854 9.01 3.535 3.764 5.817 7.528 6.615 13.687 1.026 5.019 1.597 14.942 1.597 29.883v54.975c0 14.03-.799 23.382-2.167 28.172-1.255 4.677-3.536 8.44-6.844 11.064-3.193 2.737-7.3 4.676-12.204 5.703-4.79.912-12.09 1.483-21.785 1.483zm40.49-129.91v101.966c5.817 0 9.467-1.14 10.721-2.624 1.255-2.28 2.054-8.668 2.054-19.047v-60.792c0-7.072-.115-11.634-.799-13.687-.342-2.053-1.369-3.422-2.965-5.36-1.597 0-4.677-.457-9.01-.457m65.355 129.91V176.902h38.893v50.07c3.308-2.737 6.957-5.588 10.835-7.527 4.106-1.711 10.037-2.737 14.6-2.737 5.474 0 10.15.912 14.028 2.509 3.878 1.71 6.844 3.992 9.125 7.071 1.939 2.966 3.08 6.045 3.536 8.897.456 2.965-.228 9.124-.228 18.477v44.026c0 9.352.228 16.31-.913 20.986-1.254 4.562-4.334 8.668-8.896 10.95-4.677 4.448-10.151 6.045-16.652 6.045-4.563 0-10.494-1.027-14.486-2.852-3.992-2.053-7.641-5.132-10.95-9.124l-2.394 9.923zm51.44-23.61c.798-2.053 1.14-6.844 1.14-14.257v-40.376c0-6.387-.342-10.836-1.255-12.775-.798-2.167-4.22-3.08-6.615-3.08-2.281 0-3.878.913-4.677 2.624-.684 1.711-1.14 6.16-1.14 13.23v41.517c0 6.958.456 11.406 1.369 13.23.684 1.94 2.395 2.852 4.676 2.852 2.51 0 4.79-.912 6.501-2.965m64.783-308.98c17.907 1.37 32.734 17.337 32.734 36.385v438.205c0 18.705-13.572 34.673-32.163 35.357-.343 0-.57 1.027-.913 1.027H35.13c-.342 0-.684-1.027-.912-.114-17.907-1.597-31.822-15.74-33.076-34.445L1.027 35.015C2.28 16.88 16.767 2.281 35.586 0H477.44c.228 0 .57 1.027.798 1.027M35.586 11.635c-12.889.798-23.154 11.063-23.952 24.066v441.74c.456 6.16 3.08 11.977 7.3 16.31 4.334 4.45 10.036 7.187 16.195 7.643h442.768c13.117-1.14 23.496-13.23 23.496-25.777V37.411c0-6.502-2.395-12.889-6.844-17.68-4.448-4.79-10.607-7.755-17.108-8.211H35.586z"/></svg>