<svg xmlns="http://www.w3.org/2000/svg" viewBox="0 0 512 512"><!--! Font Awesome Free 7.0.1 by @fontawesome - https://fontawesome.com License - https://fontawesome.com/license/free (Icons: CC BY 4.0, Fonts: SIL OFL 1.1, Code: MIT License) Copyright 2025 Fonticons, Inc.--><path fill="currentColor" d="M196.374 187.006V138.83c0-4.064 1.487-7.137 5.056-9.12l96.948-55.81C311.562 66.268 327.323 62.7 343.58 62.7c60.865 0 99.526 47.185 99.526 97.443 0 3.57 0 7.633-.496 11.698l-100.616-58.883c-6.047-3.568-12.193-3.568-18.24 0zm226.311 187.75V259.57c0-7.138-3.073-12.193-9.12-15.762l-127.38-74.049 41.634-23.89c3.568-1.983 6.641-1.983 10.11 0l96.949 55.909c27.954 16.257 46.69 50.753 46.69 84.259 0 38.561-22.8 74.148-58.883 88.82zM166.437 273.248l-41.634-24.385c-3.569-1.983-5.055-5.056-5.055-9.12v-111.62c0-54.322 41.634-95.46 97.939-95.46 21.312 0 41.138 7.137 57.89 19.826l-100.02 57.89c-6.047 3.57-9.12 8.625-9.12 15.762v147.207zm89.613 51.746-59.676-33.506v-71.075l59.676-33.506 59.675 33.506v71.075zm38.362 154.343c-21.312 0-41.138-7.137-57.89-19.826l100.02-57.89c6.047-3.57 9.12-8.625 9.12-15.762V238.652l42.13 24.386c3.568 1.983 5.055 5.056 5.055 9.12v111.619c0 54.323-42.13 95.46-98.435 95.46zM173.971 366.132l-96.849-55.81c-27.954-16.257-46.69-50.753-46.69-84.259 0-39.057 23.395-74.148 59.379-88.82v115.684c0 7.137 3.073 12.193 9.12 15.761l126.884 73.554-41.634 23.89c-3.568 1.983-6.641 1.983-10.11 0zM168.42 449.4c-57.396 0-99.526-43.12-99.526-96.452 0-4.064.496-8.129.992-12.193l100.02 57.891c6.048 3.569 12.194 3.569 18.24 0l127.38-73.553v48.176c0 4.065-1.486 7.138-5.055 9.12l-96.948 55.81c-13.184 7.633-28.945 11.201-45.202 11.201zm125.893 60.37c61.46 0 112.71-43.617 124.308-101.508C475.42 393.492 512 340.259 512 285.937c0-35.488-15.266-70.084-42.625-94.866 2.577-10.706 4.064-21.313 4.064-32.019 0-72.562-58.883-126.885-126.885-126.885-13.68 0-26.864 1.983-40.048 6.642-22.8-22.304-54.322-36.579-88.82-36.579-61.46 0-112.709 43.617-124.307 101.508C36.58 118.41 0 171.741 0 226.063c0 35.488 15.266 70.084 42.625 94.866-2.577 10.706-4.064 21.313-4.064 32.019 0 72.562 58.883 126.885 126.885 126.885 13.68 0 26.864-1.983 40.048-6.642 22.8 22.304 54.322 36.579 88.82 36.579"/></svg>