<svg xmlns="http://www.w3.org/2000/svg" viewBox="0 0 512 512"><!--! Font Awesome Free 7.0.1 by @fontawesome - https://fontawesome.com License - https://fontawesome.com/license/free (Icons: CC BY 4.0, Fonts: SIL OFL 1.1, Code: MIT License) Copyright 2025 Fonticons, Inc.--><path fill="currentColor" d="M255.899 512c-6.785 0-13.671-1.823-19.646-5.266l-62.48-36.962c-9.317-5.266-4.76-7.088-1.722-8.101 12.455-4.355 14.987-5.266 28.253-12.86 1.418-.811 3.24-.507 4.658.404l48 28.456c1.722 1.013 4.152 1.013 5.772 0l187.038-107.95c1.722-1.012 2.836-3.037 2.836-5.063V148.76c0-2.126-1.114-4.05-2.937-5.164L258.734 35.747c-1.721-1.013-4.05-1.013-5.772 0L66.127 143.697c-1.823 1.012-2.937 3.037-2.937 5.164v215.797c0 2.026 1.114 4.05 2.937 4.962l51.24 29.57c27.848 13.873 44.86-2.43 44.86-18.937V167.19c0-3.038 2.431-5.367 5.47-5.367h23.695c2.937 0 5.469 2.329 5.469 5.367v213.164c0 37.064-20.253 58.33-55.393 58.33-10.835 0-19.341 0-43.038-11.747l-49.012-28.253c-12.152-6.988-19.646-20.051-19.646-34.127V148.759c0-13.974 7.494-27.139 19.646-34.126L236.253 6.683C248.101 0 263.797 0 275.544 6.684l187.038 108.051c12.152 6.988 19.646 20.05 19.646 34.127v215.797c0 13.975-7.494 27.038-19.646 34.127l-187.038 107.95A39.4 39.4 0 0 1 255.9 512m150.987-212.76c0-40.405-27.342-51.139-84.76-58.734-58.126-7.696-64-11.645-64-25.215 0-11.24 4.963-26.228 48-26.228 38.38 0 52.558 8.304 58.431 34.228.506 2.43 2.734 4.253 5.266 4.253h24.304c1.519 0 2.936-.607 3.949-1.721s1.519-2.633 1.418-4.152c-3.747-44.658-33.418-65.418-93.367-65.418-53.368 0-85.165 22.481-85.165 60.253 0 40.912 31.696 52.253 82.835 57.317 61.266 5.974 66.026 14.987 66.026 27.038 0 20.86-16.81 29.772-56.203 29.772-49.519 0-60.354-12.456-64-37.063-.405-2.633-2.633-4.557-5.367-4.557h-24.202c-3.038 0-5.367 2.43-5.367 5.367 0 31.493 17.113 69.063 99.038 69.063 59.139-.101 93.164-23.494 93.164-64.202"/></svg>