<svg xmlns="http://www.w3.org/2000/svg" viewBox="0 0 512 512"><!--! Font Awesome Free 7.0.1 by @fontawesome - https://fontawesome.com License - https://fontawesome.com/license/free (Icons: CC BY 4.0, Fonts: SIL OFL 1.1, Code: MIT License) Copyright 2025 Fonticons, Inc.--><path fill="currentColor" d="M64 0h384c35.314 0 64 28.686 64 64v384c0 35.314-28.686 64-64 64H64c-35.314 0-64-28.686-64-64V64C0 28.686 28.686 0 64 0m245.6 276.8c7.543-60.457 29.6-79.429 58.743-79.429 28.914 0 51.314 23.086 51.314 56.8 0 33.715-22.514 56.8-51.314 56.8-31.886 0-52.914-24.571-58.743-34.171m-30.514-47.771c-9.372-17.715-16.343-41.486-21.943-63.543h-71.886v89.257c0 32.457-14.743 56.457-43.657 56.457s-45.486-23.886-45.486-56.343l.343-89.257H55.086v89.257c0 26.057 8.457 49.714 23.885 66.514 15.886 17.372 37.486 26.515 62.629 26.515 49.943 0 84.8-38.286 84.8-93.143v-60c5.257 19.771 17.6 57.714 41.371 91.086l-22.057 126.285h42.057l14.629-89.6c4.8 4 9.943 7.543 15.314 10.743 14.057 8.914 30.172 13.943 46.743 14.4h3.886c51.543 0 92.457-39.886 92.457-93.6s-41.029-93.943-92.457-93.943c-51.886 0-81.029 33.943-89.257 68.686z"/></svg>