<svg xmlns="http://www.w3.org/2000/svg" viewBox="0 0 512 512"><!--! Font Awesome Free 7.0.1 by @fontawesome - https://fontawesome.com License - https://fontawesome.com/license/free (Icons: CC BY 4.0, Fonts: SIL OFL 1.1, Code: MIT License) Copyright 2025 Fonticons, Inc.--><path fill="currentColor" d="M438.857 0H73.143C53.714 0 35.086 7.657 21.37 21.371 7.657 35.086 0 53.714 0 73.143v365.714c0 19.429 7.657 38.057 21.371 51.772C35.086 504.343 53.714 512 73.143 512h365.714c19.429 0 38.057-7.657 51.772-21.371C504.343 476.914 512 458.286 512 438.857V73.143c0-19.429-7.657-38.057-21.371-51.772C476.914 7.657 458.286 0 438.857 0M434.4 364.914l-.114.115c-2.857 3.2-6.172 5.828-9.943 7.771-7.429 4.114-15.314 7.2-23.543 9.371a15.8 15.8 0 0 0-4.457 2.058c-2.514 2.171-2.4 5.257-5.029 9.828-1.943 3.429-4.571 6.286-7.771 8.572-7.657 5.257-16.229 5.6-25.372 5.942-8.228.343-17.6.686-28.228 4.229-4.343 1.371-8.914 4.229-14.172 7.429-12.914 7.885-30.514 18.742-59.771 18.742s-46.743-10.742-59.543-18.628c-5.371-3.314-9.943-6.172-14.286-7.543-10.628-3.543-20-3.886-28.228-4.229-9.143-.342-17.714-.685-25.372-5.942-2.742-1.829-5.028-4.229-6.857-6.972-3.657-5.257-3.314-8.914-6.057-11.314-1.486-.914-2.971-1.714-4.686-2.057-8.114-2.172-15.885-5.257-23.2-9.257-3.542-1.829-6.742-4.343-9.485-7.2-7.543-7.772-9.486-16.915-6.515-24.915 3.886-10.628 13.258-13.828 22.172-18.628 16.914-9.143 30.057-20.686 39.314-34.172 2.629-3.771 4.914-7.885 6.857-12.114.915-2.514.915-3.771.229-5.029a8.8 8.8 0 0 0-2.514-2.514c-2.858-1.943-5.829-3.886-7.886-5.143-3.772-2.4-6.743-4.343-8.572-5.714-7.2-5.029-12.114-10.286-15.314-16.229-2.171-4.114-3.428-8.685-3.771-13.257s.457-9.257 2.171-13.6c4.686-12.457 16.572-20.228 30.857-20.228 2.972 0 6.057.343 8.915.914.8.229 1.6.343 2.285.571-.114-8.457.115-17.6.8-26.4 2.743-31.2 13.6-47.542 25.029-60.571 7.314-8.229 15.886-15.086 25.486-20.457 17.257-9.829 36.8-14.857 58.171-14.857s40.914 5.028 58.171 14.857c9.486 5.371 18.172 12.343 25.372 20.457 11.428 13.029 22.286 29.371 25.028 60.571.686 8.8 1.029 17.6.8 26.4.8-.228 1.6-.342 2.4-.571 2.972-.686 5.943-.914 8.915-.914 14.285 0 26.057 7.771 30.857 20.228 1.714 4.343 2.4 9.029 2.171 13.6-.228 4.572-1.6 9.143-3.771 13.257-3.086 5.943-8.114 11.315-15.314 16.229-1.943 1.371-4.915 3.314-8.572 5.714-2.057 1.372-5.143 3.315-8.228 5.372-.915.571-1.6 1.371-2.172 2.285-.571 1.143-.571 2.515.229 4.8 1.943 4.343 4.228 8.458 6.971 12.343 9.486 13.829 23.086 25.486 40.572 34.743 1.714.914 3.428 1.714 5.028 2.629.8.343 1.829.914 2.857 1.485 5.6 3.086 10.515 6.858 13.143 13.943 2.857 7.886 1.143 16.8-5.943 24.343zm-19.086-21.143C357.83 316 348.686 273.03 348.23 269.83c-.458-3.886-1.029-6.858 3.2-10.858 4.114-3.771 22.285-15.085 27.428-18.628 8.343-5.829 12-11.657 9.372-18.857-1.943-4.915-6.515-6.857-11.429-6.857-1.486 0-3.086.228-4.571.457-9.143 1.943-18.058 6.628-23.315 7.885-.571.115-1.257.229-1.943.229-2.742 0-3.771-1.257-3.542-4.571.685-10.058 2.057-29.6.457-47.886-2.172-25.143-10.286-37.6-19.886-48.686-4.686-5.257-26.4-28.228-68-28.228s-63.314 22.971-68 28.342c-9.6 11.086-17.714 23.543-19.886 48.686-1.6 18.286-.114 37.829.457 47.886.229 3.2-.8 4.571-3.542 4.571-.686 0-1.258-.114-1.943-.228-5.143-1.257-14.057-5.829-23.2-7.886-1.486-.343-2.972-.457-4.572-.457-4.914 0-9.485 1.828-11.428 6.857-2.743 7.2.914 13.029 9.371 18.857 5.029 3.543 23.314 14.857 27.429 18.629 4.228 3.885 3.657 6.971 3.2 10.857-.457 3.2-9.6 46.171-67.086 73.943-3.314 1.6-9.143 5.028 1.029 10.628 15.885 8.686 26.4 7.772 34.628 13.029 6.972 4.457 2.857 14.171 7.886 17.6 6.286 4.343 24.686-.343 48.343 7.543 19.885 6.514 32.114 25.143 67.428 25.143s47.772-18.629 67.315-25.143c23.771-7.886 42.171-3.2 48.342-7.543 5.029-3.543.915-13.143 7.886-17.6 8.229-5.257 18.743-4.343 34.629-13.143 10.057-5.6 4.343-9.029 1.028-10.743z"/></svg>