<svg xmlns="http://www.w3.org/2000/svg" viewBox="0 0 512 512"><!--! Font Awesome Free 7.0.1 by @fontawesome - https://fontawesome.com License - https://fontawesome.com/license/free (Icons: CC BY 4.0, Fonts: SIL OFL 1.1, Code: MIT License) Copyright 2025 Fonticons, Inc.--><path fill="currentColor" d="M222.171 205.371c-18.742 11.772-29.6 32.915-28.457 54.972 1.257 22.171 14.515 41.828 34.4 51.543 20 9.6 43.657 7.543 61.715-5.257 18.742-11.772 29.6-32.915 28.457-54.972-1.257-22.171-14.515-41.828-34.4-51.543-20-9.6-43.657-7.543-61.715 5.257M384.8 127.2c-5.943-5.943-13.143-10.629-21.029-13.714-20.685-8.115-65.828-7.772-94.971-7.429-4.686 0-9.029.114-12.8.114s-8.229 0-13.029-.114c-29.142-.343-74.057-.8-94.742 7.429-7.886 3.085-14.972 7.771-21.029 13.714s-10.629 13.143-13.714 21.029c-8.115 20.685-7.657 65.942-7.429 95.085 0 4.686.114 9.029.114 12.686s0 8-.114 12.686c-.228 29.143-.686 74.4 7.429 95.085 3.085 7.886 7.771 14.972 13.714 21.029s13.143 10.629 21.029 13.714c20.685 8.115 65.828 7.772 94.971 7.429 4.686 0 9.029-.114 12.8-.114s8.229 0 13.029.114c29.142.343 74.057.8 94.742-7.429 7.886-3.085 14.972-7.771 21.029-13.714s10.629-13.143 13.714-21.029c8.229-20.571 7.772-65.6 7.429-94.857 0-4.8-.114-9.257-.114-13.028s0-8.115.114-13.029c.343-29.143.8-74.171-7.429-94.857-3.085-7.886-7.771-14.971-13.714-21.029zm-76.686 50.857c20.686 13.829 34.972 35.314 39.886 59.657s-.229 49.715-14.057 70.4c-6.857 10.286-15.657 18.972-25.829 25.829-10.171 6.857-21.714 11.543-33.828 13.943-24.343 4.8-49.715-.229-70.4-14.057S168.914 298.514 164 274.17c-4.914-24.342.229-49.714 13.943-70.4 13.714-20.685 35.314-34.971 59.657-39.885s49.714.228 70.4 13.943h.114zm33.372-1.486a22.75 22.75 0 0 1-8.115-9.828c-1.714-4-2.057-8.343-1.257-12.686s2.972-8.114 5.943-11.2c2.972-3.086 6.972-5.143 11.2-5.943 4.229-.8 8.686-.457 12.686 1.257 4 1.715 7.428 4.458 9.828 8 2.4 3.543 3.658 7.772 3.658 12.115 0 2.857-.572 5.714-1.6 8.343s-2.743 5.028-4.686 7.085-4.457 3.657-7.086 4.8a21 21 0 0 1-8.343 1.715c-4.343 0-8.571-1.258-12.114-3.658zM512 73.143C512 32.8 479.2 0 438.857 0H73.143C32.8 0 0 32.8 0 73.143v365.714C0 479.2 32.8 512 73.143 512h365.714C479.2 512 512 479.2 512 438.857zM408 408c-21.371 21.371-47.314 28.114-76.571 29.6-30.172 1.714-120.686 1.714-150.858 0-29.257-1.486-55.2-8.229-76.571-29.6s-28.114-47.314-29.486-76.571c-1.714-30.172-1.714-120.686 0-150.858C76 151.314 82.63 125.371 104 104s47.429-28.114 76.571-29.486c30.172-1.714 120.686-1.714 150.858 0C360.686 76 386.629 82.63 408 104s28.114 47.314 29.486 76.571c1.714 30.058 1.714 120.458 0 150.743-1.486 29.257-8.115 55.2-29.486 76.572z"/></svg>