<svg xmlns="http://www.w3.org/2000/svg" viewBox="0 0 512 512"><!--! Font Awesome Free 7.0.1 by @fontawesome - https://fontawesome.com License - https://fontawesome.com/license/free (Icons: CC BY 4.0, Fonts: SIL OFL 1.1, Code: MIT License) Copyright 2025 Fonticons, Inc.--><path fill="currentColor" d="M256 36.542c-121.187 0-219.458 98.27-219.458 219.458 0 121.187 98.27 219.458 219.458 219.458 121.187 0 219.458-98.27 219.458-219.458 0-121.187-98.27-219.458-219.458-219.458M155.458 173.729c0-55.432 45.11-100.542 100.542-100.542s100.542 45.11 100.542 100.542v27.458c0 5.161-4.026 9.187-9.187 9.187h-18.271c-5.161 0-9.187-4.026-9.187-9.187V173.73c0-84.748-128-84.748-128 0v27.458c0 5.161-4.026 9.187-9.187 9.187h-18.271c-5.162 0-9.187-4.026-9.187-9.187V173.73zM402.271 384c0 10.013-8.258 18.271-18.271 18.271H128c-10.013 0-18.271-8.258-18.271-18.271V237.729c0-10.013 8.258-18.27 18.271-18.27h256c10.013 0 18.271 8.257 18.271 18.27zm-256-141.729v137.187c0 2.58-1.961 4.542-4.542 4.542h-9.187c-2.58 0-4.542-1.961-4.542-4.542V242.271c0-2.58 1.961-4.542 4.542-4.542h9.187c2.58 0 4.542 1.961 4.542 4.542m146.27 50.27c0 13.42-7.431 25.188-18.27 31.382v32.619c0 5.161-4.026 9.187-9.187 9.187h-18.271c-5.161 0-9.187-4.026-9.187-9.187v-32.62c-10.839-6.296-18.271-17.96-18.271-31.38 0-20.336 16.31-36.542 36.542-36.542s36.645 16.31 36.645 36.542M256 0C114.58 0 0 114.58 0 256s114.58 256 256 256 256-114.58 256-256S397.42 0 256 0m0 18.271c131.303 0 237.729 106.426 237.729 237.729S387.303 493.729 256 493.729 18.271 387.303 18.271 256 124.697 18.271 256 18.271"/></svg>