<svg xmlns="http://www.w3.org/2000/svg" viewBox="0 0 512 512"><!--! Font Awesome Free 7.0.1 by @fontawesome - https://fontawesome.com License - https://fontawesome.com/license/free (Icons: CC BY 4.0, Fonts: SIL OFL 1.1, Code: MIT License) Copyright 2025 Fonticons, Inc.--><path fill="currentColor" d="M257.6 512C113.806 512 2.116 392.052 6.452 249.703 9.342 167.948 51.045 92.593 126.71 42.84c.31 0 1.961-.62 1.135.826-5.987 5.677-114.89 133.987-14.555 233.703 51.407 51.097 92.904 2.58 92.904 2.58 39.741-51.716-.62-129.96-.62-129.96-10.322-25.704-47.174-41.394-47.174-41.394l29.729-32.826c25.187 10.838 44.594 39.948 44.594 39.948.825-30.555-22.607-63.38-22.607-63.38L256.155 0l45.729 51.716c-21.161 29.73-22.607 64.62-22.607 64.62 14.246-23.742 44.904-40.568 44.904-40.568l29.419 32.826c-28.284 9.187-46.865 41.187-46.865 41.187-16.31 29.419-27.974 92.284.62 131.406 33.445 46.039 90.529-2.89 90.529-2.89 106.013-94.865-10.839-232.258-10.839-232.258-6.297-5.678.826-2.89.826-2.89 51.716 37.677 118.297 87.122 119.948 211.406C509.884 404.852 404.697 512 257.6 512"/></svg>