<svg xmlns="http://www.w3.org/2000/svg" viewBox="0 0 512 512"><!--! Font Awesome Free 7.0.1 by @fontawesome - https://fontawesome.com License - https://fontawesome.com/license/free (Icons: CC BY 4.0, Fonts: SIL OFL 1.1, Code: MIT License) Copyright 2025 Fonticons, Inc.--><path fill="currentColor" d="M441.172 315.456c50.323 57.575 3.761 141.118-82.288 141.118-35.459 0-70.56-15.85-89.632-44.771-6.178.358-20.326.358-26.504 0-19.162 29.011-54.263 44.77-89.632 44.77-85.512 0-132.79-83.273-82.288-141.117C0 197.35 98.854 55.426 256 55.426c157.235 0 256 142.014 185.172 260.03m-304.084-74.32h37.16v-52.024h-37.16zm194.485 77.096V296.92c-54.173 18.714-118.553 8.237-167.98-30.445l.179 22.296c45.756 41.548 117.926 51.845 167.712 29.46zm-135.029-77.096h148.73v-52.024h-148.73z"/></svg>