<svg xmlns="http://www.w3.org/2000/svg" viewBox="0 0 512 512"><!--! Font Awesome Free 7.0.1 by @fontawesome - https://fontawesome.com License - https://fontawesome.com/license/free (Icons: CC BY 4.0, Fonts: SIL OFL 1.1, Code: MIT License) Copyright 2025 Fonticons, Inc.--><path fill="currentColor" d="M314.89 481.652h-1.032c-43.252 0-84.748-17.24-115.406-47.794-30.658-30.555-47.794-72.155-47.794-115.406s17.239-84.749 47.794-115.407 72.154-47.793 115.406-47.793c97.961 0 173.626 85.78 162.065 182.296 4.129 5.265 8.464 9.91 11.56 15.794 13.833-31.277 20.956-64.413 20.956-100.852C508.439 113.032 395.406 0 255.949 0 116.49 0 3.56 113.032 3.56 252.49s113.033 252.49 252.387 252.49a244.1 244.1 0 0 0 72.671-10.425c-5.367-3.613-9.187-8.361-13.729-12.903M395.716 307.2c-56.568 0-102.4 45.832-102.4 102.4S339.148 512 395.716 512s102.4-45.832 102.4-102.4-45.832-102.4-102.4-102.4"/></svg>