<svg xmlns="http://www.w3.org/2000/svg" viewBox="0 0 512 512"><!--! Font Awesome Free 7.0.1 by @fontawesome - https://fontawesome.com License - https://fontawesome.com/license/free (Icons: CC BY 4.0, Fonts: SIL OFL 1.1, Code: MIT License) Copyright 2025 Fonticons, Inc.--><path fill="currentColor" d="M109.714 0C49.143 0 0 49.143 0 109.714v292.572C0 462.857 49.143 512 109.714 512h292.572C462.857 512 512 462.857 512 402.286V109.714C512 49.143 462.857 0 402.286 0zm88.8 248.343c0 37.943 30.743 68.8 68.8 68.8 37.943 0 68.686-30.857 68.686-68.8s-30.743-68.686-68.686-68.686c-38.057 0-68.8 30.743-68.8 68.686m-62.4 158.286c-.343-.915-.571-1.943-.571-2.972v-279.2c0-2.057.8-4.114 2.286-5.6s3.428-2.286 5.6-2.286h19.314c1.371 0 2.628.343 3.771.915a7 7 0 0 1 2.857 2.628l16 24.915c22.515-17.829 50.858-28.572 81.829-28.572 72.686 0 131.657 58.972 131.657 131.657C398.857 320.8 340 380 267.2 380c-25.143 0-48.686-7.086-68.686-19.314v42.971c0 1.029-.228 2.057-.571 2.972-.343.914-1.029 1.828-1.714 2.514-.686.686-1.6 1.257-2.515 1.714-.914.457-1.943.572-2.971.572h-47.2c-1.029 0-2.057-.229-2.972-.572-.914-.343-1.828-1.028-2.514-1.714s-1.257-1.6-1.714-2.514z"/></svg>