<svg xmlns="http://www.w3.org/2000/svg" viewBox="0 0 512 512"><!--! Font Awesome Free 7.0.1 by @fontawesome - https://fontawesome.com License - https://fontawesome.com/license/free (Icons: CC BY 4.0, Fonts: SIL OFL 1.1, Code: MIT License) Copyright 2025 Fonticons, Inc.--><path fill="currentColor" d="M512 141.886c0-5.143-.114-10.286-.229-15.429-.114-11.314-1.142-22.514-2.971-33.6-1.943-11.086-5.486-21.943-10.514-32A106.9 106.9 0 0 0 451.2 13.886c-10.057-5.143-20.914-8.686-32-10.515C408.114 1.543 396.8.514 385.6.4c-5.143-.114-10.286-.229-15.429-.229L141.83.057c-5.143 0-10.286.114-15.429.229-2.743.114-5.6.228-8.457.343-8.457.342-16.914 1.257-25.257 2.628-8.343 1.486-16.457 3.772-24.229 6.972-2.628 1.142-5.257 2.285-7.771 3.542-7.543 3.886-14.629 8.572-21.029 14.058-2.171 1.828-4.228 3.771-6.171 5.714-8 8-14.743 17.143-19.886 27.2-5.029 10.057-8.686 20.914-10.514 32-1.829 11.086-2.743 22.4-2.857 33.6C.114 131.486 0 136.629 0 141.77V370.23c0 5.142.114 10.285.229 15.428.114 11.314 1.142 22.514 2.971 33.6 1.943 11.086 5.486 21.943 10.514 32a107.24 107.24 0 0 0 46.972 46.972c10.057 5.028 20.914 8.571 32 10.514 11.085 1.828 22.4 2.857 33.6 2.971 5.143.115 10.285.229 15.428.229h228.343c5.143 0 10.286-.114 15.429-.229 11.314-.114 22.514-1.143 33.6-2.971 11.085-1.943 21.943-5.486 32-10.514a106.9 106.9 0 0 0 46.971-47.086c5.029-10.057 8.686-20.914 10.514-32 1.829-11.086 2.858-22.4 2.972-33.6.114-5.143.228-10.286.228-15.429V141.771zm-79.886 275.428c-22.857-44.457-65.371-33.485-87.2-22.285-1.943 1.142-4 2.285-5.943 3.428l-.457.229c-45.143 24-105.714 25.714-166.628-.457A267.9 267.9 0 0 1 51.543 294.914a265 265 0 0 0 44.8 26.743c64.457 30.172 129.143 28 174.857 0C206.057 271.6 151.657 206.23 109.943 153.43c-8-9.258-15.086-19.2-21.486-29.6C138.4 169.543 217.257 226.914 245.6 242.8c-60.114-63.429-113.029-141.6-110.514-139.086 94.628 95.315 181.943 149.257 181.943 149.257 3.314 1.829 5.714 3.2 7.657 4.572 1.828-4.686 3.428-9.372 4.8-14.286 15.085-55.2-1.943-118.4-40.343-170.514 87.771 52.686 139.657 152.8 118.4 237.486-.457 1.942-1.143 3.885-1.6 5.828 44 54.172 32 112.229 26.4 101.257z"/></svg>