<svg xmlns="http://www.w3.org/2000/svg" viewBox="0 0 512 512"><!--! Font Awesome Free 7.0.1 by @fontawesome - https://fontawesome.com License - https://fontawesome.com/license/free (Icons: CC BY 4.0, Fonts: SIL OFL 1.1, Code: MIT License) Copyright 2025 Fonticons, Inc.--><path fill="currentColor" d="M277.086 0C206.343 0 126.8 19.314 66.57 63.314c-5.828 3.543-10.4 10.515-8.228 22.172C59.6 91.314 64.17 116.8 70 130.743c4.686 11.657 16.229 11.657 23.2 6.971C130.343 112.23 203.486 83.2 267.257 83.2c66.172 0 67.314 32.457 67.314 83.543v44c-99.885 12.914-242.514 39.543-278.514 54.628C15.486 284 21.314 372.23 21.314 393.143S38.686 512 164.057 512c54.629 0 129.943-23.657 175.2-48.114v29.028c0 3.429 2.4 9.372 6.972 10.4 3.542 1.143 57.942 2.286 68.457 2.286s71.428.343 76-.8c4.685-1.143 5.828-6.971 5.828-10.4V155.429C496.4 63.657 430.343 0 277.086 0m57.371 397.714C310 412.8 278.8 425.6 244.057 425.6c-60.343 0-67.314-38.286-67.428-51.086 0-13.943-3.429-48.8 20.914-60.457 27.771-15.086 85.828-33.6 136.914-38.286z"/></svg>