<svg xmlns="http://www.w3.org/2000/svg" viewBox="0 0 512 512"><!--! Font Awesome Free 7.0.1 by @fontawesome - https://fontawesome.com License - https://fontawesome.com/license/free (Icons: CC BY 4.0, Fonts: SIL OFL 1.1, Code: MIT License) Copyright 2025 Fonticons, Inc.--><path fill="currentColor" d="M213.067 99.467c-86.311 0-156.267 69.955-156.267 156.266S126.756 412 213.067 412s156.266-69.956 156.266-156.267S299.378 99.467 213.067 99.467M177.6 348c-37.067-14.133-63.467-50.133-63.467-92.267s26.4-78.133 63.467-92.533zm70.933.267V163.2C285.6 177.6 312 213.6 312 255.733s-26.4 78.134-63.467 92.534m220.8-291.378H42.667C19.11 56.889 0 76 0 99.556v312.888C0 436 19.111 455.111 42.667 455.111h426.666C492.89 455.111 512 436 512 412.444V99.556c0-23.556-19.111-42.667-42.667-42.667M293.067 426.667H212.8c-94.4 0-172.267-76-172.267-169.067 0-101.867 77.867-172.267 172.267-172.267h80.267c93.333 0 178.4 70.4 178.4 172.267 0 93.067-85.067 169.067-178.4 169.067"/></svg>