<svg xmlns="http://www.w3.org/2000/svg" viewBox="0 0 512 512"><!--! Font Awesome Free 7.0.1 by @fontawesome - https://fontawesome.com License - https://fontawesome.com/license/free (Icons: CC BY 4.0, Fonts: SIL OFL 1.1, Code: MIT License) Copyright 2025 Fonticons, Inc.--><path fill="currentColor" d="M234.684 5.86C244.685.1 260.95 0 271.053 5.657l193.06 108.806c10.103 5.657 18.185 19.599 18.185 31.217v219.428c0 11.517-8.183 25.56-18.184 31.318L270.952 506.242c-10.002 5.758-26.267 5.657-36.167-.203l-187-109.512c-10.001-5.86-18.083-19.902-18.083-31.419v-219.53c0-11.516 8.082-25.66 18.083-31.419zm-78.195 201.95c-16.063 0-32.227.102-48.29.102v102.44h19.296v-30.106h28.994c50.21 0 50.11-72.435 0-72.435m141.538 101.33-31.015-34.955c37.38-7.577 35.157-65.87-11.012-66.172-16.265 0-32.53-.101-48.796-.101v102.642H226.5v-34.248h18.59l29.903 34.248h23.034v-1.313zM256 225.995c23.54 0 23.54 32.834 0 32.834h-29.399v-32.834zm-96.58-1.616c21.417 0 21.316 39.299 0 39.299h-32.632V224.48h32.631zm194.575-18.387c-69.203 0-71.728 106.886 0 106.886 70.213 0 70.112-106.886 0-106.886m0 17.579c44.553 0 45.26 71.627 0 71.627s-44.855-71.627 0-71.627"/></svg>