<svg xmlns="http://www.w3.org/2000/svg" viewBox="0 0 512 512"><!--! Font Awesome Free 7.0.1 by @fontawesome - https://fontawesome.com License - https://fontawesome.com/license/free (Icons: CC BY 4.0, Fonts: SIL OFL 1.1, Code: MIT License) Copyright 2025 Fonticons, Inc.--><path fill="currentColor" d="M307.415 45.148c-166.684 0-247.381 219.176-144.452 347.764 35.745 44.462 86.77 74.038 144.452 74.038 35.55 0 68.848-10.87 97.347-29.772-42.895 38.39-99.795 61.699-161.885 61.699-3.82 0-7.835 0-11.654-.294C102.439 492.609 0 386.35 0 256 0 121.83 108.707 13.123 242.877 13.123h.783c61.797.294 118.207 23.602 161.004 61.797-28.4-19-61.796-29.772-97.249-29.772m99.697 389.484c-40.055 24.19-88.826 23.112-129.273-5.68 55.04-20.077 95.682-89.708 95.682-172.952 0-82.95-40.349-152.581-95.388-172.952 40.937-28.597 89.316-29.674 130.155-4.897 103.712 96.662 103.32 260.212-1.176 356.481"/></svg>