<svg xmlns="http://www.w3.org/2000/svg" viewBox="0 0 512 512"><!--! Font Awesome Free 7.0.1 by @fontawesome - https://fontawesome.com License - https://fontawesome.com/license/free (Icons: CC BY 4.0, Fonts: SIL OFL 1.1, Code: MIT License) Copyright 2025 Fonticons, Inc.--><path fill="currentColor" d="M0 73.143v365.714C0 479.2 32.8 512 73.143 512h365.714C479.2 512 512 479.2 512 438.857V73.143C512 32.8 479.2 0 438.857 0H73.143C32.8 0 0 32.8 0 73.143m385.714 14.286 50.972 133.028.457 1.372c6.4 19.2 8.228 40.228 2.628 60a95.45 95.45 0 0 1-34.057 49.485l-.228.115-78.172 58.514-61.828 46.743c-.572.228-1.257.571-1.943.914-2.286 1.143-5.029 2.286-7.657 2.286-3.429 0-7.772-2.057-9.486-3.2l-61.943-46.743-77.6-58.172-.457-.342-.229-.115C89.83 318.971 77.83 301.6 72.23 281.83s-4.8-40.8 2.514-60l.571-1.372L126.4 87.43c1.029-2.629 2.857-4.915 5.143-6.4a14.2 14.2 0 0 1 5.943-2.058c1.485-.8 2.4-.457 3.885.115.686.228 1.372.571 2.286.8 1.143.457 1.829 1.028 2.743 1.714.686.457 1.371 1.143 2.4 1.714 1.371 1.6 2.514 3.429 3.086 5.486l33.371 105.371h140.457L360.23 88.8c.571-2.057 1.6-3.886 2.971-5.486s3.2-2.743 5.143-3.543c1.943-.685 4.114-1.028 6.171-.8 2.057.229 4.115.915 5.943 2.058 2.286 1.485 4.229 3.771 5.257 6.4"/></svg>