<svg xmlns="http://www.w3.org/2000/svg" viewBox="0 0 512 512"><!--! Font Awesome Free 7.0.1 by @fontawesome - https://fontawesome.com License - https://fontawesome.com/license/free (Icons: CC BY 4.0, Fonts: SIL OFL 1.1, Code: MIT License) Copyright 2025 Fonticons, Inc.--><path fill="currentColor" d="M512 266.13v70.961c0 63.224-51.21 114.434-114.434 114.434-62.918 0-114.434-50.701-114.434-113.314v-71.47l34.92 16.29 52.026-15.476v71.878c0 14.966 12.217 26.98 27.183 26.98s27.285-12.014 27.285-26.98V266.13zm-228.766-59.253 34.92 16.29 52.025-15.476v-36.244c0-61.595-52.024-110.972-114.128-110.972-61.9 0-114.129 49.072-114.129 110.158V335.97c0 15.17-12.217 27.184-27.183 27.184S87.556 351.14 87.556 335.97V266.13H0v70.961c0 63.122 51.21 114.332 114.434 114.332 62.715 0 114.434-50.395 114.434-112.805v-163.2c0-14.966 12.217-27.183 27.183-27.183s27.183 12.217 27.183 27.183z"/></svg>