<svg xmlns="http://www.w3.org/2000/svg" viewBox="0 0 512 512"><!--! Font Awesome Free 7.0.1 by @fontawesome - https://fontawesome.com License - https://fontawesome.com/license/free (Icons: CC BY 4.0, Fonts: SIL OFL 1.1, Code: MIT License) Copyright 2025 Fonticons, Inc.--><path fill="currentColor" d="M460.8 0H51.2C22.971 0 0 22.971 0 51.2v409.6C0 489.029 22.971 512 51.2 512h409.6c28.229 0 51.2-22.971 51.2-51.2V51.2C512 22.971 489.029 0 460.8 0m-29.943 170.057c-1.6 36-26.743 85.372-75.428 147.886C305.143 383.314 262.514 416 227.77 416c-21.6 0-39.771-19.886-54.742-59.771-29.143-106.629-41.6-169.143-65.6-169.143-2.743 0-12.458 5.828-29.029 17.371l-17.371-22.4c42.628-37.486 83.314-79.086 108.8-81.371 28.8-2.743 46.514 16.914 53.142 59.085 23.658 149.943 34.172 172.572 77.258 104.686C315.657 240 324 221.371 325.143 208.571c4-37.942-29.6-35.314-52.343-25.6 18.171-59.542 52.914-88.457 104.229-86.857 38.057 1.029 56 25.715 53.828 73.943"/></svg>