<svg xmlns="http://www.w3.org/2000/svg" viewBox="0 0 512 512"><!--! Font Awesome Free 7.0.1 by @fontawesome - https://fontawesome.com License - https://fontawesome.com/license/free (Icons: CC BY 4.0, Fonts: SIL OFL 1.1, Code: MIT License) Copyright 2025 Fonticons, Inc.--><path fill="currentColor" d="M483.68 213c-3.83 2.474-9.015 1.437-11.488-2.392-2.473-3.83-1.436-9.015 2.393-11.488 3.83-2.473 9.015-1.436 11.488 2.393 2.473 3.83 1.436 9.015-2.393 11.488m13.163-18.188c3.909 16.514-6.382 33.027-22.896 36.936-16.514 3.91-33.027-6.382-36.936-22.895-3.91-16.514 6.382-33.028 22.896-36.937 16.513-3.909 33.027 6.383 36.936 22.896m-149.42 119.265c2.553 3.67 4.627 7.18 5.823 10.69.798 2.473 1.915 5.823 4.388 7.1.16.08.24.16.399.16 4.547 1.674 16.194 1.355 16.194 1.355h21.38c1.835 0 17.87 0 17.471-1.834-1.914-8.616-11.886-10.132-19.465-14.6-6.94-4.148-13.562-8.855-16.593-16.992-1.596-4.148-.639-13.88 2.074-17.39 1.994-2.554 4.866-4.229 7.977-4.947 3.43-.718 7.02-.08 10.451.24 4.228.398 8.456 1.196 12.684 1.755 8.217 1.037 16.434 1.515 24.73 1.276 13.642-.399 27.284-2.553 40.208-6.94 9.014-3.032 17.87-7.1 25.528-12.844 8.695-6.462 6.462-5.904-2.393-4.946-10.61 1.116-21.22 1.276-31.83.638-9.893-.559-19.705-1.755-28.64-6.303-7.02-3.67-13.084-7.26-18.668-12.923-.798-.878-1.356-3.35.16-4.946 1.515-1.516 4.627-.638 5.584.16 9.733 8.136 24.332 14.838 39.33 15.556 8.137.398 16.034.558 24.251.239 4.069-.16 10.211-.16 14.28-.24 2.074 0 7.818.559 8.935-1.675.319-.638.319-1.436.24-2.154-1.197-32.628-3.59-69.325-37.735-84.96-25.448-11.648-63.58-29.677-79.696-37.176-3.749-1.755-8.137 1.037-8.137 5.185 0 10.85.559 26.566.559 40.766-7.738-7.898-20.742-12.844-30.634-17.392-11.248-5.185-22.896-9.573-34.702-13.242-23.774-7.34-48.424-11.887-73.155-14.36-28.08-2.792-56.64-1.436-84.323 4.228-45.392 9.733-90.226 31.671-124.21 63.661-20.822 19.625-37.176 47.626-38.292 75.947C0 307.296 11.248 328.835 31.91 351.093c32.948 35.42 103.868 40.366 132.587-1.596 12.924-18.907 15.716-44.515 6.382-65.416-9.413-20.901-30.953-35.979-53.768-36.697-17.71-.558-36.617 8.456-43.478 24.81-5.186 12.525-2.234 28.002 7.18 37.734 3.67 3.83 8.695 6.94 14.12 5.664 3.191-.718 5.903-3.11 6.382-6.382.718-4.786-3.51-7.897-6.063-11.567-4.627-6.621-3.75-16.673 2.154-22.258 4.946-4.786 12.206-6.222 19.066-6.142 6.382 0 12.924 1.117 18.429 4.387 7.738 4.548 12.923 12.924 14.678 21.7 5.345 26.325-16.114 47.785-45.153 49.46-14.838.878-29.995-3.031-41.563-12.365-29.437-23.773-36.617-72.037-3.031-97.885 31.91-24.49 72.117-18.188 95.89-5.424 18.987 10.21 33.107 26.804 43.877 45.232 5.345 9.254 9.972 18.907 14.2 28.8 4.068 9.413 7.897 18.986 16.114 25.926 5.425 4.627 12.126 4.468 19.226 4.468h40.526c5.505 0 4.149-3.67 1.755-6.143-5.345-5.504-13.083-6.701-20.263-8.695-16.354-4.468-14.678-26.167-10.131-26.167 14.599 0 15.077.479 27.842.24 18.508-.24 24.092-1.357 38.531 3.988 7.738 2.872 15.158 10.451 20.024 17.312"/></svg>