<svg xmlns="http://www.w3.org/2000/svg" viewBox="0 0 512 512"><!--! Font Awesome Free 7.0.1 by @fontawesome - https://fontawesome.com License - https://fontawesome.com/license/free (Icons: CC BY 4.0, Fonts: SIL OFL 1.1, Code: MIT License) Copyright 2025 Fonticons, Inc.--><path fill="currentColor" d="M171.252 407.38c0 2.065-2.375 3.717-5.368 3.717-3.407.31-5.78-1.342-5.78-3.716 0-2.065 2.373-3.716 5.367-3.716 3.097-.31 5.78 1.341 5.78 3.716m-32.104-4.645c-.722 2.065 1.342 4.44 4.44 5.059 2.683 1.032 5.78 0 6.4-2.065.618-2.064-1.343-4.439-4.44-5.368-2.683-.722-5.677.31-6.4 2.374m45.626-1.754c-2.993.722-5.058 2.684-4.748 5.058.31 2.064 2.993 3.406 6.09 2.684 2.994-.723 5.058-2.684 4.749-4.749-.31-1.961-3.097-3.303-6.09-2.993M252.697 5.419C109.523 5.42 0 114.116 0 257.29 0 371.768 72.052 469.73 174.968 504.206c13.213 2.375 17.858-5.78 17.858-12.49 0-6.4-.31-41.703-.31-63.38 0 0-72.258 15.483-87.432-30.762 0 0-11.768-30.039-28.697-37.78 0 0-23.639-16.207 1.652-15.897 0 0 25.703 2.064 39.845 26.632 22.606 39.845 60.49 28.387 75.251 21.574 2.375-16.516 9.084-27.974 16.517-34.787-57.704-6.4-115.923-14.761-115.923-114.064 0-28.387 7.845-42.633 24.361-60.8-2.684-6.71-11.458-34.375 2.684-70.09 21.574-6.71 71.226 27.87 71.226 27.87 20.645-5.78 42.839-8.774 64.826-8.774s44.18 2.994 64.826 8.774c0 0 49.651-34.684 71.225-27.87 14.142 35.819 5.368 63.38 2.684 70.09 16.516 18.27 26.633 32.516 26.633 60.8 0 99.613-60.8 107.56-118.504 114.064 9.497 8.155 17.549 23.639 17.549 47.897 0 34.787-.31 77.832-.31 86.297 0 6.71 4.748 14.864 17.858 12.49C442.013 469.729 512 371.768 512 257.29 512 114.116 395.871 5.42 252.697 5.42M100.335 361.445c-1.341 1.032-1.032 3.407.723 5.368 1.652 1.652 4.026 2.374 5.368 1.032 1.342-1.032 1.032-3.406-.723-5.368-1.651-1.651-4.026-2.374-5.368-1.032m-11.148-8.361c-.722 1.342.31 2.993 2.374 4.026 1.652 1.032 3.716.722 4.439-.723.723-1.342-.31-2.993-2.374-4.026-2.065-.62-3.716-.31-4.439.723m33.445 36.748c-1.651 1.342-1.032 4.439 1.342 6.4 2.374 2.374 5.368 2.684 6.71 1.033 1.342-1.342.722-4.44-1.342-6.4-2.271-2.375-5.368-2.684-6.71-1.033m-11.767-15.174c-1.652 1.032-1.652 3.716 0 6.09 1.651 2.375 4.438 3.407 5.78 2.375 1.652-1.342 1.652-4.026 0-6.4-1.445-2.375-4.129-3.407-5.78-2.065"/></svg>