<svg xmlns="http://www.w3.org/2000/svg" viewBox="0 0 512 512"><!--! Font Awesome Free 7.0.1 by @fontawesome - https://fontawesome.com License - https://fontawesome.com/license/free (Icons: CC BY 4.0, Fonts: SIL OFL 1.1, Code: MIT License) Copyright 2025 Fonticons, Inc.--><path fill="currentColor" d="M471.086 0H40.914C18.286 0 0 18.286 0 40.914v430.172C0 493.714 18.286 512 40.914 512h430.172C493.714 512 512 493.714 512 471.086V40.914C512 18.286 493.714 0 471.086 0m-38.4 344.8c0 45.943-37.257 83.2-83.2 83.2H80.229c0-45.943 37.257-83.2 83.2-83.2zm0-130.171c0 45.942-37.257 83.2-83.2 83.2H80.229c0-45.943 37.257-83.2 83.2-83.2zm0-130.172c0 45.943-37.257 83.2-83.2 83.2H80.229c0-45.943 37.257-83.2 83.2-83.2z"/></svg>