<svg xmlns="http://www.w3.org/2000/svg" viewBox="0 0 512 512"><!--! Font Awesome Free 7.0.1 by @fontawesome - https://fontawesome.com License - https://fontawesome.com/license/free (Icons: CC BY 4.0, Fonts: SIL OFL 1.1, Code: MIT License) Copyright 2025 Fonticons, Inc.--><path fill="currentColor" d="M73.143 0C32.8 0 0 32.8 0 73.143v365.714C0 479.2 32.8 512 73.143 512h365.714C479.2 512 512 479.2 512 438.857V73.143C512 32.8 479.2 0 438.857 0zm263.086 242.629c22.285 10.628 38.514 26.857 47.085 46.742C395.2 317.143 396.343 362.4 360.23 398.4c-27.658 27.543-61.143 40-108.686 40.343h-.229c-53.485-.343-94.628-18.4-122.171-53.486-24.572-31.2-37.257-74.743-37.714-129.257v-.229c.457-54.514 13.142-97.942 37.714-129.257 27.657-35.085 68.8-53.143 122.171-53.485h.229c53.6.342 95.2 18.285 123.657 53.257 14.057 17.257 24.343 38.057 30.857 62.171l-30.743 8.229c-5.371-19.657-13.6-36.457-24.457-49.829-22.171-27.314-55.657-41.257-99.428-41.6-43.429.343-76.343 14.286-97.715 41.372-20 25.485-30.4 62.171-30.743 109.142.343 46.972 10.743 83.772 30.743 109.143 21.372 27.2 54.172 41.143 97.715 41.372 39.2-.343 65.028-9.6 86.628-31.2 24.572-24.572 24.114-54.743 16.229-73.143-4.572-10.743-13.029-19.772-24.343-26.629-2.743 20.572-9.029 36.8-18.857 49.372-13.029 16.571-31.657 25.6-55.315 26.857-17.942 1.028-35.2-3.314-48.685-12.229-15.886-10.514-25.143-26.514-26.172-45.143-1.943-36.8 27.2-63.2 72.572-65.828 16.114-.914 31.2-.229 45.143 2.171-1.829-11.314-5.6-20.228-11.2-26.743-7.658-8.914-19.543-13.485-35.2-13.6h-.458c-12.571 0-29.714 3.543-40.685 20.115L184.8 192.229c14.629-22.172 38.4-34.4 66.857-34.4h.686c47.771.342 76.114 30.057 78.971 82.057 1.6.685 3.2 1.371 4.8 2.171zM254.17 319.77c19.429-1.028 41.6-8.685 45.372-55.771-10.057-2.171-21.257-3.314-33.143-3.314q-5.486 0-10.971.343c-32.686 1.828-43.543 17.714-42.743 31.885 1.028 19.086 21.714 28 41.6 26.972z"/></svg>