<svg xmlns="http://www.w3.org/2000/svg" viewBox="0 0 512 512"><!--! Font Awesome Free 7.0.1 by @fontawesome - https://fontawesome.com License - https://fontawesome.com/license/free (Icons: CC BY 4.0, Fonts: SIL OFL 1.1, Code: MIT License) Copyright 2025 Fonticons, Inc.--><path fill="currentColor" d="M254.734 246.23 136.986 128.582c-.608-.607-1.013-1.316-1.418-2.025s-.506-1.62-.506-2.43.202-1.62.506-2.43.81-1.417 1.418-2.024l117.85-117.75c.91-.91 2.025-1.518 3.24-1.72C259.29 0 260.606.1 261.72.505s2.127 1.316 2.835 2.329a6.14 6.14 0 0 1 1.114 3.543v235.397c0 1.316-.304 2.531-1.012 3.645-.71 1.114-1.722 1.923-2.937 2.43a6 6 0 0 1-3.746.303c-1.215-.303-2.43-.91-3.24-1.923m40.802-4.455V105.701c0-.81.102-1.62.507-2.43s.81-1.519 1.316-2.126c.506-.608 1.316-1.114 2.025-1.418a6.5 6.5 0 0 1 2.43-.506h136.074a6.4 6.4 0 0 1 3.544 1.114c1.012.708 1.822 1.72 2.328 2.834.507 1.114.608 2.43.304 3.645a7.7 7.7 0 0 1-1.721 3.24L306.167 246.23c-.91.81-2.025 1.417-3.24 1.62-1.215.202-2.43.101-3.543-.405-1.114-.506-2.126-1.316-2.835-2.329-.709-1.012-1.114-2.227-1.114-3.442zm30.982 35.436c-1.215 0-2.531-.304-3.544-1.012-1.012-.71-1.924-1.62-2.43-2.835s-.607-2.43-.405-3.645c.203-1.215.81-2.329 1.721-3.24l85.25-85.249c.607-.607 1.316-1.012 2.024-1.417.709-.405 1.62-.507 2.43-.507s1.62.203 2.43.507c.81.303 1.418.81 2.025 1.417l85.451 85.249c.912.911 1.52 2.025 1.722 3.24s.1 2.531-.304 3.645c-.405 1.113-1.316 2.126-2.329 2.835a6.14 6.14 0 0 1-3.543 1.113h-170.6zm91.83 132.632-96.488-96.386c-.91-.911-1.518-2.025-1.72-3.24-.203-1.215-.102-2.531.404-3.746s1.316-2.126 2.43-2.835a6.5 6.5 0 0 1 3.544-1.012h96.386c1.72 0 3.24.708 4.455 1.822s1.822 2.835 1.822 4.455v96.487a6.4 6.4 0 0 1-1.114 3.544c-.708 1.012-1.72 1.822-2.835 2.328-1.113.507-2.43.608-3.644.304a7.7 7.7 0 0 1-3.24-1.721M15.086 302.623h219.602a6.4 6.4 0 0 1 3.543 1.114c1.013.71 1.823 1.722 2.329 2.835.506 1.114.607 2.43.304 3.645-.304 1.215-.81 2.329-1.721 3.24l-109.75 109.75c-.608.608-1.317 1.013-2.026 1.418s-1.62.506-2.43.506-1.62-.202-2.43-.506-1.417-.81-2.025-1.418L10.53 313.457c-.912-.911-1.52-2.025-1.722-3.24s-.1-2.531.405-3.645c.507-1.113 1.317-2.126 2.329-2.835 1.012-.708 2.329-1.012 3.544-1.012zm250.583 165.234c0 .81-.203 1.62-.506 2.43a4.9 4.9 0 0 1-1.418 2.025 14.5 14.5 0 0 1-2.025 1.417c-.708.405-1.62.506-2.43.506H129.696a6.4 6.4 0 0 1-3.544-1.113c-1.012-.71-1.822-1.722-2.328-2.835-.507-1.114-.608-2.43-.304-3.645s.81-2.329 1.721-3.24l129.595-129.595c.91-.91 2.025-1.518 3.24-1.72 1.214-.203 2.53-.102 3.644.303s2.127 1.316 2.835 2.329a6.14 6.14 0 0 1 1.114 3.543zm40.498-134.15L390 417.436c.607.607 1.012 1.316 1.417 2.024.405.71.506 1.62.506 2.43s-.202 1.62-.506 2.43c-.303.81-.81 1.418-1.417 2.025l-83.832 83.73c-.91.912-2.025 1.519-3.24 1.722-1.215.202-2.53.1-3.644-.304-1.114-.405-2.127-1.316-2.835-2.329a6.14 6.14 0 0 1-1.114-3.543V338.16a6.4 6.4 0 0 1 1.114-3.544c.708-1.012 1.72-1.822 2.835-2.328 1.113-.507 2.43-.608 3.644-.304 1.215.304 2.33.81 3.24 1.721M78.061 120.684c0-1.215.303-2.531 1.012-3.544s1.721-1.822 2.835-2.328 2.43-.608 3.645-.405 2.328.81 3.24 1.72l150.35 150.35c.91.912 1.518 2.026 1.72 3.24.203 1.216.102 2.532-.303 3.646s-1.316 2.126-2.329 2.835a6.14 6.14 0 0 1-3.543 1.113H84.439c-1.721 0-3.24-.708-4.455-1.822s-1.822-2.835-1.822-4.455V120.786z"/></svg>