<svg xmlns="http://www.w3.org/2000/svg" viewBox="0 0 512 512"><!--! Font Awesome Free 7.0.1 by @fontawesome - https://fontawesome.com License - https://fontawesome.com/license/free (Icons: CC BY 4.0, Fonts: SIL OFL 1.1, Code: MIT License) Copyright 2025 Fonticons, Inc.--><path fill="currentColor" d="M512 230.092c0-94.734-114.65-171.49-256-171.49S0 135.358 0 230.092c0 84.422 91.032 154.569 210.969 168.757v54.549h87.33V399.2c21.415-2.379 41.947-6.52 61.158-12.249l35.338 66.446h98.699L434.098 353.2C482.126 322.005 512 278.383 512 230.09M100.638 242.87c0-64.772 87.154-117.205 194.577-117.205S481.95 161.53 481.95 242.87c0 44.15-23.353 74.905-61.951 93.763-2.115-1.41-4.142-2.555-5.64-3.26-8.989-4.583-24.499-9.253-24.499-9.253s76.316-5.64 76.316-81.691-79.84-77.461-79.84-77.461H210.968V348.53c-65.3-18.947-110.331-59.131-110.331-105.66m198.366 33.751v-48.997c50.936 0 77.373-5.992 77.373 24.058 0 32.165-33.663 24.939-77.373 24.939m-.793 63.89h23.441c9.518 0 16.656 10.31 21.15 16.92-14.188 1.674-29.08 2.467-44.59 2.555z"/></svg>