<svg xmlns="http://www.w3.org/2000/svg" viewBox="0 0 512 512"><!--! Font Awesome Free 7.0.1 by @fontawesome - https://fontawesome.com License - https://fontawesome.com/license/free (Icons: CC BY 4.0, Fonts: SIL OFL 1.1, Code: MIT License) Copyright 2025 Fonticons, Inc.--><path fill="currentColor" d="M256 0C114.58 0 0 114.58 0 256s114.58 256 256 256 256-114.58 256-256S397.42 0 256 0m0 8.052c136.98 0 247.948 110.967 247.948 247.948 0 136.98-110.967 247.948-247.948 247.948C119.02 503.948 8.052 392.981 8.052 256 8.052 119.02 119.019 8.052 256 8.052m0 21.16C130.787 29.213 29.213 130.788 29.213 256S130.787 482.787 256 482.787 482.787 381.213 482.787 256 381.213 29.213 256 29.213m0 8.465c120.568 0 218.323 97.755 218.323 218.323S376.568 474.323 256 474.323 37.677 376.568 37.677 256 135.432 37.677 256 37.677m192.206 268.388c-4.541 17.651-11.56 34.58-20.748 50.27l-76.49-37.058 63.484 56.568c-10.942 14.555-23.949 27.458-38.4 38.503l-56.568-63.587 37.058 76.697a194 194 0 0 1-50.168 20.852l-28.18-81.033 4.954 85.575c-8.877 1.238-17.96 1.858-27.148 1.858s-18.271-.62-27.148-1.858l4.954-85.162-28.077 80.516c-17.652-4.645-34.477-11.664-50.27-20.851l37.057-76.697-56.67 63.587c-14.452-11.045-27.459-23.948-38.4-38.503l63.586-56.671-76.697 37.058c-9.29-15.484-16.206-32.31-20.851-49.961l80.31-27.974-84.852 4.954a195 195 0 0 1-1.858-27.045c0-9.29.62-18.374 1.858-27.355L144 233.703l-80.413-28.077a200.5 200.5 0 0 1 20.852-50.271l76.593 37.058-63.484-56.671c11.046-14.452 23.949-27.458 38.504-38.4l56.567 63.484-36.954-76.594c15.69-9.187 32.619-16.206 50.167-20.748l27.768 79.69-4.852-84.232c8.878-1.239 17.962-1.858 27.149-1.858s18.27.62 27.148 1.858l-4.851 84.852 27.87-80.31c17.859 4.645 34.684 11.768 50.168 20.851l-36.955 76.49 56.465-63.483c14.555 11.045 27.458 23.948 38.4 38.4l-63.38 56.568 76.49-37.058a201.4 201.4 0 0 1 20.851 50.167l-80.31 27.975 84.852-4.852a200 200 0 0 1 1.858 27.355c0 9.187-.62 18.168-1.858 27.045l-84.748-4.852 80.206 27.975z"/></svg>