<svg xmlns="http://www.w3.org/2000/svg" viewBox="0 0 512 512"><!--! Font Awesome Free 7.0.1 by @fontawesome - https://fontawesome.com License - https://fontawesome.com/license/free (Icons: CC BY 4.0, Fonts: SIL OFL 1.1, Code: MIT License) Copyright 2025 Fonticons, Inc.--><path fill="currentColor" d="M348.914 288.686H281.83v112.8h67.085c18.629 0 33.143-5.257 43.657-15.772 10.515-10.514 15.772-24.228 15.772-41.257 0-16.686-5.372-30.057-16-40.343-10.629-10.285-25.143-15.428-43.314-15.428zM170.743 110.514h-67.086v112.8h67.086c18.628 0 33.143-5.257 43.657-15.771s15.771-24.229 15.771-41.257c0-16.686-5.371-30.057-16-40.343s-25.142-15.429-43.314-15.429zM418.97 0H93.03C68.343 0 44.8 9.829 27.314 27.314 9.83 44.8 0 68.343 0 93.03V418.97c0 24.686 9.829 48.229 27.314 65.715C44.8 502.17 68.343 512 93.03 512h326.057c24.685 0 48.228-9.829 65.714-27.314C502.286 467.2 512 443.657 512 418.97V92.914c0-24.685-9.829-48.228-27.314-65.714C467.2 9.714 443.657 0 418.97 0m72.686 418.971c0 19.315-7.657 37.715-21.371 51.429-13.715 13.714-32.115 21.257-51.429 21.371H92.8c-19.314 0-37.714-7.657-51.429-21.371C27.657 456.686 20.114 438.286 20 418.971V92.914C20 73.6 27.657 55.2 41.371 41.486 55.086 27.77 73.486 20.229 92.8 20.114h326.057c19.314 0 37.714 7.657 51.429 21.372C484 55.2 491.543 73.6 491.657 92.914zM348.8 110.514h-67.086v112.8H348.8c18.629 0 33.143-5.257 43.657-15.771s15.772-24.229 15.772-41.257c0-16.686-5.372-30.057-16-40.343s-25.143-15.429-43.315-15.429z"/></svg>