<svg xmlns="http://www.w3.org/2000/svg" viewBox="0 0 512 512"><!--! Font Awesome Free 7.0.1 by @fontawesome - https://fontawesome.com License - https://fontawesome.com/license/free (Icons: CC BY 4.0, Fonts: SIL OFL 1.1, Code: MIT License) Copyright 2025 Fonticons, Inc.--><path fill="currentColor" d="M512 73.143C512 32.8 479.2 0 438.857 0H73.143C32.8 0 0 32.8 0 73.143v365.714C0 479.2 32.8 512 73.143 512h365.714C479.2 512 512 479.2 512 438.857zM24 225.37s.114-.114.114-.228.115-.229.229-.229c0 .115 0 .343-.114.457zm249.371 176.915h-35.885V284.914l-91.2-175.2h42.628c47.429 88.8 54.972 109.486 61.829 128 1.828 4.915 3.543 9.715 5.943 15.543 3.657-8 5.828-13.6 8.114-19.771 6.743-17.486 14.629-37.943 61.143-123.772h39.771l-92.343 177.257z"/></svg>