<svg xmlns="http://www.w3.org/2000/svg" viewBox="0 0 512 512"><!--! Font Awesome Free 7.0.1 by @fontawesome - https://fontawesome.com License - https://fontawesome.com/license/free (Icons: CC BY 4.0, Fonts: SIL OFL 1.1, Code: MIT License) Copyright 2025 Fonticons, Inc.--><path fill="currentColor" d="M469.6 69.511H345.333c-42.755 0-79.91 29.6-89.244 71.378C246.667 99.11 209.6 69.51 166.844 69.51H42.667C19.11 69.511 0 88.622 0 112.178v218.489c0 23.555 19.111 42.666 42.667 42.666H122.4c90.844 0 117.956 21.69 130.933 66.667.623 2.489 4.623 2.489 5.334 0 13.066-44.978 40.177-66.667 130.933-66.667h79.733c23.556 0 42.667-19.11 42.667-42.666v-218.4c0-23.467-18.933-42.578-42.4-42.756M215.111 305.422a3.09 3.09 0 0 1-3.111 3.111H69.511a3.09 3.09 0 0 1-3.111-3.11v-20.356a3.09 3.09 0 0 1 3.111-3.111H212.09a3.09 3.09 0 0 1 3.111 3.11v20.356zm0-54.133A3.09 3.09 0 0 1 212 254.4H69.511a3.09 3.09 0 0 1-3.111-3.111v-20.356a3.09 3.09 0 0 1 3.111-3.11H212.09a3.09 3.09 0 0 1 3.111 3.11v20.356zm0-54.133a3.09 3.09 0 0 1-3.111 3.11H69.511a3.09 3.09 0 0 1-3.111-3.11V176.8a3.09 3.09 0 0 1 3.111-3.111H212.09a3.09 3.09 0 0 1 3.111 3.111v20.356zM445.6 305.333a3.09 3.09 0 0 1-3.111 3.111H300a3.09 3.09 0 0 1-3.111-3.11v-20.356a3.09 3.09 0 0 1 3.111-3.111h142.578a3.09 3.09 0 0 1 3.11 3.11v20.356zm0-54.133a3.09 3.09 0 0 1-3.111 3.111H300a3.09 3.09 0 0 1-3.111-3.111v-20.356a3.09 3.09 0 0 1 3.111-3.11h142.578a3.09 3.09 0 0 1 3.11 3.11V251.2zm0-54.133a3.09 3.09 0 0 1-3.111 3.11H300a3.09 3.09 0 0 1-3.111-3.11V176.8a3.09 3.09 0 0 1 3.111-3.111h142.578a3.09 3.09 0 0 1 3.11 3.111v20.267z"/></svg>