<svg xmlns="http://www.w3.org/2000/svg" viewBox="0 0 512 512"><!--! Font Awesome Free 7.0.1 by @fontawesome - https://fontawesome.com License - https://fontawesome.com/license/free (Icons: CC BY 4.0, Fonts: SIL OFL 1.1, Code: MIT License) Copyright 2025 Fonticons, Inc.--><path fill="currentColor" d="M448.66 37.046H143.688c-38.023 0-74.483 30.497-81.423 68.13L6.94 406.824c-6.94 37.633 18.279 68.13 56.4 68.13h304.972c38.023 0 74.483-30.497 81.423-68.13l55.423-301.55C512 67.544 486.78 37.046 448.66 37.046m-56.89 339.476-31.278 13.196-112.8-107.522c-14.37 9.775-28.543 19.061-40.761 26.49l21.602 62.753-17.497 12.414-39.685-59.625-51.22-47.017 15.347-15.053 56.693 30.4c9.09-10.264 20.331-22.091 32.061-34.114l-20.038-28.933-67.25-97.552 18.376-28.25 8.7-4.691 100.777 109.868 4.79 4.398c18.963-18.376 33.038-31.67 33.038-31.67 7.527-6.353 21.016-2.834 30.009 7.722 8.797 10.264 10.361 24.144 2.639 30.595-1.76 1.271-15.15 11.143-34.505 25.024l4.399 7.135 92.762 116.71z"/></svg>