<svg xmlns="http://www.w3.org/2000/svg" viewBox="0 0 512 512"><!--! Font Awesome Free 7.0.1 by @fontawesome - https://fontawesome.com License - https://fontawesome.com/license/free (Icons: CC BY 4.0, Fonts: SIL OFL 1.1, Code: MIT License) Copyright 2025 Fonticons, Inc.--><path fill="currentColor" d="M256 0C114.58 0 0 114.58 0 256s114.58 256 256 256 256-114.58 256-256S397.42 0 256 0m118.71 174.142c-3.82 40.464-20.542 138.735-29.007 184.052-3.613 19.2-10.632 25.6-17.445 26.219-14.864 1.342-26.116-9.807-40.568-19.303-22.503-14.762-35.303-23.949-57.084-38.4-25.29-16.62-8.877-25.807 5.471-40.775 3.82-3.922 69.265-63.483 70.504-68.851.206-.723.31-3.2-1.24-4.542-1.547-1.342-3.715-.826-5.264-.516-2.27.516-38.296 24.258-107.974 71.329-10.22 7.02-19.51 10.426-27.768 10.22-9.187-.207-26.735-5.162-39.845-9.394-16-5.162-28.8-7.949-27.664-16.826.62-4.645 6.916-9.29 18.993-14.142 74.633-32.516 124.387-53.987 149.265-64.31 71.122-29.522 85.884-34.684 95.484-34.89 2.167 0 6.813.516 9.91 2.993 2.064 1.755 3.303 4.233 3.612 6.917.516 3.303.62 6.71.413 10.116z"/></svg>