<svg xmlns="http://www.w3.org/2000/svg" viewBox="0 0 512 512"><!--! Font Awesome Free 7.0.1 by @fontawesome - https://fontawesome.com License - https://fontawesome.com/license/free (Icons: CC BY 4.0, Fonts: SIL OFL 1.1, Code: MIT License) Copyright 2025 Fonticons, Inc.--><path fill="currentColor" d="M511.795 241.023c-.103-1.642-.205-3.18-.205-4.822v-.102l-.41-4.822v-.102c-1.334-14.26-3.796-28.416-7.49-42.265 0-.103 0-.103-.102-.206l-1.128-4.103c-.103-.205-.103-.513-.206-.615-.41-1.231-.718-2.565-1.128-3.796-.103-.205-.103-.616-.205-.82-.41-1.232-.718-2.463-1.129-3.591-.102-.41-.205-.616-.41-1.026-.41-1.231-.718-2.36-1.23-3.59l-.411-1.129c-.41-1.128-.82-2.36-1.231-3.488-.103-.308-.205-.718-.41-1.026-.514-1.128-.821-2.36-1.334-3.488-.103-.205-.205-.615-.41-.82-.513-1.231-1.026-2.36-1.437-3.59 0-.103-.102-.206-.102-.411-1.642-3.898-3.283-7.899-5.13-11.695l-.41-.718c-.513-1.026-.82-1.846-1.334-2.667-.205-.513-.512-1.128-.718-1.641l-1.23-2.462c-.41-.616-.616-1.231-1.026-1.847s-.821-1.436-1.231-2.36c-.41-.615-.719-1.333-1.129-1.948-.41-.616-.82-1.437-1.23-2.257-.411-.718-.822-1.436-1.232-2.052-.41-.718-.82-1.334-1.231-2.052-.41-.718-.82-1.333-1.231-2.051-.41-.718-.82-1.334-1.231-1.95-.41-.615-.82-1.436-1.334-2.256l-1.23-1.847-1.437-2.154-1.23-1.847c-.514-.718-1.13-1.641-1.642-2.36-.41-.512-.718-1.128-1.129-1.64l-1.846-2.565c-.41-.513-.616-.82-1.026-1.334-1.026-1.333-1.846-2.564-2.872-3.795-7.386-9.643-15.388-18.773-24.108-27.288-5.847-6.155-12.105-11.797-18.773-17.131-4.103-3.59-8.412-6.874-12.823-10.054-7.899-5.95-16.413-11.079-25.236-15.49-2.462-1.334-4.924-2.565-7.386-3.796-18.157-8.822-37.238-15.593-56.832-20.106-1.949-.41-3.898-.821-5.744-1.231h-.103c-1.026-.103-1.846-.41-2.872-.513C294.008 3.642 280.979 2.308 267.849 2h-10.874c-15.696.206-31.289 1.95-46.676 5.13-34.469 7.283-64.834 21.748-85.043 40.008-1.129 1.025-1.95 1.744-2.462 2.257l-.513.512h.205v-.102l-.103.102c.103-.102.103-.102.206-.102 14.977-9.028 35.802-16.414 50.676-20.107l6.053-1.436c.41-.103.82-.103 1.231-.205 1.744-.41 3.488-.718 5.334-1.129.206 0 .616-.102.821-.102 65.86-12.003 136.027 7.694 184.858 54.37a177.3 177.3 0 0 1 27.595 33.648c31.186 50.471 28.21 113.971 3.898 151.414-35.289 54.37-114.28 73.143-163.11 25.441a86.4 86.4 0 0 1-26.261-60.524c-.205-10.977 2.052-21.748 6.36-31.802 1.744-3.898 13.439-26.364 18.67-25.236-13.438-2.872-38.469 2.668-56.113 28.93-15.798 23.491-14.875 59.704-5.13 85.452-6.155-12.72-10.36-26.261-12.412-40.213-12.516-84.735 44.419-156.954 96.737-174.907-28.21-24.62-98.994-22.876-151.517 15.798-30.673 22.569-52.524 54.575-64.116 92.737 1.744-21.44 9.848-53.447 26.467-86.069-17.645 9.13-40.008 37.957-51.087 64.526C5.54 198.758 0 244.716 5.027 288.417c.41 3.282.718 6.565 1.128 9.848C26.57 418.392 131.308 510 257.282 510 397.926 510 512 395.925 512 255.18c-.103-4.617-.205-9.336-.513-13.85z"/></svg>