<svg xmlns="http://www.w3.org/2000/svg" viewBox="0 0 512 512"><!--! Font Awesome Free 7.0.1 by @fontawesome - https://fontawesome.com License - https://fontawesome.com/license/free (Icons: CC BY 4.0, Fonts: SIL OFL 1.1, Code: MIT License) Copyright 2025 Fonticons, Inc.--><path fill="currentColor" d="M435.314 74.4C387.43 26.4 323.657 0 255.886 0 116 0 2.17 113.829 2.17 253.714 2.171 298.4 13.83 342.057 36 380.571L0 512l134.514-35.314c37.029 20.228 78.743 30.857 121.257 30.857h.115C395.657 507.543 512 393.714 512 253.829c0-67.772-28.8-131.429-76.686-179.429M255.886 464.8c-37.943 0-75.086-10.171-107.429-29.371l-7.657-4.572-79.771 20.914 21.257-77.828-5.029-8C56.114 332.343 45.03 293.6 45.03 253.714c0-116.228 94.628-210.857 210.971-210.857 56.343 0 109.257 21.943 149.029 61.829s64.228 92.8 64.114 149.143c0 116.342-97.029 210.971-213.257 210.971m115.657-157.943c-6.286-3.2-37.486-18.514-43.314-20.571-5.829-2.172-10.058-3.2-14.286 3.2-4.229 6.4-16.343 20.571-20.114 24.914-3.658 4.229-7.429 4.8-13.715 1.6-37.257-18.629-61.714-33.257-86.285-75.429-6.515-11.2 6.514-10.4 18.628-34.628 2.057-4.229 1.029-7.886-.571-11.086s-14.286-34.4-19.543-47.086c-5.143-12.342-10.4-10.628-14.286-10.857-3.657-.228-7.886-.228-12.114-.228s-11.086 1.6-16.914 7.885c-5.829 6.4-22.172 21.715-22.172 52.915s22.743 61.371 25.829 65.6c3.2 4.228 44.685 68.228 108.343 95.771 40.228 17.372 56 18.857 76.114 15.886 12.228-1.829 37.486-15.314 42.743-30.172 5.257-14.857 5.257-27.542 3.657-30.171-1.486-2.857-5.714-4.457-12-7.543"/></svg>