<svg xmlns="http://www.w3.org/2000/svg" viewBox="0 0 512 512"><!--! Font Awesome Free 7.0.1 by @fontawesome - https://fontawesome.com License - https://fontawesome.com/license/free (Icons: CC BY 4.0, Fonts: SIL OFL 1.1, Code: MIT License) Copyright 2025 Fonticons, Inc.--><path fill="currentColor" d="M251.04 244.72c11.04 0 16.8-8.08 19.84-14.32-.8-.88-4-3.36-5.92-5.28-1.92 3.44-6.56 8.56-11.12 8.56-8.16 0-12.32-11.76-2.56-21.28-.4-.16-3.44-1.44-6.4 1.92 0-2.4.8-4.08 1.68-5.28-2.8 1.04-7.84 4.48-9.12 6.32.16-4.64 1.28-6 .48-7.2l-.16-.16s-6.8 4.48-7.44 11.76c0 0 .88-1.28 1.68-1.52.48-.24 1.04 0 .48 1.52-.16.48-4.64 12.56 4.08 20.8-.48-1.28-1.52-6.08 1.92-1.52-.24.08 4.64 5.68 12.56 5.68m41.92-16.88c0-3.2-3.92-3.52-4.48-3.6 1.6 3.12.72 6 .16 7.2 2-.32 4.32-1.28 4.32-3.6m8.24 4.16c0-5.12-4.96-9.12-10.8-8.56 6.4 1.04 4.48 11.04-4 9.12 2.96-2.08 2.56-7.92-1.04-10 1.12 3.36-2.4 6.56-5.92 3.68-1.92-1.52-6.4-5.28-8.48-6.88-1.92-1.68-4.4-.8-5.28-1.44-1.04-.88-.4-3.04-1.76-4-1.28-.64-2.4-.24-3.84-.8-1.28-.48-2.16-1.52-2.08-2.8-2 3.52 2.72 5.04 3.6 6.8.8 1.52-.64 3.84 3.2 6.8 11.84 9.28 7.28 6.4 8.32 14.48.48 3.44 3.36 5.36 5.12 5.92-1.68-1.52-2.32-5.12 0-7.44 0 11.12 15.36 10.64 18.48 5.12-1.92.88-5.6-.16-7.2-1.52 6.16.8 11.36-3.28 11.68-8.48m-31.52-14.72c1.6.64 1.28.56 5.12 3.6 8.16-19.6 17.36-12.56 17.6-12.4 1.76-1.52 7.84-3.04 11.04-2.16-1.92-2.16-6-4.96-10.64-4.96-3.76 0-5.92 1.76-6.4 1.04-.64-1.12 2.56-2.72 2.56-2.72-4.32.16-7.68 5.36-8.96 4.72-.88-.4 1.12-2.96 1.12-2.96-4.08 2.32-7.44 7.28-8.16 10.4 3.68-4.64 11.04-7.84 15.76-7.2-8.4.4-15.6 7.76-19.04 12.64m194 41.52c-16.56 0-32 1.04-40.24 1.68l5.92 6.56v61.76l-5.92 6.56c8.32.64 24.72 1.68 41.28 1.68 33.68 0 47.28-16.56 47.28-39.12 0-23.44-18.56-39.12-48.32-39.12m-12.08 60.48v-42.64c24.08-2.64 37.44 3.04 37.44 21.04 0 20.48-17.12 24.16-37.44 21.6M241.28 196.32c-.8-2.72-.16-5.52.88-7.52.8 2.4 2.08 5.12 6 7.2-.4-1.92-.16-4.48.4-6.4-1.12-4.32 1.68-7.92 5.12-7.92 5.52 0 6.8 7.04 3.76 11.52 1.68 2.56 4.4 4.48 6.16 6.24 2.56-2.96 4.4-7.6 4.4-11.04 0-6.56-4.4-12.72-13.36-13.2-16-.72-16.16 13.28-16 15.12.4 4.16 2.72 6.24 2.64 6m-.32 4.8c-.4 1.44-5.6 2.96-8.16 5.52 3.84-.8 5.6-.16 6.24 1.44.4 1.12-.16 2.72-.4 4.48 1.28-1.44 5.6-4.4 8.8-4.96-.8-.24-2.72-.64-3.44-.64 2.32-2.72 7.44-3.6 10.24-2.96-1.76-.16-5.36.88-6.8 2.08 1.28.24 2.4.48 3.44.88-1.68.64-3.84 2.72-4.64 4.88 5.6-4 10.48 4.16 5.6 6.56.64.16 2.16 0 2.8-.4-.24.88-1.52 2.4-2.4 2.72 2.32 0 5.6-1.52 6.56-3.68 0 0-1.44.48-2.08-.16s.24-3.44.24-3.44c-1.84 2.32-2.72-1.04-1.04-3.36-.8-.24-2.8-.48-3.68-.4 2.56-.88 8.32-1.44 8.96-.24.48.88-.8 2.72-.8 2.72 3.2-.4 6.64.88 5.36 4.08 2.32-1.12 4.4-4.72 3.84-8.32-.24.8-1.28 1.92-2.32 2.16.16-1.12-.8-1.76-1.52-2.08 1.36-7.68-11.68-11.36-11.28-19.12-.8 1.04-1.44 4-.64 5.68 2.16 2.56 6.96 5.36 8.08 9.76-2.08-5.12-12.08-9.12-11.68-16.16-1.28 1.28-2.08 6.24-1.04 8.8 1.92 1.12 3.6 3.04 3.84 4.88-1.76-4.08-9.12-4.88-11.12-9.76-.48 1.76-.24 4 .8 5.36 0 0-1.76-.64-5.6-.48 1.36.48 4.08 2.8 3.84 4.16m20.72 5.92c-2.16 0-2.8-1.68-3.36-3.44 2.64 1.04 3.36 3.44 3.36 3.44M292.8 210l-.8-.48c-.88-.8-2.32-1.12-3.76-1.12-2.32 0-4.64 1.04-6 2.72-.64.64-1.12 1.44-1.68 2.08v12.56c2.8 2.08 5.68-2.32 2.4-5.76 1.2.24 3.68 2.16 4.08 2.56 0 0 2.08-.4 4-.4 1.68 0 3.12.24 4.48.88v-14.72c-.88.4-1.76.8-2.16 1.12zM63.92 296.24c13.76-3.68 12.96-14.4 12.96-15.92 0-16.48-19.28-20-29.6-20H2.4l6.64 6.88v23.6H0l9.12 11.68v25.84L2.4 335.2c49.36 0 59.04 1.2 69.12-4.72 5.36-3.2 7.92-7.84 7.92-14.08 0-4.08 2.08-15.04-15.52-20.16m-33.04-22c16 0 23.68-.64 23.68 7.28v2.4c0 9.68-15.2 7.04-23.68 7.04zm0 47.36v-18.08c9.76 0 26.16-1.84 26.16 7.04v3.6h.16c0 8.96-10 7.44-26.32 7.44m80.96-15.44 18.48.16v-.16l11.28-16.96h-29.76v-11.92h41.92l-11.28-16.8v-.16l-58.8.16 5.92 6.56v61.68l-5.92 6.56h64.96l11.28-16.96-48.08.16zm171.76-48.08c-59.12 0-62 79.44-.24 79.44 62.32 0 59.28-79.44.24-79.44m-.24 62c-29.92 0-29.52-44.24.16-44.24 29.44.08 31.04 44.24-.16 44.24m-73.04-6.64 35.28-52.96h-33.36l4.88 5.76-16.4 29.76h-.24l-16.8-29.76 5.12-5.76h-35.92l35.28 52.64.16 15.52-6.16 6.56h34.08l-5.76-6.56zM187.6 192.4c1.28 1.04 2.32 1.92 2.32 5.28v31.04c0 3.36-.64 4.24-2.16 5.12-.08.08-6 3.6-6.32 3.68h28.08c8 0 13.92-1.2 20.8-6.88-.48-4 .16-7.6.64-9.6 0-.16-1.44 1.12-2.16 2.8 0-4.56 1.28-12.32 7.68-16.4-.08 0-2.96-.64-7.2.88 1.6-2.48 8-6.32 8.32-6.32-6.56-20.8-30.4-18.32-25.76-18.32-24.72 0-26.08.24-31.92-3.2.08.64.4 6.56 7.68 11.92m17.2 4.4c3.68 0 18.48-2.64 18.48 13.84 0 16.56-14.72 13.84-18.48 13.84zm183.12 63.68 5.6 6.64v34h-.24c-4.32-11.52-33.84-33.2-36.16-40.72h-25.28l5.92 6.8v61.52l-5.76 6.64h31.2l-5.92-6.56v-37.92h.24c2.96 8.48 35.6 34.32 38.8 44.48h17.04V267.2l5.92-6.64zm-85.36-76.88c-25.76 0-26.24.16-31.92-3.2.08.56.4 6.64 7.68 11.92 2.48 1.6 2.32 3.44 2.32 7.6 1.44-.88 3.04-1.76 4.88-2.4-.88.88-2.16 2.16-2.8 3.6.8-.88 6-4.08 11.68-2.8-1.28.24-3.2.88-4.88 2.32.08 0 1.68-.88 6-.24v-3.44c3.76 0 18.48-2.72 18.48 13.84 0 16.4-14.8 13.84-15.76 13.84 4.56 3.52 4.64 9.6 1.76 13.04h.24c26.72 0 29.36-21.84 29.36-27.2 0-3.04-.88-25.6-27.04-26.88"/></svg>