<svg xmlns="http://www.w3.org/2000/svg" viewBox="0 0 512 512"><!--! Font Awesome Free 7.0.1 by @fontawesome - https://fontawesome.com License - https://fontawesome.com/license/free (Icons: CC BY 4.0, Fonts: SIL OFL 1.1, Code: MIT License) Copyright 2025 Fonticons, Inc.--><path fill="currentColor" d="M336.722 107.596C301.089 72.162 267.247 38.22 257.194 0c-9.953 38.22-44.093 72.162-79.626 107.596C124.218 160.946 63.8 221.362 63.8 311.938c-2.389 106.8 82.314 195.284 189.113 197.673S448.2 427.198 450.488 320.398c.1-2.787.1-5.574 0-8.46 0-90.675-60.516-150.992-113.766-204.342m-173.487 221.96a134.2 134.2 0 0 0-15.13 24.086c-.298.697-.796 1.294-1.293 1.792-.498.498-1.195.796-1.99.995h-1.693c-4.28 0-9.157-8.46-9.157-8.46-1.294-1.99-2.488-4.18-3.683-6.37l-.796-1.792c-11.148-25.58-1.493-62.01-1.493-62.01 4.778-17.716 12.64-34.537 23.092-49.666 6.37-9.556 13.437-18.812 20.902-27.571l9.157 9.157 43.297 44.193c.796.896 1.294 2.09 1.294 3.284 0 1.195-.498 2.39-1.294 3.285l-45.188 50.364zm96.15 126.705c-12.84-.1-25.481-3.882-36.231-10.948s-19.31-17.02-24.485-28.766-6.968-24.783-4.977-37.524a67.15 67.15 0 0 1 16.124-34.24c14.134-16.82 31.354-33.343 50.066-55.041 22.196 23.689 36.728 39.913 50.96 57.73a43 43 0 0 1 2.987 4.379 65.85 65.85 0 0 1 11.944 37.822 67 67 0 0 1-4.977 25.381 65.6 65.6 0 0 1-14.333 21.6 67 67 0 0 1-21.499 14.432c-8.062 3.384-16.622 5.076-25.38 5.076h-.2zm125.51-106.301c-.397 1.393-1.194 2.587-2.288 3.583a7.05 7.05 0 0 1-3.783 1.791h-1.294c-2.588-.895-4.877-2.687-6.27-5.076-11.546-17.418-24.784-33.742-39.316-48.771l-17.717-18.314-58.824-61.014a503 503 0 0 1-35.235-36.131c-.299-.498-.597-.896-.896-1.393a34.6 34.6 0 0 1-4.678-9.158v-1.791c-.796-4.977-.398-10.053 1.194-14.93s4.38-9.157 7.963-12.64c11.347-11.348 22.893-22.894 33.642-34.738 11.944 13.238 24.685 25.879 37.226 38.42a526 526 0 0 1 69.275 78.73c17.22 24.386 26.576 53.55 26.874 83.41-.1 12.84-2.19 25.68-5.972 38.022z"/></svg>