<svg xmlns="http://www.w3.org/2000/svg" viewBox="0 0 512 512"><!--! Font Awesome Free 7.0.1 by @fontawesome - https://fontawesome.com License - https://fontawesome.com/license/free (Icons: CC BY 4.0, Fonts: SIL OFL 1.1, Code: MIT License) Copyright 2025 Fonticons, Inc.--><path fill="currentColor" d="M252.56 228.126c-5.985 0-11.882 1.876-16.885 5.182s-8.844 8.13-11.167 13.758-2.859 11.703-1.697 17.6a29.9 29.9 0 0 0 8.398 15.545c4.288 4.199 9.737 7.147 15.634 8.308a30.44 30.44 0 0 0 17.6-1.786c5.539-2.323 10.273-6.254 13.668-11.257s5.093-10.9 5.093-16.885c0-8.13-3.306-15.902-9.024-21.62s-13.49-8.934-21.62-8.845m-98.63 0c-5.985 0-11.881 1.876-16.884 5.182s-8.845 8.13-11.168 13.758-2.859 11.703-1.697 17.6a29.9 29.9 0 0 0 8.398 15.545c4.288 4.199 9.738 7.147 15.634 8.308a30.44 30.44 0 0 0 17.6-1.786c5.539-2.323 10.274-6.254 13.668-11.257s5.093-10.9 5.093-16.885c0-8.13-3.306-15.902-9.023-21.62a30.56 30.56 0 0 0-21.62-8.934zm197.35 0c-16.796.09-30.375 13.848-30.286 30.643.09 16.796 13.847 30.376 30.643 30.286s30.375-13.847 30.286-30.643c-.09-16.796-13.848-30.375-30.643-30.286m137.403-49.404c-13.848-21.62-33.324-40.738-57.803-56.82-47.26-31.09-109.35-48.242-174.835-48.242-21.62 0-43.15 1.876-64.324 5.717-13.312-12.775-28.142-23.764-44.223-32.698C87.82 16.93 35.288 28.008 8.755 37.567c-2.055.715-3.841 1.876-5.27 3.484a13.3 13.3 0 0 0-2.949 5.54C0 48.644.089 50.788.626 52.932c.535 2.144 1.607 3.931 3.126 5.45 18.761 19.386 49.673 57.623 42.079 92.465C16.26 181.134.179 217.584.179 255.643c0 38.773 16.08 75.223 45.652 105.509 7.594 34.842-23.318 73.168-42.079 92.465-1.519 1.608-2.501 3.484-3.127 5.54C0 461.21 0 463.354.536 465.41s1.519 4.02 2.948 5.539 3.216 2.77 5.271 3.484c26.534 9.56 79.065 20.637 138.743-9.112 16.081-8.934 31-19.923 44.223-32.698 21.262 3.841 42.793 5.717 64.324 5.717 65.485 0 127.575-17.153 174.835-48.243 24.48-16.08 43.866-35.2 57.803-56.819 15.455-24.032 23.317-49.94 23.317-76.92 0-27.696-7.862-53.604-23.317-77.636m-235.318 214.77a308.5 308.5 0 0 1-79.87-10.274L155.54 400.55c-10.006 9.56-21.084 17.868-33.145 24.657-14.652 7.326-30.554 11.883-46.903 13.312.894-1.608 1.698-3.216 2.502-4.824 18.046-33.145 22.87-62.984 14.562-89.428-29.482-23.228-47.17-52.889-47.17-85.23 0-74.24 93.18-134.454 207.98-134.454s208.07 60.214 208.07 134.455c0 74.24-93.18 134.454-208.07 134.454"/></svg>