<svg xmlns="http://www.w3.org/2000/svg" viewBox="0 0 512 512"><!--! Font Awesome Free 7.0.1 by @fontawesome - https://fontawesome.com License - https://fontawesome.com/license/free (Icons: CC BY 4.0, Fonts: SIL OFL 1.1, Code: MIT License) Copyright 2025 Fonticons, Inc.--><path fill="currentColor" d="M504.451 115.777c-.1-.2-.2-.5-.3-.7-.1-.4-.3-.8-.5-1.2-.2-.2-.3-.5-.5-.7-.2-.299-.5-.599-.7-.899-.2-.2-.499-.4-.799-.6s-.6-.5-.9-.7L404.471 55.49c-1.2-.7-2.6-1.1-4-1.1s-2.799.4-3.998 1.1l-96.282 55.49c-.3.2-.6.4-.9.7-.3.2-.5.4-.8.6-.3.299-.5.599-.7.899-.2.2-.4.4-.5.7-.199.4-.399.8-.499 1.2-.1.2-.2.4-.3.7q-.3 1.05-.3 2.099v105.18l-80.184 46.19V63.387q0-1.05-.3-2.099c-.1-.2-.2-.4-.3-.7-.1-.4-.3-.8-.5-1.2-.1-.3-.4-.5-.5-.7-.2-.3-.5-.6-.7-.9-.2-.2-.5-.4-.8-.6s-.6-.5-.9-.699l-96.28-55.39c-1.2-.7-2.6-1.099-4-1.099s-2.8.4-3.999 1.1L11.448 56.489c-.3.2-.6.4-.9.7-.3.2-.5.4-.8.6-.3.3-.5.6-.7.9s-.4.5-.6.7c-.2.4-.4.8-.5 1.2-.1.2-.2.4-.3.699q-.3 1.05-.3 2.1v329.635c0 1.4.4 2.8 1.1 4s1.7 2.199 2.9 2.899L203.91 510.8c.4.2.9.4 1.3.5l.6.3c1.3.4 2.8.4 4.099 0 .2-.1.4-.2.6-.2.5-.2 1-.3 1.4-.6L404.47 400.022c1.2-.7 2.2-1.7 2.9-2.9s1.1-2.6 1.1-3.999v-105.28l92.181-53.089c1.2-.7 2.2-1.7 2.9-3 .7-1.299 1.1-2.599 1.1-3.998V117.977c0-.7-.1-1.4-.2-2.1zm-392.723-98.48 80.185 46.09-80.185 46.192-80.184-46.191 80.184-46.191zm88.183 59.988v201.26c-33.194 19.097-59.888 34.494-80.184 46.192V123.476c33.193-19.096 59.888-34.493 80.184-46.191m0 412.72L23.445 388.424V77.284c20.296 11.698 47.091 27.095 80.185 46.19v215.159c0 .3.1.6.1.9 0 .4.1.8.2 1.2.1.3.2.6.4.9.1.3.3.7.4 1 .2.299.4.499.6.799s.4.6.7.8c.2.2.5.4.8.6s.599.5.899.7l92.182 52.19.1 92.381zm7.998-106.18-79.984-45.291c54.69-31.494 113.478-65.287 176.266-101.48l80.084 46.09c-29.394 16.797-88.183 50.29-176.366 100.681m184.464 4.6-176.465 101.58v-92.283c101.38-57.788 160.169-91.382 176.465-100.78v91.382zm0-119.078c-20.296-11.597-47.09-26.994-80.184-46.09v-91.383c20.296 11.698 47.09 27.095 80.184 46.191zm7.999-105.279-80.185-46.191 80.185-46.191 80.184 46.091-80.184 46.191zm7.998 105.28v-91.283c33.194-19.096 59.989-34.493 80.285-46.19v91.381l-80.285 46.191z"/></svg>