<svg xmlns="http://www.w3.org/2000/svg" viewBox="0 0 512 512"><!--! Font Awesome Free 7.0.1 by @fontawesome - https://fontawesome.com License - https://fontawesome.com/license/free (Icons: CC BY 4.0, Fonts: SIL OFL 1.1, Code: MIT License) Copyright 2025 Fonticons, Inc.--><path fill="currentColor" d="M219.157 154.57c0-22.296 18.597-30.894 48.39-30.894 43.392 0 98.482 13.297 141.873 36.693V26.095C362.13 7.199 314.938 0 267.648 0 151.97 0 74.885 60.388 74.885 161.368c0 157.87 216.758 132.275 216.758 200.361 0 26.395-22.895 34.894-54.69 34.894-47.19 0-108.178-19.497-156.069-45.492v128.475A394.8 394.8 0 0 0 236.854 512c118.577 0 200.26-50.99 200.26-153.57 0-170.167-217.957-139.673-217.957-203.86"/></svg>