<svg xmlns="http://www.w3.org/2000/svg" viewBox="0 0 512 512"><!--! Font Awesome Free 7.0.1 by @fontawesome - https://fontawesome.com License - https://fontawesome.com/license/free (Icons: CC BY 4.0, Fonts: SIL OFL 1.1, Code: MIT License) Copyright 2025 Fonticons, Inc.--><path fill="currentColor" d="m508.45 249.751-21.795-13.497c-.2-2-.3-3.9-.5-5.899l18.696-17.497c.9-.9 1.6-1.9 2-3.099s.5-2.5.2-3.7c-.3-1.199-.8-2.399-1.6-3.299s-1.8-1.7-3-2.1l-23.994-8.997c-.5-1.9-1.1-3.8-1.7-5.6l14.997-20.795c.7-1 1.2-2.2 1.3-3.4s0-2.5-.5-3.699c-.5-1.2-1.2-2.2-2.2-2.9s-2.1-1.3-3.4-1.499l-25.394-4.2c-.9-1.699-1.8-3.399-2.7-5.198l10.698-23.396c.5-1.1.7-2.4.6-3.599s-.5-2.4-1.2-3.5c-.7-1.099-1.6-1.899-2.799-2.499-1.2-.6-2.4-.8-3.6-.8l-25.794.9c-1.2-1.5-2.4-2.9-3.6-4.399l5.8-25.295c.3-1.2.3-2.5-.1-3.7-.4-1.199-1-2.299-1.9-3.199s-2-1.5-3.2-1.9-2.5-.4-3.699-.1l-25.095 6c-1.4-1.2-2.9-2.4-4.4-3.6l.9-25.795c.1-1.3-.2-2.5-.8-3.599s-1.399-2.1-2.499-2.8-2.2-1.1-3.5-1.2-2.499.1-3.698.6L367.678 53.19l-5.099-2.7-4.199-25.395c-.2-1.2-.7-2.4-1.5-3.4-.8-.999-1.8-1.699-2.9-2.199s-2.399-.7-3.698-.5c-1.3.2-2.4.6-3.4 1.3l-20.896 14.997c-1.9-.6-3.799-1.1-5.599-1.7L311.39 9.598c-.4-1.2-1.2-2.2-2.1-3S307.19 5.2 305.99 5s-2.5-.2-3.699.2c-1.2.4-2.3 1.1-3.1 2l-17.596 18.696c-2-.2-3.9-.4-5.899-.5L262.3 3.499c-.7-1.1-1.6-1.9-2.7-2.6C258.5.2 257.3 0 256 0q-1.95 0-3.6.9c-1.1.6-1.999 1.5-2.699 2.6l-13.497 21.795c-2 .2-3.9.3-5.899.6L212.908 7.099c-.9-.9-1.9-1.6-3.099-2s-2.5-.5-3.7-.2c-1.199.3-2.399.8-3.299 1.6s-1.7 1.8-2.1 3l-8.997 23.994c-1.9.6-3.8 1.1-5.7 1.7l-20.795-14.997c-1-.7-2.2-1.2-3.4-1.3s-2.5 0-3.699.5c-1.2.5-2.2 1.2-2.9 2.2s-1.3 2.1-1.499 3.4l-4.2 25.394c-1.699.9-3.399 1.8-5.198 2.7l-23.396-10.498c-1.1-.5-2.4-.7-3.699-.6-1.3.1-2.5.5-3.5 1.2-.999.7-1.899 1.7-2.499 2.799-.6 1.1-.8 2.4-.8 3.6l.9 25.794c-1.5 1.2-3 2.4-4.399 3.6l-25.095-6c-1.2-.3-2.5-.3-3.7.1-1.199.4-2.299 1-3.199 1.9s-1.5 2-1.9 3.2-.4 2.5-.1 3.699l6 25.095c-1.2 1.4-2.4 2.9-3.6 4.4l-25.795-.9c-1.3 0-2.5.2-3.599.8s-2.1 1.399-2.8 2.399-1.1 2.2-1.2 3.5q-.15 1.949.6 3.598l10.699 23.396c-.9 1.7-1.8 3.4-2.7 5.199l-25.395 4.099c-1.2.2-2.4.7-3.4 1.5s-1.699 1.8-2.199 2.9-.7 2.399-.5 3.698c.2 1.3.6 2.4 1.3 3.4l14.997 20.796c-.6 1.9-1.1 3.799-1.7 5.699L9.648 200.46c-1.2.4-2.2 1.2-3 2.1S5.25 204.66 5.05 205.86s-.2 2.5.2 3.7c.4 1.199 1.1 2.299 2 3.098l18.696 17.497c-.2 2-.4 3.9-.6 5.899L3.549 249.75c-1.1.7-1.9 1.6-2.6 2.7-.699 1.1-.899 2.3-.899 3.599q0 1.95.9 3.6c.6 1.1 1.5 1.999 2.6 2.699l21.795 13.497c.2 2 .3 3.9.6 5.899L7.149 299.042c-.9.9-1.6 1.9-2 3.099s-.5 2.5-.2 3.7c.3 1.199.8 2.399 1.6 3.299s1.8 1.7 3 2.1l23.994 8.997c.6 1.9 1.1 3.8 1.7 5.6l-14.997 20.795c-.7 1-1.2 2.2-1.3 3.4s0 2.5.5 3.699c.5 1.2 1.2 2.2 2.2 2.9s2.1 1.3 3.4 1.5l25.394 4.198 2.7 5.1-10.498 23.595c-.5 1.1-.7 2.4-.6 3.599s.5 2.5 1.2 3.5c.7 1.099 1.6 1.899 2.699 2.499 1.1.6 2.4.8 3.6.8l25.794-.9c1.2 1.5 2.4 2.9 3.6 4.399l-5.9 25.195c-.3 1.2-.3 2.5.1 3.7.4 1.199 1 2.299 1.9 3.199s2 1.5 3.2 1.9 2.5.4 3.699.1l25.195-5.9c1.5 1.2 2.9 2.4 4.4 3.6l-.9 25.795c0 1.3.2 2.5.8 3.599s1.399 2.1 2.499 2.8 2.2 1.1 3.5 1.2q1.949.15 3.598-.6l23.396-10.699 5.099 2.7 4.199 25.395c.2 1.2.7 2.4 1.5 3.4.8.999 1.8 1.799 2.9 2.199s2.399.7 3.698.5c1.3-.2 2.4-.6 3.4-1.3l20.796-14.997c1.9.6 3.799 1.1 5.599 1.7l8.998 23.995c.4 1.2 1.2 2.2 2.1 3s2.099 1.399 3.299 1.599 2.5.2 3.699-.2c1.2-.4 2.3-1.1 3.1-2l17.496-18.696c2 .2 3.9.4 5.899.6L249.7 508.5c.7 1.1 1.6 1.9 2.7 2.6 1.1.699 2.3.899 3.599.899q1.95 0 3.6-.9c1.1-.6 1.999-1.5 2.699-2.6l13.497-21.795c2-.2 3.9-.3 5.899-.6l17.497 18.696c.9.9 1.9 1.6 3.099 2s2.5.5 3.7.2c1.199-.3 2.399-.8 3.299-1.6s1.7-1.8 2.1-3l8.997-23.994c1.9-.6 3.8-1.1 5.6-1.7l20.795 14.997c1 .7 2.2 1.2 3.4 1.3s2.5 0 3.699-.5c1.2-.5 2.2-1.2 2.9-2.2s1.3-2.1 1.499-3.4l4.2-25.394 5.098-2.7 23.396 10.698c1.1.5 2.4.7 3.599.6s2.4-.5 3.5-1.2c1.099-.7 1.899-1.6 2.499-2.799.6-1.2.8-2.4.8-3.6l-.9-25.794c1.5-1.2 2.9-2.4 4.399-3.6l25.195 5.9c1.2.3 2.5.3 3.7-.1 1.199-.4 2.299-1 3.199-1.9s1.5-2 1.9-3.2.4-2.5.1-3.699l-5.9-25.195c1.2-1.4 2.4-2.9 3.6-4.4l25.795.9c1.3.1 2.5-.2 3.599-.8s2.1-1.399 2.8-2.499c.7-1 1.1-2.2 1.2-3.5q.15-1.949-.6-3.598l-10.699-23.396 2.7-5.099 25.395-4.199c1.2-.2 2.4-.7 3.4-1.5s1.799-1.8 2.199-2.9.7-2.399.5-3.698c-.2-1.3-.6-2.4-1.3-3.4l-14.997-20.796c.6-1.9 1.1-3.799 1.7-5.599l23.995-8.998c1.2-.4 2.2-1.2 3-2.1s1.399-2.099 1.599-3.299.2-2.5-.2-3.7c-.4-1.199-1.1-2.299-2-3.098l-18.696-17.497c.2-1.9.4-3.9.6-5.899l21.796-13.497c1.1-.7 1.9-1.6 2.6-2.7.699-1.1.899-2.3.899-3.599q0-1.95-.9-3.6c-.6-1.1-1.5-1.999-2.6-2.699M357.48 378.826c-3.6-.8-7.398-.1-10.498 1.9s-5.299 5.199-5.999 8.798l-7.598 35.693a188.64 188.64 0 0 1-78.285 16.697c-26.995-.1-53.59-6.1-78.085-17.397l-7.598-35.693c-.4-1.8-1.1-3.5-2.1-4.999-1-1.5-2.4-2.8-3.899-3.8-1.5-.999-3.2-1.699-4.999-1.999-1.8-.3-3.6-.3-5.399.1l-31.494 6.799c-5.799-5.999-11.298-12.498-16.297-19.196H258.4c1.7 0 2.9-.3 2.9-1.9v-54.19c0-1.6-1.2-1.9-2.9-1.9h-44.79v-34.392h48.49c4.399 0 23.695 1.3 29.794 25.895 1.9 7.498 6.199 32.093 9.098 39.992 2.9 8.798 14.597 26.495 27.095 26.495h78.984c-5.298 7.098-11.097 13.797-17.296 20.096l-32.094-6.899zm25.795 34.493c0 3-.9 6-2.6 8.499-1.699 2.5-3.999 4.499-6.798 5.599s-5.799 1.5-8.798.9c-3-.6-5.7-2-7.799-4.2s-3.6-4.799-4.199-7.798c-.6-3-.3-6 .8-8.799s3.1-5.199 5.599-6.898c2.5-1.7 5.399-2.6 8.498-2.6h.4c4 .1 7.699 1.8 10.498 4.6 2.8 2.799 4.3 6.698 4.3 10.597h.1zm-225.556-.7c0 3-.9 6-2.6 8.499-1.699 2.5-4.098 4.499-6.798 5.599s-5.799 1.5-8.798.9c-3-.6-5.7-2-7.799-4.2s-3.599-4.799-4.199-7.798c-.6-3-.3-5.999.9-8.798s3.1-5.2 5.599-6.8 5.399-2.599 8.498-2.599h.5c4 .1 7.699 1.8 10.498 4.6 2.8 2.799 4.3 6.698 4.3 10.597h.1zM69.636 234.154l32.794-14.597c1.7-.7 3.2-1.8 4.4-3.1 1.199-1.299 2.199-2.899 2.899-4.598.7-1.7 1-3.5.9-5.3s-.5-3.599-1.2-5.298l-6.799-15.197h26.595V305.74h-53.59c-6.598-23.195-8.698-47.59-6.099-71.586zM58.34 198.061c0-2 .4-3.999 1.2-5.799s1.899-3.499 3.299-4.899 3.1-2.5 4.899-3.299c1.8-.8 3.799-1.2 5.799-1.2h.5c2.999.1 5.898 1 8.298 2.8s4.3 4.099 5.399 6.898c1.1 2.8 1.3 5.8.7 8.799-.6 3-2.1 5.599-4.3 7.698a15.96 15.96 0 0 1-7.798 4.1c-2.9.6-5.999.2-8.698-.9s-5.1-3.1-6.799-5.6-2.5-5.398-2.5-8.398zm155.17 24.496v-35.294h63.287c3.3 0 23.095 3.8 23.095 18.597 0 12.297-15.197 16.697-27.694 16.697zm185.463 84.083c-9.798 1.1-20.596-4.1-21.996-10.098-5.798-32.494-15.397-39.392-30.594-51.39 18.897-11.998 38.493-29.594 38.493-53.29 0-25.494-17.497-41.591-29.394-49.49-16.797-10.998-35.294-13.197-40.293-13.197h-198.86c27.494-30.694 64.387-51.49 104.879-59.189l23.495 24.596c1.3 1.3 2.8 2.4 4.4 3.099 1.599.7 3.499 1.1 5.298 1.2 1.8.1 3.6-.3 5.3-.9s3.199-1.7 4.598-2.9l26.295-24.995c26.795 5 52.09 15.797 74.286 31.594s40.592 36.193 54.09 59.888l-17.997 40.593c-1.5 3.399-1.5 7.198-.2 10.597 1.3 3.4 3.899 6.2 7.298 7.699l34.594 15.297c1.1 10.798 1.2 21.696.4 32.494h-19.297c-1.9 0-2.7 1.3-2.7 3.099v8.798c0 20.796-11.697 25.295-21.995 26.495zM240.003 60.188c0-3.999 1.6-7.898 4.5-10.698s6.698-4.499 10.697-4.499h.4c3 .1 5.899 1 8.398 2.8q3.75 2.7 5.4 6.898c1.1 2.8 1.3 5.8.7 8.799s-2.1 5.599-4.3 7.698-4.899 3.5-7.798 4-6 .2-8.699-.9c-2.7-1.1-5.099-3.1-6.798-5.6-1.7-2.499-2.5-5.398-2.5-8.398zm196.762 153.77c-2 0-4-.4-5.8-1.2s-3.498-1.9-4.898-3.299-2.5-3.1-3.3-4.899c-.8-1.8-1.2-3.8-1.2-5.799s.4-3.999 1.2-5.799 1.9-3.499 3.3-4.899 3.1-2.5 4.899-3.3c1.8-.799 3.8-1.199 5.799-1.199h.4c3.999.1 7.898 1.7 10.698 4.6 2.799 2.899 4.399 6.798 4.299 10.797s-1.7 7.899-4.6 10.698-6.798 4.4-10.797 4.3"/></svg>