<svg xmlns="http://www.w3.org/2000/svg" viewBox="0 0 512 512"><!--! Font Awesome Free 7.0.1 by @fontawesome - https://fontawesome.com License - https://fontawesome.com/license/free (Icons: CC BY 4.0, Fonts: SIL OFL 1.1, Code: MIT License) Copyright 2025 Fonticons, Inc.--><path fill="currentColor" d="M256 0C114.58 0 0 114.58 0 256s114.58 256 256 256 256-114.58 256-256S397.42 0 256 0m-51.097 386.89L75.148 257.135l129.755-129.754 36.336 36.542-24.98 24.98-11.459-11.458-79.69 79.69 79.69 79.69 27.458-27.457-54.813-54.607 25.187-25.187 79.69 79.69zm102.194-2.27-36.336-36.336 24.878-25.187 11.458 11.458 79.69-79.69-79.69-79.69-27.355 27.354 54.813 54.606-25.187 25.188-79.69-79.69 77.419-77.42 129.755 129.755z"/></svg>