<svg xmlns="http://www.w3.org/2000/svg" viewBox="0 0 512 512"><!--! Font Awesome Free 7.0.1 by @fontawesome - https://fontawesome.com License - https://fontawesome.com/license/free (Icons: CC BY 4.0, Fonts: SIL OFL 1.1, Code: MIT License) Copyright 2025 Fonticons, Inc.--><path fill="currentColor" d="M87.563 253.14c-17.372-20.501-26.652-49.527-26.76-86.214 0-108.335 81.143-165.2 180.414-165.2C347.61 0 410.41 54.6 440.083 77.906l-54.491 77.798-40.248-26.544 29.026-41.65c-39.385-25.897-85.675-39.385-132.721-38.63-54.707-.863-120.528 29.35-120.528 82.222 0 20.178 12.085 22.336 30.86 16.833 25.142-5.719 45.212.648 60.21 15.107 28.487 26.22 25.034 72.942-.755 99.162-31.508 31.832-91.933 29.458-123.873-9.063m342.808 6.367c-16.725-20.286-41.974-31.724-68.194-30.86-41.111-2.158-76.72 30.212-76.072 72.51-.755 18.128 6.474 35.608 19.854 47.801 15.214 14.999 35.608 21.257 60.75 15.539 18.775-5.504 30.86-3.345 30.86 16.832 0 4.64-.54 9.172-1.51 13.704-18.02 44.132-64.203 69.49-130.995 69.49-56.002.215-110.493-17.696-155.488-51.038l36.363-42.514-38.414-29.566L41.92 418.88l16.617 14.89a307.2 307.2 0 0 0 205.772 77.906c55.462 0 101.86-11.33 144.158-47.585 61.613-55.462 58.483-160.991 21.904-204.584"/></svg>