<svg xmlns="http://www.w3.org/2000/svg" viewBox="0 0 512 512"><!--! Font Awesome Free 7.0.1 by @fontawesome - https://fontawesome.com License - https://fontawesome.com/license/free (Icons: CC BY 4.0, Fonts: SIL OFL 1.1, Code: MIT License) Copyright 2025 Fonticons, Inc.--><path fill="currentColor" d="m244.952 108.985-74.618 31.313V12.27l-60.739 211.307 60.739-26.872V341.39zM152.567 1.61l-1.443 5.219-16.878 58.74C89.497 82.778 57.74 126.195 57.74 176.94c0 58.074 38.087 106.487 92.607 117.146v59.517C63.847 341.944 0 266.771 0 177.051 0 87.665 66.401 13.602 152.567 1.611m345.775 496.566c-12.436 12.436-25.65 13.657-31.757 11.659-5.996-1.999-30.091-22.097-67.067-49.301-36.976-27.316-37.31-39.641-47.747-62.96-10.438-23.207-33.756-47.302-63.847-58.184l-10.771-16.323c-27.427 18.766-58.85 29.87-90.275 31.869l2.332-7.329 17.655-54.964c51.633-13.214 89.83-59.961 89.83-115.703 0-60.516-42.638-113.37-106.597-118.922V.167C282.483 5.83 355.324 82.89 355.324 177.05c0 37.31-12.436 71.843-32.201 100.38l16.212 10.66c10.881 30.09 34.977 53.298 58.184 63.736s35.754 10.77 63.07 47.746c27.316 36.865 47.414 60.96 49.412 66.957 1.999 5.996.778 19.21-11.659 31.646M487.35 478.3c0-4.886-3.997-8.883-8.883-8.883s-8.883 3.997-8.883 8.883 3.998 8.883 8.883 8.883c4.886 0 8.883-3.998 8.883-8.883"/></svg>