<svg xmlns="http://www.w3.org/2000/svg" viewBox="0 0 512 512"><!--! Font Awesome Free 7.0.1 by @fontawesome - https://fontawesome.com License - https://fontawesome.com/license/free (Icons: CC BY 4.0, Fonts: SIL OFL 1.1, Code: MIT License) Copyright 2025 Fonticons, Inc.--><path fill="currentColor" d="M158.889 317.997c-5.706 3.95-35.772 14.375-35.772-20.848v-114.12H87.235v112.584c0 82.187 88.004 56.072 107.426 42.794V183.03h-35.772zM50.037 67.594v242.393C50.037 423.777 132.225 458.342 256 512c123.336-53.658 205.963-88.003 205.963-202.013V67.594C334.347 0 152.744 13.168 50.037 67.594M442.98 309.987c0 95.026-58.376 124.653-186.98 181.384-128.933-56.84-187.09-86.358-187.09-181.384V171.288C181.164 68.362 323.045 61.558 442.98 72.751zm-229.994-117.85v233.506h35.882v-75.385c26.774 8.01 78.676-2.853 78.676-86.138 0-106.877-88.552-88.772-114.558-71.983m35.882 128.713V210.791c9.217-4.608 42.136-13.935 42.136 54.097 0 74.507-39.942 56.84-42.136 55.962m86.796-94.806c.11 51.902 56.62 46.635 57.279 77.25.658 25.786-33.358 25.238-55.743 5.376v33.03c39.722 23.591 89.869 8.887 91.295-36.76 1.866-56.511-59.363-51.135-58.595-80.323.658-22.275 33.577-22.494 53.219-2.414V191.04c-31.273-24.14-87.675-10.095-87.455 35.004"/></svg>