<svg xmlns="http://www.w3.org/2000/svg" viewBox="0 0 512 512"><!--! Font Awesome Free 7.0.1 by @fontawesome - https://fontawesome.com License - https://fontawesome.com/license/free (Icons: CC BY 4.0, Fonts: SIL OFL 1.1, Code: MIT License) Copyright 2025 Fonticons, Inc.--><path fill="currentColor" d="M457.143 0H54.857C24.571 0 0 24.571 0 54.857v402.286C0 487.429 24.571 512 54.857 512h402.286C487.429 512 512 487.429 512 457.143V54.857C512 24.571 487.429 0 457.143 0m-312 402.857c-6.286 10.972-20.343 14.629-31.2 8.343-10.972-6.286-14.629-20.343-8.343-31.2l16.343-28.229q27.6-8.4 45.257 13.029zm158.743-61.6H96c-12.571 0-22.857-10.286-22.857-22.857S83.429 295.543 96 295.543h58.286l74.743-129.372-23.429-40.457c-6.286-10.971-2.514-24.914 8.343-31.2 10.971-6.285 24.914-2.514 31.2 8.343l10.171 17.6 10.172-17.6c6.285-10.971 20.343-14.628 31.2-8.343 10.971 6.286 14.628 20.343 8.343 31.2L206.97 295.543h70.972c23.086 0 36 27.086 25.943 45.714m112.114 0h-33.143l22.4 38.743c6.286 10.971 2.514 24.914-8.343 31.2-10.971 6.286-24.914 2.514-31.2-8.343-37.6-65.028-65.714-113.943-84.571-146.4-19.086-33.143-5.486-66.286 8.114-77.486 14.972 25.943 37.372 64.8 67.314 116.572H416c12.571 0 22.857 10.286 22.857 22.857 0 12.686-10.286 22.857-22.857 22.857"/></svg>