<svg xmlns="http://www.w3.org/2000/svg" viewBox="0 0 512 512"><!--! Font Awesome Free 7.0.1 by @fontawesome - https://fontawesome.com License - https://fontawesome.com/license/free (Icons: CC BY 4.0, Fonts: SIL OFL 1.1, Code: MIT License) Copyright 2025 Fonticons, Inc.--><path fill="currentColor" d="M310.85 353.3c-14.9 0-27-12.1-27-27s12.1-27 27-27 27 12.1 27 27-12.1 27-27 27m-79.4-27c0 15-12.2 27.2-27.1 27.2-15 0-27.2-12.2-27.2-27.2s12.2-27.1 27.2-27.1c14.9 0 27.1 12.1 27.1 27.1m24.6-167.3c-34.8 0-102.4 19.8-132.6 68L78.25 0v335.5c0 97.6 79.6 176.5 177.8 176.5s177.7-79 177.7-176.5S354.35 159 256.05 159m0 308.1c-73.3 0-132.5-58.9-132.5-131.6s59.2-131.6 132.5-131.6 132.5 58.9 132.5 131.5S329.25 467 256.05 467z"/></svg>