<svg xmlns="http://www.w3.org/2000/svg" viewBox="0 0 512 512"><!--! Font Awesome Free 7.0.1 by @fontawesome - https://fontawesome.com License - https://fontawesome.com/license/free (Icons: CC BY 4.0, Fonts: SIL OFL 1.1, Code: MIT License) Copyright 2025 Fonticons, Inc.--><path fill="currentColor" d="M295.948 186.013h-47.38v158.761H297.6c69.78 0 85.78-52.955 85.78-79.38 0-42.942-27.354-79.381-87.432-79.381M256 0C114.58 0 0 114.58 0 256s114.58 256 256 256 256-114.58 256-256S397.42 0 256 0m-83.406 372.439h-30.762V158.245h30.762zm-15.381-279.02c11.148 0 20.232 9.084 20.232 20.233 0 11.148-9.084 20.232-20.232 20.232s-20.232-9.084-20.232-20.232 9.084-20.233 20.232-20.233m144.206 279.226h-83.613v-214.4h83.2c79.175 0 113.962 56.568 113.962 107.252 0 55.02-43.045 107.251-113.549 107.251z"/></svg>