<svg xmlns="http://www.w3.org/2000/svg" viewBox="0 0 512 512"><!--! Font Awesome Free 7.0.1 by @fontawesome - https://fontawesome.com License - https://fontawesome.com/license/free (Icons: CC BY 4.0, Fonts: SIL OFL 1.1, Code: MIT License) Copyright 2025 Fonticons, Inc.--><path fill="currentColor" d="M430.057 0H0v430.057C0 451.771 8.686 472.571 24 488s36.229 24 57.943 24h348.114c21.714 0 42.514-8.686 57.943-24s24-36.229 24-57.943V81.943c0-21.714-8.686-42.514-24-57.943S451.771 0 430.057 0m-50.171 456.457q-13.2-14.571-13.715-41.828h35.772c.228 16.114 5.828 24.114 16.914 24.114 5.6 0 9.6-1.829 12-5.372 2.286-3.542 3.429-9.142 3.429-16.914 0-6.171-1.486-11.314-4.572-15.314-4-4.8-9.257-8.572-15.085-10.857L401.37 384c-11.771-5.6-20.342-12.343-25.714-20.114-5.143-7.772-7.657-18.629-7.657-32.457 0-15.543 4.571-28.115 13.486-37.829 9.257-9.714 21.828-14.514 37.943-14.514 15.542 0 27.542 4.8 36 14.285 8.571 9.6 13.142 23.2 13.485 41.029h-34.4c.229-5.829-1.028-11.657-3.428-16.914-1.943-3.886-5.715-5.829-11.429-5.829-10.057 0-15.086 5.943-15.086 17.943 0 6.057 1.258 10.743 3.658 14.4 3.542 4 8 7.086 13.028 8.914l12.686 5.6c13.143 6.057 22.514 13.372 28.343 22.172 5.828 8.8 8.685 20.571 8.685 35.428 0 17.715-4.571 31.315-14.057 40.8-9.371 9.486-22.285 14.286-38.971 14.286s-29.257-4.8-38.172-14.514zm-115.429 0q-13.2-14.571-13.714-41.828h35.771c.229 16.114 5.829 24.114 16.915 24.114 5.6 0 9.6-1.829 11.885-5.372 2.286-3.542 3.429-9.142 3.429-16.914 0-6.171-1.486-11.314-4.457-15.314-4-4.8-9.257-8.572-15.086-10.857L285.943 384c-11.772-5.6-20.343-12.343-25.714-20.114-5.143-7.772-7.658-18.629-7.658-32.457 0-15.543 4.572-28.115 13.486-37.829 9.257-9.714 21.829-14.514 37.943-14.514 15.543 0 27.543 4.8 35.886 14.285 8.685 9.6 13.143 23.2 13.6 41.029h-34.4c.228-5.829-1.029-11.657-3.429-16.914-1.943-3.886-5.714-5.829-11.428-5.829-10.058 0-15.086 5.943-15.086 17.943 0 6.057 1.257 10.743 3.657 14.4 3.543 4 8 7.086 13.029 8.914l12.685 5.6c13.143 6.057 22.515 13.372 28.343 22.172 5.829 8.8 8.686 20.571 8.686 35.428q0 26.573-14.057 40.8C332.114 466.4 319.2 471.2 302.514 471.2c-16.685 0-29.257-4.8-38.171-14.514zm-120.686 1.257c-9.6-8.8-14.285-21.943-14.285-39.428v-86.172c0-17.371 5.028-30.514 15.085-39.543 10.172-8.914 23.658-13.485 40.229-13.485 16.114 0 28.8 4.571 38.171 13.714 9.486 9.143 14.286 22.857 14.286 41.029v6.857H199.43v-6.629c0-6.971-1.486-12.228-4.572-15.543-1.257-1.714-2.971-3.085-4.914-4-1.943-.914-4-1.371-6.172-1.257-6.171 0-10.514 2.057-13.028 6.4a40.8 40.8 0 0 0-3.429 18.743v74.857c0 15.657 5.486 23.543 16.457 23.772q7.715 0 11.658-5.486c2.857-4.686 4.228-10.057 4-15.543v-5.6h37.828v5.829c0 12.114-2.4 22.285-7.086 30.4-4.571 7.885-11.314 14.285-19.542 18.285a61.45 61.45 0 0 1-28.115 6.057c-16.228 0-29.143-4.457-38.628-13.257z"/></svg>