<svg xmlns="http://www.w3.org/2000/svg" viewBox="0 0 512 512"><!--! Font Awesome Free 7.0.1 by @fontawesome - https://fontawesome.com License - https://fontawesome.com/license/free (Icons: CC BY 4.0, Fonts: SIL OFL 1.1, Code: MIT License) Copyright 2025 Fonticons, Inc.--><path fill="currentColor" d="M73.143 0C32.8 0 0 32.8 0 73.143v365.714C0 479.2 32.8 512 73.143 512h365.714C479.2 512 512 479.2 512 438.857V73.143C512 32.8 479.2 0 438.857 0zM268.57 166.4l60.572 53.029 59.657-11.886c-2.971-4.457-4.8-9.714-4.8-15.543a27.363 27.363 0 0 1 27.429-27.429A27.363 27.363 0 0 1 438.857 192c0 14.857-11.771 26.971-26.514 27.429L348 362.4c-5.943 13.143-18.971 21.6-33.371 21.6H197.37c-14.4 0-27.428-8.457-33.371-21.6L99.657 219.429C84.914 218.97 73.143 206.857 73.143 192a27.363 27.363 0 0 1 27.428-27.429A27.363 27.363 0 0 1 128 192c0 5.714-1.714 11.086-4.8 15.543l59.657 11.886 60.686-53.029c-10.172-4.686-17.143-14.971-17.143-26.971 0-16.458 13.257-29.715 29.714-29.715s29.715 13.257 29.715 29.715c0 12-7.086 22.285-17.258 26.971"/></svg>