<svg xmlns="http://www.w3.org/2000/svg" viewBox="0 0 512 512"><!--! Font Awesome Free 7.0.1 by @fontawesome - https://fontawesome.com License - https://fontawesome.com/license/free (Icons: CC BY 4.0, Fonts: SIL OFL 1.1, Code: MIT License) Copyright 2025 Fonticons, Inc.--><path fill="currentColor" d="M464.003 416.998c-11.404 1.388-44.526-52.261-44.526-52.261 0 31.04-15.966 71.598-50.575 100.952 16.66 5.157 54.343 19.04 45.418 34.113-7.239 12.198-124.454 7.835-158.27 3.967-33.816 3.768-151.032 8.231-158.271-3.967-8.925-15.073 28.66-28.956 45.418-34.113-34.609-29.254-50.674-69.814-50.674-100.952 0 0-33.023 53.65-44.526 52.26-5.355-.594-12.297-29.353 9.222-98.869 10.215-32.725 21.817-59.996 39.766-104.919C93.911 97.283 141.81 0 255.95 0c112.753 0 161.841 95.3 158.965 213.21 17.95 44.823 29.651 72.292 39.766 104.918 21.619 69.516 14.578 98.275 9.223 98.87z"/></svg>