<svg xmlns="http://www.w3.org/2000/svg" viewBox="0 0 512 512"><!--! Font Awesome Free 7.0.1 by @fontawesome - https://fontawesome.com License - https://fontawesome.com/license/free (Icons: CC BY 4.0, Fonts: SIL OFL 1.1, Code: MIT License) Copyright 2025 Fonticons, Inc.--><path fill="currentColor" d="M512 256c0 141.42-114.787 256-256.413 256-117.47 0-216.361-78.761-246.71-186.22l98.271 40.568c6.607 33.136 36.026 58.22 71.123 58.22 40.464 0 74.22-33.445 72.464-75.871l87.226-62.142c53.78 1.342 98.89-42.22 98.89-96.516 0-53.265-43.354-96.516-96.722-96.516s-96.723 43.354-96.723 96.516v1.238l-61.11 88.465c-16-.93-31.69 3.51-44.902 12.49L0 235.458C10.529 103.638 120.877 0 255.587 0 397.213 0 512 114.58 512 256M160.723 388.439l-31.484-13.007c5.78 11.974 15.793 21.471 28.077 26.633 27.768 11.56 59.665-1.652 71.226-29.317 5.574-13.419 5.677-28.18.103-41.6-5.574-13.419-16-23.948-29.42-29.522-13.315-5.574-27.56-5.368-40.154-.62l32.516 13.42c20.439 8.464 30.142 31.897 21.574 52.335-8.567 20.542-32 30.142-52.438 21.678m179.406-262.71c35.51 0 64.31 28.8 64.31 64.31s-28.8 64.31-64.31 64.31-64.31-28.8-64.31-64.31 28.8-64.31 64.31-64.31m.103 112.516c26.633 0 48.31-21.677 48.31-48.31 0-26.632-21.677-48.31-48.31-48.31-26.632 0-48.31 21.678-48.31 48.31s21.678 48.31 48.31 48.31"/></svg>