<svg xmlns="http://www.w3.org/2000/svg" viewBox="0 0 512 512"><!--! Font Awesome Free 7.0.1 by @fontawesome - https://fontawesome.com License - https://fontawesome.com/license/free (Icons: CC BY 4.0, Fonts: SIL OFL 1.1, Code: MIT License) Copyright 2025 Fonticons, Inc.--><path fill="currentColor" d="M400.571 127.543 338.63 74.857l83.885-44.571L512 80.8zM219.43 86.857l52.228-32.228 39.657 39.542L248 127.314zm-74.4 7.543 36.457-25.257 19.657 32.457-41.943 25.714zM118.4 195.2l-10.057-39.771 33.828-20.915 14.972 40.343zM94.171 99.543l27.315-20.686 10.171 27.429-30.514 20.914zM67.43 183.314l-4.115-32.457L88.8 133.143l6.971 32.8zm-34.972 18.972 23.772-14.629L60 225.83l-26.171 13.714zM1.6 253.6l21.943-11.657L24 285.6 0 295.657zm67.543 67.771L36.8 330.857l-1.829-53.486 28.686-12.228zm44-73.257L77.6 262.971l-5.943-46.628 31.314-16.457zM140.8 378.171l-47.543 6.743L84 312.343 124.229 300zm32.571-159.885 24.229 65.257-52.8 15.543-15.657-61.829zm97.943 263.428-81.028-3.771-27.772-109.486 63.086-9.828zm-97.028-319.657 48.228-25.6 32 52.457-58.057 24.343zm46.857 108.457 70.057-21.371 60.343 98.971-91.2 12.915zm58.743-97.828L356.8 139.77l74.857 74.743L330.4 244.457z"/></svg>