<svg xmlns="http://www.w3.org/2000/svg" viewBox="0 0 512 512"><!--! Font Awesome Free 7.0.1 by @fontawesome - https://fontawesome.com License - https://fontawesome.com/license/free (Icons: CC BY 4.0, Fonts: SIL OFL 1.1, Code: MIT License) Copyright 2025 Fonticons, Inc.--><path fill="currentColor" d="M448 0H64C28.686 0 0 28.686 0 64v384c0 35.314 28.686 64 64 64h384c35.314 0 64-28.686 64-64V64c0-35.314-28.686-64-64-64M324.229 93.829c0-22.629 34.171-22.629 34.171 0v228c0 22.628-34.171 22.628-34.171 0zm-85.258-8.572c0-22.628 34.172-22.628 34.172 0v247.429c0 22.628-34.172 22.628-34.172 0zM153.6 93.83c0-22.629 34.171-22.629 34.171 0v228c0 22.628-34.171 22.628-34.171 0zM68.229 128c0-22.629 34.171-22.629 34.171 0v153.486c0 22.628-34.171 22.628-34.171 0zm369.6 260.343c-83.2 72-276.229 74.743-363.543 0-17.143-14.629 5.028-40.572 22.171-25.943 75.314 63.2 246.972 61.6 319.2 0 17.029-14.743 39.2 11.2 22.172 25.943m5.942-106.857c0 22.628-34.171 22.628-34.171 0V128c0-22.629 34.171-22.629 34.171 0z"/></svg>