<svg xmlns="http://www.w3.org/2000/svg" viewBox="0 0 512 512"><!--! Font Awesome Free 7.0.1 by @fontawesome - https://fontawesome.com License - https://fontawesome.com/license/free (Icons: CC BY 4.0, Fonts: SIL OFL 1.1, Code: MIT License) Copyright 2025 Fonticons, Inc.--><path fill="currentColor" d="M406.606 348.077c-40.258 9.6-49.96 33.136-107.354 48.93 0 0-2.787 4.128-10.736 5.987-13.832 3.406-65.961 6.193-70.71 6.296-12.8.104-20.541-3.303-22.71-8.464-6.606-15.794 9.498-22.71 9.498-22.71-8.362-5.161-9.29-10.22-10.117-8.361-2.477 5.987-3.716 20.748-10.425 27.355-9.084 9.187-26.323 6.09-36.44.825-11.147-5.883.827-19.819.827-19.819s-5.987 3.51-10.839-3.716c-6.194-9.6-17.652-38.503 11.871-64-1.342-10.426-4.748-55.432 41.91-88.361 0 0-21.265-23.536-13.316-44.697 5.16-13.832 7.225-13.73 8.877-14.348 5.884-2.271 11.664-4.749 15.897-9.394 21.264-22.916 48.31-18.58 48.31-18.58s12.8-39.02 24.67-31.381c3.613 2.374 16.826 31.587 16.826 31.587s14.039-8.155 15.587-5.161c8.465 16.516 9.497 48 5.78 67.2-6.296 31.587-22.09 48.619-28.49 59.354-1.445 2.478 17.033 10.323 28.697 42.633 10.736 29.522 1.136 54.4 2.89 57.083.826 1.446 14.143.826 37.575-13.625 13.213-8.155 29.006-17.445 46.864-17.549 17.24-.516 18.168 19.82 5.058 22.916M0 256C0 114.58 114.58 0 256 0s256 114.58 256 256-114.58 256-256 256S0 397.42 0 256m430.142 77.626c-1.755-14.039-13.626-23.742-28.903-23.536-22.71.31-41.807 12.078-54.504 19.82-4.954 3.096-9.187 5.367-12.8 7.019 3.2-45.935-23.225-75.458-29.625-81.961 8.051-11.665 18.993-28.697 24.155-54.916 4.438-22.4 3.096-57.29-7.123-76.904-1.652-3.2-7.639-11.56-21.677-7.638-10.013-20.645-13.42-22.813-16.104-24.568-1.135-.723-24.361-16.93-42.735 28.903-12.594.93-32.31 5.471-49.032 23.536-2.065 2.27-6.09 3.922-10.426 5.574h.103c-8.671 3.097-12.697 10.22-17.445 23.02-6.71 17.96.206 35.715 7.02 47.173-18.375 16.413-38.194 41.084-36.852 85.162-35.097 37.161-12.181 75.355-5.781 82.167-1.652 11.458 3.82 20.026 12.387 24.568 13.006 6.916 31.277 9.91 45.316 2.89 5.058 5.368 14.245 10.426 30.968 10.426 7.02 0 59.87-2.993 74.942-6.71 7.02-1.651 11.87-4.645 15.07-7.328 10.117-3.2 37.988-12.697 64.207-29.626 18.58-12.078 24.98-14.658 38.813-17.962 13.316-3.303 21.678-15.587 20.026-29.11"/></svg>