<svg xmlns="http://www.w3.org/2000/svg" viewBox="0 0 512 512"><!--! Font Awesome Free 7.0.1 by @fontawesome - https://fontawesome.com License - https://fontawesome.com/license/free (Icons: CC BY 4.0, Fonts: SIL OFL 1.1, Code: MIT License) Copyright 2025 Fonticons, Inc.--><path fill="currentColor" d="M255.587 0C401.961 0 512 113.652 512 256c0 151.845-122.323 256-256.413 256C117.265 512 0 398.968 0 256 0 118.813 108.077 0 255.587 0m.826 46.142C134.4 46.142 46.142 147.2 46.142 256c0 113.342 94.142 209.342 210.27 209.342 106.53 0 209.343-83.716 209.343-209.342.103-117.471-93.11-209.858-209.342-209.858M256 108.594c-84.542 0-105.806 79.793-105.806 147.406S171.458 403.406 256 403.406 361.806 323.613 361.806 256 340.542 108.594 256 108.594m0 55.638c3.406 0 6.606.516 9.497 1.239 6.09 5.264 9.084 12.49 3.2 22.606L212.439 291.51c-1.755-13.11-1.962-25.91-1.962-35.51 0-29.729 2.065-91.768 45.523-91.768m42.116 47.69c2.994 15.897 3.407 32.413 3.407 44.078 0 29.832-2.065 91.768-45.523 91.768-13.935 0-33.652-7.949-20.748-27.252z"/></svg>