<svg xmlns="http://www.w3.org/2000/svg" viewBox="0 0 512 512"><!--! Font Awesome Free 7.0.1 by @fontawesome - https://fontawesome.com License - https://fontawesome.com/license/free (Icons: CC BY 4.0, Fonts: SIL OFL 1.1, Code: MIT License) Copyright 2025 Fonticons, Inc.--><path fill="currentColor" d="m322.286 256.229-108.8-61.829v123.657zM438.857 0H73.143C32.8 0 0 32.8 0 73.143v365.714C0 479.2 32.8 512 73.143 512h365.714C479.2 512 512 479.2 512 438.857V73.143C512 32.8 479.2 0 438.857 0m16.457 155.543C464 188.229 464 256.343 464 256.343s0 68.114-8.686 100.686c-4.8 18.057-18.857 31.657-36.8 36.457-32.343 8.8-162.514 8.8-162.514 8.8s-130.171 0-162.514-8.686c-17.943-4.8-32-18.4-36.8-36.457C48 324.457 48 256.343 48 256.343s0-68.229 8.686-100.8c4.8-18.057 18.857-32.229 36.8-37.029 32.343-8.8 162.514-8.8 162.514-8.8s130.171 0 162.514 8.8c17.943 4.8 32 18.972 36.8 37.029"/></svg>