<svg xmlns="http://www.w3.org/2000/svg" viewBox="0 0 512 512"><!--! Font Awesome Free 7.0.1 by @fontawesome - https://fontawesome.com License - https://fontawesome.com/license/free (Icons: CC BY 4.0, Fonts: SIL OFL 1.1, Code: MIT License) Copyright 2025 Fonticons, Inc.--><path fill="currentColor" d="M19.162 158.841 0 184.633h93.74l7.148-135.38zM401.17 38.17 267.964 23.979l140.559 152.47zM106.895 216.95l-11.6-22.788H.931l232.953 271.071zm2.072-32.317h294.17A180028 180028 0 0 1 256.155 25.015zm307.946 9.426L278.218 465.233l232.85-271.07h-94.155zm4.04-131.755-9.737-13.051.932 17.92 6.319 117.46H512zM108.241 87.68l-4.765 88.665L244.14 23.98l-133.205 14.19zM406.244 194.06H105.86c18.851 36.874 68.984 134.862 150.295 293.962z"/></svg>