<svg xmlns="http://www.w3.org/2000/svg" viewBox="0 0 512 512"><!--! Font Awesome Free 7.0.1 by @fontawesome - https://fontawesome.com License - https://fontawesome.com/license/free (Icons: CC BY 4.0, Fonts: SIL OFL 1.1, Code: MIT License) Copyright 2025 Fonticons, Inc.--><path fill="currentColor" d="M243.412.413c7.738-.31 15.477-.31 23.216-.103 3.715.103 7.43.412 11.144.722 5.056.31 10.112 1.032 15.168 1.65 2.992.414 5.985 1.033 8.977 1.549 8.152 1.34 16.2 3.405 24.145 5.571 12.589 3.612 24.97 8.152 36.94 13.62 27.447 12.59 52.52 30.13 73.88 51.49 20.637 20.74 37.869 44.885 50.457 71.403 1.135 2.683 2.476 5.263 3.611 7.945 2.89 6.604 5.572 13.414 7.842 20.224 4.231 12.692 7.533 25.797 9.7 39.004.619 3.199 1.032 6.5 1.444 9.803.516 3.92.929 7.945 1.239 11.969.825 8.564.825 17.232.825 25.9-.103 5.158-.31 10.214-.722 15.374-.207 3.508-.516 7.016-1.032 10.421-.413 2.786-.62 5.675-1.135 8.461-.929 5.263-1.754 10.628-2.992 15.89-4.231 19.09-10.628 37.766-19.09 55.307-16.303 33.845-40.035 64.181-69.236 87.81-17.851 14.55-37.56 26.725-58.712 36.012-6.397 2.785-12.898 5.468-19.502 7.635-3.611 1.238-7.223 2.477-10.937 3.508-6.81 1.96-13.724 3.715-20.637 5.16-4.85.928-9.596 1.754-14.446 2.58-5.469.722-10.834 1.444-16.303 1.753-6.913.723-13.827.826-20.74.826-7.017 0-14.033-.103-21.05-.826-3.405-.206-6.81-.516-10.112-1.031-2.786-.413-5.675-.62-8.46-1.136-4.231-.722-8.462-1.444-12.796-2.27a301 301 0 0 1-13.104-3.095c-8.874-2.27-17.645-5.16-26.209-8.358-10.834-4.23-21.462-8.977-31.574-14.652-2.167-1.238-4.437-2.373-6.604-3.715a261 261 0 0 1-32.916-23.01C57.886 424.5 30.336 385.29 14.86 341.643a248 248 0 0 1-8.049-27.55c-1.548-6.398-2.58-12.795-3.714-19.296-.413-2.373-.62-4.85-1.032-7.326-.62-4.127-.826-8.255-1.239-12.279C0 265.39.103 255.587.31 245.785c.103-3.612.31-7.223.722-10.835.31-3.301.516-6.603.928-9.802.413-2.89.723-5.778 1.239-8.668.722-4.024 1.341-8.151 2.167-12.175 3.508-17.026 8.77-33.742 15.787-49.735 1.238-2.992 2.683-5.882 4.024-8.874 8.358-17.232 18.47-33.638 30.44-48.6 20.636-26.208 46.535-48.187 75.633-64.49a255 255 0 0 1 23.836-11.763c16.303-7.12 33.432-12.382 50.87-15.89 3.611-.722 7.223-1.238 10.937-1.857 2.683-.516 5.469-.723 8.152-1.136 3.611-.515 7.326-.722 10.937-1.031 2.58-.207 5.056-.413 7.636-.516zm8.873 25.177c-9.493.103-18.986 1.032-28.478 2.27-7.533 1.135-14.962 2.683-22.391 4.437-14.343 3.611-28.376 8.564-41.79 14.858-10.834 5.16-21.256 11.04-31.162 17.748-4.333 2.992-8.667 5.985-12.691 9.286a229 229 0 0 0-15.168 13.002c-2.58 2.27-4.953 4.85-7.43 7.326-29.098 29.717-49.94 67.482-59.33 108.034-2.064 8.667-3.612 17.54-4.54 26.415-1.136 9.183-1.445 18.47-1.445 27.653.103 7.326.412 14.755 1.238 22.082.619 7.326 1.96 14.652 3.302 21.875 1.135 4.746 2.064 9.596 3.405 14.342a226.3 226.3 0 0 0 31.058 67.895c8.874 13.414 19.399 25.693 30.956 36.94 16.819 16.303 36.114 29.924 57.06 40.449 7.533 3.611 15.169 7.12 23.01 9.905 5.16 1.858 10.422 3.715 15.685 5.16 11.66 3.301 23.526 5.778 35.495 7.326l8.977.928c14.24 1.135 28.582 1.032 42.821-.413 4.54-.619 9.184-1.031 13.724-1.857 3.715-.722 7.532-1.238 11.247-2.167 4.23-1.032 8.564-1.96 12.795-3.198 27.344-7.533 53.243-20.328 75.943-37.353 16.303-12.176 30.956-26.622 43.44-42.615 3.406-4.128 6.398-8.565 9.39-13.001 3.509-5.263 6.81-10.525 9.906-15.994 2.477-4.54 4.85-9.183 7.223-13.827a235 235 0 0 0 14.24-38.694c2.682-10.318 4.85-20.843 6.088-31.368 1.857-13.93 1.96-27.963 1.341-41.996-.31-4.024-.722-8.048-1.032-12.072-2.27-19.708-7.016-39.107-14.24-57.577-6.19-15.58-13.93-30.543-23.319-44.472-13.104-19.4-29.098-36.837-47.465-51.386-25.796-20.637-56.235-35.599-88.325-43.44-8.049-1.961-16.2-3.406-24.352-4.54-4.024-.62-8.048-.826-12.176-1.239-7.635-.62-15.27-.722-22.906-.62zM143.84 76.047c13.723-9.184 28.995-15.89 44.679-20.843-3.302 1.857-6.604 3.508-9.803 5.468-11.557 6.914-22.185 15.375-31.368 25.28-7.016 7.636-13.208 16.2-17.541 25.693a85.8 85.8 0 0 0-7.12 22.391c-.929 4.953-1.341 10.112-1.238 15.272.103 14.136 4.54 27.962 11.66 40.035 6.087 10.525 14.033 19.915 23.113 28.17 5.056 4.54 10.525 8.357 15.478 13 2.373 2.27 4.643 4.54 6.603 7.12 2.683 3.405 5.056 7.223 6.191 11.454.929 3.095.723 6.397.723 9.596v12.691c.103 3.612 0 7.327.103 10.938.103 2.476 0 4.953.103 7.326.206 5.985.103 11.866.103 17.85.103 2.993 0 5.986.103 8.978 0 1.65.104 3.405 0 5.056-.928.103-1.857.206-2.786.206-11.35 0-22.597-2.682-33.019-7.12-6.19-2.785-12.175-6.087-17.644-10.111a100.8 100.8 0 0 1-16.303-14.756c-6.707-7.429-12.382-15.89-17.129-24.66-1.135-2.064-2.27-4.128-3.302-6.295-1.238-2.683-2.682-5.262-3.817-8.048-4.128-10.01-6.81-20.534-8.358-31.265-.516-4.54-1.135-9.184-1.239-13.724-.722-16.2.826-32.606 4.85-48.29 2.167-8.461 4.953-16.716 8.564-24.558 6.501-14.652 15.788-28.066 27.138-39.416 6.5-6.398 13.517-12.176 21.153-17.232zm180.985-20.74c2.786.722 5.572 1.754 8.358 2.786 6.604 2.373 13.104 4.953 19.295 8.254 13.517 6.604 26.106 15.272 36.94 25.796 10.525 10.319 19.296 22.288 25.9 35.393a216 216 0 0 1 3.92 8.564c6.501 15.58 10.319 32.297 11.557 49.116.413 4.643.413 9.39.516 14.033.103 11.97-1.548 24.042-4.437 35.598-2.064 7.533-4.437 14.962-8.152 21.875-3.301 6.81-6.913 13.62-11.143 19.812-7.12 10.834-16.097 20.533-26.622 28.066-10.834 7.842-23.32 13.414-36.527 15.89a66 66 0 0 1-11.04 1.238c-1.858.104-3.819.207-5.78-.103-.309-2.167 0-4.437 0-6.707 0-3.818.104-7.635.104-11.556.206-7.223 0-14.55.206-21.772v-7.326c.207-5.263 0-10.422.104-15.684.103-3.096-.207-6.191.515-9.287.723-2.58 1.858-5.056 3.2-7.326 4.642-7.532 11.453-13.414 18.263-18.883 5.572-4.333 10.834-9.08 15.477-14.24 7.946-8.667 14.653-18.47 19.4-29.2 2.579-6.088 4.642-12.486 5.674-19.09.929-4.54 1.135-9.08 1.032-13.723 0-8.048-1.445-16.097-3.715-23.939-1.857-5.881-4.437-11.556-7.326-16.922-4.024-7.12-8.874-13.723-14.445-19.811-10.216-11.144-22.495-20.534-35.702-27.963-1.858-1.032-3.921-1.857-5.779-3.096zm-104.01 60.362a52 52 0 0 1 3.199-3.508c-.62.929-1.341 1.858-2.064 2.786-3.198 4.024-5.675 8.564-7.223 13.517-.928 3.405-1.754 6.81-1.754 10.319-.103 2.58-.103 5.262.31 7.842 1.135 7.842 4.437 15.374 9.08 21.772 2.064 2.786 4.334 5.468 7.12 7.532 1.65 1.341 3.611 2.167 5.468 3.096 3.2 1.754 6.501 3.301 9.39 5.675 2.786 2.167 4.747 5.468 4.54 9.08v228.037c0 1.445-.103 2.786 0 4.127.103 1.548.826 2.89 1.548 4.23.929 1.755 1.857 3.406 3.302 4.747.929.826 2.064 1.445 3.302 1.239 1.548-.207 2.786-1.445 3.508-2.683 1.032-1.548 1.754-3.302 2.373-5.056.826-2.167.413-4.54.516-6.81.103-4.128 0-8.358.103-12.486 0-6.088 0-12.175.104-18.263.103-3.715 0-7.43.103-11.247.206-4.128 0-8.358.103-12.486 0-6.19 0-12.382.103-18.573.103-3.714 0-7.429.103-11.247.104-4.024 0-8.151.104-12.176 0-6.19 0-12.382.103-18.573.206-4.024 0-8.151.206-12.175.31 1.444.103 2.992.206 4.54.207 3.714.413 7.429.826 11.144.31 3.508.413 7.12.929 10.627.412 3.2.516 6.398 1.031 9.597.62 4.23.93 8.46 1.548 12.691 1.548 9.287 2.89 18.677 5.263 27.86 1.135 4.953 2.476 9.906 4.127 14.755 2.58 8.152 5.881 16.2 10.628 23.32 1.754 2.683 4.024 5.16 6.294 7.43.31.206.62.515.929.722.619.31 1.341-.104 1.754-.62.722-.928 1.238-1.96 1.754-2.992 4.23-8.048 8.461-16.097 12.692-24.042.722-1.341 1.444-2.683 2.683-3.714 1.857-1.651 3.92-2.786 6.19-3.715 2.993-1.238 6.088-2.27 9.287-2.477 6.81-.619 13.517.723 20.224 1.858 3.818.619 7.636 1.238 11.454 1.444 3.818.104 7.739.104 11.556-.31a94.8 94.8 0 0 0 25.693-6.397c5.469-2.27 10.835-4.952 15.787-8.151 11.867-7.43 22.185-17.129 30.956-27.86 1.238-1.444 2.27-2.992 3.611-4.437-1.238 3.302-2.786 6.604-4.334 9.803-1.341 2.992-2.889 5.778-4.437 8.667-5.365 9.906-11.35 19.502-18.366 28.376-4.128 5.365-8.771 10.421-13.724 15.065-6.81 6.294-14.549 11.763-23.113 15.271-8.461 3.508-17.851 4.746-26.931 3.405-3.715-.619-7.223-1.754-10.731-2.992-2.89-1.032-5.572-2.477-8.255-3.818-3.508-1.754-6.81-3.921-10.009-6.294 2.786 3.198 5.882 6.088 8.977 8.874 4.437 3.92 8.977 7.532 14.033 10.524 4.128 2.58 8.564 4.54 13.208 5.675 1.547.413 3.095.516 4.643.62-1.341 1.135-2.683 2.063-4.127 3.095-9.906 6.707-20.637 12.279-31.678 16.922-21.565 8.977-44.575 14.446-67.792 15.787-4.85.207-9.596.413-14.446.413-5.159-.103-10.318-.103-15.374-.722-11.557-.826-23.01-2.786-34.257-5.572-10.731-2.786-21.256-6.294-31.265-10.938-8.977-4.024-17.645-8.667-25.796-14.239-1.857-1.341-3.818-2.58-5.572-4.23a70 70 0 0 0 19.605-6.708c5.881-2.992 11.35-6.913 16.097-11.453a72 72 0 0 0 6.397-7.326c-3.508 2.167-7.12 4.334-10.937 5.985-4.54 2.27-9.39 3.92-14.24 5.159-5.881 1.548-12.072 1.754-18.16 1.135-8.358-1.032-16.407-4.437-23.217-9.287-4.437-2.992-8.46-6.603-12.382-10.421-10.215-10.525-18.78-22.494-26.518-34.98-4.024-6.5-7.739-13.104-11.454-19.811a184 184 0 0 0-3.302-6.294c2.89 2.992 5.779 6.19 8.668 9.183 19.811 19.811 38.797 33.329 55.41 36.63 3.199.723 6.5.516 9.802.826 2.89.31 5.779.206 8.565.31 5.159.103 10.421 0 15.684-.207 3.714-.206 7.532-.722 11.247-1.135 2.167-.206 4.23-.722 6.294-1.238 4.024-1.032 8.358-1.032 12.176.619 4.953 1.857 8.667 5.778 11.763 10.009a59.7 59.7 0 0 1 5.881 9.906c1.238 2.476 2.58 4.952 3.715 7.532 1.032 2.27 2.27 4.54 3.508 6.707.722 1.032 1.445 2.27 2.683 2.683 1.135-.826 1.754-1.96 2.373-3.096 2.167-4.334 3.508-8.874 5.056-13.414 2.064-6.81 3.921-13.723 5.366-20.637 2.27-9.596 3.302-19.295 4.643-28.994.62-4.128.825-8.255 1.341-12.382.929-10.938 1.96-21.979 2.27-32.916.104-1.96.207-3.818.31-5.779 0-4.436.206-8.977.206-13.413v-7.327c0-5.262-.206-10.421-.206-15.684-.206-6.81-.722-13.62-1.341-20.43-.723-6.088-1.548-12.176-3.2-18.057-2.063-7.945-5.777-15.478-10.111-22.494-3.302-5.263-7.017-10.216-11.454-14.446-4.024-4.024-8.873-7.326-14.342-8.668-1.548-.412-3.199-.412-4.747-.619.103-3.095.723-6.088 1.342-9.08 1.65-7.945 3.92-15.787 7.016-23.32 1.548-4.127 3.508-8.151 5.572-12.072 3.508-6.81 7.842-13.208 12.898-19.09zm32.297 1.755c.413-.104.722-.104 1.135-.207.206 1.858.103 3.715.103 5.572v39.313c0 1.755.103 3.612-.206 5.366h-1.135c-.929-3.921-1.754-7.842-2.683-11.66-.413-1.548-.62-3.199-1.135-4.746-1.754-.207-3.508-.207-5.366-.207H228.14c-1.754 0-3.405.103-5.159 0 0-.412-.31-.928.206-1.238 1.342-.722 2.786-.929 4.231-1.444 3.508-1.136 7.12-2.27 10.628-3.406 1.445-.515 2.992-.722 4.334-1.547v-1.754c-1.239-.62-2.58-.93-3.921-1.342-3.199-1.032-6.5-2.064-9.7-3.095-1.857-.62-3.817-1.032-5.572-1.858 0-.412-.103-.722-.103-1.135 5.263-.206 10.525.103 15.787-.103 3.509-.103 6.914.103 10.422-.103.103-.413.31-.826.413-1.238 1.135-5.056 2.373-10.112 3.508-15.168zm6.19-.207c.414 0 .723.103 1.136.207 1.032 3.92 1.754 8.048 2.786 11.969.413 1.445.619 2.992 1.032 4.437 2.58.206 5.262 0 7.842 0 5.365.103 10.628.103 15.993.103.826 0 1.548 0 2.374.103 0 .413-.104.723-.104 1.135-1.857.826-3.92 1.239-5.881 1.96-3.818 1.239-7.739 2.477-11.557 3.715-.619.207-1.135.413-1.754.62-.206.619-.206 1.135-.103 1.754.929.516 1.857.825 2.89 1.135 5.055 1.547 10.008 3.198 15.064 4.746.413.103.825.31 1.135.516.413.31.206.826.206 1.238-1.754.103-3.405 0-5.159 0h-15.993c-1.651 0-3.302 0-4.953.207-.516 1.754-.723 3.508-1.238 5.262-.93 3.715-1.548 7.43-2.58 11.144-.413 0-.722 0-1.135.103-.31-1.754-.206-3.611-.206-5.365v-39.314c0-1.857-.104-3.714.103-5.572zM67.38 163.65c1.135-2.27 2.167-4.54 3.509-6.707-1.858 7.842-2.993 15.787-3.715 23.733-.826 7.945-.826 15.993-.516 23.938 1.135 20.534 5.675 41.068 14.652 59.744 3.096 6.191 6.604 12.176 10.834 17.644 6.295 7.74 12.899 15.272 20.431 21.772 4.953 4.23 10.318 8.049 15.994 11.144 3.405 1.754 6.706 3.508 10.215 4.85 5.159 2.064 10.525 3.714 15.89 5.056 3.921 1.032 8.048 1.444 11.866 2.786 5.16 1.65 9.803 4.746 13.414 8.667 5.056 5.366 8.358 12.28 10.525 19.296 1.032 2.992 1.651 6.088 2.27 9.183.206.826.206 1.548.206 2.373-6.707 2.89-13.723 5.263-20.946 6.398-4.23.825-8.564 1.032-12.898 1.135-10.525.206-21.153-1.857-31.058-5.263-3.818-1.444-7.74-2.992-11.35-4.85-8.359-3.92-16.097-8.976-23.217-14.96-2.992-2.684-5.985-5.263-8.668-8.256-9.493-10.112-16.819-22.081-22.494-34.773-2.476-5.675-4.746-11.556-6.604-17.541-1.238-4.024-2.476-8.152-3.405-12.279-.722-2.992-1.238-6.088-1.96-9.183-.516-2.167-.722-4.437-1.032-6.707-.825-5.572-1.341-11.247-1.341-16.923.103-6.397.206-12.794 1.135-19.089.412-2.992.722-5.881 1.238-8.873 1.032-5.882 2.167-11.763 3.818-17.439 3.198-11.969 7.739-23.732 13.104-34.876zm375.281-6.604c1.135 1.754 1.96 3.612 2.89 5.47 2.166 4.642 4.333 9.183 6.19 13.929 7.842 19.399 12.692 40.035 13.414 60.879 0 1.857.104 3.611.104 5.468.103 9.906-1.342 19.709-3.302 29.408-.723 3.715-1.548 7.43-2.683 11.04-4.127 15.169-10.319 29.924-18.986 43.132-8.461 13-19.605 24.248-32.813 32.4-5.881 3.714-12.175 6.81-18.573 9.492-5.984 2.27-12.072 4.128-18.367 5.263-6.603 1.032-13.31 1.548-20.017 1.238-8.152-.516-16.303-2.167-23.939-4.953-1.96-.825-4.024-1.548-5.985-2.373-.206-1.548.207-3.096.516-4.643 1.238-5.882 3.096-11.763 5.882-17.129 2.476-4.643 5.675-8.977 9.802-12.279 2.477-2.167 5.366-3.714 8.461-4.953 3.715-1.547 7.74-2.063 11.557-2.889 7.43-1.754 14.858-4.024 21.875-7.223 10.628-4.85 20.327-11.763 28.479-20.12 1.65-1.652 3.302-3.303 4.85-5.057 3.508-3.92 6.913-7.842 10.112-11.866 7.738-10.421 13.207-22.288 17.231-34.567 1.651-5.468 3.302-10.937 4.334-16.612.62-2.993 1.032-5.985 1.548-8.977.928-6.294 1.65-12.589 1.754-18.986.103-6.81.103-13.724-.516-20.534-.722-8.255-1.96-16.51-3.818-24.558"/></svg>