<svg xmlns="http://www.w3.org/2000/svg" viewBox="0 0 512 512"><!--! Font Awesome Free 7.0.1 by @fontawesome - https://fontawesome.com License - https://fontawesome.com/license/free (Icons: CC BY 4.0, Fonts: SIL OFL 1.1, Code: MIT License) Copyright 2025 Fonticons, Inc.--><path fill="currentColor" d="M138.057 346.857c-6.743-.457-14.4-.914-23.086-1.486-3.771 4.686-7.542 9.6-7.542 15.429 0 21.143 74.857 21.143 74.857-1.714 0-9.486-8.457-9.943-44.343-12.229zm8.914-134.743c-36.914 0-38.514 50.857-.8 50.857 37.143 0 36.229-50.857.8-50.857M438.857 0H73.143C32.8 0 0 32.8 0 73.143v365.714C0 479.2 32.8 512 73.143 512h365.714C479.2 512 512 479.2 512 438.857V73.143C512 32.8 479.2 0 438.857 0M278.743 160.229c-16.572 0-26.172-9.6-26.172-26.172 0-16.571 9.6-25.486 26.172-25.486 16.8 0 26.4 8.915 26.4 25.486s-9.6 26.172-26.4 26.172M170.97 186.286h56.572v24.685L200.8 213.03c5.257 6.628 10.743 16 10.743 29.371 0 55.657-65.372 53.943-84.8 48.457l-9.6 15.314c5.714.343 11.2.686 16.343.915 64.343 3.657 92 5.257 92 44 0 33.371-29.372 52.228-79.886 52.228-52.571 0-72.571-13.257-72.571-36.228 0-13.029 5.828-20 16-29.6-9.6-4-12.8-11.315-12.8-19.2 0-10.972 8.457-18.629 26.285-34.972l.229-.228c-14.172-6.972-24.914-22.057-24.914-43.543 0-58.972 64.685-60.914 93.257-53.486zm138.172 123.543L324 311.886v22.971h-82.743v-22.971q4.629-.685 7.886-1.029c11.314-1.371 11.543-1.486 11.543-6.857v-85.371c0-5.029-1.029-5.372-11.543-8.915-2.172-.8-4.8-1.6-7.886-2.743l3.2-23.542h60.114V304c0 4.686.229 5.257 4.686 5.829zm121.828-11.886 7.886 25.486c-12.457 6.171-30.743 11.657-47.314 11.657-34.514 0-47.657-13.943-47.657-46.743v-76.114c0-.915 0-1.6-.229-2.058-.914-1.371-4.8-.8-22.4-.8v-25.828c25.486-2.857 35.657-15.657 38.857-47.314h27.657c0 38.057-.685 43.428.8 44.114.343.114.8 0 1.486 0h40.914v29.028h-43.2v70.4c-.228 7.2-1.028 34.743 43.315 18.172z"/></svg>