<svg xmlns="http://www.w3.org/2000/svg" viewBox="0 0 512 512"><!--! Font Awesome Free 7.0.1 by @fontawesome - https://fontawesome.com License - https://fontawesome.com/license/free (Icons: CC BY 4.0, Fonts: SIL OFL 1.1, Code: MIT License) Copyright 2025 Fonticons, Inc.--><path fill="currentColor" d="M102.095 256c0 109.368 75.336 200.059 173.75 216.491a223.2 223.2 0 0 1-52.26 6.196C100.029 478.687 0 379.017 0 256 0 132.984 100.03 33.313 223.495 33.313c18.048 0 35.558 2.155 52.26 6.196C177.34 55.94 102.094 146.632 102.094 256m267.044 90.062c-69.769 49.746-161.268 42.652-215.862-13.11a171.4 171.4 0 0 0 19.485 36.367c55.312 79.197 163.782 98.144 242.172 42.203S512 246.033 456.687 166.746a173.3 173.3 0 0 0-27.386-30.71c33.582 70.757 9.607 160.281-60.162 210.026M172.672 126.967c-1.257.898-2.424 1.886-3.592 2.784 57.737-15.983 122.03 3.592 160.64 54.325 32.056 42.202 38.521 95.72 21.91 141.873 50.912-50.464 60.7-127.596 20.023-181.203-44.896-58.814-133.881-66.806-198.981-17.779m93.115 100.3c-3.95 0-7.183-3.233-7.183-7.184v-35.917c0-3.951-3.233-7.184-7.183-7.184H208.32c-3.951 0-7.184 3.233-7.184 7.184v35.917c0 3.95-3.232 7.183-7.183 7.183h-35.917c-3.951 0-7.184 3.233-7.184 7.184v43.1c0 3.951 3.233 7.184 7.184 7.184h35.917c3.95 0 7.183 3.232 7.183 7.183v35.917c0 3.951 3.233 7.184 7.184 7.184h43.1c3.951 0 7.184-3.233 7.184-7.184v-35.917c0-3.95 3.233-7.183 7.183-7.183h35.918c3.95 0 7.183-3.233 7.183-7.184v-43.1c0-3.951-3.232-7.184-7.183-7.184z"/></svg>