<svg xmlns="http://www.w3.org/2000/svg" viewBox="0 0 512 512"><!--! Font Awesome Free 7.0.1 by @fontawesome - https://fontawesome.com License - https://fontawesome.com/license/free (Icons: CC BY 4.0, Fonts: SIL OFL 1.1, Code: MIT License) Copyright 2025 Fonticons, Inc.--><path fill="currentColor" d="M500.1 126.32c-24.932.324-34.079 13.438-38.612 19.833l-.08.08-45.09 65.164 67.026 98.03c6.071 8.58 9.147 10.118 28.656 10.118v7.366c-7.366-.567-22.666-.567-30.518-.567-10.037 0-24.932 0-34.727.567v-7.366c10.686-.648 13.438-5.91 13.438-8.257 0-.89 0-1.862-2.429-5.18l-53.02-77.954-48.732 71.154c-1.538 2.185-3.076 4.37-3.076 8.256 0 4.938 2.752 11.01 12.142 11.9v7.366c-7.609-.567-21.937-.567-30.113-.567H332.7l-9.471 66.864H164.649v-7.366c21.614 0 25.014 0 25.014-13.68V207.592c0-13.68-3.481-13.68-25.014-13.68v-8.338h16.028c-3.885-49.46-8.742-58.04-55.045-58.121h-16.756c-5.505 1.214-5.505 4.937-5.505 11.656v165.945c0 11.009.89 14.409 26.228 14.409h8.5v7.366h-.324c-14.49-.243-29.709-.567-44.441-.567s-29.87.243-44.36.567h-.486v-7.366h8.662c25.66 0 26.55-3.32 26.55-14.41V139.11c0-7.042 0-10.685-5.827-11.575H61.035c-47.274 0-51.564 8.823-55.53 59.335H0l5.1-67.43h176.063l4.938 66.216h132.837l7.285 67.43h-5.505c-4.29-40.313-9.794-59.093-56.906-59.093h-41.689c-12.142 0-12.79 1.538-12.79 11.819v75.525h28.737c28.737 0 31.489-10.362 31.489-35.617h4.857v79.248h-4.857c0-25.741-2.752-36.265-31.49-36.265h-28.736v85.158c0 10.524.567 11.98 12.79 11.98h42.255c49.46 0 56.583-20.884 62.654-59.578-6.233 0-13.194.162-17.97.567v-7.366c5.828 0 25.66-.324 38.693-19.266l53.022-77.468-58.85-86.372c-6.719-9.471-12.223-10.119-28.98-10.119v-7.366c7.367.567 22.585.567 30.518.567 10.038 0 24.932 0 34.727-.567v7.366c-10.119.324-13.438 5.505-13.438 8.257 0 .89.324 1.862 2.429 5.18l45.088 66.055 40.232-58.364c2.185-2.995 3.642-5.505 3.642-9.147 0-4.938-2.428-11.01-12.142-11.98v-7.367c7.61.567 20.075.567 30.113.567 7.285 0 18.861 0 25.904-.567v7.366z"/></svg>