<svg xmlns="http://www.w3.org/2000/svg" viewBox="0 0 512 512"><!--! Font Awesome Free 7.0.1 by @fontawesome - https://fontawesome.com License - https://fontawesome.com/license/free (Icons: CC BY 4.0, Fonts: SIL OFL 1.1, Code: MIT License) Copyright 2025 Fonticons, Inc.--><path fill="currentColor" d="M405.968 463.238C363.873 493.888 312.026 512 256 512c-110.56 0-204.7-70.456-239.928-168.975 2.388 1.692 5.87 3.583 7.861 4.379 16.22 7.364 39.905-5.374 62.595-28.56 6.866-6.867 14.33-12.34 22.689-17.217 18.21-11.842 37.417-20.699 58.116-27.068 0 0 22.192 34.034 42.89 74.437 20.7 40.403-22.191 53.738-27.067 53.738-.299 0-.796 0-1.493-.1-10.947-.498-69.66-2.985-55.728 50.852 14.828 57.12 97.026 36.422 138.922 8.856s31.546-117.725 31.546-117.725c40.9-6.369 53.737 36.92 57.618 59.112.796 4.577 1.095 9.852 1.394 15.424 1.094 21.097 2.288 45.379 35.128 46.175 5.274 0 10.549-.796 15.425-1.99zm-94.837-23.585c-1.99-.497-3.483-2.488-2.986-4.975.996-2.488 2.986-3.483 4.976-2.986 1.99.498 3.483 2.986 2.986 4.976-.498 1.99-2.488 3.483-4.976 2.985m-205.994-95.135c1.492-.498 3.483.995 3.98 2.985 0 1.99-.995 3.98-2.985 3.98-1.493.498-3.483-.994-3.98-2.985-.498-1.492.994-3.483 2.985-3.98m345.712 76.924c37.317-44.383 59.907-101.703 59.907-164.198 0-67.172-25.973-128.274-68.466-173.851-.1 23.386-6.07 47.966-16.718 68.864-11.842 20.2-48.762 58.613-69.46 78.317-.697.299-1.095.896-1.494 1.393-.199.2-.298.398-.497.597-4.976 6.867-3.98 16.719 2.985 21.695 21.197 15.723 56.126 45.378 59.112 72.446 3.483 34.73 27.764 75.232 34.034 85.78.796 1.295 1.293 2.09 1.393 2.39 0 2.189-.398 4.278-.796 6.468zm-60.804-169.174c-.497 2.986.996 5.872 3.981 6.37 2.985.497 5.871-.996 6.369-3.981.498-2.986-.995-5.872-3.98-6.37-2.986-.994-5.872.996-6.37 3.981m61.102-60.604-11.344 5.374-2.986 12.837-5.374-11.344-12.837-2.986 11.345-5.374 2.985-12.837 5.374 11.345zM394.822 43.587c-16.121 8.16-21.992 32.64-28.859 61.102-.298 1.393-.697 2.786-.995 4.18-9.454 38.312-30.451 37.417-41.497 37.019-1.095 0-1.99-.1-2.886-.1-5.076 0-5.971-3.98-8.857-17.017-2.587-12.041-6.867-31.844-17.813-63.29C271.325 0 211.617 16.32 166.338 43.387c-55.031 32.94-34.233 101.405-19.704 148.674.697 2.19 1.393 4.379 1.99 6.568-3.98 3.98-13.733 7.464-25.873 11.842-12.042 4.28-26.471 9.454-40.105 16.818-33.735 17.913-69.958 48.762-79.412 62.296-1.293-10.648-1.99-21.396-1.99-32.342C1.244 116.53 115.287 2.488 256 2.488c51.15 0 98.917 15.126 138.822 41.1M59.858 191.167c-1.493-1.99-4.478-2.986-6.37-1.493-1.89 1.493-2.985 4.478-1.492 6.369 1.493 1.89 4.478 2.985 6.369 1.492 2.488-1.492 2.985-4.478 1.493-6.368M326.954 67.072c1.99-1.492 4.975-.497 6.368 1.493 1.493 2.488.996 5.374-1.492 6.37-1.99 1.492-4.976.497-6.37-1.494-1.392-1.99-.497-4.975 1.494-6.369M95.882 106.978c-.498 1.492.497 2.985 1.99 2.985 1.493.498 2.986-.497 2.986-1.99.497-1.493-.498-2.986-1.99-2.986-1.493 0-2.986.498-2.986 1.99m84.288-.498c-3.483-42.89 36.92-53.738 36.92-53.738 43.886-15.325 55.728 5.872 66.077 37.418 10.35 31.546 2.986 42.393-38.412 58.614s-61.6-4.479-64.585-42.393zm89.165 14.828h.995c2.488 0 4.976-1.99 4.976-4.976 1.99-6.866.995-14.33-1.99-20.699-1.493-1.99-3.981-3.483-6.37-2.488-2.985.995-4.478 3.98-3.482 6.867 1.99 4.478 2.985 9.852 1.492 14.827-.497 2.986 1.493 5.872 4.478 6.37zm-9.852-41.398c-1.99 0-3.98-.995-4.976-2.986-.995-1.99-1.99-3.483-2.985-4.975-1.99-1.99-1.99-5.374 0-7.364s5.374-1.99 7.364 0c1.99 2.487 3.483 4.975 4.976 7.364 1.492 2.388.497 5.871-2.488 7.364-.597 0-.995.199-1.294.298-.199.1-.398.2-.597.2z"/></svg>