<svg xmlns="http://www.w3.org/2000/svg" viewBox="0 0 512 512"><!--! Font Awesome Free 7.0.1 by @fontawesome - https://fontawesome.com License - https://fontawesome.com/license/free (Icons: CC BY 4.0, Fonts: SIL OFL 1.1, Code: MIT License) Copyright 2025 Fonticons, Inc.--><path fill="currentColor" d="M512 32.08H0c0 120.505 25.897 210.096 50.628 259.442 74.776 149.085 205.314 188.514 206.83 188.514 64.977-23.914 121.905-65.676 164.018-120.738 30.213-39.546 61.943-101.723 76.875-170.083H195.164c4.783 42.462 25.898 79.209 52.612 101.373h103.356c-19.831 32.897-56.227 63.46-93.907 81.076-36.397-15.515-80.609-54.245-112.572-114.79-31.147-62.76-31.614-123.537-31.614-123.537h392.078C509.784 99.74 512 65.794 512 31.964z"/></svg>