<svg xmlns="http://www.w3.org/2000/svg" viewBox="0 0 512 512"><!--! Font Awesome Free 7.0.1 by @fontawesome - https://fontawesome.com License - https://fontawesome.com/license/free (Icons: CC BY 4.0, Fonts: SIL OFL 1.1, Code: MIT License) Copyright 2025 Fonticons, Inc.--><path fill="currentColor" d="M171.187 118.137c1.783 24.853-19.615 24.073-24.073 24.073-76.79 0-82.027-1.115-93.172 3.678-.669.223-.78 0-.446-.446L174.53 22.512c.446-.445.669-.222.446.447-4.904 11.145-3.79 16.829-3.79 95.178m88.045 343.265c-16.383-41.348 14.489-85.705 58.511-85.37 19.504 0 25.188 25.856 8.805 34.995-6.91 3.677-27.751 1.894-27.974 21.398 0 19.058 21.955 27.862 34.772 27.75 6.687 0 13.263-1.337 19.504-3.9s11.813-6.352 16.494-11.033 8.47-10.365 11.034-16.495a50.8 50.8 0 0 0 3.9-19.504v-.111c0-12.928-8.692-52.604-52.938-61.632-8.582-1.672-72.442-7.021-76.232-56.282-4.123 18.835-19.392 70.77-48.034 77.012-9.697 2.117-77.68 8.47-125.827-41.014 0 0-20.73-16.94-31.429-64.64-3.79-17.498-10.365-44.246-12.37-69.1 0-20.06 12.37-33.88 27.973-35.886 90.274 0 100.305 2.563 112.564-8.693 10.922-10.254 8.693-17.275 8.693-114.57 1.115-9.25 8.693-34.327 59.514-26.86 6.687 1.003 35.553 4.681 41.794 34.104l71.44 12.594c22.735 4.123 79.017 7.801 89.828 64.529 25.299 134.966 9.919 265.808 8.693 265.808C440.115 512 334.127 505.87 334.127 505.87c-21.176-.223-60.406-10.476-75.006-44.357zm90.163-228.25c-1.115 2.118-2.452 6.688 1.003 7.802 15.714 5.461 44.357 7.579 51.155 6.13 3.455-.223 3.455-4.904 2.787-7.356-3.901-24.296-45.472-29.534-54.834-6.575z"/></svg>