<svg xmlns="http://www.w3.org/2000/svg" viewBox="0 0 512 512"><!--! Font Awesome Free 7.0.1 by @fontawesome - https://fontawesome.com License - https://fontawesome.com/license/free (Icons: CC BY 4.0, Fonts: SIL OFL 1.1, Code: MIT License) Copyright 2025 Fonticons, Inc.--><path fill="currentColor" d="m331.341 74.998 36.155 36.269-87.298 87.526V74.998zm-185.807 36.269 87.297 87.526V74.998h-51.143zm47.481-47.596h51.143v146.335l12.357 12.356 12.357-12.356V63.67h51.142L256.514.057zM222.992 256l-12.357-12.357H63.5v-51.257L0 256l63.5 63.614v-51.257h147.135zm90.73-23.684h123.452V181.06l-36.155-36.269zM512 256l-63.5-63.614v51.257H302.396L290.038 256l12.357 12.357H448.5v51.257zM74.826 165.041l37.185-36.269 103.315 103.544h17.505v-17.505L129.516 111.267l36.155-36.269H74.826zm362.348-90.043h-89.815l36.155 36.269-103.316 103.544v17.505h17.506l103.315-103.544 36.155 36.27zM232.83 437.002v-123.68l-87.297 87.525 36.154 36.27h51.143zM74.826 232.316h124.482l-87.297-87.526-37.185 36.27zM437.174 346.96l-36.155 36.269-103.315-103.544h-17.506v17.505l103.316 103.544-36.155 36.269h89.815zm0-67.275H313.722l87.297 87.526 36.155-36.27zm-69.678 121.049-87.298-87.526v123.68h51.143zM112.01 367.21l87.297-87.526H74.826v51.257zm208.003 81.119h-51.142V301.994l-12.357-12.356-12.357 12.356V448.33h-51.143l63.5 63.614zm-190.498-47.596 103.315-103.544v-17.505h-17.505L112.011 383.228l-37.185-36.27v90.044h90.845z"/></svg>