<svg xmlns="http://www.w3.org/2000/svg" viewBox="0 0 512 512"><!--! Font Awesome Free 7.0.1 by @fontawesome - https://fontawesome.com License - https://fontawesome.com/license/free (Icons: CC BY 4.0, Fonts: SIL OFL 1.1, Code: MIT License) Copyright 2025 Fonticons, Inc.--><path fill="currentColor" d="M164.03 205.037h109.51l-18.014 60.682h-90.548V452.74c0 9.481-3.319 10.903 5.215 11.852l70.637 6.637V512H28.444v-41.719l34.608-3.318c8.533-.948 10.904-3.793 10.904-12.8V269.511c0-3.792-4.741-3.792-9.482-3.792h-36.03v-60.682h45.512v-34.133c0-80.593 43.14-113.778 125.63-113.778 55.466 0 105.244 13.274 105.244 85.807l-82.49 9.956c.475-30.34-7.11-37.452-26.547-37.452-29.867 0-30.815 16.119-30.815 44.563v37.926c0 3.793-5.69 7.111-.948 7.111M483.556 512H316.68v-40.77l33.186-4.267c8.533-.948 12.326-2.844 12.326-11.852V279.704c0-6.637-4.741-10.904-10.904-12.8l-39.348-10.43 10.903-47.881h130.37V455.11c0 9.482-4.266 10.43 4.742 11.852l25.6 4.267zM448 100.504l14.696 54.044-11.852 11.852-50.725-27.022-50.726 27.022-11.852-11.852 14.696-54.044-35.556-43.141 5.69-11.852h45.036L392.533 0h15.17l25.127 45.511h45.037l5.689 15.645z"/></svg>