<svg xmlns="http://www.w3.org/2000/svg" viewBox="0 0 512 512"><!--! Font Awesome Free 7.0.1 by @fontawesome - https://fontawesome.com License - https://fontawesome.com/license/free (Icons: CC BY 4.0, Fonts: SIL OFL 1.1, Code: MIT License) Copyright 2025 Fonticons, Inc.--><path fill="currentColor" d="M502.312 358.115c-9.775 12.283-33.563 21.02-33.563 21.02l-177.413 63.664v-46.97l130.53-46.538c14.792-5.276 17.127-12.802 5.017-16.78-12.024-3.98-33.822-2.855-48.614 2.508l-86.933 30.708V316.94c20.068-6.747 40.742-11.764 65.481-14.532 35.379-3.893 78.63.519 112.624 13.408 38.234 12.11 42.559 30.015 32.87 42.299M308.203 278.1V157.865c0-14.1-2.595-27.075-15.83-30.795-10.12-3.287-16.434 6.142-16.434 20.241V448.25L194.8 422.47V63.751c34.514 6.401 84.772 21.54 111.76 30.622 68.768 23.614 92.037 53.025 92.037 119.198 0 64.444-39.79 88.923-90.394 64.53M45.846 390.898C6.574 379.826 0 356.731 17.906 343.496c16.521-12.283 44.72-21.539 44.72-21.539l116.345-41.347v47.143l-83.733 29.929c-14.792 5.277-17.041 12.802-5.017 16.781 12.023 3.98 33.822 2.855 48.613-2.508l40.137-14.619v42.213c-44.635 8.044-87.712 6.314-133.125-8.65"/></svg>