<svg xmlns="http://www.w3.org/2000/svg" viewBox="0 0 512 512"><!--! Font Awesome Free 7.0.1 by @fontawesome - https://fontawesome.com License - https://fontawesome.com/license/free (Icons: CC BY 4.0, Fonts: SIL OFL 1.1, Code: MIT License) Copyright 2025 Fonticons, Inc.--><path fill="currentColor" d="M493.662 173.172c0-109.018-71.444-140.983-71.444-140.983C352.119 0 165.825.336 96.4 32.19c0 0-71.445 31.965-71.445 140.983 0 129.766-7.402 290.937 118.439 324.247 45.424 12.001 84.454 14.581 115.859 12.786 56.976-3.14 88.94-20.3 88.94-20.3l-1.906-41.386s-40.713 12.786-86.474 11.328c-45.311-1.57-93.09-4.935-100.493-60.566-.673-5.159-1.01-10.43-1.01-15.59 96.008 23.442 177.995 10.207 200.426 7.515 62.921-7.514 117.766-46.321 124.72-81.763 10.991-55.854 10.094-136.271 10.094-136.271zm-84.23 140.421h-52.266V185.509c0-55.743-71.78-57.874-71.78 7.739v70.098h-51.93v-70.098c0-65.613-71.78-63.482-71.78-7.74v128.085h-52.378c0-136.945-5.833-165.881 20.637-196.276 29.049-32.414 89.502-34.545 116.42 6.842l13.01 21.87 13.01-21.87c27.03-41.61 87.595-39.031 116.42-6.842 26.581 30.619 20.637 59.444 20.637 196.276"/></svg>