<svg xmlns="http://www.w3.org/2000/svg" viewBox="0 0 512 512"><!--! Font Awesome Free 7.0.1 by @fontawesome - https://fontawesome.com License - https://fontawesome.com/license/free (Icons: CC BY 4.0, Fonts: SIL OFL 1.1, Code: MIT License) Copyright 2025 Fonticons, Inc.--><path fill="currentColor" d="M66.724 26.011C44.414 39.274.411 89.754 0 103.017v21.899c0 27.862 26.011 52.228 49.555 52.228 28.376 0 51.92-23.441 51.92-51.406 0 27.862 22.824 51.406 51.2 51.406s50.377-23.441 50.377-51.406c0 27.862 24.264 51.406 52.64 51.406h.514c28.376 0 52.639-23.441 52.639-51.406 0 27.862 22.104 51.406 50.377 51.406s51.2-23.441 51.2-51.406c0 27.862 23.647 51.406 51.92 51.406 23.647 0 49.658-24.47 49.658-52.228v-21.9c-.411-13.262-44.414-63.845-66.724-77.108-69.295-2.364-117.41-2.775-189.173-2.775-71.762 0-169.639 1.13-189.379 2.878m136.02 138.179c-22.619 39.48-80.09 39.788-102.606.205-13.57 23.75-44.414 33.003-57.574 28.479-4.01 41.33-14.085 243.765 18.197 276.768 82.25 19.225 310.593 18.609 390.478 0 32.488-33.208 21.898-238.522 18.197-276.768-13.263 4.524-44.106-4.73-57.574-28.479-22.619 39.583-79.987 39.171-102.606-.205-7.3 12.851-23.646 29.712-53.256 29.712-10.692.308-21.385-2.262-30.74-7.505a59.86 59.86 0 0 1-22.516-22.207m-42.77 55.312c16.964 0 31.975 0 50.583 20.357a445.5 445.5 0 0 1 90.68 0c18.712-20.254 33.722-20.254 50.583-20.254 53.77 0 67.033 79.679 86.259 148.46 17.786 63.948-5.655 65.49-34.956 65.49-43.284-1.645-67.341-33.105-67.341-64.565-40.405 6.58-104.765 9.047-159.975 0 0 31.46-23.955 62.92-67.341 64.565-29.199-.103-52.64-1.645-34.853-65.49 19.226-68.884 32.488-148.46 86.258-148.46v-.103zM256 268.646s-45.648 41.947-53.873 56.752l29.815-1.234v26.011c0 1.542 21.899.206 23.955.206 11.926.514 23.955 1.028 23.955-.206v-26.011l29.815 1.234c-8.224-14.908-53.873-56.752-53.873-56.752h.103z"/></svg>