<svg xmlns="http://www.w3.org/2000/svg" viewBox="0 0 512 512"><!--! Font Awesome Free 7.0.1 by @fontawesome - https://fontawesome.com License - https://fontawesome.com/license/free (Icons: CC BY 4.0, Fonts: SIL OFL 1.1, Code: MIT License) Copyright 2025 Fonticons, Inc.--><path fill="currentColor" d="M282.182 240.354h-52.364v-47.057h52.364zm0-161.847h-52.364v48.087h52.364zm61.95 114.711h-52.364v47.057h52.364zM220.312 136.1h-52.365v47.612h52.364zm61.87 0h-52.364v47.612h52.364zm219.282 79.22c-11.408-7.684-37.71-10.457-57.91-6.654-2.614-19.013-13.23-35.57-32.56-50.463l-11.09-7.368-7.368 11.091c-14.577 22.023-18.538 58.306-2.931 82.23-6.892 3.724-20.439 8.794-38.343 8.477H6.892C0 292.877 11.487 345.163 41.75 381.05c29.39 34.778 73.437 52.444 131.03 52.444 124.693 0 216.984-57.435 260.16-161.768 16.952.317 53.552.08 72.327-35.807 1.189-1.98 5.229-10.457 6.734-13.547zM96.569 193.218H44.284v47.057H96.65v-47.057zm61.871 0h-52.364v47.057h52.364zm61.871 0h-52.364v47.057h52.364zm-61.87-57.118h-52.365v47.612h52.364z"/></svg>