<svg xmlns="http://www.w3.org/2000/svg" viewBox="0 0 512 512"><!--! Font Awesome Free 7.0.1 by @fontawesome - https://fontawesome.com License - https://fontawesome.com/license/free (Icons: CC BY 4.0, Fonts: SIL OFL 1.1, Code: MIT License) Copyright 2025 Fonticons, Inc.--><path fill="currentColor" d="m331.71 262.158-.101-13.123s21.905-19.988 21.3-21.4l-9.59-20.19c-.606-1.413-29.78-.505-29.78-.505l-9.489-9.388s.202-28.77-1.21-29.375l-20.291-9.287c-1.413-.606-20.896 21.198-20.896 21.198l-13.224-.202s-20.694-21.602-22.107-20.996l-20.19 8.378c-1.413.505.202 29.174.202 29.174l-9.186 9.186s-29.476-.909-29.98.404l-8.177 19.987c-.606 1.413 21.198 21.199 21.198 21.199l.101 13.022s-21.905 19.987-21.3 21.4l9.59 20.19c.606 1.413 29.78.504 29.78.504l9.489 9.388s-.202 32.101 1.21 32.606l20.291 8.379c1.413.605 20.896-23.723 20.896-23.723l13.224.202s20.694 24.025 22.006 23.52l20.19-7.57c1.413-.606-.202-32.404-.202-32.404l9.186-9.186s29.476.908 29.98-.505l8.178-19.987c.706-1.11-21.098-20.896-21.098-20.896m-45.325-8.783c.706 17.262-12.921 31.9-30.385 32.707s-32.404-12.618-33.11-29.88c-.707-17.262 12.92-31.9 30.384-32.606 17.464-.807 32.404 12.619 33.11 29.78m203.104-38.258-97.918-97.918-.101.1c-75.81-73.993-197.25-73.488-272.353 1.616-51.382 51.482-28.063 28.164-96.606 96.202C0 237.627 0 274.372 22.511 296.883c70.562 70.057 46.84 46.436 98.322 97.918l.1-.1c75.811 73.993 197.25 73.59 272.354-1.616 51.483-51.382 28.164-28.164 96.202-96.202 22.511-22.51 22.511-59.255 0-81.766M364.416 147.18c40.682 38.36 57.338 95.899 43.407 150.006-13.83 54.208-56.126 96.606-110.233 110.637-54.208 14.133-111.748-2.422-150.208-43.003-40.682-38.36-57.338-95.899-43.407-150.006 13.83-54.208 56.126-96.606 110.233-110.637 54.208-14.133 111.748 2.422 150.208 43.003"/></svg>