<svg xmlns="http://www.w3.org/2000/svg" viewBox="0 0 512 512"><!--! Font Awesome Free 7.0.1 by @fontawesome - https://fontawesome.com License - https://fontawesome.com/license/free (Icons: CC BY 4.0, Fonts: SIL OFL 1.1, Code: MIT License) Copyright 2025 Fonticons, Inc.--><path fill="currentColor" d="M400.121 269.672c-.228-41.813 18.685-73.371 56.965-96.613-21.419-30.647-53.775-47.508-96.499-50.812-40.445-3.19-84.65 23.583-100.827 23.583-17.09 0-56.282-22.444-87.043-22.444-63.572 1.025-131.133 50.699-131.133 151.754 0 29.85 5.469 60.725 16.406 92.511C72.573 409.463 125.21 512 180.123 510.291c28.71-.684 48.99-20.393 86.359-20.393 36.23 0 55.028 20.393 87.042 20.393 55.37-.797 102.992-93.992 116.892-135.918-74.282-34.976-70.295-102.537-70.295-104.701M335.637 82.599C366.74 45.686 363.89 12.077 362.98 0c-27.457 1.595-59.243 18.684-77.358 39.761-19.938 22.559-31.673 50.471-29.166 81.916 29.735 2.278 56.85-12.988 79.18-39.078"/></svg>