<svg xmlns="http://www.w3.org/2000/svg" viewBox="0 0 512 512"><!--! Font Awesome Free 7.0.1 by @fontawesome - https://fontawesome.com License - https://fontawesome.com/license/free (Icons: CC BY 4.0, Fonts: SIL OFL 1.1, Code: MIT License) Copyright 2025 Fonticons, Inc.--><path fill="currentColor" d="M289.687 278.87c47.388-13.701 51.097-24.21 45.328-44.71l-11.538-40.486c-6.284-21.53-18.955-28.948-73.246-13.186L56.351 236.22l29.463 101.575zM256 .515C135.366.515 34.202 83.651 7.417 195.735l228.597-65.83c35.85-10.507 55.836-12.052 81.694-8.447 37.395 6.284 54.29 25.755 63.253 56.866l11.023 38.941c8.447 28.948 1.03 52.127-24.21 75.822-19.985 17.925-32.141 25.239-63.252 34.202l-95.395 27.402 227.052 27.918 9.992 35.232-49.551 13.702-295.456-38.426 23.694 82.62c37.91 22.665 82.723 35.748 130.112 35.748 141.135 0 256-114.762 256-255.794C512 115.277 397.135.515 256 .515M39.456 392.602 0 256.824c0 49.964 14.732 96.22 39.456 135.778"/></svg>