<svg xmlns="http://www.w3.org/2000/svg" viewBox="0 0 512 512"><!--! Font Awesome Free 7.0.1 by @fontawesome - https://fontawesome.com License - https://fontawesome.com/license/free (Icons: CC BY 4.0, Fonts: SIL OFL 1.1, Code: MIT License) Copyright 2025 Fonticons, Inc.--><path fill="currentColor" d="M190.425 302.987c0-76.212 108.534-126.503 108.534-209.633 0-48.64-35.11-90.876-40.377-93.354.413 3.408.62 6.919.62 10.327 0 95.11-151.907 158.928-151.907 277.376 0 51.427 33.252 81.788 68.673 111.839 67.227 48.226 80.652 73.733 80.652 89.43 0 10.43-4.957 17.555-4.957 23.028 13.528-17.246 17.968-32.942 18.072-47.916 0-30.567-22.41-58.14-45.645-89.326-16.522-23.03-33.665-43.992-33.665-71.771m212.008-40.275c-12.495-68.982-80.548-128.464-97.794-135.177l4.13 7.436c2.48 5.266 3.512 11.256 3.512 17.658 0 46.16-55.971 114.834-58.45 120.513-2.272 5.267-3.304 10.843-3.304 16.317 0 20.756 15.696 43.475 18.485 43.475 2.478 0 58.45-57.21 59.998-90.565 6.61 12.082 9.397 23.338 9.397 34.491 0 42.546-43.165 100.066-43.165 100.066 0 11.98 32.942 54.938 36.66 54.938 1.032 0 2.271-1.445 3.304-2.478 39.138-40.584 69.5-87.777 69.5-141.27 0-8.261-.724-16.73-2.273-25.404"/></svg>