<svg xmlns="http://www.w3.org/2000/svg" viewBox="0 0 512 512"><!--! Font Awesome Free 7.0.1 by @fontawesome - https://fontawesome.com License - https://fontawesome.com/license/free (Icons: CC BY 4.0, Fonts: SIL OFL 1.1, Code: MIT License) Copyright 2025 Fonticons, Inc.--><path fill="currentColor" d="M196.4 229.486q1.886 0 3.429-1.029c1.028-.686 1.828-1.6 2.285-2.743 2.515-11.2 8.457-21.257 17.029-28.914 1.371-.914 1.943-2.857 1.943-4.686a6.9 6.9 0 0 0-.686-2.171c-.343-.686-1.029-1.257-1.6-1.6L85.2 110.286l85.257-49.715c1.714-.914 3.086-2.285 4.114-4s1.6-3.542 1.6-5.485-.457-3.886-1.485-5.6c-1.029-1.715-2.515-3.086-4.229-3.886l-25.6-14.629a11.5 11.5 0 0 0-5.486-1.371q-2.913 0-5.485 1.371l-114.4 66.286c-1.715.914-3.086 2.286-4.115 4-1.028 1.714-1.6 3.543-1.6 5.486v131.543c0 1.943.458 3.885 1.486 5.6s2.514 3.085 4.229 3.885l25.6 14.629c1.714 1.029 3.657 1.486 5.714 1.371 2.743.115 5.486-.914 7.543-2.857 2.057-2.171 3.2-5.028 3.314-8V151.43l132.457 77.6c.686.342 1.6.457 2.4.457zm173.257 165.6a16.7 16.7 0 0 0-5.714 1.371L278.8 445.714V292.343c0-3.314-3.314-6.629-7.086-5.257-10.743 3.2-22.285 3.428-33.143.457-.8-.229-1.714-.229-2.514-.114a4.6 4.6 0 0 0-2.286 1.028c-.685.572-1.257 1.143-1.6 1.943-.342.8-.571 1.6-.571 2.4v152.343l-85.143-49.257c-1.714-1.029-3.657-1.486-5.714-1.372-2.857 0-5.6 1.143-7.657 3.2s-3.2 4.8-3.2 7.657V435.2c0 1.943.457 3.886 1.485 5.6s2.515 3.086 4.229 3.886l114.514 65.828c1.715 1.029 3.657 1.486 5.715 1.372a12.74 12.74 0 0 0 5.714-1.372l114.514-65.828c1.714-.915 3.086-2.286 4.114-4 1.029-1.715 1.6-3.543 1.6-5.486v-29.829c-.914-5.257-6.171-10.4-11.885-10.4zM327.03 52.57c14.514 0 26.285-11.771 26.285-26.285C353.314 11.77 341.543 0 327.03 0c-14.515 0-26.286 11.771-26.286 26.286 0 14.514 11.771 26.285 26.286 26.285m72.685-11.542c-14.514 0-26.285 11.771-26.285 26.285 0 14.515 11.771 26.286 26.285 26.286C414.23 93.6 426 81.829 426 67.314c0-14.514-11.771-26.285-26.286-26.285m72.229 95.657c14.514 0 26.286-11.772 26.286-26.286s-11.772-26.286-26.286-26.286-26.286 11.772-26.286 26.286 11.772 26.286 26.286 26.286m-72.229-10.515c-14.514 0-26.285 11.772-26.285 26.286s11.771 26.286 26.285 26.286c14.515 0 26.286-11.772 26.286-26.286s-11.771-26.286-26.286-26.286m-72.685 95.086c5.142 0 10.285-1.486 14.628-4.457s7.657-6.971 9.714-11.771 2.515-10.058 1.486-15.2a26.37 26.37 0 0 0-7.2-13.486 26.37 26.37 0 0 0-13.486-7.2c-5.142-1.029-10.4-.457-15.2 1.486-4.8 1.942-8.914 5.371-11.771 9.714s-4.457 9.371-4.457 14.628c0 3.429.686 6.858 2.057 10.058s3.314 6.057 5.714 8.571 5.372 4.343 8.572 5.714a25.5 25.5 0 0 0 10.057 2.057zm-70.972 41.6c5.143 0 10.286-1.6 14.629-4.457s7.657-6.971 9.714-11.771 2.514-10.058 1.486-15.2a26.37 26.37 0 0 0-7.2-13.486 26.37 26.37 0 0 0-13.486-7.2c-5.143-1.029-10.4-.457-15.2 1.486-4.8 1.942-8.914 5.371-11.771 9.714s-4.458 9.371-4.458 14.628c0 3.429.686 6.858 1.943 10.058s3.2 6.057 5.715 8.571 5.371 4.343 8.571 5.714a25.5 25.5 0 0 0 10.057 2.057zm215.886-94.171c-5.257 0-10.286 1.485-14.629 4.457s-7.657 6.971-9.714 11.771-2.514 10.057-1.486 15.2a26.37 26.37 0 0 0 7.2 13.486 26.37 26.37 0 0 0 13.486 7.2c5.143 1.029 10.4.457 15.2-1.486s8.914-5.371 11.771-9.714 4.458-9.371 4.458-14.629c0-6.971-2.743-13.6-7.658-18.628-4.914-5.029-11.657-7.657-18.628-7.657m0 82.628c-5.257 0-10.286 1.486-14.629 4.457s-7.657 6.972-9.714 11.772-2.514 10.057-1.486 15.2a26.37 26.37 0 0 0 7.2 13.486 26.37 26.37 0 0 0 13.486 7.2c5.143 1.028 10.4.457 15.2-1.486s8.914-5.372 11.771-9.714 4.458-9.372 4.458-14.629c0-6.971-2.743-13.6-7.658-18.629-4.914-5.028-11.657-7.657-18.628-7.657"/></svg>