<svg xmlns="http://www.w3.org/2000/svg" viewBox="0 0 512 512"><!--! Font Awesome Free 7.0.1 by @fontawesome - https://fontawesome.com License - https://fontawesome.com/license/free (Icons: CC BY 4.0, Fonts: SIL OFL 1.1, Code: MIT License) Copyright 2025 Fonticons, Inc.--><path fill="currentColor" d="M255.69 0C106.942 0 0 120.568 0 256c0 140.8 115.406 256 255.69 256C390.09 512 512 407.948 512 256 512 112.723 401.032 0 255.69 0m.62 465.239c-115.613 0-210.168-95.484-210.168-209.239q0-32.67 9.29-62.245l131.097 58.322h-28.8v39.846h59.974l5.884 12.18v19.303H157.73v39.949h65.858v57.806h63.69v-57.806h66.271v-36.852l83.613 37.265c-1.548 2.27-58.942 101.47-180.851 101.47m90.425-141.73h-59.458v-19.303l2.994-5.78zm6.71-53.057v-18.375H313.6l65.032-119.742H310.71l-44.8 99.097-23.742-10.529-40.878-88.464h-67.922l28.18 52.645-84.542-37.678c28.697-45.522 85.265-101.264 179.304-101.264 116.438 0 209.548 92.903 209.548 209.961 0 21.678-2.787 41.91-8.155 60.903z"/></svg>