<svg xmlns="http://www.w3.org/2000/svg" viewBox="0 0 512 512"><!--! Font Awesome Free 7.0.1 by @fontawesome - https://fontawesome.com License - https://fontawesome.com/license/free (Icons: CC BY 4.0, Fonts: SIL OFL 1.1, Code: MIT License) Copyright 2025 Fonticons, Inc.--><path fill="currentColor" d="M255.587 0C401.961 0 512 113.652 512 256c0 151.845-122.323 256-256.413 256C117.265 512 0 398.968 0 256 0 118.813 108.077 0 255.587 0m.826 46.142C134.4 46.142 46.142 147.2 46.142 256c0 113.342 94.142 209.342 210.27 209.342 106.53 0 209.343-83.716 209.343-209.342.103-117.471-93.11-209.858-209.342-209.858m104.258 136.67c8.052 0 14.142 6.298 14.142 14.143v188.387c0 7.948-6.297 14.142-14.142 14.142H221.213c-7.948 0-14.142-6.194-14.142-14.142V329.6h-55.742c-8.052 0-14.142-6.194-14.142-14.142V127.071c0-8.465 6.813-13.11 12.8-14.142h140.8c7.948 0 14.142 6.194 14.142 14.142v55.742zM165.058 301.73h42.013v-104.67c0-7.64 5.987-13.007 12.387-14.143h57.6v-41.6h-112zm181.884-90.942h-112V371.2h112z"/></svg>