<svg xmlns="http://www.w3.org/2000/svg" viewBox="0 0 512 512"><!--! Font Awesome Free 7.0.1 by @fontawesome - https://fontawesome.com License - https://fontawesome.com/license/free (Icons: CC BY 4.0, Fonts: SIL OFL 1.1, Code: MIT License) Copyright 2025 Fonticons, Inc.--><path fill="currentColor" d="M0 15.866c512 0 393.005 340.154 393.541 392.683l86.727 87.585h-27.873l-75.47-76.328c-41.81 4.502-133.36 36.985-229.843-39.665C50.385 303.49 55.745 211.725 0 15.866m85.44 49.313c-53.28-25.192-5.574 9.863-5.574 9.863 48.456 33.447 70.754 79.008 96.697 128.536 33.769 64.536 84.69 149.762 154.586 179.779 69.682 30.017 36.663 13.4 6.432-9.112-30.23-22.727-73.112-93.267-97.554-139.578-33.983-64.322-65.394-127.143-154.586-169.488"/></svg>