<svg xmlns="http://www.w3.org/2000/svg" viewBox="0 0 512 512"><!--! Font Awesome Free 7.0.1 by @fontawesome - https://fontawesome.com License - https://fontawesome.com/license/free (Icons: CC BY 4.0, Fonts: SIL OFL 1.1, Code: MIT License) Copyright 2025 Fonticons, Inc.--><path fill="currentColor" d="M58.162 102.313c-.578-16.562 1.926-32.547 12.23-46.414.288 7.126 1.155 13.963 4.044 20.8 5.681-26.481 18.97-47.473 40.733-63.073-1.83 5.681-3.37 11.363-2.89 17.044 8.379-7.126 18.104-17.14 42.756-21.859 14.155-2.696 28.6-1.926 40.54.963 37.073 8.955 58.74 33.03 67.117 69.621 5.104 22.244.675 43.333-7.992 63.94-5.007 11.94-11.555 23.496-19.933 33.8-1.926-1.83-3.756-3.66-5.585-5.393-41.214-39.288-25.807-24.266-36.014-36.014-1.06-1.156-.963-2.119-.097-3.467 7.993-13 11.363-27.155 9.63-42.37-1.06-9.437-4.14-18.2-10.882-25.229-13.962-14.733-37.747-14.444-51.517.578-10.978 12.037-13.578 26.385-10.496 41.984.192 1.252.385 2.6 0 3.756-3.274 13.192-4.43 26.577-2.408 40.059.096.481.096 1.059.096 1.54 0 .29-.096.482-.192 1.06-20.992-10.593-34.666-27.252-41.6-50.266-7.992 17.14-10.688 34.184-6.355 52.095-15.022-14.637-20.51-33.029-21.185-53.155M510.363 220.95c-11.17-11.17-24.074-19.645-38.614-25.615-12.326-5.007-25.037-7.607-38.422-6.837-9.63.578-18.874 2.985-27.925 6.163-2.408.867-4.911 1.54-7.415 2.119-4.719 1.155-7.03-2.986-4.526-6.548 3.081-4.43 3.274-4.045 14.444-11.556.578-.385 1.156-.77 2.119-1.444h-2.408c-.577 0-1.155.192-1.83.289-18.584 3.177-29.562 14.925-47.087 28.503-10.015 7.8-13.29 3.66-11.556-.482 1.348-3.37 3.178-6.451 4.911-9.629.963-1.733 2.215-3.274 3.37-4.911-.192-.193-.481-.289-.674-.482-26 17.622-44.97 40.83-55.562 70.585.29.289.674.577.963.866.29-.577.482-1.155.867-1.637 10.015-11.651 21.955-20.992 35.244-28.696 17.525-10.207 36.11-17.622 56.525-19.451 4.14-.385 8.378-.096 12.615-.096-1.734.674-3.37.866-5.104 1.059-17.815 2.31-34.185 8.666-49.592 17.814-29.081 17.237-52.48 40.637-72.317 67.792-.29.385-.386.867-.674 1.252 13.962 5.103 23.11 16.659 34.762 24.651a.75.75 0 0 0 .385-.385l1.156-2.6c11.748-25.903 26-50.362 44.97-71.74 16.08-18.103 36.591-24.362 60.184-19.259 5.681 1.252 10.977 4.237 16.562 6.548 2.215-1.348 4.911-3.08 7.704-4.525 8.089-4.141 16.755-6.741 25.71-8.667 14.156-2.985 28.408-4.718 42.852-1.252v-.481c-.481-.385-1.156-.77-1.637-1.348M283.685 389.946c-37.94-31.777-21.955-18.777-41.118-34.28-.77.866 0-.193-1.83 2.888-10.785 18.392-24.555 33.992-42.37 45.836-9.918 6.548-20.703 11.363-32.836 11.363-20.8 0-36.785-9.148-47.57-26.77-11.555-18.777-12.807-39.192-7.896-60.28 7.511-32.548 28.985-53.155 37.17-61.918-18.007-5.97-31.777 1.637-44.68 13.385.77-13.385 4.14-25.23 11.362-35.918-23.4 10.207-44.2 24.074-62.4 42.273-.288-5.585 5.2-42.08 5.393-43.043.29-2.6-.577-5.104-2.889-7.126C30.718 260.14 11.171 286.236 0 317.82c7.126-5.681 14.348-10.977 22.726-15.6-7.993 21.474-18.874 50.844-7.511 97.355 4.43 18.296 11.459 35.436 23.207 50.362 2.792 3.563 6.066 6.644 9.148 9.918.192-.192.385-.289.577-.481-1.348-6.74-2.118-13.578-1.444-21.089 2.119 3.082 3.756 5.778 5.681 8.282 12.134 15.407 27.637 26.384 45.452 34.28 24.073 10.882 49.206 12.808 75.013 8.282 52.866-9.34 87.34-46.8 111.702-95.14.963-1.733.578-2.792-.866-4.044m165.627-44.68c-9.148-2.986-21.377-4.045-27.637-2.793 9.534 3.852 13.578 6.355 18.104 11.555 12.133 13.867 10.014 33.415-5.2 43.91-11.267 7.8-23.978 10.112-37.459 8.764-1.155-.097-2.215-.386-2.889-.578 2.697-3.563 5.778-6.74 7.8-10.4 9.052-16.178 5.2-40.54-8.377-54.022-2.023-2.022-4.43-3.755-6.741-5.68-.289 1.25-.096 2.021.096 2.695 4.045 15.985-7.8 31.2-23.88 30.622-7.32-.289-13.386-3.66-18.875-8.185-18.777-15.503-37.651-30.91-56.332-46.51-5.682-4.719-12.037-7.8-19.356-8.378-4.43-.385-8.955-.578-13.385-.867-5.68-.385-8.473-2.696-10.014-8.088-.867-3.275-1.445-6.549-2.119-9.823-1.444-7.8-5.97-12.518-13.77-13.673-4.237-.675-8.57-.963-12.807-1.445-12.518-1.348-19.066-7.126-21.763-19.548-4.814 10.593-1.54 21.57 7.03 28.792 4.333 3.66 8.955 7.03 13.289 10.785 4.43 3.66 7.125 8.378 7.607 14.252.385 4.526.77 9.148 1.733 13.578 2.119 10.207 8.57 17.718 16.37 24.17 15.889 13.192 31.778 26.288 47.666 39.577 17.237 14.444 13.385 31.585 12.519 53.925-.867 22.052 11.748 41.31 32.258 49.303.963.385 1.926.578 3.467 1.06-15.118-17.526-9.726-42.467.674-50.363.289 2.119.385 4.14.867 6.163 9.051 42.466 43.718 61.821 81.85 54.792 15.408-2.793 29.467-8.57 41.31-19.067 1.927-1.733 3.564-3.948 5.682-6.259-18.585 4.43-34.473.096-49.014-10.207.674-.289 1.252-.289 1.83-.289 20.51 1.733 39.096-3.274 54.888-16.755 18.777-15.985 25.614-41.31 16.755-63.555-7.992-19.355-22.725-31.103-42.177-37.459M74.436 179.733c-5.104-8.859-12.711-15.022-21.281-20.51 13.192-.482 25.614.192 38.133 3.563-6.741-11.748-8.185-23.785-4.815-37.267 5.103 11.46 13.192 19.356 22.725 25.807 18.97 12.711 34.378 18.874 44.97 29.082 3.274 3.177 6.067 6.836 9.244 10.496-.77-2.023-1.348-3.948-2.118-5.778-4.815-10.207-12.518-17.91-21.763-24.074-1.733-1.155-2.696-2.407-3.274-4.333-3.177-12.037-2.889-24.17-.674-36.207.963-5.296 2.696-10.496 4.333-15.696.77-2.311 2.215-4.43 3.852-6.355.578 6.644 0 24.555 18.874 44.295 10.4 10.882 21.57 21.089 32.644 31.489 8.667 8.185 17.622 16.08 24.555 25.807 1.06 1.54 2.119 3.177 3.66 4.526-4.815-12.519-13.674-23.208-23.304-32.548-9.244-8.956-18.681-17.718-28.118-26.385-3.178-2.889-4.43-6.452-4.911-10.496-1.156-10.015 0-19.837 4.14-29.081.482-.963 1.06-1.926 1.83-3.178.482 4.044.578 7.607 1.348 11.17 4.623 22.244 19.645 34.955 47.474 61.148 9.63 9.051 18.585 18.488 24.651 30.429 4.622 8.955 7.03 18.296 5.49 28.503-.097.578.48 1.637 1.058 1.926 5.97 2.504 9.63 6.644 9.34 13.77 7.416-2.504 12.038-7.703 15.793-13.963 4.045 19.452-8.763 48.437-26.192 56.525.385-4.333 4.815-22.533-15.889-26.673-6.548-1.252-12.325-1.252-22.051-2.022 4.526-8.667 10.015-19.837.481-21.57-23.977-4.43-50.843 1.83-55.658 4.43 7.896.384 15.696.962 22.63 3.177-1.927 6.259-3.853 12.23-5.586 18.2-1.83 6.259 2.022 14.059 8.956 9.244 1.155-.867 2.214-1.83 3.177-2.6-2.985 17.237-2.792 15.31-2.696 17.622.289 9.822 9.148 7.51 15.118 7.03-2.407 11.362-28.407 26.288-43.718 24.843 6.741-4.525 12.23-9.918 15.311-17.236q-9.389 1.155-18.488 2.31l-.29-.866c4.527-3.274 7.704-7.51 9.823-12.614 8.378-20.319-3.467-36.593-24.074-38.422-8.763-.77-17.14.77-24.94 5.296 5.97-15.022 16.562-25.614 31.392-33.222-14.637-4.14-8.57-2.6-23.689-6.066 14.06-8.956 29.081-12.711 44.777-14.06-5.007-3.08-46.317-3.466-67.599 20.126 7.608 1.348 14.926 2.697 22.34 4.045-22.917 6.74-42.369 18.97-60.087 34.28 1.06-4.621 2.6-9.147 3.178-13.77.577-4.333.77-8.859.096-13.096-1.445-9.051-8.57-14.54-18.97-15.696-7.608-.866-15.022.097-22.437 1.252-.867.096-1.637.29-2.792 0 15.214-14.251 34.666-20.896 51.132-32.259 5.778-4.333 6.548-7.896 2.889-14.348m123.643 25.807c3.177 15.408 12.133 24.556 22.918 23.4-4.43-10.881-11.652-18.777-22.918-23.4"/></svg>