<svg xmlns="http://www.w3.org/2000/svg" viewBox="0 0 512 512"><!--! Font Awesome Free 7.0.1 by @fontawesome - https://fontawesome.com License - https://fontawesome.com/license/free (Icons: CC BY 4.0, Fonts: SIL OFL 1.1, Code: MIT License) Copyright 2025 Fonticons, Inc.--><path fill="currentColor" d="M496.915 160.329c-.397-1.787-1.191-3.375-2.283-4.764a13.8 13.8 0 0 0-4.069-3.474A14.03 14.03 0 0 0 480.54 151l-26.2 6.55v-.199l-22.132 5.757-1.191.297-.596-2.183c-15.382-57.86-44.66-111.054-85.449-155.02-2.58-2.679-6.054-4.167-9.726-4.267-3.672-.099-7.244 1.29-9.924 3.772L223.2 107.63H24.81c-6.55 0-12.802 2.58-17.467 7.245C2.68 119.539 0 125.891 0 132.441V379.56c0 6.55 2.58 12.802 7.245 17.467a24.64 24.64 0 0 0 17.467 7.245h198.587l102.32 101.923c2.581 2.58 5.955 3.97 9.627 3.97s7.047-1.39 9.627-3.97c.1-.099.199-.298.397-.397 29.079-31.262 52.4-67.287 69.074-106.588a392 392 0 0 0 17.17-50.416l20.245 5.26v-.1l28.086 7.246c.893.198 1.687.397 2.58.496 1.39.198 2.78.198 4.07-.1 2.48-.496 4.763-1.686 6.649-3.374 1.885-1.687 3.175-3.97 3.77-6.45C512 288.85 512 223.15 497.015 160.23zM225.185 190.4l-52.203 90.61c-.992 1.687-1.488 3.672-1.488 5.656v45.851c0 5.756-2.283 11.314-6.451 15.482s-9.627 6.352-15.482 6.352h-3.375c-5.756 0-11.313-2.283-15.482-6.352s-6.45-9.626-6.45-15.482v-45.354c0-1.886-.497-3.772-1.39-5.459l-51.11-91.503c-1.886-3.374-2.78-7.046-2.78-10.917s1.092-7.542 2.978-10.817a21.3 21.3 0 0 1 8.039-7.94c3.374-1.885 7.046-2.878 10.917-2.878h3.275c3.97 0 7.94 1.092 11.413 3.176s6.252 5.061 8.038 8.634l36.125 69.769 37.217-69.967c1.786-3.474 4.565-6.352 7.84-8.337s7.146-3.176 11.016-3.176 7.741.894 11.115 2.78 6.253 4.664 8.138 8.038c1.985 3.275 2.978 7.046 2.978 10.917s-.993 7.642-2.978 10.917zM334.552 26.548c35.628 40.293 61.432 88.327 75.227 140.232l.595 1.984-113.237 29.377v-65.6c0-6.55-2.68-12.803-7.245-17.468s-10.917-7.244-17.467-7.244h-19.253l81.479-81.182zm60.042 364.523c-14.589 34.537-34.834 66.494-59.745 94.48l-81.578-81.28h19.055c6.55 0 12.802-2.58 17.467-7.245a24.64 24.64 0 0 0 7.244-17.467v-65.7l113.734 29.674c-4.367 16.177-9.726 32.056-16.177 47.538m83.365-52.004-50.217-13-130.705-34.041v-71.952l118.796-30.766 4.466-1.19c29.673-7.643 48.828-12.704 57.66-14.987a389.8 389.8 0 0 1 0 165.936"/></svg>