<svg xmlns="http://www.w3.org/2000/svg" viewBox="0 0 512 512"><!--! Font Awesome Free 7.0.1 by @fontawesome - https://fontawesome.com License - https://fontawesome.com/license/free (Icons: CC BY 4.0, Fonts: SIL OFL 1.1, Code: MIT License) Copyright 2025 Fonticons, Inc.--><path fill="currentColor" d="M279.543 229.029c0 9.714-4.914 23.428-24.343 23.428h-22.4V205.03h22.4c19.543 0 24.343 14.171 24.343 24M512 0v512H0V0zM172.914 292.343c0-24.229-13.828-39.429-53.371-51.2-23.543-8.457-29.714-12.457-29.714-21.257s8-16.686 23.314-16.686c16.114 0 23.771 9.6 23.771 21.029H172l.229-.686c.571-22.4-17.258-47.543-58.4-47.543-26.743 0-60.115 12.343-60.115 43.771 0 22.172 10.515 35.772 57.943 50.743 19.772 7.086 25.029 11.886 25.029 22.286 0 17.371-21.829 16.229-22.286 16.229-23.314 0-29.371-10.4-29.371-25.029h-35.2l-.229.686c-.8 35.771 32.457 51.657 64.686 51.657 34.285 0 58.4-15.543 58.4-43.772zM316.23 228.8c0-28.914-21.029-52-61.029-52H196v157.943h36.8V280.57h22.4c34.629 0 61.029-18.285 61.029-51.885zm24.228 106.057 56.114-157.943H361.03l-54.743 157.943zm121.829-157.943h-35.543L372 334.857h34.171z"/></svg>