<svg xmlns="http://www.w3.org/2000/svg" viewBox="0 0 512 512"><!--! Font Awesome Free 7.0.1 by @fontawesome - https://fontawesome.com License - https://fontawesome.com/license/free (Icons: CC BY 4.0, Fonts: SIL OFL 1.1, Code: MIT License) Copyright 2025 Fonticons, Inc.--><path fill="currentColor" d="M459.07 203.12C459.07 91.065 368.207.2 256.15.2 144.094 0 53.23 90.765 53.03 202.72c-.1 42.984 13.494 84.768 38.684 119.554s60.876 60.576 101.76 73.771v101.66c0 3.8 1.5 7.398 4.199 10.097A14.22 14.22 0 0 0 207.769 512h96.362c3.799 0 7.397-1.5 10.096-4.198a14.22 14.22 0 0 0 4.199-10.096v-101.56c40.784-13.196 76.47-38.986 101.66-73.672s38.885-76.47 38.985-119.353m-271.493 0c0-90.764 137.246-90.764 137.246 0-.1 89.866-137.246 90.965-137.246 0"/></svg>