<svg xmlns="http://www.w3.org/2000/svg" viewBox="0 0 512 512"><!--! Font Awesome Free 7.0.1 by @fontawesome - https://fontawesome.com License - https://fontawesome.com/license/free (Icons: CC BY 4.0, Fonts: SIL OFL 1.1, Code: MIT License) Copyright 2025 Fonticons, Inc.--><path fill="currentColor" d="M509.044 138.629c-2.273 49.563-36.83 117.428-103.9 203.595-69.23 90.032-127.773 135.048-175.744 135.048q-44.505 0-75.368-82.189C114.018 248.213 96.966 162.16 63.886 162.16c-3.865 0-17.165 8.07-40.014 23.986L0 155.226C58.657 103.73 114.7 46.436 149.826 43.254c39.673-3.865 64 23.304 73.208 81.279 32.625 206.323 47.062 237.47 106.401 144.028 21.258-33.648 32.74-59.225 34.33-76.845 5.457-52.178-40.696-48.654-71.957-35.24 25.01-81.96 72.867-121.748 143.46-119.474 52.064 1.364 76.732 35.353 73.776 101.627"/></svg>