<svg xmlns="http://www.w3.org/2000/svg" viewBox="0 0 512 512"><!--! Font Awesome Free 7.0.1 by @fontawesome - https://fontawesome.com License - https://fontawesome.com/license/free (Icons: CC BY 4.0, Fonts: SIL OFL 1.1, Code: MIT License) Copyright 2025 Fonticons, Inc.--><path fill="currentColor" d="M221.42 208.103v68.336l34.58 34.58 34.374-34.374v-68.542l-34.477-34.477zM256 0C114.58 0 0 114.58 0 256s114.58 256 256 256 256-114.58 256-256S397.42 0 256 0m149.78 427.768-26.941 19.82L352 427.767v-67.613l-34.477-34.478-34.478 34.478v67.613L256 447.588l-26.942-19.82v-67.613l-34.477-34.478L160 360.155v67.613l-26.942 19.82-26.942-19.82V337.96l61.42-61.42v-90.735l61.419-61.419V46.348l26.942-19.819 26.942 19.82v78.038l61.42 61.42v90.425l61.625 61.626v89.91z"/></svg>