<svg xmlns="http://www.w3.org/2000/svg" viewBox="0 0 512 512"><!--! Font Awesome Free 7.0.1 by @fontawesome - https://fontawesome.com License - https://fontawesome.com/license/free (Icons: CC BY 4.0, Fonts: SIL OFL 1.1, Code: MIT License) Copyright 2025 Fonticons, Inc.--><path fill="currentColor" d="M346.484 173.661c5.958 0 11.73.28 17.501 1.024C348.532 101.702 270.243 47.43 181.248 47.43 81.455 47.43 0 115.2 0 201.402c0 49.71 27.276 90.764 72.518 122.508L54.55 378.46l63.302-31.744c22.714 4.468 40.774 9.03 63.488 9.03 5.772 0 11.264-.28 17.036-.745a128 128 0 0 1-5.772-37.98c-.093-79.035 67.863-143.36 153.88-143.36m-97.28-49.245c13.499 0 22.528 9.03 22.528 22.714 0 13.498-9.03 22.528-22.528 22.528-13.777 0-27.275-9.03-27.275-22.528.093-13.684 13.591-22.714 27.275-22.714m-126.976 45.242c-13.498 0-27.275-9.03-27.275-22.528 0-13.777 13.777-22.714 27.275-22.714 13.778 0 22.715 9.03 22.715 22.714 0 13.591-8.937 22.528-22.715 22.528M512 314.973c0-72.518-72.518-131.537-153.972-131.537-86.296 0-153.973 59.02-153.973 131.537 0 72.518 67.77 131.538 153.973 131.538 17.966 0 36.212-4.748 54.55-9.216l49.711 27.275-13.777-45.242C485.004 391.959 512 355.747 512 314.973m-203.962-22.807c-9.03 0-17.967-9.03-17.967-18.246 0-9.03 9.03-17.967 17.967-17.967 13.777 0 22.714 9.03 22.714 17.967 0 9.31-9.03 18.246-22.714 18.246m99.7 0c-9.03 0-17.966-9.03-17.966-18.246 0-9.03 9.03-17.967 17.966-17.967 13.498 0 22.714 9.03 22.714 17.967.093 9.31-9.216 18.246-22.714 18.246"/></svg>