<svg xmlns="http://www.w3.org/2000/svg" viewBox="0 0 512 512"><!--! Font Awesome Free 7.0.1 by @fontawesome - https://fontawesome.com License - https://fontawesome.com/license/free (Icons: CC BY 4.0, Fonts: SIL OFL 1.1, Code: MIT License) Copyright 2025 Fonticons, Inc.--><path fill="currentColor" d="M267.172 510.604c-.998-3.292-1.696-15.76-1.397-24.538.599-15.86.998-24.638 1.397-28.727.598-6.185 2.892-20.648 3.291-21.346.599-.997.4-27.83-.2-33.016-.298-2.594-.598-11.87-.697-20.648-.1-16.458-.5-20.049-2.694-24.737-1.097-2.294-1.197-3.79-.997-11.371.2-4.19.1-8.479-.3-12.668-1.994-12.967-3.49-27.63-3.191-33.814s.399-7.082 2.094-9.675c3.093-4.689 6.484-13.965 8.579-23.241 2.294-9.875 3.89-17.157 4.588-20.648 1.097-5.087 2.593-10.074 4.389-15.062 2.294-6.184 2.494-15.36.399-15.36-.3 0-1.397 1.196-2.394 2.692s-4.788 4.788-8.279 7.382c-8.379 6.084-11.67 9.376-12.668 12.568s-.997 7.181-.2 7.78c.3.2 1.297 2.394 2.095 4.888 1.596 4.987 1.896 10.273.699 15.36-.4 1.796-.998 5.487-1.497 8.18-.498 2.693-.997 6.483-1.296 8.179-.2 1.496-.699 2.992-1.497 4.29-.997.997-1.097.897-2.094-.5-.698-1.496-1.197-3.092-1.397-4.688-.2-1.695-1.596-7.082-3.092-11.87-3.291-10.872-3.491-16.159-.997-20.946a15 15 0 0 0 1.695-4.589c0-2.394-2.194-5.286-7.38-9.875-6.983-6.184-8.58-7.88-10.175-11.271-1.696-3.59-3.092-4.09-4.489-1.496-1.795 2.992-2.593 9.077-2.992 21.944l-.3 12.17 1.996 2.194c3.192 3.69 12.069 16.458 13.765 19.75 3.391 6.682 4.289 11.67 4.389 23.54s.997 22.742 1.995 24.637c.398.698.498 1.397.299 1.496-.2.1.399 2.095 1.296 4.29a45.2 45.2 0 0 1 2.095 8.977c.4 3.49.898 6.982 1.696 10.373 2.194 9.576 2.793 14.065 2.394 20.05-.2 3.291-.499 11.071-.698 17.256-1.297 41.694-1.796 57.853-1.995 61.045-.1 1.994-.4 11.47-.599 21.046-.399 16.259-1.297 27.33-2.394 28.528-.598.698-8.08-4.888-12.468-9.476-3.79-3.89-3.99-4.788-2.793-9.875.698-2.993 2.294-18.254 3.292-32.518.399-4.787.798-10.473.997-12.667.798-9.377 1.696-20.25 2.593-34.712.599-8.479 1.297-16.359 1.696-17.656.4-1.296.898-9.874 1.097-19.051l.4-16.758-2.295-4.289c-1.696-3.291-4.887-6.882-13.166-15.26-5.985-6.085-11.77-12.27-12.868-13.766l-1.995-2.793.798-10.872c1.098-15.66 1.098-48.477 0-58.95l-.897-8.679-3.292-4.488c-5.885-8.08-5.785-7.68-6.184-33.216-.1-6.084-.4-11.47-.599-12.07-.798-1.894-2.992-2.692-8.478-2.992-8.878-.598-10.972-1.895-23.74-14.563-6.184-5.984-12.269-11.97-13.765-13.166-2.793-2.394-2.793-1.995-.599-9.576l1.397-4.588-1.696-2.993c-.798-1.396-1.596-2.793-2.593-4.09-1.297-1.495-5.486-10.872-5.985-13.465-.2-.698-.2-1.397-.1-2.095s.499-1.296.898-1.795c2.194-2.893 3.391-5.686 4.489-10.673 2.294-11.172 7.68-26.034 10.573-29.126 3.192-3.491 7.68-.998 9.376 4.987 1.297 4.788 1.396 9.775.1 18.553-.5 3.69-.898 7.381-.998 11.072 0 3.99.2 4.688 2.294 7.381 3.292 4.39 7.68 7.381 15.162 10.474 1.696.698 3.292 1.695 4.688 2.793 11.172 10.672 18.553 16.159 22.842 16.857 5.187.798 7.98 4.488 9.975 13.366 1.296 5.685 3.99 11.072 5.486 11.072 1.197-.2 2.294-.699 3.291-1.397 1.995-1.197 2.195-1.695 2.195-4.19-.3-5.984-.898-11.869-1.995-17.754-.4-1.696-.798-4.09-.898-5.386s-.598-3.79-.997-5.686c-2.594-11.172-3.591-15.46-4.09-15.96-1.596-1.994-4.09-10.174-4.888-15.86-1.595-11.071-3.99-14.163-12.867-17.355a42.5 42.5 0 0 1-13.266-7.88c-1.197-.998-3.99-3.192-6.384-5.087s-4.389-3.491-4.588-3.79c-.798-.699-1.696-1.397-2.693-1.995-6.185-4.19-8.778-6.983-11.272-11.97l-2.394-4.987c-.1-8.678-.299-17.257-.399-25.935l6.883-6.583c3.99-3.79 8.478-7.381 10.573-8.379 3.292-1.695 4.389-1.895 11.371-1.994 8.479-.2 10.074 0 11.67 1.595 1.596 1.596 1.397 6.384-.299 8.479-.598.698-1.097 1.496-1.297 2.294 0 .599-2.593 4.888-5.386 8.977a29 29 0 0 0-2.394 6.783c20.349 13.366 21.545 3.79 14.064 28.927l11.372 2.493c3.092-8.678 6.483-17.256 8.578-26.133.3-7.581-11.97-4.19-15.361-8.678-2.294-5.885 3.092-14.164 6.084-19.152 1.596-2.294 6.584-4.688 8.778-4.09.898.2 4.19-.398 7.381-1.296 2.494-.798 4.988-1.297 7.481-1.696 1.995-.2 4.09-.698 5.985-1.296 3.69-1.098 4.489-1.197 6.284-.4 1.895.6 3.79 1.098 5.786 1.397 2.094.3 4.09.898 5.984 1.895 1.596.898 3.292 1.696 4.988 2.195 2.493.698 2.992.598 6.982-1.696l4.19-2.494 10.672-.399c10.374-.399 10.773-.498 15.261-2.693L322.931 0l2.493 1.396c1.795.998 3.092 2.694 4.887 5.985 2.394 4.489 2.394 4.589 1.397 7.382-.898 2.393-.898 3.291-.1 6.383a32 32 0 0 0 2.095 5.885c.598 1.297 1.097 2.594 1.296 3.99.3 4.29 0 5.287-2.394 6.883-2.194 1.496-6.982 7.88-6.982 9.276-.2.998-.598 1.995-1.097 2.993-4.987 11.47-6.783 13.565-14.264 16.957-9.176 4.189-12.269 5.186-16.159 5.186-3.092 0-3.99.2-4.488 1.297-1.197 1.397-2.494 2.693-4.09 3.69-1.795 1.198-3.292 2.893-4.389 4.789-.499 1.197-1.396 2.194-2.493 2.892a8.5 8.5 0 0 0-2.494 1.696c-2.195 1.895-4.589 3.69-6.982 5.386-3.292 2.294-6.883 4.988-7.88 5.985-.699.698-1.497 1.297-2.394 1.696-.798.399-1.596.897-2.095 1.596-1.297 1.396-1.496 2.094-1.097 4.588.299 1.995.798 3.99 1.396 5.885 1.297 3.79 1.297 7.88 0 10.573s-.898 6.683 1.397 9.576c1.995 2.593 2.194 4.588.698 8.778-.798 2.892-1.097 5.885-1.097 8.877 0 4.888.2 6.284 1.496 8.379s1.795 2.493 3.192 2.294c1.995-.2 2.294-1.097 4.688-12.07 2.194-9.974 3.69-11.87 13.765-17.056 2.893-1.496 7.48-3.99 9.975-5.386 2.493-1.397 6.782-3.691 9.376-4.888 5.885-2.593 11.171-6.583 15.161-11.67 7.082-8.778 9.975-16.16 12.768-33.216.399-2.793 1.297-5.386 2.893-7.68a21 21 0 0 0 2.892-7.282c.998-5.287 2.893-9.077 5.586-11.47 4.688-4.19 5.985-1.098 4.588 10.872-.498 3.89-1.097 10.273-1.396 14.363l-.599 7.381c2.993 2.693 5.885 5.486 8.878 8.18l.1 8.378c.1 4.589.498 9.476.897 10.873l.798 2.493-6.383 6.284c-8.479 8.28-12.868 13.865-16.758 21.546-1.795 3.49-3.69 7.082-4.389 7.98-2.194 3.092-6.483 12.966-8.777 20.248l-2.295 7.182-6.982 6.483a228 228 0 0 1-9.177 8.18c-2.992 2.294-4.289 5.087-4.289 9.974-.1 2.494.4 4.988 1.596 7.282a50 50 0 0 1 2.095 4.788c.3.997.898 1.994 1.596 2.892 1.396 1.596 1.895 16.06.798 23.141-.698 4.49-3.591 11.97-4.688 11.97-1.796 0-4.09 9.277-5.087 20.648-.2 1.995-.599 5.885-.998 8.678s-.997 9.974-1.396 15.96c-.798 12.168-.2 18.751 1.995 23.14 3.391 6.683.498 12.668-10.973 22.743l-3.99 3.49.1 5.188c.1 2.992.4 5.984 1.098 8.877 4.588 15.96 4.688 16.857 4.388 37.006-.498 26.333-.299 40.198.599 44.088.499 2.294.898 4.588 1.097 6.982.2 1.995.698 5.287 1.097 7.382.5 2.294.798 10.972.798 22.642v19.052l-1.795 2.593c-2.693 3.89-15.062 13.466-15.46 12.269h.099zm29.425-44.986c-.2-.3-.3-6.883-.3-14.563 0-14.065-.897-27.43-2.293-34.313-.4-1.995-.798-9.676-.898-17.057-.2-11.87-1.397-24.338-2.594-26.333-.698-1.097-2.992-17.655-2.992-21.246 0-4.19.997-5.985 5.287-9.077 4.289-3.092 4.887-3.092 5.486-.698.299 1.097 1.396 5.586 2.593 9.974 3.89 15.062 4.09 16.26 3.99 21.646-.1 5.785-.1 6.084-1.696 17.655-.997 7.082-1.197 12.368-.997 28.328.2 19.35-.599 35.61-1.995 41.195-.698 2.793-2.793 5.486-3.392 4.389h-.1zm-70.82-37.505c-.798-3.59-1.297-7.182-1.696-10.773s-.997-7.181-1.696-10.772c-.498-2.095-.897-4.29-.997-6.484-.3-3.192-.898-7.48-1.297-9.476-.997-4.788-3.291-19.35-3.391-21.046 0-.699-.3-3.99-.698-7.382-.699-6.184-.798-27.63-.2-28.228.998-.997 6.583 2.793 11.271 7.381l5.287 5.287-.399 6.483c-.2 3.591-.598 10.175-.798 14.763-.499 13.266-.698 8.678-1.596 28.328-.798 17.356-1.895 31.22-2.593 31.919-.1.1-.2.1-.2.2s-.2 0-.299 0c-.1 0-.2 0-.3-.1l-.199-.2zm-86.88-265.925c21.047 12.768 17.755 14.164 28.428 17.655 12.967 4.29 18.852 7.082 23.141 16.858-43.589 36.008-68.825 57.753-76.505 70.72-30.922 51.868-5.985 101.343 62.64 86.98-14.163 29.125-77.802 28.527-98.45-4.888-24.637-39.9-22.043-118 60.846-187.225zm210.266 178.547c56.557 6.882 82.092-37.605 46.383-88.974 0 0-26.832-29.226-64.137-67.828 2.992-15.46 9.475-32.019 30.522-53.664 88.974 63.34 91.767 141.242 92.266 149.022 4.289 70.421-78.5 90.969-105.034 61.544z"/></svg>