<svg xmlns="http://www.w3.org/2000/svg" viewBox="0 0 512 512"><!--! Font Awesome Free 7.0.1 by @fontawesome - https://fontawesome.com License - https://fontawesome.com/license/free (Icons: CC BY 4.0, Fonts: SIL OFL 1.1, Code: MIT License) Copyright 2025 Fonticons, Inc.--><path fill="currentColor" d="M96.3 349.688c.87 6.789-.349 13.751-3.57 19.843s-8.354 10.966-14.533 14.012-13.142 4.09-19.93 2.872-13.055-4.438-17.928-9.312-8.007-11.227-9.139-18.015 0-13.751 3.134-19.93 8.093-11.14 14.185-14.36 13.055-4.352 19.93-3.395C.305 224.54 113.705 155.61 113.705 155.61c-5.135 37.423-7.136 79.372-7.136 79.372-58.572 36.118.783 55.787 34.638 63.445 8.616 23.499 24.194 43.69 44.734 58.05a121.9 121.9 0 0 0 69.885 22.018c1.654 0 3.307-.174 4.96-.26l.088 16.448c-86.334 1.218-138.118-25.326-164.4-44.908zM190.291 64.49c.783-6.267-.174-12.707-2.959-18.45-2.61-5.397-6.614-10.01-11.662-13.317s-10.879-5.134-16.884-5.395c-6.005-.262-12.01 1.218-17.232 4.09s-9.66 7.224-12.62 12.445c-2.958 5.222-4.525 11.14-4.35 17.145.173 6.005 1.914 11.923 5.134 16.971s7.746 9.225 13.141 11.836c5.396 2.611 11.401 3.83 17.407 3.395-19.67 26.022-46.823 77.979-45.604 165.357l18.972-.174c0-.783-.087-1.566-.087-2.35 0-24.368 7.31-48.127 20.975-68.318 13.663-20.191 32.984-35.857 55.525-44.908 6.962-32.81 26.718-99.476 64.228-38.555 0 0 41.862 2.09 79.372 7.137 0 0-67.71-111.399-163.269-47.084zm264.747 116.794c5.483-2.61 10.182-6.701 13.49-11.836 3.306-5.135 5.134-11.053 5.308-17.232s-1.392-12.184-4.525-17.406-7.572-9.573-12.968-12.445-11.488-4.178-17.58-3.83a32.3 32.3 0 0 0-16.971 6.006c-4.96 3.568-8.877 8.354-11.314 14.011a33.1 33.1 0 0 0-2.35 17.842c-27.588-19.06-78.153-42.732-159.614-41.514l.087 19.582c2.35-.174 4.7-.348 7.05-.348 24.455 0 48.389 7.397 68.667 21.148s35.856 33.333 44.908 56.135c34.028 7.833 91.469 27.502 33.506 63.097 0 0-2.001 41.862-7.136 79.372 0 0 116.098-70.669 42.645-169.361a32 32 0 0 0 16.797-3.047zm-99.737 225.757c18.624-28.285 40.382-78.066 39.25-156.393l-16.97.087c.087 1.827.26 3.568.26 5.396 0 24.89-7.658 49.172-21.844 69.624s-34.377 36.03-57.701 44.734c-7.746 33.941-27.328 92.861-63.358 34.377 0 0-41.862-2.002-79.372-7.137 0 0 69.537 114.271 167.011 44.386.261 4.264 1.306 8.354 3.133 12.184 2.524 5.309 6.528 9.921 11.401 13.141s10.618 5.222 16.536 5.57 11.836-.957 17.058-3.655A32.8 32.8 0 0 0 383.5 457.52c3.133-5.048 4.873-10.792 4.96-16.71s-1.305-11.749-4.177-16.884a33.03 33.03 0 0 0-12.271-12.445c-5.135-2.96-10.966-4.526-16.884-4.439v-.087z"/></svg>