<svg xmlns="http://www.w3.org/2000/svg" viewBox="0 0 512 512"><!--! Font Awesome Free 7.0.1 by @fontawesome - https://fontawesome.com License - https://fontawesome.com/license/free (Icons: CC BY 4.0, Fonts: SIL OFL 1.1, Code: MIT License) Copyright 2025 Fonticons, Inc.--><path fill="currentColor" d="M297.452 206.303c0-20.134-14.212-31.248-39.174-31.248h-45.916v64.865h38.718c29.882-.09 46.372-12.116 46.372-33.617m167.174-11.661c-8.654-28.15-9.93-62.679-8.928-89.372 1.002-27.787-20.68-53.296-49.833-53.296H106.317c-29.244 0-50.835 25.6-49.833 53.296.911 26.693-.273 61.221-8.928 89.372C38.81 222.884 24.142 240.74 0 243.018v25.964c24.051 2.278 38.81 20.134 47.556 48.376 8.655 28.15 9.93 62.679 8.928 89.372-1.002 27.787 20.68 53.296 49.833 53.296h299.457c29.244 0 50.835-25.6 49.833-53.296-.91-26.693.273-61.221 8.928-89.372 8.746-28.242 23.414-46.098 47.465-48.376v-25.964c-23.96-2.278-38.719-20.134-47.374-48.376M267.115 364.549h-89.19V147.451h88.734c39.448 0 65.321 21.318 65.321 54.115 0 23.049-17.4 43.638-39.63 47.191v1.185c30.246 3.28 50.562 24.233 50.562 53.113 0 38.354-28.515 61.494-75.797 61.494m-9.11-99.029h-45.643v71.425h47.647c31.157 0 47.647-12.48 47.647-35.986 0-23.413-16.946-35.439-49.652-35.439"/></svg>