<svg xmlns="http://www.w3.org/2000/svg" viewBox="0 0 512 512"><!--! Font Awesome Free 7.0.1 by @fontawesome - https://fontawesome.com License - https://fontawesome.com/license/free (Icons: CC BY 4.0, Fonts: SIL OFL 1.1, Code: MIT License) Copyright 2025 Fonticons, Inc.--><path fill="currentColor" d="M255.831 387.126c-28.388-35.71-45.173-66.915-50.693-93.726-25.347-99.133 126.845-99.133 101.499 0-6.083 27.262-22.868 58.579-50.693 93.726zm155.684 82.46c-47.426 20.616-94.289-12.278-134.393-56.888 117.045-146.56 51.932-225.303-21.178-225.303-61.846 0-95.98 52.383-82.574 113.215 7.773 32.894 28.388 70.294 61.283 112.088-36.612 40.554-68.154 59.367-95.98 61.845-56.325 8.337-100.372-46.3-80.32-102.625 17.01-44.16 125.832-260.45 130.563-272.165 17.8-33.908 28.839-64.662 66.915-64.662 36.386 0 48.89 29.177 68.041 67.478 40.555 79.532 100.71 199.956 129.324 269.35 14.87 37.287-1.577 80.32-41.68 97.555zm52.946-153.318C319.254 7.266 311.255 2.873 255.944 2.873c-51.257 0-73.111 35.71-95.416 82.01C40.892 324.04 29.402 357.949 28.388 360.878 0 438.946 58.466 507.55 129.324 507.55c24.445 0 68.266-6.871 126.62-70.294 66.126 71.871 114.115 70.294 126.62 70.294 70.857.113 129.436-68.604 100.935-146.672 0-4.393-18.925-43.821-18.925-44.61z"/></svg>