<svg xmlns="http://www.w3.org/2000/svg" viewBox="0 0 512 512"><!--! Font Awesome Free 7.0.1 by @fontawesome - https://fontawesome.com License - https://fontawesome.com/license/free (Icons: CC BY 4.0, Fonts: SIL OFL 1.1, Code: MIT License) Copyright 2025 Fonticons, Inc.--><path fill="currentColor" d="M234.629 162.971c0 24.115-16.229 43.543-36.229 43.543-8.114 0-14.629-1.371-19.657-4.228V124.57c5.028-3.085 11.543-4.8 19.657-4.8 20 0 36.229 19.315 36.229 43.2m60.114 76.572c-8.114 0-14.629 1.714-19.657 4.8v77.714c5.028 2.857 11.543 4.229 19.657 4.229 19.886 0 36.228-19.315 36.228-43.2 0-24.115-16.342-43.543-36.228-43.543M512 54.857v402.286C512 487.429 487.429 512 457.143 512H54.857C24.571 512 0 487.429 0 457.143V54.857C0 24.571 24.571 0 54.857 0h402.286C487.429 0 512 24.571 512 54.857M211.429 254.971c46.857 0 84.8-40.685 84.8-90.971s-37.943-90.971-84.8-90.971c-13.715 0-27.543 3.657-39.543 10.057h-52.229v235.771l59.2-11.543v-57.828c9.829 3.543 20.686 5.485 32.572 5.485m181.028 28.915c0-50.286-37.943-90.972-84.457-90.972-3.657 0-7.314.229-10.971.8-4.229 14.286-11.543 27.2-21.943 38.172-15.772 17.143-36.8 27.2-59.2 28.343v178.628l59.2-11.543v-57.828c9.828 3.657 20.8 5.371 32.8 5.371 46.628 0 84.571-40.686 84.571-90.971"/></svg>