<svg xmlns="http://www.w3.org/2000/svg" viewBox="0 0 512 512"><!--! Font Awesome Free 7.0.1 by @fontawesome - https://fontawesome.com License - https://fontawesome.com/license/free (Icons: CC BY 4.0, Fonts: SIL OFL 1.1, Code: MIT License) Copyright 2025 Fonticons, Inc.--><path fill="currentColor" d="M177.385 0h157.03l44.709 50.81s39.308-10.902 57.811 7.601c18.504 18.504 33.807 34.907 33.807 34.907l-12.002 29.506 15.303 43.709s-44.91 170.233-50.11 191.037c-10.402 40.908-17.404 56.81-46.91 77.515s-82.916 56.811-91.617 62.212c-1.9 1.2-3.901 2.5-5.901 3.9C272.003 506.3 263.702 512 256 512s-16.103-5.701-23.505-10.802c-2-1.4-4-2.8-5.9-3.9-8.702-5.502-62.113-41.509-91.619-62.213-29.505-20.704-36.507-36.607-46.909-77.515-5.3-20.804-50.11-191.037-50.11-191.037l15.303-43.709-12.202-29.506s15.303-16.403 33.807-34.907c18.503-18.503 57.81-7.601 57.81-7.601zM255.9 407.68c3.7 0 8.902-4.701 13.003-8.402.6-.5 1.2-1.1 1.7-1.5 4.2-3.701 47.81-37.508 51.01-39.808s5.4-6.501 1.9-8.702c-2.8-1.7-10.002-5.5-20.304-10.802-3-1.6-6.301-3.2-9.702-5-15.403-8.002-34.506-14.704-37.507-14.704s-22.104 6.802-37.507 14.703c-3.501 1.8-6.702 3.5-9.702 5.001-10.302 5.301-17.604 9.102-20.304 10.802-3.6 2.2-1.4 6.401 1.9 8.702 3.3 2.3 46.81 36.107 51.01 39.808.5.5 1.1 1 1.7 1.5 4.101 3.7 9.302 8.402 13.003 8.402zm0-165.733c4.7 0 17.603-3 26.405-5l2-.5c7.802-1.801 7.302-6.302 6.402-13.003l-.3-2.4c-.6-6.102-5.801-33.107-9.102-50.31-1.1-5.802-2-10.503-2.4-12.903-1.5-8.102-.6-9.402.7-11.302.2-.3.5-.7.7-1.1 1.4-2.301 16.003-6.202 27.905-9.502 2.5-.7 4.801-1.3 6.902-1.9 10.602-3.001 32.406-.6 44.208.6 1.8.2 3.4.4 4.701.5 9.602.9 10.402 2.3 7.202 3.8-2.3 1.1-16.204 6.301-28.706 10.902-4.701 1.8-9.202 3.5-12.803 4.801-1.5.5-3 1.1-4.5 1.7-12.503 4.601-27.206 10.002-28.906 19.404-1.5 8.302 5.2 19.904 11.302 30.306 1.6 2.8 3.2 5.501 4.601 8.102 6.301 11.902 6.501 13.302 6.101 18.103-.4 3.901-14.503 12.703-22.404 17.604-1.8 1.1-3.3 2.1-4.201 2.7-.8.5-2.1 1.4-3.8 2.4-8.602 5.202-26.306 16.004-26.306 22.505 0 7.802 24.605 28.106 32.406 33.207 7.802 5.1 28.906 16.103 37.908 17.803s23.004-8.502 31.206-23.804c7.701-14.403 1.7-28.506-3.2-40.008l-.9-2.2c-4.502-10.603 1.9-17.004 6.2-21.305l1.4-1.4 43.009-45.71c1.3-1.3 2.5-2.6 3.7-3.8 5.802-5.701 10.803-10.502 10.803-22.804 0-14.903-57.511-84.517-57.511-84.517s-48.51 9.302-55.111 9.302c-5.201 0-15.303-3.5-25.805-7.101-2.7-.9-5.401-1.9-8.002-2.7-13.002-4.302-21.804-4.402-21.804-4.402s-8.702 0-21.804 4.401c-2.7.9-5.401 1.8-8.002 2.7-10.502 3.601-20.604 7.102-25.805 7.102-6.501 0-55.11-9.302-55.11-9.302s-57.512 69.614-57.512 84.517c0 12.302 4.901 17.103 10.802 22.804 1.2 1.2 2.5 2.4 3.701 3.8l43.108 45.81c.4.5.9.9 1.4 1.4 4.301 4.301 10.603 10.702 6.202 21.304l-.9 2.2c-4.901 11.503-11.002 25.606-3.2 40.009 8.2 15.303 22.203 25.505 31.205 23.804 9.002-1.7 30.106-12.702 37.908-17.803s32.406-25.405 32.406-33.207c0-6.501-17.704-17.303-26.305-22.504-1.7-1-3.1-1.9-3.801-2.4-.9-.6-2.4-1.5-4.2-2.701-7.902-4.901-22.005-13.703-22.405-17.604-.4-4.8-.3-6.2 6.101-18.103 1.3-2.5 2.9-5.301 4.6-8.102 6.002-10.402 12.803-22.004 11.303-30.306-1.7-9.401-16.403-14.803-28.906-19.403-1.6-.6-3.1-1.1-4.5-1.7-3.601-1.401-8.102-3.101-12.803-4.802h-.1c-12.502-4.7-26.405-9.902-28.706-10.902-3.2-1.5-2.3-2.8 7.202-3.8 1.3-.1 2.9-.3 4.7-.5 11.803-1.3 33.607-3.601 44.21-.6 2.1.6 4.4 1.2 6.9 1.9 11.903 3.2 26.506 7.201 27.906 9.501.2.4.5.7.7 1.1 1.3 1.901 2.2 3.201.7 11.303-.4 2.4-1.3 7.101-2.4 12.902-3.3 17.204-8.502 44.209-9.102 50.31-.1.8-.2 1.7-.3 2.4-.8 6.702-1.4 11.203 6.401 13.003l2 .5c8.803 2 21.805 5.001 26.406 5.001z"/></svg>