<svg xmlns="http://www.w3.org/2000/svg" viewBox="0 0 512 512"><!--! Font Awesome Free 7.0.1 by @fontawesome - https://fontawesome.com License - https://fontawesome.com/license/free (Icons: CC BY 4.0, Fonts: SIL OFL 1.1, Code: MIT License) Copyright 2025 Fonticons, Inc.--><path fill="currentColor" d="M417.867 234.044s6.755 33.067 8.266 40h-29.689c2.934-7.91 14.223-38.666 14.223-38.666-.178.266 2.933-8.09 4.71-13.245zM512 99.556v312.888c0 23.556-19.111 42.667-42.667 42.667H42.667C19.11 455.111 0 436 0 412.444V99.556C0 76 19.111 56.889 42.667 56.889h426.666C492.89 56.889 512 76 512 99.556M135.556 322.844l56.177-137.955h-37.777l-34.934 94.222L115.2 260l-12.444-63.467c-2.045-8.8-8.356-11.289-16.178-11.644H29.067l-.623 2.755c14.045 3.556 26.578 8.712 37.512 15.2l31.822 120zm83.91.178 22.4-138.133h-35.733l-22.31 138.133zm124.356-45.155c.178-15.734-9.422-27.734-29.955-37.6-12.534-6.311-20.178-10.578-20.178-17.067.178-5.867 6.489-11.911 20.533-11.911 11.645-.267 20.178 2.489 26.578 5.244l3.2 1.511 4.889-29.866c-7.022-2.756-18.222-5.867-32-5.867-35.289 0-60.089 18.845-60.267 45.689-.266 19.822 17.778 30.844 31.29 37.511 13.777 6.756 18.488 11.2 18.488 17.156-.178 9.244-11.2 13.51-21.422 13.51-14.222 0-21.867-2.221-33.511-7.377l-4.711-2.222-4.978 31.022c8.355 3.822 23.822 7.2 39.822 7.378 37.511.089 61.956-18.49 62.222-47.111m125.511 45.155-28.8-138.133H412.89c-8.533 0-15.022 2.489-18.667 11.467l-53.066 126.666h37.51s6.134-17.066 7.467-20.71H432c1.067 4.888 4.267 20.71 4.267 20.71z"/></svg>