<svg xmlns="http://www.w3.org/2000/svg" viewBox="0 0 512 512"><!--! Font Awesome Free 7.0.1 by @fontawesome - https://fontawesome.com License - https://fontawesome.com/license/free (Icons: CC BY 4.0, Fonts: SIL OFL 1.1, Code: MIT License) Copyright 2025 Fonticons, Inc.--><path fill="currentColor" d="M464.755 169.755c9.932-22.415 19.5-55.036 19.5-80.093 0-66.244-72.532-89.662-191.078-35.173-98.045-6.56-192.444 67.155-216.044 169.938 28.155-31.8 71.346-74.991 111.165-92.213C138.82 176.225 96.632 231.9 64.65 290.034c-18.861 34.533-40.092 90.39-40.092 132.122 0 89.844 84.65 78.819 164.288 38.27 28.611 14.033 60.686 14.215 92.668 14.215 88.477 0 167.842-49.478 197.547-133.034H368.988c-47.838 80.731-179.323 48.293-179.323-43.19h299.6c5.832-39.729-1.548-87.202-24.51-128.662M83.42 340.331c16.128 46.562 48.931 87.292 91.301 112.35C93.9 497.24 16.903 479.197 83.42 340.331m105.607-99.229c1.823-50.298 45.833-86.472 94.764-86.472 48.658 0 92.942 36.174 94.765 86.472zm168.207-170.94c19.5-9.385 44.284-20.046 66.152-20.046 28.612 0 49.478 19.773 49.478 48.93 0 18.225-6.743 44.65-13.303 61.87-23.965-38.543-60.139-74.353-102.327-90.754"/></svg>