<svg xmlns="http://www.w3.org/2000/svg" viewBox="0 0 512 512"><!--! Font Awesome Free 7.0.1 by @fontawesome - https://fontawesome.com License - https://fontawesome.com/license/free (Icons: CC BY 4.0, Fonts: SIL OFL 1.1, Code: MIT License) Copyright 2025 Fonticons, Inc.--><path fill="currentColor" d="M260.697 427.75c12.893 11.693 33.68 33.28 33.18 50.67 0 .8-.1 1.599-.1 2.498C291.98 500.707 274.99 512 254.702 511.9c-24.986-.1-39.877-16.79-38.678-35.779 1-16.19 20.488-36.678 32.381-47.572 2.3-2.099 2.699-2.699 5.597-3.598 3.398 0 3.898.3 6.696 2.798M394.72 67.46c-16.29-25.684-38.578-40.576-63.263-52.069C305.97 4.697 276.888 0 254.9.2c-44.075 0-71.159 13.192-81.053 17.29-53.568 27.883-84.35 69.859-82.851 141.217 7.096 82.152 96.943 175.897 155.708 233.663 1.7 1.6 4.498 4.497 6.197 5.097l3.298.1c2.099-.7 1.799-.5 3.498-2.099 52.27-49.17 140.617-145.714 155.809-215.573 6.995-39.177 3.098-72.458-20.788-112.435M249.704 351.894c-27.984-51.07-65.162-130.624-69.26-188.89-3.398-47.472 11.394-131.123 69.26-136.62zm141.817-171.8c-16.39 56.767-77.255 127.926-118.83 170.2 27.783-51.869 65.161-133.221 67.16-191.787 1.599-45.873-9.794-105.738-47.972-131.323 88.748 18.29 115.432 98.043 99.642 152.91"/></svg>