<svg xmlns="http://www.w3.org/2000/svg" viewBox="0 0 512 512"><!--! Font Awesome Free 7.0.1 by @fontawesome - https://fontawesome.com License - https://fontawesome.com/license/free (Icons: CC BY 4.0, Fonts: SIL OFL 1.1, Code: MIT License) Copyright 2025 Fonticons, Inc.--><path fill="currentColor" d="m345.705 124.403 13.751 226.766-10.017-.273c-32.968-.729-65.207 8.014-93.53 25.5-28.232-17.486-60.471-25.5-93.53-25.5-41.528 0-74.769 9.744-112.472 25.226l28.596-235.235c25.955-10.747 56.009-16.484 83.967-16.484 37.521 0 67.21 12.021 93.53 38.705 25.227-25.773 53.732-37.977 89.705-38.705M512 430.856c-23.223 0-43.259-4.736-64.205-14.207-31.237-14.207-63.75-22.768-98.265-22.768-35.518 0-68.212 11.748-93.53 36.975-25.227-25.227-58.012-36.975-93.53-36.975-34.516 0-67.028 8.47-98.265 22.768-20.218 9.016-40.709 14.207-63.021 14.207H0l38.796-317.928c35.791-20.218 79.232-31.784 120.487-31.784 33.787 0 68.485 7.013 96.717 26.502 28.232-19.49 63.021-26.502 96.717-26.502 41.255 0 84.696 11.475 120.487 31.784zm-39.525-40.709-30.964-255.271c-27.959-12.75-61.2-19.49-91.981-19.49-34.971 0-67.757 11.02-93.53 35.245-25.773-24.225-58.467-35.244-93.53-35.244-30.782 0-64.022 6.739-91.981 19.489l-30.964 255.18c42.985-17.759 75.497-30.509 122.945-30.509 34.243 0 64.478 8.743 93.53 26.957 28.96-18.214 59.287-26.957 93.53-26.957 47.539 0 79.96 12.75 122.945 30.51z"/></svg>