<svg xmlns="http://www.w3.org/2000/svg" viewBox="0 0 512 512"><!--! Font Awesome Free 7.0.1 by @fontawesome - https://fontawesome.com License - https://fontawesome.com/license/free (Icons: CC BY 4.0, Fonts: SIL OFL 1.1, Code: MIT License) Copyright 2025 Fonticons, Inc.--><path fill="currentColor" d="M142.72 322.96h-29.84L89.76 230h-.4l-22.8 92.96h-30.4L0 186.32h30l21.6 92.96h.4l23.76-92.96h28.16l23.36 94.16h.4l22.4-94.16h29.44L142.8 322.96zm74.4-101.6c31.2 0 51.28 20.64 51.28 52.24 0 31.36-20.08 52-51.28 52-30.96 0-51.12-20.64-51.12-52 0-31.6 20.08-52.24 51.12-52.24m0 83.84c18.56 0 24.08-15.92 24.08-31.6 0-15.92-5.52-31.76-24.08-31.76-22.16 0-23.92 15.92-23.92 31.76 0 15.68 5.52 31.6 23.92 31.6m130.96 5.2h-.4c-6.32 10.72-17.44 15.28-30 15.28-29.84 0-44.4-25.6-44.4-52.96 0-26.56 14.72-51.28 43.84-51.28 11.68 0 23.12 4.96 29.44 14.72h.16V186.4h27.2v136.64h-25.84zm-23.76-68.48c-17.76 0-23.92 15.28-23.92 31.6 0 15.52 7.04 31.76 23.92 31.76 18 0 23.36-15.68 23.36-31.92 0-16.08-5.76-31.36-23.36-31.36zm150.08 81.04h-25.84V309.2H448c-6.88 11.12-18.72 16.48-30.24 16.48-28.88 0-36.16-16.24-36.16-40.72v-60.88h27.2v55.84c0 16.24 4.8 24.32 17.44 24.32 14.72 0 21.04-8.24 21.04-28.32v-51.84h27.2v98.88zm7.6-29.44h30v29.44h-30z"/></svg>