<svg xmlns="http://www.w3.org/2000/svg" viewBox="0 0 512 512"><!--! Font Awesome Free 7.0.1 by @fontawesome - https://fontawesome.com License - https://fontawesome.com/license/free (Icons: CC BY 4.0, Fonts: SIL OFL 1.1, Code: MIT License) Copyright 2025 Fonticons, Inc.--><path fill="currentColor" d="M502.514 405.371H469.03c-1.715 15.429-12 35.2-37.715 35.2-23.428 0-40.343-16.228-56.571-40.914 50.514-39.086 85.371-100 85.371-174.857C460.23 90.514 349.714 0 233.371 0 119.43 0 7.43 91.086 7.43 224.8c0 153.257 150.057 253.257 284.571 216 22.514 38.4 52.229 71.2 108.8 71.2 93.486 0 103.771-86.057 101.714-106.629m-164-65.714C316.23 306.286 288.571 280 233.943 280c-34.857 0-62.057 11.429-78.857 26.057l13.943 27.772c7.085-3.429 14.857-4.572 22.628-4.572 40.572 0 61.372 35.2 79.086 70.057-11.429 3.429-23.657 4.8-37.372 4.8-85.714 0-122.857-60.571-122.857-179.085 0-119.315 37.143-180.458 122.857-180.458 87.086 0 124.229 61.143 124.229 180.229.114 47.771-6.171 86.4-19.086 114.857"/></svg>