<svg xmlns="http://www.w3.org/2000/svg" viewBox="0 0 512 512"><!--! Font Awesome Free 7.0.1 by @fontawesome - https://fontawesome.com License - https://fontawesome.com/license/free (Icons: CC BY 4.0, Fonts: SIL OFL 1.1, Code: MIT License) Copyright 2025 Fonticons, Inc.--><path fill="currentColor" d="M0 0v512h512V0zm278.629 399.314c0 49.829-29.258 72.572-71.886 72.572-38.514 0-60.8-19.886-72.229-44l39.2-23.657c7.543 13.371 14.4 24.685 30.972 24.685 15.771 0 25.828-6.171 25.828-30.285V235.086h48.115zm113.828 72.572c-44.686 0-73.6-21.257-87.657-49.143l39.2-22.629c10.286 16.8 23.771 29.257 47.429 29.257 19.885 0 32.685-9.942 32.685-23.771 0-16.457-13.028-22.286-35.085-32l-12-5.143c-34.743-14.743-57.715-33.371-57.715-72.571 0-36.115 27.543-63.543 70.4-63.543 30.629 0 52.572 10.628 68.343 38.514l-37.486 24c-8.228-14.743-17.142-20.571-30.971-20.571-14.057 0-22.971 8.914-22.971 20.571 0 14.4 8.914 20.229 29.6 29.257l12 5.143c40.914 17.486 63.885 35.429 63.885 75.657 0 43.2-34.057 66.972-79.657 66.972"/></svg>