<svg xmlns="http://www.w3.org/2000/svg" viewBox="0 0 512 512"><!--! Font Awesome Free 7.0.1 by @fontawesome - https://fontawesome.com License - https://fontawesome.com/license/free (Icons: CC BY 4.0, Fonts: SIL OFL 1.1, Code: MIT License) Copyright 2025 Fonticons, Inc.--><path fill="currentColor" d="M256.598 0C117.088 0 8.868 101.942 8.868 239.757c0 72.047 29.597 134.328 77.827 177.277 8.271 7.474 6.577 11.858 7.972 57.996.1 3.189.997 6.378 2.591 9.168a19.2 19.2 0 0 0 6.677 6.876c2.79 1.694 5.879 2.79 9.068 2.99 3.189.198 6.477-.3 9.466-1.595 52.715-23.12 53.413-24.913 62.381-22.521C337.513 512 503.131 414.244 503.131 239.758 503.131 101.941 396.107 0 256.598 0m148.677 184.452-72.744 115.195c-2.79 4.284-6.378 8.071-10.563 10.961s-9.068 4.783-14.05 5.78-10.264.797-15.247-.399a38.6 38.6 0 0 1-13.752-6.377l-57.896-43.348c-2.59-1.893-5.78-2.99-8.969-2.99s-6.377 1.097-8.968 2.99l-78.125 59.192c-10.464 7.872-24.116-4.584-17.04-15.645l72.744-115.195c2.79-4.285 6.377-8.072 10.563-10.962 4.185-2.89 9.068-4.783 14.05-5.78s10.264-.797 15.247.4c4.982 1.195 9.666 3.387 13.851 6.377l57.896 43.347c2.591 1.894 5.78 2.99 8.969 2.99s6.378-1.096 8.968-2.99l78.126-59.191c10.363-7.972 24.015 4.484 17.04 15.545z"/></svg>