<svg xmlns="http://www.w3.org/2000/svg" viewBox="0 0 512 512"><!--! Font Awesome Free 7.0.1 by @fontawesome - https://fontawesome.com License - https://fontawesome.com/license/free (Icons: CC BY 4.0, Fonts: SIL OFL 1.1, Code: MIT License) Copyright 2025 Fonticons, Inc.--><path fill="currentColor" d="M268.288 0C163.226 0 59.392 70.042 59.392 183.398c0 72.09 40.55 113.05 65.126 113.05 10.138 0 15.975-28.262 15.975-36.25 0-9.523-24.269-29.798-24.269-69.427 0-82.33 62.669-140.697 143.77-140.697 69.734 0 121.344 39.628 121.344 112.435 0 54.374-21.812 156.365-92.468 156.365-25.497 0-47.308-18.432-47.308-44.852 0-38.707 27.033-76.185 27.033-116.121 0-67.789-96.153-55.501-96.153 26.419 0 17.203 2.15 36.25 9.83 51.917-14.131 60.825-43.008 151.45-43.008 214.118 0 19.354 2.765 38.4 4.608 57.754 3.482 3.891 1.74 3.481 7.066 1.536 51.61-70.656 49.766-84.48 73.113-176.947 12.595 23.961 45.159 36.864 70.963 36.864 108.75 0 157.594-105.984 157.594-201.524C452.608 66.355 364.748 0 268.288 0"/></svg>