<svg xmlns="http://www.w3.org/2000/svg" viewBox="0 0 512 512"><!--! Font Awesome Free 7.0.1 by @fontawesome - https://fontawesome.com License - https://fontawesome.com/license/free (Icons: CC BY 4.0, Fonts: SIL OFL 1.1, Code: MIT License) Copyright 2025 Fonticons, Inc.--><path fill="currentColor" d="M501.056 160.187 268.238 4.975c-7.96-4.876-16.417-4.975-24.476 0L10.944 160.187c-5.97 3.98-9.65 11.043-9.65 18.207v155.212c0 7.064 3.68 14.228 9.65 18.207l232.818 155.212c7.96 4.876 16.417 4.975 24.476 0l232.818-155.212c5.97-3.98 9.65-11.043 9.65-18.207V178.394c0-7.064-3.68-14.228-9.65-18.207M277.889 64.075l171.43 114.32-76.512 51.14-94.918-63.379zm-43.778 0v102.081l-94.918 63.378-76.511-51.14zM45.071 219.286 99.893 256 45.07 292.614zm189.04 228.54-171.43-114.22 76.512-51.14 94.918 63.378zM256 307.737 178.693 256 256 204.263 333.307 256zm21.889 140.188V345.844l94.918-63.378 76.511 51.14zm189.04-155.211L412.107 256l54.822-36.714v73.328z"/></svg>