<svg xmlns="http://www.w3.org/2000/svg" viewBox="0 0 512 512"><!--! Font Awesome Free 7.0.1 by @fontawesome - https://fontawesome.com License - https://fontawesome.com/license/free (Icons: CC BY 4.0, Fonts: SIL OFL 1.1, Code: MIT License) Copyright 2025 Fonticons, Inc.--><path fill="currentColor" d="M302.207 335.172c-13.058 12.506-28.782 22.161-46.345 28.046-17.471-5.885-33.287-15.54-46.253-28.046zm40.46-183.54c18.39-15.54 40.092-26.85 64-33.287v148.23c0 201.747-301.61 200.092-301.61.276V118.253c23.817 6.345 45.61 18.023 63.909 33.471 52.23-36.781 121.839-36.69 173.7-.092m-192-53.793c59.218-55.172 151.08-55.264 210.482-.184a212 212 0 0 0-18.942 10.575c-53.977-28.046-118.805-27.954-172.782.092-5.793-3.678-12.781-7.54-18.758-10.483M68.184 77.333v63.724c-53.701 33.564-53.701 111.357.092 145.564C92.552 512 419.264 507.586 443.08 288l.276-1.563c53.977-33.38 54.161-111.908.184-145.471V77.333c-15.908.46-31.264 2.759-46.069 6.805C322.07 0 190.115 0 114.713 84.23c-14.989-4.046-30.437-6.437-46.53-6.897M266.253 315.31s33.103-.276 56.368-1.379c9.379-.46 19.402-3.678 23.448-5.977 24.184-13.885 23.356-36.046 24.092-43.586-73.104-.552-91.862-3.586-103.908 50.942m-124.598-50.85c.736 7.54-.092 29.7 24.092 43.586 4.046 2.299 13.977 5.517 23.448 5.977 23.265 1.011 56.368 1.38 56.368 1.38-12.138-54.621-30.988-51.587-103.908-50.943M297.15 377.93c-2.942-4.874-6.344-6.713-6.344-6.713-22.805 6.713-48 6.345-69.794 0 0 0-2.666 1.38-5.885 6.07-2.574 3.77-3.402 8.827-3.402 8.827 26.759 16.184 61.701 16.184 88.46 0-.092-.092-.276-3.678-3.035-8.184"/></svg>