<svg xmlns="http://www.w3.org/2000/svg" viewBox="0 0 512 512"><!--! Font Awesome Free 7.0.1 by @fontawesome - https://fontawesome.com License - https://fontawesome.com/license/free (Icons: CC BY 4.0, Fonts: SIL OFL 1.1, Code: MIT License) Copyright 2025 Fonticons, Inc.--><path fill="currentColor" d="M0 0v512h512V0zm213.714 161.029c-21.028 0-21.714 11.314-21.714 31.314v26.628c0 2.743-4 5.029-.686 5.029h77.029l-12.686 42.629H192v129.028c0 6.629-2.286 7.657 3.657 8.343l49.714 4.686v28.685H96V408l24.343-2.286c5.943-.685 7.657-2.628 7.657-9.028V269.37c0-2.628-3.314-2.628-6.629-2.628H96V224h32v-24c0-56.686 30.286-80 88.343-80 38.971 0 73.943 9.371 73.943 60.343l-57.943 6.971c.343-21.371-5.029-26.285-18.629-26.285M298.63 437.37v-28.685l23.314-2.972c5.943-.685 8.686-1.943 8.686-8.343V274.057c0-4.686-3.315-7.657-7.658-9.028l-27.657-7.315L302.971 224h91.658v173.371c0 6.629-2.972 7.315 3.314 8.343l17.943 2.972v28.685zm92.342-292 10.286 37.943-8.343 8.343-35.657-18.971-35.657 18.971-8.343-8.343 10.286-37.943-24.914-27.657 4-10.971h31.657l17.714-32h10.629l17.714 32H412l4 10.971z"/></svg>