<svg xmlns="http://www.w3.org/2000/svg" viewBox="0 0 512 512"><!--! Font Awesome Free 7.0.1 by @fontawesome - https://fontawesome.com License - https://fontawesome.com/license/free (Icons: CC BY 4.0, Fonts: SIL OFL 1.1, Code: MIT License) Copyright 2025 Fonticons, Inc.--><path fill="currentColor" d="M362.378 260.149c-2.823-.342-5.732-.684-8.555-1.112 2.909.342 5.732.77 8.555 1.112m-102.486-57.83c-22.327-43.372-83.066-124.214-139.527-164.08C66.214 0 45.597 6.588 31.995 12.748 16.34 19.847 13.516 43.886 13.516 58s7.785 116.002 12.833 133.026c16.681 56.204 76.222 75.196 131.058 69.036 2.823-.427 5.646-.77 8.555-1.197-2.823.428-5.647.855-8.555 1.197C77.078 272.04 5.732 301.297 99.32 405.408 202.234 512 240.302 382.568 259.892 316.952c19.59 65.615 42.09 190.343 158.776 88.456 87.6-88.456 24.039-133.453-56.29-145.345-2.823-.342-5.732-.684-8.555-1.112 2.909.343 5.732.77 8.555 1.112 54.836 6.074 114.291-12.917 131.058-69.036C498.484 174.003 506.268 72.202 506.268 58c0-14.2-2.823-38.24-18.478-45.254C474.274 6.673 453.571 0 399.505 38.24 342.96 78.105 282.22 158.947 259.892 202.32"/></svg>