<svg xmlns="http://www.w3.org/2000/svg" viewBox="0 0 512 512"><!--! Font Awesome Free 7.0.1 by @fontawesome - https://fontawesome.com License - https://fontawesome.com/license/free (Icons: CC BY 4.0, Fonts: SIL OFL 1.1, Code: MIT License) Copyright 2025 Fonticons, Inc.--><path fill="currentColor" d="M189.257 316.686c21.257 8.8 31.2 33.028 22.4 54.171s-33.143 31.086-54.4 22.172l-32.571-13.486c5.714 12.114 15.771 22.171 29.028 27.657 28.8 12 61.829-1.6 73.829-30.286 5.828-13.828 5.828-29.143.114-43.085-5.828-13.829-16.571-24.686-30.514-30.515-13.829-5.714-28.572-5.485-41.6-.571zM512 73.143C512 32.8 479.2 0 438.857 0H73.143C32.8 0 0 32.8 0 73.143v165.371l133.257 54.972c13.714-9.372 29.943-13.829 46.514-12.915l63.315-91.657v-1.257c0-55.086 44.914-100 100.114-100s100.114 44.914 100.114 100c0 56.229-46.743 101.372-102.4 100L250.63 352c1.828 44-33.258 78.629-75.086 78.629-36.343 0-66.857-25.943-73.714-60.229L0 328.229v110.628C0 479.2 32.8 512 73.143 512h365.714C479.2 512 512 479.2 512 438.857zM276.457 187.657c0 36.914 29.829 66.743 66.743 66.743s66.743-29.829 66.743-66.743-29.829-66.743-66.743-66.743-66.743 29.829-66.743 66.743m117.029-.114c0 27.657-22.515 50.171-50.172 50.171s-50.171-22.514-50.171-50.171 22.514-50.172 50.171-50.172 50.172 22.515 50.172 50.172"/></svg>