<svg xmlns="http://www.w3.org/2000/svg" viewBox="0 0 512 512"><!--! Font Awesome Free 7.0.1 by @fontawesome - https://fontawesome.com License - https://fontawesome.com/license/free (Icons: CC BY 4.0, Fonts: SIL OFL 1.1, Code: MIT License) Copyright 2025 Fonticons, Inc.--><path fill="currentColor" d="M512 0c-95.2 12.571-190.629 25.143-285.714 37.714C121.143 52 39.657 136.8 33.143 243.43 29.37 306.857 53.714 368.57 99.2 412.8L0 512c95.2-12.571 190.286-25.143 285.486-37.714C390.4 460 472.114 375.086 478.286 268.8c4-63.429-20.572-125.143-65.943-169.371zm-91.086 265.486c-4.8 90.857-84.571 159.085-174.628 153.714-90.857-5.371-160.8-81.143-155.772-172.571 5.143-90.515 84.915-159.2 174.857-153.715C356 98.286 425.943 174.057 420.914 265.486"/></svg>