<svg xmlns="http://www.w3.org/2000/svg" viewBox="0 0 512 512"><!--! Font Awesome Free 7.0.1 by @fontawesome - https://fontawesome.com License - https://fontawesome.com/license/free (Icons: CC BY 4.0, Fonts: SIL OFL 1.1, Code: MIT License) Copyright 2025 Fonticons, Inc.--><path fill="currentColor" d="M344.624 199.279c0-43.33-50.46-40.405-87.207-27.241-1.188 36.016-2.285 73.77-2.742 109.512.64 2.56 2.376 5.667 13.803 5.667 33.64 0 76.238-39.124 76.146-87.938m-177.797 66c.183 0 5.942-2.469 10.239-2.469 24.315 0 18.922 40.313-13.164 40.313-19.653 0-33.914-16.546-33.914-39.307 0-38.393 39.216-87.39 92.052-115.637.914-11.335 2.743-20.11 9.599-25.778 10.238-8.227 24.315-3.2 26.966 10.147 66-20.294 123.59.914 123.59 65.817 0 71.21-72.49 139.495-128.069 126.331-.091 36.017.823 68.011 2.468 91.413v.182c.183 3.108.549 11.427-4.845 17.46-8.775 9.69-30.531 9.141-33.274-20.385-3.748-40.587.183-188.4 1.28-221.675-19.654 13.712-53.476 45.98-53.476 69.382.183 2.286.366 3.657.548 4.205M.091 187.577S0 221.766 35.194 221.766h27.423l20.477 198.548s0 40.495 40.861 40.495h264.09s40.861-.366 40.861-40.495l20.477-198.548h27.423s35.103 1.097 35.103-34.188c0 0 .091-34.188-35.103-34.188h-27.515c-6.673-23.402-27.606-67.92-109.146-67.92H314.55V68.01s-2.469-16.82-19.288-16.82H216.83s-19.288 0-19.288 16.82v17.46h-25.687s-95.983 3.84-110.152 67.92h-26.51S.092 152.293.092 187.578"/></svg>