<svg xmlns="http://www.w3.org/2000/svg" viewBox="0 0 512 512"><!--! Font Awesome Free 7.0.1 by @fontawesome - https://fontawesome.com License - https://fontawesome.com/license/free (Icons: CC BY 4.0, Fonts: SIL OFL 1.1, Code: MIT License) Copyright 2025 Fonticons, Inc.--><path fill="currentColor" d="M97.138 98.93c89.97-84.124 232.092-86.01 323.572 3.583 13.486 13.298-6.036 34.989-21.126 20.276-79.973-77.71-203.517-75.73-281.887-3.017-15.372 14.24-34.423-7.828-20.56-20.843m93.27 394.774c18.202 5.376 27.633-22.257 7.45-28.292-105.813-31.97-165.793-141.18-139.104-246.145 4.716-18.485-23.483-26.5-28.481-6.696C0 332.72 69.033 457.584 190.409 493.704m139.671-1.886C445.041 453.906 512 334.418 485.122 217.381c-4.244-18.579-32.913-13.015-28.292 7.45 22.822 101.57-34.989 205.498-135.05 238.977-19.993 6.602-9.808 33.951 8.3 28.01m-59.32-74.504.189-67.713a13.926 13.926 0 0 0-13.958-13.958c-7.733 0-13.957 6.32-13.957 13.958l-.189 67.713a13.926 13.926 0 0 0 13.958 13.958 13.926 13.926 0 0 0 13.957-13.958m66.96-253.689c1.98 85.726 4.432 124.393-80.634 124.959-87.236-.66-81.954-41.78-80.634-124.959 0-20.56-30.65-18.484-30.65 0v67.525c0 65.355 57.245 85.726 111.284 84.972 54.038.754 111.283-19.617 111.283-84.972v-67.525c0-18.484-30.65-20.56-30.65 0"/></svg>