<svg xmlns="http://www.w3.org/2000/svg" viewBox="0 0 512 512"><!--! Font Awesome Free 7.0.1 by @fontawesome - https://fontawesome.com License - https://fontawesome.com/license/free (Icons: CC BY 4.0, Fonts: SIL OFL 1.1, Code: MIT License) Copyright 2025 Fonticons, Inc.--><path fill="currentColor" d="M265.323 504.62c-60.795 0-116.443-22.24-159.466-59.048L0 460.042l40.886-100.904C26.61 327.672 18.646 292.808 18.646 256c0-137.323 110.422-248.62 246.677-248.62S512 118.678 512 256 401.578 504.62 265.323 504.62m134.701-249.3v-.68c0-71.769-50.598-122.95-137.809-122.95h-94.203v248.62h92.844c87.89 0 139.265-53.318 139.265-124.99zm-136.837 63.903h-27.582V192.777h27.582c40.497 0 67.302 23.114 67.302 62.835v.68c0 40.109-26.902 62.834-67.302 62.834z"/></svg>