<svg xmlns="http://www.w3.org/2000/svg" viewBox="0 0 512 512"><!--! Font Awesome Free 7.0.1 by @fontawesome - https://fontawesome.com License - https://fontawesome.com/license/free (Icons: CC BY 4.0, Fonts: SIL OFL 1.1, Code: MIT License) Copyright 2025 Fonticons, Inc.--><path fill="currentColor" d="M0 255.771C.114 114.514 114.629 0 256 0s256 114.629 256 256-114.514 255.886-255.886 256H58.171C26.057 512 .114 486.057 0 453.943zm391.543-72.114c0-45.371-40.686-78.286-83.657-78.286-39.886 0-75.2 30.058-80.115 68.458-.228 4.342-.457 5.714-.457 9.714-.114 24.114 0 48.914-.914 73.6 1.029 29.828 1.143 59.543 0 87.543 0 30.971-22.171 52-51.086 52s-52.343-23.086-52.343-52c.572-31.657 25.829-51.772 55.429-52.686h.229l30.057-.229v-42.628l-30.057.228c-53.829-.457-96.686 41.715-98.172 95.315 0 52.114 42.857 94.743 94.857 94.743 49.143 0 89.943-38.4 94.4-86.4l.229-61.143 37.257-.343c28.914.228 28.571-43.2-.229-42.629l-37.028.343c0-7.314.114-14.628.114-21.943.114-14.514.114-29.028-.114-43.657C270.057 164.8 288 148 307.886 148c20 0 41.028 9.943 41.028 35.657 0 3.657-.114 5.829-.343 7.2-2.171 12 5.943 23.314 17.943 25.029 12.115 1.714 23.086-6.972 24.229-18.972.686-4.8.8-9.028.8-13.257"/></svg>