<svg xmlns="http://www.w3.org/2000/svg" viewBox="0 0 512 512"><!--! Font Awesome Free 7.0.1 by @fontawesome - https://fontawesome.com License - https://fontawesome.com/license/free (Icons: CC BY 4.0, Fonts: SIL OFL 1.1, Code: MIT License) Copyright 2025 Fonticons, Inc.--><path fill="currentColor" d="M510.172 41.134c-.457-1.714-1.029-3.428-1.6-5.142-1.028-2.857-2.285-5.485-3.77-8.113-1.6-2.742-3.428-5.484-5.37-7.883-2.4-2.857-5.028-5.485-7.885-7.77-1.256-1.028-2.513-1.943-3.77-2.857-1.486-1.028-2.97-1.942-4.57-2.742-2.057-1.143-4.114-2.057-6.285-2.856-1.942-.8-3.999-1.486-6.17-1.943C466.41.686 461.726.114 457.041.114H54.845C24.565 0 0 24.566 0 54.844v402.197c0 4.685.571 9.37 1.714 13.711a54.7 54.7 0 0 0 12.569 23.195 59 59 0 0 0 3.77 3.77 54.7 54.7 0 0 0 23.195 12.57C45.59 511.428 50.274 512 54.959 512h402.196c30.28 0 54.845-24.566 54.845-54.845V54.845c-.114-4.685-.686-9.37-1.828-13.711m-34.85 415.907c0 10.055-8.226 18.281-18.281 18.281H255.943v-219.38H36.563V54.846c0-10.055 8.227-18.282 18.282-18.282h201.098v219.38h219.38z"/></svg>