<svg xmlns="http://www.w3.org/2000/svg" viewBox="0 0 512 512"><!--! Font Awesome Free 7.0.1 by @fontawesome - https://fontawesome.com License - https://fontawesome.com/license/free (Icons: CC BY 4.0, Fonts: SIL OFL 1.1, Code: MIT License) Copyright 2025 Fonticons, Inc.--><path fill="currentColor" d="M484.855 60.797H377.087c-14.742 0-27.044 11.997-27.044 26.74v40.26h-188.39v-40.26c0-14.743-12.201-26.74-27.045-26.74H26.84C11.997 60.797 0 72.794 0 87.537v336.927c0 14.742 11.997 26.739 27.044 26.739h457.912c15.047 0 27.044-11.997 27.044-26.74V87.537c-.203-14.742-12.2-26.739-27.145-26.739M148.232 222.145c37.414.101 67.61 30.398 67.507 67.812-.101 37.414-30.398 67.61-67.812 67.508s-67.61-30.4-67.508-67.813 30.4-67.61 67.813-67.507m215.434.101a67.56 67.56 0 0 1 60.798 32.839c12.708 21.249 12.81 47.784.203 69.134-12.708 21.35-35.889 34.059-60.696 33.144a67.56 67.56 0 0 1-60.797-32.839c-12.709-21.248-12.81-47.784-.203-69.134 12.708-21.35 35.888-34.059 60.695-33.144"/></svg>