<svg xmlns="http://www.w3.org/2000/svg" viewBox="0 0 512 512"><!--! Font Awesome Free 7.0.1 by @fontawesome - https://fontawesome.com License - https://fontawesome.com/license/free (Icons: CC BY 4.0, Fonts: SIL OFL 1.1, Code: MIT License) Copyright 2025 Fonticons, Inc.--><path fill="currentColor" d="M171.747 232.803c-4.426-19.601-21.261-32.563-40.309-32.563h-29.243c-5.612 0-9.88 3.556-11.303 8.615L63.308 311.68l19.523-.079c5.374 0 9.721-3.556 11.223-8.457l20.391-75.638h15.65c6.639 0 12.803 4.426 14.463 11.698 1.976 8.615-4.663 17.862-14.464 17.862h-8.14c-5.533 0-9.88 3.636-11.303 8.536l-5.058 18.81h25.292c29.402 0 46.078-28.61 40.862-51.61m-123.693 22.13h14.701c5.454 0 9.8-3.478 11.302-8.615l4.9-18.653H47.344c-18.1 0-34.697 11.145-40.467 32.484C0 286.864 20.154 311.681 46.632 311.681h9.8l5.612-20.628c.948-3.478-1.739-6.56-5.059-6.56h-8.93c-19.523 0-19.68-29.56 0-29.56m195.616-27.505H182.1l-2.766 10.591c-1.897 7.588 3.557 14.622 11.224 14.622h45.446c3.161 0 1.897 3.399 1.66 4.189l-6.798 25.134c-.316 1.106-.711 4.189-4.347 4.189h-27.584c-4.188 0-4.188-6.244 0-6.244h17.072c5.375 0 9.722-3.636 11.224-8.536l2.766-10.433h-38.254c-30.982 0-34.46 50.425-.553 50.425l45.446.158c8.852 0 16.282-5.69 18.495-14.068l11.065-40.941c3.794-15.175-7.667-29.086-22.526-29.086m262.244-27.188h-14.938c-3.873 0-7.271 2.529-8.22 6.243L454.62 311.681c16.36 0 31.457-10.907 35.488-27.267l20.945-77.614c.948-3.399-1.581-6.56-5.138-6.56M319.15 227.665v.08h-38.174L260.268 305.2c-.948 3.478 1.739 6.56 5.058 6.56h14.938c3.794 0 7.272-2.37 8.22-6.164l13.594-50.584h15.65c9.88 0 16.914 9.326 14.305 18.495l-8.378 31.614c-.948 3.399 1.502 6.56 5.059 6.56h15.096c3.636 0 7.192-2.292 8.14-6.164l6.956-26.162c7.113-26.16-12.567-51.69-39.756-51.69m77.693 58.962c-2.845 0-4.742-2.688-4.03-5.296l6.323-23.71c.71-3.083 2.924-4.743 6.164-4.743h26.003a3.18 3.18 0 0 1 3.083 4.03l-.553 2.056q-.712 2.37-3.083 2.371h-17.072c-5.532 0-9.958 3.636-11.223 8.536l-2.766 10.275h42.205c8.3 0 16.045-5.217 18.337-13.91l2.53-9.485c3.872-15.096-7.351-29.086-22.368-29.086h-37.385c-14.147 0-26.714 9.485-30.508 23.395l-8.536 31.615c-3.952 13.99 6.56 29.006 22.368 29.006h52.717c5.375 0 9.722-3.556 11.223-8.457l4.505-16.597z"/></svg>