<svg xmlns="http://www.w3.org/2000/svg" viewBox="0 0 512 512"><!--! Font Awesome Free 7.0.1 by @fontawesome - https://fontawesome.com License - https://fontawesome.com/license/free (Icons: CC BY 4.0, Fonts: SIL OFL 1.1, Code: MIT License) Copyright 2025 Fonticons, Inc.--><path fill="currentColor" d="M369.567 324.32c44.248 54.236 64.624 98.684 54.336 118.561-7.89 15.082-56.633 44.548-92.491 55.835-29.566 9.289-68.32 13.284-100.283 10.188-38.155-3.696-76.81-17.38-109.971-38.955-27.867-18.178-34.16-25.67-34.16-40.552 0-29.865 32.862-82.204 89.096-141.934 31.962-33.86 76.41-73.614 81.304-72.515 9.39 2.098 84.202 75.012 112.169 109.372M188.479 150.124c-29.665-26.868-58.032-53.837-86.299-63.326-15.182-5.094-16.28-4.794-28.666 8.09-29.166 30.365-53.438 79.608-60.23 122.258-5.393 34.16-6.092 43.748-4.195 60.429 5.594 50.44 17.28 85.3 40.453 120.758 9.489 14.583 12.086 17.28 9.29 9.889-4.196-10.988-.3-37.456 9.488-63.925 14.283-38.955 53.837-112.768 120.16-194.173m311.235 63.426c-16.88-79.907-67.42-130.148-74.512-130.148-7.292 0-24.172 6.493-35.958 13.884-23.273 14.483-40.952 31.363-64.225 52.738 42.35 53.238 102.08 139.237 122.756 202.063 6.792 20.676 9.689 41.052 7.392 52.24-1.698 8.49-1.698 8.49 1.398 4.594 6.093-7.691 19.877-31.264 25.37-43.45 7.392-16.18 14.983-40.152 18.578-58.63 4.295-22.474 3.896-70.718-.799-93.291M141.234 49.442c47.645-2.497 109.572 34.46 114.167 35.359.699.1 10.388-4.195 21.574-9.689 63.826-31.064 93.89-25.77 107.275-25.17C320.425 10.686 231.728 0 150.623 38.254c-23.372 11.087-23.971 11.886-9.389 11.187"/></svg>