<svg xmlns="http://www.w3.org/2000/svg" viewBox="0 0 512 512"><!--! Font Awesome Free 7.0.1 by @fontawesome - https://fontawesome.com License - https://fontawesome.com/license/free (Icons: CC BY 4.0, Fonts: SIL OFL 1.1, Code: MIT License) Copyright 2025 Fonticons, Inc.--><path fill="currentColor" d="M258 0c.3.2 216.557 124.476 217.057 124.676 3 1.2 3.7 3.499 3.7 6.598-.1 83.384-.1 166.868 0 250.351.1 1.2-.2 2.4-.8 3.4s-1.5 1.9-2.6 2.4C453.961 399.421 267.497 505.7 256.5 512h-3C174.216 466.309 35.243 386.624 35.143 386.525c-.6-.3-1.1-.7-1.4-1.3s-.5-1.2-.4-1.9c0-.9 0-225.856-.1-253.05-.1-1 .2-2 .7-2.9s1.3-1.6 2.2-2C59.438 112.079 245.403 6 256.3 0h1.8zm-10.398 20.396-.2-.2C182.714 57.09 117.927 93.882 53.24 130.774c0 .1.1.2.1.4l30.894 11.698c-7.699 5.999-8.299 5.999-10.598 5.1-.1 0-24.196-9.3-26.795-9.999v230.355c.9-1.4 64.087-110.878 64.087-110.978 1.6-2.8 3-1.9 9.099-1.5 1.4.1 1.5.2.8 1.4-41.193 71.286-36.393 62.987-67.487 116.877-.8 1.4-.6 1.1 1.2 1.1h186.463c1.4 0 1.7-.2 1.7-1.6v-8.898c0-1.3 2.4-.8-18.397-1-7.498-.1-14.097-3.2-21.396-12.698-7.398-9.698-14.597-19.396-21.795-29.194-2.3-3.1-3.4-2.4-16.797-2.4-1.8 0-1.8 0-1.8 1.8.3 26.195.2 25.295 1 32.694.5 4.399 2.2 4.2 9.698 4.799 3.1.3 3.9 4.1.5 4.899-1.6.4-31.594.5-33.693-.1-.5-.1-1-.5-1.3-.9s-.5-1-.4-1.6q.15-.9.6-1.5c.3-.4.9-.7 1.4-.8 3.299-.799 6.198.8 6.698-4.398 1.3-13.698 1.2-8.998 1.1-79.385 0-10.798-.4-12.597-5.399-13.597-1.2-.2-3.5-.2-4.699-.6-2.9-1-2-4.799 1.8-4.799 33.693 0 46.09-1.1 56.089 4.9 7.698 4.598 11.997 11.497 12.497 20.395.9 14.597-6.498 22.296-14.997 32.594-.2.1-.3.3-.4.5s-.1.4-.1.6 0 .4.1.6.2.4.4.5c2.6 3.199 5 6.598 7.699 9.797 27.594 33.194 24.095 30.494 41.292 33.094.9.1 1-.4 1-1.2v-10.998c0-1 .3-1.4 1.4-1.3a71.9 71.9 0 0 0 23.595-.3c1.1-.1 1.5.2 1.5 1.3 0 .1.9 26.695.9 26.795 0 1.5.699 1.6 1.899 1.6H459.36c-27.194-46.991-54.19-93.982-81.184-140.773 2.3-.7-.4 0 6.699-1.4 2-.4 2.1-.4 3.1 1.4 7.298 12.598 77.284 133.974 77.384 134.074V137.773c-1.7.5-103.28 38.693-105.78 39.692-1.099.4-1.499.2-1.899-.9-.6-1.9-1.3-3.799-2.1-5.598-.3-.8-.1-1.1.6-1.4.1 0 95.482-35.793 102.98-38.793C393.773 93.182 328.586 55.79 263.2 18.196l86.783 150.371-.3.3c-9.598-.9-10.498-1.6-11.798-3.9-1-1.699-73.486-127.674-81.984-142.171-9.098 14.697-83.584 146.171-85.383 146.271-2.9.2-5.9.1-9.199.1 28.795-49.79 57.59-99.48 86.184-148.97zm51.89 129.875c1.9-.1 3.699-.4 5.498-.8 1.7-.3 2.5.2 2.6 1.9 0 .1.1 19.096-.9 20.495s-1.9 1.2-2.6-.2c-4.998-9.698 6.2-9.698-39.092-11.997-.7 0-1 .2-1 .9 0 .1 3.7 121.976 3.7 122.076 0 .9.5 1.2 1.2 1.5 2.999 1.2 5.898 2.499 8.698 3.999 7.298 4.299 11.398 10.798 12.397 19.296 1.4 11.798-2.8 35.793-32.193 37.093-2.8.1-28.295 1.1-34.094-23.296-4.699-19.296 8.299-32.693 19.896-36.393.6-.1 1.2-.4 1.5-.9s.5-1.1.5-1.7c.1-5.598 3-107.078 3.7-121.275 0-1.1-.6-1.2-1.4-1.1-32.294.5-36.693-.3-40.193 8.498-2.4 6.199-4.099 1.3-3.999.2l3.3-17.996c.4-2.1 1.4-2.6 3.399-1.9 5.599 2.1 6.699 1.7 37.193 1.9 1.7 0 1.8-.1 1.8-1.8.7-27.495.6-22.596 1-29.594.1-.6-.1-1.2-.3-1.7s-.7-.9-1.3-1.1c-5.6-2.9-8.799-7.598-8.899-13.897-.4-14.797 17.697-21.696 27.395-11.498 6.798 7.199 5.799 18.897-2.5 24.196-.8.4-1.4 1.1-1.8 1.8-.4.699-.6 1.599-.4 2.499 0 .6-.1-4.3 1 29.994 0 .9.4 1.1 1.2 1.1.1 0 22.996-.1 34.494-.4v-.1zm-198.962-8.599c19.796-4.499 32.694-.6 52.49 1.7 2.8.3 3.7 1.2 3.6 4-.2 4.998-1.2 22.295-1.2 23.095 0 .5-.2 1-.5 1.4q-.45.6-1.2.9c-4.1 1.699-3.6-4.4-4-7.3-3.099-22.395-73.885-32.693-74.585 25.396-.3 23.895 16.997 53.59 54.09 50.89 27.194-2 18.996-20.196 24.795-20.496.4-.1.9 0 1.3.1s.8.4 1.1.7q.45.45.6 1.2c.1.5.1.9 0 1.3-1.8 10.797-3.4 18.995-3.4 19.195-1.5 9.199-86.683 22.096-93.382-42.091-2.7-25.795 10.398-53.39 40.292-60.189zm79.985 87.683h-19.496c-.6 0-1.2-.1-1.6-.4s-.8-.8-1-1.4c2.4-3.799 5.899.9 5.899-6.098-.1-25.795.2-37.993.2-40.092 0-3.4-.5-4.6-3.3-4.9-6.998-.7-3.099-3.399-1.1-3.399 11.798-.1 22.596-.2 29.995.7 8.798 1.1 16.697 12.598 7.898 22.596-2 2.2-3.999 4.399-6.098 6.698 1 1.2 6.898 8.799 17.296 19.696 2.7 2.8 6.199 3.5 9.898 3.1q.9 0 1.5-.6c.4-.4.7-.9.7-1.5.3-3.399.3 4.7.4-40.592 0-5.599-.3-6.598-3.2-6.798-3.999-.4-3.999-2.3-.7-3.4l19.097-.1c.3 0 4.499.5 1 3.4h-.2c-3.6.3-3.9 1-4 4.599-.3 43.891.1 40.192.4 42.791.1.8.3 2.2 5.1 2.1 2.499 0 3.899 3.4 0 3.4-10.399.1-20.697 0-31.095.1-10.698 0-13.497-6.2-24.195-20.797-1.6-2.2-8.298-2.4-8.198-.4.9 16.497 0 17.797 3.999 17.697 4.799-.1 4.699 3.6.8 3.5h.1zm274.946-10.098c-1.2 7.099.2 10.398-5.299 10.298-61.488-.4-47.79-.2-50.69-.3-1.2-.1-2.4-.4-3.6-.7-2.499-.6 1.5-1.2-.4-5.599-1.399-3.399-2.799-6.798-4.098-10.198-.1-.4-.4-.8-.7-1.1s-.8-.4-1.3-.4c-4.9-.2-9.698-.2-14.597.1-.3 0-.6.2-.9.3s-.5.4-.7.7c-1.6 3.6-3.1 7.3-4.499 10.998-1.3 3.2 7.898 1.3 12.198 2.2 2.999.6 4.499 3.7.7 3.7H355.18c-2.9 0-3.1-3.2-.7-3.2 1.2.1 2.4-.2 3.5-.9 1.099-.7 1.899-1.5 2.399-2.6 1.5-2.999 2.8-5.998 4.099-9.098 18.196-42.091 17.096-40.192 18.396-41.592.2-.2.4-.4.7-.6s.6-.2.8-.2.6.1.8.2.5.3.7.6c2.9 3.3 18.396 44.692 23.595 51.89 2 2.7 5.699 2 6.399 2 3.6.1 3.999-1.1 4.099-4.3.1-1.899.1 1.2.1-41.191 0-4.5-2.4-3.7-5.599-4.3-.3 0-2.6-.6-.1-3.099.2-.2-.9-.2 21.696-.2 2.3 0 5.299 2.8-1.2 3.4-.4 0-.7 0-1.1.2s-.6.3-.9.6-.4.6-.6.9-.2.7-.1 1.1c-.1 1.599-.2 38.891.3 41.191.2.7.6 1.4 1.2 1.8s1.3.7 2.1.6c13.297.4 14.897.4 15.997-3.4 1.7-5.799 4.099-2.5 3.699-.2v.1zm-104.68 64.288c-4.199 0-4.399-3.4-.6-3.4 35.894-.2 28.095.4 37.193-.6 1.7-.2 2.4.2 2.3 1.9-.3 3.4-.6 6.799-1 10.198-.2 2.2-3.2 2.6-3.4-.2-.4-5.299-2.199-4.499-15.596-5.099-1.6-.1-1.6 0-1.6 1.5v16.097c0 1.7 0 1.6 1.6 1.5 3.1-.2 10.298.3 15.697-1.5.5-.2 3.3-1.8 3.1 1.8 0 .2-.8 10.397-1.2 11.397-.5 1.3-1.9 1.5-2.6.3-1.2-2 0-5.099-3.7-5.299-15.396-.9-12.897-2.5-12.897 5.999 0 12.297-.8 16.097 3.9 16.197 16.596.5 14.397 0 16.396-5.7.8-2.399 3.5-1.799 3.2.6l-1.2 9.599c0 .4-.2 2.4-4.7 2.4-37.192-.1-34.493-.2-35.192-.3-2.7-.5-2.2-3 .2-3.4 1.1-.2 3.999.5 4.199-2.6 2.4-56.188-.1-51.29-3.9-51.29zm-.4-109.479c2.5.6 3.1 1.8 3 4.6-.3 5.298-.3 8.997-.6 9.697-.7 2.2-3.1 2.1-3.3-.3-.4-4.799-2.999-7.798-7.598-9.098-26.295-7.698-32.793 15.497-27.194 30.194 5.898 15.397 21.995 15.897 28.894 13.797 5.899-1.9 5.899-6.498 6.899-7.598 1.2-1.3 2.2-1.8 3.099 1.1 0 .1.6 11.897-5.999 12.697-1.6.2-19.396 3.7-32.694-3.4-20.995-11.197-16.696-35.492-6.898-45.29 13.997-14.097 39.892-7.099 42.292-6.499zm-28.394 105.98c3.3 0 3.7 2.999.2 3.399-2.6.3-4.999-.4-4.999 5.499 0 2-.2 28.994.4 41.391.1 2.3 1.2 3.5 3.4 3.7 21.995 1.2 14.996-1.7 18.796-6.299 1.8-2.2 2.8.8 2.8 1.1.299 13.597-4 12.397-5.2 12.397l-38.192-.2c-1.9-.2-2.1-2.999-.4-3.399 2-.5 4.899.4 5.099-2.8 1-15.896.6-44.59.3-47.79-.3-3.8-2.8-3.3-5.7-3.7-2.499-.4-1.999-3.199.3-3.199h23.096zm-31.594-57.79c.1 4.1 2.9 3.5 6 3.6 2.599.1 2.499 3.4-.1 3.4-6.5 0-13.698 0-21.597-.1-3.799 0-3.399-3.4 0-3.4 4.5 0 3.2 1.6 3.4-45.491 0-5.1-3.3-3.5-4.7-4.2-2.599-1.2-1.4-3.099.4-3.199 1.3 0 20.197-.4 21.196.2s1.9 1.6-.4 2.9c-1 .5-3.899-.3-4.199 2.5 0 .2-.8 1.599-.1 43.79zM253.5 496.504c.5.3 1 .5 1.6.5s1.1-.2 1.6-.5c16.997-9.798 181.964-103.58 197.361-112.478-.1-.4 11.298-.2-181.464-.3-1.2 0-1.6.4-1.5 1.6 0 .1 1.3 44.491 1.2 50.39-.1 2.6-.6 5.199-1.4 7.698-.6 1.8.4-.5-13.497 32.194-.7 1.7-1 2.2-2-.1-4.2-10.298-8.298-20.696-12.597-30.994-1.5-3.4-2.2-7.098-2-10.798.2-2.5.8-16.097 1.5-47.99 0-1.9 0-2-2-2H57.34c2.6 1.6 178.265 102.58 195.962 112.778h.1zM162.618 307.84c0 2.4.4 2.8 2.8 3 11.497 1.2 20.996 3.699 25.595-7.3 5.999-14.496 2.7-34.393-12.498-38.792-2-.6-15.997-2.8-15.897 1.5zm105.78-14.997c0 2.1 1.1 38.692 1.1 39.092.3 9.898-25.596 5.799-25.196-2.6.1-1.999 1.4-37.392 1.1-39.392-14.097 7.399-14.397 40.193 6.399 48.79 3.999 1.7 8.398 1.9 12.497.6s7.599-3.998 9.898-7.698c4.9-7.798 6.8-29.494-5.398-38.992-.1.1-.2.1-.4.1zM256.1 94.88c-9.798 0-9.698 14.798-.1 14.898s10.098-14.898.1-14.898m-80.184 103.68c0 1.8.4 2.4 2.2 2.6 13.597 1.4 12.497-10.998 12.197-13.398-1.7-11.197-14.397-10.198-14.397-7.798zm212.258 6.399-6.099-15.797c-2.2 5.499-4.199 10.598-6.198 15.797z"/></svg>