<svg xmlns="http://www.w3.org/2000/svg" viewBox="0 0 512 512"><!--! Font Awesome Free 7.0.1 by @fontawesome - https://fontawesome.com License - https://fontawesome.com/license/free (Icons: CC BY 4.0, Fonts: SIL OFL 1.1, Code: MIT License) Copyright 2025 Fonticons, Inc.--><path fill="currentColor" d="M87.105 404.21C3.526 311.369 11.315 168 104.685 84c93.368-84 236.63-76.842 320.21 16s75.79 236.21-17.474 320.105c-19.684 17.79 67.368 45.369 44.21 55.053-86.42 36-267.263 36.842-364.42-71.053zm224.527-222.736 40.526-43.053c-10.105-9.368-33.684-28.21-80.21-29.053-55.053-.947-100.948 29.79-101.895 84.21-.21 11.896.315 38.633 30.947 57.685 36.316 22.526 91.053 22.632 90.526 55.053-.42 22.42-27.79 27.158-40.631 26.947-3.158 0-31.79-.526-50.106-25.895l-42.105 44.843c29.684 28.42 62.105 34.315 87.895 34.736 10.737.21 101.474.316 102.947-85.263.316-16.631-2.21-41.79-30.42-59.579-36.211-22.737-89.474-20.42-88.843-52.316.421-24.526 32.632-26.736 39.474-26.631.42 0 28 .316 41.684 18.316z"/></svg>