<svg xmlns="http://www.w3.org/2000/svg" viewBox="0 0 512 512"><!--! Font Awesome Free 7.0.1 by @fontawesome - https://fontawesome.com License - https://fontawesome.com/license/free (Icons: CC BY 4.0, Fonts: SIL OFL 1.1, Code: MIT License) Copyright 2025 Fonticons, Inc.--><path fill="currentColor" d="M253.307 123.163c.998.499 1.795 1.696 2.992 1.696 1.097 0 2.793-.4 2.892-1.496.2-1.397-1.895-2.294-3.191-2.892-1.695-.699-3.89-.998-5.485-.1-.399.2-.798.698-.598 1.097.299 1.296 2.293 1.097 3.39 1.695m-21.84 1.696c1.197 0 1.995-1.197 2.992-1.696 1.097-.598 3.091-.399 3.49-1.595.2-.4-.2-.898-.598-1.097-1.596-.898-3.79-.599-5.485.1-1.296.598-3.39 1.495-3.191 2.891.1.998 1.795 1.496 2.792 1.397m220.397 278.04c-3.59-3.99-5.285-11.569-7.18-19.647-1.795-8.078-3.89-16.754-10.471-22.339-1.297-1.097-2.593-2.094-3.99-2.892-1.296-.798-2.692-1.496-4.088-1.995 9.175-27.225 5.585-54.35-3.69-78.884-11.369-30.018-31.215-56.246-46.373-74.197-17.054-21.441-33.608-41.786-33.31-71.804C343.263 85.367 347.85.3 267.17.2 165.05 0 190.58 103.317 189.482 135.031c-1.695 23.336-6.383 41.686-22.439 64.523-18.848 22.439-45.376 58.64-57.941 96.437-5.984 17.85-8.776 36.001-6.183 53.154-6.483 5.784-11.37 14.66-16.555 20.145-4.189 4.288-10.272 5.884-16.954 8.278-6.682 2.393-13.962 5.983-18.45 14.46-2.094 3.89-2.792 8.078-2.792 12.366 0 3.89.599 7.879 1.197 11.768 1.197 8.078 2.493 15.657.798 20.743-5.186 14.361-5.884 24.334-2.194 31.614 3.79 7.28 11.369 10.471 20.045 12.266 17.253 3.59 40.689 2.693 59.138 12.466 19.746 10.372 39.792 14.062 55.748 10.372 11.568-2.593 21.042-9.574 25.83-20.145 12.465-.1 26.228-5.385 48.168-6.582 14.859-1.197 33.508 5.286 54.95 4.089.598 2.294 1.395 4.587 2.492 6.682v.1c8.278 16.654 23.736 24.233 40.19 22.937 16.555-1.297 34.008-10.97 48.169-27.824 13.563-16.356 35.902-23.137 50.761-32.113 7.38-4.487 13.364-10.072 13.862-18.25.4-8.177-4.388-17.252-15.458-29.619M256.2 87.26c9.774-22.14 34.107-21.74 43.88-.399 6.483 14.162 3.59 30.816-4.288 40.29-1.595-.798-5.884-2.593-12.565-4.886 1.097-1.197 3.091-2.693 3.889-4.588 4.787-11.768-.2-26.926-9.075-27.225-7.28-.499-13.862 10.77-11.768 22.937-4.089-1.995-9.374-3.49-12.965-4.388-.997-6.881-.299-14.56 2.892-21.74M215.61 75.793c10.073 0 20.744 14.161 19.048 33.408-3.49.998-7.08 2.494-10.172 4.588 1.197-8.876-3.29-20.045-9.574-19.547-8.377.698-9.773 21.142-1.795 28.024.998.797 1.895-.2-5.884 5.485-15.557-14.56-10.471-51.958 8.377-51.958m-13.562 60.534c6.183-4.587 13.562-9.973 14.061-10.471 4.687-4.388 13.463-14.161 27.824-14.161 7.08 0 15.557 2.293 25.83 8.875 6.282 4.09 11.269 4.388 22.538 9.275 8.377 3.49 13.662 9.674 10.471 18.15-2.593 7.081-10.97 14.361-22.638 18.051-11.07 3.59-19.746 15.956-38.096 14.86-3.89-.2-6.98-.998-9.574-2.095-7.978-3.49-12.166-10.372-19.945-14.959-8.577-4.787-13.164-10.372-14.66-15.258q-2.094-7.33 4.189-12.267m3.29 333.09c-2.692 35.004-43.78 34.306-75.094 17.95-29.819-15.757-68.413-6.482-76.292-21.84-2.393-4.687-2.393-12.665 2.593-26.328v-.2c2.394-7.579.599-15.956-.598-23.834-1.197-7.779-1.795-14.96.898-19.946 3.49-6.681 8.476-9.075 14.76-11.269 10.271-3.69 11.767-3.39 19.546-9.873 5.485-5.684 9.474-12.865 14.26-17.95 5.087-5.486 9.973-8.079 17.652-6.882 8.078 1.197 15.06 6.781 21.84 15.956l19.547 35.503c9.474 19.846 42.983 48.268 40.889 68.712m-1.396-25.83c-4.088-6.582-9.573-13.563-14.36-19.546 7.08 0 14.16-2.194 16.654-8.876 2.294-6.183 0-14.86-7.38-24.832-13.463-18.15-38.195-32.412-38.195-32.412-13.463-8.377-21.043-18.649-24.533-29.818s-2.992-23.237-.3-35.104c5.186-22.838 18.55-45.077 27.126-59.039 2.294-1.695.798 3.192-8.676 20.744-8.477 16.056-24.333 53.154-2.593 82.175.599-20.644 5.485-41.686 13.763-61.332 11.967-27.326 37.198-74.696 39.192-112.393 1.097.798 4.588 3.191 6.184 4.089 4.587 2.692 8.077 6.681 12.565 10.272 12.366 9.972 28.422 9.175 42.285 1.196 6.183-3.49 11.169-7.48 15.856-8.975 9.873-3.092 17.752-8.577 22.24-14.96 7.678 30.318 25.63 74.098 37.098 95.44 6.083 11.369 18.25 35.403 23.536 64.424 3.29-.1 6.98.399 10.87 1.396 13.762-35.603-11.668-73.998-23.237-84.669-4.687-4.587-4.886-6.582-2.593-6.482 12.566 11.17 29.12 33.608 35.105 58.84 2.792 11.568 3.29 23.635.398 35.602 16.356 6.781 35.803 17.851 30.617 34.705-2.194-.1-3.192 0-4.189 0 3.191-10.073-3.89-17.552-22.738-26.029-19.546-8.576-35.902-8.576-38.195 12.466-12.067 4.189-18.25 14.66-21.342 27.226-2.792 11.169-3.59 24.632-4.388 39.79-.499 7.68-3.59 17.952-6.781 28.922-32.013 22.837-76.491 32.81-113.989 7.18m256.698-11.469c-.897 16.755-41.087 19.846-63.027 46.374-13.164 15.657-29.32 24.333-43.481 25.43s-26.428-4.787-33.608-19.247c-4.688-11.07-2.394-23.037 1.097-36.201 3.69-14.162 9.174-28.722 9.873-40.49.797-15.158 1.695-28.422 4.188-38.594 2.593-10.272 6.582-17.153 13.663-21.043.299-.199.698-.299.997-.498.798 13.164 7.28 26.527 18.749 29.42 12.565 3.29 30.616-7.48 38.295-16.256 8.976-.3 15.657-.898 22.538 5.086 9.873 8.477 7.081 30.217 17.054 41.487 10.57 11.568 13.962 19.446 13.662 24.532M205.937 148.494c1.994 1.895 4.687 4.488 7.978 7.08 6.582 5.186 15.757 10.572 27.226 10.572 11.568 0 22.438-5.884 31.713-10.77 4.887-2.594 10.87-6.982 14.76-10.372 3.889-3.391 5.883-6.283 3.091-6.582-2.792-.3-2.593 2.592-5.984 5.086-4.388 3.19-9.673 7.38-13.862 9.773-7.38 4.188-19.446 10.172-29.818 10.172s-18.65-4.787-24.832-9.673c-3.092-2.494-5.685-4.987-7.68-6.882-1.495-1.396-1.894-4.587-4.287-4.886-1.397-.1-1.796 3.69 1.695 6.482"/></svg>