<svg xmlns="http://www.w3.org/2000/svg" viewBox="0 0 512 512"><!--! Font Awesome Free 7.0.1 by @fontawesome - https://fontawesome.com License - https://fontawesome.com/license/free (Icons: CC BY 4.0, Fonts: SIL OFL 1.1, Code: MIT License) Copyright 2025 Fonticons, Inc.--><path fill="currentColor" d="M256.057 125.066c-72.361-.228-131.162 58.345-131.39 130.706-.228 72.362 58.345 131.162 130.706 131.39 72.362.228 131.162-58.345 131.39-130.706.228-72.362-58.345-131.162-130.706-131.39m-.684 46.037c46.95-.227 85.125 37.72 85.353 84.67.227 46.949-37.72 85.124-84.669 85.351-46.95.228-85.124-37.719-85.352-84.668s37.719-85.125 84.668-85.353m106.434-51.393c0-16.866 13.675-30.54 30.54-30.54 16.866 0 30.54 13.674 30.54 30.54 0 16.865-13.674 30.54-30.54 30.54-16.865 0-30.54-13.675-30.54-30.54m147.8 30.996c-1.937-40.91-11.282-77.148-41.252-107.004C438.5 13.846 402.261 4.502 361.351 2.45 319.188.057 192.811.057 150.65 2.45 109.853 4.387 73.615 13.732 43.645 43.588s-39.2 66.094-41.252 107.004C0 192.755 0 319.132 2.393 361.294c1.937 40.91 11.282 77.148 41.252 107.004s66.094 39.2 107.004 41.252c42.163 2.393 168.54 2.393 210.702 0 40.91-1.937 77.148-11.282 107.004-41.252 29.856-29.856 39.2-66.094 41.252-107.004 2.393-42.163 2.393-168.425 0-210.588m-54.47 255.829c-8.89 22.335-26.096 39.542-48.545 48.544-33.617 13.333-113.386 10.256-150.535 10.256s-117.032 2.963-150.535-10.256c-22.335-8.888-39.542-26.095-48.544-48.544C43.645 372.918 46.722 293.149 46.722 256s-2.963-117.032 10.256-150.535c8.888-22.335 26.095-39.542 48.544-48.544 33.617-13.333 113.386-10.256 150.535-10.256s117.032-2.963 150.535 10.256c22.335 8.888 39.542 26.095 48.544 48.544C468.47 139.082 465.392 218.851 465.392 256s3.077 117.032-10.256 150.535"/></svg>