<svg xmlns="http://www.w3.org/2000/svg" viewBox="0 0 512 512"><!--! Font Awesome Free 7.0.1 by @fontawesome - https://fontawesome.com License - https://fontawesome.com/license/free (Icons: CC BY 4.0, Fonts: SIL OFL 1.1, Code: MIT License) Copyright 2025 Fonticons, Inc.--><path fill="currentColor" d="M493.79 137.282c-6.807-19.713-4.508-6.365-11.845-32.619-1.415-5.746-3.183-12.818-5.48-17.68-3.89-7.69-4.067-6.63-4.067-8.397 0-4.685 27.138-40.045 16.795-41.459-5.038-.53-10.784 10.254-18.21 15.028-7.602 3.712-7.071 4.42-9.105 4.42-2.298 0-5.038-2.652-5.48-4.42-1.768-5.039 1.68-22.895-3.183-22.895-3.182 0-10.872 21.922-15.027 22.806-4.597 1.15-24.663-10.077-66.387 15.912-22.365 11.668-76.818 57.635-76.906 57.724-5.923 4.154-17.68 4.154-31.381 14.143-39.249 26.608-96.884 8.31-97.857 7.956-97.767-23.69-113.149-13.436-140.552 10.166-18.387 15.823-20.95 32.265-21.392 34.387C0 210.387 8.309 235.05 9.635 249.194c1.592 17.06-2.386 15.646 6.807 86.894.442.884 3.624 0 4.508 1.326 0 7.426-3.359 10.696-3.624 11.492-1.326 3.978-1.326 9.282 0 14.144 2.033 7.248 7.249 32.884 7.249 41.458 0 36.95.353 38.895 2.298 43.669 3.447 8.84 11.05 8.044 15.028 10.608 2.74 3.093-.442 7.513.884 11.05.442 1.767 3.182 3.535 5.48 4.42 8.133 3.181 23.868.264 26.431-2.21 1.414-1.327.442-3.979 2.74-4.42 4.509 0 9.547-.443 12.73-2.21 4.508-2.21 3.624-5.305 1.326-9.282-.354-.708-6.188-11.757-8.663-14.144-1.857-1.768-4.509-2.652-6.365-3.978-5.127-4.331-9.105-17.15-9.105-17.238-4.066-17.149-9.105-40.928-3.624-59.05C67.8 346.52 98.652 284.2 98.74 284.11c3.625-5.745 15.028-10.165 24.133-6.187 5.304 1.68 17.06 19.447 57.812 27.315 42.343 7.69 86.1-1.768 99.182-1.768 2.476 1.768-1.68 11.491-.442 34.386 0 23.337-.353 12.11-3.624 26.431-1.945 8.575 3.006 20.509-1.326 41.459-1.237 8.663-8.751 28.906-7.248 38.364.442.884.883 1.768 1.325 3.094.442 3.978 1.326 7.514 4.067 8.84 6.453 3.183 10.608-3.094 8.663 10.166-.619 2.74-2.299 10.608 1.326 13.26 3.89 3.27 27.05 3.005 32.265.442 2.298-1.326 1.414-3.978 5.657-6.542 1.68-.795 9.99-.353 9.99-5.746.265-1.59-8.133-17.59-8.222-17.68-2.298-3.093-8.132-3.977-9.989-7.071-6.1-8.928-1.502-46.497.442-52.508 2.652-9.724 4.95-19.801 7.691-28.641 9.724-37.57 9.105-44.73 14.586-60.376.707-1.591 5.657-20.42 9.105-26.43 8.22-15.028 19.182-28.642 29.613-41.901 15.911-20.244 30.055-41.459 45.967-61.702 5.392-6.188 7.248-12.11 15.911-7.072 9.547 5.039 19.094 6.188 28.2 15.028 12.905 11.315 9.016 16.088 10.43 20.243 1.326 4.42 6.807 9.282 13.171 8.398 9.194-1.768 11.492-2.21 11.846-2.21 2.298-.442 5.038-4.42 6.364-7.072 2.74-4.862 6.365-7.956 6.365-14.586 0-6.806-.354-2.475-18.21-46.762"/></svg>