<svg xmlns="http://www.w3.org/2000/svg" viewBox="0 0 512 512"><!--! Font Awesome Free 7.0.1 by @fontawesome - https://fontawesome.com License - https://fontawesome.com/license/free (Icons: CC BY 4.0, Fonts: SIL OFL 1.1, Code: MIT License) Copyright 2025 Fonticons, Inc.--><path fill="currentColor" d="M253.04 413.16c-1.68 0-3.36-.48-4.88-1.28l-15.36-9.12c-2.32-1.28-1.2-1.76-.4-2 3.04-1.04 3.68-1.28 6.96-3.2.32-.16.8-.08 1.12.08l11.84 7.04c.4.24 1.04.24 1.44 0L300 377.96c.4-.24.72-.72.72-1.28v-53.36c0-.56-.24-1.04-.72-1.28l-46.24-26.64c-.4-.24-.96-.24-1.44 0l-46.24 26.64c-.48.24-.72.8-.72 1.28v53.36c0 .48.32.96.72 1.2l12.64 7.28c6.88 3.44 11.12-.64 11.12-4.64V327.8c0-.72.56-1.36 1.36-1.36h5.84c.72 0 1.36.56 1.36 1.36v52.72c0 9.2-4.96 14.4-13.68 14.4-2.64 0-4.8 0-10.64-2.88l-12.16-6.96c-2.96-1.76-4.88-4.96-4.88-8.4v-53.36c0-3.44 1.84-6.72 4.88-8.4l46.24-26.72c2.96-1.68 6.8-1.68 9.68 0l46.24 26.72c2.96 1.76 4.88 4.96 4.88 8.4v53.36c0 3.44-1.84 6.72-4.88 8.4l-46.24 26.72c-1.36.88-3.04 1.36-4.8 1.36m37.36-52.64c0-10-6.72-12.64-20.96-14.56-14.4-1.92-15.84-2.88-15.84-6.24 0-2.8 1.2-6.48 11.84-6.48 9.52 0 13.04 2.08 14.48 8.48.16.64.64 1.04 1.28 1.04h6c.4 0 .72-.16.96-.4.24-.32.4-.64.32-1.04-.96-11.04-8.24-16.16-23.04-16.16-13.2 0-21.04 5.6-21.04 14.88 0 10.16 7.84 12.88 20.48 14.16 15.12 1.52 16.32 3.68 16.32 6.64 0 5.2-4.16 7.36-13.92 7.36-12.24 0-14.96-3.04-15.84-9.12-.08-.64-.64-1.12-1.36-1.12h-6c-.72 0-1.36.56-1.36 1.36 0 7.76 4.24 17.04 24.48 17.04 14.8 0 23.2-5.76 23.2-15.84m43.6-40.08c0 4.88-4 8.88-8.88 8.88s-8.88-4-8.88-8.88c0-5.04 4.16-8.88 8.88-8.88 4.8-.08 8.88 3.84 8.88 8.88m-1.44 0c0-4.16-3.36-7.44-7.52-7.44-4.08 0-7.44 3.28-7.44 7.44s3.36 7.52 7.44 7.52c4.16-.08 7.52-3.44 7.52-7.52m-3.6 4.96h-2.08c-.08-.48-.4-3.04-.4-3.12-.16-.56-.32-.88-1.04-.88h-1.76v4h-1.92v-10h3.44c1.2 0 3.52 0 3.52 2.64 0 1.84-1.2 2.24-1.92 2.48 1.36.08 1.44.96 1.68 2.24.08.8.24 2.16.48 2.64m-2.24-7.04c0-1.36-.96-1.36-1.44-1.36h-1.6v2.8h1.52c1.28 0 1.52-.88 1.52-1.44m-216.88-114c0-2.16-1.12-4.08-2.96-5.12L57.84 171c-.8-.48-1.76-.72-2.72-.8h-.48c-.96 0-1.84.32-2.72.8L2.96 199.24C1.12 200.28 0 202.28 0 204.36l.08 76c0 1.04.56 2 1.44 2.56s2 .56 2.96 0L33.6 266.2c1.84-1.12 2.96-3.04 2.96-5.12v-35.52c0-2.08 1.12-4.08 2.96-5.12l12.4-7.12c.96-.56 1.92-.8 2.96-.8s2.08.24 2.96.8l12.4 7.12c1.84 1.04 2.96 3.04 2.96 5.12v35.52c0 2.08 1.12 4.08 2.96 5.12l29.12 16.72c.88.56 2.08.56 2.96 0 .88-.48 1.44-1.52 1.44-2.56zM378 121.4v141.12c0 2.08-1.12 4.08-2.96 5.12L326 295.96a6 6 0 0 1-5.92 0l-49.04-28.32c-1.84-1.04-2.96-3.04-2.96-5.12v-56.64c0-2.08 1.12-4.08 2.96-5.12l49.04-28.32a6 6 0 0 1 5.92 0l12.24 7.04c1.36.8 3.12-.24 3.12-1.76v-75.2c0-2.24 2.4-3.68 4.4-2.56l29.2 16.32c1.84.96 3.04 2.96 3.04 5.12m-36.8 103.12c0-.56-.32-1.04-.72-1.28l-16.8-9.76c-.48-.24-1.04-.24-1.52 0l-16.8 9.76c-.48.24-.72.72-.72 1.28v19.44c0 .56.32 1.04.72 1.28l16.8 9.68c.48.24 1.04.24 1.44 0l16.8-9.68c.48-.24.72-.72.72-1.28v-19.44zm167.84-.56c1.84-1.04 2.96-3.04 2.96-5.12v-13.68c0-2.08-1.12-4.08-2.96-5.12l-48.72-28.32a6 6 0 0 0-5.92 0l-49.04 28.32c-1.84 1.04-2.96 3.04-2.96 5.12v56.64c0 2.16 1.12 4.08 2.96 5.12l48.72 27.76c1.76 1.04 4 1.04 5.84 0l29.44-16.4c2-1.12 2-4 0-5.12L440 244.84c-.96-.56-1.52-1.52-1.52-2.56v-17.76c0-1.04.56-2 1.52-2.56l15.36-8.88c.88-.56 2.08-.56 2.96 0l15.36 8.88c.88.56 1.52 1.52 1.52 2.56v13.92c0 2.24 2.48 3.68 4.48 2.56zm-61.84 2.8c-.32.24-.56.56-.56.96v10.88c0 .4.24.8.56.96l9.44 5.44c.32.24.8.24 1.12 0l9.44-5.44c.32-.24.56-.56.56-.96v-10.88c0-.4-.24-.8-.56-.96l-9.44-5.44a.96.96 0 0 0-1.12 0zm-203.36 34.8v-56.32c0-2.08-1.28-4.08-3.12-5.12l-48.88-28.16c-1.68-.96-4-1.12-5.92 0l-48.88 28.16c-1.84 1.04-3.12 2.96-3.12 5.12v56.32c0 2.24 1.52 4.16 3.2 5.12l48.96 28.16a5.81 5.81 0 0 0 5.92 0l48.8-28.16c1.44-.8 2.48-2.16 2.88-3.76.08-.4.16-.88.16-1.36m-59.44-99.92-.64.4h.88zm60.96 104.16-.32-.56v.72z"/></svg>