<svg xmlns="http://www.w3.org/2000/svg" viewBox="0 0 512 512"><!--! Font Awesome Free 7.0.1 by @fontawesome - https://fontawesome.com License - https://fontawesome.com/license/free (Icons: CC BY 4.0, Fonts: SIL OFL 1.1, Code: MIT License) Copyright 2025 Fonticons, Inc.--><path fill="currentColor" d="M490.157 226.355c0-16.402 2.56-26.084 2.56-43.686 0-27.365-10.082-36.166-32.405-36.166h-16.403v19.363h5.041c11.362 0 13.842 3.76 13.842 17.683 0 13.042-1.28 26.084-1.28 41.206 0 19.363 6.321 26.884 18.883 29.845v1.28c-12.642 2.96-18.883 10.482-18.883 29.845 0 15.122 1.28 27.364 1.28 41.206 0 14.322-2.96 18.083-13.842 18.083v.4h-5.04v20.163h16.402c22.243 0 32.405-8.801 32.405-36.166 0-18.082-2.56-27.364-2.56-43.686 0-8.802 5.44-18.083 21.843-18.883v-21.844c-16.403-.56-21.843-9.841-21.843-18.643m-84.494 25.604c-12.642-5.04-24.403-8-24.403-16.402 0-6.321 5.04-10.082 14.322-10.082s17.683 3.76 26.884 10.482l16.803-22.244c-10.482-8-24.804-16.402-44.167-16.402-28.565 0-47.928 16.402-47.928 39.526 0 20.563 18.083 31.125 33.205 36.966 13.042 5.04 25.684 9.281 25.684 17.683 0 6.32-5.04 10.481-16.402 10.481-10.482 0-21.043-4.24-32.405-13.042l-16.803 24.404c12.642 10.482 31.925 17.683 47.928 17.683 33.605 0 51.688-17.683 51.688-40.807 0-23.123-18.003-32.805-34.406-38.246M118.5 299.487c-2.96 0-6.722-2.56-6.722-10.482V146.423H52.088c-22.723 0-32.805 8.801-32.805 36.166 0 18.082 2.56 28.164 2.56 43.686 0 8.802-5.44 18.083-21.843 18.883v21.844c16.403.4 21.843 9.681 21.843 18.483 0 15.522-2.56 24.803-2.56 42.886 0 27.365 10.082 36.166 32.405 36.166h16.403v-19.363H63.05c-10.482 0-13.842-4.24-13.842-18.083s1.28-25.684 1.28-41.206c0-19.363-6.321-26.885-18.883-29.845v-1.28c12.642-2.96 18.883-10.482 18.883-29.845 0-15.122-1.28-27.364-1.28-41.206s2.96-17.683 13.842-17.683h11.282v120.659c0 25.684 8.801 42.486 34.485 42.486 8.001 0 14.322-1.28 18.883-2.96l-4.24-27.364c-2.481.64-3.681.64-4.961.64m185.388-47.528c-13.042-5.04-24.803-8-24.803-16.402 0-6.321 5.04-10.082 14.322-10.082s17.683 3.76 26.884 10.482l16.803-22.244c-10.482-8-24.804-16.402-44.167-16.402-28.565 0-47.928 16.402-47.928 39.526 0 20.563 18.083 31.125 33.205 36.966 13.043 5.04 25.684 9.281 25.684 17.683 0 6.32-5.04 10.481-16.402 10.481-10.482 0-21.043-4.24-32.405-13.042l-16.403 24.404c12.642 10.482 31.925 17.683 47.928 17.683 33.605 0 51.688-17.683 51.688-40.807.08-23.123-18.003-32.805-34.406-38.246m-124.019-55.048c-30.725 0-60.09 25.684-59.29 66.01 0 41.607 27.365 66.01 63.45 66.01 15.123 0 31.926-5.44 44.968-14.322l-12.642-22.243c-9.282 5.44-18.083 8-27.364 8-16.803 0-29.845-8-33.206-27.363h76.172c.4-2.96 1.28-8.802 1.28-15.523.48-34.085-18.082-60.57-53.368-60.57m-24.004 52.968c2.56-16.803 12.642-24.804 24.404-24.804 15.123 0 21.043 10.482 21.043 24.804z"/></svg>