<svg xmlns="http://www.w3.org/2000/svg" viewBox="0 0 512 512"><!--! Font Awesome Free 7.0.1 by @fontawesome - https://fontawesome.com License - https://fontawesome.com/license/free (Icons: CC BY 4.0, Fonts: SIL OFL 1.1, Code: MIT License) Copyright 2025 Fonticons, Inc.--><path fill="currentColor" d="m156 299.657 67.2 26.172C233.6 283.77 252.229 256 286.057 256c56.457 0 81.6 72.686 162.743 72.686 17.829 0 41.029-3.2 63.2-15.2V384c0 70.629-57.6 128-128.343 128H0l47.771-64L0 384l47.657-64L0 256.114l47.771-64-47.771-64L47.771 64 0 0h383.657C454.4 0 512 57.486 512 128.114v58.629C501.486 228.229 482.4 256 449.143 256c-56.686 0-81.829-72.571-162.743-72.571-41.029 0-108.8 16.685-130.4 116.114z"/></svg>