<svg xmlns="http://www.w3.org/2000/svg" viewBox="0 0 512 512"><!--! Font Awesome Free 7.0.1 by @fontawesome - https://fontawesome.com License - https://fontawesome.com/license/free (Icons: CC BY 4.0, Fonts: SIL OFL 1.1, Code: MIT License) Copyright 2025 Fonticons, Inc.--><path fill="currentColor" d="M428.33 98.56c-.169-.255-.338-.508-.676-.593A408.7 408.7 0 0 0 326.387 66.58c-.338-.084-.676 0-.93.085s-.508.338-.677.677a271 271 0 0 0-12.606 25.887 376.7 376.7 0 0 0-113.702 0c-3.807-8.883-8.037-17.512-12.775-25.887a2.6 2.6 0 0 0-.677-.677c-.253-.17-.592-.17-.93-.17A408.7 408.7 0 0 0 82.824 97.883c-.254.085-.508.339-.677.593C17.68 194.75 0 288.74 8.629 381.462c0 .254.085.423.17.677.084.254.253.338.422.507 37.563 27.834 79.525 49.068 124.193 62.774.339.084.677.084.931 0 .254-.085.592-.339.761-.593 9.56-13.028 18.105-26.902 25.38-41.284.085-.17.17-.423.17-.677s0-.423-.085-.677-.17-.423-.338-.508c-.17-.084-.339-.253-.593-.338-13.366-5.16-26.395-11.336-38.831-18.527-.254-.17-.423-.339-.592-.508-.17-.17-.254-.508-.254-.761 0-.254 0-.508.17-.762.168-.254.253-.423.507-.592a186 186 0 0 0 7.698-6.007c.254-.169.508-.338.762-.338s.592 0 .846.085c81.385 37.139 169.538 37.139 249.993 0 .254-.085.592-.17.846-.17s.592.17.762.339c2.453 2.03 5.076 4.145 7.698 6.091.17.17.339.338.508.592s.169.508.169.762q0 .38-.254.761-.254.38-.507.508c-12.437 7.275-25.38 13.451-38.832 18.442-.17.085-.423.17-.592.339-.17.169-.254.338-.338.592s-.085.423-.085.677.085.423.17.677a327.4 327.4 0 0 0 25.38 41.284c.168.254.507.508.76.593.254.084.677.084.931 0 44.754-13.706 86.8-34.94 124.447-62.774.17-.169.338-.338.423-.507.085-.17.17-.423.17-.677C512 274.189 484.25 181.044 428.076 98.475zM172.838 325.033c-24.534 0-44.669-22.504-44.669-50.084s19.797-50.083 44.67-50.083c25.125 0 45.09 22.673 44.668 50.083 0 27.665-19.796 50.084-44.669 50.084m165.309 0c-24.534 0-44.67-22.504-44.67-50.084s19.797-50.083 44.67-50.083c25.126 0 45.092 22.673 44.669 50.083 0 27.665-19.628 50.084-44.67 50.084"/></svg>