<svg xmlns="http://www.w3.org/2000/svg" viewBox="0 0 512 512"><!--! Font Awesome Free 7.0.1 by @fontawesome - https://fontawesome.com License - https://fontawesome.com/license/free (Icons: CC BY 4.0, Fonts: SIL OFL 1.1, Code: MIT License) Copyright 2025 Fonticons, Inc.--><path fill="currentColor" d="M73.143 0C32.8 0 0 32.8 0 73.143v365.714C0 479.2 32.8 512 73.143 512h365.714C479.2 512 512 479.2 512 438.857V73.143C512 32.8 479.2 0 438.857 0zm5.714 194.514h76v244.343h-76zm81.943-77.371c0 24.343-19.657 44-44 44s-44-19.657-44-44 19.657-44 44-44 44 19.657 44 44m202.514 321.714V320c0-28.343-.571-64.8-39.428-64.8-39.543 0-45.6 30.857-45.6 62.743v120.914H202.4V194.514h72.8v33.372h1.029c10.171-19.2 34.971-39.429 71.885-39.429 76.8 0 91.086 50.629 91.086 116.457v133.943z"/></svg>