<svg xmlns="http://www.w3.org/2000/svg" viewBox="0 0 512 512"><!--! Font Awesome Free 7.0.1 by @fontawesome - https://fontawesome.com License - https://fontawesome.com/license/free (Icons: CC BY 4.0, Fonts: SIL OFL 1.1, Code: MIT License) Copyright 2025 Fonticons, Inc.--><path fill="currentColor" d="M312.571 166.229c0-38.515 31.2-69.715 69.715-69.715S452 127.714 452 166.23s-31.2 69.714-69.714 69.714c-38.515 0-69.715-31.2-69.715-69.714m199.429.228c0 72-58.286 130.057-129.943 130.057l-124.914 91.2c-4.572 49.143-46.286 87.772-96.572 87.772-46.285 0-85.371-32.915-94.857-76.572L0 372.514V249.886L111.086 294.8c17.257-10.514 36.8-15.2 59.428-13.143l81.143-116.228c.572-71.2 58.857-128.915 130.286-128.915C453.714 36.514 512 94.8 512 166.457M232 378.23c0-39.658-31.771-71.429-71.429-71.429q-7.713 0-15.428 1.714l29.714 12c29.143 11.657 43.429 44.572 31.657 73.715-11.657 29.142-44.8 43.428-73.943 31.428-11.657-4.571-23.428-9.486-35.085-13.943 12 22.515 35.657 37.943 63.085 37.943 39.658 0 71.429-31.771 71.429-71.428m237.143-211.772c0-48.228-39.086-87.314-87.314-87.314-48.229 0-87.315 39.086-87.315 87.314 0 48.229 39.086 87.314 87.315 87.314s87.314-39.085 87.314-87.314"/></svg>