<svg xmlns="http://www.w3.org/2000/svg" viewBox="0 0 512 512"><!--! Font Awesome Free 7.0.1 by @fontawesome - https://fontawesome.com License - https://fontawesome.com/license/free (Icons: CC BY 4.0, Fonts: SIL OFL 1.1, Code: MIT License) Copyright 2025 Fonticons, Inc.--><path fill="currentColor" d="M255.587 0C401.961 0 512 113.652 512 256c0 151.845-122.323 256-256.413 256C117.265 512 0 398.968 0 256 0 118.813 108.077 0 255.587 0m.826 46.142C134.4 46.142 46.142 147.2 46.142 256c0 113.342 94.142 209.342 210.27 209.342 106.53 0 209.343-83.716 209.343-209.342.103-117.471-93.11-209.858-209.342-209.858M142.142 219.87c13.42-86.606 83.097-98.787 112.413-98.787 103.02 0 131.613 85.161 131.613 138.529 0 65.652-42.323 137.187-133.058 137.187-40.155 0-102.297-20.645-112.93-100.129h64.517c1.548 31.07 20.232 46.658 56.258 46.658 24.051 0 59.87-18.787 59.87-85.47 0-85.162-50.683-83.2-58.528-83.2q-51.252 0-57.6 45.212h18.787l-50.787 50.787-50.58-50.787z"/></svg>