<svg xmlns="http://www.w3.org/2000/svg" viewBox="0 0 512 512"><!--! Font Awesome Free 7.0.1 by @fontawesome - https://fontawesome.com License - https://fontawesome.com/license/free (Icons: CC BY 4.0, Fonts: SIL OFL 1.1, Code: MIT License) Copyright 2025 Fonticons, Inc.--><path fill="currentColor" d="M256 0C114.64 0 0 114.64 0 256s114.64 256 256 256 256-114.64 256-256S397.36 0 256 0m0 12.013c134.731 0 243.987 109.256 243.987 243.987S390.731 499.987 256 499.987 12.013 390.731 12.013 256 121.269 12.013 256 12.013m160.621 147.78v-48.466H215.922v84.608H55.301l38.006 47.638h121.89v203.806h50.538v-202.77H352v-48.674h-86.265v-36.039H416.62zm-75.909 46.705v24.751h-85.851v204.427h-27.754V231.25H98.9L78.084 206.5h149.023v-83.47h177.916v25.269H254.86v58.2zM173.67 135.042l-12.842-21.437 2.175 24.647-24.336 5.593 24.13 5.592-2.176 24.854 12.738-21.23 22.99 9.839-16.258-18.745 16.362-18.744zm-30.654-20.401 9.631-11.91-13.152 6.11L131.21 96l1.76 14.395-14.808 3.935 14.188 2.796-.829 15.224 7.042-12.635 14.291 5.489zM314.304 265.01l-13.566 5.8-7.56-12.635 1.346 14.705-14.395 3.314 14.395 3.314-1.242 14.706 7.56-12.635 13.566 5.696-9.735-11.08zM425.01 185.06l-21.644 9.424-12.427-20.297 2.278 23.508-23.094 5.592 22.99 5.074-1.864 23.716 11.91-20.298 21.954 9.113-15.637-17.605zM256 21.851C126.654 21.851 21.851 126.654 21.851 256S126.654 490.149 256 490.149 490.149 385.346 490.149 256 385.346 21.851 256 21.851m97.968 172.013v52.816h-86.266v202.666h-54.576V245.54H92.272l-41.424-51.676H213.85V109.36h204.842v52.505H267.806v32zM256 35.624c62.447 0 118.887 25.89 159.068 67.522H208.88v84.504H45.877C74.874 99.417 158.032 35.625 256 35.625m0 442.305c-122.097 0-221.204-99.003-221.204-221.1 0-21.955 3.21-43.289 9.217-63.276l45.36 58.305h118.782v203.805h66.9v-202.77h86.265v-64.932H275.16v-19.883h150.783v-52.609c31.896 38.317 51.055 87.612 51.055 141.36.103 122.097-98.9 221.1-220.997 221.1m-71.663-202.253-11.392-22.161 1.76 25.372-24.543 4.039 24.647 6.11-3.832 24.647 13.463-21.644 22.266 11.184-16.363-19.469 17.502-17.709z"/></svg>