<svg xmlns="http://www.w3.org/2000/svg" viewBox="0 0 512 512"><!--! Font Awesome Free 7.0.1 by @fontawesome - https://fontawesome.com License - https://fontawesome.com/license/free (Icons: CC BY 4.0, Fonts: SIL OFL 1.1, Code: MIT License) Copyright 2025 Fonticons, Inc.--><path fill="currentColor" d="M475.429 0H36.57C16.457 0 0 16.457 0 36.571V475.43C0 495.543 16.457 512 36.571 512H475.43C495.543 512 512 495.543 512 475.429V36.57C512 16.457 495.543 0 475.429 0m-73.143 294.171c0 56.458-13.029 94.4-118.629 94.4h-19.314c-50.4 0-71.314-17.028-80.457-44.342h-1.029V384h-73.143V118.857h73.143v85.372h1.257c5.257-34.858 45.372-44.343 79.657-44.343h19.772c105.6 0 118.628 37.828 118.628 94.285v40zm-73.143-33.028v26.171c0 24.8-3.886 38.629-43.886 38.629h-51.771c-33.029 0-50.4-7.429-50.4-40.8v-21.714c0-33.486 17.371-40.8 50.4-40.8h51.771c40-.229 43.886 13.714 43.886 38.514"/></svg>