<svg xmlns="http://www.w3.org/2000/svg" viewBox="0 0 512 512"><!--! Font Awesome Free 7.0.1 by @fontawesome - https://fontawesome.com License - https://fontawesome.com/license/free (Icons: CC BY 4.0, Fonts: SIL OFL 1.1, Code: MIT License) Copyright 2025 Fonticons, Inc.--><path fill="currentColor" d="m397.995 186.727-59.477 36.886-.8 36.885-29.288-19.292-39.385 24.29c2.199 55.179 2.499 59.277 2.499 59.477l-97.162 65.375-15.094-104.66 108.058-61.975-40.185-25.99-75.37 38.485-20.992-143.244 128.95-49.381L168.484 0 42.834 39.385l27.688 134.847 41.884 32.687-31.787 15.094 20.891 101.36 29.289 27.69-20.892 12.595 16.794 78.77L192.875 512c-10.796-74.77-11.696-78.57-11.696-78.77l77.87-55.278c16.693-12.795 14.994-11.195 14.994-11.195l.8 24.29 33.487 28.49-.8-77.07 46.882-33.488 26.79-18.393-2.5 35.986 25.09 17.594 6.698-74.571 58.677-43.583-71.172-39.385z"/></svg>