<svg xmlns="http://www.w3.org/2000/svg" viewBox="0 0 512 512"><!--! Font Awesome Free 7.0.1 by @fontawesome - https://fontawesome.com License - https://fontawesome.com/license/free (Icons: CC BY 4.0, Fonts: SIL OFL 1.1, Code: MIT License) Copyright 2025 Fonticons, Inc.--><path fill="currentColor" d="M256 0C114.58 0 0 114.58 0 256s114.58 256 256 256 256-114.58 256-256S397.42 0 256 0m0 464C112.31 464 12.594 321.548 59.665 187.458l81.341 36.232c-2.167 10.839-3.406 22.194-3.406 33.962 0 102.193 76.284 130.993 124.284 130.993 23.639 0 55.226-6.916 81.961-30.451l-37.264-45.317c-5.678 6.504-18.168 17.24-37.471 17.24-39.02 0-55.433-41.188-55.639-74.22 237.832 105.91 223.484 99.613 224.929 99.922C402.994 420.232 334.555 464 256 464m200.465-154.839L225.239 205.935c19.406-35.096 56.67-31.69 77.11-11.354l41.703-42.942c-27.975-24.052-59.871-28.387-80.62-28.387-48.929 0-83.51 21.16-103.948 53.264L82.168 142.04c37.264-56.671 101.264-94.142 173.935-94.142 114.684 0 208 93.316 208 208 0 18.58-2.477 36.542-7.02 53.677-.309-.103-.412-.206-.618-.413"/></svg>