<svg xmlns="http://www.w3.org/2000/svg" viewBox="0 0 512 512"><!--! Font Awesome Free 7.0.1 by @fontawesome - https://fontawesome.com License - https://fontawesome.com/license/free (Icons: CC BY 4.0, Fonts: SIL OFL 1.1, Code: MIT License) Copyright 2025 Fonticons, Inc.--><path fill="currentColor" d="M448.357.057H64.214c-35.42 0-64.1 28.68-64.1 63.986-.114 0 0-4.57 0 383.914 0 35.307 28.68 63.986 63.986 63.986h384.143c35.192-.229 63.643-28.794 63.643-63.986V64.043C512 28.85 483.549.286 448.357.057m-223.15 387.685c-.229 16.796-13.826 30.393-30.736 30.393H99.978c-16.91.114-30.736-13.482-30.85-30.393V97.292c0-16.91 13.71-30.735 30.735-30.735h94.722c16.91 0 30.736 13.71 30.736 30.736v290.449zm220.636-127.971c0 16.91-13.71 30.736-30.736 30.736h-92.55c-16.91 0-30.736-13.712-30.736-30.736V97.407c0-16.91 13.71-30.736 30.621-30.736h92.665c16.91 0 30.736 13.711 30.736 30.736z"/></svg>