<svg xmlns="http://www.w3.org/2000/svg" viewBox="0 0 512 512"><!--! Font Awesome Free 7.0.1 by @fontawesome - https://fontawesome.com License - https://fontawesome.com/license/free (Icons: CC BY 4.0, Fonts: SIL OFL 1.1, Code: MIT License) Copyright 2025 Fonticons, Inc.--><path fill="currentColor" d="M145.282 214.451c-.552 17.835 8.365 25.805 8.602 30.777-.079 1.026-.473 1.973-1.026 2.841a6.1 6.1 0 0 1-2.21 2.052l-10.1 7.102c-1.342.947-2.841 1.42-4.42 1.5-.315 0-6.47 1.42-16.177-20.203a61.4 61.4 0 0 1-22.018 17.362c-8.601 4.024-17.913 6.076-27.383 5.918-12.863.71-47.665-7.26-45.85-44.35-1.262-30.224 26.91-49.006 55.951-47.349 5.603 0 17.046.316 37.09 4.972v-12.311c2.13-20.912-11.6-37.09-35.354-34.644-1.894 0-15.31-.394-36.143 7.97-5.84 2.684-6.55 2.21-8.523 2.21-5.84 0-3.472-16.966-2.288-19.097 4.103-5.05 28.33-14.52 52.005-14.363a60.48 60.48 0 0 1 43.955 13.653c4.972 5.603 8.839 12.153 11.206 19.255a56.7 56.7 0 0 1 2.762 22.096v54.688zM77.1 240.02c25.568-.395 36.459-15.783 38.905-24.07 1.973-7.97 1.657-12.941 1.657-21.622-7.655-1.815-18.624-3.867-31.25-3.867-11.995-.868-33.776 4.42-32.908 25.49-.947 13.257 8.76 24.779 23.675 24.069zm134.865 18.23c-6.234.551-9.075-3.868-10.022-8.208l-39.3-129.973c-.788-2.21-1.262-4.42-1.499-6.787-.158-.947.08-1.894.632-2.683s1.42-1.262 2.367-1.42h17.52c6.944-.71 9.153 4.735 9.942 8.207l28.252 111.112 26.2-111.112c.394-2.525 2.288-8.76 10.1-8.05h13.574c1.736-.157 8.76-.394 10.022 8.208l26.28 112.454 29.119-112.533c.394-1.736 2.13-8.996 10.022-8.207h15.546c.71-.08 4.893-.632 4.183 6.786-.316 1.42 2.683-8.444-41.667 134.077-.869 4.34-3.788 8.76-10.023 8.207h-14.757c-8.601.947-9.864-7.655-10.022-8.444l-26.2-108.192-25.884 108.113c-.158.868-1.341 9.391-10.022 8.444h-14.441zm215.833 4.418c-4.656 0-26.752-.236-45.297-9.706-1.815-.79-3.394-2.052-4.499-3.788s-1.657-3.63-1.657-5.603v-8.444c0-6.708 4.893-5.445 6.945-4.656 7.891 3.236 13.02 5.603 22.727 7.576 28.962 5.918 41.667-1.815 44.745-3.551 10.417-6.156 11.206-20.281 4.183-27.542-8.287-6.944-12.232-7.18-41.904-16.572-3.63-1.026-34.486-10.732-34.565-41.351-.474-22.254 19.729-44.35 54.846-44.193 10.022 0 36.616 3.236 43.877 12.311 1.104 1.657 1.578 3.63 1.499 5.524v7.97c0 3.473-1.263 5.288-3.867 5.288-6.076-.71-16.888-8.839-38.826-8.523-5.445-.316-31.487.71-30.303 19.729-.316 14.994 20.991 20.597 23.437 21.228 28.804 8.68 38.353 10.101 49.796 23.359 13.494 17.519 6.234 38.116 3.393 43.719-15.073 29.593-53.978 27.146-54.688 27.146zm31.724 82.782c-55.24 40.8-135.497 62.5-203.995 62.5-92.41.632-181.742-33.38-250.398-95.25-5.129-4.656-.63-11.048 5.682-7.497a502.65 502.65 0 0 0 250.082 66.368c65.5-.316 130.288-13.652 190.658-39.063 9.312-3.946 17.204 6.155 7.97 12.942m23.043-26.279c-7.103-9.075-46.797-4.261-64.553-2.13-5.366.631-6.234-4.025-1.42-7.497 31.645-22.254 83.57-15.862 89.49-8.365 5.918 7.497-1.658 59.502-31.25 84.36-4.578 3.867-8.918 1.815-6.867-3.236 6.63-16.809 21.623-54.056 14.52-63.132z"/></svg>