<svg xmlns="http://www.w3.org/2000/svg" viewBox="0 0 512 512"><!--! Font Awesome Free 7.0.1 by @fontawesome - https://fontawesome.com License - https://fontawesome.com/license/free (Icons: CC BY 4.0, Fonts: SIL OFL 1.1, Code: MIT License) Copyright 2025 Fonticons, Inc.--><path fill="currentColor" d="M473.257 0H38.743C17.37 0 0 17.371 0 38.743v434.4C0 494.629 17.371 512 38.743 512h434.4c21.371 0 38.743-17.371 38.743-38.743V38.743C512 17.37 494.629 0 473.257 0M271.543 410.4c-85.257 8.571-161.372-53.6-169.943-138.857h107.886v23.314c0 4.229 3.428 7.772 7.771 7.772h77.6c4.229 0 7.772-3.429 7.772-7.772v-77.6c0-4.228-3.429-7.771-7.772-7.771h-77.6c-4.228 0-7.771 3.428-7.771 7.771v23.314H101.6c8-79.314 74.743-139.657 154.4-139.657s146.4 60.343 154.4 139.657c8.571 85.143-53.6 161.258-138.857 169.829"/></svg>