<svg xmlns="http://www.w3.org/2000/svg" viewBox="0 0 512 512"><!--! Font Awesome Free 7.0.1 by @fontawesome - https://fontawesome.com License - https://fontawesome.com/license/free (Icons: CC BY 4.0, Fonts: SIL OFL 1.1, Code: MIT License) Copyright 2025 Fonticons, Inc.--><path fill="currentColor" d="M512 73.143C512 32.8 479.2 0 438.857 0H73.143C32.8 0 0 32.8 0 73.143v365.714C0 479.2 32.8 512 73.143 512h365.714C479.2 512 512 479.2 512 438.857zM107.2 329.37c-6.286 0-9.943-6.057-6.857-11.771l56.343-99.086c.114 0 .114-.114 0-.228L120.8 156.57c-3.429-6.4.229-11.542 6.857-11.542h53.257q8.914 0 14.743 9.942l36.457 63.2q-2.228 3.943-57.257 100.8c-4 7.086-8.8 10.4-14.4 10.4zM294.057 291.2v.229l74.857 136c3.2 5.828.115 11.542-6.857 11.542H308.8c-6.286 0-11.086-3.314-14.743-9.942L218.63 291.543q3.085-5.486 72.342-127.543c13.372-23.657 28.686-50.629 45.829-80.914 3.771-6.629 8.457-9.943 14.286-9.943h53.6c6.514-.114 10.057 5.371 6.857 11.428z"/></svg>