<svg xmlns="http://www.w3.org/2000/svg" viewBox="0 0 512 512"><!--! Font Awesome Free 7.0.1 by @fontawesome - https://fontawesome.com License - https://fontawesome.com/license/free (Icons: CC BY 4.0, Fonts: SIL OFL 1.1, Code: MIT License) Copyright 2025 Fonticons, Inc.--><path fill="currentColor" d="M0 0v146.286h146.286V0zm137.143 137.143h-128v-128h128zM182.857 0v146.286h146.286V0zM320 137.143H192v-128h128zM365.714 0v146.286H512V0zm137.143 137.143h-128v-128h128zM0 182.857v146.286h146.286V182.857zM137.143 320h-128V192h128zm45.714-137.143v146.286h146.286V182.857zM320 320H192V192h128zm45.714-137.143v146.286H512V182.857zM502.857 320h-128V192h128zM0 365.714V512h146.286V365.714zm137.143 137.143h-128v-128h128zm45.714-137.143V512h146.286V365.714zM320 502.857H192v-128h128zm45.714-137.143V512H512V365.714z"/></svg>