<svg xmlns="http://www.w3.org/2000/svg" viewBox="0 0 512 512"><!--! Font Awesome Free 7.0.1 by @fontawesome - https://fontawesome.com License - https://fontawesome.com/license/free (Icons: CC BY 4.0, Fonts: SIL OFL 1.1, Code: MIT License) Copyright 2025 Fonticons, Inc.--><path fill="currentColor" d="M421.174 368.183c90.826-115.64 16.29-220.768 16.29-220.768 42.998 81.261-39.21 161.48-39.21 161.48 99.445-162.427-57.3-257.136-57.3-257.136 91.774 68.854-9.565 180.611-9.565 180.611 81.26 150.02-64.97 217.927-64.97 217.927s-.38-16.006-2.085-81.166c4.073 4.262 32.675 34.284 32.675 34.284l-22.92-44.892 59.289-8.618-59.288-8.619 19.13-52.564-29.738 43.472c-2.084-83.06-7.387-288.96-7.482-290.664 0 .947-5.304 207.414-7.482 290.664l-29.739-43.472 19.131 52.564-59.288 8.619 59.288 8.618-22.92 44.892 32.676-34.284c-1.705 65.16-2.084 81.166-2.084 81.166S99.35 382.39 180.612 232.37c0 0-101.34-111.852-9.566-180.611 0 0-156.745 94.615-57.3 257.136 0 0-82.208-80.313-39.21-161.48 0 0-74.536 105.128 16.29 220.768 0 0-24.813-15.248-46.786-73.589 0 0 16.006 173.603 210.255 175.876h3.883c194.155-2.273 210.256-175.876 210.256-175.876-22.352 58.247-47.26 73.59-47.26 73.59"/></svg>