<svg xmlns="http://www.w3.org/2000/svg" viewBox="0 0 512 512"><!--! Font Awesome Free 7.0.1 by @fontawesome - https://fontawesome.com License - https://fontawesome.com/license/free (Icons: CC BY 4.0, Fonts: SIL OFL 1.1, Code: MIT License) Copyright 2025 Fonticons, Inc.--><path fill="currentColor" d="M325.058 192.413v104.67h-29.213v124.388h-79.587V297.187h-29.213V192.413c0-4.542 1.652-8.465 4.749-11.665 3.2-3.2 7.122-4.851 11.664-4.851h105.187c4.232 0 8.052 1.651 11.458 4.851 3.2 3.304 4.955 7.123 4.955 11.665m-33.548-66.58c.206 19.715-15.484 35.819-35.2 36.025-19.716.207-35.82-15.484-36.026-35.2s15.484-35.82 35.2-36.026 35.82 15.484 36.026 35.2M255.587 0C401.961 0 512 113.652 512 256c0 151.845-122.323 256-256.413 256C117.265 512 0 398.968 0 256 0 118.813 108.077 0 255.587 0m.826 46.142C134.4 46.142 46.142 147.2 46.142 256c0 113.342 94.142 209.342 210.27 209.342 106.53 0 209.343-83.716 209.343-209.342.103-117.471-93.11-209.858-209.342-209.858"/></svg>