<svg xmlns="http://www.w3.org/2000/svg" viewBox="0 0 512 512"><!--! Font Awesome Free 7.0.1 by @fontawesome - https://fontawesome.com License - https://fontawesome.com/license/free (Icons: CC BY 4.0, Fonts: SIL OFL 1.1, Code: MIT License) Copyright 2025 Fonticons, Inc.--><path fill="currentColor" d="M256 0C114.58 0 0 114.58 0 256s114.58 256 256 256 256-114.58 256-256S397.42 0 256 0m-72.98 384c-33.962 0-66.478-13.523-90.53-37.471C68.44 322.581 55.02 289.961 55.02 256s13.522-66.477 37.47-90.529C116.44 141.419 149.058 128 183.02 128c32.309 0 62.038 11.355 85.677 33.342l-34.684 33.652c-13.626-13.317-32.31-19.717-50.994-19.717-44.284 0-79.69 36.646-79.69 80.62s35.303 80.62 79.69 80.62c33.652 0 66.994-19.717 72.362-55.02h-72.362v-43.974H303.69c1.342 7.019 1.962 14.245 1.962 21.367 0 73.084-49.033 125.11-122.633 125.11m237.625-109.626v36.645H384v-36.645h-36.645V237.73H384v-36.645h36.645v36.645h36.336v36.645z"/></svg>