<svg xmlns="http://www.w3.org/2000/svg" viewBox="0 0 512 512"><!--! Font Awesome Free 7.0.1 by @fontawesome - https://fontawesome.com License - https://fontawesome.com/license/free (Icons: CC BY 4.0, Fonts: SIL OFL 1.1, Code: MIT License) Copyright 2025 Fonticons, Inc.--><path fill="currentColor" d="M384.94 252.002a34.9 34.9 0 0 1 8.958 0c1.638-3.66 1.927-10.018.482-16.954-2.12-10.307-5.106-16.473-11.078-15.51-5.973.964-6.262 8.381-4.046 18.689 1.252 5.78 3.371 10.693 5.78 13.775zm-51.634 8.188c4.335 1.927 6.936 3.18 7.995 2.023 1.83-1.83-3.371-9.055-11.656-12.619-4.816-2.023-10.018-2.697-15.22-2.12-5.202.579-10.115 2.602-14.257 5.588-2.89 2.12-5.587 5.01-5.202 6.84.867 3.564 9.633-2.602 21.77-3.372 6.744-.386 12.331 1.734 16.666 3.564zm-8.67 4.913c-8.766 1.349-14.45 6.262-13.005 9.73.867.289 1.156.77 5.01-.77 5.78-2.217 11.945-2.795 18.013-1.831 2.794.289 4.143.481 4.72-.482 1.446-2.12-5.49-7.706-14.834-6.647zm52.211 16.473c3.276-6.647-10.5-13.39-13.775-6.743s10.5 13.39 13.775 6.743m15.124-19.748c-7.417-.096-7.706 15.22-.289 15.317s7.707-15.22.29-15.413zM181.2 337.93c-1.252.289-5.78 1.445-8.188-2.216-5.01-7.706 10.692-19.652 2.89-34.487-8.766-16.857-26.78-13.004-33.716-5.298-8.381 9.248-8.381 22.638-4.817 23.216 4.142.578 3.95-6.261 7.129-11.174.867-1.349 2.023-2.505 3.371-3.468 1.349-.964 2.89-1.542 4.432-1.927a10.2 10.2 0 0 1 4.816 0c1.541.385 3.179.963 4.528 1.83 11.174 7.322 1.348 17.147 2.215 27.551 1.349 16.087 17.725 15.798 20.808 8.67q.288-.577.289-1.156c0-.385-.193-.77-.482-1.06 0 .867.674-1.252-3.275-.385zm288.704-16.473c-3.179-11.27-2.504-8.862-6.55-19.748 2.312-3.564 14.738-23.12-2.986-41.711-10.019-10.5-32.657-15.895-39.593-17.822-1.445-10.981 4.432-56.546-20.71-79.954 20.036-20.808 32.56-43.638 32.463-63.29-.097-37.762-46.432-49.129-103.46-25.528l-12.041 5.106c-.097 0-21.867-21.482-22.253-21.771C229.75 0 26.203 226.186 91.226 281.094l14.257 12.042a69.54 69.54 0 0 0-3.95 32.27c3.275 32.175 34.68 58.185 65.024 58.185C222.14 511.807 424.627 512 477.032 386.48c1.637-4.335 8.766-23.698 8.766-40.845s-9.73-24.372-15.895-24.372zm-304.406 46.432c-21.964-.578-45.757-20.326-48.07-43.831-5.972-59.051 71.575-72.537 80.919-11.849 4.335 28.514-4.528 56.354-32.85 55.68m-17.821-110.01c-14.643 2.89-27.455 11.078-35.354 22.637-4.72-3.95-13.486-11.56-15.028-14.45-12.523-23.89 13.68-70.321 32.079-96.523 45.372-64.735 116.464-113.767 149.313-104.905 5.298 1.541 23.023 22.06 23.023 22.06s-32.849 18.207-63.386 43.638c-41.037 31.597-72.055 77.547-90.647 127.542m230.135 97.39s-34.39 5.106-66.95-6.84c5.972-19.458 26.009 5.877 92.863-13.293 14.738-4.239 34.101-12.523 49.129-24.468 3.275 7.514 5.587 15.317 6.84 23.408 3.563-.674 13.678-.481 10.98 17.436-3.178 19.17-11.27 34.68-24.949 48.937-8.573 9.247-18.688 16.857-30.055 22.445a129.4 129.4 0 0 1-19.555 8.284c-51.538 16.858-104.327-1.637-121.378-41.422-1.348-2.986-2.504-6.165-3.468-9.344-7.224-26.202-1.06-57.606 18.11-77.45 1.157-1.253 2.409-2.794 2.409-4.624-.193-1.638-.77-3.18-1.83-4.335-6.743-9.73-30.056-26.395-25.335-58.57 3.371-23.12 23.6-39.4 42.482-38.436l4.816.29c8.188.48 15.317 1.54 22.06 1.83 11.27.481 21.386-1.157 33.33-11.175 4.047-3.372 7.322-6.261 12.813-7.225a16 16 0 0 1 6.743-.289c2.215.386 4.431 1.156 6.358 2.409 9.633 6.357 10.981 21.867 11.463 33.234.29 6.454 1.06 22.156 1.349 26.587.578 10.308 3.275 11.753 8.766 13.486 3.082.964 5.972 1.734 10.115 2.987 12.715 3.564 20.23 7.225 25.046 11.848 2.408 2.409 4.046 5.588 4.527 8.96 1.542 10.981-8.477 24.467-34.968 36.798-44.987 20.904-90.262 13.871-96.813 13.197-19.459-2.6-30.44 22.445-18.784 39.592 21.77 32.175 117.91 19.266 145.845-20.615.674-.963.096-1.54-.674-.963-40.267 27.55-93.538 36.799-123.786 25.046-4.624-1.734-14.16-6.165-15.316-16.087 42 13.005 68.395.674 68.395.674s1.926-2.697-.578-2.408zM231.484 169.157c16.087-18.688 36.028-34.871 53.753-43.927.096-.096.288-.096.481-.096s.29.096.385.193c.097.096.193.289.193.385s0 .29-.096.482c-1.445 2.6-4.142 7.995-5.01 12.234v.385c0 .097.193.29.29.385.096.097.289.097.385.097s.289 0 .385-.097c11.078-7.513 30.345-15.605 47.202-16.665.193 0 .29 0 .482.097.193.096.193.192.29.385.095.193.095.289 0 .482-.097.192-.097.289-.29.385a38.6 38.6 0 0 0-7.417 7.417c-.097.097-.097.193-.097.386 0 .192 0 .289.097.385l.289.289c.096.096.192.096.385.096 11.849.097 28.61 4.239 39.496 10.308.77.385.192 1.83-.578 1.637-66.95-15.316-118.584 17.822-129.566 25.817-.192.096-.289.096-.481.096-.193 0-.29-.096-.482-.192-.193-.097-.193-.29-.193-.482 0-.193.097-.385.193-.482z"/></svg>