<svg xmlns="http://www.w3.org/2000/svg" viewBox="0 0 512 512"><!--! Font Awesome Free 7.0.1 by @fontawesome - https://fontawesome.com License - https://fontawesome.com/license/free (Icons: CC BY 4.0, Fonts: SIL OFL 1.1, Code: MIT License) Copyright 2025 Fonticons, Inc.--><path fill="currentColor" d="M121.287 294.076c6.693 55.909 55.011 94.27 119.164 90.842 41.79 35.342 111.656 37.382 152.14-4.57 56.48.897 96.719-36.403 107.33-81.212C512 248.124 485.065 190.99 424.748 172.544 397.814 100.637 317.5 89.7 272.528 103.167c-46.768 14.12-68.805 43.422-81.048 89.537-6.367 2.204-21.63 7.264-36.73 19.67 9.55 0 12.407 7.264 12.407 15.916v16.65c0 8.734-7.1 15.916-15.916 15.916h-16.487c-8.733 0-15.916-4.897-15.916-13.63v-5.387H80.64c-3.101 0-8.815 3.51-8.815 9.713v32.974c0 5.224 4.326 9.631 9.55 9.631h39.912zm185.603 6.53c-8.733 37.789 17.711 59.092 45.136 70.845-87.497 27.587-140.06-41.463-110.432-90.435-27.098 17.63-27.506 58.114-23.833 75.825-14.61-10.12-43.911-26.445-46.85-65.132-2.448-32.567 17.549-61.786 46.524-76.641 24.975-12.896 84.476-6.938 109.044 33.3-11.509-39.177-43.912-57.215-83.09-61.05 25.221-25.058 52.564-41.056 93.21-35.669 56.97 7.59 108.718 67.581 55.257 122.838 28.567-13.304 39.749-44.401 38.77-62.766l8.57 15.998a83.47 83.47 0 0 1 7.672 58.766c-7.51 31.832-33.138 56.154-65.051 62.439-26.2 5.142-67.826-4.163-74.927-48.319M104.473 215.72H71.99c-7.265 0-13.223-5.959-13.223-13.223v-32.321c0-7.264 5.958-13.222 13.223-13.222h32.484c7.264 0 13.223 5.958 13.223 13.222v32.321c0 7.264-5.959 13.223-13.223 13.223m-96.23-32.648A8.22 8.22 0 0 1 0 174.829v-22.69a8.22 8.22 0 0 1 8.244-8.244h22.608c4.49 0 8.244 3.673 8.244 8.244v22.69a8.22 8.22 0 0 1-8.244 8.244zm128.878-20.65v-17.467c0-4.162 3.428-7.59 7.59-7.59h17.467c4.163 0 7.59 3.428 7.59 7.59v17.467c0 4.163-3.427 7.59-7.59 7.59h-17.466c-4.163 0-7.591-3.427-7.591-7.59m-91.414 75.743v20.405c0 5.142-4.163 9.386-9.305 9.386H15.834c-5.142 0-9.304-4.244-9.304-9.386v-20.405c0-5.142 4.162-9.386 9.304-9.386h20.487c5.223 0 9.386 4.244 9.386 9.386"/></svg>