<svg xmlns="http://www.w3.org/2000/svg" viewBox="0 0 512 512"><!--! Font Awesome Free 7.0.1 by @fontawesome - https://fontawesome.com License - https://fontawesome.com/license/free (Icons: CC BY 4.0, Fonts: SIL OFL 1.1, Code: MIT License) Copyright 2025 Fonticons, Inc.--><path fill="currentColor" d="M268.622 223.467c0 15.289-9.333 24.089-25.778 24.089h-21.6v-48.178h21.69c16.355 0 25.688 8.71 25.688 24.089m42.222 55.644c0 7.378 6.4 12.178 16.445 12.178 12.8 0 22.4-8.089 22.4-19.467v-6.844L328.8 266.31c-11.822.8-17.956 5.156-17.956 12.8M512 99.556v312.888c0 23.556-19.111 42.667-42.667 42.667H42.667C19.11 455.111 0 436 0 412.444V99.556C0 76 19.111 56.889 42.667 56.889h426.666C492.89 56.889 512 76 512 99.556M113.6 204.622c7.467.622 14.933-3.733 19.644-9.244 4.623-5.69 7.645-13.334 6.845-21.067-6.578.267-14.756 4.356-19.467 10.045-4.266 4.888-7.91 12.8-7.022 20.266m53.867 66.222c-.178-.177-17.423-6.755-17.6-26.666-.178-16.622 13.6-24.622 14.222-25.067-7.822-11.555-19.911-12.8-24.089-13.067-10.844-.622-20.089 6.134-25.244 6.134-5.245 0-13.067-5.867-21.6-5.69-11.112.179-21.512 6.49-27.112 16.534-11.644 20.09-3.022 49.778 8.267 66.134 5.511 8.088 12.178 16.977 20.889 16.622 8.267-.356 11.556-5.334 21.511-5.334 10.045 0 12.889 5.334 21.6 5.245 9.067-.178 14.667-8.089 20.267-16.178 6.133-9.244 8.71-18.133 8.889-18.667m120.355-47.466c0-23.645-16.444-39.822-39.91-39.822H202.4V304.8h18.844v-41.422h26.045c23.822 0 40.533-16.356 40.533-40m80 21.066c0-17.51-14.044-28.8-35.555-28.8-20 0-34.756 11.467-35.29 27.112h16.979c1.422-7.467 8.355-12.356 17.777-12.356 11.556 0 17.956 5.333 17.956 15.289v6.667l-23.467 1.422c-21.866 1.333-33.689 10.31-33.689 25.866 0 15.734 12.178 26.134 29.69 26.134 11.821 0 22.755-5.956 27.733-15.467h.355v14.578h17.422v-60.445zm90.845-27.644h-19.111l-22.134 71.644h-.355L394.933 216.8h-19.822l31.911 88.267-1.689 5.333c-2.844 9.067-7.555 12.622-15.91 12.622-1.512 0-4.356-.178-5.512-.266v14.577c1.067.356 5.778.445 7.2.445 18.4 0 27.022-7.022 34.578-28.267z"/></svg>