<svg xmlns="http://www.w3.org/2000/svg" viewBox="0 0 512 512"><!--! Font Awesome Free 7.0.1 by @fontawesome - https://fontawesome.com License - https://fontawesome.com/license/free (Icons: CC BY 4.0, Fonts: SIL OFL 1.1, Code: MIT License) Copyright 2025 Fonticons, Inc.--><path fill="currentColor" d="M371.656 234.298c2.346.96 4.479 2.026 6.719 2.986 31.14 15.037 53.962 37.539 65.906 65.48 16.743 38.925 18.343 102.165-32.313 152.714-38.606 38.606-85.636 55.989-152.075 56.522h-.32c-74.865-.533-132.346-25.701-171.058-74.864-34.446-43.725-52.15-104.619-52.79-180.87v-.533c.534-76.25 18.237-137.144 52.683-180.869C127.12 25.701 184.708.534 259.573 0h.32c74.97.533 133.198 25.595 173.083 74.544 19.623 24.209 34.127 53.323 43.298 87.129l-43.084 11.518c-7.572-27.515-18.983-50.976-34.34-69.746C367.71 65.266 321 45.644 259.68 45.217c-60.788.533-106.752 20.05-136.719 58.015-27.94 35.512-42.444 86.915-42.978 152.715.534 65.8 15.037 117.202 42.978 152.821 29.86 37.966 75.93 57.482 136.718 58.015 54.815-.427 91.075-13.437 121.255-43.618 34.446-34.34 33.806-76.57 22.822-102.272-6.505-15.143-18.236-27.727-34.02-37.219-3.946 28.688-12.584 51.51-26.34 69.106-18.237 23.248-44.152 35.832-77.531 37.645-25.168 1.387-49.377-4.692-68.146-17.063-22.182-14.717-35.193-37.112-36.58-63.24-2.665-51.51 38.073-88.515 101.526-92.14 22.502-1.28 43.618-.32 63.134 2.985-2.56-15.783-7.785-28.367-15.57-37.539-10.665-12.477-27.301-18.876-49.27-18.982h-.747c-17.703 0-41.59 4.905-56.841 28.047l-36.686-25.168c20.476-31.033 53.642-48.097 93.634-48.097h.853c66.76.427 106.538 42.125 110.59 114.857l-.213.213zM205.29 307.669c1.386 26.768 30.287 39.245 58.227 37.646 27.301-1.493 58.228-12.158 63.454-78.064-14.077-3.093-29.647-4.692-46.284-4.692-5.119 0-10.238.106-15.357.426-45.75 2.56-61 24.742-59.934 44.578z"/></svg>