<svg xmlns="http://www.w3.org/2000/svg" viewBox="0 0 512 512"><!--! Font Awesome Free 7.0.1 by @fontawesome - https://fontawesome.com License - https://fontawesome.com/license/free (Icons: CC BY 4.0, Fonts: SIL OFL 1.1, Code: MIT License) Copyright 2025 Fonticons, Inc.--><path fill="currentColor" d="M479.944 208.637c-43.735.1-86.476-13.518-122.06-38.964v177.624c0 32.901-10.04 65.007-28.826 92.043s-45.326 47.711-76.14 59.241c-30.813 11.53-64.41 13.419-96.316 5.268A162.73 162.73 0 0 1 74.4 453.355c-21.67-24.75-35.088-55.663-38.766-88.365s2.883-65.702 18.488-94.627 39.76-52.383 69.181-67.293c29.422-14.91 62.522-20.376 95.124-15.903v89.359c-14.91-4.672-30.912-4.573-45.723.397s-27.732 14.512-36.777 27.136-13.916 27.93-13.816 43.636c.1 15.705 5.168 30.813 14.412 43.437s22.266 21.967 37.175 26.738c14.91 4.771 30.913 4.771 45.723-.1s27.832-14.313 36.977-26.936a74.4 74.4 0 0 0 14.114-43.537V0h87.47c-.099 7.355.597 14.81 1.89 22.066 3.08 16.202 9.343 31.708 18.587 45.425s21.171 25.446 34.988 34.392c19.78 13.021 42.94 19.98 66.596 19.98v86.873z"/></svg>