<svg xmlns="http://www.w3.org/2000/svg" viewBox="0 0 512 512"><!--! Font Awesome Free 7.0.1 by @fontawesome - https://fontawesome.com License - https://fontawesome.com/license/free (Icons: CC BY 4.0, Fonts: SIL OFL 1.1, Code: MIT License) Copyright 2025 Fonticons, Inc.--><path fill="currentColor" d="M512 73.143C512 32.8 479.2 0 438.857 0H73.143C32.8 0 0 32.8 0 73.143v365.714C0 479.2 32.8 512 73.143 512h365.714C479.2 512 512 479.2 512 438.857zM73.143 256c0-63.2 51.086-114.286 114.286-114.286 30.857 0 56.571 11.2 76.571 29.943l-30.971 29.829c-8.458-8.115-23.2-17.6-45.486-17.6-38.972 0-70.743 32.228-70.743 72.228 0 39.886 31.771 72.229 70.743 72.229 45.257 0 62.171-32.572 64.914-49.257H187.43V239.77h107.885c1.143 5.715 1.829 11.543 1.829 18.972 0 65.257-43.772 111.543-109.714 111.543-63.2 0-114.286-51.086-114.286-114.286m332.571 20.8v33.143h-33.371V276.8H339.2v-33.371h33.143v-33.143h33.371v33.143h33.143V276.8z"/></svg>