<svg xmlns="http://www.w3.org/2000/svg" viewBox="0 0 512 512"><!--! Font Awesome Free 7.0.1 by @fontawesome - https://fontawesome.com License - https://fontawesome.com/license/free (Icons: CC BY 4.0, Fonts: SIL OFL 1.1, Code: MIT License) Copyright 2025 Fonticons, Inc.--><path fill="currentColor" d="M337.367 93.374c11.9-11.9 123.819-82.547 149.226-57.032C512 61.749 441.461 173.668 429.561 185.568s-42.238.965-67.645-24.55c-25.514-25.407-36.556-55.745-24.55-67.644M129.608 63.25C90.693 41.166 35.377 16.616 17.796 34.305 0 52.1 25.407 108.704 47.706 147.618c19.832-34.52 48.026-63.571 81.902-84.368m318.178 113.527c3.537 12.114 2.894 22.191-2.895 27.98-21.762 21.762-93.802-28.945-117.172-75.149-19.297-34.626-11.9-57.246 15.973-52.208 6.11-3.859 13.186-8.147 21.012-12.435-31.947-16.617-68.181-26.05-106.667-26.05-127.679 0-231.13 103.45-231.13 231.129 0 127.57 103.451 231.129 231.13 231.129 127.678 0 231.129-103.451 231.129-231.13 0-41.165-10.828-79.865-29.695-113.42a721 721 0 0 1-11.685 20.154"/></svg>