<svg xmlns="http://www.w3.org/2000/svg" viewBox="0 0 512 512"><!--! Font Awesome Free 7.0.1 by @fontawesome - https://fontawesome.com License - https://fontawesome.com/license/free (Icons: CC BY 4.0, Fonts: SIL OFL 1.1, Code: MIT License) Copyright 2025 Fonticons, Inc.--><path fill="currentColor" d="M107.543 323.543c0 29.6-24.229 53.828-53.829 53.828S0 353.143 0 323.543s24.229-53.829 53.829-53.829h53.828v53.829zm27.086 0c0-29.6 24.228-53.829 53.828-53.829s53.829 24.229 53.829 53.829V458.17c0 29.6-24.229 53.829-53.829 53.829s-53.828-24.229-53.828-53.829zm53.828-216c-29.6 0-53.828-24.229-53.828-53.829S158.857 0 188.457 0s53.829 24.229 53.829 53.829v53.828h-53.829zm0 27.086c29.6 0 53.829 24.228 53.829 53.828s-24.229 53.829-53.829 53.829H53.83C24.229 242.286 0 218.057 0 188.457s24.229-53.828 53.829-53.828zm216 53.828c0-29.6 24.229-53.828 53.829-53.828S512 158.857 512 188.457s-24.229 53.829-53.829 53.829h-53.828v-53.829zm-27.086 0c0 29.6-24.228 53.829-53.828 53.829s-53.829-24.229-53.829-53.829V53.83c0-29.6 24.229-53.829 53.829-53.829s53.828 24.229 53.828 53.829zm-53.828 216c29.6 0 53.828 24.229 53.828 53.829S353.143 512 323.543 512s-53.829-24.229-53.829-53.829v-53.828h53.829zm0-27.086c-29.6 0-53.829-24.228-53.829-53.828s24.229-53.829 53.829-53.829H458.17c29.6 0 53.829 24.229 53.829 53.829s-24.229 53.828-53.829 53.828z"/></svg>