<svg xmlns="http://www.w3.org/2000/svg" viewBox="0 0 512 512"><!--! Font Awesome Free 7.0.1 by @fontawesome - https://fontawesome.com License - https://fontawesome.com/license/free (Icons: CC BY 4.0, Fonts: SIL OFL 1.1, Code: MIT License) Copyright 2025 Fonticons, Inc.--><path fill="currentColor" d="M110.844 207.822c.09-10.489 0-20.889 0-31.378v-31.377c0-1.156.356-1.778 1.245-2.4 10.222-7.111 21.422-10.756 33.955-9.867 11.112.8 20.178 6.222 24.978 19.289 2.934 7.911 3.645 16.178 3.645 24.622 0 7.733-.623 15.378-3.023 22.756-5.066 15.822-16.622 21.955-31.733 21.244-10.4-.444-19.467-4.444-27.911-10.4-.8-.711-1.244-1.422-1.156-2.489m137.69 12.978c4.088 1.6 8.266 1.778 12.533 1.333 10.31-1.066 19.466-5.066 27.822-11.11.8-.534 1.155-1.156 1.155-2.223-.088-3.467 0-7.022 0-10.489 0-3.555-.088-7.111 0-10.667 0-1.244-.355-1.777-1.6-1.955-6.222-.8-12.355-1.956-18.577-2.578-6.223-.533-12.445-.267-18.49 1.689-5.955 1.956-10.4 5.511-12.177 11.644-1.422 4.8-1.422 9.6.089 14.4 1.422 4.89 4.622 8.178 9.244 9.956M512 99.556v312.888c0 23.556-19.111 42.667-42.667 42.667H42.667C19.11 455.111 0 436 0 412.444V99.556C0 76 19.111 56.889 42.667 56.889h426.666C492.89 56.889 512 76 512 99.556M327.556 120.8c.355 1.511.8 3.022 1.422 4.533 14.666 36.09 29.244 72.267 44 108.356 1.244 3.111 1.51 5.689.178 8.8-2.49 5.511-4.356 11.2-6.934 16.622-2.31 4.889-5.955 8.445-11.289 9.956-3.733.977-7.555 1.155-11.466.8-1.867-.178-3.734-.623-5.6-.711-2.49-.178-3.734.977-3.823 3.555a102 102 0 0 0 0 7.378c.09 4.089 1.423 5.955 5.512 6.667 4.177.71 8.355 1.422 12.622 1.51 12.71.267 22.844-4.8 29.422-15.91 2.578-4.356 4.978-8.978 6.844-13.69 17.6-44.533 35.112-89.155 52.623-133.777.533-1.333.977-2.667 1.155-4.089.356-2.133-.622-3.2-2.755-3.289-4.978-.089-9.867 0-14.845 0-2.755 0-4.71 1.245-5.689 3.822-.355.978-.8 2.045-1.155 3.023l-25.867 74.4a2023 2023 0 0 1-5.778 16.533c-.355-.8-.533-1.245-.71-1.689-9.6-26.578-19.2-53.244-28.8-79.822a727 727 0 0 0-4.712-12.622c-.8-2.223-2.4-3.556-4.8-3.556-5.689-.089-11.378-.178-17.067-.089-1.955 0-2.933 1.422-2.488 3.289m-112.09 90.756c1.512 10.4 6.756 18.488 16 23.644 8.8 4.889 18.4 5.511 28.178 4.089 11.29-1.689 21.245-6.489 30.045-13.778.355-.267.711-.533 1.244-.889.445 2.845.8 5.511 1.334 8.178.444 2.311 1.866 3.822 4 3.911 4.089.089 8.089.089 12.177 0 2.045-.089 3.378-1.422 3.556-3.467.089-.71.089-1.422.089-2.044v-78.933c0-3.2-.178-6.4-.622-9.6-1.423-9.6-5.511-17.511-14.134-22.578-4.977-2.933-10.489-4.445-16.177-5.245-2.667-.355-5.334-.622-8.09-.977h-8.888c-.711.089-1.422.266-2.222.266-7.29.356-14.49 1.245-21.512 3.111-4.533 1.156-8.888 2.845-13.333 4.356-2.667.889-4 2.844-3.911 5.778.089 2.489-.089 4.978 0 7.378.089 3.644 1.6 4.622 5.067 3.644 5.777-1.511 11.644-3.111 17.51-4.267 9.156-1.689 18.4-2.4 27.645-1.066 4.8.71 9.334 2.133 12.534 6.222 2.755 3.555 3.733 7.822 3.91 12.178.267 6.133.178 12.355.267 18.489 0 .355-.089.622-.177 1.066-.356 0-.712 0-.978-.089-7.822-1.866-15.734-3.2-23.822-3.644-8.445-.445-16.8.089-24.8 2.844-9.6 3.378-17.334 9.156-21.867 18.49-3.645 7.377-4.089 15.11-3.022 22.933m-127.733-88.09V279.29c0 .711 0 1.511.09 2.222.177 2.222 1.51 3.645 3.644 3.733q7.867.135 15.733 0c2.222 0 3.556-1.51 3.644-3.644.09-.711.09-1.511.09-2.222v-53.956c.8.622 1.244 1.067 1.688 1.422 13.334 11.112 28.622 14.756 45.422 11.467 15.2-3.022 25.69-12.355 32.623-25.955 5.155-10.312 7.377-21.423 7.733-32.89.444-12.71-.889-25.244-6.044-37.066-6.312-14.578-16.8-24.267-32.623-27.467-2.4-.533-4.889-.71-7.289-1.066h-6.222c-1.066.177-2.133.266-3.2.444-10.4 1.245-19.822 5.156-28.266 11.289-1.778 1.244-3.467 2.667-5.245 4-.089-.444-.267-.711-.355-1.067-.356-2.044-.623-4.089-.978-6.133-.534-3.467-2.222-4.889-5.69-4.978h-8.621c-5.245-.089-6.134.89-6.134 6.045m351.023 206.312c-2.4-.622-4.534 0-6.756.889-39.022 16.355-79.556 26.844-121.6 31.822-12.889 1.511-25.867 2.489-38.844 2.844-23.645.623-47.29-.71-70.756-3.822a472 472 0 0 1-47.111-8.8c-32.889-7.911-64.622-19.289-94.845-34.489-7.822-3.91-15.466-8.266-23.2-12.444-3.377-1.867-5.51-1.334-7.288 1.866v1.512c1.066 1.422 1.955 3.022 3.288 4.266 32 28.622 68.09 50.222 108.445 64.8 19.467 7.022 39.467 12.178 59.822 15.556a331 331 0 0 0 37.511 4c2.667.089 5.334.178 8 .355.622 0 1.245.178 1.867.267h15.733c.622-.089 1.245-.267 1.867-.267 13.244-.355 26.489-1.6 39.644-3.555a352 352 0 0 0 55.911-13.067c26.312-8.533 51.29-19.911 74.134-35.644 2.489-1.69 5.066-3.378 7.11-5.511 3.823-3.912 2.045-9.245-2.932-10.578m44.8-24.622c-.712-3.734-3.556-5.156-6.756-6.223-5.067-1.689-10.311-2.489-15.644-2.933-9.778-.8-19.556-.356-29.156 1.422-10.667 1.956-20.8 5.422-29.778 11.645-1.066.71-2.133 1.6-2.755 2.666-.534.8-.623 2.045-.445 3.023.267 1.155 1.511 1.422 2.667 1.333.533 0 1.067 0 1.6-.089l17.333-1.867c8.534-.8 17.067-1.333 25.6-.71 3.645.266 7.2 1.066 10.667 1.955 3.822.978 5.511 3.91 5.689 7.733.266 5.956-1.067 11.645-2.578 17.333-3.111 11.467-7.378 22.578-11.822 33.6-.267.712-.622 1.512-.711 2.223-.356 2.222.889 3.555 3.022 3.11 1.244-.266 2.667-.977 3.555-1.866 3.29-3.2 6.667-6.4 9.423-9.955 9.51-12.267 15.11-26.312 18.4-41.423.622-2.666 1.066-5.422 1.51-8.089.179-4.177.179-8.533.179-12.888"/></svg>