<svg xmlns="http://www.w3.org/2000/svg" viewBox="0 0 512 512"><!--! Font Awesome Free 7.0.1 by @fontawesome - https://fontawesome.com License - https://fontawesome.com/license/free (Icons: CC BY 4.0, Fonts: SIL OFL 1.1, Code: MIT License) Copyright 2025 Fonticons, Inc.--><path fill="currentColor" d="M321.688 145.17v.675C304.422 95.108 280.597 46.107 253.396 0c41.766 28.166 64.627 96.458 68.292 145.17m31.542 117.39c7.33 17.555 10.61 36.171 10.61 54.98 0 74.948-55.753 136.006-132.92 134.463l3.666-.29c71.572-45.045 105.43-114.399 105.43-197.835 0-36.75-6.27-73.212-18.232-108.033.965 11.285.965 22.86.965 34.146 0 88.549-17.459 233.043-112.47 270.083-63.373-10.996-107.358-66.17-107.358-132.534 0-72.922 55.367-137.26 130.604-137.26 16.205 0 32.507 2.99 47.361 9.26 1.64-14.565 6.27-28.84 12.926-41.766-19.196-6.945-39.741-10.321-60.287-10.321-155.78 0-230.245 188.961-125.299 302.59 65.495 71.957 185.2 71.282 250.598 0 54.596-59.13 58.743-137.357 35.111-193.882-12.25 7.717-26.14 13.408-40.705 16.398M458.562 11.285c-29.902 64.144-78.42 45.528-111.698 77.263-11.961 11.575-19.87 32.795-19.87 48.711 0 13.6 4.34 26.14 11.574 37.426 45.721-10.61 94.819-44.371 114.014-87.488-.675 5.305-4.63 13.89-6.945 18.52-19.581 34.436-62.312 63.277-96.169 81.893 14.276 13.89 32.506 24.886 53.052 24.886 76.202 0 106.2-129.832 56.042-201.211"/></svg>