<svg xmlns="http://www.w3.org/2000/svg" viewBox="0 0 512 512"><!--! Font Awesome Free 7.0.1 by @fontawesome - https://fontawesome.com License - https://fontawesome.com/license/free (Icons: CC BY 4.0, Fonts: SIL OFL 1.1, Code: MIT License) Copyright 2025 Fonticons, Inc.--><path fill="currentColor" d="M403.657 0H108.343C48.457 0 0 48.457 0 108.343v295.314C0 463.543 48.457 512 108.343 512h295.314C463.543 512 512 463.543 512 403.657V108.343C512 48.457 463.543 0 403.657 0M165.6 193.029v64.342c0 30.858-25.029 55.886-55.886 55.886V137.03c0-15.086 12.229-27.315 27.315-27.315h176.228c0 30.857-25.028 55.886-55.886 55.886H193.03c-14.058-.686-28.115 13.257-27.429 27.429m201.486 82.285h-64.343c-14.057-.685-28.114 13.257-27.429 27.429v64.343c0 30.857-25.028 55.885-55.885 55.885V246.743c0-15.086 12.228-27.314 27.314-27.314H422.97c0 30.857-25.028 55.885-55.885 55.885"/></svg>