<svg xmlns="http://www.w3.org/2000/svg" viewBox="0 0 512 512"><!--! Font Awesome Free 7.0.1 by @fontawesome - https://fontawesome.com License - https://fontawesome.com/license/free (Icons: CC BY 4.0, Fonts: SIL OFL 1.1, Code: MIT License) Copyright 2025 Fonticons, Inc.--><path fill="currentColor" d="M415.25 512h-95.1l-108.2-154.5v91.1l-86.4 63.4h-97.7V29.8L68.35 0h108l123.7 176.1V63.4L386.45 0h97.7v461.5zM38.65 35.3V496l72-52.9V194l215.5 307.6h84.8l52.4-38.2h-78.3L68.95 12.9l-30.2 22.3zm82.5 466.6 80-58.8v-101l-79.8-114.4v220.9l-72.6 53.3h72.3zM80.45 10.8l310.6 442.6h82.4V10.8h-79.8v317.6L170.75 10.8zm230.4 180.8 72 102.8V15.9l-72 53z"/></svg>