<svg xmlns="http://www.w3.org/2000/svg" viewBox="0 0 512 512"><!--! Font Awesome Free 7.0.1 by @fontawesome - https://fontawesome.com License - https://fontawesome.com/license/free (Icons: CC BY 4.0, Fonts: SIL OFL 1.1, Code: MIT License) Copyright 2025 Fonticons, Inc.--><path fill="currentColor" d="m416.19 290.674 2.656 2.656-167.223-164.568c-3.443-3.442-9.542-3.64-13.575-.491l-56.364 42.888c-4.132 3.147-4.525 8.557-1.082 12l66.988 63.25c3.54 3.443 9.738 3.64 13.771.492l.098-.098c4.033-3.148 10.23-2.951 13.772.492l82.628 79.972c3.541 3.443 3.148 8.853-.885 12l-91.678 72.792c-4.132 3.246-10.329 3.05-13.968-.393l-149.42-145.092c-3.443-3.442-9.541-3.64-13.673-.491l-45.052 34.33c-4.131 3.147-4.623 8.558-1.18 12l205.292 192.898s7.279 6.689 17.017-.787l194.767-161.223c3.934-3.148 4.328-8.558.688-12.001zm53.61-82.038L262.739 5.41c-1.475-1.18-7.87-5.41-16.034 1.082L43.281 165.945c-4.131 3.148-4.721 8.558-1.18 12l41.61 41.02 168.895 162.404c3.64 3.443 9.935 3.64 14.067.393l49.38-38.166-.295-.295 7.574-5.902c4.132-3.148 4.525-8.558.885-12.001l-56.167-53.512c-3.541-3.443-9.837-3.64-13.968-.492l-.099.099c-4.13 3.148-10.328 3.05-13.968-.394l-93.055-90.3c-3.541-3.443-3.05-8.755 1.082-12.001l90.695-70.333c4.033-3.147 10.131-2.95 13.673.492l157.78 156.404c3.64 3.442 9.837 3.64 13.87.491l45.052-35.215c4.033-3.148 4.328-8.558.689-12"/></svg>