<svg xmlns="http://www.w3.org/2000/svg" viewBox="0 0 512 512"><!--! Font Awesome Free 7.0.1 by @fontawesome - https://fontawesome.com License - https://fontawesome.com/license/free (Icons: CC BY 4.0, Fonts: SIL OFL 1.1, Code: MIT License) Copyright 2025 Fonticons, Inc.--><path fill="currentColor" d="M256.994 0C117.963 0 4.57 112 2.584 250.534.596 391.155 114.783 507.627 255.504 508.422c43.428.298 85.366-10.335 122.533-30.509 3.578-1.988 4.174-6.956 1.093-9.64l-23.85-21.068c-4.87-4.273-11.727-5.466-17.69-2.981-25.938 11.03-54.161 16.695-83.18 16.298-113.69-1.49-205.615-96-203.826-209.69 1.789-112.198 93.714-202.931 206.41-202.931h206.41v366.708l-117.069-104.05c-3.776-3.379-9.64-2.683-12.62 1.292-18.783 24.845-49.392 40.348-83.38 37.963-47.205-3.28-85.366-41.243-88.944-88.348-4.174-56.249 40.348-103.255 95.702-103.255 50.087 0 91.33 38.56 95.603 87.454.397 4.372 2.385 8.447 5.664 11.329l30.51 27.03c3.478 3.082 8.944 1.193 9.838-3.378a143.9 143.9 0 0 0 2.087-36.571c-4.87-71.553-62.907-129.193-134.559-133.566-82.186-5.068-150.857 59.13-153.043 139.727-2.087 78.41 62.21 146.087 140.72 147.776 32.795.696 63.205-9.54 87.752-27.428l152.844 135.652c6.56 5.764 16.895 1.193 16.895-7.652V9.64c0-5.367-4.373-9.64-9.64-9.64z"/></svg>