<svg xmlns="http://www.w3.org/2000/svg" viewBox="0 0 512 512"><!--! Font Awesome Free 7.0.1 by @fontawesome - https://fontawesome.com License - https://fontawesome.com/license/free (Icons: CC BY 4.0, Fonts: SIL OFL 1.1, Code: MIT License) Copyright 2025 Fonticons, Inc.--><path fill="currentColor" d="M512 73.143C512 32.8 479.2 0 438.857 0H73.143C32.8 0 0 32.8 0 73.143v365.714C0 479.2 32.8 512 73.143 512h365.714C479.2 512 512 479.2 512 438.857zM303.771 429.37c0-2.057 0-6.857.115-13.257.114-13.028.114-32.914.114-49.943 0-17.828-5.943-29.142-12.914-35.085 42.285-4.686 86.857-10.515 86.857-83.543 0-20.8-7.429-31.2-19.543-44.572 1.943-4.914 8.457-25.142-1.943-51.428C340.571 146.629 304.23 172 304.23 172c-30.4-8.571-64.686-8.571-95.086 0 0 0-36.343-25.371-52.229-20.457-10.4 26.171-4 46.4-1.943 51.428-12.114 13.372-17.828 23.772-17.828 44.572 0 72.686 42.628 78.857 84.914 83.543-5.486 4.914-10.4 13.371-12.114 25.485-10.857 4.915-38.629 13.372-55.2-15.885-10.4-18.057-29.143-19.543-29.143-19.543-18.514-.229-1.257 11.657-1.257 11.657 12.343 5.714 21.028 27.657 21.028 27.657 11.086 33.943 64.115 22.514 64.115 22.514 0 10.286.114 24.8.114 34.972 0 5.486.114 9.828.114 11.428 0 4.915-3.428 10.858-13.143 9.143C121.143 413.257 68.343 341.486 68.343 257.6c0-104.914 80.228-184.571 185.143-184.571 104.914 0 189.943 79.657 189.943 184.571.114 83.886-51.086 155.771-126.515 180.914-9.6 1.715-13.143-4.228-13.143-9.143m-103.428-62.628c-.229-1.714 1.257-3.2 3.428-3.657 2.172-.229 4.229.685 4.458 2.171.342 1.486-1.143 2.972-3.429 3.429-2.171.457-4.229-.457-4.457-1.943m-10.4 3.657c-2.514.229-4.229-1.029-4.229-2.743 0-1.486 1.715-2.743 4-2.743 2.172-.228 4.229 1.029 4.229 2.743 0 1.486-1.714 2.743-4 2.743m-16.343-2.514c-2.171-.457-3.657-2.172-3.2-3.657.457-1.486 2.743-2.172 4.686-1.715 2.285.686 3.771 2.4 3.2 3.886-.457 1.486-2.743 2.171-4.686 1.486m-14.286-8.343c-1.714-1.486-2.171-3.657-1.028-4.686 1.028-1.257 3.2-1.028 4.914.686 1.486 1.486 2.057 3.771 1.029 4.686-1.029 1.257-3.2 1.028-4.915-.686m-9.714-11.429c-1.257-1.714-1.257-3.657 0-4.457 1.257-1.028 3.2-.228 4.229 1.486 1.257 1.714 1.257 3.771 0 4.686-1.029.685-2.972 0-4.229-1.715m-7.2-10.057c-1.257-1.486-1.486-3.2-.457-4 1.028-1.028 2.743-.457 4 .686 1.257 1.486 1.486 3.2.457 4-1.029 1.028-2.743.457-4-.686m-6.857-7.314c-1.486-.686-2.172-1.943-1.714-2.972.457-.685 1.714-1.028 3.2-.457 1.485.8 2.171 2.057 1.714 2.972-.457 1.028-1.943 1.257-3.2.457"/></svg>