<svg xmlns="http://www.w3.org/2000/svg" viewBox="0 0 512 512"><!--! Font Awesome Free 7.0.1 by @fontawesome - https://fontawesome.com License - https://fontawesome.com/license/free (Icons: CC BY 4.0, Fonts: SIL OFL 1.1, Code: MIT License) Copyright 2025 Fonticons, Inc.--><path fill="currentColor" d="m468.8 268.56 42.64-47.92h-49.92l-17.36 19.84-18-19.84H331.2v-12.8h44.88v-38.48H255.12v60.4h-.4c-7.68-8.8-17.2-11.84-28.32-11.84-22.72 0-39.84 15.52-45.84 35.92-14.4-47.52-77.92-46.08-97.52-11.2v-19.36H39.2v-20.96h48v-32.88H0v147.52h39.2v-62h39.12c-1.2 4.56-1.84 9.44-1.84 14.56 0 58.48 82.08 73.12 104.16 18.96h-33.6c-11.76 16.72-36.64 7.12-36.64-11.68h68.4c2.96 24.4 21.92 45.52 48.08 45.52 11.28 0 21.6-5.52 27.92-14.88h.4v9.52h169.76l17.68-20 17.84 20H512zm-357.36-13.28c4.88-21.04 33.36-20.48 37.2 0zm122.72 39.12c-27.68 0-27.2-50.24 0-50.24 26.08 0 27.6 50.24 0 50.24m134.24 15.28h-75.52v-133.2h76v24.16H324v27.12h44.4v22.48h-44.88V286h44.88zm-36.72-31.84v-19.52h44.88v-35.2l40.56 45.6-40.56 45.6v-36.48zm110.88 8.24-20.88 23.6H391.2l36.48-40.96-36.48-40.96h31.76l21.28 23.44 20.48-23.44h30.8l-36.32 40.8 36.8 41.12h-32.4z"/></svg>