<svg xmlns="http://www.w3.org/2000/svg" viewBox="0 0 512 512"><!--! Font Awesome Free 7.0.1 by @fontawesome - https://fontawesome.com License - https://fontawesome.com/license/free (Icons: CC BY 4.0, Fonts: SIL OFL 1.1, Code: MIT License) Copyright 2025 Fonticons, Inc.--><path fill="currentColor" d="M508.442 371.731c-3.557-9.627-10.254-14.754-17.893-19.044-1.465-.837-2.72-1.57-3.872-1.988-2.302-1.151-4.604-2.303-6.906-3.558-23.858-12.662-42.483-28.567-55.459-47.506-3.662-5.337-6.906-10.988-9.522-16.847-1.15-3.14-1.046-4.918-.21-6.593.838-1.255 1.78-2.302 3.035-3.139 4.081-2.72 8.372-5.441 11.197-7.325 5.127-3.348 9.208-5.964 11.72-7.743 9.835-6.801 16.637-14.126 20.927-22.288 3.035-5.65 4.709-11.824 5.128-18.207.418-6.383-.628-12.766-2.93-18.626-6.488-17.056-22.602-27.625-42.17-27.625-4.08 0-8.266.419-12.243 1.256-1.046.21-2.197.523-3.244.732.21-11.72-.104-23.962-1.15-36.1-3.663-42.693-18.626-64.981-34.218-82.875a133.9 133.9 0 0 0-34.74-27.938c-23.648-13.499-50.436-20.3-79.63-20.3-29.195 0-55.878 6.801-79.526 20.3-13.08 7.325-24.8 16.847-34.845 28.043-15.591 17.789-30.555 40.182-34.217 82.874-1.047 12.139-1.256 24.486-1.151 36.101-1.047-.314-2.093-.523-3.244-.733a60.8 60.8 0 0 0-12.243-1.255c-19.567 0-35.682 10.568-42.17 27.625-2.302 5.964-3.348 12.347-2.93 18.625.42 6.279 2.093 12.557 5.128 18.208 4.29 8.161 11.196 15.382 20.928 22.288 2.616 1.779 6.697 4.395 11.72 7.743 2.72 1.779 6.801 4.395 10.777 7.01a13.5 13.5 0 0 1 3.453 3.454c.837 1.674.837 3.558-.418 6.906a111.6 111.6 0 0 1-9.313 16.533c-12.661 18.521-30.764 34.113-53.785 46.67-12.242 6.487-25.008 10.777-30.345 25.427C0 382.823 2.72 395.38 12.975 405.948c3.767 3.976 8.162 7.22 12.976 9.836 10.045 5.546 20.718 9.732 31.705 12.662 2.302.627 4.5 1.57 6.383 2.825 3.767 3.244 3.244 8.266 8.162 15.486 2.511 3.767 5.65 7.011 9.418 9.523 10.464 7.22 22.288 7.743 34.74 8.161 11.3.419 24.067.942 38.612 5.756 6.069 1.988 12.347 5.86 19.567 10.359 17.475 10.778 41.437 25.427 81.41 25.427s64.144-14.754 81.723-25.532c7.22-4.395 13.498-8.266 19.358-10.254 14.545-4.814 27.416-5.337 38.612-5.756 12.452-.523 24.276-.941 34.74-8.161 4.395-3.035 8.058-7.011 10.674-11.72 3.557-6.07 3.557-10.36 6.906-13.394 1.883-1.256 3.871-2.197 6.069-2.72 11.196-2.93 21.974-7.22 32.229-12.766 5.127-2.721 9.731-6.383 13.603-10.674l.104-.209c9.627-10.36 12.034-22.497 8.162-33.275zm-35.577 19.149c-21.66 12.034-36.1 10.673-47.402 17.893-9.522 6.174-3.871 19.359-10.778 24.172-8.475 5.86-33.693-.419-66.132 10.36-26.787 8.894-43.948 34.321-92.082 34.321s-64.876-25.427-92.187-34.426c-32.439-10.778-57.657-4.395-66.132-10.36-6.907-4.813-1.256-17.998-10.778-24.171-11.197-7.22-25.637-5.965-47.402-17.894-13.812-7.638-5.964-12.347-1.36-14.544 78.584-38.09 91.14-96.896 91.769-101.187.627-5.232 1.464-9.417-4.395-14.754-5.65-5.232-30.555-20.614-37.461-25.427-11.406-7.953-16.429-16.01-12.766-25.741 2.616-6.802 8.894-9.313 15.591-9.313 2.093 0 4.186.209 6.278.732 12.557 2.72 24.8 9 31.81 10.673.838.21 1.675.314 2.617.314 3.767 0 5.127-1.883 4.813-6.173-.837-13.708-2.72-40.496-.628-65.505 2.93-34.426 14.022-51.482 27.207-66.55 6.383-7.22 36.1-38.717 93.024-38.717s86.537 31.183 92.815 38.403c13.184 15.068 24.276 32.124 27.206 66.55 2.198 25.01.314 51.797-.628 65.505-.314 4.5 1.047 6.173 4.814 6.173.837 0 1.779-.104 2.616-.314 7.01-1.674 19.253-7.952 31.81-10.673 2.093-.418 4.186-.732 6.278-.732 6.697 0 12.976 2.616 15.592 9.313 3.662 9.836-1.256 17.788-12.766 25.74-6.907 4.814-31.81 20.196-37.461 25.428-5.86 5.337-5.023 9.522-4.395 14.86.523 4.394 13.08 63.201 91.769 101.185 4.604 2.302 12.452 7.011-1.36 14.754z"/></svg>