<svg xmlns="http://www.w3.org/2000/svg" viewBox="0 0 512 512"><!--! Font Awesome Free 7.0.1 by @fontawesome - https://fontawesome.com License - https://fontawesome.com/license/free (Icons: CC BY 4.0, Fonts: SIL OFL 1.1, Code: MIT License) Copyright 2025 Fonticons, Inc.--><path fill="currentColor" d="M73.143 0C32.8 0 0 32.8 0 73.143v365.714C0 479.2 32.8 512 73.143 512H185.37V345.371H125.03V256h60.342v-38.514c0-99.543 45.029-145.715 142.858-145.715 18.514 0 50.514 3.658 63.657 7.315V160c-6.857-.686-18.857-1.143-33.829-1.143-48 0-66.514 18.172-66.514 65.372V256h95.543l-16.457 89.371h-79.2V512h147.428C479.2 512 512 479.2 512 438.857V73.143C512 32.8 479.2 0 438.857 0z"/></svg>