<svg xmlns="http://www.w3.org/2000/svg" viewBox="0 0 512 512"><!--! Font Awesome Free 7.0.1 by @fontawesome - https://fontawesome.com License - https://fontawesome.com/license/free (Icons: CC BY 4.0, Fonts: SIL OFL 1.1, Code: MIT License) Copyright 2025 Fonticons, Inc.--><path fill="currentColor" d="M462.578 202.756c0-7.023-4.89-10.756-13.867-10.756h-4.355v22.133h4.177c9.156 0 14.045-3.91 14.045-11.377m6.755-145.867H42.667C19.11 56.889 0 76 0 99.556v312.888C0 436 19.111 455.111 42.667 455.111h426.666C492.89 455.111 512 436 512 412.444V99.556c0-23.556-19.111-42.667-42.667-42.667m-39.2 123.467c20.09 0 47.023-3.645 47.023 21.688 0 11.2-5.867 18.4-16.623 20.623l22.934 30.577h-17.423l-19.733-29.155h-1.955v29.155h-14.223zm-49.689.088h40.267v12.445h-26.044v16.178h25.155v12.266h-25.155v19.734h26.044v12.266h-40.267zm-61.066 0 19.466 49.067 19.734-49.067h15.555l-31.555 74.845h-7.645l-31.11-74.845zm-49.69 76.623c-21.866 0-39.644-17.778-39.644-39.645 0-21.866 17.778-39.644 39.645-39.644s39.644 17.778 39.644 39.644c0 21.867-17.777 39.645-39.644 39.645M225.868 183.2v16.889c-17.867-17.867-41.6-4.178-41.6 16.889 0 22.222 24.444 34.222 41.6 17.066v16.89c-26.4 12.71-56.267-5.067-56.267-33.956 0-27.734 29.422-47.111 56.267-33.778m-86.4 58.933c10.133 0 19.91-13.6-2.934-21.689-13.333-4.888-17.955-10.133-17.955-20.177 0-20.623 27.2-27.911 44.178-12.711l-7.467 9.6c-9.245-10.312-22.133-5.512-22.133 2.222 0 3.91 2.4 6.133 10.933 9.155 16.178 5.867 20.978 11.111 20.978 22.756 0 26.222-34.49 33.244-50.311 10.044l9.155-8.8c3.289 6.311 8.8 9.6 15.556 9.6m-90.223 11.2h-20.8v-72.889h20.8c23.2 0 39.2 15.112 39.2 36.534 0 16.444-11.733 36.355-39.2 36.355m60 0H95.022v-72.889h14.222zm374.312 160c0 7.29-6.045 13.334-13.334 13.334H113.778c168.533-31.645 340.178-123.734 369.778-142.223zM65.866 198.756c-4.622-4.356-10.31-5.867-19.466-5.867h-3.733v48.178H46.4c9.156 0 15.111-1.778 19.467-5.69 5.066-4.621 7.91-11.377 7.91-18.4 0-7.021-2.844-13.777-7.91-18.221"/></svg>