<svg xmlns="http://www.w3.org/2000/svg" viewBox="0 0 512 512"><!--! Font Awesome Free 7.0.1 by @fontawesome - https://fontawesome.com License - https://fontawesome.com/license/free (Icons: CC BY 4.0, Fonts: SIL OFL 1.1, Code: MIT License) Copyright 2025 Fonticons, Inc.--><path fill="currentColor" d="M445.991 83.468c0-19.229-7.653-37.597-21.238-51.181-13.584-13.584-31.952-21.238-51.18-21.238-19.23 0-37.597 7.654-51.181 21.238-13.585 13.584-21.238 31.952-21.238 51.18 0 19.23 7.653 37.597 21.142 51.182 13.489 13.584 31.952 21.142 51.18 21.142 19.23 0 37.597-7.653 51.182-21.142 13.584-13.49 21.142-31.952 21.142-51.181h.095zM144.646 241.985c0-39.988-32.335-72.323-72.323-72.323S0 201.997 0 241.985s32.335 72.323 72.323 72.323 72.323-32.335 72.323-72.323M51.659 342.72c17.794 44.867 48.79 83.23 88.969 110.111 40.18 26.882 87.533 40.753 135.844 39.892-14.062-17.793-21.907-39.7-22.194-62.373-6.505-.861-12.723-2.01-18.655-3.253a175.05 175.05 0 0 1-70.41-32.526c-20.759-15.976-37.596-36.448-49.458-59.79-19.994 9.47-42.571 12.244-64.191 7.844zm377.973 85.908c0-39.988-32.335-72.323-72.323-72.323s-72.322 32.335-72.322 72.323 32.334 72.323 72.322 72.323 72.323-32.335 72.323-72.323m-7.749-80.55c17.698 14.158 30.23 33.674 35.588 55.677 31.856-39.51 50.32-88.203 52.424-138.906 2.105-50.703-11.958-100.831-40.37-142.924-8.228 20.568-22.96 37.884-41.902 49.363 14.733 27.36 21.908 58.165 20.951 89.16-.957 30.996-10.236 61.226-26.786 87.63zM93.848 141.25c11.862 2.583 23.246 7.175 33.578 13.68 15.88-23.151 37.214-42.189 61.991-55.486 24.777-13.298 52.425-20.377 80.55-20.76.191-5.644.861-11.384 1.913-16.932a104 104 0 0 1 20.855-43.528c-45.632-3.635-91.264 5.74-131.635 27.265s-73.758 53.955-96.239 93.847c2.583-.191 5.07-.287 7.653-.287 7.175 0 14.35.766 21.43 2.2z"/></svg>