<svg xmlns="http://www.w3.org/2000/svg" viewBox="0 0 512 512"><!--! Font Awesome Free 7.0.1 by @fontawesome - https://fontawesome.com License - https://fontawesome.com/license/free (Icons: CC BY 4.0, Fonts: SIL OFL 1.1, Code: MIT License) Copyright 2025 Fonticons, Inc.--><path fill="currentColor" d="M481.154 332.599c-24.45 94.807-97.18 149.174-208.287 153.094v-50.756c0-49.519 27.235-76.754 76.754-76.754 63.961 0 102.338-38.376 102.338-102.338 0-63.342-37.655-101.41-100.481-102.235-34.044-71.492-151.135-66.746-182.806 0-62.826.826-100.481 38.893-100.481 102.235 0 64.065 38.48 102.545 102.544 102.545 49.519 0 76.96 27.028 76.96 76.753V485.9C109.044 480.74 29.917 398.108 29.917 255.845c0-146.285 83.975-230.26 230.261-230.26 118.432 0 195.804 54.882 221.492 153.507h26.1C480.741 65.509 392.33 0 259.87 0 100.172 0 4.229 96.148 4.229 255.639 4.23 415.852 100.379 512 259.87 511.69c132.358 0 220.666-65.819 247.282-179.092zm-121.01-152.785c42.71 3.507 66.23 29.917 66.23 76.031 0 49.519-27.235 76.754-76.753 76.754-29.505 0-50.86-9.904-63.549-28.164 85.729-17.022 77.992-102.854 74.071-124.518zm-84.285 100.481c-2.58-10.626-16.816-89.752 57.978-100.069 2.373 10.42 17.022 89.856-58.081 100.069zm-15.784-152.372c29.505 0 50.55 10.006 63.342 28.473-29.298 5.674-50.962 21.251-63.548 44.773-12.586-23.625-34.25-39.202-63.549-44.773 12.792-18.26 34.353-28.267 63.549-28.267l.206-.31zm-73.762 52.303c75.516 10.936 60.763 89.546 58.287 100.069-74.69-10.11-60.866-89.752-57.977-100.069h-.207zM170.53 332.6c-49.518 0-76.753-27.235-76.753-76.754 0-45.804 23.624-72.214 66.23-76.031-7.015 38.377-1.444 109.869 73.865 124.518-12.482 18.157-33.837 28.164-63.032 28.164h-.31zm54.883 12.792a84.14 84.14 0 0 0 34.663-34.56c8.047 14.959 19.91 26.307 34.87 34.56a82.5 82.5 0 0 0-34.664 34.87c-8.253-14.96-19.704-27.03-34.663-34.87h-.31z"/></svg>