<svg xmlns="http://www.w3.org/2000/svg" viewBox="0 0 512 512"><!--! Font Awesome Free 7.0.1 by @fontawesome - https://fontawesome.com License - https://fontawesome.com/license/free (Icons: CC BY 4.0, Fonts: SIL OFL 1.1, Code: MIT License) Copyright 2025 Fonticons, Inc.--><path fill="currentColor" d="M258.653 251.09v-.792l-40.548-52.11s-9.504 1.266-19.799 11.958C191.178 217.51 6.573 399.503 5.544 400.928c-5.544 7.92 1.267 5.385 12.433 1.346.634 0 90.68-28.985 90.68-28.985.395-.475-.08-.08.475-.475-.317-4.04-.634-20.75-.792-21.938-.475-4.118 1.742-5.464 5.543-7.048l73.336-26.768c.475-.634 70.088-64.703 71.434-65.97m126.792 95.114c10.533 12.75 16.394 10.533 24.393 7.365 2.534-.95 91.391-37.697 93.292-38.727 6.336-3.405-1.346-13.225-5.702-18.531-1.663-1.98-162.43-194.505-164.093-196.643-7.682-9.662-11.325-10.216-30.412-10.137-8.078 0-84.58.396-92.263.475-15.205.08-26.055-.238-15.205 13.384 6.098 7.524 185.476 237.35 189.99 242.814m120.932 1.267c-1.821-.238-19.482-3.722-30.094-5.702 0 0-91.075 39.915-93.055 40.865-12.671 5.781-21.304-2.534-29.065-11.563l-45.22-58.604c-4.277-.713-47.835-7.603-51.715-7.366-2.456.159-7.603.634-11.405 2.297-3.88 1.663-114.992 41.815-118.952 43.32-4.039 1.584-9.028 2.851-8.79 6.019.158 1.98 1.584 2.059 3.643 2.772 2.138.633 238.3 53.536 243.922 54.724 12.355 2.613 30.49 8.315 42.45 1.346 1.662-.95 98.044-60.505 99.627-61.614 4.277-3.168 3.406-5.385-1.346-6.494"/></svg>