<svg xmlns="http://www.w3.org/2000/svg" viewBox="0 0 512 512"><!--! Font Awesome Free 7.0.1 by @fontawesome - https://fontawesome.com License - https://fontawesome.com/license/free (Icons: CC BY 4.0, Fonts: SIL OFL 1.1, Code: MIT License) Copyright 2025 Fonticons, Inc.--><path fill="currentColor" d="m253.73 213.531-34.265 17.855c-9.7-20.229-26.007-20.538-28.38-20.538-22.81 0-34.265 15.068-34.265 45.204 0 24.356 9.495 45.203 34.264 45.203 14.965 0 25.388-7.327 31.58-21.982l31.582 15.997c-6.4 11.868-26.524 40.25-67.187 40.25-23.324 0-76.372-10.63-76.372-79.468 0-60.582 44.379-79.571 74.927-79.571 31.684 0 54.39 12.28 68.115 37.05m147.583 0-33.852 17.855c-9.804-20.435-26.523-20.538-28.794-20.538-22.808 0-34.264 15.068-34.264 45.204 0 24.253 9.495 45.203 34.264 45.203 14.862 0 25.389-7.327 31.478-21.982l31.993 15.997c-2.167 3.921-22.086 40.25-67.186 40.25-23.428 0-76.372-10.218-76.372-79.468 0-60.582 44.378-79.571 74.927-79.571 31.684 0 54.286 12.28 67.702 37.05zM255.587 0C108.107 0 .052 118.789.052 256.052.052 398.887 117.292 512 255.587 512c134.063 0 256.361-104.134 256.361-255.948C511.948 113.732 401.932 0 255.588 0m.929 465.248c-116.106 0-210.229-95.98-210.229-209.3 0-108.778 88.138-209.815 210.229-209.815 116.106 0 209.3 92.368 209.3 209.815 0 125.6-102.896 209.3-209.3 209.3"/></svg>