<svg xmlns="http://www.w3.org/2000/svg" viewBox="0 0 512 512"><!--! Font Awesome Free 7.0.1 by @fontawesome - https://fontawesome.com License - https://fontawesome.com/license/free (Icons: CC BY 4.0, Fonts: SIL OFL 1.1, Code: MIT License) Copyright 2025 Fonticons, Inc.--><path fill="currentColor" d="M170.32 327.76c3.04-.08 18.24-1.12 20.48-1.76-1.92-2.08-34.88-.8-54.4-39.68-3.44-6.88-6-14.08-5.12-22.08 2.32-20.4 26.32-24 41.6-14.8 28.8 17.28 50.64 73.04 90.96 78 29.6 3.6 67.68-13.6 86.56-36.32-.48-.08-.64-.16-.8-.08-.32.08-.64.16-.88.24-26.64 9.68-75.44 7.76-107.76-11.84-30.08-18.24-42.48-46.96-41.44-59.68 1.44-17.04 18.32-18.56 28.72-15.68 11.52 3.12 19.52 14.08 31.12 21.92 12.48 8.32 26.32 10.96 41.04 8.24 11.92-2.16 27.52-9.84 29.2-11.6-.88-.08-1.44-.08-2-.16-4.96-.48-9.92-.64-14.8-1.36-88.96-13.2-103.12-130.88-202-138.48-35.44-2.72-79.52 6.48-109.04 28-.64.48-1.2.96-1.76 1.44.08.16.08.24.16.4.64 0 1.28-.08 1.92-.16 5.04-.8 10-.64 14.96.24 19.04 3.44 38.16 18.48 44.72 61.2 4.24 27.44-.56 40.64 6.4 68.88 15.2 61.68 72.8 86.08 102.16 85.12M60.24 104.24c-.72-.8-.72-.96-1.04-1.6 9.68-2.08 19.36-3.28 29.28-3.84-.88 11.76-17.76 17.04-28.24 5.44m157.52 280.4c-34.24.96-73.6-21.36-98.8-49.12-3.68-4-13.44-16.16-14.88-18.72l.32-.32c5.28 3.28 20.56 14.88 43.84 21.6 19.36 5.6 38.48 5.04 57.28-2.64 18.16-7.44 32.8-.4 34.48 2.32-14.8 3.04-16.08 3.52-19.2 6.32-4.08 3.52-3.68 9.36 5.6 13.76 20.96 9.92 50.4-2.24 77.76 20.32 1.92 1.6 6.48 6.24 8.08 8.56-.08.16-.24.24-.32.4-3.84-1.2-13.12-6-32.16-7.44-19.76-1.6-37.04 4.24-62 4.96m139.84-201.6c13.12-4.16 33.04-10.72 53.2-2.64 12.88 5.2 20.96 14.96 25.68 27.68 2.8 7.52 4.08 15.76 4.08 22.96-.16 0-.32 0-.48.08-.16-.32-.32-.72-.4-1.04-4-17.6-23.92-35.04-54.08-23.92-40.16 14.88-104.32 7.76-141.52-38.4-.56-.72-1.92-1.36-1.04-2.56.08-.16 1.68.48 2.4 1.04 14.48 10.72 30.64 17.52 48.24 20.96 24.4 4.88 43.68 2.32 63.92-4.16m82.16 94c-25.92.16-27.04 40.08-82.88 51.52-14.56 2.96-30.96 3.68-35.92 3.36v-.32c2.24-1.2 11.76-2.08 23.76-13.28 6.32-5.84 12.24-12.08 18.24-18.32 15.6-16.16 33.12-33.76 65.52-31.2 18.48 1.44 23.44 6.56 28.88 10.16.24.16.32.4.56.72-.4 0-.56.08-.72 0-5.6-2.16-11.44-2.64-17.44-2.64m-9.84-19.28c-.08.16-.08.32-.16.48-23.12-3.52-38.4-6.32-54.8 3.2-13.6 7.92-25.12 16.4-49.6 19.52-21.68 2.72-36.08 1.92-52.88-6.4-.24-.16-.48-.32-.8-.48 0-.16.08-.24.08-.4 19.92 3.04 29.12 4.08 44.4-4.64 17.84-10.32 32.08-21.28 57.04-24.8 23.68-3.28 41.04 2 56.72 13.52m-215.04-127.6c-.48-.48-.88-.96-1.68-1.84 6.08 0 23.76-.96 42.72 6.72 15.76 6.4 25.76 16.8 40.16 26.32 8.88 5.84 18.72 7.44 29.12 6.48 3.44-.32 6.8-.96 10.24-1.36q.48-.12 1.2.24c-.48.32-.96.72-1.44.96-6.48 3.2-13.36 5.04-20.48 5.68-20.88 2.08-40.24-2.96-58.72-12.32-15.44-7.92-29.12-18.32-41.12-30.88M512 320.88c-2.8 2.48-18.16 9.28-34.16 4.24-9.84-3.12-15.6-11.92-25.28-19.28-8-6.08-16.72-6.32-22.48-6.72.48-.64.72-.96.96-1.12 11.84-7.36 24.4-9.76 37.84-5.2 10 3.36 15.36 10.8 24.32 19.36 8.64 8.32 16.8 7.92 18.48 8.4.08-.08.16 0 .32.32m-170 109.6c1.76.96 1.28 1.2 1.2 1.6-14.8-1.12-27.12-6.08-37.44-17.76-17.44-19.76-33.36-22.32-38.88-23.76.4-.16.64-.32.88-.32 10.48.08 20.88.56 31.12 3.12 20.24 5.12 28 20.32 33.28 28.24 2.56 3.84 5.84 6.64 9.84 8.88"/></svg>