<svg xmlns="http://www.w3.org/2000/svg" viewBox="0 0 512 512"><!--! Font Awesome Free 7.0.1 by @fontawesome - https://fontawesome.com License - https://fontawesome.com/license/free (Icons: CC BY 4.0, Fonts: SIL OFL 1.1, Code: MIT License) Copyright 2025 Fonticons, Inc.--><path fill="currentColor" d="M330.907 41.127c1.225-13.267 21.737-14.287 37.351-8.878.919.306 26.738 9.899 19.39 15.512-28.472-7.552-57.558 18.573-56.741-6.634M125.78 48.17c31.33-8.266 63.273 20.41 62.355-7.246-1.327-14.491-23.88-15.614-41.026-9.797-1.02.306-29.289 10.716-21.329 17.043m211.454 107.768c-8.98 0-16.328 7.348-16.328 16.328s7.348 16.329 16.328 16.329 16.329-7.348 16.329-16.329c0-8.98-7.348-16.328-16.329-16.328m-162.978 0c-8.981 0-16.329 7.348-16.329 16.328s7.348 16.329 16.329 16.329c8.98 0 16.328-7.348 16.328-16.329 0-8.98-7.348-16.328-16.328-16.328m325.038 166.55c-10.103 24.493-41.535 11.226-65.211-1.224-13.778 70.519-59.293 113.687-128.893 126.75.306.918-2.042-.102 24.492 1.02 34.29 1.429 65.11-3.163 99.4-8.164-20.207-14.083-11.634-37.862-10.001-38.882 1.428-.919 15.002 1.735 22.043 11.736 8.777-12.757 28.983-15.104 30.82-13.88 1.633 1.123 6.736 21.33-7.041 35.311 4.796-.918 8.368-1.633 10-2.143 2.654-.816 18.064 11.532 3.164 13.573-14.593 2.347-23.064 5.205-48.067 11.022-46.842 10.92-87.663 12.042-120.116 13.063l1.02 11.838c3.879 18.471-23.88 24.799-28.166 6.327.816 18.267-27.656 22.248-28.983-1.02l-.51 5.408c-.715 18.778-28.983 18.268-28.881-.612-7.654 13.777-28.677 6.94-26.942-8.675l1.224-12.654c-37.453.918-60.925 3.163-63.069 3.163-21.329 0-21.329-32.248 0-32.248 2.45 0 28.27 1.326 64.498 2.857-62.354-15.818-105.829-56.129-117.259-120.626-25.513 13.062-58.68 27.35-69.6.816-10.716-25.921 21.941-43.475 68.171-74.907a332 332 0 0 1 2.756-20.206c-14.696-20.003-11.838-37.046-16.43-61.64-17.146 2.449-23.677-9.287-24.085-23.575.306-7.45 2.143-15.206 2.449-15.716 1.123-1.837 10.307-2.04 12.96-2.653 6.124-32.351 51.64-33.882 92.767-35.209 20.104-22.247 46.128-42.352 82.56-49.291-15.613-19.798-3.469-40.72-2.449-41.23 1.735-.816 21.636 4.389 26.84 23.677 5.307-8.98 18.676-11.634 20.003-10.92 1.122.612 6.531 15.308-5 26.432 41.127 3.572 73.682 25.207 97.97 51.74 36.841 1.531 73.274 6.022 78.683 34.699 2.755.612 11.838.816 12.96 2.653.307.51 2.144 8.266 2.45 15.716-.51 14.186-6.94 25.922-24.085 23.574-3.265 17.656-2.755 33.576-8.878 48.68 2.45 11.94 4.082 24.288 4.898 37.147 37.76 25.922 71.744 43.373 61.538 68.274m-276.36-166.652c.92-44.903-38.677-43.066-80.213-41.127-22.145 1.02-39.698 1.939-46.434 14.185-11.634 21.329 6.021 94.807 23.676 103.278 10.002 4.796 74.907 8.062 88.072-7.246 8.368-9.593 15.308-50.414 14.9-69.09m53.068 59.497c-4.388-12.655-6.123-30.718-15.614-33.371-2.04-.51-9.184-.51-11.226 0-10.205 2.857-11.021 22.553-17.349 37.963 15.717 0 19.697 9.9 24.187 9.9 4.388 0 6.43-11.533 20.002-14.492m138.486-86.439c-6.735-12.348-25.309-13.165-47.454-14.185-41.026-1.94-79.806-3.878-78.887 41.127-.51 18.676 5.102 59.497 13.47 69.192 13.268 15.206 78.173 12.042 88.072 7.246 16.125-7.756 37.25-80.52 24.8-103.38"/></svg>