<svg xmlns="http://www.w3.org/2000/svg" viewBox="0 0 512 512"><!--! Font Awesome Free 7.0.1 by @fontawesome - https://fontawesome.com License - https://fontawesome.com/license/free (Icons: CC BY 4.0, Fonts: SIL OFL 1.1, Code: MIT License) Copyright 2025 Fonticons, Inc.--><path fill="currentColor" d="M495.733 134.222c-2.044-5.422-8.266-8.178-13.6-5.866-5.066 2.133-7.555 7.91-5.6 12.977 9.69 25.778 15.023 53.778 15.023 82.934 0 119.644-89.156 218.4-204.623 233.51V347.823c7.023-1.333 13.778-3.2 20.445-5.51v92.444c94.844-23.023 165.244-108.534 165.244-210.49 0-81.6-45.155-152.71-111.822-189.6-5.067-2.844-11.556-.8-14.133 4.445-2.4 4.889-.534 10.845 4.177 13.422C411.2 85.956 452.09 150.311 452.09 224.267c0 82.933-51.467 153.866-124.267 182.577V324.89c12.622-4 22.134-15.733 22.134-29.778 0-11.644-6.045-21.689-15.378-27.111 7.378-70.667 39.555-52.089 39.555-74.578v-13.066c0-33.778-78.133-143.823-114.666-146.4a43 43 0 0 0-6.756 0c-36.622 2.666-114.755 112.622-114.755 146.4v13.155c0 22.489 32.266 3.822 39.555 74.578-9.422 5.422-15.378 15.467-15.378 27.111 0 14.044 9.423 25.778 22.045 29.778v81.955c-72.8-28.622-124.267-99.555-124.267-182.577 0-73.867 40.889-138.223 101.245-171.734 4.8-2.666 6.577-8.533 4.177-13.422a10.21 10.21 0 0 0-14.133-4.444c-66.667 36.888-111.822 108-111.822 189.6 0 101.955 70.4 187.377 165.244 210.488V342.4c6.756 2.222 13.422 4.089 20.445 5.511v109.956C109.689 442.756 20.444 344 20.444 224.356c0-29.156 5.334-57.156 15.023-82.934 1.955-5.155-.534-10.844-5.6-12.978-5.334-2.31-11.556.356-13.6 5.867C5.777 162.311 0 192.622 0 224.356c0 137.866 108.978 250.31 245.6 255.822v-129.69c6.044.356 13.333.445 20.8 0v129.6C403.022 474.668 512 362.223 512 224.357c0-31.734-5.778-62.045-16.267-90.134m-177.6 182.045c-11.644 0-21.066-9.423-21.066-21.067s9.422-21.067 21.066-21.067c11.645 0 21.067 9.423 21.067 21.067s-9.422 21.067-21.067 21.067m-124.266-42.223c11.644 0 21.066 9.423 21.066 21.067s-9.422 21.067-21.066 21.067c-11.645 0-21.067-9.422-21.067-21.067s9.422-21.067 21.067-21.067"/></svg>