<svg xmlns="http://www.w3.org/2000/svg" viewBox="0 0 512 512"><!--! Font Awesome Free 7.0.1 by @fontawesome - https://fontawesome.com License - https://fontawesome.com/license/free (Icons: CC BY 4.0, Fonts: SIL OFL 1.1, Code: MIT License) Copyright 2025 Fonticons, Inc.--><path fill="currentColor" d="M95.947 91.17c15.814 12.843 21.758 11.888 51.582 9.871l280.517-16.875c5.944 0 .956-5.944-.955-6.899l-46.7-33.645c-8.915-6.899-20.802-14.86-43.622-12.843L65.167 50.521c-9.87.955-11.887 5.943-7.96 9.87l38.634 30.674zm16.876 65.38v295.165c0 15.814 7.96 21.758 25.79 20.802l308.326-17.83c17.83-.956 19.847-11.888 19.847-24.73V136.809c0-12.842-4.988-19.847-15.92-18.786l-322.23 18.68c-11.886.955-15.813 6.899-15.813 19.848m304.291 15.815c2.017 8.915 0 17.83-8.915 18.892l-14.859 2.972v217.897c-12.949 6.899-24.836 10.932-34.707 10.932-15.92 0-19.847-4.988-31.734-19.847l-97.115-152.518v147.53l30.78 6.898s0 17.83-24.836 17.83l-68.352 3.928c-2.016-3.927 0-13.904 6.9-15.814l17.83-4.989V210.998l-24.73-2.016c-2.016-8.916 2.972-21.758 16.876-22.82l73.34-4.988L358.74 335.708V199.005l-25.791-2.972c-2.017-10.932 5.943-18.786 15.814-19.847l68.458-4.033zM42.348 23.775 324.882 2.971C359.59 0 368.504 2.017 390.262 17.83l90.216 63.363c14.859 10.932 19.847 13.904 19.847 25.791v347.702c0 21.757-7.96 34.706-35.662 36.616l-328.066 19.742c-20.803.955-30.78-2.017-41.605-15.814L28.55 409.048c-11.888-15.814-16.876-27.701-16.876-41.605V58.375c0-17.831 7.96-32.69 30.673-34.707z"/></svg>