<svg xmlns="http://www.w3.org/2000/svg" viewBox="0 0 512 512"><!--! Font Awesome Free 7.0.1 by @fontawesome - https://fontawesome.com License - https://fontawesome.com/license/free (Icons: CC BY 4.0, Fonts: SIL OFL 1.1, Code: MIT License) Copyright 2025 Fonticons, Inc.--><path fill="currentColor" d="M256 0C114.58 0 0 114.58 0 256s114.58 256 256 256 256-114.58 256-256S397.42 0 256 0m148.439 294.4C387.406 361.806 325.987 409.6 256 409.6s-131.406-47.794-148.439-115.2c-1.651-7.639 2.58-16.206 10.22-17.961 7.638-1.755 16.206 2.58 17.96 10.22 14.453 54.606 64 93.006 120.362 93.006s105.807-38.4 120.362-93.007c1.754-7.639 10.219-12.8 17.96-10.22 7.64 1.756 12.8 10.22 10.22 17.962z"/></svg>