<svg xmlns="http://www.w3.org/2000/svg" viewBox="0 0 512 512"><!--! Font Awesome Free 7.0.1 by @fontawesome - https://fontawesome.com License - https://fontawesome.com/license/free (Icons: CC BY 4.0, Fonts: SIL OFL 1.1, Code: MIT License) Copyright 2025 Fonticons, Inc.--><path fill="currentColor" d="M251.803 365.17c-1.546 0-97.187 132.418-97.96 132.418s-95.641-66.817-96.083-67.59 95.641-138.933 95.641-140.81c0-2.43-143.13-48.594-151.965-52.018-1.436-.552 34.678-112.428 35.01-112.76.662-.772 159.475 51.908 160.69 51.908.441 0 .993-.663 1.104-1.436.442-2.209 1.104-164.114 1.877-165.218.884-1.326 115.41-.774 116.073-.332 1.656 1.105 3.865 172.397 6.737 172.397 1.546 0 153.18-51.907 153.843-51.134.883.994 35.23 112.87 34.788 113.312-.994.994-154.837 52.017-155.278 53.895-.332 1.546 91.444 134.847 91.113 135.73-.332.884-94.427 70.13-95.31 70.13-1.105-.221-98.292-138.602-100.39-138.602z"/></svg>