<svg xmlns="http://www.w3.org/2000/svg" viewBox="0 0 512 512"><!--! Font Awesome Free 7.0.1 by @fontawesome - https://fontawesome.com License - https://fontawesome.com/license/free (Icons: CC BY 4.0, Fonts: SIL OFL 1.1, Code: MIT License) Copyright 2025 Fonticons, Inc.--><path fill="currentColor" d="M4.462 410.82C0 418.355 2.38 428.17 9.915 432.83l104.997 64.645c7.635 4.66 17.55 2.38 22.21-5.255 0-.1.099-.198.099-.198 66.528-111.244 79.814-95.083 278.506-.694 8.031 3.866 17.649.396 21.515-7.635.1-.099.1-.297.199-.396l49.97-113.128c3.57-8.031-.099-17.45-8.03-21.119-22.012-10.311-65.637-30.934-104.998-49.871C128.595 179.607 46.4 344.489 4.462 410.819m503.076-309.441c4.462-7.535 2.082-17.351-5.453-22.011L397.187 14.823c-7.436-4.958-17.45-3.074-22.408 4.362-.198.298-.396.595-.595.992-66.726 111.64-80.409 94.785-278.209.892-8.03-3.867-17.648-.397-21.515 7.634-.099.1-.099.298-.198.397l-50.07 113.128c-3.57 8.03.1 17.45 8.031 21.118 22.01 10.312 65.735 30.934 105.097 49.97C383.207 332.295 465.3 168.305 507.538 101.38"/></svg>