<svg xmlns="http://www.w3.org/2000/svg" viewBox="0 0 512 512"><!--! Font Awesome Free 7.0.1 by @fontawesome - https://fontawesome.com License - https://fontawesome.com/license/free (Icons: CC BY 4.0, Fonts: SIL OFL 1.1, Code: MIT License) Copyright 2025 Fonticons, Inc.--><path fill="currentColor" d="m223.925 511.9 30.98-38.25c12.251-.2 25.5-1.395 36.357-6.575 38.749-18.527 38.25-61.659 38.151-63.551-.1-4.98-.797-4.383-28.787-37.255h78.792c-.2 49.905-7.272 68.234-10.16 75.406-9.364 23.607-43.73 62.555-94.83 69.13-8.666 1.095-32.672 1.195-50.503 1.095m199.62-167.047c38.45 0 58.273-13.547 73.414-30.78l-174.817-.299-17.333 31.179zm-43.43-223.029V289.47h-73.214l-32.573 55.284h-6.474c-52.097 0-57.874-56.28-58.073-58.67-1.196-13.15-21.218-11.555-20.022 1.792 1.394 15.739 8.766 39.845 26.297 56.878H125.41c-25.4 0-110.369-26.695-106.584-113.556V18.727c0-15.938 9.663-16.536 14.942-16.735h81.681c.2 0 .299.1.498.1 4.283-.399 49.905-2.092 49.905 43.53 0 13.248 20.122 13.348 20.122 0 0-18.13-5.48-32.673-15.739-43.53h83.872c108.277-.399 126.008 79.09 126.008 119.732m-131.984 55.782 63.75 29.186c13.249-45.323-42.035-71.42-63.75-29.186"/></svg>