<svg xmlns="http://www.w3.org/2000/svg" viewBox="0 0 512 512"><!--! Font Awesome Free 7.0.1 by @fontawesome - https://fontawesome.com License - https://fontawesome.com/license/free (Icons: CC BY 4.0, Fonts: SIL OFL 1.1, Code: MIT License) Copyright 2025 Fonticons, Inc.--><path fill="currentColor" d="M435.233 240.704c2.529-10.035 3.508-20.232 3.508-30.512 0-75.462-61.512-136.973-136.974-136.973-62.98 0-117.966 43.237-132.977 104.26a68.96 68.96 0 0 0-45.032-16.724c-37.772 0-68.528 30.756-68.528 68.527 0 6.037.734 12.237 2.53 18.274C22.76 264.036 0 299.523 0 338.274c0 55.475 45.277 100.507 100.507 100.507h310.986c55.23 0 100.507-45.032 100.507-100.507 0-46.011-31.735-86.475-76.767-97.489zM158.022 374.74c0 6.77-5.711 12.481-12.482 12.481H120.33c-6.77 0-12.481-5.71-12.481-12.481v-90.473c0-6.772 5.71-12.482 12.481-12.482h25.209c6.771 0 12.482 5.71 12.482 12.482zm73.014 0c0 6.77-5.71 12.481-12.482 12.481h-25.208c-6.771 0-12.482-5.71-12.482-12.481V267.462c0-6.771 5.71-12.482 12.482-12.482h25.208c6.772 0 12.482 5.71 12.482 12.482zm73.015 0c0 6.77-5.71 12.481-12.482 12.481h-25.29c-6.771 0-12.482-5.71-12.482-12.481V242.009c0-6.771 5.711-12.482 12.482-12.482h25.29c6.771 0 12.482 5.71 12.482 12.482zm70.975 0c0 6.77-5.71 12.481-12.482 12.481h-23.25c-6.771 0-12.482-5.71-12.482-12.481V191.51c0-7.016 5.71-12.727 12.482-12.727h23.25c6.771 0 12.482 5.71 12.482 12.727z"/></svg>