<svg xmlns="http://www.w3.org/2000/svg" viewBox="0 0 512 512"><!--! Font Awesome Free 7.0.1 by @fontawesome - https://fontawesome.com License - https://fontawesome.com/license/free (Icons: CC BY 4.0, Fonts: SIL OFL 1.1, Code: MIT License) Copyright 2025 Fonticons, Inc.--><path fill="currentColor" d="M294.302 146.59c-54.62 2.019-190.107 17.385-190.107 131.785 0 122.813 155.114 127.86 205.809 48.453 7.29 11.44 39.704 42.059 50.807 52.49l63.706-62.809s-36.227-28.376-36.227-59.22V92.307C388.29 63.93 360.811 0 262.337 0 163.638 0 111.26 61.687 111.26 116.98l82.436 7.627c18.282-55.518 60.79-55.518 60.79-55.518 45.648-.112 39.816 33.423 39.816 77.501m0 97.353c0 89.726-94.437 76.267-94.437 19.291 0-52.938 56.64-63.593 94.437-64.827zm152.534 183.378c-8.636 11.216-78.51 75.146-195.715 75.146s-206.93-80.193-234.41-113.28c-7.626-8.636 1.122-12.674 6.17-9.309 82.21 49.91 210.631 132.122 417.787 33.984 8.412-4.15 14.917 2.243 6.168 13.459m44.64 2.467c-7.291 17.721-17.946 30.059-23.778 34.77-6.169 5.046-10.655 3.028-7.29-4.263 3.364-7.29 21.646-52.153 14.243-61.686-7.29-9.31-41.498-4.823-53.835-3.59-12.113 1.122-14.58 2.244-15.702-.336-2.58-6.393 24.338-17.384 42.059-19.628 17.609-2.018 45.985-.897 51.592 6.393 4.15 5.72 0 30.395-7.29 48.34"/></svg>