<svg xmlns="http://www.w3.org/2000/svg" viewBox="0 0 512 512"><!--! Font Awesome Free 7.0.1 by @fontawesome - https://fontawesome.com License - https://fontawesome.com/license/free (Icons: CC BY 4.0, Fonts: SIL OFL 1.1, Code: MIT License) Copyright 2025 Fonticons, Inc.--><path fill="currentColor" d="M465.829 27.429H46.4C21.143 27.429 0 48.57 0 73.829v154.514C0 370.857 113.943 484.57 256.229 484.57 397.943 484.571 512 370.857 512 228.343V73.829c0-25.6-20.229-46.4-46.171-46.4M280.686 334.286c-14.172 13.485-35.886 12.685-48.457 0-129.943-124.457-131.315-120.115-131.315-140.8 0-19.315 15.772-35.086 35.086-35.086 19.429 0 18.4 4.343 120.229 102.057C359.77 161.143 357.486 158.4 376.8 158.4s35.086 15.771 35.086 35.086c0 20.343-3.315 17.943-131.2 140.8"/></svg>