<svg xmlns="http://www.w3.org/2000/svg" viewBox="0 0 512 512"><!--! Font Awesome Free 7.0.1 by @fontawesome - https://fontawesome.com License - https://fontawesome.com/license/free (Icons: CC BY 4.0, Fonts: SIL OFL 1.1, Code: MIT License) Copyright 2025 Fonticons, Inc.--><path fill="currentColor" d="M487.648 128.35c16.667 18.064 24.352 39.622 23.254 65.571v202.006c-.4 26.348-9.182 48.006-26.448 64.973-17.167 16.967-39.024 25.85-65.373 26.648H91.821c-26.349-.799-48.106-9.781-65.173-27.147S.698 420.179 0 391.935V193.92c.798-25.95 9.681-47.507 26.648-65.572 17.067-16.268 38.724-25.25 65.173-26.049h29.342l-25.35-25.75c-5.689-5.688-8.583-12.974-8.583-21.757s2.894-16.069 8.583-21.758c5.689-5.688 12.975-8.583 21.857-8.583s16.069 2.895 21.857 8.583l73.158 69.265h87.828l74.355-69.265c6.088-5.688 13.573-8.583 22.356-8.583s16.069 2.895 21.857 8.583c5.69 5.69 8.584 12.975 8.584 21.758s-2.895 16.069-8.584 21.757l-25.25 25.75h29.243c26.348.799 47.906 9.781 64.574 26.05m-38.725 69.563c-.399-9.58-3.693-17.366-10.679-23.454-5.19-6.088-13.973-9.381-22.656-9.78H95.813c-9.581.399-17.366 3.692-23.554 9.78-6.088 6.088-9.382 13.873-9.781 23.454v194.022c0 9.182 3.294 16.966 9.78 23.454 6.488 6.487 14.373 9.78 23.555 9.78h319.775c9.182 0 16.967-3.293 23.255-9.78 6.288-6.488 9.681-14.272 10.08-23.454zM185.138 240.53c6.288 6.288 9.681 14.073 10.08 23.155v33.235c-.399 9.182-3.692 16.867-9.78 23.155-6.188 6.288-13.973 9.481-23.554 9.481s-17.466-3.193-23.554-9.481-9.382-13.973-9.781-23.155v-33.235c.4-9.082 3.793-16.867 10.08-23.155 6.288-6.288 13.175-9.581 23.255-9.98 9.182.399 16.967 3.692 23.254 9.98m191.127 0c6.288 6.288 9.681 14.073 10.08 23.155v33.235c-.399 9.182-3.692 16.867-9.78 23.155-6.089 6.288-13.973 9.481-23.554 9.481-9.582 0-17.367-3.193-23.554-9.481-6.987-6.288-9.382-13.973-9.682-23.155v-33.235c.3-9.082 3.693-16.867 9.98-23.155 6.289-6.288 14.073-9.581 23.256-9.98 9.182.399 16.966 3.692 23.254 9.98"/></svg>