<svg xmlns="http://www.w3.org/2000/svg" viewBox="0 0 512 512"><!--! Font Awesome Free 7.0.1 by @fontawesome - https://fontawesome.com License - https://fontawesome.com/license/free (Icons: CC BY 4.0, Fonts: SIL OFL 1.1, Code: MIT License) Copyright 2025 Fonticons, Inc.--><path fill="currentColor" d="M297.76 105.6c0 16.72-9.92 31.2-24.16 37.76l84.8 74.24 83.52-16.72a38.23 38.23 0 0 1-6.72-21.68c0-21.2 17.2-38.4 38.4-38.4S512 158 512 179.2c0 20.8-16.48 37.68-37.12 38.4L384.8 417.84c-8.24 18.4-26.56 30.16-46.72 30.16H173.92c-20.16 0-38.4-11.84-46.72-30.16L37.12 217.6C16.48 216.88 0 200 0 179.2c0-21.2 17.2-38.4 38.4-38.4s38.4 17.2 38.4 38.4c0 8.08-2.48 15.52-6.72 21.68l83.52 16.72 84.88-74.32c-14.16-6.64-24-21.04-24-37.68 0-22.96 18.64-41.6 41.6-41.6s41.6 18.64 41.6 41.6z"/></svg>