<svg xmlns="http://www.w3.org/2000/svg" viewBox="0 0 512 512"><!--! Font Awesome Free 7.0.1 by @fontawesome - https://fontawesome.com License - https://fontawesome.com/license/free (Icons: CC BY 4.0, Fonts: SIL OFL 1.1, Code: MIT License) Copyright 2025 Fonticons, Inc.--><path fill="currentColor" d="M130.5 70.02c-29.823 35.288-51.959 76.504-64.74 120.869 0 .185-.093.277-.093.463-36.4 15.004-61.87 50.755-61.87 92.434 0 55.201 44.828 100.029 100.03 100.029 55.2 0 100.028-44.828 100.028-100.03 0-49.55-36.029-90.674-83.357-98.639a281.4 281.4 0 0 1 66.964-102.53c1.667-1.481 3.704-2.408 5.835-2.87a211.2 211.2 0 0 1 106.327-4.817c110.495 23.248 183.942 128 168.29 239.7-7.78 57.979-35.752 104.381-81.228 140.225-46.402 36.77-99.566 50.292-157.638 48.347l-22.229-.926a318 318 0 0 0 34.825 5.835c37.696 3.89 75.392 1.945 111.236-11.577 87.062-32.88 138.28-94.75 150.877-187.555 4.446-48.718-5.372-97.62-28.527-140.781C410.026 46.032 258.315 0 136.243 65.204c-2.223 1.297-4.168 2.871-5.835 4.816zm145.043 367.421c-1.945 10.652-3.89 20.284-13.523 28.99 49.274-.926 114.107-27.045 149.858-89.933 36.77-64.741 34.825-129.575-5.835-192.463-33.806-51.219-83.172-76.319-145.042-80.209 1.39 2.13 2.964 4.076 4.817 5.835l4.816 5.835c23.247 28.99 34.825 62.889 39.641 99.566 1.945 14.541-.926 28.064-12.596 38.715-3.89 2.871-4.816 5.835-3.89 9.633l6.76 16.393 27.138 50.293c4.817 10.65 3.89 18.338-5.835 26.118a48.6 48.6 0 0 1-9.632 5.835l-17.412 7.78 2.87 12.596c2.872 5.835.927 11.578-2.87 16.394-2.316 2.223-3.52 5.465-2.872 8.706 1.945 10.652-1.945 18.339-11.577 23.248-1.945.926-3.89 4.816-4.816 6.761zm-123.74-2.87c15.468 10.65 31.954 19.357 49.274 24.173 22.228 4.816 38.715-5.835 41.586-28.064.926-7.78 4.816-13.522 11.577-16.393 6.761-3.89 7.78-6.762 1.945-12.597l-8.706-7.78 12.596-3.89c5.835-1.945 6.761-4.816 4.816-10.651-1.296-2.779-2.222-5.742-2.87-8.706-2.872-13.523-1.946-14.541 10.65-17.413 7.78-2.87 14.542-5.835 20.284-11.577 2.871-1.945 2.871-3.89.926-7.78l-15.467-28.064c-.926-1.76-1.945-3.52-2.871-5.28-5.928-10.836-12.04-21.857-14.542-34.36-1.945-8.707-.926-16.394 7.78-22.23 4.817-3.89 7.78-8.706 7.78-15.467-.37-9.355-1.389-18.802-2.87-28.064-5.836-34.825-21.303-63.814-47.422-87.988-4.816-3.89-8.706-5.835-15.467-3.89l-32.973 11.763 5.557 3.334c5.835 3.427 11.3 6.761 15.746 11.207 28.063 24.173 38.715 57.053 42.512 92.804.926 7.78 0 15.468-6.761 20.284-7.78 4.816-9.633 11.578-6.761 19.358 4.538 12.225 9.632 24.08 15.467 35.75l15.467 27.046c-5.835 7.78-12.596 10.65-20.283 13.522-11.578 2.871-13.523 6.761-9.633 19.357.556 1.39 1.297 2.594 1.945 3.89 1.945 4.817.927 7.78-3.89 9.633l-11.577 2.871 4.816 3.89 3.89 3.89c3.89 4.816 3.89 7.78-1.945 9.632-6.761 3.89-10.651 8.707-10.651 16.394 0 11.578-6.761 18.339-17.413 22.229-3.52.926-7.039 1.39-10.65.926l-31.954-1.945z"/></svg>