<svg xmlns="http://www.w3.org/2000/svg" viewBox="0 0 512 512"><!--! Font Awesome Free 7.0.1 by @fontawesome - https://fontawesome.com License - https://fontawesome.com/license/free (Icons: CC BY 4.0, Fonts: SIL OFL 1.1, Code: MIT License) Copyright 2025 Fonticons, Inc.--><path fill="currentColor" d="M511.943 147.396v-24.338l-32.564-10.055-2.514-11.883 22.966-23.652-11.883-22.166-33.135 8.57-8.227-8.57 8.57-32.221-21.824-13.255-24.338 23.995-12.225-3.656L388.77 0h-25.822l-7.085 30.165-13.825 3.656-22.51-23.995-22.166 12.569 9.255 31.65-9.255 9.598-32.564-8.57-12.569 21.824 23.652 23.995-3.313 11.883-32.564 8.912-.343 24.795 32.907 8.57 2.742 13.825-22.966 22.737 11.883 21.139 33.82-8.57 8.227 9.826-9.255 30.736L319.757 258l22.167-23.31 13.254 3.314 7.655 32.564 25.823.343 7.656-32.907 13.254-4 23.652 24.681 23.309-13.825-10.055-31.993 8.912-9.255 32.907 10.055L500.06 190.7l-23.88-21.48 2.513-13.826zM375.745 69.242c35.877 0 64.9 29.022 64.9 64.9 0 35.877-29.023 64.9-64.9 64.9s-64.9-29.023-64.9-64.9 29.022-64.9 64.9-64.9m82.61 148.538 53.588 16.568v45.59l-62.958 15.31-4.684 25.937 44.447 40.334-21.938 43.305-61.7-19.082-16.682 17.368 19.081 59.987-43.762 25.937-44.447-46.276-24.794 7.541L280.109 512l-48.446-.571-14.397-61.244-24.795-6.398-41.59 43.876-42.734-24.795 17.368-57.701-15.654-18.396-63.414 16.11-22.51-39.762 43.305-42.733-5.484-26.052-61.7-16.11.57-46.733 61.13-16.796 6.512-22.51-44.447-45.018 23.652-40.905 61.244 16.11 17.367-17.938-17.367-59.415 41.59-23.652 42.048 45.018 25.937-6.97L231.548 0h48.447l13.254 52.445-25.823-6.74-7.198-1.943-3.771 6.512-12.569 21.824-3.77 6.399 5.256 5.256 19.653 19.881-.343 1.143-27.194 7.427-7.084 1.942c0 3.656-.115 10.969-.343 22.052-54.274 11.883-95.179 60.33-95.179 118.26 0 66.613 54.045 120.773 120.773 120.773 57.702 0 105.92-40.449 117.917-94.608q16.968.172 22.966.343l1.828-7.656 6.399-27.422 2.17-.686 19.54 20.339 5.37 5.598 6.627-3.884 23.309-13.826 6.627-3.999-2.285-7.427z"/></svg>