<svg xmlns="http://www.w3.org/2000/svg" viewBox="0 0 512 512"><!--! Font Awesome Free 7.0.1 by @fontawesome - https://fontawesome.com License - https://fontawesome.com/license/free (Icons: CC BY 4.0, Fonts: SIL OFL 1.1, Code: MIT License) Copyright 2025 Fonticons, Inc.--><path fill="currentColor" d="M406.292 460.841c-43.762 32.565-96.976 50.029-151.525 49.926C113.823 510.767 0 396.738 0 256 0 115.056 114.029 1.233 254.767 1.233c62.87-.103 123.48 23.216 170.222 65.232.616.514.924 1.233 1.13 1.952.205.72.103 1.541-.308 2.26-.411.72-.822 1.336-1.541 1.644-.72.308-1.439.514-2.26.41-19.313-2.567-38.73-3.8-58.248-3.8-132.93 0-228.468 54.96-228.468 159.64 0 111.975 94.613 149.882 181.624 183.577 34.517 13.354 67.185 26.093 89.374 42.735.411.308.822.822 1.13 1.335.308.514.411 1.028.411 1.644s-.103 1.13-.41 1.644c-.309.513-.617.924-1.13 1.335h-.104zm102.215-228.366c-.103-.924-.513-1.849-1.335-2.465-53.214-44.174-96.154-62.151-148.443-62.151-86.395 0-82.491 53.624-82.491 55.062 0 43.763 53.521 63.692 115.364 86.806 31.949 11.917 64.924 24.244 95.23 40.989.41.205.924.41 1.438.41s1.027 0 1.54-.205.925-.41 1.336-.821.616-.822.822-1.233c14.485-36.983 20.032-76.841 16.436-116.392z"/></svg>