<svg xmlns="http://www.w3.org/2000/svg" viewBox="0 0 512 512"><!--! Font Awesome Free 7.0.1 by @fontawesome - https://fontawesome.com License - https://fontawesome.com/license/free (Icons: CC BY 4.0, Fonts: SIL OFL 1.1, Code: MIT License) Copyright 2025 Fonticons, Inc.--><path fill="currentColor" d="M137.257 201.486c-4.457-3.315-8.914-4.915-13.257-4.915h-19.886V316H124c4.457 0 8.914-1.6 13.257-4.914 4.343-3.315 6.629-8.343 6.629-14.972v-79.657c0-6.628-2.286-11.657-6.629-14.971M461.83 0H50.17C22.514 0 .114 22.4 0 50.057v411.886C.114 489.6 22.514 512 50.171 512H461.83c27.657 0 50.057-22.4 50.171-50.057V50.057C511.886 22.4 489.486 0 461.829 0m-285.6 296.229c0 21.485-13.258 54.057-55.315 54.057H67.886V161.143h54.171c40.457 0 54.172 32.571 54.172 54.057zm115.085-101.372H230.4v43.886h37.257v33.828H230.4v43.886h60.914v33.829H220.23c-12.8.343-23.315-9.715-23.658-22.515V184.8c-.342-12.686 9.829-23.314 22.515-23.657h72.228zm118.4 131.772c-15.085 35.085-42.057 28.114-54.171 0l-44-165.486H348.8l33.943 129.943 33.828-129.943h37.258l-44 165.486z"/></svg>