<svg xmlns="http://www.w3.org/2000/svg" viewBox="0 0 512 512"><!--! Font Awesome Free 7.0.1 by @fontawesome - https://fontawesome.com License - https://fontawesome.com/license/free (Icons: CC BY 4.0, Fonts: SIL OFL 1.1, Code: MIT License) Copyright 2025 Fonticons, Inc.--><path fill="currentColor" d="M323.399 84.642c-66.155 132.726-70.135 126.425-72.87 143.586l-4.311 27.192a65.1 65.1 0 0 1-11.358 27.689l-123.44 172.27c-6.3 8.787-16.912 13.43-27.69 12.103-33.409-4.145-64.497-26.694-79.005-56.788-4.725-9.782-3.73-21.388 2.57-30.176l123.44-172.352a65.1 65.1 0 0 1 22.55-19.648l24.29-12.85c15.337-8.124 8.042-9.865 112.415-115.15.829-3.98.829-6.052 2.984-6.632 2.487-.58 5.472-.829 5.223-3.813l-.332-3.814c-.166-1.575 1.078-2.984 2.653-2.984 3.73-.083 10.943.994 21.223 8.29 10.197 7.378 13.596 13.927 14.674 17.492.497 1.492-.498 3.067-1.99 3.482l-3.73.912c-2.82.746-2.073 3.647-1.907 6.134.082 2.322-1.907 2.985-5.389 5.057M181.472 73.451c2.818.746 2.072 3.647 1.906 6.134-.166 2.239 1.741 2.902 5.306 4.975a3559 3559 0 0 0 18.404 36.476c.58 1.078 1.907 1.244 2.736.415a2532 2532 0 0 1 33.575-35.316c1.078-1.16 1.16-2.902.083-4.062a4338 4338 0 0 0-21.223-21.638c-.829-3.896-.829-6.052-2.984-6.632-2.487-.663-5.472-.829-5.223-3.813.249-2.736 1.16-6.715-2.321-6.798-3.731-.083-10.943.912-21.223 8.29-10.197 7.378-13.596 13.927-14.674 17.492-1.16 3.482 2.985 3.814 5.638 4.477m323.233 306.984L381.347 208.083c-10.943-15.337-22.052-19.4-46.756-32.415-9.285-4.89-11.772-9.036-25.285-23.958-.83-.912-2.404-.746-2.985.414-38.383 73.617-39.046 68.643-40.622 78.591-1.409 8.87-1.077 16.58.25 24.705a65.1 65.1 0 0 0 11.357 27.689l123.44 172.352c6.3 8.788 16.746 13.43 27.44 12.187 33.41-4.063 64.664-26.529 79.337-56.87 4.477-9.866 3.565-21.472-2.818-30.343"/></svg>