<svg xmlns="http://www.w3.org/2000/svg" viewBox="0 0 512 512"><!--! Font Awesome Free 7.0.1 by @fontawesome - https://fontawesome.com License - https://fontawesome.com/license/free (Icons: CC BY 4.0, Fonts: SIL OFL 1.1, Code: MIT License) Copyright 2025 Fonticons, Inc.--><path fill="currentColor" d="M78 95.8C78 42.9 120.9 0 173.8 0h164.4C391.1 0 434 42.9 434 95.8c0 33.5-17.2 63-43.2 80.1 26 17.1 43.2 46.6 43.2 80.1 0 52.9-42.9 95.8-95.8 95.8h-2.1c-24.8 0-47.4-9.4-64.4-24.9v88.3c0 53.6-44 96.8-97.4 96.8-52.8 0-96.3-42.8-96.3-95.8 0-33.5 17.2-63 43.2-80.1C95.2 319 78 289.5 78 256s17.2-63 43.2-80.1C95.2 158.8 78 129.3 78 95.8m162.3 95.8h-66.5c-35.6 0-64.4 28.8-64.4 64.4 0 35.4 28.6 64.2 64 64.4h66.9zm31.4 64.4c0 35.6 28.8 64.4 64.4 64.4h2.1c35.6 0 64.4-28.8 64.4-64.4s-28.8-64.4-64.4-64.4h-2.1c-35.6 0-64.4 28.8-64.4 64.4m-97.9 95.8h-.4c-35.4.2-64 29-64 64.4s29.2 64.4 64.9 64.4c36.3 0 66-29.4 66-65.5v-63.4h-66.5zm0-320.4c-35.6 0-64.4 28.8-64.4 64.4s28.8 64.4 64.4 64.4h66.5V31.4zm97.9 128.8h66.5c35.6 0 64.4-28.8 64.4-64.4s-28.8-64.4-64.4-64.4h-66.5z"/></svg>