<svg xmlns="http://www.w3.org/2000/svg" viewBox="0 0 512 512"><!--! Font Awesome Free 7.0.1 by @fontawesome - https://fontawesome.com License - https://fontawesome.com/license/free (Icons: CC BY 4.0, Fonts: SIL OFL 1.1, Code: MIT License) Copyright 2025 Fonticons, Inc.--><path fill="currentColor" d="m512 416.587-153.6-87.68v69.013h-97.387c32.854-37.333 87.254-102.293 119.254-159.253 37.546-66.774 17.173-131.627-13.654-163.52C361.92 70.24 300.267 8.053 189.547 31.2c-63.04 13.227-95.36 46.293-111.254 71.787C64.32 125.28 60.16 145.44 58.88 153.867c-5.867 35.2 20.693 71.573 60.48 71.573 33.813 0 61.12-27.413 61.12-61.227 0-28.906-21.013-55.573-51.2-60.586 1.92-7.787 18.88-22.507 28.053-26.347 43.84-18.453 83.2 5.547 88.854 35.733 8.853 47.254-39.574 96.427-74.347 136.107C90.133 341.92 19.52 415.2 0 435.573l358.4-.106v68.48zM394.56 387.68l50.24 29.013-50.24 29.014zM95.36 164.107c0-13.227 10.667-23.894 23.893-23.894s23.894 10.667 23.894 23.894S132.48 188 119.253 188 95.36 177.333 95.36 164.107M88 397.813c27.307-29.226 104.213-111.68 160.853-181.226 37.44-45.974 42.987-87.894 30.294-120.214-7.894-20.053-18.667-32.213-25.92-38.08 48.32 2.24 72.533 24.96 87.68 40.854 0 0 45.226 51.413 6.186 120.853-39.466 70.293-118.293 157.333-137.066 177.813z"/></svg>