<svg xmlns="http://www.w3.org/2000/svg" viewBox="0 0 512 512"><!--! Font Awesome Free 7.0.1 by @fontawesome - https://fontawesome.com License - https://fontawesome.com/license/free (Icons: CC BY 4.0, Fonts: SIL OFL 1.1, Code: MIT License) Copyright 2025 Fonticons, Inc.--><path fill="currentColor" d="M398.444 330.87c2.2-1.099 4.399-2.298 6.498-3.698l8.297-4.798c1.499-1.1 4.398-3.399 8.696-6.697l.5-.5c3.399-3.399 7.197-4.998 11.296-4.898 1.799 0 3.898.5 6.397 1.5l30.988-27.49c.9-.7 1.7-1.3 2.599-1.8h.2c3.299-1.899 5.998-1.799 8.197.4 3.898 2.1 4.198 5.598.9 10.596l-32.588 28.39c.2.5.4.999.4 1.499.5 2.199.3 4.398-.5 6.597-.7 1.5-1.8 2.899-3.099 4.198-1.4 1.4-2.699 2.8-4.198 4.199l-18.793 13.694q-2.549 1.8-5.098 3.3a70 70 0 0 1-6.597 3.598c-1 .4-1.9.9-2.899 1.3-5.898 2.498-11.895 4.198-18.193 4.997-2.899 24.49-11.295 47.082-25.09 67.774-17.493 25.69-41.384 45.382-71.772 58.777C264.397 505.303 231.61 512 196.423 512c-48.58-.5-87.965-11.396-118.154-32.787-35.086-24.99-52.579-57.878-52.579-99.061v-5.598c1.2-28.09 9.496-54.579 24.79-79.77 15.094-24.89 37.086-41.683 66.074-50.48q22.342-6.597 44.983-6.597c15.494 0 31.588 2.899 48.081 8.597s35.186 15.494 55.878 29.488l54.08 36.286c15.093 9.796 28.788 16.494 41.183 19.992q-3.898-37.635-27.29-64.475c-15.693-18.092-35.585-31.287-59.876-39.684l-23.29-7.997q-32.088-11.245-47.682-22.191c-28.19-19.093-43.783-45.183-46.982-78.47l-.5-9.796c0-32.087 12.995-58.877 38.985-80.468C217.115 9.696 244.704 0 276.592 0c23.99 0 45.582 6.897 64.675 20.792 19.192 13.994 30.088 33.787 32.587 59.377l.5 9.996q0 27.889-14.395 47.681c-9.796 13.195-18.492 19.892-25.99 19.892q-2.398-.15-4.498-.6l-33.986 31.988c-5.498 2.999-9.197 2.5-11.096-1.6-1.9-2.198-1.8-4.897.5-8.196l.2-.2c.5-.7 1.2-1.5 1.999-2.399l31.588-29.988q-.6-2.25-.6-4.798c0-4.099 1.6-7.597 4.898-10.396 13.794-12.396 20.792-26.69 20.792-42.784 0-15.993-6.098-29.488-18.193-40.384s-28.689-16.493-49.68-16.793c-26.19 0-47.782 7.897-64.676 23.69-16.893 15.794-25.29 34.587-25.29 56.678 0 17.793 6.898 33.887 20.592 48.281 13.595 14.195 34.587 25.39 62.976 33.487 39.784 11.496 70.172 30.988 91.264 58.278 18.693 24.19 29.089 51.28 31.288 81.368 2.199-.7 4.298-1.5 6.497-2.6zM287.688 178.63c0 1.1.6 1.6 1.799 1.6.1 0 9.696-8.897 28.789-26.59 0-2.4-5.098.9-15.294 9.996-10.196 9.196-15.294 14.195-15.294 14.894zm7.996 6.398q0-1.5-1.499-1.5c-1.1 0-2.1.5-2.899 1.6-1.899-.1-3.298.1-4.198.7-.4.2-.5.5-.5.7 0 .699.5 1.299 1.5 1.599h3.298c2.899-1.1 4.398-2.2 4.398-3.3zm22.592-19.893c0-2.798-1.6-2.798-4.898 0-1.6 1.5-3.599 3.5-5.998 6.198-.8.6-2.6 2.2-5.298 4.898-2.799 2.899-4.198 4.698-4.198 5.298l.2 1.3c.7.2 1.2.4 1.499.4.1 0 3.299-2.9 9.496-8.697q9.297-8.697 9.297-9.297zM477.913 285.09l-30.588 26.99c1.8.999 3.199 2.398 3.999 4.197l30.188-26.989c.2-1.2.1-2.2-.5-2.899-.6-.5-1.6-.9-3.099-1.3m-1.6-.9-.699-.7-26.99 21.892 1.6 1.999 25.99-23.091zM360.16 363.758q-11.995-3.15-22.191-7.497-22.941-9.297-56.978-32.388l-37.385-25.29c-15.794-10.096-30.188-17.593-43.183-22.59-13.095-4.899-25.99-7.298-38.585-7.298h-5.498c-32.187 1.7-57.178 13.795-74.97 36.186-16.594 20.792-24.991 45.282-24.991 73.571 0 31.788 12.795 56.678 38.185 74.671 25.39 18.093 60.177 27.09 104.36 27.09 34.686 0 63.974-6.198 87.765-18.593q35.536-18.594 55.178-49.181c9.797-15.494 15.894-31.788 18.193-48.781z"/></svg>