<svg xmlns="http://www.w3.org/2000/svg" viewBox="0 0 512 512"><!--! Font Awesome Free 7.0.1 by @fontawesome - https://fontawesome.com License - https://fontawesome.com/license/free (Icons: CC BY 4.0, Fonts: SIL OFL 1.1, Code: MIT License) Copyright 2025 Fonticons, Inc.--><path fill="currentColor" d="M422.134 0c49.59 0 89.809 40.22 89.809 89.809v95.75c-2.171-.115-4.342-.229-6.513-.229h-.457c-11.426 0-25.48 2.742-35.535 7.77-11.426 5.256-21.367 13.14-29.708 23.537-13.482 16.682-21.595 39.192-23.537 64.443-.114.8-.114 1.485-.229 2.285-.114.8-.114 1.371-.114 2.171-.114 1.371-.114 2.743-.114 4.114 0 2.17-.114 4.342 0 6.627 1.37 57.244 32.221 103.062 87.18 103.062 3.085 0 6.056-.114 9.027-.457v23.31c0 49.588-40.22 89.808-89.809 89.808l-332.268-.114c-49.59 0-89.809-40.22-89.809-89.809V89.81C.057 40.219 40.277 0 89.866 0zM94.094 122.144l.342.114c15.082 3.428 22.624 8.456 22.624 26.737V362.89c0 18.282-7.656 23.31-22.738 26.737l-.343.115v3.199h60.33v-3.2l-.343-.114c-15.083-3.427-22.738-8.455-22.738-26.737V161.45l98.378 231.377h5.599l101.234-237.89v213.21c-1.257 14.396-8.912 18.852-22.51 21.937l-.342.115v3.085h105.005v-3.085l-.343-.115c-13.596-3.085-21.366-7.54-22.737-21.938l-.115-219.15h.115c0-18.282 7.655-23.31 22.737-26.738l.343-.114v-3.085h-82.496l-76.554 179.846-76.554-179.846H94.093zm417.849 230.12c-28.68-8.455-49.132-40.105-47.075-77.468h46.96v77.468zm-7.313-154.937c2.628 0 5.028.343 7.313 1.029v65.585H466.01c1.714-38.391 15.54-66.157 38.62-66.614"/></svg>