<svg xmlns="http://www.w3.org/2000/svg" viewBox="0 0 512 512"><!--! Font Awesome Free 7.0.1 by @fontawesome - https://fontawesome.com License - https://fontawesome.com/license/free (Icons: CC BY 4.0, Fonts: SIL OFL 1.1, Code: MIT License) Copyright 2025 Fonticons, Inc.--><path fill="currentColor" d="m108.215 240.212 99.523 48.562c19.185 9.393 16.187 37.471-4.497 42.667l-107.416 26.88q-4.796 1.197-9.592.299c-3.198-.6-6.196-1.799-8.893-3.697s-4.897-4.297-6.595-7.095c-1.699-2.798-2.698-5.895-3.098-9.193a197.2 197.2 0 0 1 8.993-85.233c1-3.098 2.698-5.895 4.896-8.293 2.199-2.399 4.896-4.197 7.894-5.496s6.195-1.799 9.493-1.799 6.395.9 9.292 2.298zm43.966 239.114c23.782 16.287 50.86 27.278 79.338 32.074 3.198.6 6.495.4 9.593-.4 3.097-.799 6.095-2.297 8.593-4.396s4.596-4.596 5.995-7.494 2.298-6.095 2.398-9.393l3.897-110.713c.7-21.283-25.48-31.875-39.769-16.088l-74.142 82.336c-2.198 2.398-3.797 5.296-4.796 8.394a22.3 22.3 0 0 0-.9 9.592c.4 3.198 1.5 6.295 3.098 9.093 1.6 2.798 3.897 5.196 6.595 6.995zM297.368 369.51l58.754 93.927c1.698 2.798 3.997 5.096 6.794 6.895 2.798 1.798 5.796 2.997 8.993 3.497s6.495.3 9.693-.5 6.095-2.398 8.593-4.396a197.5 197.5 0 0 0 52.659-67.548c1.399-2.897 2.098-6.095 2.198-9.392.1-3.298-.6-6.495-1.898-9.393-1.3-2.898-3.198-5.695-5.596-7.794s-5.196-3.897-8.293-4.896l-105.418-34.373c-20.284-6.495-37.77 15.788-26.48 33.873zm148.284-132.196c-11.491-26.48-28.678-50.161-50.36-69.246-2.399-2.099-5.297-3.697-8.394-4.697-3.098-.999-6.395-1.199-9.593-.799-3.197.4-6.295 1.499-9.093 3.197-2.797 1.7-5.096 3.997-6.894 6.695l-61.952 91.829c-11.89 17.686 4.696 40.568 25.18 34.672l106.517-30.476c3.098-.9 5.996-2.498 8.494-4.596 2.498-2.099 4.496-4.696 5.795-7.694 1.3-2.998 2.098-6.195 2.198-9.393.1-3.197-.6-6.495-1.898-9.492M127.4 30.276c-2.797 1.4-5.395 3.298-7.394 5.696-1.998 2.398-3.597 5.196-4.496 8.193-.9 2.998-1.2 6.196-.9 9.293.3 3.098 1.3 6.095 2.898 8.893l104.019 180.16c11.69 20.184 42.567 11.89 42.567-11.392V22.982c0-3.098-.6-6.295-1.799-9.193s-3.097-5.495-5.396-7.594c-2.298-2.098-4.996-3.797-7.993-4.796a24.3 24.3 0 0 0-9.293-1.2A319.9 319.9 0 0 0 127.4 30.277"/></svg>