<svg xmlns="http://www.w3.org/2000/svg" viewBox="0 0 512 512"><!--! Font Awesome Free 7.0.1 by @fontawesome - https://fontawesome.com License - https://fontawesome.com/license/free (Icons: CC BY 4.0, Fonts: SIL OFL 1.1, Code: MIT License) Copyright 2025 Fonticons, Inc.--><path fill="currentColor" d="m275.303 275.303-38.606-38.606-73.6 112.206zM256 0C114.58 0 0 114.58 0 256s114.58 256 256 256 256-114.58 256-256S397.42 0 256 0m160.826 180.439 15.277-6.297a8.4 8.4 0 0 1 3.2-.62c1.136 0 2.168.207 3.2.62s1.858 1.032 2.684 1.755 1.342 1.651 1.755 2.684a8.4 8.4 0 0 1 .62 3.2 8.4 8.4 0 0 1-.62 3.2 8.1 8.1 0 0 1-1.755 2.684 8.1 8.1 0 0 1-2.684 1.754l-15.277 6.297c-2.065.826-4.336.826-6.297 0a8.48 8.48 0 0 1-4.439-4.439c-.825-1.96-.825-4.335 0-6.296a8.48 8.48 0 0 1 4.439-4.44zM316.284 88.774l6.297-15.277c.825-2.065 2.477-3.613 4.438-4.439 1.962-.826 4.336-.826 6.297 0a8.48 8.48 0 0 1 4.439 4.439c.826 1.961.826 4.335 0 6.297l-6.297 15.277c-.826 2.064-2.477 3.613-4.439 4.439-1.96.825-4.335.825-6.296 0a8.1 8.1 0 0 1-2.684-1.755 8.1 8.1 0 0 1-1.755-2.684 8.4 8.4 0 0 1-.62-3.2c0-1.136.207-2.168.62-3.2zM256 53.677c2.168 0 4.335.826 5.884 2.375 1.548 1.548 2.374 3.716 2.374 5.883v16.517c0 2.167-.826 4.335-2.374 5.883S258.27 86.71 256 86.71s-4.335-.826-5.884-2.375c-1.548-1.548-2.374-3.612-2.374-5.883V61.935c0-2.167.826-4.335 2.374-5.883s3.716-2.375 5.884-2.375m-77.42 15.381a8.4 8.4 0 0 1 3.2-.62c1.136 0 2.168.207 3.2.62a8.1 8.1 0 0 1 2.685 1.755 8.1 8.1 0 0 1 1.754 2.684l6.297 15.277c.413 1.032.723 2.065.723 3.2a8.4 8.4 0 0 1-.62 3.2 8.1 8.1 0 0 1-1.754 2.684c-.723.723-1.652 1.445-2.684 1.858a8.4 8.4 0 0 1-3.2.62 8.4 8.4 0 0 1-3.2-.62c-1.033-.413-1.962-1.032-2.684-1.858s-1.342-1.755-1.755-2.787l-6.297-15.277c-.826-2.065-.826-4.336 0-6.297a8.48 8.48 0 0 1 4.439-4.439zM112.93 112.93c1.548-1.548 3.613-2.374 5.884-2.374 2.27 0 4.335.826 5.884 2.374l11.561 11.665c1.548 1.548 2.374 3.612 2.374 5.78s-.826 4.232-2.374 5.78c-1.548 1.55-3.613 2.375-5.884 2.375-2.27 0-4.335-.826-5.884-2.374l-11.664-11.665c-1.549-1.548-2.374-3.613-2.374-5.78s.825-4.233 2.374-5.781zM53.677 256c0-2.168.826-4.335 2.375-5.884 1.548-1.548 3.716-2.374 5.883-2.374h16.517c2.167 0 4.335.826 5.883 2.374S86.71 253.73 86.71 256s-.826 4.335-2.375 5.884c-1.548 1.548-3.612 2.374-5.883 2.374H61.935c-2.167 0-4.335-.826-5.883-2.374s-2.375-3.716-2.375-5.884m41.497 75.561-15.277 6.297a8.4 8.4 0 0 1-3.2.62 8.4 8.4 0 0 1-3.2-.62 8.1 8.1 0 0 1-2.684-1.755 8.1 8.1 0 0 1-1.755-2.684 8.4 8.4 0 0 1-.62-3.2c0-1.135.207-2.167.62-3.2a8.1 8.1 0 0 1 1.755-2.684 8.1 8.1 0 0 1 2.684-1.754l15.277-6.297c2.065-.826 4.336-.826 6.297 0a8.48 8.48 0 0 1 4.439 4.439c.825 1.96.825 4.335 0 6.296a8.48 8.48 0 0 1-4.439 4.44zm4.439-140.387a8.1 8.1 0 0 1-1.755 2.684 8.1 8.1 0 0 1-2.684 1.755 8.4 8.4 0 0 1-3.2.62 8.4 8.4 0 0 1-3.2-.62l-15.277-6.297c-2.065-.826-3.613-2.477-4.439-4.439-.826-1.96-.826-4.335 0-6.296a8.48 8.48 0 0 1 4.439-4.44c1.961-.825 4.335-.825 6.297 0l15.277 6.298c2.064.826 3.613 2.477 4.439 4.438.825 1.962.825 4.336 0 6.297zm96.103 232.052-6.297 15.277a8.1 8.1 0 0 1-1.754 2.684 8.1 8.1 0 0 1-2.684 1.755 8.4 8.4 0 0 1-3.2.62 8.4 8.4 0 0 1-3.2-.62 8.1 8.1 0 0 1-2.684-1.755 8.1 8.1 0 0 1-1.755-2.684 8.4 8.4 0 0 1-.62-3.2c0-1.135.207-2.168.62-3.2l6.297-15.277c.413-1.032 1.032-1.961 1.755-2.787s1.651-1.445 2.683-1.858a8.4 8.4 0 0 1 3.2-.62c1.136 0 2.168.207 3.2.62s1.962 1.032 2.684 1.858 1.342 1.755 1.755 2.684.62 2.064.62 3.2c0 1.135-.207 2.167-.723 3.2zm68.542 26.839c0 2.167-.826 4.335-2.374 5.883s-3.613 2.375-5.884 2.375-4.335-.826-5.884-2.375c-1.548-1.548-2.374-3.613-2.374-5.883v-16.517c0-2.167.826-4.335 2.374-5.883s3.613-2.375 5.884-2.375 4.335.826 5.884 2.375c1.548 1.548 2.374 3.612 2.374 5.883zm69.161-7.123a8.4 8.4 0 0 1-3.2.62 8.4 8.4 0 0 1-3.2-.62 8.1 8.1 0 0 1-2.684-1.755 8.1 8.1 0 0 1-1.754-2.684l-6.297-15.277c-.826-2.065-.826-4.336 0-6.297a8.48 8.48 0 0 1 4.439-4.439c1.96-.825 4.335-.825 6.296 0a8.48 8.48 0 0 1 4.44 4.439l6.296 15.277c.826 2.065.826 4.336 0 6.297a8.48 8.48 0 0 1-4.439 4.439zm65.652-43.871c-1.548 1.548-3.613 2.374-5.884 2.374-2.27 0-4.335-.826-5.884-2.374l-11.561-11.665c-1.548-1.548-2.374-3.612-2.374-5.78s.826-4.232 2.374-5.78c1.548-1.55 3.613-2.375 5.884-2.375 2.27 0 4.335.826 5.884 2.374l11.664 11.665c1.549 1.548 2.374 3.613 2.374 5.78s-.825 4.233-2.374 5.781zM287.174 287.174 105.6 406.4l119.226-181.574L406.4 105.6zm155.768 46.245c-.826 2.065-2.477 3.613-4.439 4.44-1.961.825-4.335.825-6.297 0l-15.277-6.298c-2.064-.826-3.613-2.477-4.439-4.438-.825-1.962-.825-4.336 0-6.297a8.1 8.1 0 0 1 1.755-2.684 8.1 8.1 0 0 1 2.684-1.755 8.4 8.4 0 0 1 3.2-.62c1.136 0 2.168.207 3.2.62l15.277 6.297c2.065.826 3.613 2.477 4.44 4.439.825 1.96.825 4.335 0 6.296zm7.123-69.16h-16.517c-2.167 0-4.335-.827-5.883-2.375s-2.375-3.613-2.375-5.884.826-4.335 2.375-5.884c1.548-1.548 3.612-2.374 5.883-2.374h16.517c2.167 0 4.335.826 5.883 2.374s2.375 3.613 2.375 5.884-.826 4.335-2.375 5.884c-1.548 1.548-3.613 2.374-5.883 2.374"/></svg>