<svg xmlns="http://www.w3.org/2000/svg" viewBox="0 0 512 512"><!--! Font Awesome Free 7.0.1 by @fontawesome - https://fontawesome.com License - https://fontawesome.com/license/free (Icons: CC BY 4.0, Fonts: SIL OFL 1.1, Code: MIT License) Copyright 2025 Fonticons, Inc.--><path fill="currentColor" d="M379.033 132.887s-.241 14.72-.241 16.329c-7.32-2.413-59.848-19.386-109.157-21.156-41.749-1.448-98.78-3.459-179.381 46.092-15.606 9.975-59.446 37.083-80.119 88.243C5.711 273.093 0 297.225 5.711 319.829a88.2 88.2 0 0 0 13.273 28.717c13.996 20.11 37.485 33.463 62.823 35.715 35.716 3.138 62.824-12.87 72.396-42.874 6.596-20.754 0-51.16-25.338-66.685-20.593-12.629-42.875-9.733-55.665-1.287-11.18 7.4-17.536 18.904-17.375 31.533.242 22.362 19.547 34.267 33.383 34.267 4.344 0 8.607-.724 12.71-2.172 5.228-1.448 10.698-5.228 10.698-11.985 0-9.734-9.331-11.905-13.514-11.181-2.333.402-3.62 1.608-9.492 1.93-1.609-.16-9.653-2.494-9.653-11.262v-.08c.161-9.894 10.618-14.48 20.512-13.594 25.983 2.252 38.37 32.739 22.926 52.849-14.72 19.064-61.617 18.662-80.199-16.41-20.914-39.576 10.216-89.45 69.983-79.153 26.706 4.585 67.248 28.556 82.37 83.899h36.922c-4.585-14.157-7.159-54.94 34.348-54.94 45.61 0 51.401 32.095 64.191 54.94h39.094c-10.296-14.72-17.455-31.13-15.203-44.886 4.504-27.188 31.935-14.8 66.282-13.996 53.493.322 82.13-21.719 82.934-22.523 2.976-2.494 5.228-12.71 5.63-14.238 1.046-4.103-2.573-1.93-2.573-1.93-6.999 4.182-24.535 12.226-40.944 12.548-20.352.402-61.296-20.432-65.64-22.684-.24-.322.081.965-8.848-20.512 71.11 46.896 95.16 32.578 116.8 17.455.643-.482 3.458-2.333 2.895-4.585-11.1-38.691-18.019-50.436-27.752-55.986-29.763-17.375-100.55-27.913-103.928-28.395.08-.08-.724-.242-.724.563m48.586 58.56c.563-16.732 14.56-29.763 31.29-29.2 16.732.563 29.763 14.56 29.2 31.291s-14.56 29.763-31.29 29.2c-16.732-.563-29.764-14.56-29.2-31.291m31.05-20.351a21.4 21.4 0 0 0-8.447.965c-2.735.885-5.228 2.333-7.4 4.263s-3.861 4.264-5.068 6.838-1.93 5.39-2.011 8.285a21.1 21.1 0 0 0 1.448 8.366c1.046 2.654 2.654 5.067 4.665 7.159s4.425 3.62 7.08 4.746c2.654 1.126 5.55 1.609 8.365 1.528q4.344.363 8.446-.965c2.735-.885 5.229-2.333 7.4-4.263 2.172-1.931 3.862-4.264 5.068-6.838 1.207-2.574 1.93-5.39 2.011-8.285a21.1 21.1 0 0 0-1.448-8.366c-1.045-2.654-2.654-5.068-4.665-7.159s-4.424-3.62-7.079-4.746-5.55-1.609-8.366-1.528m3.458 23.166c-12.387 0-12.387-12.548 0-12.548s12.388 12.548 0 12.548"/></svg>