<svg xmlns="http://www.w3.org/2000/svg" viewBox="0 0 512 512"><!--! Font Awesome Free 7.0.1 by @fontawesome - https://fontawesome.com License - https://fontawesome.com/license/free (Icons: CC BY 4.0, Fonts: SIL OFL 1.1, Code: MIT License) Copyright 2025 Fonticons, Inc.--><path fill="currentColor" d="M366.898 322.096c-26.4 16.764-62.723 23.412-86.714 25.918l20.137 19.847 73.514 73.515c26.882 27.556-16.861 70.624-44.031 44.032-18.403-18.692-45.381-45.67-73.515-73.804l-73.514 73.707c-27.17 26.496-70.914-16.957-43.743-44.031 18.692-18.692 45.38-45.67 73.514-73.515l19.848-19.848c-23.701-2.505-60.603-8.768-87.292-25.918-31.41-20.233-45.188-32.084-33.048-56.846 7.13-14.067 26.689-25.918 52.607-5.492 0 0 34.975 27.845 91.435 27.845s91.436-27.845 91.436-27.845c25.918-20.33 45.38-8.575 52.607 5.492 11.947 24.762-1.831 36.613-33.241 56.943m14.067-197.227c.096 68.986-55.786 125.061-124.772 125.157-68.986.097-125.062-55.786-125.158-124.772S186.821.193 255.807.096 380.87 55.883 380.965 124.87m-186.34.385c.097 33.915 27.653 61.278 61.568 61.182 33.915-.097 61.278-27.652 61.181-61.567-.096-33.915-27.652-61.278-61.567-61.182s-61.278 27.652-61.181 61.567"/></svg>