<svg xmlns="http://www.w3.org/2000/svg" viewBox="0 0 512 512"><!--! Font Awesome Free 7.0.1 by @fontawesome - https://fontawesome.com License - https://fontawesome.com/license/free (Icons: CC BY 4.0, Fonts: SIL OFL 1.1, Code: MIT License) Copyright 2025 Fonticons, Inc.--><path fill="currentColor" d="M256 0C114.58 0 0 114.58 0 256s114.58 256 256 256 256-114.58 256-256S397.42 0 256 0m138.013 148.129c-11.871.413-20.026-6.606-20.439-17.445-.31-9.497 6.916-13.832 6.71-19.51-.207-6.71-10.53-7.02-13.316-6.916-41.084 1.342-50.168 58.839-60.8 117.471 22.09 3.303 37.78-.723 46.555-6.4 12.387-7.948-3.407-16.206-1.446-25.394 4.13-18.787 33.652-19.612 33.033 5.471-.413 18.478-26.736 43.149-80.104 36.852-11.148 61.42-18.993 118.71-60.077 166.916-29.935 35.613-60.284 41.084-73.91 41.6-25.393.93-42.322-12.697-42.942-30.761-.619-17.548 14.865-27.148 25.084-27.458 22.607-.826 31.071 26.529 15.38 35.097-12.49 10.013.104 13.006 2.169 13.006 10.735-.413 17.858-5.677 22.916-9.29 24.774-20.645 34.27-56.671 46.864-122.116 8.465-51.304 17.549-80.517 18.787-84.646-17.445-13.11-27.974-29.522-51.406-35.819-16.103-4.335-25.91-.62-32.826 8.052-8.155 10.322-5.47 23.742 2.478 31.69l13.006 14.452c16 18.477 24.774 32.929 21.471 52.232-5.265 30.864-42.013 54.606-85.574 41.187-37.161-11.458-44.078-37.78-39.639-52.232 7.742-24.98 43.768-12.078 35.716 14.038-2.89 8.878-5.058 8.981-6.503 13.523-4.748 15.277 43.148 29.316 52.645-1.445 4.645-14.968-5.47-22.4-22.916-41.187-29.42-32.723-16.516-67.613 2.994-82.271 54.503-40.671 103.742 18.064 114.167 26.632C300.49 90.942 365.832 94.555 367.794 94.555c26.012-.826 45.625 10.942 46.245 29.522.206 7.949-4.336 23.33-20.13 23.846z"/></svg>