<svg xmlns="http://www.w3.org/2000/svg" viewBox="0 0 512 512"><!--! Font Awesome Free 7.0.1 by @fontawesome - https://fontawesome.com License - https://fontawesome.com/license/free (Icons: CC BY 4.0, Fonts: SIL OFL 1.1, Code: MIT License) Copyright 2025 Fonticons, Inc.--><path fill="currentColor" d="m225.453 222.098 4.632-3.274 4.632 3.274-1.678-5.43 4.553-3.434-5.67-.08-1.837-5.431-1.837 5.43-5.75.08 4.552 3.435zm50.872 0 4.632-3.274 4.632 3.274-1.677-5.43 4.552-3.434-5.75-.08-1.837-5.431-1.837 5.43-5.75.08 4.552 3.435zM203.41 262.43h-2.715c-3.833 0-3.035 3.194-3.035 9.663 0 3.754-1.837 4.872-4.632 4.872s-4.632-1.118-4.632-4.872v-29.23c0-3.753 1.837-4.871 4.632-4.871s4.632 1.118 4.632 4.872c0 5.75-.559 8.385 3.035 8.385h2.715c3.754-.08 3.035-3.114 3.035-9.823 0-7.906-5.35-11.26-13.417-11.26h-.16c-8.066 0-13.416 3.354-13.416 11.26v32.025c0 8.306 5.35 11.26 13.417 11.26h.16c8.065 0 13.416-3.034 13.416-11.26 0-7.906.879-11.021-3.035-11.021m-64.449 13.896h-11.74v-15.413h9.105c1.996 0 3.034-1.039 3.034-3.035V256.2c0-1.997-1.038-3.035-3.034-3.035h-9.105V238.55h11.5c1.997 0 3.035-1.038 3.035-3.035v-1.677c0-1.996-1.038-3.035-3.034-3.035h-17.33c-1.917-.08-2.956 1.039-2.956 3.035v47.199c0 1.997 1.039 3.035 3.035 3.035h17.49c1.997 0 3.035-1.038 3.035-3.035v-1.677c0-1.997-1.038-3.035-3.035-3.035M105.42 261.55c3.673-1.597 5.83-4.791 5.83-9.903v-9.503c0-8.066-5.351-11.26-13.417-11.26H87.13c-1.996 0-3.035 1.037-3.035 3.034v47.199c0 1.996 1.039 3.035 3.035 3.035h2.716c1.996 0 3.034-1.039 3.034-3.035v-18.289h4.473l5.91 18.768c.16.799.638 1.438 1.277 1.917.64.479 1.438.718 2.157.639h2.635c2.236 0 3.195-1.438 2.556-3.514zm-3.035-11.18c0 3.833-1.997 4.871-4.872 4.871H92.88V238.55h4.632c2.875 0 4.872 1.038 4.872 4.872zm63.49-16.851c-.079-.4-.159-.799-.319-1.118s-.479-.64-.798-.879c-.32-.24-.64-.48-1.038-.559-.4-.08-.799-.16-1.198-.08h-5.51c-.4 0-.8 0-1.119.16-.32.16-.719.32-1.038.559s-.56.559-.719.878c-.16.32-.32.72-.32 1.119l-8.784 47.278c-.4 2.157.718 3.275 2.715 3.275h2.396c.4.08.799 0 1.198-.16.4-.16.719-.32 1.038-.56q.48-.358.719-.958c.16-.399.32-.718.32-1.118l1.437-9.024h9.743l1.438 9.024c0 .4.16.799.32 1.118.159.32.398.72.718.959.32.24.639.479 1.038.559.4.08.799.16 1.198.16h2.795c2.077 0 3.115-1.118 2.716-3.275zm-9.822 31.386 3.753-23.72 3.754 23.72zm71.317 16.132V238.55h5.99c1.996 0 3.035-1.038 3.035-3.035v-1.677c0-1.996-1.039-3.035-3.035-3.035h-20.605c-1.996 0-3.034 1.039-3.034 3.035v1.677c0 1.997 1.038 3.035 3.034 3.035h5.83v42.487c0 1.997 1.039 3.035 3.035 3.035h2.715c1.997 0 3.035-1.038 3.035-3.035m198.06-.639h-15.494v-21.323h12.858c.24 0 .4 0 .64-.08.239-.08.399-.16.558-.32s.24-.319.32-.559.08-.399.08-.639v-.638c0-.24 0-.4-.08-.64-.08-.239-.16-.399-.32-.558s-.32-.24-.559-.32-.4-.08-.639-.08h-12.858v-20.604h15.254c.24 0 .4 0 .64-.08.239-.08.398-.16.558-.32s.24-.319.32-.559.08-.399.08-.639v-.638c0-.24 0-.4-.08-.64-.08-.239-.16-.399-.32-.558s-.32-.24-.559-.32-.4-.08-.639-.08h-17.73a.88.88 0 0 0-.638 0c-.24.08-.4.16-.56.32-.159.16-.239.32-.319.559s-.08.4-.08.639v50.313c0 .24 0 .4.08.64.08.239.16.398.32.478s.32.24.559.32.4.08.639.08h17.969c.24 0 .4 0 .639-.08.24-.08.399-.16.559-.32s.24-.32.32-.479c.079-.16.079-.4.079-.639v-.639c0-.24 0-.399-.08-.639s-.16-.399-.32-.559c-.159-.16-.319-.24-.558-.32-.24-.079-.4-.079-.64-.079m-74.352-50.234h-.64c-8.065 0-12.218 3.754-12.218 11.261v32.025c0 7.427 4.153 11.26 12.219 11.26h.639c8.066 0 12.219-3.833 12.219-11.26v-32.025c0-7.507-4.153-11.26-12.22-11.26m8.146 41.848c-.08 6.39-2.396 8.865-8.386 8.865s-8.386-2.476-8.386-8.865v-29.23c0-6.308 2.396-8.864 8.386-8.864s8.386 2.556 8.386 8.865zm-37.137-11.58c4.872-1.277 7.348-4.871 7.348-10.621v-7.747c0-7.507-4.153-11.26-12.22-11.26h-10.94c-.24 0-.4 0-.64.08-.239.079-.399.159-.558.319s-.24.32-.32.479c-.08.16-.08.4-.08.639v50.313c0 .24 0 .4.08.64.08.239.16.398.32.478s.32.24.559.32.399.08.639.08h.958c.24 0 .4 0 .639-.08.24-.08.4-.16.479-.32.08-.16.24-.32.32-.479.08-.16.08-.4.08-.639v-21.483h9.263l8.306 21.723c.16.4.4.719.719.878.32.16.719.32 1.118.32h1.198c1.118 0 1.597-.799 1.198-1.837zm-5.11-3.114h-8.147v-22.761h8.146c5.99 0 8.386 2.476 8.386 8.865v5.11c0 6.23-2.396 8.786-8.386 8.786m68.601-26.435h-10.94a.88.88 0 0 0-.64 0c-.24.08-.4.16-.559.32s-.24.32-.32.559-.08.399-.08.639v50.313c0 .24 0 .4.08.639.08.24.16.4.32.48s.32.239.56.319c.239.08.399.08.638.08h.958c.24 0 .4 0 .64-.08.239-.08.399-.16.479-.32s.24-.32.319-.479c.08-.16.08-.4.08-.639V261.87h8.465c8.066 0 12.22-3.834 12.22-11.26v-8.386c0-7.507-4.154-11.261-12.22-11.261zm8.146 18.209c0 6.309-2.396 8.865-8.385 8.865h-8.146v-23.32h8.146c5.99-.08 8.385 2.475 8.385 8.785zM232.56 299.006l-1.837-5.43-1.836 5.43-5.67.08 4.552 3.434-1.678 5.43 4.632-3.274 4.632 3.275-1.677-5.431 4.553-3.434zm181.768-108.693c-9.344-3.514-18.768-6.469-28.431-9.025 15.653-62.293 9.264-107.575-17.81-122.908-27.552-15.494-68.602 3.434-110.37 44.084q4.072 3.952 8.146 8.146c65.887-63.89 95.516-42.727 96.554-42.168 17.89 10.143 28.75 44.564 12.379 110.051-22.202-5.111-44.803-8.545-67.564-10.382C249.81 87.85 194.945 54.626 161.722 54.626c-24.598 0-34.98 16.771-38.015 22.122-14.455 25.556-10.621 67.245.08 106.856-56.303 16.213-96.394 43.206-96.075 75.87.4 47.598 82.419 70.12 97.513 74.113-16.372 65.407-8.066 108.294 17.81 122.908 22.36 12.619 59.976 4.792 110.37-44.084a392 392 0 0 1-8.147-8.146c-65.886 63.89-95.595 42.727-96.554 42.168-17.809-10.063-28.75-44.404-12.378-110.131 9.903 2.316 33.382 7.587 67.564 10.382 57.42 80.182 112.287 113.405 145.43 113.405 24.597 0 34.98-16.771 38.014-22.122 14.376-25.476 10.622-67.164-.08-106.856C508.885 296.13 512 227.13 414.328 190.313M133.85 82.418c2.316-4.073 9.504-16.212 27.872-16.212 29.39 0 78.904 31.626 130.416 100.787a559 559 0 0 0-74.991.719 446 446 0 0 1 33.702-41.848 392 392 0 0 0-8.146-8.146 482 482 0 0 0-40.49 51.272 447 447 0 0 0-67.405 11.66c-.16-1.119-19.406-65.648-.958-98.232m243.422 350.039c-2.316 4.073-9.424 16.212-27.873 16.212-29.31 0-78.824-31.466-130.415-100.787a559 559 0 0 0 74.99-.719 446 446 0 0 1-33.701 41.848q4.072 4.193 8.146 8.146c14.694-16.132 28.191-33.302 40.49-51.271 37.775-3.754 64.13-10.782 67.404-11.66 18.13 67.404 3.594 93.439.959 98.23m7.267-110.69c-2.875-9.504-6.15-19.247-9.903-29.07-1.677 0-3.354-.4-4.872-1.198-1.517-.799-2.795-1.917-3.673-3.354l-.08.08a15.7 15.7 0 0 1-4.313 2.875c4.553 11.42 8.466 22.68 11.74 33.702-18.927 4.792-38.094 8.226-57.501 10.382 2.795-4.233 13.736-20.924 25.716-43.286-1.677-.639-3.354-1.517-4.792-2.555-.878.958-2.875 3.354-8.705 3.354a560 560 0 0 1-27.073 44.084c-29.87 2.636-59.898 2.875-89.766.799-6.31-8.945-17.17-24.838-29.39-46.16a17 17 0 0 1-2.396-1.199c-1.517 1.278-3.114 2.556-10.062 2.556 5.031 8.944 13.976 24.518 26.993 43.605a440 440 0 0 1-57.66-9.344q4.671-16.77 11.26-34.261c-2.556 0-4.313.16-6.708-.799-1.757.64-3.674.879-5.51.799a421 421 0 0 0-10.143 31.466C0 290.22 15.653 225.533 126.503 193.268c2.875 9.503 6.149 19.247 9.903 29.07 8.305 0 10.302 2.715 11.5 4.233.559-.64 1.118-1.278 1.837-1.757-4.632-11.74-8.705-23.32-12.14-34.581 5.59-1.437 25.876-6.708 57.502-10.382-12.699 19.407-21.324 35.06-26.195 44.164 2.475 1.438 4.232 3.674 5.11 6.389 1.997-2.955 4.873-5.27 8.147-6.708 5.191-9.344 14.295-25.477 27.792-45.442 29.869-2.636 59.897-2.875 89.766-.799 25.157 35.619 23.08 38.414 33.942 51.511 2.076-2.795 5.03-4.791 8.305-5.91-5.111-9.104-14.056-24.757-27.393-44.323 32.265 3.274 51.911 7.986 57.661 9.344-3.194 11.5-7.108 23.32-11.66 35.3 1.997.798 3.834 1.916 5.43 3.433l.08.08a11 11 0 0 1 3.036-3.035c1.198-.798 2.635-1.278 4.073-1.437 3.913-10.702 7.347-21.244 10.222-31.546 9.344 2.476 18.528 5.43 27.553 8.785 84.734 31.865 59.098 70.2 57.98 72.196-15.813 28.032-63.97 44.084-84.415 49.914m-91.363-91.044h-.958c-.24 0-.4 0-.64.08-.239.08-.398.16-.478.32s-.24.32-.32.479c-.08.16-.08.4-.08.639v39.771c0 6.31-2.076 8.865-8.066 8.865s-8.066-2.476-8.066-8.865v-39.771c0-.24 0-.4-.08-.64-.08-.239-.16-.398-.32-.558-.159-.16-.319-.24-.558-.32s-.4-.08-.64-.08h-.958c-.24 0-.399 0-.638.08-.24.08-.4.16-.56.32s-.24.32-.319.48-.08.398-.08.638v41.13c0 7.666 3.993 11.26 12.06 11.26h.319c8.066 0 12.06-3.674 12.06-11.26v-41.13c0-.24-.08-.4-.16-.639a.82.82 0 0 0-.4-.48c-.16-.079-.32-.239-.559-.319s-.4-.08-.639-.08zm-10.941 68.283-1.837-5.43-1.837 5.43-5.67.08 4.552 3.434-1.677 5.43 4.632-3.274 4.632 3.275-1.677-5.431 4.552-3.434zm-24.837 5.91-1.837-5.43-1.837 5.43-5.67.08 4.552 3.434-1.677 5.43 4.632-3.274 4.632 3.275-1.677-5.431 4.552-3.434zm4.073-24.598h-15.494v-21.323h12.858c.24 0 .4 0 .639-.08.24-.08.4-.16.56-.32.159-.16.239-.319.319-.559s.08-.399.08-.638v-.64c0-.239 0-.399-.08-.638-.08-.24-.16-.4-.32-.56-.16-.159-.32-.239-.559-.319s-.4-.08-.639-.08h-12.858v-20.604h15.254c.24 0 .4 0 .639-.08.24-.08.4-.16.559-.32s.24-.319.32-.558.08-.4.08-.64v-.638c0-.24 0-.4-.08-.64-.08-.239-.16-.399-.32-.558s-.32-.24-.56-.32c-.239-.08-.398-.08-.638-.08h-17.73c-.24 0-.399 0-.638.08-.24.08-.4.16-.56.32s-.239.32-.319.479c-.08.16-.08.4-.08.639v50.313c0 .24 0 .4.08.64.08.239.16.399.32.478.16.08.319.24.559.32s.399.08.638.08h17.97c.24 0 .399 0 .638-.08.24-.08.4-.16.56-.32s.24-.319.319-.559.08-.399.08-.639v-.638c0-.24 0-.48-.08-.64-.08-.159-.16-.399-.32-.558s-.319-.32-.559-.32-.399-.08-.638-.08zm-5.91-79.383-1.837 5.43-5.67.08 4.552 3.434-1.677 5.43 4.632-3.273 4.632 3.274-1.677-5.43 4.552-3.435-5.67-.08z"/></svg>