<svg xmlns="http://www.w3.org/2000/svg" viewBox="0 0 512 512"><!--! Font Awesome Free 7.0.1 by @fontawesome - https://fontawesome.com License - https://fontawesome.com/license/free (Icons: CC BY 4.0, Fonts: SIL OFL 1.1, Code: MIT License) Copyright 2025 Fonticons, Inc.--><path fill="currentColor" d="M188.591 340.129c-9.348 9.347-9.348 24.38 0 33.632s24.381 9.251 33.632 0L373.81 222.368c18.6-18.6 48.762-18.6 67.361 0 18.599 18.599 18.599 48.762 0 67.36L292.571 438.232c18.6 18.599 48.666 18.599 67.265 0l114.966-114.87c37.198-37.198 37.198-97.428 0-134.625s-97.524-37.198-134.625 0zm235.715-100.993c-9.348-9.348-24.381-9.348-33.633 0l-151.585 151.49c-18.6 18.598-48.666 18.598-67.265 0-9.251-9.252-24.38-9.348-33.632 0-9.348 9.25-9.348 24.38 0 33.631 37.198 37.198 97.427 37.198 134.625 0l151.49-151.393c9.25-9.347 9.25-24.38 0-33.632zm-252.483 84.128 151.49-151.393c9.25-9.251 9.25-24.38 0-33.632-9.252-9.251-24.381-9.251-33.633 0L138.094 289.632c-18.598 18.6-48.761 18.6-67.36 0-18.6-18.599-18.6-48.665 0-67.264L219.332 73.769c-18.599-18.599-48.665-18.599-67.264 0L37.198 188.736C0 225.933 0 286.163 37.198 323.36s97.427 37.198 134.625 0zm-84.225-50.4c9.251 9.252 24.38 9.252 33.632 0l151.586-151.49c18.599-18.598 48.762-18.598 67.265 0 9.347 9.252 24.38 9.252 33.632 0 9.251-9.25 9.251-24.38 0-33.631-37.198-37.198-97.428-37.198-134.625 0L87.598 239.136c-9.251 9.251-9.251 24.38 0 33.632z"/></svg>