<svg xmlns="http://www.w3.org/2000/svg" viewBox="0 0 512 512"><!--! Font Awesome Free 7.0.1 by @fontawesome - https://fontawesome.com License - https://fontawesome.com/license/free (Icons: CC BY 4.0, Fonts: SIL OFL 1.1, Code: MIT License) Copyright 2025 Fonticons, Inc.--><path fill="currentColor" d="M97.422 54.26a51.5 51.5 0 0 0-15.919-14.013c-6.166-3.475-13.117-5.718-20.292-6.39-7.175-.673-14.35.112-21.076 2.466S27.13 42.265 21.86 47.086C2.131 65.247.561 95.853 16.48 117.49l102.916 137.893L15.919 394.51C0 416.147 1.233 446.753 21.19 464.914c5.269 4.821 11.547 8.52 18.273 10.763 6.727 2.242 14.014 3.139 21.077 2.466 7.062-.672 14.013-2.803 20.291-6.39s11.66-8.296 15.92-14.014l144.508-194.284c1.681-2.354 2.578-5.157 2.578-7.96s-.897-5.605-2.578-7.96zm398.659 340.25L392.604 255.383 495.52 117.49c15.92-21.525 14.35-52.243-5.27-70.404-5.268-4.821-11.546-8.52-18.273-10.763-6.726-2.242-14.013-3.139-21.076-2.466s-14.014 2.803-20.292 6.39-11.66 8.296-15.92 14.014L271.192 247.199c-1.682 2.355-2.579 5.157-2.579 7.96s.897 5.606 2.579 7.96l143.947 194.508a51.5 51.5 0 0 0 15.92 14.014c6.166 3.475 13.116 5.717 20.291 6.39s14.35-.112 21.077-2.466c6.726-2.355 13.004-5.942 18.273-10.763 19.956-18.161 21.301-48.767 5.27-70.404z"/></svg>