<svg xmlns="http://www.w3.org/2000/svg" viewBox="0 0 512 512"><!--! Font Awesome Free 7.0.1 by @fontawesome - https://fontawesome.com License - https://fontawesome.com/license/free (Icons: CC BY 4.0, Fonts: SIL OFL 1.1, Code: MIT License) Copyright 2025 Fonticons, Inc.--><path fill="currentColor" d="M215.915 245.569c-2.916-1.822-5.74-2.642-9.202-2.642-6.013 0-11.479 2.915-17.583 3.37l1.549 4.465zm123.809 180.293c-17.31 0-58.397 8.655-72.792 18.038l6.287 41.088c32.523 5.557 63.863 3.28 96.569-8.928-4.373-9.11-21.41-50.198-30.064-50.198m-35.622-243.155c6.013 2.551 10.477 8.382 20.68 20.134 1.823-1.275 6.834-4.737 6.834-7.835 0-4.464-10.75-12.025-12.026-20.953 10.204-5.193 22.958-5.467 34.255-8.109 62.041-14.94 105.953-48.193 133.74-106.317 5.557-11.479 10.75-23.505 11.296-36.35l-1.822 2.369c-25.873 45.551-30.064 57.577-74.067 91.103-29.062 22.229-63.043 36.623-97.116 49.742l-5.74-.273v-19.86c-17.856 1.457-17.947-13.302-28.788-20.954-17.036 18.767-28.789 37.17-53.66 46.553-11.57 4.373-17.856 9.11-23.595 19.86 31.795-14.94 83.086-12.298 90.01-9.11m195.6-161.252-.548 1.002-.273.82.547-.547zM445.767 369.56c-30.884-51.838-68.6-107.866-136.655-105.224l-.273-5.466c-1.002-12.3 29.882 2.915 31.977-28.242l-13.119 6.56c-18.038-41.635-7.835-49.47-59.672-49.47-13.393 0-24.325 1.549-37.717 4.19 2.642 16.946 2.004 33.436-9.93 45.826l17.765 5.01c-1.549 2.916-2.642 5.74-2.642 8.929 0 19.131 38.992 2.642 38.992 30.61 0 16.763-33.526 54.753-50.016 54.753-7.288 0-48.922-45.551-48.649-54.753l.273-4.19 47.647-10.477c11.844-2.369 11.206-20.68-2.642-20.68-3.37 0-39.265 8.38-45.005 9.656-1.822-4.737-6.832-12.845-12.572-12.845-2.915 0-5.74 2.915-8.655 3.644-8.381 2.368-28.242 2.642-19.587 18.311L8.108 293.398C3.098 294.4 0 299.138 0 304.148c0 5.466 5.01 9.93 10.477 9.93 7.288 0 119.618-25.873 134.286-29.335 2.369 2.915 4.19 5.74 7.106 7.835 18.312 13.119 54.48 78.258 69.603 78.258 21.956 0 52.84-20.408 64.956-38.173 2.916-3.917 6.287-6.832 11.297-6.286.547 12.572-28.788 31.158-30.064 39.812-1.275 9.293-.91 32.069-.273 37.444 24.324 7.38 47.374-3.28 70.97-2.642 3.917-19.132 9.656-38.172 8.927-57.85l-.273-8.656c-1.275-31.157-9.93-35.074-31.704-53.386-1.002-1.002-2.368-2.369-3.37-3.644 2.004-1.276 1.002-.911 4.19-1.549 80.626 0 51.291 167.266 101.58 209.446 30.155-13.665 66.05-25.417 94.292-43-26.42-23.323-47.92-41.635-66.232-72.792M267.023 411.56v24.78l10.75-3.098-2.641-21.682zm-62.587-137.02 21.955 55.756 19.132-12.573-28.515-46.371zm76.89 141.12 1.823 11.296c8.199-1.366 53.204-6.013 53.204-12.845 0-1.276-.547-2.916-.82-4.191-24.416 0-33.617 3.462-54.206 5.74"/></svg>