<svg xmlns="http://www.w3.org/2000/svg" viewBox="0 0 512 512"><!--! Font Awesome Free 7.0.1 by @fontawesome - https://fontawesome.com License - https://fontawesome.com/license/free (Icons: CC BY 4.0, Fonts: SIL OFL 1.1, Code: MIT License) Copyright 2025 Fonticons, Inc.--><path fill="currentColor" d="M156.299 490.053c1.384 19.673-27.286 21.947-29.362 2.867-11.468-128.42 30.746-236.772 100.245-309.632-15.422-33.613 9.095-76.222 50.024-76.222 29.954 0 54.472 24.32 54.472 54.473 0 43.498-48.936 69.993-85.91 44.586-64.952 70.487-100.245 167.865-89.47 283.928M274.635 0C150.17 0 72.663 132.671 128.025 239.54c8.6 17.201 34.898 4.448 26-13.248-45.772-91.545 20.76-196.93 120.61-196.93 74.541 0 135.34 60.7 135.34 135.34 0 89.766-85.91 152.147-165.789 131.584-18.882-4.054-25.308 24.122-6.525 28.768 109.44 22.936 201.676-59.316 201.676-160.45C439.337 73.75 365.587 0 274.635 0"/></svg>