<svg xmlns="http://www.w3.org/2000/svg" viewBox="0 0 512 512"><!--! Font Awesome Free 7.0.1 by @fontawesome - https://fontawesome.com License - https://fontawesome.com/license/free (Icons: CC BY 4.0, Fonts: SIL OFL 1.1, Code: MIT License) Copyright 2025 Fonticons, Inc.--><path fill="currentColor" d="M73.143 36.571c-20.229 0-36.572 16.343-36.572 36.572v365.714c0 20.229 16.343 36.572 36.572 36.572h365.714c20.229 0 36.572-16.343 36.572-36.572V73.143c0-20.229-16.343-36.572-36.572-36.572zM0 73.143C0 32.8 32.8 0 73.143 0h365.714C479.2 0 512 32.8 512 73.143v365.714C512 479.2 479.2 512 438.857 512H73.143C32.8 512 0 479.2 0 438.857zm176 66.286c0 10.628-5.486 19.885-13.829 25.142h215.886c8.343 0 15.086 6.743 15.086 15.086 0 2.057-.457 4.229-1.257 6.172l-35.315 79.314 35.315 79.314c.914 1.943 1.257 4 1.257 6.172 0 8.342-6.743 15.085-15.086 15.085H164.571v36.572H128V162.857c-6.971-5.486-11.429-13.943-11.429-23.428 0-16.458 13.258-29.715 29.715-29.715S176 122.971 176 139.43"/></svg>