<svg xmlns="http://www.w3.org/2000/svg" viewBox="0 0 512 512"><!--! Font Awesome Free 7.0.1 by @fontawesome - https://fontawesome.com License - https://fontawesome.com/license/free (Icons: CC BY 4.0, Fonts: SIL OFL 1.1, Code: MIT License) Copyright 2025 Fonticons, Inc.--><path fill="currentColor" d="M200.81 177.464c0-1.516-.719-2.235-2.235-2.235H165.93c-1.277 0-2.155 1.118-2.155 2.235v161.063c0 1.117.878 2.234 2.155 2.234h32.644c1.516 0 2.234-.718 2.234-2.234zm-75.903 8.3c-12.85-9.417-28.972-14.286-48.127-14.366-14.446-.08-27.615 2.953-39.747 9.099v-64.808c0-1.437-.718-2.155-2.235-2.155H2.155Q0 113.534 0 115.689v222.838c0 1.516.718 2.234 2.155 2.234h32.723c1.517 0 2.235-.718 2.235-2.234V229.9c0-.638-2.235-21.55 36.554-21.55 38.71 0 36.555 20.832 36.555 21.55v97.85c0 7.184 5.826 13.01 13.089 13.01H145.1c1.437 0 2.155-.718 2.155-2.234V229.9c0-18.676-7.423-33.362-22.348-44.136m381.825 87.875c-5.427-12.531-14.685-21.55-27.854-27.217l-45.973-20.192c-6.864-2.873-7.342-8.94-2.075-12.85 5.906-4.39 35.357-11.094 67.043 5.427 1.357.798 3.193-.24 3.193-1.915v-35.677c0-1.037-.48-1.676-1.517-2.075-14.127-5.268-28.812-7.901-43.977-7.901-21.15 0-36.155 4.629-46.69 12.29-.4.32-22.667 15.963-18.118 42.86 2.714 15.644 12.61 27.296 29.69 34.799l42.78 18.756c9.259 4.07 12.132 10.615 9.737 16.92-2.953 7.263-10.535 10.855-29.131 10.855-19.395 0-35.677-7.104-46.611-15.244-1.676-1.118-3.512.16-3.512 1.835v27.456c0 8.3 3.911 13.807 11.653 16.521 12.45 4.39 25.22 6.545 38.47 6.545 10.136 0 20.591-.958 28.972-3.432.559-.24 28.733-7.104 36.395-36.554 2.793-10.775 1.915-21.15-2.475-31.207m-206.476-102.4c-25.3 0-83.165 16.042-83.165 82.606v146.457c0 .638.48 2.155 2.155 2.155h32.644c1.516 0 2.234-.719 2.234-2.155v-70.874c13.17 10.136 28.573 15.244 46.052 15.244 48.287 0 86.757-38.71 86.757-86.756.08-48.128-38.47-86.677-86.677-86.677m0 37.192c18.198-.718 35.357 8.54 44.616 24.184 9.338 15.643 9.338 35.197 0 50.84-9.259 15.644-26.418 24.902-44.616 24.184-18.197.718-35.357-8.54-44.615-24.183-9.338-15.644-9.338-35.198 0-50.841 9.258-15.644 26.418-24.902 44.615-24.184m-118.043-98.888c-12.69 0-22.986 10.296-23.066 23.066 0 12.451 10.136 23.066 23.066 23.066s23.066-10.455 23.066-23.066c0-12.93-10.376-23.066-23.066-23.066"/></svg>