<svg xmlns="http://www.w3.org/2000/svg" viewBox="0 0 512 512"><!--! Font Awesome Free 7.0.1 by @fontawesome - https://fontawesome.com License - https://fontawesome.com/license/free (Icons: CC BY 4.0, Fonts: SIL OFL 1.1, Code: MIT License) Copyright 2025 Fonticons, Inc.--><path fill="currentColor" d="M153.56 238.039c-7.599-8.093-19.441-7.6-24.474 2.763L4.934 488.512C0 498.381 7.303 509.928 18.16 509.928h172.706a14.23 14.23 0 0 0 13.224-8.29c37.404-76.78 14.903-193.727-50.528-263.6M244.553 12.73c-120.697 190.865-8.389 344.03 64.148 489.005 2.467 5.033 7.6 8.29 13.224 8.29h171.917c11.053 0 18.159-11.645 13.225-21.415 0 0-231.427-464.432-237.25-475.979-5.23-10.46-18.553-10.658-25.264.099"/></svg>