<svg xmlns="http://www.w3.org/2000/svg" viewBox="0 0 512 512"><!--! Font Awesome Free 7.0.1 by @fontawesome - https://fontawesome.com License - https://fontawesome.com/license/free (Icons: CC BY 4.0, Fonts: SIL OFL 1.1, Code: MIT License) Copyright 2025 Fonticons, Inc.--><path fill="currentColor" d="M144.422 305.448c-5.93-12.955-6.295-16.695 6.751-21.075 23.356-7.298 7.299 8.394 39.413 44.887h.274v-85.668c1.094-45.799 40.142-84.117 89.134-84.117 49.175 0 89.135 39.687 89.135 88.314 0 57.842-55.47 103.276-117.234 85.12-9.58-3.831-1.916-28.92 7.754-26.092 48.354 0 81.563-9.215 81.563-58.754 0-55.652-70.341-81.745-106.652-40.69-21.44 24.085-16.057 38.409-16.057 143.783 46.255 28.282 107.929 20.071 146.338-18.338 22.626-22.626 35.125-52.915 35.125-84.847 0-32.114-12.59-62.22-35.399-85.12-22.625-22.626-52.732-35.125-85.12-35.125s-62.768 12.59-85.303 35.125c-.274.274-14.597 15.053-19.341 21.805l-.457.547c-3.01 4.288-5.747 8.302-18.337 5.565-6.296-1.55-13.047-5.291-13.047-10.765V9.579c0-4.561 3.558-9.579 9.58-9.579h220.145c7.572 0 7.572 10.583 7.572 13.776 0 3.558 0 13.776-7.572 13.776H169.055v121.25h.274c95.064-100.175 258.007-32.845 258.007 99.352 0 162.486-223.339 200.986-282.914 57.294m57.75-237.936c-.456 3.832 4.197 22.353 13.32 18.794 113.86-43.335 185.021 36.859 191.043 36.859 4.379 0 20.8-13.959 13.046-20.801-85.03-81.198-213.942-52.003-217.409-34.852m206.552 302.164c-100.356 100.266-272.787 55.47-302.894-95.064 0-11.13-27.734-6.752-26.366 3.01C101.36 435.82 303.897 512 427.609 388.288c6.295-7.116-11.495-25.91-18.885-18.612m-163.672-98.623c0 3.65 3.923 6.66 5.018 7.755 2.737 2.737 5.565 4.015 7.755 4.015 3.467 0 2.372.182 20.345-17.79 17.881 17.607 17.425 17.79 20.345 17.79 4.926 0 16.878-9.489 9.762-16.605l-15.784-15.783 16.605-16.605c5.747-6.203-9.215-19.888-14.78-14.323l-16.33 16.33c-16.97-17.151-16.788-17.79-19.616-17.79-4.562 0-16.422 10.674-11.313 15.783l16.605 16.605c-16.514 16.33-18.612 17.517-18.612 20.618"/></svg>