<svg xmlns="http://www.w3.org/2000/svg" viewBox="0 0 512 512"><!--! Font Awesome Free 7.0.1 by @fontawesome - https://fontawesome.com License - https://fontawesome.com/license/free (Icons: CC BY 4.0, Fonts: SIL OFL 1.1, Code: MIT License) Copyright 2025 Fonticons, Inc.--><path fill="currentColor" d="M359.77 30.728c7.758-1.31 15.818.504 21.359 5.037C465.858 94.905 512 173.085 512 255.093c0 83.722-46.142 162.003-130.871 221.142-4.836 4.03-11.788 5.944-18.74 5.34-7.052-.605-13.6-3.628-18.537-8.564L159.081 288.945c-5.642-5.542-8.765-13.098-9.672-21.057 0-7.858 4.03-15.414 9.57-21.056 5.643-5.541 13.199-8.765 21.057-8.765 7.96 0 15.515 3.123 21.056 8.664l166.335 165.63c55.008-45.035 84.93-99.942 84.93-157.268 0-62.06-37.176-123.113-104.677-170.566-6.447-4.533-10.88-11.485-12.19-19.242-1.41-7.758.403-15.818 5.037-22.266 4.534-6.448 11.486-10.88 19.243-12.19zM152.23 481.272c-7.758 1.31-15.717-.504-22.265-5.037C46.243 417.095 0 338.815 0 255.093 0 173.085 46.142 94.904 129.965 35.765c5.742-4.03 12.694-5.944 19.746-5.34 6.952.605 13.5 3.628 18.437 8.564l184.771 184.066c5.642 5.542 8.765 13.098 8.765 21.057.101 6.951-3.022 15.414-8.664 21.056-5.541 5.541-13.097 8.765-21.056 8.765-7.859 0-16.321-3.123-21.056-8.664L144.573 99.539c-55.008 45.538-84.93 99.942-84.93 155.554 0 63.874 37.176 124.927 103.87 172.38 7.355 4.634 11.687 11.485 13.098 19.343 1.31 7.758-.504 15.818-5.038 22.265-4.533 6.448-11.485 10.78-19.343 12.19"/></svg>