<svg xmlns="http://www.w3.org/2000/svg" viewBox="0 0 512 512"><!--! Font Awesome Free 7.0.1 by @fontawesome - https://fontawesome.com License - https://fontawesome.com/license/free (Icons: CC BY 4.0, Fonts: SIL OFL 1.1, Code: MIT License) Copyright 2025 Fonticons, Inc.--><path fill="currentColor" d="M256 120.114c-6.171-.343-12.343.686-18.171 2.743-5.829 2.057-11.086 5.486-15.543 9.714s-8 9.372-10.515 15.086c-2.514 5.714-3.657 11.772-3.657 17.943s1.257 12.343 3.657 17.943 6.058 10.857 10.515 15.086c4.457 4.228 9.828 7.542 15.543 9.714 5.714 2.171 12 3.086 18.171 2.743 6.171.343 12.343-.686 18.171-2.743 5.829-2.057 11.086-5.486 15.543-9.714s8-9.372 10.515-15.086c2.514-5.714 3.657-11.772 3.657-17.943s-1.257-12.343-3.657-17.943-6.058-10.857-10.515-15.086c-4.457-4.228-9.828-7.542-15.543-9.714-5.714-2.171-12-3.086-18.171-2.743M438.857 0H73.143C32.8 0 0 32.8 0 73.143v365.714C0 479.2 32.8 512 73.143 512h365.714C479.2 512 512 479.2 512 438.857V73.143C512 32.8 479.2 0 438.857 0M256 258.286c-51.2 0-92.571-41.486-92.571-92.572 0-51.2 41.371-92.685 92.571-92.685s92.686 41.485 92.686 92.685c0 51.086-41.486 92.572-92.686 92.572m67.771 7.085c19.2-15.085 33.715-6.285 38.972 4.115 8.914 18.285-1.257 27.085-24.572 42.285-19.542 12.458-46.514 17.372-64.228 19.2l14.857 14.743 54.514 54.515c19.886 20.457-12.571 52.342-32.685 32.685-13.715-13.943-33.715-33.943-54.515-54.743L201.6 432.914c-20.229 19.657-52.571-12.571-32.457-32.685l14.286-14.286c11.885-11.886 25.828-25.943 40.228-40.229l14.743-14.743c-17.6-1.828-44.914-6.514-64.686-19.2-23.2-15.2-33.485-23.885-24.457-42.285 5.257-10.4 19.772-19.2 38.972-4.115 0 0 25.942 20.572 67.771 20.572s67.771-20.572 67.771-20.572"/></svg>