<svg xmlns="http://www.w3.org/2000/svg" viewBox="0 0 512 512"><!--! Font Awesome Free 7.0.1 by @fontawesome - https://fontawesome.com License - https://fontawesome.com/license/free (Icons: CC BY 4.0, Fonts: SIL OFL 1.1, Code: MIT License) Copyright 2025 Fonticons, Inc.--><path fill="currentColor" d="M391.512 0h-271.82c-37.31 0-49.648 28.157-49.648 45.867v431.608c0 20.198 12.04 27.56 18.108 29.948 6.169 2.488 22.685 4.577 32.734-7.064 128.249-148.645 130.438-151.132 130.438-151.132 3.084-3.383 3.383-3.085 6.765-3.085h82.979c34.923 0 40.395-25.072 44.076-39.5L433.5 64.872C441.956 22.685 431.309 0 391.512 0m-16.218 73.427-11.342 59.398c-1.194 6.468-9.452 13.134-16.815 13.134H241.275c-11.94 0-20.496 8.258-20.496 20.197v12.935c0 11.939 8.556 20.495 20.496 20.495h89.943c8.258 0 16.516 9.154 14.725 18.109-1.79 8.855-10.447 53.528-11.342 58.502-.896 4.876-6.766 13.432-16.815 13.432h-73.128c-13.432 0-17.113 1.791-26.367 12.537 0 0-8.855 11.342-89.047 107.752-.896.896-1.791.597-1.791-.298V72.532c0-7.661 6.765-16.516 16.516-16.516h217.893c8.159 0 15.522 7.66 13.432 17.411"/></svg>