<svg xmlns="http://www.w3.org/2000/svg" viewBox="0 0 512 512"><!--! Font Awesome Free 7.0.1 by @fontawesome - https://fontawesome.com License - https://fontawesome.com/license/free (Icons: CC BY 4.0, Fonts: SIL OFL 1.1, Code: MIT License) Copyright 2025 Fonticons, Inc.--><path fill="currentColor" d="M279.03 23.03c0 12.693-10.337 23.032-23.03 23.032s-23.03-10.339-23.03-23.031C232.97 10.338 243.306 0 256 0s23.03 10.338 23.03 23.03m-81.784 242.08c0-32.448 26.306-58.754 58.754-58.754s58.754 26.306 58.754 58.754-26.306 58.754-58.754 58.754-58.754-26.306-58.754-58.754m141.87 93.147a124.62 124.62 0 0 0 40.84-78.817h122.32c-3.583 62.849-31.117 122.012-76.974 165.208C379.547 487.843 318.95 512 256 512s-123.547-24.157-169.302-67.352C40.841 401.452 13.41 342.288 9.724 279.44h122.524a124.62 124.62 0 0 0 40.841 78.817c22.826 20.37 52.408 31.629 83.013 31.629 29.684 0 60.085-11.26 83.014-31.63M22.826 145.043c-.41-12.693 9.622-23.338 22.314-23.748 12.693-.409 23.338 9.622 23.748 22.315.41 12.692-9.622 23.338-22.315 23.747-12.692.41-23.337-9.622-23.747-22.314m466.348-.717c0 12.693-10.338 23.031-22.928 23.031-12.693 0-23.031-10.338-23.031-23.03s10.338-22.93 23.03-22.93c12.59 0 22.929 10.237 22.929 22.93M319.36 97.548c-17.708 14.126-40.124 23.338-63.36 23.338s-45.652-9.212-63.36-23.338a97.6 97.6 0 0 1-33.165-58.856c15.457-6.551 31.527-11.567 48.007-14.842 0 12.897 5.118 25.18 14.228 34.29S243.103 72.368 256 72.368s25.18-5.118 34.29-14.228 14.228-21.393 14.228-34.29c16.48 3.275 32.55 8.29 48.007 14.842a97.6 97.6 0 0 1-33.165 58.856M78.714 236.45c-21.905 7.78-45.754 7.575-67.455-.614a251.8 251.8 0 0 1 11.055-49.03c5.528 3.173 11.567 5.22 17.913 6.142 6.346.819 12.693.41 18.937-1.228 6.141-1.74 11.873-4.504 16.991-8.394a47.5 47.5 0 0 0 12.488-14.228c3.173-5.527 5.22-11.669 6.141-17.913.82-6.346.41-12.795-1.228-18.936-1.638-6.142-4.504-11.874-8.393-16.992-3.89-5.015-8.7-9.314-14.228-12.488a242.2 242.2 0 0 1 36.85-34.085c18.014 14.637 30.195 35.314 34.392 58.14a97.94 97.94 0 0 1-11.464 66.533c-11.67 20.063-30.094 35.314-51.897 43.093zm354.572.103c-21.803-7.78-40.227-23.133-51.896-43.196-11.567-20.062-15.559-43.707-11.362-66.533 4.197-22.724 16.377-43.4 34.29-58.038a242.2 242.2 0 0 1 36.85 34.086 48.22 48.22 0 0 0-22.008 29.48c-3.275 12.282-2.354 25.384 4.914 36.44a48.26 48.26 0 0 0 29.07 22.518c12.283 3.378 25.487 1.74 36.542-4.401 5.425 15.865 9.11 32.345 11.157 48.927-22.621 8.291-45.652 8.496-67.557.717"/></svg>