<svg xmlns="http://www.w3.org/2000/svg" viewBox="0 0 512 512"><!--! Font Awesome Free 7.0.1 by @fontawesome - https://fontawesome.com License - https://fontawesome.com/license/free (Icons: CC BY 4.0, Fonts: SIL OFL 1.1, Code: MIT License) Copyright 2025 Fonticons, Inc.--><path fill="currentColor" d="M258.171 0C118.057 0 0 112.571 0 251.543 0 256 .114 512 .114 512l258.057-.229C398.4 511.771 512 394.857 512 255.886 512 116.914 398.4 0 258.171 0M256 402.286c-22.171 0-43.314-4.915-62.171-13.829l-92.686 22.972 26.171-85.715c-11.2-20.685-17.6-44.457-17.6-69.714 0-80.8 65.486-146.286 146.286-146.286S402.286 175.2 402.286 256 336.8 402.286 256 402.286"/></svg>