<svg xmlns="http://www.w3.org/2000/svg" viewBox="0 0 512 512"><!--! Font Awesome Free 7.0.1 by @fontawesome - https://fontawesome.com License - https://fontawesome.com/license/free (Icons: CC BY 4.0, Fonts: SIL OFL 1.1, Code: MIT License) Copyright 2025 Fonticons, Inc.--><path fill="currentColor" d="M395.058 287.315c-40.233 0-66.79-31.115-74.228-43.113 9.518-76.228 37.434-100.304 74.228-100.304 36.395 0 64.71 29.115 64.71 71.748s-28.315 71.75-64.71 71.75zm0-190.21c-65.51 0-102.224 42.713-112.782 86.706-11.918-22.396-20.717-52.392-27.596-80.227h-90.546v112.782c0 40.874-18.637 71.19-55.031 71.19s-57.271-30.236-57.271-71.19l.4-112.782H0v112.782c0 32.875 10.638 62.71 30.075 84.067 19.997 21.997 47.353 33.435 79.028 33.435 63.03 0 107.023-48.313 107.023-117.502v-75.828c6.56 24.956 22.237 72.869 52.232 114.862l-27.996 159.495h53.112l18.477-113.022a148 148 0 0 0 19.357 13.598c17.757 11.198 38.154 17.517 59.111 18.237 0 0 3.2.16 4.88.16 64.95 0 116.701-50.312 116.701-118.222S460.168 97.185 395.218 97.185z"/></svg>