<svg xmlns="http://www.w3.org/2000/svg" viewBox="0 0 512 512"><!--! Font Awesome Free 7.0.1 by @fontawesome - https://fontawesome.com License - https://fontawesome.com/license/free (Icons: CC BY 4.0, Fonts: SIL OFL 1.1, Code: MIT License) Copyright 2025 Fonticons, Inc.--><path fill="currentColor" d="M437.689 224.711c-7.911 0-16.622 5.956-16.622 20.178h32.622c0-14.222-8.267-20.178-16-20.178m-104.356 2.311c-7.289 0-11.822 2.578-15.11 6.222l.177 46.934c3.111 3.289 7.556 5.955 14.933 5.955 11.645 0 19.467-12.71 19.467-29.689 0-16.533-8-29.51-19.467-29.422m136-170.133H42.667C19.11 56.889 0 76 0 99.556v312.888C0 436 19.111 455.111 42.667 455.111h426.666C492.89 455.111 512 436 512 412.444V99.556c0-23.556-19.111-42.667-42.667-42.667M108.623 278.31c0 22.756-18.045 35.645-44.356 35.822-10.845 0-22.756-2.133-34.49-7.2V276.8c10.667 5.689 24.09 10.044 34.579 10.044 7.022 0 12.088-1.866 12.088-7.733 0-15.111-48-9.422-48-44.355 0-22.4 17.067-35.734 42.667-35.734 10.489 0 20.889 1.6 31.378 5.778v29.689c-9.6-5.156-21.778-8.089-31.378-8.089-6.667 0-10.755 1.956-10.755 6.844 0 14.223 48.266 7.467 48.266 45.067M169.777 228h-24v44.889c0 18.578 20 12.8 24 11.2v25.689c-4.178 2.31-11.822 4.178-22.134 4.178-18.755 0-32.8-13.778-32.8-32.445l.178-101.244 30.845-6.578v27.378h23.91zm65.778 2.133c-4-1.333-16.623-3.2-24.09 6.578v75.022h-31.555V201.067H207.2l1.956 9.333c7.377-13.6 22.133-10.844 26.31-9.333h.09zm39.2 81.6h-31.734V201.067h31.734zm0-127.022-31.734 6.756v-25.69l31.734-6.755zm65.866 129.333c-11.022 0-17.778-4.71-22.31-8l-.09 35.734-31.555 6.666V201.067h27.822l1.6 7.822c4.355-4 12.355-9.867 24.711-9.867 22.133 0 43.022 20 43.022 56.711 0 40.09-20.622 58.223-43.2 58.311M483.2 268.267h-61.778c1.422 14.755 12.267 19.11 24.534 19.11 12.533 0 22.4-2.666 31.022-7.021v25.422c-8.622 4.71-19.911 8.178-35.022 8.178-30.756 0-52.267-19.29-52.267-57.334 0-32.178 18.222-57.689 48.267-57.689 29.955 0 45.6 25.511 45.6 57.867 0 3.111-.267 9.689-.356 11.467"/></svg>