<svg xmlns="http://www.w3.org/2000/svg" viewBox="0 0 512 512"><!--! Font Awesome Free 7.0.1 by @fontawesome - https://fontawesome.com License - https://fontawesome.com/license/free (Icons: CC BY 4.0, Fonts: SIL OFL 1.1, Code: MIT License) Copyright 2025 Fonticons, Inc.--><path fill="currentColor" d="M255.587 0C401.961 0 512 113.652 512 256c0 151.845-122.323 256-256.413 256C117.265 512 0 398.968 0 256 0 118.813 108.077 0 255.587 0m.826 46.142C134.4 46.142 46.142 147.2 46.142 256c0 113.342 94.142 209.342 210.27 209.342 106.53 0 209.343-83.716 209.343-209.342.103-117.471-93.11-209.858-209.342-209.858m166.916 214.4 5.058 2.27v72.259c-7.432 3.716-65.445 28.387-69.47 29.729-6.71-1.858-117.369-48.31-141.73-58.013l-66.27 27.458-65.343-28.387V240l61.213-25.6c-.722-.723-.413 5.161-.413-72.671l69.471-30.658L372.645 176v63.587zm-72.67 84.129v-45.213h-.414V297.6l-117.47-48v46.658l117.47 48.413v-.413zm7.741-59.458 41.187-16.93-37.987-16-40.258 16.93zm53.987 39.329v-44.387l-45.729 19.2v44.8z"/></svg>