<svg xmlns="http://www.w3.org/2000/svg" viewBox="0 0 512 512"><!--! Font Awesome Free 7.0.1 by @fontawesome - https://fontawesome.com License - https://fontawesome.com/license/free (Icons: CC BY 4.0, Fonts: SIL OFL 1.1, Code: MIT License) Copyright 2025 Fonticons, Inc.--><path fill="currentColor" d="M314.72 156.84c0 10.4 1.68 26.16-22.96 35.04-7.6 2.72-12.8 7.76-12.8 7.76 0-24.8 3.76-33.76 13.92-39.12 7.84-4.08 21.76-3.68 21.76-3.68zm-92.64 28.4L194.72 291.4l-22.8-86.88c-6.16-25.6-16.64-38.8-38.72-38.8-21.92 0-32.56 12.96-38.72 38.8L71.6 291.4 44.24 185.24C39.76 163.88 19.12 154.68 0 157.08L52.48 355.4s17.28 1.28 26-3.2c11.36-5.76 16.8-10.24 23.68-37.28 6.16-24.08 23.28-94.72 24.88-99.76 3.84-11.92 8.88-11.04 12.32 0 1.6 5.04 18.8 75.68 24.88 99.76 6.88 26.96 12.32 31.44 23.68 37.28 8.64 4.4 26 3.2 26 3.2l52.4-198.32c-19.52-2.48-39.84 7.12-44.24 28.24zm92.64 4.16s-3.28 5.04-10.8 9.28c-4.8 2.72-9.44 4.48-14.4 6.88-12.08 5.84-10.56 11.12-10.56 28.16V355.4s13.28 1.68 21.92-2.72c11.12-5.68 13.68-11.2 13.84-35.84V189.4m130.72 67.28L512 157.72s-28.08-4.8-42 7.84c-10.64 9.68-19.52 23.68-43.36 58-.4.56-5.04 8.4-10.48 0-23.44-33.76-32.64-48.24-43.36-58-13.92-12.64-42-7.84-42-7.84l66.56 98.96-66.4 98.72s29.28 3.68 43.2-8.96c9.2-8.4 14.08-16.32 42-56.56 5.44-8.4 10.08-.64 10.48 0 23.52 33.92 31.36 46.48 42.48 56.56 13.92 12.64 42.64 8.96 42.64 8.96l-66.4-98.72z"/></svg>