<svg xmlns="http://www.w3.org/2000/svg" viewBox="0 0 512 512"><!--! Font Awesome Free 7.0.1 by @fontawesome - https://fontawesome.com License - https://fontawesome.com/license/free (Icons: CC BY 4.0, Fonts: SIL OFL 1.1, Code: MIT License) Copyright 2025 Fonticons, Inc.--><path fill="currentColor" d="M256 0C114.667 0 0 114.667 0 256s114.667 256 256 256 256-114.667 256-256S397.333 0 256 0M112.747 440.64c-55.04-42.88-90.56-109.653-90.56-184.64 0-23.147 3.413-46.187 10.24-68.373l109.76-19.094-.107 11.734-14.827 2.133s-.106 13.333-.106 20.8c0 2.133.426 4.267 1.28 6.187.853 1.92 2.24 3.626 3.946 4.906l10.134 7.894-29.547 218.56zm112.746-302.08 9.067-8.107s7.36-5.76-.107-9.92c-7.68-4.266-42.133-36.8-42.133-36.8-5.653-5.866-8.853-7.786-16.533 0 0 0-34.454 32.534-42.134 36.8-7.573 4.267-.106 9.92-.106 9.92l9.066 8.107v4.693l-78.4-20.48c42.24-60.693 112.534-100.586 192-100.586 33.387 0 66.347 7.146 96.64 20.906s57.387 33.92 79.254 59.094l-206.4 40.213v-3.84zm36.374 351.253-36.16-267.626 10.133-7.894c1.707-1.28 2.987-2.986 3.947-4.906a12.44 12.44 0 0 0 1.28-6.187c0-7.467-.107-20.8-.107-20.8l-14.827-2.133-.106-11.2L483.84 202.56c4.16 17.493 6.187 35.52 6.187 53.44 0 127.04-101.76 230.613-228.054 233.707z"/></svg>