<svg xmlns="http://www.w3.org/2000/svg" viewBox="0 0 512 512"><!--! Font Awesome Free 7.0.1 by @fontawesome - https://fontawesome.com License - https://fontawesome.com/license/free (Icons: CC BY 4.0, Fonts: SIL OFL 1.1, Code: MIT License) Copyright 2025 Fonticons, Inc.--><path fill="currentColor" d="M373.778 284.978a21.28 21.28 0 0 1 21.333 21.333 21.28 21.28 0 0 1-21.333 21.333 21.28 21.28 0 0 1-21.334-21.333 21.28 21.28 0 0 1 21.334-21.333m-235.645 0a21.28 21.28 0 0 1 21.334 21.333 21.28 21.28 0 0 1-21.334 21.333 21.28 21.28 0 0 1-21.333-21.333 21.28 21.28 0 0 1 21.333-21.333m243.29-85.778L424 125.422c.711-.978 1.156-2.133 1.333-3.378.178-1.244.178-2.4-.089-3.644-.266-1.244-.8-2.311-1.51-3.289a8.6 8.6 0 0 0-2.667-2.4c-1.067-.622-2.223-.978-3.467-1.155s-2.4 0-3.556.355c-1.155.356-2.222.978-3.2 1.689-.977.711-1.688 1.778-2.222 2.844l-43.11 74.756a267.8 267.8 0 0 0-109.6-23.467c-37.779 0-75.112 8-109.6 23.467l-43.023-74.667c-.533-1.066-1.333-2.044-2.222-2.844-.89-.8-2.045-1.333-3.2-1.689s-2.4-.444-3.556-.356c-1.155.09-2.4.534-3.467 1.156a8.6 8.6 0 0 0-2.666 2.4 9.2 9.2 0 0 0-1.511 3.289c-.267 1.155-.267 2.4-.09 3.644.179 1.245.712 2.311 1.334 3.378l42.578 73.778C57.333 239.022 7.289 313.067 0 400.622h512c-7.289-87.555-57.333-161.6-130.578-201.422"/></svg>