<svg xmlns="http://www.w3.org/2000/svg" viewBox="0 0 512 512"><!--! Font Awesome Free 7.0.1 by @fontawesome - https://fontawesome.com License - https://fontawesome.com/license/free (Icons: CC BY 4.0, Fonts: SIL OFL 1.1, Code: MIT License) Copyright 2025 Fonticons, Inc.--><path fill="currentColor" d="M512 306.8c0 73.04-31.52 118.8-88.24 118.8-50.08 0-76.64-27.68-125.52-109.28l-25.12-42.08c-6.64-10-11.6-19.36-16.96-28-16.08 27.04-37.68 66.4-37.68 66.4-53.6 93.28-83.68 112.96-125.52 112.96C34.72 425.6 0 379.76 0 308.88 0 194.48 63.84 86.4 147.12 86.4c40.16 0 75.04 19.76 115.84 71.6 29.68-40.08 62.48-71.6 104.48-71.6C446.72 86.4 512 186.96 512 306.8M229.92 206.24c-34.32-49.68-56.72-64.4-83.52-64.4-49.52 0-91.04 84.88-91.04 168 0 38.8 14.8 60.56 39.68 60.56 24.16 0 39.2-15.2 82.56-83.04 0 0 19.76-31.28 52.32-81.12M424.96 370.4c25.76 0 37.52-22 37.52-59.92 0-99.36-43.44-180.32-98.56-180.32-26.56 0-48.88 20.72-75.92 62.4 7.52 11.04 15.28 23.2 23.44 36.32l30 49.92c46.96 75.28 58.8 91.6 83.52 91.6"/></svg>