<svg xmlns="http://www.w3.org/2000/svg" viewBox="0 0 512 512"><!--! Font Awesome Free 7.0.1 by @fontawesome - https://fontawesome.com License - https://fontawesome.com/license/free (Icons: CC BY 4.0, Fonts: SIL OFL 1.1, Code: MIT License) Copyright 2025 Fonticons, Inc.--><path fill="currentColor" d="M88.015 318.477c-26.631 0-36.237-23.741-36.237-23.741L8.122 207.658S0 193.523 16.244 193.523H41.86c8.122 0 10.308 6.794 14.682 14.135l28.661 58.182s4.061 10.23 16.479 10.23 16.478-10.23 16.478-10.23l28.661-58.182c4.374-7.419 6.56-14.135 14.682-14.135h25.616c16.244 0 8.122 14.135 8.122 14.135l-43.578 87.078s-9.528 23.741-36.237 23.741zm308.48 0c-26.63 0-36.236-23.741-36.236-23.741l-43.656-87.078s-8.122-14.135 8.122-14.135h25.615c8.122 0 10.31 6.794 14.683 14.135l28.661 58.182s4.061 10.23 16.478 10.23 16.479-10.23 16.479-10.23l28.74-58.182c4.373-7.419 6.56-14.135 14.681-14.135h25.694c16.244 0 8.122 14.135 8.122 14.135l-43.656 87.078s-9.528 23.741-36.237 23.741zm-126.75-124.954c26.63 0 36.237 23.741 36.237 23.741l43.656 87.078s8.122 14.135-8.122 14.135H315.9c-8.122 0-10.309-6.794-14.682-14.135l-28.662-58.182s-4.06-10.23-16.478-10.23c-12.417 0-16.478 10.23-16.478 10.23l-28.662 58.182c-4.373 7.34-6.56 14.135-14.682 14.135h-25.693c-16.245 0-8.122-14.135-8.122-14.135l43.655-87.078s9.528-23.741 36.237-23.741z"/></svg>