<svg xmlns="http://www.w3.org/2000/svg" viewBox="0 0 512 512"><!--! Font Awesome Free 7.0.1 by @fontawesome - https://fontawesome.com License - https://fontawesome.com/license/free (Icons: CC BY 4.0, Fonts: SIL OFL 1.1, Code: MIT License) Copyright 2025 Fonticons, Inc.--><path fill="currentColor" d="M120.312 38.14C161.248 12.98 207.775 0 255.002.8 422.739.799 511.6 124.406 511.6 219.956c-.1 32.65-12.98 63.8-35.844 87.064a124.24 124.24 0 0 1-86.565 36.943c-75.083 0-91.357-23.064-91.357-31.95 0-3.795 1.198-6.19 4.792-9.386l.999-1.198.399-1.597c10.484-11.483 15.875-26.16 15.875-41.536 0-78.577-82.072-142.477-183.713-142.477-37.441-.3-74.384 8.886-107.332 26.858 26.958-57.41 82.57-97.448 91.157-103.638.8-.6.3-.799.3-.799zm15.576 317.604c-1.398 29.953 4.592 59.907 16.374 87.064 13.579 26.359 32.65 50.92 56.412 69.192-59.407-11.482-111.326-43.832-149.167-89.16C21.467 376.511.399 318.701.399 258.295c0-51.12 62.303-94.252 135.788-94.252a166.12 166.12 0 0 1 101.641 32.649l-3.594 1.198c-51.42 17.572-98.346 90.558-98.346 157.853m333.578 44.43-.698.1c-11.782 18.771-25.86 35.046-42.135 49.423-30.752 27.957-67.993 45.43-108.63 49.823-18.57.299-36.742-3.196-53.716-11.383-25.56-10.284-47.026-29.953-61.504-52.917-14.377-23.863-21.067-51.62-18.97-79.476-.6-20.068 5.391-40.237 14.976-58.11a178.6 178.6 0 0 0 67.495 80.675 178.16 178.16 0 0 0 101.242 28.555c30.951.3 62.003-6.69 90.059-20.468l1.897-.898c3.894-2.297 7.688-3.894 11.582 0 4.493 4.892 1.797 9.185-1.198 13.978-.2.2-.3.499-.4.699"/></svg>