<svg xmlns="http://www.w3.org/2000/svg" viewBox="0 0 512 512"><!--! Font Awesome Free 7.0.1 by @fontawesome - https://fontawesome.com License - https://fontawesome.com/license/free (Icons: CC BY 4.0, Fonts: SIL OFL 1.1, Code: MIT License) Copyright 2025 Fonticons, Inc.--><path fill="currentColor" d="M256 134.8c137.12 0 242.56 57.76 242.56 121.2S393.04 377.2 256 377.2c-137.12 0-242.56-57.76-242.56-121.2S118.96 134.8 256 134.8m0-13.44C114.64 121.36 0 181.6 0 256s114.64 134.64 256 134.64S512 330.4 512 256 397.36 121.36 256 121.36M174.56 245.2c-6.32 32.4-28.64 29.04-56.08 29.04l10.96-56.48c30.4 0 51.04-3.28 45.12 27.44m-96.64 86.24h29.36l6.96-35.84c32.88 0 53.28 2.4 72.16-15.28 20.88-19.2 26.32-53.36 11.44-70.48-7.76-8.96-20.24-13.36-37.2-13.36h-56.56zm148.56-170.88h29.2l-6.96 35.84c25.2 0 48.56-1.84 59.84 8.56 11.84 10.88 6.16 24.8-6.64 90.48h-29.6c12.32-63.52 14.64-68.8 10.16-73.6-4.32-4.64-14.16-3.68-37.92-3.68l-15.04 77.28h-29.2zM404 245.2c-6.4 32.88-29.36 29.04-56.08 29.04l10.96-56.48c30.56 0 51.04-3.28 45.12 27.44m-96.64 86.24h29.44l6.96-35.84c34.56 0 53.68 2 72.16-15.28 20.88-19.2 26.32-53.36 11.44-70.48-7.76-8.96-20.24-13.36-37.2-13.36H333.6z"/></svg>