<svg xmlns="http://www.w3.org/2000/svg" viewBox="0 0 512 512"><!--! Font Awesome Free 7.0.1 by @fontawesome - https://fontawesome.com License - https://fontawesome.com/license/free (Icons: CC BY 4.0, Fonts: SIL OFL 1.1, Code: MIT License) Copyright 2025 Fonticons, Inc.--><path fill="currentColor" d="M6.629 313.943C2.286 294.514 0 274.857 0 255.2 0 114.286 114.057 0 254.971 0c18.972 0 38.058 2.286 56.343 6.286C170.286 60 59.314 172.57 6.63 313.943M455.657 97.714c-15.657-20-33.943-37.371-54.628-51.771C230.057 96.57 96.686 231.2 47.086 402.514c14.285 20.686 32 40.686 51.657 56C148 285.6 282.97 148 455.657 97.714m18.057 288.8c17.372-28.685 29.029-61.371 33.715-94.628-90.743 49.028-165.715 126.4-214.4 217.485 34.285-5.028 67.314-17.485 96.685-35.771 40 14.971 81.029 27.771 122.286 38.4-10.629-41.714-23.314-85.143-38.286-125.486m33.943-166.285c-2.971-22.286-9.028-44.229-18.057-64.915C332 207.657 208 334.286 156.686 492.571c20.685 8.686 42.285 14.286 64.685 17.372 52.915-130.4 156.343-236.343 286.286-289.714"/></svg>