<svg xmlns="http://www.w3.org/2000/svg" viewBox="0 0 512 512"><!--! Font Awesome Free 7.0.1 by @fontawesome - https://fontawesome.com License - https://fontawesome.com/license/free (Icons: CC BY 4.0, Fonts: SIL OFL 1.1, Code: MIT License) Copyright 2025 Fonticons, Inc.--><path fill="currentColor" d="M501.833 154.25c1.917 0 3.834.583 5.5 1.833 1.584 1.167 2.584 2.75 3.167 4.167 1.167 2.75 1.5 6.083 1.5 9.417 0 1.833-.25 4.083-.583 6.333v.333L469 397.083c-3.333 18.417-7.083 32.834-11.333 43.084-4.167 10.083-9.084 18-15.5 22.5-6.25 4.416-14.084 6.416-23 6.666h-2.5c-13.334 0-24.417-3.5-30.75-12.333l-.167-.167c-.083-.166-.25-.333-.417-.5-1.5-2-2.083-4.333-2.416-6.166-.417-2.334-.584-5.084-.584-8.167 0-6.083.5-11.25 1.75-15.167 1.167-3.666 4-8.666 10.167-8.666l1.083.083c.167 0 .334.083.417.083.25.084.5.084.667.167.5.083 1.083.25 1.833.5l6.333 1.833h.084l6.333 1.75c.75.167 1.417.334 1.833.417.334.083.5.083.584.083 0 0 .083 0 .166-.083.084-.083.334-.167.667-.5.75-.75 1.833-2.167 3-4.75 2.167-4.833 3.5-12.25 3.5-22.833 0-.584-.25-2.834-1.083-7.417-.75-4.25-1.917-10.167-3.5-17.583L369.5 175.833l-.083-.333v-.25c-.334-2.25-.584-4.417-.584-6.083 0-3.084.334-6.25 1.417-8.834.583-1.333 1.5-2.833 2.917-4.083 1.583-1.25 3.5-1.917 5.416-1.917h28.834c3.833 0 7.25 1.417 9.916 4.167l1.084 1.25c1 1.333 1.666 2.833 2.25 4.333.75 2 1.25 4.25 1.666 6.75l25.334 134.334L467.5 171.833c.667-4.833 1.833-9.5 4.25-12.583 2.5-3.167 6-4.833 10-4.833h20zM301.667 42.667c2.166 0 4.25.583 6.166 1.916 1.834 1.25 3.084 3 3.917 4.75 1.583 3.334 2.083 7.584 2.083 12.084v92.916h27c2.084 0 4.167.5 6 1.75 1.834 1.167 3.084 2.834 4 4.584C352.5 163.917 353 168 353 172.25v12.833c0 4.167-.5 8.167-2.167 11.417-.916 1.667-2.166 3.333-4 4.5-1.833 1.167-3.916 1.667-5.916 1.667h-27.084v121.5c0 9 .584 16.25 1.667 21.833 1.167 5.75 2.583 9.083 3.917 10.75 1 1.25 1.833 2.083 2.583 2.667l1.833 1.166.084.084 2.416.666c1 .167 2.167.25 3.584.25h16.916c3.75 0 7.417 1.417 9.834 4.834 2.166 3 2.75 6.75 2.75 10.166v14.334c0 3.75-.667 7.75-2.834 10.916-2.5 3.5-6.25 5-10.25 5l-24.25.084c-6.666 0-12.5-.5-17.666-1.417-5.584-1.083-11.167-3.417-16.75-6.75-6-3.667-10.834-8.583-14.584-14.833s-6.583-14.584-8.75-24.584c-2.166-10.166-3.25-22.166-3.25-35.833V202.75h-11.166c-2 0-4.084-.5-5.917-1.667-1.833-1.166-3.083-2.833-4-4.5-1.667-3.25-2.167-7.25-2.167-11.416v-12.834c0-4.25.5-8.333 2.167-11.583.917-1.75 2.167-3.333 4-4.583s3.917-1.75 6-1.75h11.167v-.5L265.5 61.25v-.083l.25-3.25c.417-3.167 1.083-6.167 2.25-8.584 1.75-3.5 5-6.583 9.833-6.583h23.834zm-223.334 9.75c1.5.25 3 .75 4.417 1.75 1.75 1.25 2.917 2.916 3.667 4.5 1.416 3.083 1.916 7 1.916 11V384.5c0 5.583-.5 10.5-2 14.25-.75 1.917-1.916 3.917-3.666 5.417-1.917 1.666-4.25 2.5-6.75 2.5H39.5c-2.5 0-4.833-.917-6.75-2.584-1.75-1.583-2.833-3.583-3.5-5.416-1.417-3.75-1.917-8.584-1.917-14.167V121.333c-4 1-7.25 1.834-9.583 2.417-1.583.417-2.833.667-3.667.917q-.625.124-1 .25c-.083 0-.25.083-.416.083-.084 0-.167 0-.25.083h-1.084a9.55 9.55 0 0 1-5.5-1.416c-1.916-1.167-3.166-2.834-3.916-4.417-1.5-3.083-1.917-7-1.917-10.833V85.583c0-3.666.583-7.333 2.167-10.333 1.75-3.25 4.583-5.5 8.166-6.333l62.917-16.25c1.167-.334 2.417-.417 3.667-.417l1.5.083zM198.167 52c1.5.25 3 .75 4.333 1.75 1.75 1.25 2.917 2.917 3.667 4.5 1.416 3.083 1.833 7 1.833 11v314.833c0 5.584-.5 10.5-2 14.25-.75 1.917-1.917 3.917-3.667 5.417-1.916 1.667-4.25 2.5-6.75 2.5h-36.416c-2.5 0-4.834-.917-6.75-2.583-1.75-1.584-2.834-3.584-3.5-5.417-1.417-3.75-1.917-8.583-1.917-14.167V120.917c-4 1-7.25 1.833-9.583 2.416-1.584.417-2.834.667-3.667.917q-.625.125-1 .25c-.083 0-.25.083-.417.083-.083 0-.166 0-.25.084H131a9.55 9.55 0 0 1-5.5-1.417c-1.917-1.167-3.167-2.833-3.917-4.417-1.5-3.083-1.916-6.916-1.916-10.833V85.167c0-3.667.583-7.25 2.166-10.334 1.75-3.25 4.584-5.5 8.167-6.333l62.833-16.167c1.167-.333 2.417-.416 3.667-.416L198 52z"/></svg>