<svg xmlns="http://www.w3.org/2000/svg" viewBox="0 0 512 512"><!--! Font Awesome Free 7.0.1 by @fontawesome - https://fontawesome.com License - https://fontawesome.com/license/free (Icons: CC BY 4.0, Fonts: SIL OFL 1.1, Code: MIT License) Copyright 2025 Fonticons, Inc.--><path fill="currentColor" d="M438.857 0C479.2 0 512 32.8 512 73.143v365.714C512 479.2 479.2 512 438.857 512H73.143C32.8 512 0 479.2 0 438.857V73.143C0 32.8 32.8 0 73.143 0zM198.514 73.143c-37.714 0-68.343 30.628-68.343 68.343 0 24 12.343 45.028 31.086 57.257C142.514 210.97 130.171 232 130.171 256s12.343 45.143 31.086 57.257c-18.743 12.229-31.086 33.257-31.086 57.257 0 37.829 30.972 68.343 68.686 68.343 37.943 0 69.257-30.743 69.257-68.914v-63.657c12.115 11.2 28.343 18.057 46.172 18.057h1.257c37.714 0 68.343-30.629 68.343-68.343 0-24-12.343-45.143-31.086-57.257 18.743-12.229 31.086-33.257 31.086-57.257 0-37.715-30.629-68.343-68.343-68.343zm47.543 251.2v45.6c0 25.828-21.257 46.857-47.2 46.857-25.6 0-46.514-20.8-46.514-46.286 0-25.485 20.686-46.171 46.057-46.171zm0-114.629v92.457H198.4c-25.486-.114-46.057-20.8-46.057-46.285 0-25.486 20.686-46.286 46.286-46.286h47.542zm69.486 0c25.486 0 46.286 20.686 46.286 46.286s-20.686 46.286-46.286 46.286h-1.257c-25.486 0-46.172-20.686-46.172-46.286s20.686-46.286 46.172-46.286zm-69.486-22.057h-47.543c-25.485 0-46.285-20.686-46.285-46.171 0-25.486 20.685-46.286 46.285-46.286h47.543zM315.543 95.2c25.486 0 46.286 20.686 46.286 46.286s-20.686 46.171-46.286 46.171h-47.429V95.2z"/></svg>