<svg xmlns="http://www.w3.org/2000/svg" viewBox="0 0 512 512"><!--! Font Awesome Free 7.0.1 by @fontawesome - https://fontawesome.com License - https://fontawesome.com/license/free (Icons: CC BY 4.0, Fonts: SIL OFL 1.1, Code: MIT License) Copyright 2025 Fonticons, Inc.--><path fill="currentColor" d="M383.556 245.6v-28.711c36.622 0 34.222.178 34.222.178 6.489 1.155 11.822 6.489 11.822 14.222 0 7.822-5.333 12.889-11.822 14.044-1.067.356-2.934.267-34.222.267m38.044 17.956c-2.489-.623-2.933-.445-38.044-.445v31.111c35.2 0 35.555.178 38.044-.444 6.667-1.334 12-7.111 12-15.111 0-7.734-5.333-13.778-12-15.111m90.4-164v312.888c0 23.556-19.111 42.667-42.667 42.667H42.667C19.11 455.111 0 436 0 412.444V99.556C0 76 19.111 56.889 42.667 56.889h426.666C492.89 56.889 512 76 512 99.556m-350.222 99.822H111.11c0 59.644 9.511 97.51-31.822 97.51-17.333 0-34.489-5.066-50.845-13.155v24.89C55.111 316 88.89 316 88.89 316c87.022 0 72.889-42.4 72.889-116.622m158.666 4c-56.355-14.222-146.666-13.245-146.666 52.71 0 68.534 96.178 65.423 146.666 52.623v-25.155C278.134 305.51 224.89 303.11 224.89 256s53.155-49.422 95.555-27.733zm163.112 79.733c0-16.444-14.667-27.111-33.778-28.444v-.711c17.333-2.4 26.933-13.778 26.933-26.845 0-16.889-13.955-26.667-32.889-27.555 0 0 5.6-.267-106.933-.267v113.333h109.067c21.6.09 37.6-11.466 37.6-29.51"/></svg>