<svg xmlns="http://www.w3.org/2000/svg" viewBox="0 0 512 512"><!--! Font Awesome Free 7.0.1 by @fontawesome - https://fontawesome.com License - https://fontawesome.com/license/free (Icons: CC BY 4.0, Fonts: SIL OFL 1.1, Code: MIT License) Copyright 2025 Fonticons, Inc.--><path fill="currentColor" d="m255.897 116.542 9.393-16.207c5.781-10.116 18.684-13.522 28.8-7.741 10.116 5.78 13.523 18.683 7.742 28.8L211.51 277.78h65.342c21.16 0 33.032 24.877 23.845 42.116H109.213a21.014 21.014 0 0 1-21.058-21.058 21.014 21.014 0 0 1 21.058-21.058h53.677l68.749-119.123-21.471-37.264a21.106 21.106 0 0 1 7.742-28.8 21.106 21.106 0 0 1 28.8 7.741zm-81.239 225.032-20.232 35.097c-5.78 10.116-18.684 13.523-28.8 7.742s-13.523-18.684-7.742-28.8l15.07-26.013c16.93-5.265 30.762-1.239 41.704 11.974m174.348-63.69h54.813a21.014 21.014 0 0 1 21.058 21.058A21.014 21.014 0 0 1 403.82 320h-30.451l20.542 35.613a21.106 21.106 0 0 1-7.742 28.8 21.106 21.106 0 0 1-28.8-7.742c-34.58-59.974-60.594-104.877-77.833-134.813-17.651-30.452-5.058-61.006 7.433-71.329 13.832 23.742 34.477 59.561 62.038 107.355M256 0C114.58 0 0 114.58 0 256s114.58 256 256 256 256-114.58 256-256S397.42 0 256 0M33.032 256c0-123.148 99.82-222.968 222.968-222.968S478.968 132.852 478.968 256 379.148 478.968 256 478.968 33.032 379.148 33.032 256"/></svg>