<svg xmlns="http://www.w3.org/2000/svg" viewBox="0 0 512 512"><!--! Font Awesome Free 7.0.1 by @fontawesome - https://fontawesome.com License - https://fontawesome.com/license/free (Icons: CC BY 4.0, Fonts: SIL OFL 1.1, Code: MIT License) Copyright 2025 Fonticons, Inc.--><path fill="currentColor" d="M362 230.04c7.84 0 13.2 5.04 13.2 13.28v25.44c0 8.24-5.28 13.28-13.28 13.28h-44.96c-7.84 0-13.2-5.04-13.2-13.28v-25.44c0-8.24 5.36-13.28 13.2-13.28zm-20.56 10.48c-1.2-2.08-2.56-2.08-3.68 0l-8.56 14.08c-1.36 1.92-2.08 4.08-2.08 6.56 0 6.32 5.52 11.68 12.48 11.68 6.8 0 12.48-5.36 12.48-11.68 0-2.4-.8-4.64-2.16-6.56l-8.56-14.08zm-272.8-10.24c.8 0 1.2.48 1.2 1.2v40.24h51.68c.8 0 1.28.48 1.28 1.2v7.76c0 .72-.48 1.2-1.28 1.2H58.8c-.8 0-1.28-.48-1.28-1.2v-49.12c0-.72.48-1.2 1.28-1.2h9.84zm70.64 0c.8 0 1.2.48 1.2 1.2v36c0 3.2 1.6 4.16 4.56 4.16h37.52c3.04 0 4.56-1.04 4.56-4.16v-36c0-.72.4-1.2 1.2-1.2h9.84c.8 0 1.28.48 1.28 1.2v36.8c0 8.4-4.24 13.44-14.08 13.44h-43.2c-9.84 0-14.08-5.04-14.08-13.44v-36.8c0-.72.48-1.2 1.28-1.2h9.84zm86.56 0c.8 0 1.28.4 1.76 1.12l24.4 37.12h1.12l24.4-37.12c.48-.72.96-1.12 1.76-1.12h14.4c.8 0 1.2.48 1.2 1.2v49.12c0 .72-.4 1.2-1.2 1.2h-9.84c-.8 0-1.28-.48-1.28-1.2v-35.04h-.88l-22.96 35.04c-.48.72-1.04 1.2-1.92 1.2h-8.56c-.8 0-1.36-.48-1.84-1.2l-22.96-35.04h-.88v35.04c0 .72-.4 1.2-1.2 1.2h-9.84c-.8 0-1.28-.48-1.28-1.2v-49.12c0-.72.48-1.2 1.28-1.2zm171.52 0c.72 0 1.04.32 1.76.88l42.16 37.04h1.04v-36.8c0-.72.48-1.2 1.28-1.2h9.84c.8 0 1.28.48 1.28 1.2v49.12c0 .72-.48 1.2-1.28 1.2h-11.52c-.8 0-1.12-.32-1.84-.88L398 243.8h-1.12v36.8c0 .72-.4 1.2-1.2 1.2h-9.84c-.8 0-1.28-.48-1.28-1.2v-49.12c0-.72.48-1.2 1.28-1.2zM256 142.52c70.32 0 134.16 12.56 180.4 32.8l2.16.96c31.12 14 73.44 40.16 73.44 79.76s-42.32 65.76-73.44 79.68l-2.16.96c-46.24 20.32-110.08 32.8-180.4 32.8-60.96 0-124.08-8.4-180.4-32.8C43.92 322.76 0 296.44 0 256.04s43.92-66.8 75.6-80.64c56.32-24.4 119.44-32.8 180.4-32.8zm-71.12 183.2c16.24 23.2 42.24 39.68 71.12 39.68 28.96 0 54.96-16.48 71.2-39.76zm-76.88 0c34.64 23.76 77.36 34.8 118.72 38.4-19.36-7.28-35.52-21.36-46.88-38.48h-71.92zm224.24-.08c-11.36 17.12-27.52 31.28-46.88 38.48 41.44-3.6 84.24-14.64 118.88-38.56h-72zm-269.92.08c35.28 18.48 74.96 28.32 114.16 34.08-26.72-6.88-53.2-17.52-75.52-34.08zm348.96-.16c-22.32 16.64-48.88 27.36-75.68 34.24 37.84-5.52 71.68-14.8 99.12-26.88l1.36-.64q7.32-3.24 13.92-6.72h-38.8zM416 190.12c8.56 6.96 15.84 14.48 21.6 22.56.32.48.4 1.04.08 1.6s-.8.8-1.36.8h-1.28c-.48 0-.96-.24-1.2-.64-6.32-8.72-14.56-16.88-24.48-24.32h-74.8c4.32 7.04 7.92 14.8 10.72 22.88.16.48.08.96-.16 1.36s-.72.64-1.28.64h-1.12c-.64 0-1.2-.4-1.44-1.04-3.04-8.56-6.96-16.64-11.6-23.92l-147.44.08c-4.64 7.28-8.56 15.28-11.52 23.84-.24.64-.8 1.04-1.44 1.04h-1.12c-.48 0-.96-.24-1.28-.64s-.4-.88-.16-1.36c2.8-8.16 6.4-15.76 10.72-22.88h-74.88c-9.84 7.44-18.08 15.52-24.32 24.24-.32.4-.72.64-1.2.64h-1.28c-.56 0-1.12-.32-1.36-.8s-.24-1.12.08-1.6c6.08-8.4 13.36-15.92 21.44-22.4h-40.8C32 203.48 5.52 224.84 4.32 253.96h35.76c.4 0 .8.16 1.04.48s.48.64.48 1.04v1.04c0 .88-.72 1.52-1.52 1.52H4.32C5.44 287.24 32 308.6 55.2 321.88h40.72c-8.24-6.72-15.28-13.92-20.88-21.6l-.64-.88c-.32-.48-.4-1.04-.08-1.6s.8-.8 1.36-.8h1.44c.4.08.8.24 1.04.64 6.32 8.72 14.48 16.8 24.4 24.24h74.88c-4.24-7.04-7.84-14.72-10.72-22.8-.16-.48-.08-.96.16-1.36s.72-.64 1.28-.64h1.28c.56.08 1.12.48 1.36 1.04 3.04 8.56 6.88 16.56 11.52 23.84l147.6-.08c4.64-7.28 8.48-15.28 11.52-23.76l.08-.08c.24-.56.8-.88 1.36-.88H344c.48 0 .96.24 1.28.64s.4.96.16 1.36c-2.8 8.08-6.4 15.76-10.64 22.8h74.96c9.84-7.44 18-15.52 24.24-24.16l.08-.16c.32-.32.72-.48 1.12-.48h1.28c.56 0 1.12.32 1.36.8s.24 1.12-.08 1.6c-5.68 8-12.88 15.44-21.36 22.32h40.88c23.04-13.28 49.44-34.64 50.72-63.68h-35.76c-.8 0-1.52-.72-1.52-1.52v-1.04c0-.88.72-1.52 1.52-1.52H508c-1.28-29.2-27.92-50.64-51.12-63.92h-40.72zM176.4 152.2c-39.28 5.68-78.96 15.6-114.4 34.16h38.72c22.32-16.64 48.8-27.28 75.6-34.16zm50.24-4.32c-41.44 3.6-84.16 14.64-118.88 38.48h72c11.36-17.12 27.52-31.2 46.88-38.48m29.28-1.28c-28.96 0-54.96 16.48-71.2 39.76l142.32-.08C310.8 163 284.88 146.6 255.92 146.6m29.28 1.28c19.36 7.28 35.52 21.28 46.8 38.4h71.84c-34.64-23.76-77.28-34.8-118.64-38.4m50.24 4.32c26.72 6.8 53.12 17.52 75.44 34h38.64c-35.28-18.48-74.88-28.32-114.08-34"/></svg>