<svg xmlns="http://www.w3.org/2000/svg" viewBox="0 0 512 512"><!--! Font Awesome Free 7.0.1 by @fontawesome - https://fontawesome.com License - https://fontawesome.com/license/free (Icons: CC BY 4.0, Fonts: SIL OFL 1.1, Code: MIT License) Copyright 2025 Fonticons, Inc.--><path fill="currentColor" d="M507.06 410.041c4.94-8.379 4.146-13.406-4.762-10.231-2.646-4.322-6.174-8.38-9.79-12.172 2.558-8.555-.618-12.524-9.526-8.114-4.057-2.823-9.084-5.733-14.024-8.115 0-13.318-10.23-10.23-15.523-5.027-9.172-1.323-16.493-.265-23.637 5.027.264-5.733.264-11.466.264-17.375 11.114 0 35.457-9.702 40.484-31.928 1.235-5.998 1.411-12.172-.265-19.316-2.646-11.907-12.612-18.787-22.138-22.667-.705-5.204-6.703-12.613-13.141-14.024-6.439-1.411-10.937 4.322-12.437 9.084-7.497 0-16.934 2.47-18.61 7.41-4.763-.442-9.79-1.236-14.817-1.677 2.381-1.675 4.762-3.087 7.408-4.057 4.763-8.114 12.878-10.055 22.668-10.23v-2.47c17.199-.442 37.926-5.204 47.451-15.965 11.202-12.171 12.877-32.898 10.937-48.598-2.117-15.258-8.555-33.163-21.697-42.424-7.409-5.204-19.051-.706-20.021 8.38-1.94 17.286 1.058 26.459-34.046 22.137-9.084-20.991-21.697-39.337-37.66-52.92-61.388-52.655-147.912-47.451-215.385-33.163 17.375 4.057 36.25 7.585 52.655 14.553-23.108 2.117-46.48 9.967-67.208 20.463-28.93 14.994-38.808 26.371-50.01 37.396 13.143-1.94 25.49-4.498 38.632-3.351-8.555 4.762-16.228 10.76-23.373 17.64-22.755.793-20.991-4.675-23.108-22.844-.97-9.261-12.613-13.583-20.021-8.556-24.784 17.552-29.547 70.472-10.76 91.287 9.525 10.76 30.957 15.259 48.421 15.7-.265.97-.265 1.676-.265 2.381 9.526.441 17.2 2.382 21.698 10.231 2.646.97 5.027 2.382 7.144 4.058-4.763.44-9.79 1.234-14.553 1.675-2.91-5.82-12.084-7.144-18.61-7.144-1.412-5.027-5.733-10.76-12.437-9.084-5.997 1.675-12.436 8.82-13.141 14.023-19.845 8.38-26.548 23.638-22.138 41.984 4.674 21.873 29.105 31.928 40.483 31.928v17.375c-5.82-4.41-12.612-6.615-23.637-5.027-4.851-4.851-15.259-8.908-15.259 5.027-5.204 2.382-10.055 5.204-14.024 8.115-8.643-4.322-11.995-1.5-9.79 8.114-3.616 3.793-6.88 7.585-9.79 12.172-8.996-3.264-9.702 1.94-4.763 10.23-.97 3.088-1.411 6.175-1.676 9.526-.44 27.872 39.338 56.448 64.827 57.418 15.259.441 30.517-7.408 37.926-20.726 99.842 4.321 199.95 3.616 300.056 0 7.144 13.318 22.403 21.432 37.661 20.726 25.755-.97 65.533-29.546 64.827-57.418.177-3.263-.617-6.35-1.5-9.437m-65.09-224.028c.97-2.646 2.116-7.408 2.116-12.877 0-5.204 5.998-7.144 12.436-.705 9.79 10.23 13.142 35.72 12.172 45.07-3.616-11.995-11.466-25.578-26.725-31.488m-4.058 5.91c17.2 5.468 25.225 24.343 26.195 43.13-.97 2.38-2.646 4.762-4.321 6.703-5.028 5.204-13.583 8.82-23.109 10.76 3.793-18.786.265-41.718-11.201-55.566 4.322-.705 9.614-2.117 12.436-5.027m-21.256 5.997c12.172 10.496 17.64 34.575 12.436 56.007-3.616.441-7.144.706-10.231.706-1.676-19.316-5.998-38.808-12.613-56.977 3.264.264 7.145.264 10.408.264M43.924 217.413c-.97-9.261 2.116-34.84 12.171-45.07 6.174-6.44 12.436-4.499 12.436.705 0 5.468 1.235 10.231 2.117 12.877-15.259 5.998-23.108 19.58-26.724 31.488m8.555 24.343c-1.676-1.94-3.087-4.322-4.322-6.703 1.235-18.787 9.085-37.662 26.195-43.13 2.823 2.822 8.115 4.322 12.437 5.027-11.466 13.848-14.994 36.691-11.202 55.566-9.525-1.94-18.08-5.292-23.108-10.76m42.248 12.877c-3.617 0-7.145-.265-11.202-.706-4.057-16.405-1.676-34.31 4.763-46.746v.265l10.76-4.498c4.322-1.676 8.556-3.352 13.142-4.322a151.5 151.5 0 0 0-17.463 56.007m162.287-9.261c-37.044 0-67.12-30.076-67.12-67.12s30.076-67.12 67.12-67.12 67.12 30.076 67.12 67.12-30.076 67.12-67.12 67.12m101.96 19.492c-.265 15.7-6.175 43.13-20.287 50.274-11.642 5.821-5.733-6.615-14.553-51.244 11.73.264 23.462.264 34.84.97m-47.629-1.411c.706 4.322 3.352 35.544-1.41 36.956-10.232 3.087-35.28 3.792-45.07-.97-3.617-2.647-4.058-31.664-3.794-36.25v.264c16.67-.265 33.605-.265 50.274 0m-63.856 47.451c-11.466 3.087-36.691 3.617-48.157-1.41-5.733-2.382-3.352-37.398-1.676-45.512 16.934-.44 33.869-.44 50.98-.706v.265c.97 7.32 2.91 45.158-1.147 47.363m-93.933-45.07c10.76-.705 21.697-1.235 32.457-1.41-2.116 13.582-2.646 38.366-4.321 46.04-.97 5.997-3.793 5.997-8.556 3.792-19.316-8.644-24.343-31.046-19.58-48.422m-31.223 27.607c6.88-.97 13.848-1.676 20.727-2.382 1.411 5.469 3.352 10.496 6.174 15.524 8.82 14.994 38.808 31.487 39.778 6.174 5.469 13.141 35.986 10.76 48.422 9.525 13.847-1.235 20.991-1.235 23.637-12.612 10.937 3.792 27.166 3.616 38.808 2.646 9.967-.706 18.346-.441 21.698-7.85.97 4.498 1.675 10.231 4.057 14.817 9.525 18.787 32.898 1.235 41.277-27.87 7.585.705 15.523 1.675 23.373 2.38-.353 1.147-3.351 6.44 6.439 10.232-41.983 41.454-84.407 77.44-143.942 94.374-55.743-18.346-98.872-52.48-137.504-93.933 8.467-2.999 9.173-7.762 7.056-11.025m-19.051 152.145c-3.352 15.7-19.316 26.195-35.015 25.49-16.935-.706-41.013-14.995-52.215-32.194-2.381-27.43 38.632-54.066 58.389-48.157 13.141 3.793 24.52 27.166 29.547 47.628 0 2.646-.265 5.028-.706 7.233m-7.673-58.212c-.441-11.907-.441-23.814-.265-35.721h.265c2.381-1.411 5.027-3.352 6.88-5.733 5.732-1.411 11.465-4.498 13.317-8.115 2.911-6.262-6.174-6.615-4.762-10.936 2.381-.97 5.027-1.94 6.88-3.087 25.754 25.754 51.684 49.832 85.818 67.913-32.458 9.967-63.857 24.344-93.404 41.454-1.058-16.405-6.791-31.663-14.73-45.775M393.37 444.35c-90.846 3.087-181.868 3.616-272.89 0 0 .264 0 .264-.265.264v-.264h.265c30.958-19.051 63.68-34.575 99.137-44.806 10.23 4.498 20.286 8.38 30.781 11.643 1.94.705 1.94.705 3.793 0 12.612-3.617 25.049-8.115 37.22-13.583 36.603 10.32 69.502 27.96 101.96 46.746m9.261-10.937c-31.664-17.199-64.386-31.664-98.695-41.983 33.604-17.64 63.415-41.719 91.286-67.65 1.94 1.235 4.058 2.117 6.704 2.823 0 .706.264 1.676.44 2.117-4.057 2.381-6.879 5.468-5.203 9.084 1.94 3.352 7.585 6.704 13.318 7.85 2.117 2.382 4.498 4.498 7.144 5.998 0 12.171-.264 24.343-.705 36.426l.264-.264c-8.202 14.023-13.67 32.634-14.553 45.599m93.404 5.468c-11.202 17.2-35.28 31.488-52.214 32.193-17.023.794-35.721-11.642-35.721-32.634 5.027-20.462 16.67-43.835 29.547-47.628 20.02-6.085 61.034 20.64 58.388 48.07m-165.11-334.189c-3.352-63.592-88.906-70.295-111.132-20.727 39.337-21.432 79.644-13.847 111.132 20.727M68.002 397.428c-13.847 1.412-43.659 22.403-43.659 38.103 0 10.23 13.848 17.199 28.4 13.142 10.76-2.823 27.43-15.524 31.664-24.079 5.292-10.231-3.263-28.841-16.405-27.166M258.425 242.02c25.226 0 45.776-19.05 45.776-42.688 0-31.84-35.72-51.244-63.68-39.073 8.379 2.646 14.553 10.231 14.553 19.051 0 20.55-29.37 28.224-41.013 9.967-6.439 30.076 17.11 52.743 44.364 52.743M62.005 456.522c.44 5.733 10.76 11.202 19.05 8.38 5.998-2.382 12.878-9.262 15.26-14.29 2.645-6.173-.971-17.639-8.556-16.228-7.85 1.411-26.196 14.73-25.755 22.138m382.081-59.094c-13.142-1.675-21.697 16.935-16.67 27.166 4.322 8.555 21.257 21.256 31.929 24.079 14.553 4.057 28.4-2.823 28.4-13.142 0-15.7-29.811-36.691-43.659-38.103m-19.757 36.956c-7.408-1.411-10.936 9.967-8.379 16.229 2.117 5.027 9.085 11.907 15.259 14.288 8.114 2.823 18.61-2.646 18.787-8.379.793-7.408-17.817-20.727-25.667-22.138"/></svg>