<svg xmlns="http://www.w3.org/2000/svg" viewBox="0 0 512 512"><!--! Font Awesome Free 7.0.1 by @fontawesome - https://fontawesome.com License - https://fontawesome.com/license/free (Icons: CC BY 4.0, Fonts: SIL OFL 1.1, Code: MIT License) Copyright 2025 Fonticons, Inc.--><path fill="currentColor" d="M288.914 133.257c0 10.057-1.828 20.229-3.885 30.172a28353 28353 0 0 0-19.772 95.542c-1.6 7.2-9.486 5.6-15.657 5.6-27.2 0-34.857-29.714-34.857-52 0-33.485 12.8-77.828 44-94.971 4.914-2.857 10.514-4.8 16.114-4.8 13.029 0 14.057 9.486 14.057 20.457M512 54.857v402.286C512 487.429 487.429 512 457.143 512H54.857C24.571 512 0 487.429 0 457.143V54.857C0 24.571 24.571 0 54.857 0h402.286C487.429 0 512 24.571 512 54.857m-73.143 213.714c0-5.828-23.771-43.085-29.143-45.142-2.514-1.029-8.228-2.629-10.971-2.629-26.4 0-44.229 12-66.514 24.571l-.572-.571c4.914-33.6 16.686-65.371 16.686-99.886 0-50.971-27.2-71.657-77.143-71.657-81.943 0-123.429 80.914-123.429 141.143 0 62.514 36.572 97.143 98.629 97.143 8.571 0 7.886-.686 7.886 2.628-12 91.772-64.572 94.743-64.572 67.315 0-27.886 32-41.715 32.343-43.429-.228-8.686-33.486-19.657-41.943-19.657-24.114 0-37.371 37.714-37.371 57.829 0 36.914 23.314 62.514 60.914 62.514 55.086 0 95.314-56.8 107.772-104.8 10.742-43.086 8-45.029 14.057-48.114 22.857-11.543 40.914-19.2 66.743-19.2 12.685 0 21.714 2.628 41.942 5.942 2.058.115 4.686-1.942 4.686-4"/></svg>