<svg xmlns="http://www.w3.org/2000/svg" viewBox="0 0 512 512"><!--! Font Awesome Free 7.0.1 by @fontawesome - https://fontawesome.com License - https://fontawesome.com/license/free (Icons: CC BY 4.0, Fonts: SIL OFL 1.1, Code: MIT License) Copyright 2025 Fonticons, Inc.--><path fill="currentColor" d="M256 128v256c16.8 0 33.44-3.28 48.96-9.76s29.6-15.84 41.52-27.76 21.28-26 27.76-41.52S384 272.8 384 256s-3.28-33.44-9.76-48.96-15.84-29.68-27.76-41.52-26-21.28-41.52-27.76S272.8 128 256 128M0 256l128 128 128-128-128-128zm384 0c0 16.8 3.28 33.44 9.76 48.96s15.84 29.6 27.76 41.52 26 21.28 41.52 27.76S495.2 384 512 384V128c-33.92 0-66.48 13.52-90.48 37.52S384 222.08 384 256"/></svg>