<svg xmlns="http://www.w3.org/2000/svg" viewBox="0 0 512 512"><!--! Font Awesome Free 7.0.1 by @fontawesome - https://fontawesome.com License - https://fontawesome.com/license/free (Icons: CC BY 4.0, Fonts: SIL OFL 1.1, Code: MIT License) Copyright 2025 Fonticons, Inc.--><path fill="currentColor" d="M255.587 0C399.897 0 512 111.38 512 256c0 151.948-122.323 256-256.413 256C116.748 512 0 397.626 0 256 0 118.813 108.077 0 255.587 0M57.6 186.942Q46.142 218.529 46.142 256c0 114.477 95.07 208.929 210.27 208.929 126.35 0 182.917-105.084 184.259-107.458l-96.413-42.942c-7.948 38.297-42.529 54.71-70.4 57.187v39.33H244.13v-39.433q-42.58-.466-77.729-30.658l35.2-35.613c32.723 30.348 89.187 32.826 89.187-2.271 0-6.4-2.27-11.561-6.813-15.587-14.658-6.194-1.858-.103-226.374-100.542M256.413 45.729c-39.639 0-116.026 8.98-176 96L178.27 185.6c10.323-32.31 41.703-44.284 65.858-45.729v-39.33h29.73v39.33c23.431 1.239 44.8 9.187 64 23.742l-33.343 34.27c-44.077-30.864-86.193-8.257-72.258 11.459 55.123 24.877 45.213 20.439 96 42.942l131.2 58.529c4.232-17.961 6.4-36.232 6.4-54.813 0-58.839-20.439-108.387-61.213-148.542-40.568-41.187-90.013-61.729-148.232-61.729"/></svg>