<svg xmlns="http://www.w3.org/2000/svg" viewBox="0 0 512 512"><!--! Font Awesome Free 7.0.1 by @fontawesome - https://fontawesome.com License - https://fontawesome.com/license/free (Icons: CC BY 4.0, Fonts: SIL OFL 1.1, Code: MIT License) Copyright 2025 Fonticons, Inc.--><path fill="currentColor" d="M256 0C114.58 0 0 114.58 0 256s114.58 256 256 256 256-114.58 256-256S397.42 0 256 0M25.806 256c0-33.342 7.123-65.032 19.923-93.626l109.832 300.8C78.761 425.806 25.806 347.045 25.806 256M256 486.194a229.3 229.3 0 0 1-65.032-9.394l69.058-200.671 70.71 193.858c.516 1.136 1.032 2.168 1.651 3.2A230.5 230.5 0 0 1 256 486.194m31.69-338.065c13.833-.723 26.323-2.168 26.323-2.168 12.387-1.445 10.942-19.716-1.445-18.993 0 0-37.265 2.89-61.316 2.89-22.607 0-60.594-2.89-60.594-2.89-12.387-.723-13.832 18.27-1.445 18.993 0 0 11.768 1.445 24.155 2.168l35.82 98.271-50.375 151.02-83.82-249.291c13.833-.723 26.323-2.168 26.323-2.168 12.387-1.445 10.942-19.716-1.445-18.993 0 0-37.265 2.89-61.316 2.89-4.336 0-9.394-.103-14.865-.31C104.877 67.097 175.587 25.806 256 25.806c59.871 0 114.477 22.917 155.458 60.388-1.032-.104-1.961-.207-2.993-.207-22.607 0-38.607 19.716-38.607 40.878 0 18.993 10.942 34.993 22.607 53.987 8.774 15.277 18.993 34.993 18.993 63.483 0 19.717-7.535 42.53-17.548 74.426l-22.916 76.697zm84.026 306.787 70.297-203.251c13.11-32.826 17.548-59.046 17.548-82.478 0-8.464-.516-16.31-1.548-23.639 17.961 32.826 28.18 70.4 28.18 110.452 0 84.955-46.038 159.071-114.477 198.916"/></svg>