<svg xmlns="http://www.w3.org/2000/svg" viewBox="0 0 512 512"><!--! Font Awesome Free 7.0.1 by @fontawesome - https://fontawesome.com License - https://fontawesome.com/license/free (Icons: CC BY 4.0, Fonts: SIL OFL 1.1, Code: MIT License) Copyright 2025 Fonticons, Inc.--><path fill="currentColor" d="M256 0C114.58 0 0 114.58 0 256s114.58 256 256 256 256-114.58 256-256S397.42 0 256 0m0 183.226c-10.116 0-18.374 8.258-18.374 18.374v110.348c0 42.22-34.994 76.284-77.316 76.284-42.736 0-77.316-34.58-77.316-77.316v-48h59.148v47.278c0 10.322 8.258 18.374 18.374 18.374s18.374-8.155 18.374-18.374V198.297c0-41.29 35.304-74.426 77.11-74.426 42.013 0 77.11 33.342 77.11 74.942v24.464l-35.2 10.426-23.639-11.045v-21.264c.103-9.91-8.155-18.168-18.271-18.168m173.006 127.587c0 42.735-34.58 77.316-77.316 77.316-42.529 0-77.316-34.27-77.316-76.594v-48.31l23.639 11.046 35.2-10.426v48.62c0 10.116 8.258 18.167 18.374 18.167s18.374-8.155 18.374-18.167v-49.549h59.149c-.104 47.38-.104 47.897-.104 47.897"/></svg>