<svg xmlns="http://www.w3.org/2000/svg" viewBox="0 0 512 512"><!--! Font Awesome Free 7.0.1 by @fontawesome - https://fontawesome.com License - https://fontawesome.com/license/free (Icons: CC BY 4.0, Fonts: SIL OFL 1.1, Code: MIT License) Copyright 2025 Fonticons, Inc.--><path fill="currentColor" d="m388.07 256.273 44.59-44.26c46.117-45.79 46.117-120.541 0-166.223C386.54.11 311.352 0 265.234 45.79l-16.393 16.175c-21.53-30.71-57.047-50.709-97.373-50.709-65.243 0-118.246 52.676-118.246 117.482v254.634c0 64.915 53.003 117.48 118.246 117.48 40.545 0 75.734-19.998 97.264-50.707l16.283 16.065c46.118 45.79 121.306 45.79 167.425 0 46.118-45.79 46.118-120.542 0-166.223l-44.589-43.714h.11z"/></svg>