<svg xmlns="http://www.w3.org/2000/svg" viewBox="0 0 512 512"><!--! Font Awesome Free 7.0.1 by @fontawesome - https://fontawesome.com License - https://fontawesome.com/license/free (Icons: CC BY 4.0, Fonts: SIL OFL 1.1, Code: MIT License) Copyright 2025 Fonticons, Inc.--><path fill="currentColor" d="M485.371 306.114c3.315-16 5.372-33.028 5.372-50.057 0-129.714-105.029-234.628-234.629-234.628-17.028 0-33.943 1.942-50.057 5.371C184.343 10 157.371.057 128 .057c-70.629 0-128 57.372-128 128C0 157.43 9.943 184.4 26.629 206c-3.315 16-5.372 33.029-5.372 50.057 0 129.714 105.029 234.629 234.629 234.629 17.028 0 33.943-1.943 50.057-5.372 21.714 16.686 48.686 26.629 77.943 26.629 70.628 0 128-57.372 128-128 .114-29.257-9.829-56.229-26.515-77.829m-222.4 104.572c-74.971 0-137.714-33.372-137.714-74.286 0-18.286 10.286-34.971 33.714-34.971 35.658 0 38.972 51.314 100.686 51.314 29.372 0 48.343-13.029 48.343-30.057 0-21.372-18.286-24.686-48-32-71.429-17.6-134.629-25.143-134.629-99.657 0-67.658 66.972-92.686 124.686-92.686 62.972 0 126.629 25.028 126.629 63.314 0 19.314-13.029 36.343-34.629 36.343-32.343 0-33.371-38.286-85.714-38.286-29.372 0-48 8-48 25.715 0 22.628 23.771 24.914 78.971 37.714 47.315 10.628 103.657 30.628 103.657 88.686 0 67.542-65.257 98.857-128 98.857"/></svg>