<svg xmlns="http://www.w3.org/2000/svg" viewBox="0 0 512 512"><!--! Font Awesome Free 7.0.1 by @fontawesome - https://fontawesome.com License - https://fontawesome.com/license/free (Icons: CC BY 4.0, Fonts: SIL OFL 1.1, Code: MIT License) Copyright 2025 Fonticons, Inc.--><path fill="currentColor" d="M426.667 71.111c47.11 0 85.333 38.222 85.333 85.333v199.112c0 47.11-38.222 85.333-85.333 85.333H85.333C38.223 440.889 0 402.667 0 355.556V156.444c0-47.11 38.222-85.333 85.333-85.333zM268.8 144.622c-8.711-14.578-18.222-14.578-26.311 0l-61.245 101.334c-9.51 13.866-14.577 29.155-14.577 46.666 0 45.245 39.377 83.822 88.977 83.822 48.89 0 89.69-38.666 89.69-83.822 0-17.51-5.867-33.6-15.29-46.666z"/></svg>