<svg xmlns="http://www.w3.org/2000/svg" viewBox="0 0 512 512"><!--! Font Awesome Free 7.0.1 by @fontawesome - https://fontawesome.com License - https://fontawesome.com/license/free (Icons: CC BY 4.0, Fonts: SIL OFL 1.1, Code: MIT License) Copyright 2025 Fonticons, Inc.--><path fill="currentColor" d="M256 512C114.58 512 0 397.42 0 256S114.58 0 256 0c21.574 0 42.632 2.684 62.658 7.742L43.665 396.387H256zm0-148.232v-220.49l-154.22 220.49zm99.097 32.62v95.69c47.174-19.82 87.226-53.368 114.993-95.69zm59.251-142.659-21.883 8.671 21.883 8.568zm-20.954 56.258c-6.917 0-8.259 6.503-8.259 13.316v7.949h16.723v-10.323c0-6.09-2.374-10.942-8.464-10.942M512 256c0 38.503-8.465 75.045-23.742 107.768H355.097V19.923C447.277 58.633 512 149.78 512 256M372.026 139.974h70.4V90.84h-14.349v33.651H413.73V93.935h-14.348v30.555h-13.11V90.84h-14.348v49.135zm70.297 191.278h-27.355v-11.355c0-15.897-5.78-26.013-21.574-26.013-15.897 0-21.368 10.942-21.368 26.735v26.116h70.4v-15.483zm0-106.323-70.4 30.658v12.8l70.4 30.452v-17.136l-14.865-5.884v-27.354l14.865-6.09zm-4.955-70.71h-36.749v27.458h14.349v-12.593h11.355c8.877 16.31 1.342 36.439-19.2 36.439-23.226 0-29.213-26.117-16-38.917l-11.975-10.941c-16.722 18.064-12.593 65.96 27.975 65.96 35.096 0 46.142-37.057 30.245-67.406"/></svg>