<svg xmlns="http://www.w3.org/2000/svg" viewBox="0 0 512 512"><!--! Font Awesome Free 7.0.1 by @fontawesome - https://fontawesome.com License - https://fontawesome.com/license/free (Icons: CC BY 4.0, Fonts: SIL OFL 1.1, Code: MIT License) Copyright 2025 Fonticons, Inc.--><path fill="currentColor" d="M501.22 132.359c-5.812-22.216-23.247-39.652-45.276-45.557C416.105 76.022 256 76.022 256 76.022s-160.105 0-200.038 10.78c-22.029 5.905-39.37 23.34-45.276 45.557C0 172.573 0 256.375 0 256.375s0 83.802 10.686 124.016c5.906 22.122 23.247 38.902 45.276 44.807C95.895 435.978 256 435.978 256 435.978s160.105 0 200.038-10.78c22.029-5.905 39.37-22.685 45.276-44.807C512 340.177 512 256.375 512 256.375s0-83.802-10.686-124.016zM203.6 332.49V180.259l133.765 76.116z"/></svg>