<svg xmlns="http://www.w3.org/2000/svg" viewBox="0 0 512 512"><!--! Font Awesome Free 7.0.1 by @fontawesome - https://fontawesome.com License - https://fontawesome.com/license/free (Icons: CC BY 4.0, Fonts: SIL OFL 1.1, Code: MIT License) Copyright 2025 Fonticons, Inc.--><path fill="currentColor" d="M84.573 223.275v32.965h45.687c-.96 5.28-2.88 10.322-5.76 14.802s-6.722 8.322-11.122 11.282c-7.601 5.28-17.363 8.241-28.805 8.241-22.083 0-40.726-15.122-47.447-35.365a52.27 52.27 0 0 1 0-32.805c6.72-20.403 25.364-35.526 47.447-35.526 6.001-.08 11.922.96 17.523 3.2s10.642 5.522 14.882 9.682l24.244-24.484c-15.282-14.482-35.525-22.483-56.569-22.243-15.762.08-31.125 4.56-44.487 12.882S16.083 186.149 9.121 200.31A85.65 85.65 0 0 0 0 238.797a86.64 86.64 0 0 0 9.041 38.486v.16c6.962 14.163 17.683 26.004 31.045 34.406s28.725 12.802 44.487 12.802c22.804 0 42.007-7.601 56.009-20.724 16.002-14.882 25.124-36.965 25.124-63.13 0-5.84-.48-11.681-1.44-17.442H84.493zm311.569-3.2q-12.122-11.283-33.125-11.282c-18.003 0-31.445 6.64-40.407 19.923l16.723 10.561c6.081-9.041 14.482-13.602 25.044-13.602 6.721 0 13.202 2.56 18.163 7.041 2.4 2.08 4.4 4.721 5.68 7.682 1.28 2.96 2.001 6.08 2.001 9.361v4.4c-7.281-4.08-16.483-6.24-27.684-6.24-13.122 0-23.684 3.12-31.605 9.441-7.922 6.321-11.842 14.643-11.842 25.284-.16 4.72.8 9.442 2.72 13.762s4.801 8.162 8.402 11.282c7.36 6.641 16.802 10.002 27.844 10.002 13.042 0 23.364-5.841 31.205-17.523h.8v14.162h18.083v-62.97c.08-13.282-3.92-23.763-12.002-31.205zm-15.363 71.45c-2.8 2.801-6.08 5.041-9.761 6.562s-7.601 2.32-11.522 2.32a23 23 0 0 1-14.642-4.96 15.25 15.25 0 0 1-4.56-5.522 16.1 16.1 0 0 1-1.601-6.96c0-5.602 2.56-10.242 7.601-13.923 5.04-3.68 11.602-5.6 19.283-5.6 10.562-.16 18.803 2.24 24.644 7.04 0 8.082-3.2 15.123-9.361 21.124zm-74.971-113.617a44.3 44.3 0 0 0-14.883-9.842c-5.6-2.24-11.521-3.36-17.522-3.2h-50.168v149.383h18.883v-60.49h31.205c12.802 0 23.603-4.32 32.405-12.721.72-.72 1.44-1.44 2.08-2.16 7.681-8.402 11.842-19.524 11.442-30.886s-5.28-22.163-13.522-30.084zm-13.282 49.768a25 25 0 0 1-8.482 5.92c-3.2 1.36-6.72 2-10.161 1.84h-31.685V183.27h31.685c6.8 0 13.282 2.64 18.083 7.36 4.88 4.882 7.68 11.443 7.84 18.404.16 6.96-2.48 13.602-7.2 18.643zm198.99-15.603-29.204 73.372h-.4l-29.925-73.372h-20.563l41.447 95.695-23.524 51.448h19.443L512 212.073h-20.563z"/></svg>