<svg xmlns="http://www.w3.org/2000/svg" viewBox="0 0 512 512"><!--! Font Awesome Free 7.0.1 by @fontawesome - https://fontawesome.com License - https://fontawesome.com/license/free (Icons: CC BY 4.0, Fonts: SIL OFL 1.1, Code: MIT License) Copyright 2025 Fonticons, Inc.--><path fill="currentColor" d="M177.486 327.314c19.657 0 35.657-6.971 35.657-29.028 0-22.515-13.372-31.315-34.629-31.429h-52.571v60.457zM171.314 179.2h-45.257v51.2h48.8c17.257 0 29.486-7.543 29.486-26.171 0-20.229-15.657-25.029-33.029-25.029m148 85.486H390.4c-1.943-21.143-12.914-33.943-34.857-33.943-20.914 0-34.857 13.028-36.229 33.943M438.857 0H73.143C32.8 0 0 32.8 0 73.143v365.714C0 479.2 32.8 512 73.143 512h365.714C479.2 512 512 479.2 512 438.857V73.143C512 32.8 479.2 0 438.857 0M399.43 174.857h-88.915v-21.6h88.915zM221.37 241.943c26.972 7.657 40 31.428 40 58.971 0 44.572-37.371 63.657-77.257 63.886h-106.4V145.371h103.429c37.6 0 70.171 10.629 70.171 54.286 0 22.057-10.285 32.914-29.943 42.286m135.658-44.114c49.714 0 77.257 39.2 77.257 86.171 0 1.829-.115 3.771-.229 5.714 0 .915-.114 1.715-.114 2.515H319.429c0 25.371 13.371 40.342 38.971 40.342 13.257 0 30.286-7.085 34.514-20.685h38.515c-11.886 36.457-36.458 53.485-74.4 53.485-50.058 0-81.258-33.942-81.258-83.428 0-47.772 32.8-84.114 81.258-84.114"/></svg>