<svg xmlns="http://www.w3.org/2000/svg" viewBox="0 0 512 512"><!--! Font Awesome Free 7.0.1 by @fontawesome - https://fontawesome.com License - https://fontawesome.com/license/free (Icons: CC BY 4.0, Fonts: SIL OFL 1.1, Code: MIT License) Copyright 2025 Fonticons, Inc.--><path fill="currentColor" d="M206.222 239.333c28.267-13.51 43.022-33.955 43.022-65.777 0-62.756-46.755-78.045-100.71-78.045H0v315.022h152.711c57.245 0 111.022-27.466 111.022-91.466 0-39.556-18.755-68.8-57.51-79.734M69.244 149.29h64.978c24.978 0 47.467 7.022 47.467 36 0 26.755-17.511 37.511-42.222 37.511H69.244zm74.045 207.733H69.244v-86.755h75.467c30.489 0 49.778 12.71 49.778 44.977 0 31.823-23.022 41.778-51.2 41.778m318.667-213.955H334.222v-31.023h127.734zM512 299.777c0-67.466-39.467-123.733-111.022-123.733-69.511 0-116.711 52.267-116.711 120.712 0 71.022 44.71 119.733 116.71 119.733 54.49 0 89.779-24.533 106.756-76.711h-55.289c-5.955 19.466-30.488 29.778-49.51 29.778-36.712 0-56-21.512-56-58.045h164.533c.266-3.733.533-7.733.533-11.733m-164.978-27.733c2.045-29.955 21.956-48.71 52-48.71 31.467 0 47.29 18.488 49.956 48.71z"/></svg>