<svg xmlns="http://www.w3.org/2000/svg" viewBox="0 0 512 512"><!--! Font Awesome Free 7.0.1 by @fontawesome - https://fontawesome.com License - https://fontawesome.com/license/free (Icons: CC BY 4.0, Fonts: SIL OFL 1.1, Code: MIT License) Copyright 2025 Fonticons, Inc.--><path fill="currentColor" d="m500.896 242.003-46.75-80.994c1.027-1.96 1.774-4.292 1.774-6.718 0-7.465-6.252-13.717-13.717-13.997l-51.788-89.486c.467-1.493 1.027-2.986 1.027-4.479 0-8.025-6.532-14.277-14.277-14.277-4.479 0-8.211 1.96-11.01 5.226h-99.47c-2.52-3.266-6.253-5.226-10.732-5.226s-8.211 1.96-10.73 5.226h-99.004c-2.706-3.266-6.532-5.226-11.01-5.226-7.746 0-14.277 6.252-14.277 14.277 0 1.493.466 3.266 1.026 4.48l-52.254 90.698c-5.04 2.24-8.492 6.998-8.492 12.784 0 .466.28 1.026.28 1.492l-49.735 85.94C5.04 242.936 0 248.722 0 255.72c0 6.718 4.759 12.504 11.29 13.997L62.8 358.736c-.467 1.493-.747 2.706-.747 4.479 0 6.718 4.759 12.504 11.29 13.717l48.243 83.7c-.467 1.493-1.027 3.266-1.027 5.039 0 8.025 6.532 14.277 14.277 14.277 4.479 0 8.211-1.96 10.73-5.04h99.75c2.52 2.987 6.533 5.04 10.732 5.04s8.211-1.96 10.73-5.04h99.937c2.52 2.707 6.252 4.48 10.264 4.48 8.025 0 14.277-6.532 14.277-14.277 0-1.493-.28-2.706-.747-4.012l48.243-84.26c6.531-1.214 11.29-6.999 11.29-13.717 0-1.493-.28-2.986-.746-4.48l51.228-89.019c6.531-1.213 11.477-6.998 11.477-13.996 0-6.719-4.759-12.504-11.01-13.717zM130.449 437.677l-40.777-70.73h40.777zm0-78.195H89.672c-.28-1.026-.746-1.96-1.213-2.986l41.99-44.23zm0-58.226L83.42 350.991c-1.213-.466-2.519-1.213-3.732-1.493l-51.974-89.952c.466-1.213.466-2.52.466-3.733s0-2.24-.28-3.266l48.522-83.98c2.52-.28 5.039-1.026 7.278-2.52l46.75 48.523zm0-95.458-42.736-44.23c1.213-1.959 1.96-4.478 1.96-7.277 0-.28-.28-.747-.28-1.027l40.963-14.743v67.277zm0-75.209-40.777 14.744 40.777-70.45zm304.662 36.485.747 1.213-33.032 155.924-59.533-62.706 91.445-94.71.28.28zM259.5 348.472l10.731 11.01h-21.275zm-.28-10.545-77.728-79.688 74.276-78.754 77.448 81.74zm5.04 5.506 73.995-76.702 62.985 66.53-5.505 26.221H280.028l-15.77-15.956zm105.908-284.88c1.026.467 1.96 1.026 3.265 1.213l54.028 93.965v.466c0 2.706.746 5.226 1.96 7.278l-90.98 94.432-77.448-81.741L370.26 58.46zm-8.492-1.96L255.673 168.847l-53.28-56.267L357.57 56.593h4.012zm-115.24 0c2.52 2.52 5.786 4.013 9.518 4.013s6.999-1.493 9.518-4.013h69.984L196.98 106.608l-47.495-50.015zM138.009 61.82l1.026-1.96c.84-.186 1.68-.466 2.52-.746l47.775 50.201-51.228 18.476V61.819zm0 73.996 56.733-20.529 55.707 58.973-74.276 78.475-38.258-39.284v-77.728zm0 86.5 33.965 35.271-33.965 35.739zm0 82.02 39.284-41.523 77.262 80.248-15.957 16.516H138.101v-55.24zm6.531 151.258c-1.493-1.493-3.265-2.52-5.505-3.266l-1.026-1.493v-83.7h93.218l-85.473 88.46zm121.212 0c-2.52-2.24-5.972-4.012-9.704-4.012s-7.279 1.773-9.705 4.012H156.39l85.473-88.459h35.739l85.473 88.46h-97.23zm111.974-11.01-4.013 6.998c-1.213.28-2.24.746-3.265 1.213l-83.234-85.753H393.96l-16.236 77.448zm12.037-20.716 12.037-56.733h20.529l-32.473 56.733zm32.472-64.198H403.2l4.292-19.782 15.956 16.983c-.466.746-1.026 1.773-1.213 2.706zm61.773-100.216-51.695 90.232c-1.213.466-2.52 1.026-3.732 1.773l-19.223-20.529 32.286-152.937 42.737 73.996c-.28 1.213-.747 2.519-.747 4.012 0 1.213.28 2.24.467 3.453z"/></svg>