<svg xmlns="http://www.w3.org/2000/svg" viewBox="0 0 512 512"><!--! Font Awesome Free 7.0.1 by @fontawesome - https://fontawesome.com License - https://fontawesome.com/license/free (Icons: CC BY 4.0, Fonts: SIL OFL 1.1, Code: MIT License) Copyright 2025 Fonticons, Inc.--><path fill="currentColor" d="M357.46 256c0-27.09-10.595-52.48-29.688-71.672-19.093-19.193-44.583-29.688-71.672-29.688h-.1c-27.09 0-52.58 10.595-71.672 29.688-19.093 19.093-29.688 44.583-29.688 71.672 0 27.09 10.595 52.48 29.688 71.672C203.52 346.865 228.911 357.36 256 357.36h.1c27.09 0 52.58-10.595 71.672-29.688C346.964 308.48 357.46 283.089 357.46 256M176.231 482.012c22.991 8.097 46.982 12.595 71.572 13.394V436.33a180 180 0 0 1-48.98-8.897zm136.947-54.579a180.6 180.6 0 0 1-48.981 8.897v59.076c24.59-.8 48.58-5.297 71.572-13.394zm-220.714 3.699c20.192 18.892 43.283 33.986 68.673 44.982l22.491-54.479c-18.293-7.897-35.086-18.792-49.78-31.887zm285.788-41.384c-14.594 13.195-31.387 23.99-49.78 31.887l22.49 54.479c25.391-10.996 48.382-26.09 68.674-44.982zm-232.909-11.596c13.595 12.096 28.989 21.892 45.782 28.989 17.993 7.597 37.086 11.995 56.678 12.895v-46.782c-26.39-1.8-50.28-12.295-69.073-28.589l-33.387 33.387zm187.927-33.387c-18.793 16.294-42.684 26.79-69.073 28.59v46.78c19.592-.899 38.685-5.297 56.678-12.894 16.793-7.097 32.187-16.893 45.782-28.989l-33.387-33.387zM38.485 356.561c10.696 23.19 24.99 44.282 42.483 63.075l41.284-41.284c-12.395-13.395-22.89-28.589-30.888-45.182zm382.25-23.491a182.8 182.8 0 0 1-30.887 45.182l41.284 41.284c17.493-18.693 31.787-39.884 42.483-63.075l-52.88-23.491zm-330.87-68.973c1.1 18.792 5.398 37.185 12.795 54.479 7.497 17.793 17.993 33.986 31.188 48.18l33.487-33.486c-16.394-18.793-26.89-42.783-28.69-69.173zm283.59 0c-1.8 26.39-12.296 50.38-28.69 69.173l33.487 33.487a168.3 168.3 0 0 0 31.188-48.181c7.297-17.394 11.596-35.687 12.695-54.48zm-356.961 0c.9 26.69 6.097 52.68 15.593 77.47l52.88-23.391a179.8 179.8 0 0 1-11.296-53.98H16.594zm421.935 0c-1 18.892-4.998 37.085-11.296 53.979l52.78 23.49c9.496-24.79 14.694-50.78 15.593-77.47zM32.087 170.433c-9.496 24.79-14.694 50.78-15.593 77.47H73.57c1-18.892 4.998-37.085 11.296-53.979zm101.66-25.19a168.3 168.3 0 0 0-31.187 48.181 168 168 0 0 0-12.795 54.48h48.78c1.8-26.39 12.296-50.381 28.69-69.174zm211.018 33.487c16.394 18.793 26.89 42.783 28.69 69.173h48.68a164.8 164.8 0 0 0-12.695-54.479c-7.497-17.793-17.993-33.986-31.188-48.18zm82.368 15.194a179.8 179.8 0 0 1 11.296 53.98h57.077c-.9-26.69-6.097-52.68-15.593-77.47zM80.968 92.364c-17.593 18.693-31.787 39.884-42.483 63.075l52.88 23.491a182.8 182.8 0 0 1 30.887-45.182zm308.88 41.284c12.395 13.395 22.89 28.589 30.888 45.182l52.879-23.49c-10.696-23.192-24.99-44.283-42.483-63.076l-41.284 41.484zM247.903 91.864c-19.592.9-38.685 5.298-56.678 12.895-16.793 7.097-32.187 16.893-45.782 28.989l33.387 33.387c18.793-16.294 42.683-26.79 69.073-28.59zm16.294 46.682c26.39 1.8 50.28 12.295 69.073 28.589l33.387-33.387c-13.595-12.096-28.989-21.892-45.782-28.989-17.993-7.597-37.086-11.995-56.678-12.895zm-103.06-102.66c-25.39 10.996-48.381 26.09-68.673 44.982l41.384 41.384c14.694-13.195 31.387-23.99 49.78-31.887zm167.335 54.479c18.293 7.897 35.086 18.792 49.78 31.887l41.384-41.384c-20.192-18.892-43.283-33.986-68.673-44.982zm-80.569-73.871c-24.59.8-48.58 5.297-71.572 13.394l22.591 54.579a180.6 180.6 0 0 1 48.981-8.897zm16.294 59.076c17.093.7 33.487 3.799 48.98 8.897l22.592-54.579c-22.991-8.097-46.982-12.595-71.572-13.394zM512 264.197h-.2C507.602 398.944 399.044 507.602 264.197 511.8v.1h-16.294v-.1C113.056 507.602 4.498 398.944.2 264.097H0v-16.294h.2C4.498 113.056 113.056 4.398 247.903.2V.1h16.294v.1C399.044 4.398 507.602 113.056 511.8 247.903h.2z"/></svg>