<svg xmlns="http://www.w3.org/2000/svg" viewBox="0 0 512 512"><!--! Font Awesome Free 7.0.1 by @fontawesome - https://fontawesome.com License - https://fontawesome.com/license/free (Icons: CC BY 4.0, Fonts: SIL OFL 1.1, Code: MIT License) Copyright 2025 Fonticons, Inc.--><path fill="currentColor" d="M208.178 88.298c0-9.994 6.296-21.687 17.69-21.687 11.093 0 17.69 11.693 17.69 21.687 0 10.294-6.597 21.688-17.69 21.688-11.394 0-17.69-11.394-17.69-21.688M512 248.205c0 35.978-11.393 102.24-36.279 129.624-22.886 24.885-87.349 61.064-120.829 70.558l-1.1.3v32.581c0 16.29-12.592 30.582-29.082 30.582-9.994 0-19.389-5.697-24.586-14.292-5.397 8.595-14.891 14.292-24.885 14.292s-19.389-5.697-24.886-14.292c-5.097 8.595-14.591 14.292-24.585 14.292-10.294 0-19.389-5.697-24.886-14.292-5.097 8.595-14.591 14.292-24.585 14.292-18.89 0-29.383-15.69-29.383-32.88-16.29 12.292-35.68 19.388-56.567 19.388-21.987 0-43.375-8.295-60.265-22.887 10.294-.3 20.588-2.298 30.283-5.696-20.888-5.697-39.377-18.89-51.97-36.279 21.388 4.597 46.173 1.699 67.06-11.094-21.986-21.987-56.566-58.865-68.559-87.348C1.199 321.662 0 303.672 0 289.38c0-49.67 20.288-159.906 86.25-159.906 10.593 0 18.888 4.897 23.086 14.891 3.698-5.396 7.695-10.493 11.993-15.39 1.999-2.599 5.697-5.397 7.096-8.296 7.995-12.592 11.693-21.087 21.687-33.98 32.281-41.076 81.652-69.36 134.821-69.36 5.997 0 11.993.3 17.69 1.1C313.516 6.746 328.607.15 344.298.15c14.592 0 29.683 5.997 39.977 16.291.9.9 1.399 2.299 1.399 3.398 0 3.698-10.294 13.393-12.892 16.29 4.297 1.4 15.69 6.897 15.69 11.994 0 2.898-2.898 5.097-4.597 7.096 31.382 27.683 49.371 67.06 56.267 107.936 4.298-5.097 10.294-8.595 17.09-8.595 10.594 0 20.888 7.096 28.583 13.992 20.888 18.59 25.685 53.07 25.685 79.654zM188.19 89.398c0 18.289 12.592 37.078 32.28 37.078 19.69 0 32.282-18.889 32.282-37.078 0-17.99-12.593-36.879-32.281-36.879-19.689 0-32.281 18.89-32.281 36.879m49.67 104.538c0-19.688 3.698-39.077 8.596-58.265-51.97 79.453-13.493 184.491 68.86 184.491 21.387 0 42.574-7.695 59.964-19.988 1.999-7.396 3.698-14.891 3.698-22.587 0-14.291-6.296-21.387-20.588-21.387-4.597 0-9.095.9-13.392 1.699-63.263 12.692-107.037 3.698-107.037-63.963zm-41.075 254.751c0-11.093-8.895-20.888-20.288-20.888s-19.989 9.695-19.989 20.888v32.581c0 11.094 8.595 21.088 19.989 21.088s20.288-9.695 20.288-21.088zm49.07 0c0-11.093-8.594-20.888-19.987-20.888-11.394 0-20.288 9.695-20.288 20.888v32.581c0 11.094 8.894 21.088 20.288 21.088s19.988-9.994 19.988-21.088zm49.672 0c0-11.093-8.895-20.888-20.288-20.888s-20.288 9.695-20.288 20.888v32.581c0 11.094 8.894 21.088 20.288 21.088s20.288-9.695 20.288-21.088zm49.67 0c0-11.093-8.894-20.888-20.287-20.888-11.394 0-20.288 9.695-20.288 20.888v32.581c0 11.094 8.894 21.088 20.288 21.088s20.288-9.994 20.288-21.088zm76.556-162.805c-30.882 59.066-90.247 102.54-158.507 102.54-96.544 0-160.506-84.55-160.506-176.496 0-16.89 1.999-33.38 5.996-49.671-19.988 33.68-29.682 72.557-29.682 111.335 0 60.264 24.885 121.628 71.358 160.805 5.097-9.694 14.891-16.29 25.985-16.29 9.994 0 19.388 5.697 24.585 14.292 5.397-8.595 14.592-14.292 24.886-14.292 9.994 0 19.388 5.697 24.585 14.292 5.397-8.595 14.892-14.292 24.886-14.292s19.388 5.697 24.885 14.292c5.097-8.595 14.592-14.292 24.586-14.292 10.893 0 20.887 6.596 25.685 15.99 43.374-36.278 68.56-91.945 71.358-148.213zm10.594-99.641c0-53.669-34.58-105.638-92.546-105.638-30.282 0-58.566 15.09-78.854 36.878-19.988 66.361-27.384 136.52 41.376 136.52 28.783 0 97.343-28.483 84.25 36.879 28.884-25.985 45.674-65.662 45.674-104.54z"/></svg>