<svg xmlns="http://www.w3.org/2000/svg" viewBox="0 0 512 512"><!--! Font Awesome Free 7.0.1 by @fontawesome - https://fontawesome.com License - https://fontawesome.com/license/free (Icons: CC BY 4.0, Fonts: SIL OFL 1.1, Code: MIT License) Copyright 2025 Fonticons, Inc.--><path fill="currentColor" d="M204.629 53.029C204.629 24.8 210.8 16 220.514 8 141.086 17.714 49.886 46.857 19.03 83.886c-6.172 8.8-10.629 23.771-10.629 42.4C8.4 244.57 130.457 512 218.8 512c41.486 0 111.2-68 167.657-158.857-8 2.628-13.257 2.628-21.143 2.628-65.371 0-160.685-226.857-160.685-302.742M344.97 0c-34.4 0-47.657 6.171-47.657 41.486 0 75.885 61.486 226.857 116.229 226.857C443.6 268.343 503.6 154.4 503.6 60c0-46.743-76.571-60-158.629-60"/></svg>