<svg xmlns="http://www.w3.org/2000/svg" viewBox="0 0 512 512"><!--! Font Awesome Free 7.0.1 by @fontawesome - https://fontawesome.com License - https://fontawesome.com/license/free (Icons: CC BY 4.0, Fonts: SIL OFL 1.1, Code: MIT License) Copyright 2025 Fonticons, Inc.--><path fill="currentColor" d="M429.244 392.267c0 6.044-4.088 10.4-9.955 10.4-6.045 0-9.956-4.623-9.956-10.4s3.911-10.4 9.956-10.4c5.867 0 9.955 4.622 9.955 10.4m-276.266-10.4c-6.311 0-9.956 4.622-9.956 10.4 0 5.777 3.645 10.4 9.956 10.4 5.778 0 9.689-4.356 9.689-10.4-.09-5.778-3.911-10.4-9.69-10.4m104.444-.267c-4.8 0-7.733 3.111-8.444 7.733h16.978c-.8-5.066-3.912-7.733-8.534-7.733m95.822.267c-6.044 0-9.688 4.622-9.688 10.4 0 5.777 3.644 10.4 9.688 10.4s9.956-4.356 9.956-10.4c0-5.778-3.911-10.4-9.956-10.4m94.134 23.2c0 .266.266.444.266.977 0 .267-.266.445-.266.978-.267.267-.267.445-.445.711-.266.267-.444.445-.977.445-.267.266-.445.266-.978.266-.267 0-.445 0-.978-.266-.267 0-.444-.267-.711-.445-.267-.266-.445-.444-.445-.71-.266-.445-.266-.712-.266-.979 0-.444 0-.71.266-.977 0-.445.267-.711.445-.978.267-.267.444-.267.711-.445.444-.266.711-.266.978-.266.444 0 .71 0 .978.266.444.267.71.267.977.445s.178.533.445.978m-1.956 1.244c.445 0 .445-.267.711-.267.267-.266.267-.444.267-.71 0-.267 0-.445-.267-.712-.266 0-.444-.266-.977-.266h-1.423v3.11h.711v-1.244h.267l.978 1.245h.711zM512 99.556v312.888c0 23.556-19.111 42.667-42.667 42.667H42.667C19.11 455.111 0 436 0 412.444V99.556C0 76 19.111 56.889 42.667 56.889h426.666C492.89 56.889 512 76 512 99.556M56.889 223.644c0 68 55.2 123.112 123.111 123.112 24.178 0 47.911-7.29 68-20.534-64.8-52.71-64.356-152.178 0-204.889C227.911 108 204.178 100.8 180 100.8c-67.911-.089-123.111 55.111-123.111 122.844M256 320.356c62.667-48.89 62.4-144.178 0-193.334-62.4 49.156-62.667 144.534 0 193.334m-126.489 67.822c0-7.734-5.067-12.8-13.067-13.067-4.088 0-8.444 1.245-11.377 5.778-2.134-3.645-5.778-5.778-10.845-5.778-3.378 0-6.755 1.245-9.422 4.8V376h-7.289v32.622H84.8c0-16.8-2.222-26.844 8-26.844 9.067 0 7.289 9.066 7.289 26.844h7.022c0-16.266-2.222-26.844 8-26.844 9.067 0 7.289 8.889 7.289 26.844h7.289v-20.444zM169.422 376H162.4v3.911c-2.4-2.933-5.778-4.8-10.4-4.8-9.156 0-16.178 7.289-16.178 17.156 0 9.955 7.022 17.155 16.178 17.155 4.622 0 8-1.689 10.4-4.8v4.09h7.022zm36 22.756c0-13.334-20.355-7.29-20.355-13.512 0-5.066 10.577-4.266 16.444-.977l2.933-5.778c-8.355-5.422-26.844-5.333-26.844 7.289 0 12.71 20.356 7.378 20.356 13.333 0 5.6-12 5.156-18.4.711l-3.112 5.6c9.956 6.756 28.978 5.334 28.978-6.666m31.467 8.266-1.956-6.044c-3.377 1.866-10.844 3.91-10.844-3.645v-14.755h11.644V376H224.09v-9.956H216.8V376h-6.756v6.489h6.756v14.844c0 15.645 15.378 12.8 20.089 9.69m11.822-11.91h24.445c0-14.4-6.578-20.09-15.467-20.09-9.422 0-16.178 7.022-16.178 17.156 0 18.222 20.089 21.244 30.045 12.622l-3.378-5.333c-6.934 5.689-17.422 5.155-19.467-4.356M301.244 376c-4.088-1.778-10.31-1.6-13.51 3.911V376h-7.29v32.622h7.29v-18.4c0-10.31 8.444-8.978 11.377-7.466zm9.423 16.267c0-10.134 10.31-13.423 18.4-7.467l3.377-5.778c-10.31-8.089-29.066-3.644-29.066 13.334 0 17.6 19.91 21.155 29.066 13.333l-3.377-5.778c-8.178 5.778-18.4 2.311-18.4-7.644M369.956 376h-7.29v3.911c-7.377-9.778-26.577-4.267-26.577 12.356 0 17.066 19.911 21.955 26.578 12.355v4.09h7.289zm29.955 0c-2.133-1.067-9.778-2.578-13.511 3.911V376h-7.022v32.622h7.022v-18.4c0-9.778 8-9.155 11.378-7.466zm35.822-13.244h-7.022v17.155c-7.289-9.689-26.578-4.533-26.578 12.356 0 17.244 20 21.866 26.578 12.355v4.09h7.022zM442.49 296v4.089h.711V296h1.689v-.711H440.8V296zm5.867 110.044c0-.444 0-.977-.267-1.422-.267-.266-.445-.71-.711-.978-.267-.266-.711-.444-.978-.71-.444 0-.978-.267-1.422-.267-.267 0-.711.266-1.245.266-.444.267-.71.445-.977.711-.445.267-.712.712-.712.978-.266.445-.266.978-.266 1.422 0 .267 0 .712.266 1.245 0 .267.267.711.712.978.266.266.444.444.977.71.445.267.978.267 1.245.267.444 0 .978 0 1.422-.266.267-.267.711-.445.978-.711.266-.267.444-.711.71-.978.268-.533.268-.978.268-1.245M451.2 295.2h-1.244l-1.423 3.111-1.422-3.111h-1.244v4.8h.71v-3.644l1.423 3.11h.978l1.244-3.11V300h.978zm3.911-71.556c0-67.733-55.2-122.933-123.111-122.933-24.178 0-47.911 7.289-68 20.533 64.089 52.712 65.067 152.445 0 204.89 20.089 13.333 44 20.533 68 20.533 67.911.089 123.111-55.023 123.111-123.023"/></svg>