<svg xmlns="http://www.w3.org/2000/svg" viewBox="0 0 512 512"><!--! Font Awesome Free 7.0.1 by @fontawesome - https://fontawesome.com License - https://fontawesome.com/license/free (Icons: CC BY 4.0, Fonts: SIL OFL 1.1, Code: MIT License) Copyright 2025 Fonticons, Inc.--><path fill="currentColor" d="M255.95.05c-13.297 0-26.295 1-39.092 3l3.699 23.695c11.498-1.8 23.395-2.7 35.393-2.7s23.895.9 35.393 2.7l3.7-23.696C282.244 1.05 269.246.05 255.95.05m60.788 7.299-5.699 23.295c23.396 5.699 45.391 14.897 65.387 27.095l12.498-20.496c-22.096-13.398-46.39-23.596-72.186-29.894m76.385 61.588c19.096 13.997 35.993 30.894 50.09 50.09l19.397-14.197c-15.697-21.196-34.294-39.793-55.39-55.29l-14.197 19.297zm81.684 54.189-20.496 12.498c12.198 19.996 21.396 41.991 27.095 65.387l23.295-5.7c-6.298-25.794-16.496-50.09-29.894-72.185m10.498 97.48c1.8 11.499 2.7 23.396 2.7 35.394s-.9 23.895-2.7 35.393l23.696 3.7C510.9 282.394 512 269.296 512 256s-1-26.295-3-39.092zm-30.994 155.87 20.496 12.498c13.398-22.096 23.596-46.39 29.894-72.186l-23.295-5.699c-5.699 23.396-14.897 45.391-27.095 65.387m8.199 30.794-19.397-14.197c-13.997 19.096-30.894 35.993-50.09 50.09l14.197 19.397c21.096-15.497 39.793-34.094 55.19-55.19zm-86.084 46.991c-19.996 12.198-41.991 21.396-65.387 27.095l5.7 23.295c25.794-6.298 50.09-16.496 72.185-29.894zm-81.384 54.69-3.699-23.696c-11.498 1.8-23.395 2.7-35.393 2.7s-23.895-.9-35.393-2.7l-3.7 23.696c12.698 1.9 25.796 2.999 39.093 2.999s26.295-1 39.092-3m-94.081-27.595a231.2 231.2 0 0 1-50.09-18.596l-7.799-4-32.794 7.699 5.5 23.395 24.295-5.699a251 251 0 0 0 55.289 20.496l5.699-23.295zM95.38 494.553l-5.399-23.295-41.691 9.698c-10.398 2.4-19.697-6.899-17.297-17.297l9.698-41.591-23.395-5.5-9.698 41.593c-6.4 27.794 18.396 52.59 46.19 46.19l41.592-9.698zm-49.99-92.881 7.699-32.794-4-7.799a231.2 231.2 0 0 1-18.596-50.09l-23.195 5.7c4.699 19.395 11.597 37.992 20.396 55.288l-5.7 24.296 23.396 5.499zM3 295.092l23.696-3.699c-1.8-11.498-2.7-23.395-2.7-35.393s.9-23.895 2.7-35.393l-23.696-3.7C1 229.706 0 242.704 0 256s1 26.295 3 39.092m27.595-94.081c5.699-23.396 14.897-45.391 27.095-65.387l-20.496-12.498c-13.398 22.096-23.596 46.39-29.894 72.186zM49.49 104.83l19.397 14.197c13.997-19.097 30.894-35.993 50.09-50.09L104.68 49.54a258 258 0 0 0-55.19 55.19zm86.084-46.991c19.996-12.198 41.991-21.396 65.387-27.095l-5.8-23.395c-25.794 6.298-50.09 16.496-72.185 29.894l12.498 20.496zm120.376 406.12c114.878 0 207.96-93.081 207.96-207.959S370.827 48.04 255.95 48.04 47.99 141.123 47.99 256c0 36.393 9.399 70.686 25.796 100.48 1.6 2.9 2.1 6.2 1.4 9.399L53.59 458.36l92.481-21.595c3.2-.7 6.5-.2 9.399 1.4 29.794 16.496 63.987 25.794 100.48 25.794"/></svg>