<svg xmlns="http://www.w3.org/2000/svg" viewBox="0 0 512 512"><!--! Font Awesome Free 7.0.1 by @fontawesome - https://fontawesome.com License - https://fontawesome.com/license/free (Icons: CC BY 4.0, Fonts: SIL OFL 1.1, Code: MIT License) Copyright 2025 Fonticons, Inc.--><path fill="currentColor" d="m423.226 234.613-3.672-6.451c.1-46.05-21.238-64.806-46.148-79.097 7.542-1.985 15.283-3.573 17.467-13.1 13-3.276 15.68-9.33 16.97-15.681 3.375-2.283 14.688-8.634 13.498-19.551 6.351-4.367 9.924-10.024 8.038-17.963 6.848-7.444 8.635-13.597 5.756-19.254 8.238-10.222 4.566-15.482 1.092-20.742 6.153-11.115.695-23.024-16.474-21.04-6.848-10.023-21.735-7.74-24.017-7.74-2.58-3.176-5.955-5.955-16.376-4.665-6.748-6.054-14.29-4.962-22.131-2.084-9.23-7.245-15.383-1.39-22.43.794-11.214-3.573-13.794 1.29-19.253 3.374-12.207-2.58-15.978 2.977-21.833 8.833l-6.848-.1C268.405 30.866 259.275 52.7 256 63.914c-3.275-11.214-12.406-33.048-30.865-43.766l-6.848.099c-5.855-5.856-9.626-11.413-21.833-8.833-5.558-1.985-8.04-6.947-19.254-3.374-4.565-1.39-8.832-4.367-13.795-4.268-2.58.1-5.458.993-8.634 3.474-7.84-2.978-15.383-3.97-22.131 2.084-10.421-1.29-13.895 1.39-16.376 4.664-2.282 0-17.169-2.282-24.017 7.741-17.169-1.984-22.528 9.925-16.375 21.04-3.473 5.36-7.146 10.62 1.092 20.742-2.878 5.657-1.092 11.81 5.756 19.254-1.786 7.94 1.786 13.596 8.039 17.963-1.191 10.917 10.123 17.268 13.497 19.55 1.29 6.352 3.97 12.307 16.97 15.681 2.184 9.429 9.925 11.116 17.468 13.1-24.91 14.292-46.248 33.049-46.149 79.098l-3.672 6.45c-28.582 17.07-54.286 72.151-14.093 116.811 2.58 13.994 7.047 24.017 10.917 35.133 5.856 44.858 44.164 65.798 54.187 68.28 14.788 11.115 30.568 21.635 51.806 28.979C211.836 504.259 233.67 512 255.504 512h.992c21.933 0 43.668-7.741 63.715-28.185 21.337-7.344 37.018-17.864 51.805-28.98 10.123-2.48 48.332-23.421 54.188-68.28 3.87-11.115 8.336-21.138 10.916-35.132 40.293-44.759 14.59-99.74-13.894-116.81m-22.032-7.94c-1.489 18.559-98.152-64.607-81.48-67.386 45.355-7.444 82.969 19.055 81.48 67.386m-42.675 92.397c-24.315 15.68-59.348 5.557-78.204-22.628-18.857-28.185-14.49-63.715 9.825-79.395s59.348-5.558 78.204 22.627c18.857 28.186 14.49 63.715-9.825 79.396M291.132 32.949c.794 4.168 1.787 6.749 2.878 7.543 5.36-5.757 9.726-11.612 16.673-17.17 0 3.275-1.687 6.749 2.482 9.33 3.672-4.963 8.733-9.429 15.382-13.2-3.175 5.557-.595 7.245 1.191 9.527 5.062-4.366 9.925-8.733 19.254-12.207-2.58 3.077-6.153 6.153-2.382 9.726 5.26-3.275 10.52-6.55 22.925-8.833-2.779 3.077-8.634 6.253-5.061 9.33 6.55-2.482 13.894-4.367 21.933-5.36-3.87 3.176-7.047 6.253-3.87 8.734 7.045-2.184 16.771-5.062 26.2-2.58l-5.955 6.053c-.695.794 13.993.596 23.72.794-3.574 4.962-7.146 9.627-9.23 18.063.992.992 5.756.397 10.32 0-4.664 9.825-12.702 12.207-14.588 16.474 2.878 2.183 6.749 1.588 11.115.1-3.374 6.847-10.321 11.61-15.879 17.169 1.39.992 3.87 1.587 9.627.893-5.16 5.458-11.314 10.42-18.658 14.886 1.29 1.489 5.756 1.489 9.925 1.588-6.65 6.451-15.185 9.825-23.224 14.093 3.97 2.68 6.848 2.084 9.925 2.084-5.657 4.665-15.284 7.046-24.216 9.924 1.687 2.68 3.375 3.375 7.047 4.07-9.429 5.26-23.025 2.878-26.796 5.557.893 2.68 3.573 4.367 6.65 5.756-15.284.893-56.868-.595-64.907-32.056 15.582-17.169 44.065-37.216 92.992-62.126-38.11 12.703-72.448 29.773-101.229 53.095-34.04-15.78-10.718-55.477 5.756-71.257m-34.14 113.734c24.017-.298 53.691 17.665 53.592 34.437-.099 14.887-20.841 26.896-53.393 26.697-31.857-.397-53.294-15.085-53.195-29.575 0-11.81 26.002-32.254 52.996-31.56m-122.07-12.704c3.672-.694 5.36-1.488 7.047-4.069-8.932-2.778-18.559-5.26-24.216-9.924 3.077 0 5.955.695 9.924-2.084-8.038-4.268-16.573-7.642-23.223-14.093 4.169-.099 8.635 0 9.925-1.588-7.344-4.466-13.497-9.428-18.658-14.886 5.756.694 8.237.099 9.627-.893-5.558-5.558-12.604-10.322-15.88-17.17 4.268 1.489 8.238 1.985 11.116-.099-1.886-4.168-9.925-6.65-14.589-16.474 4.565.397 9.329.992 10.321 0-2.084-8.436-5.756-13.2-9.23-18.063 9.727-.1 24.415 0 23.72-.794l-5.955-6.054c9.429-2.48 19.154.397 26.2 2.58 3.177-2.48-.098-5.557-3.87-8.733 8.039 1.092 15.284 2.878 21.933 5.36 3.474-3.077-2.282-6.253-5.061-9.33 12.405 2.283 17.665 5.558 22.925 8.833 3.771-3.573.199-6.65-2.382-9.726 9.33 3.375 14.192 7.84 19.254 12.207 1.687-2.282 4.366-3.97 1.19-9.527 6.65 3.771 11.711 8.237 15.383 13.2 4.07-2.581 2.481-6.154 2.481-9.33 6.948 5.558 11.314 11.413 16.673 17.17 1.092-.794 1.985-3.375 2.879-7.543 16.474 15.78 39.796 55.477 5.954 71.257-28.78-23.322-63.12-40.392-101.229-53.095 48.928 24.81 77.41 44.957 92.992 62.126-7.94 31.56-49.622 32.95-64.906 32.056 3.077-1.39 5.756-3.176 6.65-5.756-3.97-2.779-17.467-.397-26.995-5.558m59.646 23.918c16.673 2.78-79.99 85.846-81.48 67.387-1.488-48.332 36.225-74.93 81.48-67.387M91.95 343.285c-23.521-18.658-31.064-73.143 12.504-97.557 26.3-6.947 8.932 106.985-12.504 97.557m90.312 97.458c-13.2 7.84-45.454 4.664-68.28-27.69-15.383-27.192-13.398-54.782-2.58-62.92 16.176-9.726 41.186 3.374 60.44 25.406 16.771 19.85 24.413 54.882 10.42 65.204m-26.2-118.795c-24.316-15.68-28.682-51.21-9.826-79.396 18.856-28.185 53.89-38.308 78.204-22.627 24.315 15.68 28.682 51.21 9.826 79.395-18.956 28.185-53.99 38.308-78.205 22.628M257.488 496.12c-29.178 1.19-57.76-23.52-57.363-32.056-.397-12.604 35.529-22.429 58.851-21.834 23.521-.992 55.18 7.444 55.28 18.758.495 10.916-28.583 35.628-56.768 35.132m58.454-123.956c.199 29.476-26.002 53.393-58.355 53.592-32.354.198-58.753-23.62-58.951-52.996v-.596c-.199-29.475 26.002-53.393 58.355-53.592 32.354-.198 58.753 23.62 58.951 52.997zm81.579 42.377c-25.109 34.339-59.15 35.629-71.753 26.102-13.2-12.307-3.176-50.516 14.985-71.456 20.742-23.124 42.973-38.21 58.455-26.4 10.42 10.223 16.574 48.73-1.687 71.754m22.727-72.646c-21.338 9.329-38.705-104.504-12.505-97.557 43.568 24.513 36.026 78.998 12.505 97.557"/></svg>