<svg xmlns="http://www.w3.org/2000/svg" viewBox="0 0 512 512"><!--! Font Awesome Free 7.0.1 by @fontawesome - https://fontawesome.com License - https://fontawesome.com/license/free (Icons: CC BY 4.0, Fonts: SIL OFL 1.1, Code: MIT License) Copyright 2025 Fonticons, Inc.--><path fill="currentColor" d="M441.053 340.472c-42.374-36.097-33.881-71.917-14.863-118.26 32.957-80.318-21.695-172.544-101.182-196.455C239.244 0 144.34 40.527 112.398 126.2c-8.032 21.695-11.54 44.774-10.155 67.854 1.57 27.234 13.57 48.93 22.249 74.132 15.879 46.344-25.942 85.58-61.577 108.567-43.205 27.88-33.511 36.835-7.755 38.682 21.603 1.569 41.082-4.155 60.285-13.848 8.493-4.247 37.573-17.449 41.635-26.403-11.262 24.556-34.158 67.115-19.848 94.257 17.633 33.42 61.946-29.357 70.808-42.282 7.94-11.632 39.697-75.055 58.715-43.297 17.448 28.988 7.94 70.531 32.958 96.565 30.373 31.573 47.267-16.894 47.452-40.805.184-15.14-5.632-88.534 27.603-55.299 19.756 19.756 48.837 65.731 81.795 61.854 35.727-4.155-20.403-62.777-26.127-72.655 4.986 3.97 49.576 31.48 49.668 8.77.092-17.356-27.788-32.035-39.236-41.82z"/></svg>