<svg xmlns="http://www.w3.org/2000/svg" viewBox="0 0 512 512"><!--! Font Awesome Free 7.0.1 by @fontawesome - https://fontawesome.com License - https://fontawesome.com/license/free (Icons: CC BY 4.0, Fonts: SIL OFL 1.1, Code: MIT License) Copyright 2025 Fonticons, Inc.--><path fill="currentColor" d="M.743 68.785C.743 30.736 31.364.115 69.07.115c34.278 0 62.272 25.022 67.642 57.358 37.25-8.684 76.669.685 110.261 34.278l-50.617 50.617c-23.423-23.423-48.675-18.624-63.3-3.999-16.34 16.34-16.34 43.305 0 59.644l113.689 113.689-50.275 50.617C96.264 262.684 139.683 305.532 82.44 248.402c-30.622-30.28-39.991-74.04-28.337-113.004C23.366 128.771.742 101.463.742 68.785M148.71 201.784l50.617 50.617c11.426-11.426 102.491-102.492 113.917-114.032 16.34-16.34 42.962-16.34 59.301 0 14.626 14.625 19.425 39.991-3.999 63.3l50.275 50.618c35.649-35.65 43.99-77.24 33.021-115.632 33.364-4.684 59.301-33.364 59.301-67.985 0-37.934-30.622-68.67-68.328-68.67-34.62 0-63.3 25.709-67.984 58.958-38.62-11.311-81.925-1.714-112.318 28.68-20.91 21.823-81.24 81.696-113.803 114.146m304.275 173.904c9.369-37.364-1.029-78.269-30.05-107.29-13.484-13.94 5.712 5.37-113.69-113.918l-50.617 50.617 113.917 113.918c16.34 16.339 16.34 42.961 0 59.3-14.625 14.626-39.99 19.425-63.3-3.999l-50.274 50.618c31.536 34.506 77.697 44.333 117.345 31.993 6.284 31.307 33.935 54.959 67.3 54.959 37.705 0 68.327-30.622 68.327-68.67 0-34.507-25.709-62.844-58.958-67.528m-96.322-60.673-50.274-50.617c-99.407 98.72-57.587 57.587-113.918 114.032-16.339 16.339-42.962 16.339-59.3 0-14.969-15.311-19.31-40.334 3.656-63.3l-50.275-50.618C52.046 299.02 43.133 339.01 52.845 376.83 22.338 383.686.057 410.994.057 443.33.057 481.378 30.68 512 68.385 512c32.678 0 59.986-22.624 66.956-53.36 37.363 9.37 78.268-.685 107.633-29.707 36.678-36.563 13.94-14.168 113.69-113.918"/></svg>