<svg xmlns="http://www.w3.org/2000/svg" viewBox="0 0 512 512"><!--! Font Awesome Free 7.0.1 by @fontawesome - https://fontawesome.com License - https://fontawesome.com/license/free (Icons: CC BY 4.0, Fonts: SIL OFL 1.1, Code: MIT License) Copyright 2025 Fonticons, Inc.--><path fill="currentColor" d="M83.427 266.558h20.877v-20.956H83.427zm41.993-20.956-.08-20.957v-.72c-.16-8.319-3.519-16.237-9.518-22.077-6-5.839-13.998-9.038-22.317-8.878-8.318.16-16.237 3.52-22.076 9.438-5.84 5.92-9.039 13.998-8.959 22.317v.16h21.117v-.16c.08-2.72 1.2-5.28 3.12-7.199 1.92-1.92 4.559-2.96 7.278-2.96 2.72 0 5.36 1.04 7.28 2.96s3.039 4.48 3.119 7.199v20.957h21.036zm41.914 20.636c0 9.599-1.92 19.037-5.52 27.916s-9.038 16.877-15.757 23.676c-6.719 6.8-14.798 12.158-23.676 15.758-8.879 3.6-18.317 5.519-27.916 5.519h-.48c-19.357 0-37.834-7.679-51.512-21.357s-21.436-32.155-21.436-51.512H0v.16c0 12.318 2.48 24.557 7.199 35.915a94.45 94.45 0 0 0 20.397 30.475c8.718 8.719 19.117 15.598 30.475 20.317 11.358 4.72 23.596 7.119 35.914 7.119h.64c12.318 0 24.556-2.4 35.915-7.2 11.358-4.798 21.756-11.677 30.475-20.396a93.4 93.4 0 0 0 20.317-30.475 94 94 0 0 0 7.119-35.915v-20.796h-21.037v20.796zm-125.74 0c.08 13.838 5.599 27.116 15.357 36.875a52.2 52.2 0 0 0 36.874 15.277 52.2 52.2 0 0 0 36.875-15.277c9.758-9.759 15.357-23.037 15.357-36.875H125.02a31.48 31.48 0 0 1-9.358 21.757c-5.84 5.76-13.678 8.959-21.917 8.959-8.238 0-16.077-3.2-21.916-8.959a31.34 31.34 0 0 1-9.359-21.757v-20.796H41.434v-21.277c.24-13.838 5.919-27.036 15.757-36.634 9.839-9.599 23.196-15.038 37.034-14.878s27.036 5.76 36.715 15.598a52.7 52.7 0 0 1 15.117 36.954v20.237h21.037v-20.237c0-19.437-7.759-38.154-21.517-51.912a73.37 73.37 0 0 0-51.912-21.517 73.37 73.37 0 0 0-51.912 21.517 73.37 73.37 0 0 0-21.516 51.912v20.317h21.037v20.796zm334.667-56.95c10.958 0 19.677 5.278 24.076 14.637l.56 1.2 18.557-9.199-.48-1.12c-6.398-15.437-22.796-25.036-42.713-25.036-18.477 0-34.874 9.119-40.793 22.717-.08 21.516-.16 19.117 0 19.837 3.759 8.798 11.678 15.517 22.956 19.357 5.2 1.6 10.478 2.64 15.838 3.2 4.399.56 8.478 1.119 12.638 2.479 5.119 1.68 8.398 4.24 10.238 7.839v7.918c-2.96 6-11.038 9.839-20.637 9.839-11.438 0-20.797-5.52-25.516-15.198l-.56-1.2-18.397 9.199.48 1.12c6.32 15.517 23.676 25.596 44.233 25.596 18.877 0 35.675-9.119 41.834-22.717l.16-20.716-.16-.56c-3.92-8.799-12.159-15.678-23.117-19.357-6.159-2.16-11.438-2.88-16.557-3.52-4-.4-7.999-1.2-11.838-2.32-5.04-1.52-8.32-4.079-10.079-7.678v-6.72c2.72-5.918 10.319-9.678 19.357-9.678zm-146.217 90.945h20.877v-54.711h-20.877zM511.76 257.6c-2.32-5.04-6.639-9.599-12.318-13.358 4.48-3.04 8.079-7.279 10.398-12.238l.16-20.237-.16-.56c-5.919-12.798-21.356-21.357-38.554-21.357-17.197 0-32.555 8.559-38.474 21.357l-.16 20.237.16.56a31.4 31.4 0 0 0 10.399 12.238c-5.76 3.76-9.999 8.399-12.318 13.358l-.16 23.116.16.56c6.079 12.798 22.316 21.357 40.473 21.357 18.158 0 34.475-8.559 40.474-21.357l.16-23.116-.16-.56zm-58.55-40.634c2.879-5.04 10.078-8.399 18.076-8.399 8 0 15.198 3.36 18.078 8.4v10.957c-2.8 4.96-10.079 8.24-18.078 8.24s-15.277-3.36-18.077-8.24zm37.833 57.751c-3.04 5.28-10.638 8.719-19.757 8.719-8.878 0-16.797-3.52-19.757-8.719V261.76c2.96-5.04 10.799-8.399 19.757-8.399 9.039 0 16.718 3.28 19.757 8.4zM301.073 264 253.24 192.25h-23.196v32.475h21.197v.32l49.992 75.268h20.557V192.25h-20.717z"/></svg>