<svg xmlns="http://www.w3.org/2000/svg" viewBox="0 0 512 512"><!--! Font Awesome Free 7.0.1 by @fontawesome - https://fontawesome.com License - https://fontawesome.com/license/free (Icons: CC BY 4.0, Fonts: SIL OFL 1.1, Code: MIT License) Copyright 2025 Fonticons, Inc.--><path fill="currentColor" d="M256.361.206C115.056 0 .361 114.386.258 255.691.052 396.893 114.334 511.587 255.639 511.794c141.305.206 256-114.18 256.206-255.381.103-141.306-114.179-256-255.484-256.207m149.557 274.36c-.825 27.951-5.57 50.333-14.44 67.042s-23.826 28.777-44.867 36.1-50.437 10.933-88.084 10.83h-4.745c-37.647.103-67.042-3.403-88.083-10.83s-35.997-19.39-44.867-36.1c-8.87-16.709-13.615-39.09-14.44-67.042a232 232 0 0 1 0-31.665 417 417 0 0 1 3.713-45.28c1.96-13.82 3.713-23.31 5.57-33.005 1.03-5.054 1.34-6.601 1.856-8.664.31-1.135.928-2.166 1.857-2.888s2.062-1.135 3.197-1.135h.722l33.006 5.157c1.237.207 2.269.825 3.094 1.754.825.928 1.238 2.166 1.238 3.403v.825l-1.754 9.077c-1.65 9.077-3.3 20.732-4.95 34.76-1.754 14.44-2.58 28.982-2.682 43.525-.207 27.849 2.578 48.374 8.354 61.68 2.888 6.6 7.426 12.377 12.996 16.915s12.274 7.633 19.288 9.077c19.39 4.125 39.297 5.879 59.1 5.26h10.624c19.804.619 39.71-1.238 59.101-5.364 7.014-1.444 13.615-4.641 19.185-9.076s10.004-10.314 12.892-16.916c5.88-13.305 8.664-33.933 8.355-61.679-.103-14.543-1.032-29.086-2.682-43.423-1.753-14.027-3.404-25.58-5.054-34.759l-1.753-9.077v-.825c0-1.237.412-2.475 1.237-3.403.826-.929 1.857-1.547 3.095-1.754l33.005-5.157h.826c1.134 0 2.269.413 3.197 1.135s1.547 1.753 1.857 2.888c.618 2.063.825 3.713 1.856 8.664 1.857 9.901 3.61 19.39 5.57 33.005a417 417 0 0 1 3.713 45.28c.722 10.52.722 21.144 0 31.665z"/></svg>