<svg xmlns="http://www.w3.org/2000/svg" viewBox="0 0 512 512"><!--! Font Awesome Free 7.0.1 by @fontawesome - https://fontawesome.com License - https://fontawesome.com/license/free (Icons: CC BY 4.0, Fonts: SIL OFL 1.1, Code: MIT License) Copyright 2025 Fonticons, Inc.--><path fill="currentColor" d="M92.49 166.669c-17.867-.79-34.647 8.291-43.827 23.591a48.65 48.65 0 0 0 0 49.65c9.18 15.3 25.96 24.381 43.827 23.592 17.866.79 34.646-8.292 43.826-23.591a48.65 48.65 0 0 0 0-49.65c-9.18-15.3-25.96-24.382-43.826-23.592M53.5 423.607h77.88V284.922H53.5zM203.043 214.74c0-19.742-9.87-22.21-18.458-22.21h-13.82v45.209h13.82c9.574 0 18.458-2.764 18.458-23m199.095 45.406v-90.12h22.505v67.713h33.265C448.629 114.946 352.093 88.393 264.242 88.393h-93.575v81.73h13.819c25.27 0 40.964 17.176 40.964 44.716 0 28.428-15.3 45.405-40.964 45.405h-13.82v163.461h93.576c142.732 0 192.383-66.332 194.16-163.46h-56.363zm-108.382 0h-55.474v-90.022h53.697v22.407h-31.29v10.463H290.3V225.4H260.69v12.339h33.067zm73.735 0-5.133-17.472h-29.316l-5.133 17.472h-23.394l27.145-90.12h31.883l27.144 90.12h-23.393zM264.242 34.893H0v442.214h264.242c159.71 0 247.758-78.67 247.758-221.6 0-82.422-32.179-220.614-247.758-220.614m0 421.386H20.827V55.622h243.415c140.265 0 226.93 63.766 226.93 199.786 0 132.368-79.953 200.772-226.93 200.772zm82.816-261.478-7.403 25.467h16.188L348.44 194.8z"/></svg>