<svg xmlns="http://www.w3.org/2000/svg" viewBox="0 0 512 512"><!--! Font Awesome Free 7.0.1 by @fontawesome - https://fontawesome.com License - https://fontawesome.com/license/free (Icons: CC BY 4.0, Fonts: SIL OFL 1.1, Code: MIT License) Copyright 2025 Fonticons, Inc.--><path fill="currentColor" d="M512 255.96c0 2.505-1.374 4.93-3.637 6.061l-72.011 43.24c-1.132.646-2.263 1.13-3.637 1.13-1.132 0-2.506-.242-3.637-.888-2.263-1.374-3.637-3.637-3.637-6.304v-28.772H238.987c20.448 32.005 32.733 86.397 56.252 86.397h21.579v-21.66c0-4.041 3.152-7.193 7.193-7.193h72.011c4.041 0 7.193 3.152 7.193 7.193v72.011c0 4.041-3.152 7.193-7.193 7.193h-72.011c-4.041 0-7.193-3.152-7.193-7.193v-21.579h-21.58c-60.938 0-65.545-115.17-100.783-115.17h-81.063c-6.547 24.732-29.015 43.24-55.767 43.24C25.863 313.585 0 287.722 0 255.96s25.863-57.626 57.625-57.626c26.752 0 49.301 18.427 55.767 43.24 31.6 0 35.48 7.677 60.292-48.816 32.41-72.012 46.957-66.354 88.014-66.354 6.061-16.892 21.821-28.772 40.734-28.772 23.842 0 43.239 19.316 43.239 43.239s-19.316 43.239-43.24 43.239c-18.912 0-34.672-11.962-40.733-28.772h-24.085c-23.519 0-35.803 54.473-56.251 86.397h244.16v-28.772c0-2.667 1.374-4.93 3.637-6.304s5.172-1.132 7.193.242l72.011 43.24c2.263.889 3.637 3.313 3.637 5.819"/></svg>