<svg xmlns="http://www.w3.org/2000/svg" viewBox="0 0 512 512"><!--! Font Awesome Free 7.0.1 by @fontawesome - https://fontawesome.com License - https://fontawesome.com/license/free (Icons: CC BY 4.0, Fonts: SIL OFL 1.1, Code: MIT License) Copyright 2025 Fonticons, Inc.--><path fill="currentColor" d="m130.182 412.563 31.048 13.596 4.465-10.045-31.049-13.596zm39.977 17.756 31.05 13.597 4.464-10.045-31.05-13.597zm174.624-14.205 4.465 10.045 31.048-13.596-4.464-10.045zm-134.341 31.658 30.744 13.9 4.464-10.045-30.744-13.596zM90 394.806l31.049 13.597 4.464-9.741-31.049-13.901zm214.5 39.065 4.465 10.045 31.048-13.597-4.464-10.045zm-39.876 17.756 4.464 10.046 31.049-13.901-4.465-9.741zm120.136-52.965 4.465 9.74 31.048-13.596-4.464-10.045zM201.208 43.529h-33.991v10.654h33.991zm-47.892 0h-34.093v10.654h33.991zm-47.994 0H71.635v10.654h33.789zm143.575 0H215.21v10.654h33.687zm95.886 0h-33.991v10.654h33.991zm47.994 0h-33.991v10.654h33.99zm-95.987 0h-33.687v10.654h33.687zm143.575 0h-33.789v10.654h33.789zM82.289 352.495H71.331v33.99h10.958zm71.027-219.067h-34.093v10.654h33.991zm-71.027 10.756h23.135V133.53H71.33v33.991h10.958zm171.377 231.952c51.14 0 92.64-41.5 92.64-92.639s-41.5-92.638-92.64-92.638-92.639 41.5-92.639 92.638c0 51.14 41.5 92.64 92.64 92.64M204.76 263.407c0-25.772 29.933-32.266 50.328-32.266 17.148 0 29.628 5.885 44.95 12.176l-8.93 17.148h-.913c-6.494-10.046-25.163-13.293-36.122-13.293-9.132 0-30.237 1.827-30.237 15.119 0 21.917 79.651-10.35 79.651 38.456 0 25.772-31.962 31.657-51.748 31.657-18.365 0-32.875-2.942-47.892-12.379l9.132-18.67h.913c6.19 12.38 23.946 15.119 36.427 15.119 8.827 0 33.18-1.218 33.18-14.51 0-26.482-78.739 6.393-78.739-38.557M82.29 177.262H71.331v34.093h10.958zm347.422 209.224h10.958v-33.991h-10.958zM82.289 308.66H71.331v33.991h10.958zM28.715 0v411.954L253.666 512l229.619-100.046V0zm424.942 392.777L253.97 479.734 58.343 392.777V118.716h395.415v274.06zm0-303.69H58.343V29.629h395.415v59.46zM82.289 221.097H71.331v33.99h10.958zm0 43.833H71.331v33.991h10.958zm118.92-131.5h-33.992v10.653h33.991zM429.71 298.92h10.958v-33.99h-10.958zm0-43.833h10.958v-33.991h-10.958zM248.897 133.428H215.21v10.654h33.687zm180.814 77.927h10.958v-33.992h-10.958zm0 131.399h10.958v-33.991h-10.958zM296.79 133.428h-33.687v10.654h33.687zm47.993 0h-33.991v10.654h33.991zm84.928 34.093h10.958V133.53h-33.991v10.654h23.134zm-36.934-34.093h-33.991v10.654h33.99z"/></svg>