<svg xmlns="http://www.w3.org/2000/svg" viewBox="0 0 512 512"><!--! Font Awesome Free 7.0.1 by @fontawesome - https://fontawesome.com License - https://fontawesome.com/license/free (Icons: CC BY 4.0, Fonts: SIL OFL 1.1, Code: MIT License) Copyright 2025 Fonticons, Inc.--><path fill="currentColor" d="M451.878 252.704c-4.13-2.285-5.01-5.01-5.625-9.493-2.11-14.503-3.076-29.533-7.999-43.157-31.555-87.897-135.361-126.045-216.93-80.514-24.083 13.36-43.069 31.994-57.572 56.166-2.813-1.318-4.834-2.373-6.856-3.252-26.457-10.9-51.86-8.878-74.976 8.086-22.414 16.437-31.995 39.115-28.742 67.154.351 2.637-1.758 6.68-3.956 8.35C14.327 282.413 0 324.692 12.393 365.564c12.13 40.08 50.541 70.141 92.82 71.548 26.632.879 53.265.44 79.986.44 73.833 0 147.755.439 221.588-.44 46.322-.528 84.47-32.434 95.105-76.734 10.108-42.279-9.757-85.524-49.926-107.762zm18.547 137.91c-15.998 19.69-37.18 31.028-62.67 31.38-50.014.703-100.028.175-150.041.175 0 .616-143.272.176-143.887.176-38.587-.264-67.417-17.404-83.678-52.738-16.613-36.214-3.516-79.81 30.06-102.049 8.087-5.361 10.988-10.196 8.878-20.304-4.834-23.205 3.955-42.19 23.205-55.375 20.216-13.8 41.663-14.151 63.286-2.725 9.053 4.747 12.833 10.196 19.513-2.197 12.481-23.205 30.412-41.048 53.353-53.88 85.7-47.817 200.757 6.68 202.34 116.638.087 7.208 2.109 10.9 8.613 13.976 50.629 23.556 65.483 84.469 30.852 127.011zm-77.174-70.757c-5.098 27.424-30.412 48.431-58.627 48.431-14.943 0-28.215-5.713-38.763-15.557-24.347-22.59-62.494-65.923-84.293-82.096-17.667-13.097-36.917-10.811-53.002 3.34-43.948 38.763 13.976 107.058 58.98 67.856 3.954-3.515 6.855-8.35 11.162-11.25 7.208-4.835 18.283-.791 11.602 9.317-15.294 23.117-43.333 33.576-69.35 25.754-25.403-7.648-42.894-31.643-42.718-61.704 1.054-19.777 10.899-37.884 31.115-49.223 19.865-11.075 40.784-11.514 58.891 2.198 44.652 33.84 66.45 71.812 94.314 88.952 21.622 13.272 47.728 6.504 60.473-15.382 25.314-43.246-30.413-92.292-69.35-55.815-3.517 3.252-6.066 7.823-10.021 10.284-9.669 5.977-15.206-3.604-11.251-9.141 18.195-25.139 44.388-35.51 73.218-24.787 27.6 10.284 43.158 39.026 37.62 68.735z"/></svg>