<svg xmlns="http://www.w3.org/2000/svg" viewBox="0 0 512 512"><!--! Font Awesome Free 7.0.1 by @fontawesome - https://fontawesome.com License - https://fontawesome.com/license/free (Icons: CC BY 4.0, Fonts: SIL OFL 1.1, Code: MIT License) Copyright 2025 Fonticons, Inc.--><path fill="currentColor" d="M0 256C0 114.58 114.58 0 256 0s256 114.58 256 256-114.58 256-256 256S0 397.42 0 256m365.729-36.439c5.058-34.064-20.852-52.335-56.361-64.62l11.458-46.141-28.078-7.02-11.251 44.904a793 793 0 0 0-22.503-5.265l11.251-45.213-28.077-7.019-11.562 46.142c-6.09-1.342-12.077-2.787-17.96-4.232v-.103l-38.71-9.704-7.433 30.039s20.852 4.748 20.439 5.058c11.355 2.89 13.42 10.323 13.11 16.31l-13.11 52.542c.826.206 1.755.516 2.89.929-.929-.207-1.961-.516-2.993-.723l-18.374 73.6c-1.342 3.407-4.955 8.671-12.904 6.71.31.413-20.438-5.058-20.438-5.058L121.187 332.8l36.542 9.084c6.813 1.755 13.42 3.51 20.026 5.161l-11.665 46.658 28.078 7.02 11.561-46.142c7.432 2.064 14.865 3.922 22.4 5.78l-11.458 45.936 28.077 7.02 11.665-46.556c47.897 9.084 83.922 5.368 99.097-37.884 12.18-34.89-.62-55.019-25.807-68.129 18.374-4.232 32.207-16.31 35.82-41.187zm-64.206 90.013c-8.671 34.89-67.407 16-86.504 11.252l15.381-61.832c18.994 4.748 80.103 14.141 71.02 50.58zm8.67-90.529c-7.948 31.69-56.774 15.587-72.67 11.665l13.935-56.052c15.897 3.923 66.89 11.355 58.632 44.387z"/></svg>