<svg xmlns="http://www.w3.org/2000/svg" viewBox="0 0 512 512"><!--! Font Awesome Free 7.0.1 by @fontawesome - https://fontawesome.com License - https://fontawesome.com/license/free (Icons: CC BY 4.0, Fonts: SIL OFL 1.1, Code: MIT License) Copyright 2025 Fonticons, Inc.--><path fill="currentColor" d="M256 0C114.58 0 0 114.58 0 256s114.58 256 256 256 256-114.58 256-256S397.42 0 256 0m-82.58 363.252c-32.414 10.942-60.697 28.18-82.581 49.754V132.13c0-22.813 18.477-41.29 41.29-41.29s41.29 18.477 41.29 41.29zm123.87-10.22c-13.316-2.064-27.045-3.2-41.084-3.2-14.245 0-28.077 1.136-41.496 3.2V132.13c0-22.813 18.477-41.29 41.29-41.29s41.29 18.477 41.29 41.29zm123.871 59.562c-21.884-21.471-50.167-38.607-82.58-49.549V132.13c0-22.813 18.477-41.29 41.29-41.29s41.29 18.477 41.29 41.29z"/></svg>