<svg xmlns="http://www.w3.org/2000/svg" viewBox="0 0 512 512"><!--! Font Awesome Free 7.0.1 by @fontawesome - https://fontawesome.com License - https://fontawesome.com/license/free (Icons: CC BY 4.0, Fonts: SIL OFL 1.1, Code: MIT License) Copyright 2025 Fonticons, Inc.--><path fill="currentColor" d="M431.56.057H80.326C35.878.057 0 35.935 0 80.382v351.236c0 44.447 35.878 80.325 80.325 80.325h351.35c43.99 0 79.754-35.535 80.325-79.525-52.56-29.25-126.372-68.9-196.07-101.006-36.678 50.274-96.093 92.55-169.791 92.55-80.668 0-107.062-51.76-110.833-87.294-4.57-44.562 17.025-93.122 113.69-93.122 40.447 0 90.722 11.654 145.224 28.565 18.853-34.393 30.279-68.9 30.279-68.9H120.887v-19.08h105.234v-35.65h-125v-21.71h125V69.186h58.158v57.587H409.28v21.71h-125v35.648h101.462s-17.367 53.246-43.761 103.863c55.873 19.081 114.26 41.134 169.79 60.215V80.382C512 36.163 476.122.057 431.904.057zM54.046 332.554c1.143 23.08 11.655 61.358 79.868 61.358 59.53 0 105.805-45.361 134.713-83.296-50.96-21.366-96.55-35.877-125-35.877-77.012 0-90.724 37.82-89.58 57.815"/></svg>