<svg xmlns="http://www.w3.org/2000/svg" viewBox="0 0 512 512"><!--! Font Awesome Free 7.0.1 by @fontawesome - https://fontawesome.com License - https://fontawesome.com/license/free (Icons: CC BY 4.0, Fonts: SIL OFL 1.1, Code: MIT License) Copyright 2025 Fonticons, Inc.--><path fill="currentColor" d="M206.297 236.8H183.38c-2.168 0-3.82 1.652-3.82 3.82v53.367c0 2.168 1.652 3.82 3.82 3.82h22.916c2.168 0 3.82-1.652 3.82-3.82V240.62c0-2.167-1.652-3.819-3.82-3.819m122.013 0h-22.916c-2.168 0-3.82 1.652-3.82 3.82v53.367c0 2.168 1.652 3.82 3.82 3.82h22.916c2.167 0 3.819-1.652 3.819-3.82V240.62c-.103-2.167-1.755-3.819-3.82-3.819m136.258-129.135c-2.374-3.304-4.749-6.607-7.33-9.807-10.115-12.903-21.47-24.774-33.857-35.51a260 260 0 0 0-14.349-11.56c-1.651-1.24-3.303-2.375-4.955-3.614-28.49-20.232-61.212-34.787-96.619-42.013C290.735 1.755 273.497 0 255.845 0c-17.651 0-34.993 1.755-51.613 5.161-35.406 7.33-68.129 21.884-96.31 42.116-1.651 1.136-3.303 2.375-4.954 3.613a260 260 0 0 0-14.349 11.562c-3.096 2.683-6.09 5.47-9.084 8.258a172 172 0 0 0-8.67 8.67c-5.678 5.885-11.046 12.181-16.104 18.581a346 346 0 0 0-7.329 9.807C17.6 149.678.155 200.774.155 256c0 2.065.103 4.129.103 6.194.103.722.103 1.341.103 2.064.104 1.342.104 2.787.207 4.13 0 .825.103 1.547.103 2.373 0 1.342.103 2.58.206 3.82.104.825.104 1.651.207 2.477.103 1.136.206 2.374.31 3.613 0 .826.103 1.652.206 2.477.103 1.24.31 2.478.413 3.717.103.825.206 1.548.31 2.374.103 1.342.31 2.684.516 4.026.103.619.206 1.341.31 1.96l.928 5.885c.104.619.207 1.135.31 1.755.31 1.341.516 2.787.826 4.129.206.825.31 1.651.516 2.477.206 1.032.516 2.168.723 3.303.206.93.413 1.755.619 2.684.206 1.032.413 2.065.723 3.097.206.929.516 1.858.722 2.787.31 1.032.516 1.961.826 2.993.31.93.516 1.859.826 2.788.206.929.516 1.96.826 2.89.31.929.516 1.858.825 2.787.31 1.032.62 1.961.93 2.89.619 1.652 1.135 3.407 1.754 5.058a50 50 0 0 1 1.032 2.89c.31 1.033.723 2.065 1.136 3.097.31.826.62 1.549.929 2.375l1.239 3.096c.31.723.62 1.549.929 2.271.413 1.033.929 2.065 1.342 3.097l.929 2.168c.516 1.032.929 2.064 1.445 3.097.31.722.62 1.342.929 2.064.516 1.032 1.032 2.168 1.548 3.2.207.62.516 1.136.826 1.755.62 1.136 1.136 2.271 1.755 3.407.103.206.206.31.31.516 2.27 4.232 4.542 8.464 7.019 12.593.206.413.516.826.723 1.239.722 1.135 1.341 2.27 2.064 3.406.31.516.62.93.93 1.446.618 1.135 1.341 2.167 2.064 3.303.31.516.619.929.929 1.445.722 1.135 1.445 2.168 2.167 3.303.207.413.517.826.826 1.239.723 1.135 1.549 2.27 2.374 3.406.207.207.31.516.517.723 38.71 53.368 97.445 91.355 165.16 102.606.93.104 1.756.31 2.685.413 1.032.207 2.167.413 3.2.516 1.032.104 1.961.31 2.89.413 1.032.207 2.065.31 3.097.413.929.103 1.961.207 2.993.31 1.033.103 1.962.206 2.994.31 1.032.103 2.168.206 3.2.31.929.102 1.858.102 2.787.206 1.135.103 2.374.103 3.51.206.825 0 1.754.103 2.58.103 1.342 0 2.684.104 4.026.104.723.103 1.445.103 2.168.103 2.064.103 4.129.103 6.193.103s4.13-.103 6.194-.103c.723 0 1.445-.103 2.168-.103 1.342 0 2.684 0 4.025-.104.826 0 1.755-.103 2.581-.103 1.136-.103 2.374-.103 3.51-.206.929 0 1.858-.104 2.787-.207 1.032-.103 2.168-.206 3.2-.31 1.032-.103 1.961-.206 2.993-.31.93-.102 1.962-.206 2.994-.309s2.065-.31 3.097-.413 1.961-.31 2.89-.413c1.032-.206 2.168-.31 3.2-.516.93-.103 1.755-.31 2.684-.413 67.716-11.355 126.452-49.238 165.264-105.703.207-.206.31-.516.517-.722.825-1.136 1.548-2.271 2.374-3.407.206-.413.516-.826.826-1.239.722-1.135 1.445-2.167 2.167-3.303.31-.516.62-.929.93-1.445.619-1.136 1.341-2.168 2.064-3.303.31-.516.62-.93.929-1.445.723-1.136 1.342-2.271 2.064-3.407.207-.413.517-.826.723-1.239 2.477-4.129 4.748-8.36 7.02-12.593.103-.207.206-.31.31-.516.618-1.136 1.135-2.271 1.754-3.407.206-.62.516-1.135.826-1.755.516-1.032 1.032-2.167 1.548-3.2.31-.722.62-1.341.93-2.064.515-1.032 1.031-2.065 1.444-3.097l.93-2.168c.515-1.032.928-2.064 1.341-3.096.31-.723.62-1.549.93-2.271l1.238-3.097c.31-.826.62-1.548.929-2.374.413-1.033.723-2.065 1.136-3.097s.722-1.961 1.032-2.89a98 98 0 0 0 1.755-5.058c.31-1.033.619-1.962.929-2.89.31-.93.516-1.859.825-2.788.207-.929.517-1.961.826-2.89.31-.93.62-1.858.826-2.787.31-1.033.516-1.962.826-2.994.206-.929.516-1.858.722-2.787.207-1.032.517-2.064.723-3.097.206-.929.413-1.755.62-2.684.206-1.032.516-2.167.722-3.303.206-.826.31-1.651.516-2.477.31-1.342.62-2.787.826-4.13.103-.619.206-1.135.31-1.754l.929-5.884c.103-.62.206-1.342.31-1.961.103-1.342.309-2.684.515-4.026.104-.826.207-1.548.31-2.374.103-1.239.31-2.478.413-3.716 0-.826.103-1.652.206-2.478.104-1.135.207-2.374.31-3.613.103-.826.103-1.651.207-2.477.103 1.755.103.516.206-.723 0-.826.103-1.548.103-2.374.103-1.342.207-2.787.207-4.129.103-.723.103-1.342.103-2.064.103-2.065.103-4.13.103-6.194 0-55.226-17.445-106.323-47.277-148.335m-10.53 267.56c-9.703 16-21.264 30.865-34.683 44.285-21.265 21.264-45.936 37.884-73.497 49.548-14.348 5.987-29.11 10.632-44.284 13.626v-78.245c0-60.49-91.458-60.49-91.458 0v78.245a224 224 0 0 1-44.284-13.626c-27.561-11.664-52.232-28.284-73.497-49.548-13.419-13.42-24.98-28.284-34.683-44.284v-73.6c0-2.168 1.651-3.82 3.819-3.82h22.813c2.168 0 3.82 1.652 3.82 3.82v26.632h30.554V179.613c0-2.168 1.652-3.82 3.82-3.82h22.812c2.168 0 3.82 1.652 3.82 3.82v26.735h30.451v-26.735c0-2.168 1.652-3.82 3.82-3.82h22.916c2.168 0 3.82 1.652 3.82 3.82v26.735h30.45v-26.735c0-4.955 6.71-3.82 9.807-3.82v-93.11c-4.542-2.064-7.639-6.915-7.639-11.87 0-17.342 26.22-17.342 26.22 0 0 4.955-3.097 9.703-7.639 11.87v4.027c6.503-1.445 13.11-2.375 19.82-2.375 9.703 0 18.993 3.613 27.148 3.613 7.432 0 15.69-3.613 20.026-3.613 2.167 0 3.819 1.652 3.819 3.82v49.961c0 5.78-19.303 6.71-23.123 6.71-8.877 0-17.135-3.613-26.219-3.613-7.226 0-14.555 1.239-21.47 2.89v31.69c3.096 0 9.806-1.135 9.806 3.82v26.735h30.451v-26.735c0-2.168 1.652-3.82 3.82-3.82h22.916c2.167 0 3.819 1.652 3.819 3.82v26.735h30.452v-26.735c0-2.168 1.651-3.82 3.819-3.82h22.813c2.168 0 3.82 1.652 3.82 3.82v148.645h30.45v-26.632c0-2.168 1.652-3.82 3.82-3.82h22.916c2.168 0 3.82 1.652 3.82 3.82z"/></svg>