<svg xmlns="http://www.w3.org/2000/svg" viewBox="0 0 512 512"><!--! Font Awesome Free 7.0.1 by @fontawesome - https://fontawesome.com License - https://fontawesome.com/license/free (Icons: CC BY 4.0, Fonts: SIL OFL 1.1, Code: MIT License) Copyright 2025 Fonticons, Inc.--><path fill="currentColor" d="M497.646 202.147c14.354 85.036-30.59 166.212-112.062 206.008 12.87 33.757-12.275 69.494-47.814 69.494-13.068 0-25.74-5.049-35.243-14.057-9.503-9.009-15.146-21.383-15.839-34.45-6.335.198-63.554 0-75.533-.594-.297 6.731-1.88 13.364-4.652 19.403s-6.83 11.582-11.78 16.136-10.692 8.117-17.028 10.394-13.067 3.366-19.7 3.069c-33.559-1.386-57.417-34.45-46.527-67.217-36.826-12.969-71.771-34.55-98.599-70.089-12.869-17.126-.495-41.38 20.591-41.38 45.835 0 31.876-53.654 42.766-109.19C94.44 96.718 191.852 34.154 285.797 34.154c101.47 0 195.218 69.988 211.948 167.993zM370.24 386.87c41.577-19.007 80.482-56.13 95.332-101.074C505.664 163.935 402.017 60.09 285.698 60.09c-82.561 0-168.587 54.843-184.229 134.632-9.404 48.409 4.95 130.08-68.009 130.08 24.65 32.766 57.714 52.07 92.758 63.356 24.452-21.581 63.258-15.344 78.998 14.156 14.057.99 78.403 1.188 87.016.792 3.465-6.83 8.415-12.77 14.552-17.324s13.068-7.82 20.591-9.405c7.524-1.583 15.245-1.386 22.67.396 7.424 1.782 14.354 5.247 20.294 10.098zM203.533 187.694c0-34.351 50.29-34.351 50.29 0s-50.29 34.35-50.29 0m115.428 0c0-34.351 50.388-34.351 50.388 0s-50.388 34.45-50.388 0m-121.368 69.989c-3.366-16.73 21.977-21.977 25.343-5.148l.099.297c4.059 21.185 29.5 43.558 63.455 42.667 35.341-.891 58.704-21.977 63.456-42.37 4.455-15.938 28.312-10.295 25.243 5.94-5.147 21.977-30.886 61.376-90.58 62.267-42.171 0-80.086-27.52-87.016-63.554z"/></svg>