<svg xmlns="http://www.w3.org/2000/svg" viewBox="0 0 512 512"><!--! Font Awesome Free 7.0.1 by @fontawesome - https://fontawesome.com License - https://fontawesome.com/license/free (Icons: CC BY 4.0, Fonts: SIL OFL 1.1, Code: MIT License) Copyright 2025 Fonticons, Inc.--><path fill="currentColor" d="M467.064 92.785 356.685 82.7l15.689-37.428C384.028 18.938 360.27 0 340.213 3.81L36.195 53.564C19.275 56.59 7.06 74.071 12.215 94.578l117.774 390.304c7.284 23.868 41.126 27.118 53.452 7.844l39.557-90.544 263.564-259.194c18.378-18.826 4.819-48.074-19.498-50.203m-122.593-65.33c5.715-.785 8.404 2.801 5.827 8.292l-18.826 44.712-198.794-18.266zM36.419 88.303c-3.473-5.715 1.12-11.206 6.836-10.198l278.692 25.438-108.586 258.521zM163.383 478.83c-2.914 4.483-8.853 3.474-10.534-1.344L59.728 168.762l143.1 221.43c-7.844 16.808-39.445 88.638-39.445 88.638M469.08 126.403 246.42 345.367l100.517-239.47 119.232 10.869c4.482 1.233 6.387 5.94 2.913 9.637"/></svg>