<svg xmlns="http://www.w3.org/2000/svg" viewBox="0 0 512 512"><!--! Font Awesome Free 7.0.1 by @fontawesome - https://fontawesome.com License - https://fontawesome.com/license/free (Icons: CC BY 4.0, Fonts: SIL OFL 1.1, Code: MIT License) Copyright 2025 Fonticons, Inc.--><path fill="currentColor" d="M511.943 49.36v413.28c0 27.765-21.71 49.36-49.36 49.36H49.417c-27.309-.114-49.36-21.367-49.36-49.475V49.36C.057 21.824 21.537 0 49.417 0h413.279c27.422 0 49.246 21.48 49.246 49.36m-42.62 413.165V49.36c0-3.427-2.97-6.627-6.626-6.627H452.07l-126.03 85.238L256 70.956l-69.927 57.015L60.043 42.62H49.419c-3.657 0-6.628 3.2-6.628 6.627v413.28c0 3.427 2.971 6.626 6.628 6.626h413.279c3.656.115 6.627-3.085 6.627-6.627M171.677 175.961v42.276H87.695v-42.276zm0 85.01v42.618H87.695V260.97zm12.683-168.306 61.7-49.932H110.661zm239.946 83.296v42.276h-223.95v-42.276zm0 85.01v42.618h-223.95V260.97zM327.641 92.664l73.698-49.932H266.055zm96.664 253.543v42.62H310.731v-42.62z"/></svg>