<svg xmlns="http://www.w3.org/2000/svg" viewBox="0 0 512 512"><!--! Font Awesome Free 7.0.1 by @fontawesome - https://fontawesome.com License - https://fontawesome.com/license/free (Icons: CC BY 4.0, Fonts: SIL OFL 1.1, Code: MIT License) Copyright 2025 Fonticons, Inc.--><path fill="currentColor" d="M509.266 217.834c-2.051-9.115-7.748-17.546-14.242-21.077-2.05-1.14-14.81-2.507-28.482-3.077-22.9-1.025-25.406-1.48-32.698-5.696-11.507-6.722-14.583-14.013-14.697-33.61-.114-37.596-15.722-72.572-46.597-104.017-21.988-22.444-46.597-37.597-74.624-46.142-6.722-2.05-21.76-2.734-72.117-3.304-79.068-.911-96.613.684-123.5 11.393C52.749 31.9 17.203 73.6 4.215 126.918 1.823 136.943 1.253 153.008.684 245.29 0 360.929.798 377.905 7.975 400.805c17.773 56.509 68.244 98.32 118.943 107.435 16.861 3.076 224.783 3.76 246.088.912 37.027-5.013 66.079-19.938 93.308-47.737 19.71-20.165 32.014-41.926 40.103-70.75 5.583-20.052 5.127-162.692 2.849-172.831m-366.968-72.46c8.887-9 11.393-9.342 66.99-9.342 50.016 0 51.725.114 59.016 3.874 10.596 5.354 15.267 12.874 15.267 24.95 0 10.824-4.33 18.457-14.013 24.61-5.241 3.303-8.317 3.53-57.307 3.759-30.191.228-54.344-.456-57.876-1.367-18.913-5.355-25.976-32.47-12.077-46.484m218.517 227.632-16.975 2.734-88.296 1.025c-77.586.912-99.46-.455-103.562-2.278-8.089-3.532-15.722-13.33-16.975-22.102-1.254-8.317 2.962-19.71 9.342-25.52 8.089-7.292 11.62-7.52 110.853-7.634 102.081-.114 101.512-.114 111.196 8.886 13.785 12.875 10.823 35.547-5.583 44.889"/></svg>