<svg xmlns="http://www.w3.org/2000/svg" viewBox="0 0 512 512"><!--! Font Awesome Free 7.0.1 by @fontawesome - https://fontawesome.com License - https://fontawesome.com/license/free (Icons: CC BY 4.0, Fonts: SIL OFL 1.1, Code: MIT License) Copyright 2025 Fonticons, Inc.--><path fill="currentColor" d="M397.714 328.914H382.63v39.657c-28 26.4-64.343 40.915-102.743 40.915-83.657 0-151.315-68.8-151.315-153.6 0-84.686 67.658-153.6 151.315-153.6 40.343 0 78.4 16 106.971 45.028l71.2-72.343C410.286 26.63 347.086 0 279.657 0 139.43 0 27.43 114.971 27.43 256c0 140 110.857 256 252.228 256 72.229 0 142.286-29.943 195.429-94.286-2.286-31.543-15.315-88.8-77.372-88.8m-13.828-128.571H262.4v101.714h135.314c38.286 0 69.143 17.257 86.857 47.772v-34.972c0-74.514-46.171-114.514-100.685-114.514"/></svg>