<svg xmlns="http://www.w3.org/2000/svg" viewBox="0 0 512 512"><!--! Font Awesome Free 7.0.1 by @fontawesome - https://fontawesome.com License - https://fontawesome.com/license/free (Icons: CC BY 4.0, Fonts: SIL OFL 1.1, Code: MIT License) Copyright 2025 Fonticons, Inc.--><path fill="currentColor" d="M222.562 378.215c-.47-11.336 5.3-21.935 15.025-27.77 9.727-5.769 21.8-5.702 31.527.134a30.79 30.79 0 0 1 14.824 27.837c.47 11.336-5.3 21.934-15.026 27.77-9.726 5.768-21.8 5.701-31.526-.134a30.79 30.79 0 0 1-14.824-27.837m-108.933-30.52c-11.27-.47-21.935 5.232-27.703 14.958a30.6 30.6 0 0 0 .134 31.459c5.836 9.726 16.501 15.36 27.77 14.824 11.269.47 21.934-5.232 27.703-14.958a30.6 30.6 0 0 0-.134-31.46c-5.836-9.726-16.501-15.36-27.77-14.824m195.664-181.109C106.586 166.586 54.936 158 0 100.046c23.075 34.678 35.752 99.877 250.265 96.725 223.568-3.354 87.2 57.753 47.49 126.709C422.99 211.662 512 166.586 309.294 166.586"/></svg>