<svg xmlns="http://www.w3.org/2000/svg" viewBox="0 0 512 512"><!--! Font Awesome Free 7.0.1 by @fontawesome - https://fontawesome.com License - https://fontawesome.com/license/free (Icons: CC BY 4.0, Fonts: SIL OFL 1.1, Code: MIT License) Copyright 2025 Fonticons, Inc.--><path fill="currentColor" d="M511.13 298.126c-.87-8.465-8.465-5.38-8.465-5.38s-12.341 9.573-23.18 8.465c-10.837-1.028-7.436-25.315-7.436-25.315s2.374-22.23-4.034-24.05c-6.408-1.898-14.24 5.776-14.24 5.776s-9.81 10.838-14.477 24.682l-1.266.396s1.503-24.208-.237-29.746c-1.266-2.769-12.974-2.531-14.873 2.374-1.899 4.904-11.233 38.922-11.866 53.161 0 0-18.275 15.506-34.255 18.038s-19.778-7.437-19.778-7.437 43.353-12.104 41.85-46.754-34.967-21.834-38.764-18.986c-3.64 2.769-23.259 14.556-28.954 47.228-.159 1.108-.554 5.934-.554 5.934s-16.772 11.233-26.107 14.24c0 0 26.107-43.986-5.775-64-9.018-5.38-16.85-.396-21.518 4.192 10.76-13.686 36.708-50.788 29.192-83.223-4.588-19.303-14.24-21.44-23.1-18.275-13.449 5.3-18.59 13.212-18.59 13.212s-17.405 25.315-21.44 62.892c-4.034 37.577-9.968 83.145-9.968 83.145s-8.306 8.069-15.98 8.464c-7.673.396-4.272-22.704-4.272-22.704s5.934-35.283 5.538-41.216c-.396-5.934-.87-9.177-7.832-11.234-7.04-2.136-14.635 6.803-14.635 6.803s-20.173 30.616-21.914 35.283l-1.028 1.9-1.029-1.267s14.24-41.69.633-42.324c-13.607-.632-22.546 14.873-22.546 14.873s-15.506 25.948-16.139 28.875l-1.028-1.265s6.408-30.22 5.063-37.657c-1.266-7.436-8.306-5.933-8.306-5.933s-8.94-1.028-11.234 4.667-10.838 43.748-11.867 55.931c0 0-22.309 15.98-37.023 16.139-14.635.237-13.211-9.335-13.211-9.335s53.794-18.433 39.08-54.744c-6.566-9.335-14.24-12.262-25.078-12.104-10.838.237-23.97 6.803-32.672 26.343-4.193 9.335-5.38 18.196-6.171 24.92 0 0-9.73 1.899-14.873-2.294s-7.91 0-7.91 0S0 311.89 8.78 315.293s22.23 4.826 22.23 4.826c1.266 5.933 4.905 15.426 15.506 23.495 15.98 12.104 46.516-1.028 46.516-1.028l12.579-6.962s.395 11.55 9.572 13.212c9.177 1.66 12.974.79 28.875-37.894 9.335-19.778 9.968-18.67 9.968-18.67l1.029-.237s-7.2 37.023-4.43 47.228c2.768 10.126 14.872 9.019 14.872 9.019s6.566 1.898 11.867-16.771c5.3-18.67 15.505-39.476 15.505-39.476h1.266s-4.43 38.052 2.373 50.393c6.804 12.34 24.445 4.193 24.445 4.193s12.341-6.171 14.24-8.07c0 0 14.635 12.5 35.283 10.205 46.121-9.097 62.576-20.489 62.576-20.489s7.911 19.303 32.514 21.122c28.084 2.136 43.353-14.714 43.353-14.714s-.238 10.68 9.572 14.714 16.376-18.037 16.376-18.037l16.376-45.25h1.503s.87 29.507 17.008 34.175c16.139 4.667 37.182-10.838 37.182-10.838s5.063-2.769 4.193-11.313M53.874 302.32c.633-25.315 17.246-36.312 22.942-30.853 5.775 5.538 3.639 17.404-7.2 24.84-10.837 7.516-15.742 6.013-15.742 6.013m215.812-97.938s15.11-39.318 18.67-20.173c3.56 19.144-31.644 76.103-31.644 76.103.396-12.815 12.974-55.93 12.974-55.93m18.037 109.488c-9.968 26.106-34.255 15.506-34.255 15.506s-2.768-9.335 5.064-35.52 26.343-15.981 26.343-15.981 12.816 9.81 2.848 35.995m66.927-11.55s-2.373-8.307 6.408-24.208c8.702-15.98 15.506-7.199 15.506-7.199s7.436 8.07-1.029 20.173c-8.465 12.104-20.885 11.234-20.885 11.234"/></svg>