<svg xmlns="http://www.w3.org/2000/svg" viewBox="0 0 512 512"><!--! Font Awesome Free 7.0.1 by @fontawesome - https://fontawesome.com License - https://fontawesome.com/license/free (Icons: CC BY 4.0, Fonts: SIL OFL 1.1, Code: MIT License) Copyright 2025 Fonticons, Inc.--><path fill="currentColor" d="M425 242.072c25.305-40.509 14.908-47.865-11.477-47.865h-26.482c-.098 0-1.472-1.373-10.692 7.847-10.985 5.492-37.174 6.179-37.174 8.533 0 4.414 68.954-3.04 86.413 0 9.318 1.471-1.472 20.01-4.316 31.387-.49 4.414 2.354 2.256 3.727.098m-109.953 22.167c62.774-20.892 95.436-23.442 100.046-25.698 4.315-2.844-4.316-6.474-25.698-5.689-50.71 2.158-134.964 36.39-169.294 52.868l-30.112-91.513h192.834c-2.648-27.66-149.97-22.167-331.427-22.167L0 412.837C192.638 317.4 253.94 285.033 315.047 264.239M66.403 99.163c248.448 52.671 323.678 64.442 325.738 83.568 35.703 0 45.02 0 51.396 6.474 20.696 19.322-14.32 66.403-14.32 66.403-4.316 2.844-398.615 157.13-398.615 157.13h414.995L512 99.164z"/></svg>