<svg xmlns="http://www.w3.org/2000/svg" viewBox="0 0 512 512"><!--! Font Awesome Free 7.0.1 by @fontawesome - https://fontawesome.com License - https://fontawesome.com/license/free (Icons: CC BY 4.0, Fonts: SIL OFL 1.1, Code: MIT License) Copyright 2025 Fonticons, Inc.--><path fill="currentColor" d="M256 51.346C114.661 51.346 0 142.984 0 256s114.661 204.654 256 204.654S512 369.016 512 256 397.339 51.346 256 51.346m-78.024 326.35-126.538 1.279 70.532-265.593h121.879c57.741 0 77.567 26.13 71.263 66.512a78 78 0 0 1-1.37 6.304c-5.117-1.187-10.416-1.735-15.715-1.735-38.647 0-70.076 30.972-70.076 69.162 0 33.895 24.76 62.127 57.468 68.065-16.628 33.987-51.346 55.64-107.535 56.189zm141.978-166.373h29.237l-20.283 82.501h-32.343L286.333 261.3l-7.127 32.525h-34.535l24.303-82.5h28.596l13.705 33.621 8.588-33.622zm133.3 166.373H273.175l14.436-55.914c3.472.548 6.943.73 10.506.73 38.647 0 70.076-30.972 70.076-69.07 0-29.785-19.186-55.275-46.047-64.96l19.46-75.283h84.511l-48.422 187.66h94.926zM186.29 268.243h-22.567l-12.608 51.62h22.567c14.71 0 29.327-2.924 34.626-24.303 5.117-20.374-7.309-27.226-22.018-27.226zm19.46-90.815h-19.46l-10.69 43.58h19.552c16.445 0 32.343-13.34 35.814-27.5 4.203-17.268-8.68-16.08-25.216-16.08"/></svg>