<svg xmlns="http://www.w3.org/2000/svg" viewBox="0 0 512 512"><!--! Font Awesome Free 7.0.1 by @fontawesome - https://fontawesome.com License - https://fontawesome.com/license/free (Icons: CC BY 4.0, Fonts: SIL OFL 1.1, Code: MIT License) Copyright 2025 Fonticons, Inc.--><path fill="currentColor" d="M492.8 179.2h-53.84C408.96 107.76 338.32 57.6 256 57.6 146.4 57.6 57.6 146.4 57.6 256c0 13.12 1.28 26 3.76 38.4H19.2C8.56 294.4 0 303.04 0 313.6c0 10.64 8.56 19.2 19.2 19.2h53.84c30 71.44 100.64 121.6 182.96 121.6 109.6 0 198.4-88.8 198.4-198.4 0-13.12-1.28-26-3.76-38.4h42.16c10.64 0 19.2-8.64 19.2-19.2 0-10.64-8.56-19.2-19.2-19.2M416 256c0 88.4-71.6 160-160 160-60.56 0-113.28-33.6-140.4-83.2h223.6c10.64 0 19.2-8.64 19.2-19.2 0-10.64-8.56-19.2-19.2-19.2H100.64C97.6 282.08 96 269.28 96 256c0-88.4 71.6-160 160-160 60.56 0 113.28 33.6 140.4 83.2H172.8c-10.64 0-19.2 8.64-19.2 19.2 0 10.64 8.56 19.2 19.2 19.2h238.56c3.04 12.32 4.64 25.12 4.64 38.4m-243.2-19.2h166.4c10.64 0 19.2 8.56 19.2 19.2 0 10.56-8.56 19.2-19.2 19.2H172.8c-10.64 0-19.2-8.56-19.2-19.2 0-10.56 8.56-19.2 19.2-19.2"/></svg>