<svg xmlns="http://www.w3.org/2000/svg" viewBox="0 0 512 512"><!--! Font Awesome Free 7.0.1 by @fontawesome - https://fontawesome.com License - https://fontawesome.com/license/free (Icons: CC BY 4.0, Fonts: SIL OFL 1.1, Code: MIT License) Copyright 2025 Fonticons, Inc.--><path fill="currentColor" d="M477.083 401.346c-7.197 30.812-30.587 48.13-61.962 53.978-27.55 5.06-50.491 6.297-72.532-11.47-26.876-22.604-27.214-60.05-3.036-83.666 19.117-18.217 45.993-21.928 86.364-29.013 6.747-1.237 12.595-2.811 17.543-8.321 7.197-8.097 4.948-4.611 4.948-183.524 0-12.595-6.185-16.081-19.117-13.832-9.222 1.574-208.826 38.909-208.826 38.909-11.47 2.474-15.069 5.847-15.069 18.78 0 263.927 1.237 251.782-2.811 269.325-4.723 20.467-17.318 35.873-33.961 44.42-18.892 10.457-53.078 15.068-71.296 11.694-48.58-9.108-65.672-65.223-32.724-97.384 19.118-18.218 45.994-21.929 86.365-29.013 6.747-1.237 12.594-2.811 17.542-8.322 11.358-12.932 2.024-288.555 5.848-303.849.9-5.847 3.373-10.795 7.984-14.506 4.723-3.936 13.27-6.185 15.069-6.185C426.817 6.41 454.817.9 458.753.9c12.932-.9 20.354 6.747 20.354 19.791.225 387.402 1.237 366.598-2.024 380.655"/></svg>