<svg xmlns="http://www.w3.org/2000/svg" viewBox="0 0 512 512"><!--! Font Awesome Free 7.0.1 by @fontawesome - https://fontawesome.com License - https://fontawesome.com/license/free (Icons: CC BY 4.0, Fonts: SIL OFL 1.1, Code: MIT License) Copyright 2025 Fonticons, Inc.--><path fill="currentColor" d="m485.5 236.345 20.242 6.943c-9.388-23.37-23.37-36.18-30.998-43.807l6.943-17.797c.195 0 12.027-27.184-2.445-30.02-.587-11.05-6.454-26.402-17.992-26.402-7.432-10.365-17.308-12.027-30.02-5.77-8.898 4.303-17.21 9.78-24.74 16.135-5.182-6.258-2.933.391-2.933-29.14-36.278-23.761-44.394-11.44-73.143 2.934l.489.489a236.5 236.5 0 0 0-66.885-13.005c-5.378-8.508-18.188-18.677-24.544-24.544l24.251 6.942c-5.378-5.378-26.206-12.614-33.442-14.863 17.796-4.01 29.14-20.34 41.558-32.269-34.127-9.876-66.396-5.77-95.731 11.539L187.844.489 186.084 0c-30.9 23.664-32.269 40.972-32.953 44.492-.88-2.347-6.16-19.166-14.864-26.402-3.227 7.92-3.422 16.721-.489 24.74 2.934 8.214 5.77 14.472 8.214 18.48-15.645-3.226-27.673-4.79-48.11 0h-3.618l32.27 13.984c-19.753 18.481-35.301 40.972-45.666 65.907l-1.662 8.214 1.662 1.662 7.431-4.596c-3.226 11.343-5.182 18.97-6.453 25.229-10.659 11.93-19.753 25.228-27.184 39.407-14.668.978-31.096 10.56-39.408 13.983l2.934 3.325 28.162.978c-.489.977-.685 2.15-1.174 3.129-7.138 6.258-38.918 36.864-32.268 78.912L32.66 289.54c.489 1.662.685 3.325 1.173 5.085 0 24.935.392 87.615 63.463 147.166 42.634 39.114 93.873 58.866 154.01 58.866 119.004 0 218.06-85.366 218.06-206.814 6.65-9.485-1.173 2.933 16.33-24.544l12.712 13.983 2.445-.489c-1.76-11.44-4.694-22.588-8.703-33.442a43.1 43.1 0 0 0-6.65-13.006M397.3 108.736l-.49 21.415c5.379 17.7 16.526 16.82 21.905 16.82l-3.325-4.597 21.904-5.28a238 238 0 0 1-26.402 0c12.516-2.054 32.562-28.358 42.047-11.05 3.325 7.432 6.258 16.82 9.094 27.184l1.662-5.769c-1.27-4.89-1.76-9.876-1.662-14.863 5.28.489 8.605 3.325 9.094 9.876.489 6.258 1.662 14.472 3.325 24.74l4.596-11.05c4.498 0 4.4-3.52-2.445 20.241-20.437-8.507-34.322-8.214-45.47-8.214l17.797-15.645c-24.74 8.018-32.269 10.56-53.586 20.437-1.076-5.28-4.89-13.201-15.646-19.46-3.129 3.717-2.737.88-.684 14.473h-2.445c-1.173-8.018-4.009-15.646-8.214-22.588l4.107-3.325c8.214-6.943 11.539-13.983 10.366-21.415-.49-6.258-5.28-13.2-13.201-20.241 5.476-3.325 14.863-.391 27.673 8.311m-38.723-9.876c2.64 1.858 11.147 5.28 18.481 16.82 4.107 8.213 3.912 9.582 3.325 10.853-.489 2.347-.489 4.205-2.934 6.943-1.662 2.445-5.28 4.596-11.538 7.432-7.432-12.712-16.135-23.078-27.184-30.51zM97.1 139.93l1.173-1.663c1.174-2.835 4.107-7.431 9.094-14.863l2.445-3.325L97.1 132.107l5.28-4.596-9.876 9.094-4.107 1.173c12.028-23.566 22.588-40.385 31.78-49.087 9.094-9.094 15.646-15.646 19.753-18.97l-6.258 1.173c-11.05-4.107-18.97-6.943-24.251-8.214 2.445-.489 3.618-.489 3.129-.489 10.072 0 17.112.489 20.437 1.173 5.085 1.663 10.365 2.445 15.646 2.445l.488-1.662-8.213-35.007 13.2 28.357c2.738-4.302 4.694-8.996 5.77-13.983 1.662-6.258 5.28-12.712 9.876-18.97s7.432-10.365 9.094-11.05c-2.542 8.116-4.596 16.428-6.258 24.74l-1.663 6.942-.488 4.596 2.444 2.445c21.415-13.201 44.492-18.97 69.72-18.481l20.633.489c-11.539 13.2-27.184 21.414-47.425 24.25-7.53 1.37-15.255 2.347-22.882 2.836l-.196-.489-2.444-1.173c-4.694-.978-9.485-.294-13.69 1.955-2.445-.195-4.792-.489-6.943-.684l-2.444 1.662.489 1.174c1.955.195 3.813.488 6.062.684l-1.956 3.325 3.325-.49-10.365 11.05c-4.107 2.934-5.28 6.259-4.107 9.094l5.28-3.324h1.174c5.965-8.019 14.863-13.299 24.74-14.864v-2.933c6.258.489 12.711.978 18.97 1.173 6.258 0 8.213.49 5.28 1.174 7.04 3.911 13.788 8.41 20.241 13.2 13.201 9.877 23.077 21.416 29.336 34.616 8.605 17.797 13.2 36.278 13.2 55.346 0 9.29-.977 18.58-2.933 27.674-3.422 15.547-8.703 30.606-15.645 44.98l2.444.49c17.797-19.264 40.972-15.646 48.11-15.646l-6.258 5.77 21.904 17.307-1.663 30.02c-5.28-12.028-16.134-20.633-32.269-27.184 16.135 14.472 23.078 20.632 21.415 19.752-4.693-2.738-3.422-1.858-10.56-3.618 4.009 4.01 17.112 18.384 17.796 20.242l.196.195-.196.196c0 1.76 1.565-1.174-13.69 22.392-73.534-14.96-103.945-41.754-138.071-61.8l11.538 1.174c-11.538-18.09-15.254-17.308-37.549-25.522l10.365-8.214c-8.605-2.933-17.797-2.933-27.673.49l7.432-10.366-1.174-1.662c-14.57 4.204-19.361 8.996-22.099 11.05-1.076-5.379-2.738-12.126-12.028-28.163L97.1 217.766l-12.907-4.889c1.466-24.642 5.28-49.381 12.907-72.947m270.374 322.689c-48.794 24.446-54.857 21.904-57.692 23.37-29.14-11.538-49.773-30.997-62.094-57.497l29.336 16.134c-9.583-9.094-17.895-16.134-37.55-43.318l11.539 22.588-17.308-7.432c13.886 20.633 22.98 50.555 65.125 71.872C180.706 512 104.238 417.833 102.38 415.682c10.855 8.996 22.393 17.112 34.616 24.25 3.325 1.663 6.943 2.445 9.876 1.174l-15.645-20.241c8.996 4.107 9.29 4.4 67.569 28.357-41.558-20.241-72.165-39.896-91.135-58.866-.49 6.258-1.174 9.876-1.174 9.876 8.508 7.139 15.45 16.037 20.242 26.01-38.136-18.48-56.324-46.545-69.72-80.77 48.794 53.88 116.265 36.67 117.83 36.279 34.029 16.037 68.351 23.077 111.376 10.365 3.227 0 19.85 16.623 24.74 38.234l4.107-2.934-2.445-23.077c8.8 8.8 24.349 22.1 33.638 12.712-15.254-5.182-22.98-9.29-28.846-30.998 4.498 4.107 7.431 8.801 27.184 14.668l1.173-1.173-10.267-13.886c11.44-4.693-3.423.978 31.29-10.56 4.206 33.54 8.802 48.11.685 87.517m112.746-209.65-2.445.489 2.934 9.094c-3.423 5.769-23.175 43.318-70.014 77.934-38.625 29.14-74.903 38.234-79.108 39.407l-7.431-6.943-1.174 2.934 13.984 15.645-6.943-4.595 3.325 4.106h-1.174l-21.415-13.2 9.094 26.01-18.579-27.282-1.173 2.445 7.431 28.358c-5.964-8.019-20.534-31.878-55.541-38.723l31.78 20.73a211.1 211.1 0 0 1-91.135-6.258c-4.107-1.173-8.703-2.445-13.201-4.107l1.173-2.934-43.807-21.903 25.521 21.903c-56.421 8.899-110.496-24.837-123.6-81.552l-2.444-16.037-21.806 21.806C33.54 244.07 39.505 243.68 64.733 231.75c-8.898-5.182-1.564-3.226-37.549-9.094 15.45-5.671 32.269-15.058 71.383 5.085 1.173-.684 2.347-1.27 3.618-1.662.587-3.13.391-.782.978-11.539 3.813 9.779 3.52 8.508 2.933 9.094l1.663.49c12.418-6.357 8.702-4.401 16.623-8.704l-5.28 13.201 21.806-5.671-8.214 8.214 2.444 2.444c4.4-1.76 29.629 3.325 39.896 15.646l-23.077-2.445c38.527 22.49 50.36 52.804 54.564 68.058l1.662-1.173c-2.738-21.806-12.125-33.15-15.645-39.212 4.107 4.89 38.331 33.834 107.954 44.981-11.05-.489-22.588 5.28-34.127 18.481l45.666-19.752-9.094 21.415c7.431-9.876 14.472-23.077 20.73-38.723v-.489l1.173-2.933-1.173 15.645c13.2-40.874 24.74-76.76 34.616-107.27l13.2-27.184v-1.955l-5.28-4.107h9.876l5.77 4.107 2.444-1.174-3.324-15.645 12.027 18.481 40.874-19.752-14.472 12.712.489 2.835 17.308-.489q16.28.587 32.269 4.107l-23.077 2.445-1.174 2.933 26.01 22.589c9.682 9.68 18.482 20.143 26.403 31.29-10.952-3.226-10.072-3.324-20.73-3.324l12.027 31.78zm-5.965-69.72-3.813 12.711-13.984-11.538zM225.1 190.19c1.662 10.365 4.596 17.308 8.605 21.415-9.094 6.454-26.89 13.592-45.47 15.645l.49 1.174c8.115 1.271 16.525.39 24.25-2.445l-6.943 12.712c4.107-1.662 9.876-6.943 17.308-14.472 11.636-5.378 12.419-4.987 19.752-15.646-12.418-6.258-15.352-13.396-17.992-18.383m3.618-100.034c-6.258-3.324-10.365 2.934-12.027 18.482-1.663 15.547 2.444 28.846 11.538 38.722s17.797 10.366 25.522 2.934 3.325-23.077-11.05-46.643c-3.422-5.574-8.214-10.268-13.983-13.495m-4.596 45.275c5.28 2.15 10.268 1.858 12.028-10.366v-4.595l-1.174.489c-4.204-3.032-2.444-4.4-1.662-6.063l.489-.49c-.88-1.172-4.89-7.92-12.223 4.597-.49-13.201.489-21.415 2.933-24.25 1.174-2.445 4.596-1.174 11.05 4.106 6.258 5.28 11.05 15.646 14.863 31.78 6.356 27.38-19.361 25.62-26.304 4.792m-44.003-5.379c1.565.294 9.094-1.075 9.094-14.472h-.489c-5.28-1.075-2.151-5.378-.684-5.769-1.663-2.933-3.325-4.107-5.28-4.596-7.921 0-11.344 12.419-7.921 20.73.489 1.076 1.271 1.956 2.151 2.738.88.783 1.956 1.174 3.13 1.37m39.212-48.99-2.445.49.49 2.933c8.897-.49 17.698 1.467 25.52 5.77-2.444-5.379-9.778-13.984-27.672-13.984l.489 2.445zm-70.21 48.306c21.22 16.428 16.135 20.926 45.47 23.077l-2.835-4.596c8.213-7.04 13.396-16.916 14.472-27.673 1.662-15.645-1.174-28.846-8.605-40.385l12.712-7.431c0-.294 0-.587-.098-.88s-.196-.587-.391-.783c-2.152-.88-4.498-1.173-6.845-.88a13.46 13.46 0 0 0-6.356 2.543c-12.419 6.551-27.38 20.437-28.358 21.903-1.662 1.663-3.324 5.77-5.28 13.201-1.858 7.53-2.836 15.255-2.836 23.077-4.596-7.822-10.267-6.258-19.459-5.769l6.943 7.432c-16.135 0-22.784 15.059-23.077 15.645 6.649 0 4.498-7.431 29.335-12.027-4.205-6.16-3.227-4.89-4.792-6.454m18.286-18.286c1.174-7.431 3.325-12.712 6.258-16.819 5.28-6.258 10.366-9.876 15.646-11.538 4.107-1.663 6.943 1.173 9.876 9.094a70.7 70.7 0 0 1 2.934 24.74c-.49 9.093-3.325 16.818-8.214 22.587-2.836 3.325-5.28 5.77-6.258 7.432-3.716.391-7.432.196-11.05-.489l-6.943-3.325-5.28-6.258c.782-9.778 1.271-18.383 3.031-25.424m41.07 54.857c-34.03 14.081-33.932 13.69-35.3 13.984-20.34 4.595-18.58-23.86-18.482-24.251l5.77-1.173-.49-2.445c-19.752-2.542-30.313 4.107-31.78 4.791.49.49 2.934 3.325 5.77 9.094 4.107-6.258 8.605-9.876 14.863-10.365-1.662 10.952-1.173 22.197 1.662 32.954.098.489 2.543 17.014 26.891 23.566 11.05 2.933 26.402 1.173 47.817-5.28l-8.996.488c-4.107-14.472-6.259-24.25-5.77-28.846 11.05-8.605 21.415-11.05 30.02-7.432h2.445l-11.539-7.431-6.942.489c-5.77 1.173-12.028 4.106-18.97 8.213z"/></svg>