<svg xmlns="http://www.w3.org/2000/svg" viewBox="0 0 512 512"><!--! Font Awesome Free 7.0.1 by @fontawesome - https://fontawesome.com License - https://fontawesome.com/license/free (Icons: CC BY 4.0, Fonts: SIL OFL 1.1, Code: MIT License) Copyright 2025 Fonticons, Inc.--><path fill="currentColor" d="M189.6 114.857c-43.771 20.572-76.343 60.914-86.514 109.372 6.971.114 71.314.342 144.457-19.086-25.943-45.943-53.829-84.686-57.943-90.286m29.829-10.4c4.342 5.829 32.685 44.457 58.285 91.429 55.543-20.915 78.972-52.457 81.829-56.457-38.4-34.058-90.629-46.972-140.114-34.972M317.029 400c-2.286-13.714-11.429-61.486-33.372-118.4-62.971 21.486-107.2 64.457-123.543 97.829C206.4 415.543 266.743 421.37 317.03 400m-56.686-170.743c-77.943 23.314-153.6 22.4-160.457 22.172v4.8c0 40.114 15.2 76.685 40.114 104.457 25.371-43.315 76.686-89.029 133.143-104.915-3.886-8.914-8.229-17.714-12.686-26.514zM343.2 385.714c35.086-23.657 60-61.257 66.971-104.685-5.257-1.715-48.342-14.515-97.257-6.629 20.457 56.114 28.686 101.829 30.286 111.314m-39.771-136c52-6.514 103.657 3.886 108.8 5.029-.343-36.914-13.486-70.743-35.315-97.257-3.314 4.457-29.485 37.943-87.2 61.6 5.486 11.2 9.486 20.343 13.715 30.628M438.857 0H73.143C32.8 0 0 32.8 0 73.143v365.714C0 479.2 32.8 512 73.143 512h365.714C479.2 512 512 479.2 512 438.857V73.143C512 32.8 479.2 0 438.857 0M256 73.143c101.029 0 182.857 81.828 182.857 182.857S357.03 438.857 256 438.857 73.143 357.03 73.143 256 154.97 73.143 256 73.143"/></svg>