<svg xmlns="http://www.w3.org/2000/svg" viewBox="0 0 512 512"><!--! Font Awesome Free 7.0.1 by @fontawesome - https://fontawesome.com License - https://fontawesome.com/license/free (Icons: CC BY 4.0, Fonts: SIL OFL 1.1, Code: MIT License) Copyright 2025 Fonticons, Inc.--><path fill="currentColor" d="M512 70.76c-64.64 42.88-71.52 74-77.12 83.52-5.36 9.76-9.36 48.24-18.64 66.88-9.36 18.88-43.36 33.76-52.88 40-9.36 6.24-22.64 30.48-33.52 51.36-86.48-3.52-133.92 31.04-207.36 74.88 23.52-7.76 34.64-13.36 34.64-13.36 75.36-28.8 111.44-54.64 224.88-39.36.88 0 1.52.48 2.24.64 3.12 1.76 4.24 5.52 2.48 8.64L343.6 420.6c-2 3.76-6.24 5.76-10.48 4.88C231.68 406.44 151.6 439.32 78 440.36c-58.72.88-78-26.8-78-28.08 0-.88.48-1.36 1.36-1.36 0 0 30.64 0 82.48-12.24 58.88-112.24 111.36-151.52 168.48-151.52 0 0 57.36 0 72.48 49.52 18.24-31.76 22.64-39.36 22.64-39.36 4.24-7.52 28-61.76 69.12-113.12C457.76 93 488.88 80.28 512 70.76"/></svg>