<svg xmlns="http://www.w3.org/2000/svg" viewBox="0 0 512 512"><!--! Font Awesome Free 7.0.1 by @fontawesome - https://fontawesome.com License - https://fontawesome.com/license/free (Icons: CC BY 4.0, Fonts: SIL OFL 1.1, Code: MIT License) Copyright 2025 Fonticons, Inc.--><path fill="currentColor" d="M435.786 56.28C423.377 44.85 373.154 8.404 261.18 7.916c0 0-132.006-7.915-196.3 51.102-35.761 35.762-48.366 88.232-49.734 153.209s-3.029 186.724 114.32 219.75h.098l-.097 50.418s-.782 20.421 12.702 24.525c16.22 5.081 25.795-10.455 41.331-27.163 8.501-9.185 20.226-22.669 29.118-32.929 80.317 6.742 141.972-8.696 149.007-10.943 16.22-5.276 107.97-17.002 122.822-138.748C499.884 171.48 477.02 92.14 435.786 56.28m13.582 231.671c-12.605 101.618-86.962 108.067-100.641 112.464-5.863 1.857-60.092 15.34-128.196 10.944 0 0-50.809 61.264-66.638 77.19-5.178 5.18-10.846 4.69-10.748-5.569 0-6.742.39-83.737.39-83.737-99.468-27.554-93.605-131.225-92.53-185.454 1.074-54.229 11.334-98.687 41.624-128.586 54.424-49.343 166.498-42.015 166.498-42.015 94.68.39 140.018 28.922 150.57 38.497 34.883 29.9 52.666 101.423 39.67 206.266m-135.817-78.95c.391 8.404-12.214 8.99-12.604.587-1.075-21.496-11.14-31.951-31.854-33.124-8.403-.488-7.621-13.093.684-12.604 27.261 1.465 42.406 17.099 43.774 45.142m19.835 11.042c.977-41.43-24.916-73.869-74.064-77.484-8.305-.586-7.426-13.191.88-12.605 56.671 4.104 86.864 43.09 85.789 90.382-.098 8.403-12.8 8.012-12.605-.293m45.924 13.093c.098 8.403-12.605 8.5-12.605.098-.586-79.634-53.642-123.017-118.033-123.506-8.306-.097-8.306-12.604 0-12.604 72.012.488 129.954 50.223 130.638 136.012m-11.041 95.853v.196c-10.553 18.565-30.29 39.084-50.614 32.537l-.195-.293c-20.617-5.765-69.18-30.779-99.86-55.206-15.829-12.507-30.29-27.261-41.429-41.43-10.064-12.604-20.226-27.553-30.095-45.532-20.812-37.618-25.404-54.424-25.404-54.424-6.547-20.324 13.875-40.061 32.537-50.614h.196c8.989-4.69 17.587-3.127 23.352 3.81 0 0 12.116 14.462 17.295 21.594 4.885 6.645 11.432 17.295 14.852 23.255 5.96 10.65 2.247 21.497-3.615 25.991l-11.726 9.38c-5.96 4.788-5.178 13.68-5.178 13.68s17.392 65.759 82.37 82.37c0 0 8.89.781 13.679-5.18l9.38-11.725c4.494-5.862 15.34-9.575 25.99-3.615 14.364 8.11 32.636 20.715 44.752 32.147 6.84 5.57 8.403 14.07 3.713 23.06"/></svg>