<svg xmlns="http://www.w3.org/2000/svg" viewBox="0 0 512 512"><!--! Font Awesome Free 7.0.1 by @fontawesome - https://fontawesome.com License - https://fontawesome.com/license/free (Icons: CC BY 4.0, Fonts: SIL OFL 1.1, Code: MIT License) Copyright 2025 Fonticons, Inc.--><path fill="currentColor" d="M181.242 361.644c0-.559-.16-1.198-.48-1.678s-.799-.879-1.358-1.118c-.4-.16-.88-.32-1.279-.32H58.575c-2.476 0-4.954-.64-7.111-1.758a15.33 15.33 0 0 1-5.514-4.875 15.4 15.4 0 0 1-2.637-6.872c-.32-2.478 0-4.955.879-7.272l21.576-81.99c1.598-5.754 4.955-10.789 9.59-14.545s10.308-5.913 16.302-6.233h118.75c1.199-.08 2.317-.48 3.196-1.279.88-.799 1.599-1.758 1.918-2.876l8.63-32.845c.32-.799.24-1.598-.08-2.317-.319-.72-.958-1.279-1.677-1.598-.32-.16-.72-.24-1.119-.24h-118.83c-17.74.959-34.682 7.352-48.587 18.38s-23.974 26.131-28.928 43.233L3.356 338.15A45.5 45.5 0 0 0 .96 359.805a46.3 46.3 0 0 0 7.911 20.378c4.236 6.074 9.83 11.028 16.382 14.384 6.553 3.357 13.825 5.195 21.177 5.275.8 0 1.519 0 2.318-.08h118.75a5.7 5.7 0 0 0 3.196-1.279c.88-.72 1.599-1.758 1.918-2.877l8.55-32.844c.16-.4.24-.719.24-1.119zm64.33-245.331c.16-.32.24-.72.24-1.119q0-.6-.24-1.199c-.16-.4-.4-.719-.64-.959s-.64-.48-.959-.639c-.32-.16-.799-.24-1.199-.24H209.85c-1.198.08-2.317.48-3.196 1.279-.88.8-1.598 1.758-1.918 2.877l-17.021 64.65h40.835l17.101-64.65zm-100.93 229.349h40.835l25.572-97.973h-40.835zm264.99-230.548c0-.799-.4-1.518-.959-2.078-.56-.559-1.359-.879-2.078-.879h-32.924a6.07 6.07 0 0 0-3.276 1.199c-.96.72-1.598 1.758-1.998 2.877l-73.04 279.294c-.16.32-.24.72-.24 1.04 0 .798.32 1.598.88 2.157.559.56 1.358.879 2.157.879h32.924c1.199-.08 2.317-.48 3.196-1.279.88-.799 1.599-1.758 1.918-2.877l73.12-279.134q.24-.6.24-1.199zM259.956 358.688h-32.764a5.7 5.7 0 0 0-3.197 1.278c-.879.72-1.598 1.758-1.918 2.877l-8.55 32.844c-.16.32-.24.72-.24 1.119q0 .6.24 1.199c.16.4.399.719.639.959s.64.48.959.639c.32.16.799.24 1.198.24h32.924c1.2-.08 2.318-.48 3.197-1.279.879-.8 1.598-1.758 1.918-2.877l8.63-32.844q.24-.72.24-1.438c0-.48-.24-.96-.48-1.359-.24-.4-.639-.719-1.038-.959-.4-.24-.96-.32-1.439-.32h-.24zm248.847-246.45H476.04c-1.198.08-2.317.479-3.196 1.198-.88.72-1.598 1.758-1.918 2.877l-73.12 279.214c-.16.32-.16.72-.16 1.04 0 .798.32 1.598.88 2.157.559.56 1.358.879 2.157.879h32.844c1.199-.08 2.317-.48 3.196-1.279.88-.799 1.599-1.758 1.918-2.877l73.12-279.134q.24-.6.24-1.199c-.08-.799-.4-1.518-.959-1.998-.56-.48-1.279-.799-2.078-.799h-.16zM297.515 231.386l8.63-32.844c.16-.32.16-.72.16-1.119 0-.8-.32-1.598-.88-2.158a3.1 3.1 0 0 0-2.157-.879h-33.004a5.7 5.7 0 0 0-3.196 1.279c-.88.72-1.598 1.758-1.918 2.877l-8.63 32.844q-.24.6-.24 1.199v.16c.08.799.4 1.438.959 1.997s1.278.8 2.077.8H292.4c1.199-.08 2.318-.48 3.197-1.28.879-.798 1.598-1.757 1.918-2.876"/></svg>