<svg xmlns="http://www.w3.org/2000/svg" viewBox="0 0 512 512"><!--! Font Awesome Free 7.0.1 by @fontawesome - https://fontawesome.com License - https://fontawesome.com/license/free (Icons: CC BY 4.0, Fonts: SIL OFL 1.1, Code: MIT License) Copyright 2025 Fonticons, Inc.--><path fill="currentColor" d="M142.245 8.329S277.735 0 265.14 114.365c0 0 19.4-76.074 104.614-41.237 0 0-17.977 75.16-89.379 56.878 0 0 14.829-55.456 67.136-57.487 0 0-40.525-10.461-83.387 49.565 0 0-20.11-95.981-95.066-101.263 0 0 76.378 19.704 78.816 109.185 0 .102-108.068 7.11-105.63-121.677m316.89 320.545c0 49.26-9.853 96.794-32.502 134.374C383.77 494.632 319.987 512 256 512c-63.886 0-127.771-17.368-170.633-48.752-22.65-37.58-32.501-85.114-32.501-134.374 0-49.158 17.977-96.184 40.627-133.764 42.86-31.384 98.621-49.361 162.507-49.361 63.987 0 119.646 17.876 162.507 49.361 22.65 37.58 40.627 84.606 40.627 133.764M174.745 434.81c0-15.743-12.696-28.439-28.439-28.439s-28.438 12.696-28.438 28.439 12.696 28.439 28.438 28.439c15.743 0 28.44-12.696 28.44-28.439m0-67.237c0-15.743-12.696-28.44-28.439-28.44s-28.438 12.697-28.438 28.44c0 15.742 12.696 28.438 28.438 28.438 15.743 0 28.44-12.696 28.44-28.438m0-67.238c0-15.743-12.696-28.439-28.439-28.439s-28.438 12.696-28.438 28.44c0 15.742 12.696 28.438 28.438 28.438 15.743 0 28.44-12.696 28.44-28.439m73.129 134.475c0-15.743-12.696-28.439-28.44-28.439-15.742 0-28.438 12.696-28.438 28.439s12.696 28.439 28.439 28.439 28.439-12.696 28.439-28.439m0-67.237c0-15.743-12.696-28.44-28.44-28.44-15.742 0-28.438 12.697-28.438 28.44 0 15.742 12.696 28.438 28.439 28.438s28.439-12.696 28.439-28.438m0-67.238c0-15.743-12.696-28.439-28.44-28.439-15.742 0-28.438 12.696-28.438 28.44 0 15.742 12.696 28.438 28.439 28.438s28.439-12.696 28.439-28.439m73.128 134.475c0-15.743-12.696-28.439-28.439-28.439s-28.439 12.696-28.439 28.439 12.696 28.439 28.44 28.439c15.742 0 28.438-12.696 28.438-28.439m0-67.237c0-15.743-12.696-28.44-28.439-28.44s-28.439 12.697-28.439 28.44c0 15.742 12.696 28.438 28.44 28.438 15.742 0 28.438-12.696 28.438-28.438m0-67.238c0-15.743-12.696-28.439-28.439-28.439s-28.439 12.696-28.439 28.44c0 15.742 12.696 28.438 28.44 28.438 15.742 0 28.438-12.696 28.438-28.439m73.128 134.475c0-15.743-12.696-28.439-28.438-28.439-15.743 0-28.44 12.696-28.44 28.439s12.697 28.439 28.44 28.439c15.742 0 28.438-12.696 28.438-28.439m0-67.237c0-15.743-12.696-28.44-28.438-28.44-15.743 0-28.44 12.697-28.44 28.44 0 15.742 12.697 28.438 28.44 28.438 15.742 0 28.438-12.696 28.438-28.438m0-67.238c0-15.743-12.696-28.439-28.438-28.439-15.743 0-28.44 12.696-28.44 28.44 0 15.742 12.697 28.438 28.44 28.438 15.742 0 28.438-12.696 28.438-28.439m24.376-40.22c-4.875-22.65-7.516-37.479-16.25-56.878-39.408-20.212-91.919-32.502-146.257-32.502s-106.849 12.29-146.257 32.502c-8.938 19.805-11.375 34.431-16.25 56.877 42.86-8.023 100.246-15.031 162.507-15.031 62.26 0 119.646 7.008 162.507 15.031"/></svg>