<svg xmlns="http://www.w3.org/2000/svg" viewBox="0 0 512 512"><!--! Font Awesome Free 7.0.1 by @fontawesome - https://fontawesome.com License - https://fontawesome.com/license/free (Icons: CC BY 4.0, Fonts: SIL OFL 1.1, Code: MIT License) Copyright 2025 Fonticons, Inc.--><path fill="currentColor" d="M98.413 407.905c1.06 5.489-2.214 10.689-7.703 11.844-5.2 1.06-10.496-2.214-11.556-7.703-1.059-5.2 2.215-10.689 7.415-11.844 5.2-1.156 10.689 2.214 11.844 7.703m137.798 68.755c-6.066 4.43-7.703 12.903-3.563 19.259 4.43 6.355 12.904 7.992 19.26 3.563 6.066-4.43 7.703-12.904 3.273-19.26-4.044-6.258-12.614-7.992-18.97-3.562M153.398 31.488a11.46 11.46 0 0 0 9.244-7.51c1.445-3.949.482-8.475-2.407-11.652a11.43 11.43 0 0 0-11.556-2.985 11.46 11.46 0 0 0-9.244 7.51c-1.444 3.949-.481 8.475 2.407 11.652a11.43 11.43 0 0 0 11.556 2.985M36.207 226.871c-9.822-6.548-23.11-3.948-29.659 5.874s-3.948 23.11 5.874 29.659 23.11 3.948 29.659-5.874 3.948-23.111-5.874-29.66M298.129 62.303c7.03-3.563 11.555-10.785 11.652-18.681.096-7.993-4.237-15.311-11.17-19.067a21.36 21.36 0 0 0-22.052 1.156c-7.03 3.563-11.555 10.785-11.652 18.681-.096 7.992 4.237 15.31 11.17 19.066a21.36 21.36 0 0 0 22.052-1.155m-184.02 55.85c5.297-3.08 8.378-8.762 8.09-14.829-.29-6.066-3.853-11.459-9.438-14.059-5.488-2.503-11.94-1.83-16.755 1.926-5.296 3.082-8.378 8.763-8.089 14.83.29 6.066 3.852 11.459 9.437 14.059 5.489 2.503 11.94 1.83 16.755-1.926m358.506 150.22c-7.125 1.638-11.844 8.764-10.207 16.275 1.348 7.126 8.57 11.844 15.696 10.207 7.126-1.348 11.844-8.57 10.207-15.985-1.444-7.126-8.57-11.844-15.696-10.496m38.23-54.695c-1.156-5.296-6.356-8.57-11.556-7.414-5.296 1.059-8.666 6.259-7.51 11.555 1.155 5.296 6.355 8.57 11.65 7.511 5.2-1.155 8.571-6.355 7.415-11.652M433.52 142.71c-5.874 3.37-9.341 9.726-9.052 16.37.289 6.74 4.237 12.807 10.303 15.696 6.163 2.89 13.29 2.119 18.682-1.926 5.874-3.37 9.34-9.725 9.051-16.37-.288-6.74-4.237-12.807-10.303-15.696-6.163-2.889-13.289-2.118-18.681 1.926m-6.067 134.235c25.326 41.503 14.54 96.295-25.325 124.317-16.756 11.844-35.726 17.044-54.792 16.466-11.556 45.355-66.829 62.207-101.206 31.392-1.06.867-2.504 1.637-3.563 2.793-37.651 26.096-88.88 16.755-114.976-21.474-9.34-13.77-14.06-29.466-14.54-45.162-62.978-10.496-86.666-90.517-39.578-134.524-27.251-45.162.578-103.42 51.421-110.643 24.17-63.747 103.614-93.984 157.539-52.192 64.903-21.474 131.25 28.31 126.05 97.354 39.577 12.134 50.844 64.422 18.97 91.673m-67.406 71.547c-2.985-19.836-39.385-4.43-41.503-26.096-2.986-30.814 42.08-97.354 38.518-123.257-3.275-23.11-18.682-28.022-32.163-28.31-12.904-.29-16.274 1.925-20.607 4.429-2.793 1.637-6.356 4.718-11.267-.29-6.066-5.777-10.688-11.266-18.68-12.421-11.845-1.926-17.045 1.926-25.615 9.34-3.274 2.793-11.556 12.422-19.26 8.763-3.273-1.637-14.829-7.414-23.11-10.977-15.696-6.837-38.518 4.43-46.8 19.259-12.421 22.051-36.591 108.91-40.154 120.465-8.282 25.614 10.496 46.799 35.532 45.354 10.69-.577 17.622-4.43 24.46-16.755 3.851-7.126 40.154-103.71 42.947-108.428 1.926-3.274 8.57-7.704 14.059-4.911 5.489 2.985 6.644 9.052 5.778 14.54-1.06 9.341-26.963 68.274-27.83 74.822-3.274 22.051 25.904 25.614 37.17 3.851 3.563-6.836 44.007-89.169 47.57-94.657 4.14-6.067 7.126-7.993 11.266-7.704 2.986 0 7.993.867 6.837 10.496-1.348 9.052-33.8 69.621-37.458 84.45-4.43 19.838 6.355 39.867 23.977 48.726 10.978 5.489 60.184 15.118 56.333-10.689m5.488 88.88c-7.222 4.237-11.555 12.134-11.073 20.511.385 8.378 5.488 15.793 13.096 19.26 7.703 3.466 16.659 2.407 23.207-2.793 7.222-4.237 11.555-12.133 11.074-20.511-.386-8.378-5.49-15.792-13.096-19.26-7.704-3.466-16.66-2.406-23.208 2.793"/></svg>