<svg xmlns="http://www.w3.org/2000/svg" viewBox="0 0 512 512"><!--! Font Awesome Free 7.0.1 by @fontawesome - https://fontawesome.com License - https://fontawesome.com/license/free (Icons: CC BY 4.0, Fonts: SIL OFL 1.1, Code: MIT License) Copyright 2025 Fonticons, Inc.--><path fill="currentColor" d="M511.894 256.053c0 67.891-26.987 133.02-75.01 180.937S323.838 512 255.947 512s-133.02-27.093-180.937-75.01S0 323.838 0 255.947s26.987-133.02 75.01-181.043C123.033 26.88 188.162 0 256.053 0s133.02 26.88 181.043 74.904C485.12 122.927 512 188.056 512 255.947zm-485.97-.106c-.637 30.599 4.781 61.091 16.043 89.565s28.05 54.398 49.51 76.285c21.463 21.887 46.962 39.311 75.223 51.104 28.262 11.794 58.542 17.956 89.14 17.956 30.6 0 60.986-6.162 89.141-17.956 28.155-11.793 53.76-29.217 75.222-51.104s38.249-47.81 49.511-76.285 16.68-58.966 16.043-89.565c.638-30.599-4.78-61.092-16.043-89.566s-28.049-54.398-49.51-76.284c-21.462-21.887-46.961-39.311-75.223-51.105-28.261-11.793-58.541-17.955-89.14-17.955s-60.986 6.162-89.14 17.955C138.544 50.786 112.94 68.21 91.477 90.097s-38.249 47.81-49.51 76.284c-11.263 28.474-16.681 58.967-16.044 89.566M435.928 323.2c-13.493 0-22.95-2.019-28.368-6.269-5.843-4.568-8.712-13.068-8.712-25.286V189.118c0-6.906-5.525-21.462-16.68-43.773 7.436 0 18.061-9.669 31.873-28.9v157.032c0 11.688 2.55 20.612 7.437 26.88 3.931 4.994 10.731 9.457 20.187 13.388 1.275.425 2.762.956 4.356 1.487 3.081.956 6.694 2.231 10.944 3.719-1.913 2.868-8.819 4.25-21.143 4.25zm-232.68 0c-1.38 2.55-3.824 5.843-7.224 9.987l-19.655 23.905c-1.063-6.48-4.25-13.812-9.881-21.887-5.631-8.074-10.306-12.112-14.237-12.112H56.84c3.507-5.63 5.207-9.35 5.207-11.474s-.85-5.631-2.55-10.306c-1.594-4.675-2.55-9.031-2.55-13.175 0-7.862 2.231-14.768 6.693-20.505l21.25-27.2-7.544-18.805 17.106-21.036 7.118 17.849 8.5-10.943c-1.912 6.8-2.762 13.068-2.762 18.805 0 4.463 2.974 14.13 8.818 29.005l17.212 43.243h18.805c2.975.425 8.181 5.312 15.512 14.768 1.913 2.55 4.569 6.162 8.181 10.837a350 350 0 0 0 4.888 6.48c1.38-2.443 2.125-4.886 2.125-7.543 0-2.125-1.382-7.012-4.25-14.237l-5.525-14.555c-4.25-11.262-6.481-18.806-6.481-22.63 0-6.694 2.019-13.069 6.162-19.019.531-.637 1.063-1.381 1.594-2.018 4.675-5.95 9.35-11.794 14.13-17.531-1.168 4.887-1.806 9.243-1.806 12.75 0 3.93 1.807 10.518 5.419 19.974l8.393 21.674c2.02 4.994 3.188 8.712 3.932 10.943h27.517l-.956-2.762c-1.487-4.144-4.25-7.437-8.18-9.881l16.573-21.355 13.069 33.998h14.237l-6.481-16.787c-1.594-4.143-4.25-7.437-8.181-9.88l16.68-21.356 18.381 48.023h14.237l-12.112-31.236c-1.594-4.144-4.25-7.437-8.181-9.88l16.574-21.25 23.8 62.366h27.836c1.594 0 3.187-1.168 4.781-3.293s2.337-4.356 2.337-6.694v-99.34c0-6.906-4.78-21.568-14.555-43.773 5.737 0 14.98-9.669 27.836-28.9v173.713c0 7.65.638 12.75 1.806 15.512 1.7 3.612 5.631 6.587 11.794 8.712-4.144 5.95-9.244 9.031-15.406 9.031H203.355zm-104.12-46.749c-2.869-7.118-4.25-12.43-4.25-15.937-.638 1.275-2.55 3.932-5.738 8.075-1.487 2.019-2.337 3.931-2.337 5.631 0 2.763.85 6.056 2.337 9.881l5.95 14.768c5.313 0 9.562 0 12.644-.106L99.02 276.56zm14.343-76.922c-3.188-5.525-7.437-9.88-12.643-12.643-3.72-2.019-5.631-4.569-5.631-7.862 0-2.55 4.887-9.137 14.874-19.443.212 4.037 2.019 8.074 5.206 11.9 3.294 3.824 4.887 7.436 4.887 10.73 0 2.762-2.23 8.5-6.587 17.318zm-29.324 0c-3.187-5.525-7.437-9.88-12.643-12.643-3.719-2.019-5.631-4.569-5.631-7.862 0-2.55 4.887-9.137 14.874-19.443.213 4.037 2.019 8.074 5.206 11.9 3.294 3.824 4.887 7.436 4.887 10.73 0 2.762-2.23 8.5-6.587 17.318zm92.434 29.218c-3.187-5.525-7.437-9.881-12.643-12.643-3.719-2.02-5.631-4.569-5.631-7.863 0-2.55 4.887-9.137 14.874-19.443.213 4.038 2.019 8.075 5.206 11.9 3.294 3.825 4.888 7.437 4.888 10.73 0 2.763-2.232 8.5-6.588 17.319z"/></svg>