<svg xmlns="http://www.w3.org/2000/svg" viewBox="0 0 512 512"><!--! Font Awesome Free 7.0.1 by @fontawesome - https://fontawesome.com License - https://fontawesome.com/license/free (Icons: CC BY 4.0, Fonts: SIL OFL 1.1, Code: MIT License) Copyright 2025 Fonticons, Inc.--><path fill="currentColor" d="M0 273.912C2.295 138.402 97.191 42.01 213.342 26.343c138.502-18.56 255.052 75.638 277.404 200.67C512 345.557 446.84 456.518 339.47 500.424c-9.28 3.792-14.37 1.696-17.962-7.684-17.762-46.2-35.523-92.401-53.285-138.702-3.094-8.082-.998-13.171 6.985-16.764 24.148-10.976 39.215-29.337 43.207-55.68a71.3 71.3 0 0 0-1.497-29.038 72.4 72.4 0 0 0-12.872-26.044c-5.987-7.683-13.571-14.07-22.153-18.76s-18.06-7.483-27.84-8.282c-38.916-3.392-71.646 23.65-77.334 59.572-5.189 32.93 11.077 63.564 41.81 77.534 9.58 4.39 11.476 8.581 7.784 18.36-17.862 46.5-35.723 93-53.585 139.6-2.595 6.886-8.282 9.28-15.467 6.487-52.487-20.257-101.182-60.87-130.52-118.745C1.897 333.184 1.598 294.767 0 273.812zm20.855-1.896c.4 6.585.599 14.269 1.297 22.052 6.287 71.746 49.494 143.193 130.72 182.708 3.193 1.496 4.39.798 5.588-2.295a28116 28116 0 0 1 44.903-117.049c1.297-3.293.599-4.79-2.395-6.686-31.532-19.857-47.198-48.396-45.502-85.815.998-21.554 9.28-40.413 23.749-56.18 29.936-32.63 76.835-39.714 115.252-17.562 15.567 8.98 28.14 22.252 36.123 38.318s11.176 34.127 8.98 51.888c-3.592 30.535-19.258 53.785-45.602 69.65-2.694 1.597-3.492 2.895-2.295 5.988 15.168 39.116 30.235 78.232 45.103 117.448 1.198 3.093 2.395 3.791 5.588 2.295 35.424-16.565 65.06-40.214 87.912-71.846C465 356.833 479.27 303.248 472.485 244.275 458.815 127.027 353.34 29.935 217.533 46.7 111.66 59.672 22.65 148.98 20.855 272.016"/></svg>