<svg xmlns="http://www.w3.org/2000/svg" viewBox="0 0 512 512"><!--! Font Awesome Free 7.0.1 by @fontawesome - https://fontawesome.com License - https://fontawesome.com/license/free (Icons: CC BY 4.0, Fonts: SIL OFL 1.1, Code: MIT License) Copyright 2025 Fonticons, Inc.--><path fill="currentColor" d="m326.531 320.25-184.669-2.32c-.56 0-1.12-.16-1.6-.4s-.96-.64-1.28-1.12-.56-1.04-.56-1.6 0-1.121.16-1.681c.32-.88.88-1.68 1.68-2.24s1.68-.96 2.64-.96l186.35-2.32c22.083-1.041 46.007-18.884 54.408-40.647l10.642-27.605c.32-.72.4-1.52.4-2.32 0-.4-.08-.88-.16-1.28-5.921-25.764-20.003-48.888-40.247-65.85-20.243-16.963-45.367-26.965-71.77-28.405-26.405-1.44-52.49 5.841-74.412 20.563-21.924 14.723-38.406 36.246-47.048 61.21-9.041-6.801-19.923-10.642-31.205-10.962s-22.403 2.8-31.845 9.122c-9.441 6.32-16.642 15.282-20.723 25.844-4.08 10.561-4.72 22.083-1.92 33.045C33.525 281.524 0 315.609 0 357.536c0 3.76.24 7.441.8 11.202.16.88.56 1.68 1.2 2.24s1.52.88 2.32.88l340.934.08h.08c.96 0 1.84-.32 2.64-.88s1.28-1.36 1.6-2.32l2.641-9.042c3.12-10.721 1.92-20.643-3.28-27.924-4.801-6.721-12.882-10.642-22.564-11.122zm84.733-79.052c-1.68 0-3.44.08-5.12.16-.64.08-1.2.24-1.68.64s-.8.88-1.041 1.44l-7.281 24.964c-3.12 10.722-1.92 20.643 3.28 27.924 4.801 6.721 12.882 10.642 22.564 11.122l39.366 2.32c.56 0 1.12.16 1.6.4s.88.64 1.2 1.12.56 1.04.64 1.6c.08.561 0 1.201-.16 1.681-.32.88-.88 1.68-1.68 2.24s-1.68.96-2.64.96l-40.886 2.321c-22.244 1.04-46.168 18.883-54.489 40.646l-2.96 7.682c-.16.32-.16.64-.16 1.04s.16.64.32.96.48.56.72.72.64.24.96.24h140.822c.8 0 1.6-.24 2.24-.72s1.12-1.2 1.36-1.92c2.48-8.882 3.761-18.003 3.761-27.205 0-55.448-45.207-100.415-100.896-100.415z"/></svg>