<svg xmlns="http://www.w3.org/2000/svg" viewBox="0 0 512 512"><!--! Font Awesome Free 7.0.1 by @fontawesome - https://fontawesome.com License - https://fontawesome.com/license/free (Icons: CC BY 4.0, Fonts: SIL OFL 1.1, Code: MIT License) Copyright 2025 Fonticons, Inc.--><path fill="currentColor" d="M96.281 58.039c46.491-36.093 105.58-56.09 164.468-54.59 29.594-.4 59.089 5.4 86.883 15.297-24.095-4.599-48.99-6.298-73.386-2.5-42.891 5.3-82.983 27.196-111.778 59.19 5.7-1 10.798-3.7 15.997-5.9 18.097-7.898 37.493-13.297 57.189-14.797 19.696-2.1 39.592-.4 59.288 1.9-14.397 2.8-29.094 4.599-42.991 9.598-34.393 11.098-65.287 33.194-86.283 62.588-13.798 19.696-23.596 42.891-24.696 67.087-.4 16.497 5.2 34.793 19.797 43.991a52.93 52.93 0 0 0 37.492 6.699c15.397-2.5 30.094-8.598 43.592-16.297 11.498-6.799 22.695-14.597 31.994-24.295 3.799-3.2 2.499-8.399 2.599-12.798-2.1-.3-4.4-1.1-6.299.3-11.398 6.299-23.395 11.398-35.793 15.397-19.996 6.199-42.192 8.499-62.088.8 12.798 1.7 26.095.3 37.693-5.399 20.196-9.698 36.793-25.195 54.39-38.792 27.694-21.296 57.488-39.893 88.882-55.29 25.695-11.997 52.89-22.795 81.584-24.095-15.597 13.698-32.094 26.495-46.79 41.392-14.498 13.997-27.495 29.494-40.093 45.191-3.5 4.6-8.998 6.899-13.597 10.198-22.396 14.997-40.292 35.793-51.89 60.089-9.298 19.696-14.497 41.891-11.798 63.587 1.9 13.697 8.698 27.595 20.896 34.893 12.898 7.999 28.994 8.099 43.492 5.1 32.793-7.4 61.388-28.895 80.984-55.79 20.396-27.494 30.494-62.188 29.194-96.281-.5-7.499-1.6-14.997-1.7-22.496 7.999 19.497 14.797 39.693 16.597 60.789 2 14.297.7 28.794-1.6 42.891-1.9 10.998-5.698 21.496-7.798 32.394 20.396-22.896 33.993-50.89 39.292-81.084 5.6-35.493.7-71.886-14.197-104.58 20.796 31.994 32.294 69.586 35.693 107.48.5 12.697.5 25.494 0 38.192-2.8 34.293-12.897 67.586-29.594 97.78-26.095 47.291-67.987 85.584-117.177 107.98-78.285 36.192-174.666 31.293-247.952-14.698-38.992-23.795-70.586-57.988-91.382-98.68C10.698 331.585 2.1 299.99 0 267.598v-31.294C4.2 166.617 41.192 100.43 96.281 58.039m221.957 80.284c5.499-.9 10.798-2.4 15.997-4.5 4.999-1.799 9.198-5.898 10.298-11.197-8.999 5-17.997 9.898-26.295 15.697"/></svg>