<svg xmlns="http://www.w3.org/2000/svg" viewBox="0 0 512 512"><!--! Font Awesome Free 7.0.1 by @fontawesome - https://fontawesome.com License - https://fontawesome.com/license/free (Icons: CC BY 4.0, Fonts: SIL OFL 1.1, Code: MIT License) Copyright 2025 Fonticons, Inc.--><path fill="currentColor" d="M125.327 189.489c-1.1 9.994 5.197 19.089 5.197 19.089.7-7.496 2.198-12.793 3.997-16.59.4 10.293 3.198 23.486 12.793 34.08 6.896 7.595 35.579 23.286 54.868 6.096.999 2.399 2.098 5.297 2.998 8.495 2.898 10.294-2.699 25.285-2.699 25.285s15.092-17.09 13.892-32.48c10.794-.5 21.388-8.396 21.088-19.49 0 0-18.89 10.395-35.48-8.794-9.694-11.194-40.875-41.976-83.05-31.782 4.297 1 8.894 2.399 13.491 4.098h-.1c-4.197 1.999-6.496 7.096-6.995 11.993m28.283-1.799c19.489 10.994 37.378 25.685 44.874 36.978-5.697 3.298-21.688 10.394-37.978-1.699-10.294-7.595-9.794-26.184-6.896-35.279m142.017 45.773c-1.2 15.491 13.892 32.481 13.892 32.481s-5.597-14.991-2.699-25.285c.9-3.198 2-5.996 2.998-8.495 19.29 17.29 47.972 1.5 54.768-6.096 9.595-10.594 12.293-23.787 12.793-34.08 1.799 3.797 3.398 9.094 3.998 16.59 0 0 6.396-9.095 5.196-19.089-.6-4.997-2.898-9.994-6.995-11.793h-.1c4.597-1.8 9.194-3.198 13.492-4.098-42.275-10.194-73.357 20.588-83.052 31.782-16.69 19.188-35.479 8.795-35.479 8.795-.2 10.893 10.394 18.888 21.188 19.288m62.663-45.773c2.998 9.095 3.398 27.684-6.996 35.38-16.29 12.092-32.181 4.996-37.878 1.598 7.496-11.393 25.385-25.984 44.874-36.978M223.97 418.555h-29.383c-5.497 0-8.195 1.599-9.494 2.898q-2.85 2.998-.9 8.095c3.498 9.095 11.393 16.49 13.692 18.59 3.098 2.698 7.496 4.297 11.793 4.297 4.398 0 8.295-1.7 10.994-4.597 7.495-8.196 11.893-17.09 12.992-19.789.6-1.499 1.3-4.497-.9-6.796-1.798-1.799-4.697-2.698-8.794-2.698m189.089-101.141c-2.399 17.89-12.992 33.78-24.586 43.674-3.098-22.686-3.697-55.467-3.697-62.363 0-14.691 9.494-24.486 12.192-26.085 2.499-1.499 5.397-2.998 8.296-4.597 17.989-9.594 40.376-21.587 40.376-43.674 0-16.191-9.295-23.187-15.391-27.784-.8-.6-1.5-1.1-2.199-1.7-2.099-1.698-3.698-2.997-4.297-4.397-4.398-9.794-3.598-34.18-1.7-37.578.6-.6 16.69-20.887 11.794-39.177-1.999-7.395-6.896-13.292-14.092-16.99-5.297-2.698-11.893-4.197-19.489-4.497-.1-1.999-.5-3.898-.899-5.897-.6-2.598-1.1-5.296-.9-8.095.4-4.697.8-8.995 2.2-11.293 8.394-13.292 28.782-17.59 28.982-17.59l12.293-2.399-8.095-9.494c-.1-.2-17.29-17.49-46.273-17.49-7.895 0-15.99 1.3-24.086 3.898-24.186 7.795-42.875 30.482-49.371 39.277q-4.647-1.5-9.594-2.698c-4.198-15.791 8.994-38.478 8.994-38.478s-13.592-2.998-33.68 15.191c-2.598-6.496-8.095-20.488-1.799-37.178-29.483 10.394-36.878 26.285-39.077 40.676-7.596-5.397-6.696-23.086-7.196-27.584-7.495.9-29.183 21.888-28.183 48.272-2 .5-3.898 1.1-5.897 1.699-6.496-8.795-25.085-31.482-49.37-39.277-7.896-2.199-15.992-3.498-23.887-3.498-28.983 0-46.073 17.29-46.273 17.49l-8.095 9.394 12.293 2.399c.2 0 20.588 4.297 28.983 17.59 1.399 2.198 1.799 6.596 2.198 11.293.2 2.798-.4 5.497-.899 8.095-.4 1.9-.8 3.898-.9 5.897q-11.542.45-19.488 4.497c-7.196 3.698-12.093 9.595-14.092 16.99-4.997 18.19 11.194 38.478 11.793 39.177 1.9 3.398 2.699 27.784-1.699 37.578-.6 1.4-2.198 2.699-4.297 4.398-.7.5-1.4 1.099-2.199 1.699-6.096 4.597-15.39 11.693-15.39 27.783 0 22.087 22.386 34.08 40.375 43.675 2.999 1.599 5.797 3.098 8.296 4.597 2.698 1.6 12.192 11.393 12.192 26.085 0 6.896-.6 39.677-3.697 62.363-11.594-9.894-22.187-25.885-24.586-43.774 0 0-29.183 22.587-20.588 70.758 5.197 29.483 23.187 46.074 46.973 54.668 8.794 19.09 29.382 45.674 67.26 49.571C206.98 504.305 226.967 512 256.15 512h.2c29.083 0 49.071-7.695 63.563-19.489 37.877-3.897 58.465-30.482 67.26-49.57 23.786-8.695 41.676-25.186 46.973-54.669 8.195-48.371-21.088-70.858-21.088-70.858M369.583 37.978c5.597-1.8 11.594-2.699 17.69-2.699 10.994 0 19.888 2.999 24.686 4.997-3.099 1.4-6.397 3.199-9.695 5.297-2.398-.4-5.596-.8-9.194-.8-10.494 0-20.488 3.099-28.684 8.896-12.292 8.694-17.989 16.89-20.687 22.386a78 78 0 0 0-7.096-3.697c-1.6-.8-3.098-1.5-4.697-2.2 6.096-9.094 19.888-26.484 37.677-32.18m20.988 18.19c-.8.999-1.599 2.098-2.299 3.197-3.298 5.197-3.897 11.593-4.397 17.79-.5 6.396-1.1 12.492-4.397 16.99-4.198.8-8.096 1.699-11.494 2.698-2.298-3.098-5.596-6.996-10.493-11.193 1.399-4.797 5.496-16.09 13.492-22.487 5.596-4.297 12.192-6.696 19.588-6.996M109.636 45.572c-3.298-2.198-6.596-3.997-9.695-5.297 4.798-1.998 13.692-4.997 24.686-4.997q9.144 0 17.69 2.699c17.79 5.796 31.581 23.186 37.678 32.08-1.6.7-3.199 1.4-4.798 2.2-2.498 1.199-4.897 2.498-7.095 3.697-2.599-5.396-8.296-13.691-20.688-22.386-8.296-5.797-18.19-8.895-28.784-8.895-3.398.1-6.596.5-8.994.9M154.31 85.65c-4.898 4.197-8.296 7.995-10.494 11.193-3.398-.9-7.296-1.899-11.494-2.698-3.298-4.398-3.797-10.494-4.297-16.89-.5-6.197-1.1-12.593-4.397-17.79-.7-1.1-1.5-2.199-2.3-3.198 7.397.3 13.993 2.599 19.49 6.996 7.995 6.296 12.092 17.59 13.492 22.387m-32.182 174.398c-2.698-1.6-5.596-3.099-8.395-4.598-14.89-7.995-30.182-16.29-30.182-30.482 0-11.093 4.298-14.591 8.895-18.19l.5-.399c.7-.6 1.399-1.2 2.198-1.799-.9 7.196-1.899 13.292-2.698 14.891 0 0 12.093-14.99 15.69-44.274 1.4-11.493-1.099-34.28-5.096-42.974.2 4.897 0 9.794-.3 14.391-.4-.8-.8-1.599-1.3-2.199-3.198-3.997-11.793-17.49-9.394-26.584.9-3.498 3.098-5.997 6.696-7.795 3.798-1.9 8.795-2.899 15.091-2.899 12.293 0 25.885 3.698 32.881 5.997 25.085 7.995 55.368 30.882 64.062 37.678.2.2.4.3.4.3l5.597 3.897-3.498-5.796c-.2-.3-19.089-31.382-53.169-46.473 1.999-2.899 7.396-8.095 21.588-15.091 21.387-10.494 46.472-15.791 74.256-15.791 27.884 0 52.87 5.297 74.257 15.79 14.191 6.897 19.588 12.193 21.587 15.092-33.98 15.091-52.87 46.173-53.069 46.473l-3.498 5.796 5.597-3.898s.2-.1.4-.3c8.694-6.795 38.977-29.782 64.062-37.677 6.996-2.199 20.588-5.997 32.88-5.997 6.297 0 11.294 1 15.092 2.899 3.498 1.798 5.697 4.397 6.696 7.795 2.498 9.095-6.096 22.587-9.395 26.584-.5.6-.899 1.3-1.299 2.2-.3-4.598-.5-9.495-.3-14.392-3.997 8.794-6.496 31.481-5.097 42.974 3.598 29.283 15.691 44.274 15.691 44.274-.8-1.599-1.799-7.695-2.698-14.89.7.599 1.499 1.198 2.198 1.798l.5.4c4.597 3.698 8.895 7.096 8.895 18.19 0 14.19-15.391 22.486-30.182 30.481-2.899 1.5-5.697 3.099-8.395 4.598-8.695 4.997-17.99 16.69-19.09 34.18-.899 14.591.9 49.87 3.399 75.855-12.393 4.797-26.685 6.396-39.677 6.796-1.999-4.097-3.898-8.495-5.497-13.092-.7-1.999-19.588-51.07-26.384-62.164 5.496 38.977 17.49 73.657 23.486 89.548-3.498-.5-7.296-.7-11.693-.7H197.484c-4.397 0-8.295.3-11.693.7 5.997-15.89 18.09-50.57 23.486-89.548-6.796 11.194-25.685 60.265-26.384 62.164-1.6 4.597-3.498 8.995-5.497 13.092-12.992-.4-27.184-1.999-39.677-6.796 2.499-25.985 4.298-61.164 3.398-75.855-.9-17.39-10.294-29.183-18.989-34.18M98.842 404.663c-12.093-19.988-8.695-54.068-3.698-59.065 10.894 34.38 47.173 44.274 74.357 45.373-2.699 4.197-5.197 7.595-6.996 9.994l-1.4 1.4c-7.195 7.795-8.594 18.488-4.097 31.78-22.687-.1-46.273-9.794-58.166-29.482m45.673 43.474a181 181 0 0 0 18.59 2.399c3.497 7.995 7.395 15.89 12.292 23.086-14.391-5.896-24.385-15.99-30.882-25.485m111.435 50.071c-60.564-.1-78.254-45.773-84.85-64.662q-5.547-15.741.9-23.087c2.898-3.298 9.494-7.195 24.585-7.195h118.73c15.091 0 21.787 3.897 24.586 7.195 4.197 4.798 4.497 12.593.9 23.087-6.597 18.789-24.286 64.562-84.851 64.662m80.553-24.586c4.897-7.195 8.795-15.09 12.293-23.086a181 181 0 0 0 18.589-2.399c-6.496 9.495-16.49 19.589-30.882 25.485m76.555-68.96c-11.993 19.69-35.58 29.284-58.066 29.684 4.497-13.293 3.098-24.086-4.098-31.782-.4-.5-.9-1-1.399-1.499-1.799-2.399-4.297-5.797-6.996-9.994 27.184-1.2 63.463-10.994 74.357-45.374 4.997 4.998 8.395 39.078-3.798 58.966M255.85 187.89h.2c12.693-.1 27.184-17.79 27.184-17.79-9.894 5.997-18.789 8.096-27.284 8.295-8.495-.2-17.39-2.298-27.284-8.295 0 0 14.492 17.59 27.184 17.79m61.664 230.565h-29.383c-4.197 0-7.196.9-8.895 2.698-2.198 2.299-1.499 5.197-.9 6.696 1 2.599 5.498 11.294 12.993 19.289 2.699 2.898 6.596 4.497 10.994 4.497s8.695-1.599 11.793-4.197c2.299-1.999 10.194-9.195 13.692-18.09 1.3-3.298 1-5.996-.9-7.895-1.299-1.3-3.997-2.898-9.394-2.998"/></svg>