<svg xmlns="http://www.w3.org/2000/svg" viewBox="0 0 512 512"><!--! Font Awesome Free 7.0.1 by @fontawesome - https://fontawesome.com License - https://fontawesome.com/license/free (Icons: CC BY 4.0, Fonts: SIL OFL 1.1, Code: MIT License) Copyright 2025 Fonticons, Inc.--><path fill="currentColor" d="M341.6 268.571c-8.457-4.8-18.057-7.2-27.886-7.085-15.085 0-27.885 5.028-38.171 15.2C265.257 286.857 260 299.543 260 314.857c0 16.114 5.029 29.257 15.2 39.543s22.857 15.314 38.171 15.314c15.658 0 28.572-5.257 38.972-15.771S368 330.4 368 314.857c0-9.371-2.4-18.628-6.971-26.857-4.572-8.114-11.2-14.857-19.429-19.429M0 0v512h512V0zm428.229 426.629h-60.686v-27.315h-.8c-12 20-33.257 29.943-63.772 29.943-21.028 0-39.657-5.028-55.885-14.971a100.6 100.6 0 0 1-37.6-40.915c-8.8-17.257-13.257-36.685-13.257-58.171 0-21.029 4.457-40.114 13.485-57.371a103.7 103.7 0 0 1 37.6-40.915c16.115-9.943 34.286-14.971 54.515-14.971 11.657-.114 23.085 1.828 33.942 5.943 10.172 4 19.658 10.4 28.572 19.428v-89.028l63.771-13.829V426.63z"/></svg>