<svg xmlns="http://www.w3.org/2000/svg" viewBox="0 0 512 512"><!--! Font Awesome Free 7.0.1 by @fontawesome - https://fontawesome.com License - https://fontawesome.com/license/free (Icons: CC BY 4.0, Fonts: SIL OFL 1.1, Code: MIT License) Copyright 2025 Fonticons, Inc.--><path fill="currentColor" d="M222.465 203.383c-2.057 3.77-28.794 50.732-80.097 141.112-5.599 9.483-12.34 14.282-20.224 14.282H47.761c-8.798 0-13.826-8.57-9.712-16.453l78.84-138.598q.342 0 0-.343l-50.161-86.38c-4.913-8.913.343-16.111 9.712-16.111h74.383c8.341 0 15.197 4.684 20.567 13.94zM473.723 16.111 309.188 305.189v.343L413.85 495.889c4.457 8.113.229 16.111-9.712 16.111h-74.497c-8.684 0-15.54-4.57-20.567-13.94L203.497 305.532c3.771-6.627 58.844-103.748 165.45-291.592C374.201 4.685 380.828 0 388.941 0h75.069c9.14 0 14.054 7.655 9.712 16.11"/></svg>