<svg xmlns="http://www.w3.org/2000/svg" viewBox="0 0 512 512"><!--! Font Awesome Free 7.0.1 by @fontawesome - https://fontawesome.com License - https://fontawesome.com/license/free (Icons: CC BY 4.0, Fonts: SIL OFL 1.1, Code: MIT License) Copyright 2025 Fonticons, Inc.--><path fill="currentColor" d="M365.714 512H146.286C65.829 512 0 446.171 0 365.714V146.286C0 65.829 65.829 0 146.286 0h219.428C446.171 0 512 65.829 512 146.286v219.428C512 446.171 446.171 512 365.714 512M221.03 275.657c-6.972-2.286-13.258-3.543-18.743-3.543-8.229 0-15.429 2.172-21.6 6.4-6.172 4.229-10.972 10.286-14.629 18.057H164.8l-4.8-20.914h-32V434.4h41.257V331.886q2.572-9.258 9.943-15.086c4.914-3.886 11.2-5.829 18.514-5.829 5.257 0 11.2 1.143 17.829 3.543zM352.686 393.83c-3.657 2.742-8.8 5.485-15.657 8.114-6.858 2.628-14.629 4-23.315 4-13.943 0-24.114-3.429-30.285-10.172q-9.43-10.114-10.286-30.171h95.2c1.028-5.486 1.828-10.743 2.4-15.886.571-5.028.8-9.828.8-14.285 0-12.229-1.829-22.515-5.372-30.743-3.657-8.229-8.342-14.857-14.285-19.657-5.943-4.915-12.686-8.343-20.343-10.515-7.657-2.057-15.429-3.2-23.543-3.2q-36.171 0-56.229 20.915c-13.371 13.942-20 34.857-20 62.857q0 39.086 17.829 61.371c11.886 14.972 30.629 22.4 56.229 22.4 12.228 0 23.885-1.714 34.742-5.257 10.858-3.543 19.543-7.771 25.829-12.8zm-24.915-80.343c4.343 6.171 6.058 14.971 5.258 26.4h-59.086c1.028-10.743 4.228-19.429 9.371-25.829s13.143-9.714 24-9.714c9.372-.114 16.115 2.971 20.457 9.143m91.315 2.857c4.685 4.457 10.743 6.628 18.4 6.628 8 0 14.4-2.171 19.085-6.628s6.972-10.4 6.972-17.829c0-7.428-2.286-13.257-6.972-17.6-4.685-4.343-10.971-6.514-19.085-6.514-7.657 0-13.715 2.171-18.4 6.514-4.686 4.343-6.972 10.172-6.972 17.6s2.286 13.372 6.972 17.829m0 114.857c4.685 4.457 10.743 6.629 18.4 6.629 8 0 14.4-2.172 19.085-6.629s6.972-10.4 6.972-17.829c0-7.428-2.286-13.257-6.972-17.6-4.685-4.342-10.971-6.514-19.085-6.514-7.657 0-13.715 2.172-18.4 6.514-4.686 4.343-6.972 10.172-6.972 17.6 0 7.543 2.286 13.372 6.972 17.829"/></svg>