<svg xmlns="http://www.w3.org/2000/svg" viewBox="0 0 512 512"><!--! Font Awesome Free 7.0.1 by @fontawesome - https://fontawesome.com License - https://fontawesome.com/license/free (Icons: CC BY 4.0, Fonts: SIL OFL 1.1, Code: MIT License) Copyright 2025 Fonticons, Inc.--><path fill="currentColor" d="M105.257 254.4c0 28.457 8 56.229 23.086 80.114l3.543 5.715-15.2 55.542 57.028-14.971 5.486 3.314c23.086 13.715 49.6 21.029 76.686 21.029H256c82.971 0 152.343-67.543 152.343-150.629 0-40.228-17.372-78.057-45.829-106.514-28.571-28.571-66.285-44.229-106.514-44.229-83.086 0-150.629 67.543-150.743 150.629m208.8 86.171c-14.4 2.172-25.6 1.029-54.286-11.314-42.057-18.171-70.628-58.857-76.457-67.086-.457-.685-.8-1.028-.914-1.257-2.286-2.971-18.514-24.571-18.514-46.857 0-21.028 10.285-31.886 15.085-36.914.343-.343.572-.572.8-.914 4.115-4.572 9.029-5.715 12.115-5.715 2.971 0 6.057 0 8.685.115h.915c2.628 0 5.943 0 9.257 7.771 1.371 3.314 3.428 8.343 5.6 13.486 3.771 9.143 7.657 18.628 8.343 20.114 1.143 2.286 1.943 4.914.343 7.886-3.886 7.771-7.886 11.885-10.629 14.857-3.543 3.657-5.143 5.371-2.629 9.828 17.486 30.058 34.972 40.458 61.6 53.829 4.572 2.286 7.2 1.943 9.829-1.143 2.629-2.971 11.314-13.257 14.286-17.714 2.971-4.572 6.057-3.772 10.171-2.286s26.4 12.457 30.972 14.743c.914.457 1.714.8 2.4 1.143 3.2 1.6 5.371 2.628 6.285 4.114 1.029 2.172 1.029 11.314-2.743 21.829-3.771 10.628-21.828 20.228-30.514 21.485M512 73.143C512 32.8 479.2 0 438.857 0H73.143C32.8 0 0 32.8 0 73.143v365.714C0 479.2 32.8 512 73.143 512h365.714C479.2 512 512 479.2 512 438.857zM169.257 413.6l-96.114 25.257 25.714-93.943c-15.886-27.428-24.228-58.628-24.228-90.628C74.743 154.4 156 73.143 255.886 73.143c48.457 0 93.943 18.857 128.228 53.143 34.172 34.285 54.743 79.771 54.743 128.228 0 99.886-83.086 181.143-182.971 181.143-30.4 0-60.229-7.657-86.629-22.057"/></svg>