<svg xmlns="http://www.w3.org/2000/svg" viewBox="0 0 512 512"><!--! Font Awesome Free 7.0.1 by @fontawesome - https://fontawesome.com License - https://fontawesome.com/license/free (Icons: CC BY 4.0, Fonts: SIL OFL 1.1, Code: MIT License) Copyright 2025 Fonticons, Inc.--><path fill="currentColor" d="M114.629 512H8.457V170.171H114.63zM61.486 123.543C27.543 123.543 0 95.429 0 61.486 0 45.143 6.514 29.6 18.057 18.057S45.257 0 61.486 0c16.228 0 31.885 6.514 43.428 18.057s18.057 27.2 18.057 43.429c0 33.943-27.542 62.057-61.485 62.057M511.886 512H405.943V345.6c0-39.657-.8-90.514-55.2-90.514-55.2 0-63.657 43.085-63.657 87.657V512H181.029V170.171h101.828V216.8h1.486c14.171-26.857 48.8-55.2 100.457-55.2 107.429 0 127.2 70.743 127.2 162.629V512z"/></svg>