<svg xmlns="http://www.w3.org/2000/svg" viewBox="0 0 512 512"><!--! Font Awesome Free 7.0.1 by @fontawesome - https://fontawesome.com License - https://fontawesome.com/license/free (Icons: CC BY 4.0, Fonts: SIL OFL 1.1, Code: MIT License) Copyright 2025 Fonticons, Inc.--><path fill="currentColor" d="M440.98 226.834c26.46.197 35.018-7.279 38.264-12.197 12.296-16.034-6.984-46.823-51.938-70.136 17.51-33.051 29.609-62.66 35.707-83.907 3.345-11.607 1.082-18.69.492-19.968-1.672 10.328-15.542 47.708-47.413 98.367-24.592-11.018-55.577-19.772-92.268-23.412-8.755-16.624-34.33-62.856-59.512-87.448-16.526-16.23-29.805-22.231-40.134-23.116-13.574-1.574-22.329 5.705-26.952 10.82-16.92 18.198-23.903 48.102-24.592 82.727-7.082-12.1-16.92-24.199-28.035-25.477h-.196c-20.362-3.443-37.773 28.723-35.412 79.972-37.773 1.377-69.841 5.705-91.482 11.017-9.738 2.36-15.935 7.18-17.509 9.542.984-.394 22.034-9.05 109.778-9.05 5.115 52.134 29.313 100.137 25.575 91.678-9.542 15.148-37.576 61.38-46.528 96.104-5.803 22.526-4.328 36.986.197 46.331 5.509 12.591 16.132 16.428 22.821 18.001 24.592 5.607 54.496-3.54 85.284-20.755-7.377 12.591-13.673 28.035-8.951 38.658 7.18 19.28 43.773 18.395 86.956-9.246 19.87 31.674 39.446 56.954 54.79 72.89 2.558 2.754 5.41 5.115 8.657 6.984 5.017 3.147 8.46 3.344 8.46 3.344-8.066-6.59-33.445-37.38-61.48-90.3 21.838-15.74 44.954-38.265 66.398-68.169 120.795 4.525 140.96-24.395 145.583-31.084 14.46-19.575 3.345-56.463-56.364-92.17zM364.45 331.3c23.41-37.084 29.805-66.693 28.92-90.793 27.444 17.313 46.429 36.986 48.298 57.84 1.082 12.69-7.968 28.625-77.218 32.953m-151.387 54.987c9.64-6.099 19.181-12.886 28.723-20.165 6.59 13.083 13.378 25.674 20.264 37.576-39.937 21.542-67.677 12.591-48.987-17.411m211.489-168.503c-10.132-5.213-20.854-10.131-31.871-14.755 7.77-11.902 15.247-24.001 22.33-36.297 38.46 23.706 45.15 52.331 9.442 51.052zM274.345 396.42c-5.41-11.214-10.82-23.116-16.23-35.806 42.494 1.279 61.38-18.394 62.266-20.067 0 .099-24.592 15.346-61.48 12.001 30.101-25.182 58.136-52.823 83.711-82.628a641 641 0 0 0 24.493-30.592c-.393-.295-1.475-2.951-16.23-11.804-50.856 59.315-100.63 96.4-130.631 114.007-20.264-11.017-40.134-31.28-54.79-60.496-19.674-39.248-29.51-81.054-31.085-114.204 12.1.886 24.887 2.164 38.167 3.837-21.936 36.199-14.165 61.97-13.28 63.151 0-.098-.984-28.723 19.772-58.626a682.8 682.8 0 0 0 43.97 150.304c.885-.393 1.77.886 18.395-8.066-25.871-73.283-33.249-135.943-33.445-170.568 19.673-12.198 47.413-19.477 80.267-17.51 43.872 2.656 84.99 14.952 114.4 30.2-6.983 10.23-14.656 20.951-22.919 31.968-20.362-37.084-46.527-43.183-48.101-42.986.098 0 25.477 13.87 40.822 46.43A699 699 0 0 0 259 163.78a646 646 0 0 0-38.756-5.902c-.099.393-1.771 1.77-2.164 19.968 76.627 14.264 134.369 39.249 164.47 56.266.688 23.215-6.887 50.758-24.986 78.3-24.198 36.691-55.48 66.103-83.415 84.006zm26.953-282.313c-43.872-1.673-72.398 7.279-93.154 20.362 1.968-51.446 20.953-75.153 37.577-74.07 16.624-4.132 54.003 51.347 55.577 53.708m-128.566 3.049c.492 11.902 1.574 24.198 3.148 36.69a677 677 0 0 0-41.707-1.278c-.099 3.148-.099-50.167 24.296-48.79h.099c5.705 1.082 10.426 6.787 14.164 13.378m-27.64 159.355c20.46 39.051 42.592 59.61 64.233 71.119-46.036 24.395-76.235 19.673-83.514 4.426-.196-.196-10.918-15.05 19.379-75.545z"/></svg>