<svg xmlns="http://www.w3.org/2000/svg" viewBox="0 0 512 512"><!--! Font Awesome Free 7.0.1 by @fontawesome - https://fontawesome.com License - https://fontawesome.com/license/free (Icons: CC BY 4.0, Fonts: SIL OFL 1.1, Code: MIT License) Copyright 2025 Fonticons, Inc.--><path fill="currentColor" d="M256 0C114.58 0 0 114.58 0 256s114.58 256 256 256 256-114.58 256-256S397.42 0 256 0m103.948 376.671c-4.335 0-7.019-1.342-11.045-3.716-64.413-38.813-139.355-40.465-213.368-25.29-4.025 1.032-9.29 2.683-12.283 2.683-10.013 0-16.31-7.948-16.31-16.31 0-10.632 6.297-15.69 14.039-17.341 84.542-18.684 170.942-17.032 244.645 27.045 6.297 4.026 10.013 7.639 10.013 17.032s-7.33 15.897-15.69 15.897m27.768-67.716c-5.368 0-8.98-2.374-12.697-4.336-64.516-38.193-160.722-53.574-246.296-30.348-4.955 1.342-7.64 2.684-12.284 2.684-11.045 0-20.026-8.98-20.026-20.026s5.368-18.374 16-21.368c28.697-8.051 58.013-14.038 100.955-14.038 66.993 0 131.716 16.619 182.71 46.967 8.36 4.955 11.664 11.355 11.664 20.336-.103 11.148-8.774 20.129-20.026 20.129m32-78.658c-5.368 0-8.67-1.342-13.316-4.026-73.497-43.871-204.903-54.4-289.961-30.658-3.716 1.032-8.362 2.684-13.316 2.684-13.626 0-24.052-10.632-24.052-24.362 0-14.038 8.67-21.987 17.961-24.67 36.336-10.633 77.007-15.69 121.29-15.69 75.355 0 154.323 15.69 212.026 49.341 8.052 4.645 13.317 11.045 13.317 23.33 0 14.038-11.355 24.05-23.949 24.05"/></svg>