<svg xmlns="http://www.w3.org/2000/svg" viewBox="0 0 512 512"><!--! Font Awesome Free 7.0.1 by @fontawesome - https://fontawesome.com License - https://fontawesome.com/license/free (Icons: CC BY 4.0, Fonts: SIL OFL 1.1, Code: MIT License) Copyright 2025 Fonticons, Inc.--><path fill="currentColor" d="M175.54 327.63c-1.518 1.12-8.868 6.712-.24 18.857 3.676 5.113 11.267 10.227 17.34 5.273 5.193-3.915 5.912-10.307.239-18.377-4.395-6.232-11.426-10.307-17.338-5.673zm269.104 60.645c-.24 1.358-.48 1.358.64 0 1.677-3.356 3.355-8.15 3.994-15.9 2.477-30.762-32.2-57.13-80.938-62.323-43.706-4.794-99.396 7.351-150.852 48.34l-.24 1.278c2.078 3.995 3.995 8.55 2.717 16.94l.64.239c51.055-46.662 104.828-61.683 147.335-58.966 46.662 2.956 79.9 27.166 79.9 54.412 0 7.99-2.077 12.544-3.116 16.14zm-130.796-144.78c.639 5.674 3.355 8.15 7.35 8.39 4.395.24 7.511-2.077 8.39-5.273.64-2.717 1.678-23.81 1.678-23.81s-9.029 5.193-11.985 8.389c-2.956 2.956-5.833 6.712-5.433 12.385zm-39.95-120.728c-163.396 0-263.032 109.862-272.86 121.368-.798.4-1.038.639.64 1.039 48.34 13.183 124.484 64.878 156.684 161.558l.799.24c44.105-55.85 112.58-102.353 189.363-102.353 64.64 0 104.03 33.718 104.03 64.24 0 14.622-5.273 26.766-17.817 36.994 0 .799-.16.639.639.639 11.745-8.55 21.972-23.011 21.972-38.512 0-18.217-9.668-30.522-9.668-30.522 5.673 5.673 8.55 12.944 8.55 12.944 4.634-32.68 21.573-49.778 21.573-49.778-1.918-7.75-5.433-14.222-5.433-14.222 6.072 6.472 11.505 21.973 11.505 33.079 0 8.39-2.716 18.217-10.067 25.488l.24.4c6.471-3.996 13.183-13.424 13.183-30.363 0-12.544-3.755-20.694-3.755-20.694 4.634-4.155 9.028-7.35 12.784-9.428.639 2.716 1.678 7.75 1.917 11.905 0 .799.64 1.438.8 0 .638-4.634-.24-12.944-.24-13.184 4.794-2.476 7.75-3.595 7.75-3.595-12.544-88.13-115.056-157.323-232.67-157.323zm-79.341 231.39c-8.87 7.191-19.336 3.276-24.45-3.356-5.912-7.67-5.433-19.255 3.356-25.967 11.825-9.109 21.653-.4 24.929 4.394.24.32 9.668 13.264-3.755 24.93zm1.678-108.983 7.51-14.223 9.429 56.73-10.068 4.793-19.655-23.01 11.266-21.334 2.956 3.515zm14.861 93.962-.24-.24c1.598-3.276-1.997-5.273-13.982-25.328-1.039-1.918-2.477-2.317-3.516-2.077l-.24-.4c6.313-4.634 12.305-8.15 20.295-12.544l.4.24c1.038 1.438 1.678 2.317 2.716 3.755l-.24.4c-.798-.24-1.917-.64-4.154.239-1.678.64-6.312 2.956-9.828 6.072v1.04c1.279 1.917 3.116 5.273 4.634 7.75h.24c7.99-5.034 6.072-3.596 9.189-6.313h.24c.399 1.439.399 1.439 1.437 4.395l-.24.24c-2.476.479-3.755.24-9.188 4.394v.24c7.59 13.583 8.79 13.423 10.068 12.784l.24.24c-1.838 1.278-5.034 3.355-7.751 5.273zm44.185-25.967c-2.477 1.278-4.794 2.317-7.99 3.995l-.24-.24c1.039-2.078.959-2.157-9.428-25.968l-.24-.24c-.16 0-7.11 2.957-7.99 5.833h-.4l-.798-4.634.24-.4c5.832-3.675 20.374-9.268 22.212-10.067l.4.24 2.476 3.995-.24.4c-2.796-1.439-5.912.639-9.827 2.077v.24c9.827 25.568 10.147 24.449 11.745 24.449v.16zm35.795-13.184c-3.356.799-4.155 1.039-7.75 2.317l-.24-.24.4-3.595c-.8-2.717-2.477-9.189-2.957-10.867l-.24-.24c-2.716.64-7.11 2.078-10.227 3.117l-.24.24c.64 2.077 2.478 7.91 3.357 11.106.639 1.917 1.438 2.317 2.317 2.477v.4c-2.957.798-5.673 2.077-8.15 3.115l-.24-.24c.8-1.038.8-2.317.24-3.994-.8-2.477-6.472-19.017-7.351-21.733-.4-1.439-1.278-2.477-2.077-2.477v-.4c2.477-.799 4.794-1.678 8.549-2.716l.24.24-.24 3.755c1.039 3.116 1.918 6.072 2.477 7.75h.24c3.116-1.039 7.51-2.317 10.227-3.116l.24-.24-2.078-7.51c-.4-1.439-.799-2.717-2.077-3.117v-.24c3.515-.798 5.832-1.437 8.549-1.917l.24.24c-.8 1.039-.8 2.317-.4 3.515 1.279 5.034 3.755 16.3 5.034 21.174.4 2.077 1.438 2.717 2.077 3.116zm25.728-5.433-.24.24c-3.755.399-11.266 1.917-17.977 3.355l-.24-.24.64-3.355c-1.28-6.312-2.717-14.862-3.996-20.934-.24-1.438-.639-2.317-2.077-2.956l.64-.4c7.35-1.278 16.139-1.917 19.894-2.077l.24.24c.4 1.917.64 2.476 1.278 4.394l-.24.24c-.878-.88-2.636-2.557-12.943-.64l-.24.24c.24 1.279.8 5.274 1.278 7.91l.24.24c7.59-1.358 3.835-.08 8.55-1.918h.24c0 1.279-.24 1.439-.24 4.155h-.24c-3.835-.799-1.758-.719-8.15 0l-.24.24c.24 1.678 1.279 7.51 1.678 10.067l.24.24c.959.32 11.346-.48 12.944-3.755h.24a41 41 0 0 1-1.279 4.794zm8.55-35.556c-3.596 1.918-6.473 2.317-8.79 2.317-.16 0-9.108.88-13.982-7.99-5.354-8.629-.8-20.134 4.394-25.328 7.031-6.472 18.697-8.07 22.772-13.583 6.392-8.23-10.387-17.818-23.65-4.634l-2.078-2.317 4.155-12.944c20.454-1.279 36.115-2.397 39.95 12.944.639 2.477 0 7.51-.24 9.668 0 2.077-1.438 15.02-1.678 18.377-.4 3.355-.639 14.621-.639 16.539.24 1.918.4 3.356 1.278 4.394 1.279 1.439 4.635 1.439 4.635 1.439l-.64 3.755c-9.428-.879-8.23-.48-16.3-.799-2.556-4.075-1.757-2.637-3.355-6.312 0 0-3.356 3.116-5.833 4.394zm29.722 16.94c-5.113-8.47-15.82-5.754-17.338 4.394-2.078 13.663 11.426 15.82 16.54 8.15l.239.24c-.4 1.437-1.438 4.793-1.438 5.033l-.4.4c-8.23 5.512-22.771-1.998-20.534-14.862 1.518-8.71 11.505-15.101 23.011-7.91l.24.4c0 .878-.24 2.716-.24 4.234zm4.634-70.073v-5.274c.56 0 15.66 2.637 22.213 5.833l-1.279 13.982s8.15-7.51 12.305-8.549c4.155-1.278 11.905 5.833 11.905 5.833l-9.029 9.029c-9.668-5.114-15.66-.08-16.54.639-4.234 30.921-6.87 33.718 3.516 36.834l-.399 3.755c-14.062-3.436-14.782-3.595-29.483-5.833l.64-3.755c5.832 0 5.992-4.235 6.071-5.433 0 0 3.995-42.507 3.995-44.185 0-2.317-3.995-2.956-3.995-2.956zm8.79 91.405c-6.473-1.677-11.267-8.789-8.55-16.539 2.477-7.51 9.828-9.828 15.101-8.15 7.351 2.078 10.227 9.428 8.55 15.5-2.078 7.112-7.511 11.107-15.102 9.19m33.717 7.75c-1.917-.399-5.673-1.917-6.871-2.316v-.24l1.278-1.438c.48-6.552.48-5.833.24-6.073-3.835-1.438-5.353-1.917-5.673-1.917-1.039 1.438-2.317 3.595-2.956 4.394l-.64 2.717v.24c-1.038-.24-3.116-1.04-4.794-1.279v-.24l2.078-1.438c2.717-3.755 7.99-11.266 11.106-16.14v-1.678l.4-.24c1.677.64 4.394 1.679 6.072 2.318.4.4.16-1.518-.8 20.055-.159 1.438 0 2.077.64 3.116zm-3.755-71.75c9.029-14.621 24.61-12.943 27.166-2.716l6.072-20.934c1.838-4.954-2.237-7.91-3.595-9.029l1.438-2.956c9.748 8.31 13.104 11.186 17.978 16.3-20.695 58.407-24.61 64.559-19.656 67.355l-1.438 3.516c-5.114-2.637-7.111-3.516-14.222-6.871l1.678-5.434c-.24-.24-3.116 3.116-7.75 2.957-15.262-1.039-18.298-25.329-7.751-42.267zm23.41 63.361c0-4.554-5.033-6.312-6.311-4.155-1.04 1.678.799 3.995 2.317 6.712 1.278 2.077 2.077 5.034.799 7.51-2.078 5.034-9.908 4.235-12.305-.639 0-.559-.24.08 1.438-3.755l.64-.24c-.48 4.555 4.873 7.67 6.711 3.995.799-1.677-.4-4.394-1.678-6.711-1.278-2.078-2.956-5.034-1.438-7.75 2.157-4.075 9.029-3.596 11.745 1.917v.4zm16.94 10.707c-1.599-2.637-.72-1.678-3.596-3.755h-.24a255 255 0 0 0-6.871 12.943c-1.039 1.918-.8 2.717-.64 3.116l-.239.24-4.634-3.515.24-.24 1.677-1.039c2.477-4.634 5.274-9.668 7.351-13.583v-.24c-2.077-1.598-.959-1.198-4.794-1.438v-.24l2.477-2.716h.24c2.956 1.918 7.99 5.433 9.827 7.111l.24.24zm21.652-35.396-2.317-2.317c.64-1.918 1.439-3.995 1.678-6.072.56-7.75-9.188-9.429-9.188-3.995 0 3.995 6.312 15.5 6.312 22.212 0 8.15-4.634 12.544-11.106 13.183-6.712.64-16.14-8.39-16.14-8.39l3.995-11.505 2.317 1.678c-2.397 14.222 14.142 16.3 10.627 4.155-.88-3.196-14.942-27.326 1.678-30.522 10.866-1.918 18.377 13.184 18.377 13.184zm28.445-8.15c-8.79-24.29-48.34-101.872-153.408-103.55-42.667-.8-75.346 12.304-106.108 30.362l68.395-7.351-73.029 16.54 20.055 15.66-3.116-13.184c5.992-1.358 31.24-6.791 53.373-7.11l-17.818 64.239c10.867-.56 15.181-7.191 15.66-18.217l3.996-.8.24 21.334c-17.978 2.557-29.803 5.353-39.551 7.91l10.467-34.517-49.139-29.323 1.918 6.472 8.15 3.995c5.033 14.861 15.5 45.223 16.3 46.901 1.597 3.436 2.556 4.634 9.587 3.596l.88 3.995c-12.865 3.915-18.937 6.072-31.162 11.505l-1.917-3.755c3.515-2.317 6.951-3.116 4.394-10.227-18.936-49.938-17.178-46.422-18.217-47.461l1.918-3.516 26.766 53.773c-3.036-9.508 1.358 1.358-26.367-62.961l-33.478 70.711 3.755-11.106-28.684-33.717 22.212 74.706-9.428 6.712c-89.408-81.259-84.534-78.622-90.846-78.862-4.395-.24-10.867 4.395-10.867 4.395l-3.995-4.794c24.45-18.777 25.249-19.416 46.662-34.118l3.356 5.673s-4.635 3.356-6.312 5.673c-4.715 7.431 1.358 10.627 49.378 60.485l-15.021-47.061 31.8-8.15 20.534 24.45 3.516-9.829-3.995-19.655 10.467-2.717.4 2.477 2.956-8.39-75.346 23.412 9.028-3.995-10.866-33.878 13.823-7.351 24.05 28.844 22.771-10.467c-1.118-5.992-1.997-11.585-3.755-15.66l13.823 11.106 3.755-1.678-47.301-34.117 18.457 9.188c15.181-4.874 20.135-5.992 25.728-7.75l2.077 8.789c-10.067 10.067 1.119 13.423 5.194 15.5l-10.867-48.739 9.588 22.612c3.356-1.039 5.833-1.678 5.833-1.678l2.077 6.872s-2.476.799-5.033 1.677l7.11 16.78 27.007-52.495-16.54 48.74c33.878-19.257 65.04-29.324 105.469-28.685 53.533.799 133.673 32.6 159.64 111.7.64 1.678 0 2.078-.639.24zm-325.993-90.606s1.439-.4 3.356-1.04l7.51 6.073c-.319 0-2.716-.24-9.028 1.918l-1.918-6.872zm114.897 30.761c-1.279-.48-21.174-3.835-26.607 16.54l17.338 13.582 9.189-30.122zM254.8 105.03c-46.661 0-84.774 9.588-91.885 11.505v.64c6.712 1.677 11.506 3.355 16.94 9.428l1.278.24c5.273-1.439 39.15-11.107 88.05-11.107 143.98 0 241.058 93.324 241.058 178.497v7.99c0 1.039.64 2.078.88.4.399-1.678.638-6.872.638-15.66.24-66.957-77.183-181.853-256.959-181.853zm168.67 135.59c1.038-4.634 0-9.827-5.833-10.467-7.67-.879-12.864 19.017-13.583 26.767-.64 4.394-1.039 11.905 4.794 11.905 3.755 0 7.75-.72 14.622-28.285zm-49.139 34.277c-2.077-.639-7.51-.639-10.067 8.39-1.439 5.433.4 10.707 4.794 11.745 2.956.88 7.11.4 9.428-8.55 2.077-7.91-1.438-10.866-4.155-11.505zm18.377 16.78c1.438.399 2.477.798 4.634 1.438 0-1.439.4-6.712.64-9.668-.8 1.038-4.395 6.472-5.274 7.99z"/></svg>