<svg xmlns="http://www.w3.org/2000/svg" viewBox="0 0 512 512"><!--! Font Awesome Free 7.0.1 by @fontawesome - https://fontawesome.com License - https://fontawesome.com/license/free (Icons: CC BY 4.0, Fonts: SIL OFL 1.1, Code: MIT License) Copyright 2025 Fonticons, Inc.--><path fill="currentColor" d="M342.743 181.943c5.828 42.628-5.372 90.286-41.029 115.086-25.485 17.714-60.343 16.114-80.914 6.514-42.4-19.772-56.571-66.972-53.486-111.086 4.915-69.6 46.743-100.457 86.057-100 53.6-.228 82.058 36.343 89.372 89.486M512 64v384c0 35.314-28.686 64-64 64H64c-35.314 0-64-28.686-64-64V64C0 28.686 28.686 0 64 0h384c35.314 0 64 28.686 64 64M377.143 321.371s-.114-38.857-.114-248.342h-33.143v46.057c-.915.343-1.372-.572-1.829-1.372C331.086 94.057 301.03 64.8 255.2 65.143c-59.314.457-99.657 35.657-114.971 88.914-4.915 17.029-6.629 34.4-6.286 52.114C135.886 295.2 185.486 340.8 262.4 337.83c33.029-1.258 62.286-19.429 78.857-51.658.572-1.142 1.257-2.171 1.943-3.314.229.114.457.114.686.229.343 4.343.228 35.085.114 39.428-.229 16.915-2.286 33.715-8.229 49.715-8.914 24-25.485 39.657-50.857 45.142-20.343 4.458-40.685 4.343-60.8-1.371-24.571-6.971-41.714-21.714-46.971-47.771-.343-1.829-1.486-1.486-2.629-1.486h-30.628c.914 12.114 3.657 23.2 9.714 33.371 27.657 46.286 94.514 55.429 146.514 42.743 57.029-14.057 76.915-62.743 77.029-121.486"/></svg>