<svg xmlns="http://www.w3.org/2000/svg" viewBox="0 0 512 512"><!--! Font Awesome Free 7.0.1 by @fontawesome - https://fontawesome.com License - https://fontawesome.com/license/free (Icons: CC BY 4.0, Fonts: SIL OFL 1.1, Code: MIT License) Copyright 2025 Fonticons, Inc.--><path fill="currentColor" d="M36.563 442.244 0 511.03l.914-374.774C.914 60.958 61.701.057 137.112.057h373.86C404.71 33.078 293.992 107.69 220.865 192.7 140.197 285.708 94.379 349.693 36.563 442.244M511.886.057S348.722 76.383 298.905 190.986c-26.509 61.243-33.021 134.941-81.125 181.217-33.021 31.764-79.754 43.647-120.316 64.328-26.508 13.711-75.869 46.276-97.007 75.412h375.23c75.412 0 136.313-60.9 136.313-136.198-.114 0-.114-375.688-.114-375.688"/></svg>