<svg xmlns="http://www.w3.org/2000/svg" viewBox="0 0 512 512"><!--! Font Awesome Free 7.0.1 by @fontawesome - https://fontawesome.com License - https://fontawesome.com/license/free (Icons: CC BY 4.0, Fonts: SIL OFL 1.1, Code: MIT License) Copyright 2025 Fonticons, Inc.--><path fill="currentColor" d="M486.855 290.153h-27.124c-2.574 0-4.554 1.98-4.554 4.554v31.678h-36.232V149.878c0-2.574-1.98-4.554-4.554-4.554h-27.124c-2.574 0-4.554 1.98-4.554 4.554v31.678h-36.232v-31.678c0-2.574-1.98-4.554-4.554-4.554h-27.124c-2.574 0-4.554 1.98-4.554 4.554v31.678h-36.232v-31.678c0-5.94-7.92-4.554-11.582-4.554v-37.618c8.216-1.98 16.928-3.366 25.441-3.366 10.79 0 20.69 4.257 31.085 4.257 4.553 0 27.421-1.089 27.421-7.92V41.281c0-2.574-1.98-4.554-4.554-4.554-5.048 0-14.948 4.257-23.758 4.257-9.603 0-20.69-4.257-32.273-4.257-7.92 0-15.839 1.089-23.461 2.87v-4.85c5.345-2.574 9.008-8.216 9.008-14.156 0-20.492-31.084-20.591-31.084 0 0 5.94 3.663 11.582 9.008 14.156v110.577c-3.662 0-11.582-1.386-11.582 4.554v31.678h-36.232v-31.678c0-2.574-1.98-4.554-4.554-4.554h-27.124c-2.574 0-4.554 1.98-4.554 4.554v31.678h-35.935v-31.678c0-2.574-1.98-4.554-4.554-4.554H97.61c-2.574 0-4.554 1.98-4.554 4.554v176.507H56.823v-31.678c0-2.574-1.98-4.554-4.554-4.554H25.145c-2.574 0-4.554 1.98-4.554 4.554V512h181.061v-95.035c0-71.87 108.597-71.87 108.597 0V512H491.31V294.707c.1-2.574-1.88-4.554-4.455-4.554m-285.203-4.455c0 2.574-1.98 4.554-4.554 4.554h-27.124c-2.574 0-4.554-1.98-4.554-4.554v-63.356c0-2.574 1.98-4.554 4.554-4.554h27.124c2.574 0 4.554 1.98 4.554 4.554zm144.928 0c0 2.574-1.98 4.554-4.554 4.554h-27.124c-2.574 0-4.554-1.98-4.554-4.554v-63.356c0-2.574 1.98-4.554 4.554-4.554h27.124c2.574 0 4.554 1.98 4.554 4.554z"/></svg>