<svg xmlns="http://www.w3.org/2000/svg" viewBox="0 0 512 512"><!--! Font Awesome Free 7.0.1 by @fontawesome - https://fontawesome.com License - https://fontawesome.com/license/free (Icons: CC BY 4.0, Fonts: SIL OFL 1.1, Code: MIT License) Copyright 2025 Fonticons, Inc.--><path fill="currentColor" d="M221.877 238.679h-19.584c.519-3.858 2.448-10.46 10.088-10.46 5.045 0 8.902 2.819 9.421 10.46zm101.331-10.237c-.37 0-10.46-1.336-10.46 14.836 0 16.171 10.09 14.836 10.46 14.836 9.644 0 10.46-10.014 10.46-14.836 0-16.172-10.163-14.836-10.46-14.836M142.8 246.022c-.816.668-1.483 1.484-1.854 2.374s-.594 2.003-.52 2.968c0 3.56 1.558 4.525 2.448 5.192 3.487 2.745 11.202 1.558 15.504.742v-12.536c-3.931-.816-12.388-1.484-15.504 1.186zM512 228.59c0 64.983-59.345 114.536-122.696 101.183-13.65 24.48-52.446 52.52-98.068 30.86-30.563 71.214-131.969 68.395-158.6-3.858C43.841 374.505 0 254.108 76.778 208.932c-25.815-58.9 16.765-128.779 84.79-128.779a91.6 91.6 0 0 1 40.799 9.57c12.685 6.305 23.738 15.355 32.343 26.556 15.355-15.874 36.646-25.815 60.161-25.815 31.379 0 58.603 17.433 73.291 43.47 68.84-30.191 143.764 20.92 143.764 94.582zm-385.447 23.59c0-8.754-8.679-11.276-13.278-12.76-3.932-1.557-9.94-2.596-9.94-6.602 0-7.047 12.61-4.97 18.693-1.557 0 0 .89.519 1.187-.371.149-.52 1.78-4.896 1.929-5.416.074-.222.074-.445-.074-.593-.149-.148-.297-.371-.445-.445-9.125-5.638-30.192-6.306-30.192 9.42 0 9.274 8.53 11.425 13.278 12.76 3.487 1.187 9.792 2.225 9.792 6.454 0 2.967-2.596 5.267-6.824 5.267a23.47 23.47 0 0 1-14.095-4.674c-.37-.148-1.038-.519-1.187.52l-1.78 5.563c-.371.668.148.89.148 1.039 1.336 1.038 7.641 4.896 16.914 4.896 9.792 0 15.874-5.267 15.874-13.427zm23.739-31.602c-7.493 0-13.872 2.374-15.875 3.858l-.223.222c-.074.075-.074.149-.074.297v.297c0 .074.074.222.148.297l1.929 5.266c.074.149.148.371.371.446.222.074.37.148.52.074.444 0 5.044-2.968 12.536-2.968 2.967 0 5.267.52 6.825 1.78 2.67 2.078 2.3 6.158 2.3 7.864-3.562-.223-14.17-2.522-21.81 2.819-1.706 1.187-3.19 2.819-4.08 4.673s-1.41 4.006-1.335 6.083c0 4.377 1.112 7.715 4.896 10.682 9.05 6.083 26.927 1.484 28.263 1.039 1.187-.223 2.596-.52 2.596-1.41V236.75c0-3.412.223-16.023-16.913-16.023v.074zM184.86 205c0-.148 0-.222-.074-.37-.074-.149-.074-.223-.223-.297-.148-.075-.148-.149-.296-.223-.149-.074-.223-.074-.371-.074h-7.27c-.148 0-.223 0-.371.074s-.223.074-.297.223c-.074.148-.148.148-.222.296-.074.149-.074.223-.074.371v58.604c0 .148 0 .222.074.37.074.149.074.223.222.297s.149.149.297.223.223.074.37.074h7.345c.148 0 .222 0 .37-.074.15-.074.223-.074.297-.223.075-.148.149-.148.223-.296.074-.149.074-.223.074-.371zm41.32 21.439c-1.559-1.706-5.045-5.564-13.057-5.564-2.596 0-10.534.148-15.355 6.602-4.748 5.638-4.896 13.427-4.896 15.875 0 2.3.148 10.608 5.267 15.727 1.928 2.15 6.75 6.082 16.913 6.082 8.011 0 12.24-1.706 13.798-2.818.37-.149.519-.52.148-1.41l-1.706-5.044a.67.67 0 0 0-.445-.445c-.223-.075-.371-.149-.594-.075-1.928.668-4.673 2.078-11.35 2.078-12.907 0-12.462-10.905-12.536-12.389h27.595c.223 0 .371-.074.52-.222.148-.149.296-.297.296-.52-.222 0 1.558-10.904-4.525-17.951zm27.224 39.093c9.792 0 15.874-5.267 15.874-13.427 0-8.753-8.679-11.275-13.278-12.759-3.041-1.26-9.94-2.522-9.94-6.602 0-2.819 2.448-4.747 6.305-4.747 4.303.074 8.531 1.186 12.388 3.115 0 0 .89.52 1.187-.37.149-.52 1.78-4.897 1.929-5.416.074-.223.074-.445-.074-.593-.149-.149-.297-.371-.445-.446-5.86-3.634-12.389-3.634-14.985-3.634-8.902 0-15.207 5.415-15.207 13.055 0 9.273 8.53 11.424 13.278 12.76 4.525 1.483 9.792 2.448 9.792 6.453 0 2.968-2.596 5.267-6.824 5.267-5.119 0-10.015-1.632-14.095-4.747a.57.57 0 0 0-.37-.149c-.15 0-.297 0-.372.075-.074.074-.222.148-.296.222a.57.57 0 0 0-.149.371l-1.706 5.564c-.37.667.148.89.148 1.038 1.262 1.039 7.641 4.896 16.914 4.896zm48.737-42.877c0-.519-.149-.89-.89-.89h-8.754c0-.074.668-6.602 3.338-9.272 3.116-3.116 8.754-1.187 8.902-1.187.89.37 1.039 0 1.187-.371l2.077-5.786c.52-.668 0-.89-.148-1.039-3.783-1.484-12.908-2.151-18.175 3.116-4.08 4.08-5.192 10.31-5.934 14.465h-6.306c-.222 0-.445.148-.593.297-.148.148-.223.37-.297.593l-1.038 5.786c0 .52.148.89.89.89h6.083c-6.306 35.533-6.454 37.24-7.64 41.171-.817 2.67-2.449 5.119-4.378 5.786-.074 0-2.893 1.262-7.121-.148 0 0-.668-.37-1.039.52-.148.519-1.928 5.044-2.077 5.563-.148.52 0 1.038.371 1.038 3.783 1.484 9.644 1.336 13.279 0 4.673-1.706 7.195-5.86 8.53-9.569 2.078-5.712 2.078-7.27 8.754-44.286h9.05c.223 0 .445-.149.594-.297s.222-.37.296-.593zm39.613 11.87c-.445-1.262-3.784-13.427-18.694-13.427-11.276 0-17.062 7.418-18.694 13.426-.742 2.226-2.374 10.386 0 17.433.074.223 3.264 13.427 18.694 13.427 11.127 0 16.988-7.121 18.694-13.427 2.373-7.121.742-15.207 0-17.433m33.678-12.389c-3.709-1.26-12.314-1.41-16.394 4.006v-3.338c0-.149 0-.223-.074-.371s-.074-.223-.223-.297c-.148-.074-.148-.148-.296-.222-.149-.075-.223-.075-.371-.075H351.1c-.149 0-.223 0-.371.075-.149.074-.223.074-.297.222s-.148.149-.223.297c-.074.148-.074.222-.074.37v41.023c0 .149 0 .223.074.371.075.148.075.223.223.297s.148.148.297.222c.148.074.222.074.37.074h7.122c.148 0 .223 0 .37-.074.15-.074.223-.074.298-.222s.148-.149.222-.297.074-.222.074-.37v-20.623c0-2.152.075-8.457 3.338-11.202 3.635-3.635 8.902-2.522 9.94-2.3a.84.84 0 0 0 .594-.222c.149-.148.297-.297.445-.52.89-1.928 1.632-3.93 2.3-5.934a.82.82 0 0 0 0-.593.76.76 0 0 0-.371-.445zm34.717 40.132-1.558-5.415c-.37-.89-1.038-.52-1.038-.52-3.116 1.336-7.493 1.41-8.383 1.41-3.412 0-12.76-.816-12.76-14.688 0-4.599 1.336-14.688 12.24-14.688 2.894-.074 5.787.371 8.532 1.187 0 0 .667.371.89-.519.667-1.929 1.187-3.338 1.929-5.564.148-.667-.371-.89-.52-.89-8.605-2.893-16.542-1.854-20.622 0-1.187.52-12.018 4.822-12.018 20.4 0 2.151-.445 22.329 21.439 22.329 3.932 0 7.863-.742 11.498-2.077.148-.149.297-.297.37-.445.075-.149.075-.371 0-.594zm39.984-29.301c-.594-2.226-4.006-12.018-16.543-12.018-11.869 0-17.432 7.493-18.99 13.798-.89 2.819-1.261 5.786-1.261 8.753 0 19.213 13.946 21.81 22.18 21.81 8.012 0 12.24-1.706 13.798-2.82.37-.147.519-.518.148-1.409l-1.78-5.044a.67.67 0 0 0-.445-.445c-.223-.074-.445-.148-.594-.074-1.929.667-4.673 2.077-11.35 2.077-12.907 0-12.536-10.905-12.536-12.388h27.595c.223 0 .371-.075.52-.223.148-.148.296-.297.296-.52-.148 0 .668-5.266-1.038-11.497m-17.285-4.748c-7.64 0-9.643 6.676-10.088 10.46h19.584c-.668-8.828-5.638-10.46-9.421-10.46z"/></svg>