<svg xmlns="http://www.w3.org/2000/svg" viewBox="0 0 512 512"><!--! Font Awesome Free 7.0.1 by @fontawesome - https://fontawesome.com License - https://fontawesome.com/license/free (Icons: CC BY 4.0, Fonts: SIL OFL 1.1, Code: MIT License) Copyright 2025 Fonticons, Inc.--><path fill="currentColor" d="M511.263 233.057c-1.263-10.84-1.789-21.89-3.894-32.625a345 345 0 0 0-10.103-38.518c-7.156-21.995-18.101-42.412-32.52-60.514-6.209-7.998-12.734-15.576-19.785-22.837-14.839-14.734-31.572-27.468-49.569-37.992-18.733-11.156-38.728-19.891-59.672-25.995-11.576-3.263-23.468-5.683-35.255-7.998-7.157-1.369-14.419-1.79-21.68-2.631-.316 0-.632-.421-.947-.632h-33.993c-2.526.421-5.052.947-7.578 1.263-12.208 1.263-24.31 3.789-36.098 7.472-14.523 4.315-28.52 10.103-41.886 17.26-13.997 7.367-27.468 15.891-40.097 25.468-6.525 4.841-12.944 9.893-18.943 15.26-10.735 9.682-21.47 19.365-31.467 29.784a256.8 256.8 0 0 0-35.362 46.306 215.4 215.4 0 0 0-21.574 46.938C3.262 216.956 0 242.108 1.158 267.05c.631 14.208 2.104 28.31 4.63 42.307a243 243 0 0 0 17.576 56.094c14.312 30.73 33.782 54.2 53.041 71.46 13.471 12.207 28.205 23.047 43.991 32.203 18.628 10.945 38.308 19.89 58.83 26.626 13.997 4.526 28.31 7.999 42.728 10.314 6.42 1.052 12.945 1.368 19.365 2q.63.158 1.263.63h33.993c2.63-.42 5.262-.946 7.893-1.157 17.154-1.368 33.782-5.578 49.99-11.26a236 236 0 0 0 51.568-25.048c10.208-6.736 20.417-13.787 30.204-21.154 6.104-4.525 11.577-9.998 17.155-15.26 4.21-3.894 8.208-7.998 12.102-12.102 12.63-13.366 23.785-27.995 33.046-43.78 9.998-16.84 18.312-34.625 23.47-53.569 3.051-10.945 5.156-22.1 7.366-33.361 1.052-5.578 1.368-11.261 2-16.944 0-.316.42-.632.631-.947v-39.045l-.631-1.894zm-169.544-1.263s-17.47-3.157-29.994-3.157c-28.625 0-35.36 15.681-35.36 38.94v98.61h-77.353V165.493h77.352v33.572c9.367-28.204 28.205-38.097 65.25-38.097v70.827z"/></svg>