<svg xmlns="http://www.w3.org/2000/svg" viewBox="0 0 512 512"><!--! Font Awesome Free 7.0.1 by @fontawesome - https://fontawesome.com License - https://fontawesome.com/license/free (Icons: CC BY 4.0, Fonts: SIL OFL 1.1, Code: MIT License) Copyright 2025 Fonticons, Inc.--><path fill="currentColor" d="M169.857 230.021C120.037 298.877 56.62 337.627 28.358 316.65 0 295.575 17.481 222.835 67.4 153.98 117.22 85.123 180.637 46.373 208.9 67.35c28.26 20.977 10.78 93.814-39.042 162.67m341.075-55.648c-71.673 119.842-186.368 182.289-256.874 139.46-24.28-14.762-40.11-40.012-47.588-71.672-32.63 62.932-90.124 110.519-159.368 129.36 48.364 57.59 120.522 94.106 201.032 94.106 145.675 0 263.769-119.551 263.769-266.974.097-8.255-.291-16.316-.971-24.28"/></svg>