<svg xmlns="http://www.w3.org/2000/svg" viewBox="0 0 512 512"><!--! Font Awesome Free 7.0.1 by @fontawesome - https://fontawesome.com License - https://fontawesome.com/license/free (Icons: CC BY 4.0, Fonts: SIL OFL 1.1, Code: MIT License) Copyright 2025 Fonticons, Inc.--><path fill="currentColor" d="M165.6 257.956c0 10.844-8.622 19.11-19.556 19.11-8.177 0-14.222-4.622-14.222-13.333 0-10.844 8.445-19.555 19.29-19.555 8.266 0 14.488 5.066 14.488 13.778m-94.044-43.112h-4.178c-1.334 0-2.667.89-2.845 2.4l-3.822 23.734L68 240.71c9.778 0 17.333-1.333 19.111-12.622 2.045-11.911-5.511-13.245-15.555-13.245m252.444 0h-4c-1.6 0-2.667.89-2.844 2.4l-3.734 23.734 7.111-.267c11.556 0 19.556-2.667 19.556-16-.089-9.422-8.533-9.867-16.089-9.867M512 99.556v312.888c0 23.556-19.111 42.667-42.667 42.667H42.667C19.11 455.111 0 436 0 412.444V99.556C0 76 19.111 56.889 42.667 56.889h426.666C492.89 56.889 512 76 512 99.556M114.044 219.91c0-18.667-14.4-24.889-30.844-24.889H47.644c-2.222 0-4.444 1.778-4.622 4.178l-14.578 90.756c-.266 1.777 1.067 3.555 2.845 3.555h16.889c2.4 0 4.622-2.578 4.889-5.067l4-23.644c.889-6.4 11.733-4.178 16-4.178 25.422 0 40.977-15.11 40.977-40.71m74.845 7.822H172c-3.378 0-3.556 4.89-3.733 7.29-5.156-7.556-12.623-8.89-21.067-8.89-21.778 0-38.4 19.111-38.4 40.178 0 17.333 10.844 28.622 28.178 28.622 8 0 17.955-4.355 23.555-10.577-.444 1.333-.889 4.177-.889 5.51 0 2.045.89 3.556 2.845 3.556h15.289c2.4 0 4.444-2.578 4.889-5.066l9.066-57.156c.267-1.689-1.066-3.467-2.844-3.467m36 87.023 56.622-82.312c.445-.444.445-.888.445-1.51 0-1.512-1.334-3.112-2.845-3.112h-17.067c-1.51 0-3.11.89-4 2.222l-23.555 34.667-9.778-33.333c-.711-1.956-2.667-3.556-4.889-3.556H203.2c-1.511 0-2.844 1.6-2.844 3.111 0 1.067 17.333 50.49 18.844 55.2-2.4 3.378-18.222 25.423-18.222 28.09 0 1.6 1.333 2.844 2.844 2.844h17.067c1.6-.09 3.111-.978 4-2.311m141.6-94.845c0-18.667-14.4-24.889-30.845-24.889h-35.288c-2.4 0-4.623 1.778-4.89 4.178l-14.4 90.667c-.177 1.777 1.156 3.555 2.845 3.555h18.222c1.778 0 3.111-1.333 3.556-2.844l4-25.778c.889-6.4 11.733-4.178 16-4.178 25.244 0 40.8-15.11 40.8-40.71m74.844 7.822h-16.889c-3.377 0-3.555 4.89-3.822 7.29-4.889-7.556-12.444-8.89-21.066-8.89-21.778 0-38.4 19.111-38.4 40.178 0 17.333 10.844 28.622 28.177 28.622 8.267 0 18.223-4.355 23.556-10.577-.267 1.333-.889 4.177-.889 5.51 0 2.045.889 3.556 2.844 3.556h15.378c2.4 0 4.445-2.578 4.89-5.066l9.066-57.156c.266-1.689-1.067-3.467-2.845-3.467m42.223-29.6c0-1.777-1.334-3.11-2.845-3.11h-16.444c-1.334 0-2.667 1.066-2.845 2.4l-14.4 92.444-.266.444c0 1.6 1.333 3.111 3.11 3.111h14.667c2.223 0 4.445-2.578 4.623-5.066l14.4-89.956zm-80 46.045c-10.845 0-19.29 8.622-19.29 19.555 0 8.623 6.223 13.334 14.4 13.334 10.667 0 19.29-8.178 19.29-19.111.088-8.712-6.134-13.778-14.4-13.778"/></svg>