<svg xmlns="http://www.w3.org/2000/svg" viewBox="0 0 512 512"><!--! Font Awesome Free 7.0.1 by @fontawesome - https://fontawesome.com License - https://fontawesome.com/license/free (Icons: CC BY 4.0, Fonts: SIL OFL 1.1, Code: MIT License) Copyright 2025 Fonticons, Inc.--><path fill="currentColor" d="M296.877 47.69c-11.148-2.27-22.812-3.406-34.58-3.716V25.187c80.62 2.271 150.813 45.42 190.555 110.039l-16.31 9.393c-6.297-10.013-13.11-19.406-20.852-27.974l-18.58 16C370.27 102.09 333.729 80.31 291.923 72.361zM55.123 324.542l23.742-7.948C72.258 297.704 68.542 277.16 68.542 256s3.406-41.703 10.013-60.594l-23.432-7.948c3.716-11.148 8.567-21.987 14.038-32l-16.31-9.393C35.098 178.58 24.878 216.258 24.878 256S35.2 333.42 52.852 366.039l16.31-9.394c-5.472-10.322-10.014-20.955-14.04-32.103m164.851 115.2c-41.703-8.258-78.245-30.039-105.187-60.594l-18.58 16.31c-7.742-8.877-14.865-18.27-20.852-28.284l-16.516 9.703c39.742 64.31 110.245 107.665 190.864 110.04v-18.891c-11.664-.31-23.432-1.755-34.58-3.716zM96.31 116.542l18.58 16c26.839-30.555 63.381-52.336 105.187-60.284l-4.851-24.568c11.148-2.27 22.813-3.406 34.58-3.716V25.187c-80.619 2.271-150.812 45.42-190.554 110.039l16.31 9.393c6.193-10.013 13.006-19.51 20.748-28.077m319.38 278.916-18.58-16.31c-26.839 30.555-63.381 52.336-105.187 60.594l4.851 24.568c-11.148 1.961-22.813 3.406-34.58 3.716v18.89c80.619-2.27 151.122-45.729 190.864-110.039l-16.62-9.703c-5.883 10.013-13.006 19.407-20.748 28.284M0 256C0 114.58 114.58 0 256 0s256 114.58 256 256-114.58 256-256 256S0 397.42 0 256m499.406 0C499.406 121.6 390.4 12.594 256 12.594S12.594 121.6 12.594 256 121.6 499.406 256 499.406 499.406 390.4 499.406 256m-40.258-110.039-16.31 9.394c5.472 10.013 10.323 20.851 14.04 32l-23.433 7.948c6.607 18.89 10.013 39.432 10.013 60.594s-3.716 41.703-10.323 60.593l23.742 7.949c-4.025 11.148-8.567 21.677-14.038 32l16.31 9.393c17.754-32.413 27.974-70.09 27.974-109.832s-10.22-77.42-27.975-110.039M270.245 329.394c16.826-3.407 31.38-11.975 42.013-24.259l52.852 46.246c12.284-14.04 21.987-30.246 27.974-48.31l-66.271-22.813c2.58-7.742 4.026-15.69 4.026-24.258s-1.445-16.62-4.026-24.258l66.58-22.813c-6.296-17.961-16-34.27-28.283-48.31l-52.852 46.246c-10.529-12.284-25.187-21.162-42.013-24.568l13.73-68.542c-8.878-1.961-18.272-2.89-27.975-2.89s-19.097.825-27.974 2.89l13.729 68.542c-16.826 3.406-31.38 12.284-42.013 24.568l-52.852-46.246c-12.284 14.04-21.987 30.246-28.284 48.31l66.581 22.813c-2.58 7.742-4.026 15.69-4.026 24.258s1.445 16.62 4.026 24.258l-66.27 22.813c5.986 17.961 15.69 34.27 27.973 48.31l52.852-46.246c10.529 12.284 25.187 20.852 42.013 24.259l-13.73 68.851c8.878 1.755 18.272 2.89 27.975 2.89s19.097-1.135 27.974-2.89z"/></svg>