<svg xmlns="http://www.w3.org/2000/svg" viewBox="0 0 512 512"><!--! Font Awesome Free 7.0.1 by @fontawesome - https://fontawesome.com License - https://fontawesome.com/license/free (Icons: CC BY 4.0, Fonts: SIL OFL 1.1, Code: MIT License) Copyright 2025 Fonticons, Inc.--><path fill="currentColor" d="m484.796 202.752-43.847 87.933-43.927-87.933h-30.005l8.722 16.482c-9.202-15.202-28.725-20.803-50.648-20.803-25.444 0-54.329 6.961-57.21 34.485h26.965c1.12-11.041 12.562-17.442 28.004-17.442 20.804 0 32.806 7.68 32.806 26.404v2.72c-10.162 0-22.404.08-33.366.32-33.925.72-55.688 8.002-61.37 27.525q1.2-6.242 1.201-12.962c0-41.687-31.765-60.97-60.33-60.97-17.042 0-34.405 4.4-46.967 19.363v-64.49H129.14v135.621c0 8.241-.48 18.323-.88 26.484h25.204c.56-5.04.88-10.321.88-15.602 10.882 13.282 28.325 19.923 46.967 19.923 29.525 0 51.929-17.523 58.65-43.367-.4 2.24-.56 4.64-.56 7.201 0 19.283 16.882 36.006 48.487 36.006 21.283 0 36.646-4.56 49.528-20.403 0 5.28.24 10.641.88 16.162h23.844c-.56-6.56-.8-14.002-.8-21.443v-52.488c0-7.441-1.36-13.762-3.841-19.043l49.208 92.894-22.804 43.287h28.725L512 202.752zM194.91 302.207c-23.683 0-40.166-17.202-40.166-43.047 0-25.924 16.483-43.046 40.166-43.046 23.844 0 40.167 17.122 40.167 43.046 0 25.845-16.323 43.047-40.167 43.047m160.746-37.846c0 24.004-14.323 38.726-41.287 38.726-20.083 0-28.004-10.721-28.004-20.643 0-15.282 14.482-19.523 37.766-20.243 10.481-.4 22.083-.48 31.525-.48zm-329.572 1.28H129.14v-6.8c0-41.367-26.484-60.33-62.73-60.33-45.447 0-66.41 24.644-66.41 62.09 0 34.005 20.243 59.209 66.01 59.209 25.124 0 54.409-9.361 59.53-36.886H99.055c-9.601 28.645-70.17 29.365-72.97-17.282m76.012-17.122H26.564c5.521-45.287 73.692-43.767 75.532 0"/></svg>