<svg xmlns="http://www.w3.org/2000/svg" viewBox="0 0 512 512"><!--! Font Awesome Free 7.0.1 by @fontawesome - https://fontawesome.com License - https://fontawesome.com/license/free (Icons: CC BY 4.0, Fonts: SIL OFL 1.1, Code: MIT License) Copyright 2025 Fonticons, Inc.--><path fill="currentColor" d="M387.908 205.963c7.243-22.874-12.772-44.605-35.646-39.744-20.968 4.575-27.449-26.782-6.767-31.261 47.75-10.39 87.97 35.36 72.912 80.822-6.481 20.205-36.98 10.293-30.5-9.817M204.724 462.439C103.41 462.44 0 413.45 0 332.533c0-42.222 26.687-90.925 72.72-136.959 95.024-95.023 193.669-96.167 165.457-5.433-3.812 12.486 11.723 5.433 11.723 5.719 75.77-32.024 133.91-16.012 108.652 48.989-3.526 8.959 1.049 10.389 7.911 12.485 129.334 40.316 33.168 205.105-161.74 205.105m136.959-139.437c-5.147-53.087-74.818-89.59-155.735-81.68-80.822 8.197-141.82 57.472-136.673 110.559s74.817 89.59 155.735 81.68c80.822-8.197 141.82-57.472 136.673-110.559M331.58 70.147c-24.685 5.338-16.012 41.65 7.91 36.504 68.91-14.487 128.477 50.323 106.46 118.183-7.052 23.065 27.736 35.264 35.646 11.437C512 141.153 429.081 49.561 331.58 70.147m-74.818 296.411c-16.297 36.98-63.666 57.186-103.982 44.129-38.886-12.486-55.279-50.895-38.41-85.493 16.87-33.739 60.14-52.8 98.55-42.984 40.03 10.293 60.14 47.845 43.842 84.348m-82.251-28.592c-12.295-5.147-28.593.286-36.218 12.295-7.91 12.294-4.098 26.686 8.197 32.405 12.485 5.718 29.355.286 37.266-12.295 7.624-12.486 3.526-26.973-9.245-32.405m31.07-12.772c-4.86-1.62-10.865.572-13.629 5.147-2.764 4.86-1.334 10.103 3.527 12.295 4.86 1.906 11.15-.286 13.915-5.147 2.669-4.956 1.048-10.388-3.812-12.295"/></svg>