<svg xmlns="http://www.w3.org/2000/svg" viewBox="0 0 512 512"><!--! Font Awesome Free 7.0.1 by @fontawesome - https://fontawesome.com License - https://fontawesome.com/license/free (Icons: CC BY 4.0, Fonts: SIL OFL 1.1, Code: MIT License) Copyright 2025 Fonticons, Inc.--><path fill="currentColor" d="M99.895 179.149c-5.909 7.011-15.363 12.526-24.816 11.738-1.182-9.454 3.466-19.538 8.902-25.683 5.909-7.169 16.229-12.29 24.658-12.683.946 9.769-2.914 19.459-8.744 26.628m8.587 13.55c-13.708-.788-25.446 7.8-31.907 7.8-6.617 0-16.544-7.406-27.415-7.17-14.102.237-27.18 8.194-34.35 20.877C0 239.653 10.95 277.232 25.29 297.951c7.011 10.242 15.362 21.507 26.392 21.113 10.477-.393 14.574-6.775 27.18-6.775 12.683 0 16.386 6.775 27.415 6.618 11.423-.236 18.592-10.242 25.604-20.483 7.957-11.66 11.266-22.926 11.423-23.556-.236-.236-22.059-8.587-22.295-33.797-.236-21.113 17.253-31.119 18.041-31.749-9.848-14.653-25.21-16.229-30.567-16.623m79.096-28.519v153.545h23.871v-52.468h33.01c30.173 0 51.286-20.72 51.286-50.657s-20.798-50.42-50.499-50.42zm23.871 20.09h27.495c20.72 0 32.537 11.029 32.537 30.41 0 19.38-11.818 30.566-32.616 30.566H211.45zm127.783 134.637c14.969 0 28.834-7.563 35.137-19.617h.473v18.435H396.9v-76.418c0-22.137-17.725-36.475-44.984-36.475-25.289 0-44.038 14.495-44.748 34.348h21.508c1.812-9.454 10.556-15.677 22.531-15.677 14.575 0 22.768 6.775 22.768 19.301v8.509l-29.78 1.811c-27.652 1.655-42.62 13-42.62 32.695.079 19.853 15.52 33.088 37.657 33.088m6.46-18.199c-12.683 0-20.798-6.145-20.798-15.44 0-9.69 7.8-15.284 22.69-16.15l26.47-1.655v8.666c0 14.338-12.211 24.58-28.361 24.58m80.751 58.771c23.241 0 34.192-8.902 43.724-35.766L512 206.328h-24.265l-28.046 90.678h-.473l-28.046-90.678h-24.895l40.336 111.791-2.205 6.775c-3.624 11.502-9.533 15.993-20.09 15.993-1.89 0-5.514-.236-7.011-.394v18.435c1.418.315 7.326.551 9.138.551"/></svg>