<svg xmlns="http://www.w3.org/2000/svg" viewBox="0 0 512 512"><!--! Font Awesome Free 7.0.1 by @fontawesome - https://fontawesome.com License - https://fontawesome.com/license/free (Icons: CC BY 4.0, Fonts: SIL OFL 1.1, Code: MIT License) Copyright 2025 Fonticons, Inc.--><path fill="currentColor" d="M73.143 0C32.8 0 0 32.8 0 73.143v365.714C0 479.2 32.8 512 73.143 512h365.714C479.2 512 512 479.2 512 438.857V73.143C512 32.8 479.2 0 438.857 0zm293.486 229.714L340 256.114l26.629 26.172c27.542 27.314 27.542 72 0 99.314s-72.458 27.314-100.115 0L256.8 372c-12.914 18.286-33.943 30.286-58.171 30.286-38.972 0-70.743-31.429-70.743-70.172V179.886c0-38.629 31.657-70.172 70.743-70.172 24.114 0 45.257 12 58.171 30.286l9.714-9.6c27.543-27.314 72.457-27.314 100.115 0 27.657 27.314 27.542 72 0 99.314"/></svg>