<svg xmlns="http://www.w3.org/2000/svg" viewBox="0 0 512 512"><!--! Font Awesome Free 7.0.1 by @fontawesome - https://fontawesome.com License - https://fontawesome.com/license/free (Icons: CC BY 4.0, Fonts: SIL OFL 1.1, Code: MIT License) Copyright 2025 Fonticons, Inc.--><path fill="currentColor" d="M255.587 0C108.077 0 0 118.813 0 256c0 142.968 117.265 256 255.587 256C389.677 512 512 407.845 512 256 512 113.652 401.961 0 255.587 0m.826 465.342c-116.13 0-210.271-96-210.271-209.342 0-108.8 88.258-209.858 210.27-209.858 116.233 0 209.446 92.387 209.343 209.858 0 125.626-102.813 209.342-209.342 209.342m70.503-281.6H272v141.626h54.916c22.09 0 72.258-5.265 72.258-70.813 0-65.445-50.168-70.813-72.258-70.813m.826 112H307.2V213.47l20.026-.103c3.922 0 36.129-2.168 36.129 41.187 0 25.393-10.839 41.187-35.613 41.187m-117.471-112h-70.4V325.47h35.716v-45.73h27.871c55.845 0 58.942-38.709 58.942-48 0-32-17.342-48-52.129-48m-5.058 69.47H175.07v-42.941h29.213c31.897 0 29.729 42.942.929 42.942"/></svg>