<svg xmlns="http://www.w3.org/2000/svg" viewBox="0 0 512 512"><!--! Font Awesome Free 7.0.1 by @fontawesome - https://fontawesome.com License - https://fontawesome.com/license/free (Icons: CC BY 4.0, Fonts: SIL OFL 1.1, Code: MIT License) Copyright 2025 Fonticons, Inc.--><path fill="currentColor" d="M212.645 163.974c0 113.961-62.968 212.026-152.361 255.38C22.71 374.659 0 317.369 0 254.298 0 127.639 91.974 22.658 212.645 2.323zm42.323 345.703c-44.284 0-85.987-11.354-122.323-31.38 59.045-37.265 106.736-93.626 122.323-159.587 16 65.961 63.69 122.322 122.632 159.69-36.232 19.923-77.935 31.277-122.632 31.277m196.748-90.322C362.323 376 299.355 278.039 299.355 163.975V2.322C420.025 22.658 512 127.639 512 254.297c0 63.07-22.71 120.361-60.284 165.058"/></svg>