<svg xmlns="http://www.w3.org/2000/svg" viewBox="0 0 512 512"><!--! Font Awesome Free 7.0.1 by @fontawesome - https://fontawesome.com License - https://fontawesome.com/license/free (Icons: CC BY 4.0, Fonts: SIL OFL 1.1, Code: MIT License) Copyright 2025 Fonticons, Inc.--><path fill="currentColor" d="M112.054 60.746h201.763l-7.593 20.501h-194.17c-43.064 0-77.993 34.278-77.993 76.258v222.807c0 38.4 27.01 76.257 91.119 76.257v20.72h-13.126c-54.346 0-99.037-43.608-99.037-97.086V157.505c0-53.478 44.15-96.76 99.037-96.76M360.57 0h72.136C276.72 410.142 274.658 432.705 232.353 476.529c-22.563 23.43-53.478 34.386-84.936 35.471v-55.43c53.37-8.353 70.075-54.13 70.075-81.682 0-21.803.65-13.668-89.058-242.115h66.603l54.671 169.871zm138.414 153.492v323.796H266.847c7.16-10.413 11.607-17.681 13.126-21.044h197.966V153.492c0-35.255-18.55-56.299-52.285-68.231l7.268-19.092c45.234 14.753 66.061 46.753 66.061 87.323"/></svg>