<svg xmlns="http://www.w3.org/2000/svg" viewBox="0 0 512 512"><!--! Font Awesome Free 7.0.1 by @fontawesome - https://fontawesome.com License - https://fontawesome.com/license/free (Icons: CC BY 4.0, Fonts: SIL OFL 1.1, Code: MIT License) Copyright 2025 Fonticons, Inc.--><path fill="currentColor" d="M311.083 233.083c1.5 8.084 2.584 16.167 2.584 26.667C313.667 351.25 252.333 416 160 416 71.583 416 0 344.417 0 256S71.583 96 160 96c43.25 0 79.25 15.75 107.167 41.917l-43.417 41.666C212 168.25 191.25 154.917 160 154.917c-54.583 0-99.083 45.166-99.083 101.083s44.5 101.083 99.083 101.083c63.333 0 87.083-45.583 90.833-69H160v-55zm154.5 5.334V192h-46.666v46.417H372.5v46.666h46.417V331.5h46.666v-46.417H512v-46.666z"/></svg>