<svg xmlns="http://www.w3.org/2000/svg" viewBox="0 0 512 512"><!--! Font Awesome Free 7.0.1 by @fontawesome - https://fontawesome.com License - https://fontawesome.com/license/free (Icons: CC BY 4.0, Fonts: SIL OFL 1.1, Code: MIT License) Copyright 2025 Fonticons, Inc.--><path fill="currentColor" d="M484.635 426.305c-1.38-11.045-18.737-22.78-27.81-31.458-5.028-4.93-28.597-22.78-29.978-29.485-1.38-6.508 9.566-21.202 13.116-28.5 5.03-10.55 8.678-23.37 11.143-32.147 18.54-65.183 20.413-154.724-6.114-208.271-10.058-20.315-38.064-48.32-55.618-61.634C347.957 3.55 271.433 0 221.634 18.44c-13.905 5.129-27.415 9.665-39.545 16.864-32.64 19.13-67.352 32.049-77.017 70.607-23.864 10.65-31.063 41.22-29.88 76.72.198 6.904 4.044 15.582 2.663 22.09-.69 3.254-5.128 7.495-6.015 9.664-11.44 27.316-2.268 63.113 10.946 82.54 7.987 11.734 21.202 22.089 38.656 24.85.69 10.453 3.254 19.427 8.087 29.978 3.057 6.706 14.496 18.737 10.255 27.316-2.17 4.34-20.708 13.609-26.921 17.356-20.808 12.327-35.895 20.019-55.125 33.825-12.425 8.875-31.852 10.058-28.795 30.668 2.07 13.905 9.96 31.162 14.496 45.165.69 1.972 1.38 4.043 2.071 5.917h416.148c4.832-15.088 9.565-30.471 14.397-46.545 3.353-11.242 10.059-27.415 8.58-39.15m-277.3-385.874c1.774-.493 3.352.69 4.831 2.367-.197 5.128-5.325 5.03-8.776 6.706-5.325 6.607-13.214 9.664-19.723 16.961-6.706 7.396-14.2 27.316-23.075 29.584-4.438 1.085-9.566-.789-13.412-.493-10.256.69-17.454 5.917-27.907 7.396 13.411-29.485 55.322-53.25 88.061-62.52m-103.347 92.302c13.312-14.693 31.655-23.765 54.04-25.54 11.537 29.288-8.284 64.098-.888 96.246 2.268 9.763 10.059 25.048-2.367 25.344.296-27.908-34.317-45.658-60.45-29.19-1.774-21.202-4.831-50.983 9.665-66.86m36.19 197.424c-.985-4.043-2.662-12.72-2.267-14.89 1.577-8.58 16.862-12.327 10.847-24.358-11.143-.099-13.609 10.059-23.766 11.143-26.33 2.564-44.967-34.909-43.784-57.59.986-19.23 17.356-37.67 39.544-35.303 15.778 1.775 21.103 18.933 24.16 34.219 9.073.493 22.188-.395 26.527-7.495-.592-17.257-8.678-31.162-8.086-47.039.986-29.88 17.257-56.8 4.733-86.188 13.412-30.471 52.758-54.533 81.948-69.029 36.092-18.046 93.584-3.649 127.507 15.581 19.427 10.946 33.923 32.247 47.63 49.997-19.23-5.72-35.6 4.142-32.641 20.018 16.074-14.693 43.587-.197 51.772 16.173 7.79 15.58 7.692 38.755 8.875 61.93 2.86 56.209-10.256 114.292-38.558 154.92-7.593 10.848-13.904 22.682-24.554 30.176-25.64 17.948-64.493 34.219-97.825 23.076-44.08-14.792-64.098-44.179-88.258-77.708.69 18.441 13.608 33.628 26.428 47.73 11.143 12.326 24.653 26.23 39.15 31.95-12.13-2.86-30.67-3.747-35.699 7.1-28.203-1.874-54.336-4.733-67.747-23.864-10.453-15.187-21.103-40.826-25.935-60.549M359.1 452.537c4.043-2.96 10.946-2.86 17.159-3.55-5.325-2.663-12.82-3.65-19.032-2.17-.1-4.142-1.973-6.706-3.156-10.059 10.453-3.747 35.008-28.105 48.912-20.018 6.607 3.846 9.368 25.836 9.96 36.487.394 8.875-.789 17.75-4.438 22.483-18.539-.591-35.303-2.76-49.997-6.903.888-6.015-.986-11.932.592-16.27m-16.961-19.723c-16.567.788-25.64-1.184-37.77-10.65.198-.79 1.381-.494 1.48-1.381 17.75 7.889 40.234-3.254 58.182-4.832-7.79 5.029-14.398 11.439-21.892 16.863m-11.933 32.74c-1.577-9.27-3.451-11.834-2.76-19.92 24.653-16.37 29.287 28.203 2.76 19.92m-103.05-25.838c-11.44-.69-47.433-13.805-37.966-23.37 9.27 6.409 27.118 4.831 40.727 7.198.789 4.339-2.761 10.058-2.761 16.172M61.19 497.406c-4.24-12.525-9.073-24.753-14.595-36.39 30.373-23.469 64.394-48.22 100.783-62.618 2.76-1.085 22.878 25.047 25.836 27.217 16.271 11.538 36.487 20.709 55.42 29.781 1.184 8.678 3.847 19.92 8.58 35.008.69 2.268 1.38 4.635 2.17 7.1H61.19zm237.263 5.62h-.789c.296-.197.493-.394.789-.493zm7.396-5.62c2.07-1.381 4.24-2.762 6.311-4.241 1.085 1.38 2.17 2.761 3.156 4.24zm14.89-24.358c-10.65 7.199-20.314 18.046-32.838 24.85-5.916 3.255-26.625 11.538-32.936 10.059-3.55-.789-3.846-5.227-5.326-9.368-3.057-8.876-9.96-23.076-10.65-36.487-.789-16.962-2.465-45.362 15.778-41.812 14.694 2.86 31.852 9.565 43.292 15.876 7.001 3.846 10.946 8.481 21.596 9.369-.099 1.38-.099 2.76-.197 4.24-5.819 3.846-15.088 3.747-21.498 7.002 9.368.394 16.764 2.662 23.174 5.818-.099 3.353-.296 6.903-.394 10.453m52.66 24.357h-13.806c-.098-3.155-2.761-5.72-6.015-5.72s-5.818 2.565-6.016 5.72h-17.158c-2.761-4.339-5.621-8.48-8.777-12.326 2.071-2.17 3.945-4.635 5.917-6.805 8.875 3.649 14.595-4.832 21.399-4.141 7.79.788 14.003 11.537 25.048 10.847zm8.58 0c.197-3.944.394-7.692.591-11.34 15.384-7.2 28.598 1.282 35.205 11.34zm82.243-36.487c-2.268 11.045-5.72 23.668-9.763 36.586-.197-.099-.394-.099-.592-.099h-27.513c.592-1.085 1.184-2.17 1.874-3.254-2.564-6.015-8.875-8.58-10.749-15.285 11.932-22.385 6.41-92.105-23.864-77.411 4.24-6.213 15.383-11.341 20.511-19.033 12.82 10.256 20.512 20.019 32.74 30.965 6.706 5.917 19.723 13.115 21.103 22.78.79 5.423-2.564 18.637-3.747 24.751M223.408 135.89c5.325-14.693 26.823-34.219 44.376-31.556 7.594 1.183 17.75 8.086 12.031 17.454-29.781-6.903-44.573 12.426-53.646 32.641-7.987-1.972-4.832-12.918-2.76-18.539m181.547 62.225c8.087-3.55 22.09-.69 29.19-5.226-4.142-11.341-10.157-21.104-9.171-37.178.493 0 .986 0 1.38.099 6.706 14.003 12.524 28.795 21.104 41.122-5.621 13.312-42.996 25.047-42.503 1.183m-95.457 2.663c-6.706-10.75-18.737-32.05-14.3-44.672 6.41 11.735 8.482 24.061 17.554 32.838 4.043 3.945 12.03 8.875 8.086 19.92-.887 2.662-7.692 8.48-11.538 9.565-14.2 4.24-47.235.888-36.092-16.863 11.735.69 27.513 7.692 36.29-.788m26.921 69.029c3.747 6.508 1.38 18.44 11.932 20.314 19.92 3.353 42.996-12.13 57.295-17.553 8.875-14.99-.79-20.413-8.777-30.077-16.37-19.723-38.262-44.179-37.473-73.664 6.607-4.832 7.199 7.297 8.086 9.565 8.58 20.019 29.979 45.56 45.658 62.62 3.846 4.24 10.157 8.283 10.848 11.044 2.07 8.087-5.325 17.75-4.438 23.175-21.399 13.707-45.165 28.696-80.271 25.245-7.297-6.608-10.157-21.104-2.86-30.67m-198.508-9.073c-6.706-3.845-8.284-20.708-16.173-21.103-11.242-.69-9.171 21.892-9.171 35.008-7.692-7.002-9.072-28.697-3.451-39.741-6.509-3.156-9.369 3.55-12.919 5.818 4.635-33.627 49.11-15.58 41.714 20.018m295.445 28.401c-9.96 18.934-24.062 39.84-53.251 40.431-.592-6.114-1.085-15.383 0-19.13 22.385-2.17 36.092-13.51 53.25-21.3m-139.932 12.228c18.638 9.763 52.856 10.848 78.2 10.059 1.38 5.522 1.282 12.425 1.38 19.13-32.542 1.776-71-6.31-79.58-29.189m90.921 46.052c-1.676 4.24-5.226 9.172-9.664 10.947-11.932 4.832-44.968 8.579-61.535-.296-10.551-5.621-17.257-18.244-23.075-25.64-2.761-3.55-16.666-12.72-.197-12.72 12.918 32.246 57.195 28.597 94.471 27.71"/></svg>