<svg xmlns="http://www.w3.org/2000/svg" viewBox="0 0 512 512"><!--! Font Awesome Free 7.0.1 by @fontawesome - https://fontawesome.com License - https://fontawesome.com/license/free (Icons: CC BY 4.0, Fonts: SIL OFL 1.1, Code: MIT License) Copyright 2025 Fonticons, Inc.--><path fill="currentColor" d="m26.239 219.984.399-.498c0 .2 0 .299-.1.498zm459.522 15.464c0-43.897-7.781-84.302-28.732-122.114C416.125 40.106 343.694.3 258.893.3 119.32 0 41.103 105.253 26.638 219.486c42.3-61.157 116.826-121.117 219.884-124.708 0 0 109.444 0 99.168 104.754H170.3c6.386-37.312 18.458-58.862 34.22-78.715-74.824 34.818-121.515 95.875-120.517 187.86.798 71.332 49.983 144.461 120.518 171.597 83.205 31.726 192.349 7.184 239.538-21.25V354.868c-80.71 56.368-270.266 60.758-271.663-67.442H485.76z"/></svg>