<svg xmlns="http://www.w3.org/2000/svg" viewBox="0 0 512 512"><!--! Font Awesome Free 7.0.1 by @fontawesome - https://fontawesome.com License - https://fontawesome.com/license/free (Icons: CC BY 4.0, Fonts: SIL OFL 1.1, Code: MIT License) Copyright 2025 Fonticons, Inc.--><path fill="currentColor" d="m84.07 285.5 24.67-83.59c6.306-21.317 6.865-32.414.159-54.929l-8.064-27.065h35.209l48.7 165.584 36.487-124.148c10.618-36.166 16.845-41.436 47.423-41.436H374.68c-19.32 34.25-39.36 68.022-59 102.113 2.076.639 4.151 1.437 6.147 2.235 13.812 5.669 25.708 15.489 33.532 28.343 8.942 14.77 13.413 32.095 13.413 52.054 0 24.59-6.547 45.348-19.64 62.114-11.577 14.85-27.943 23.552-46.466 24.91 0 .239-4.151.319-4.63.319-31.696-.08-56.526-25.628-66.346-54.849h34.25c2.795 4.232 5.43 8.543 8.943 12.375 6.467 5.828 14.77 8.702 23.392 8.862 10.459 0 18.602-7.265 23.872-15.808 6.467-10.538 9.74-23.153 9.74-37.923 0-10.459-1.437-19.4-4.232-26.825a53 53 0 0 0-2.395-5.27c-1.117-2.075-2.315-4.071-3.752-5.908-8.064-10.538-23.393-15.728-37.923-15.808H261.07l56.126-97.402h-28.423c-34.41 0-28.661-4.31-40.238 34.57l-60.437 203.826h-3.353l-50.378-168.538L83.99 391.844h-3.353L0 119.837h35.288L83.99 285.42zm288.853 24.27c.239.48 9.021 16.208 14.61 24.192 5.668 8.063 15.808 16.686 19.8 19.64 3.991 2.954 15.249 9.98 27.384 11.097 12.135 1.198 18.602.16 30.897-5.27 12.295-5.428 22.275-16.286 27.864-22.434 5.508-6.067 14.29-21.795 14.53-22.115l2.635 13.413c1.357 7.186-.799 18.922-3.274 23.952-3.433 6.866-6.067 10.778-11.177 16.207-4.87 5.189-13.333 10.778-17.005 13.093-3.673 2.315-18.443 12.055-40 8.223-21.555-3.832-35.687-20.678-43.032-30.498-7.824-10.538-13.333-22.594-15.169-26.506-3.034-6.706-7.904-22.514-8.063-22.993m135.484-174.046c2.635 16.207-.08 22.914-7.265 36.726l-10.14 19.32c-.239-.479-7.983-16.526-20.677-25.468-10.858-7.664-17.964-9.34-28.981-7.026-14.212 2.954-30.339 19.96-37.365 40.877-8.383 25.07-8.542 37.205-8.782 48.382-.479 17.884 2.316 28.422 2.316 28.422s-12.295-22.753-12.136-55.966c.08-23.712 3.832-45.268 14.77-66.505 9.66-18.682 24.031-29.86 36.805-31.216 13.174-1.358 23.632 5.03 31.696 11.895 8.463 7.186 17.006 22.994 17.006 22.994l19.88-39.76 2.873 17.405z"/></svg>