<svg xmlns="http://www.w3.org/2000/svg" viewBox="0 0 512 512"><!--! Font Awesome Free 7.0.1 by @fontawesome - https://fontawesome.com License - https://fontawesome.com/license/free (Icons: CC BY 4.0, Fonts: SIL OFL 1.1, Code: MIT License) Copyright 2025 Fonticons, Inc.--><path fill="currentColor" d="m85.76 278-15.2-33.44H28.88L13.68 278H0l49.76-105.12L99.52 278zm-36-78.48-15.68 34h31.36zm90.16 81.92L90.16 176.32h13.68l36.08 76.8 36.08-76.8h13.6zM204.4 278V176.32h12.4V278zm167.28-92.48V278h-13.84v-92.48h-32.96v-9.2h79.68v9.2zM512 226.24q0 11.04-4.08 20.64c-2.72 6.4-6.56 12.08-11.36 16.88s-10.48 8.64-16.88 11.36q-9.6 4.08-20.64 4.08t-20.64-4.08c-6.4-2.72-12.08-6.56-16.88-11.36s-8.64-10.4-11.36-16.88q-4.08-9.6-4.08-20.64t4.08-20.64c2.72-6.4 6.56-12.08 11.36-16.88s10.4-6.72 16.88-9.52q9.6-4.08 20.64-4.08t20.64 4.08c6.4 2.72 12.08 4.64 16.88 9.52 4.8 4.8 8.56 10.48 11.36 16.88q4.08 9.6 4.08 20.64m-12.4 0c0-5.84-1.04-11.2-3.12-16.24s-4.96-9.36-8.64-13.04-8-6.56-12.96-8.72-10.24-3.2-15.84-3.2-10.88 1.04-15.84 3.2-9.28 5.04-12.96 8.72-6.56 8-8.64 13.04-3.12 10.48-3.12 16.24c0 5.84 1.04 11.2 3.12 16.24s4.96 9.36 8.64 13.04 8 6.56 12.96 8.72 10.24 3.2 15.84 3.2 10.88-1.04 15.84-3.2 9.28-5.04 12.96-8.72 6.56-8 8.64-13.04 3.12-10.48 3.12-16.24m-75.84 77.36v-5.04l71.12-8-194.32 10.72c.48-1.76.88-3.68 1.12-5.76.24-1.6.4-3.36.48-5.2l51.84-6.48-51.92 1.52c0-.32-.08-.56-.08-.88-2.24-13.76-20.4-18.96-20.4-18.96l-.88-21.04h19.04l15.2 33.44h13.68L278.88 172.8l-49.76 105.12h13.68l15.2-33.44h18.88L276 265.6s-18.16 5.2-20.4 18.96c-.08.24-.08.56-.08.88l-51.92-1.52 51.84 6.48c.08 1.84.24 3.52.48 5.2.24 2.08.64 4 1.12 5.76l-194.32-10.8 71.12 8v5.04c-4.72.72-8.4 4.8-8.4 9.76 0 5.44 4.48 9.92 9.92 9.92s9.92-4.48 9.92-9.92c0-4.96-3.68-9.04-8.4-9.76v-4.64l64.24 7.2v4.32c-4.56.88-7.92 4.96-7.92 9.68 0 5.44 4.48 8.16 9.92 8.16s9.92-2.72 9.92-8.16c0-4.8-3.44-8.8-7.92-9.68v-3.92l22.72 2.56v18.96h-4.72v11.12h4.72v-5.28h4v5.28h4.72v-11.04h-4.72V309.6l30.64 3.44c6.48 9.12 15.2 10.88 15.2 10.88l-.08 5.36-4.08.16-.08 9.68h3.28l.08-4h4.16l.08 4h3.28l-.08-9.68-4.08-.16-.08-5.36s8.72-1.68 15.2-10.88l30.64-3.44v18.56h-4.72v11.04h4.72v-5.28h4v5.28h4.72v-11.04h-4.72V309.2l22.72-2.56v3.92c-4.56.88-7.92 4.96-7.92 9.68 0 5.44 4.48 8.16 9.92 8.16s9.92-2.72 9.92-8.16c0-4.8-3.44-8.8-7.92-9.68v-4.32l64.24-7.2v4.64c-4.72.72-8.4 4.8-8.4 9.76 0 5.44 4.48 9.92 9.92 9.92s9.92-4.48 9.92-9.92c-.16-5.04-3.76-9.12-8.56-9.84m-160.64-70.08 15.68-34 15.68 34h-14.32l-1.36-32.24-1.36 32.24z"/></svg>