<svg xmlns="http://www.w3.org/2000/svg" viewBox="0 0 512 512"><!--! Font Awesome Free 7.0.1 by @fontawesome - https://fontawesome.com License - https://fontawesome.com/license/free (Icons: CC BY 4.0, Fonts: SIL OFL 1.1, Code: MIT License) Copyright 2025 Fonticons, Inc.--><path fill="currentColor" d="m512 241.03-2.548 22.455-27.471 1.831-1.593 14.413 27.471-1.832-2.548 22.455-27.391 1.752-1.832 16.005 27.392-1.752-2.389 20.783-51.518 3.264 10.112-90.137-37.663 91.89-25.401 1.592-18.951-93.8 24.127-1.593 10.829 63.223 25.241-65.612zM342.236 347.173l22.534-1.434 10.272-95.631-22.614 1.513zM131.384 360.39l-15.447-28.666-2.787 29.78-22.455 1.354 2.15-23.171c-8.76 14.333-25.48 27.312-45.308 28.506C21.42 369.787 0 351.552 2.627 321.851c2.071-23.33 21.261-50.005 53.749-52.076 30.019-1.91 37.902 18.474 40.848 22.933l2.23-24.525 30.975-1.99c16.005-1.036 30.815 2.945 33.841 18.87l2.07-21.18 51.598-3.344-2.15 22.216-28.984 1.91-1.353 14.254 28.984-1.832-2.15 22.216-28.984 1.832-1.513 15.845 28.904-1.831-1.672 16.562 43.795-93.322 18.951-1.274 25.56 88.067 7.087-68.16-17.757 1.114 2.31-22.216 59.72-3.901-2.39 22.295-19.349 1.274-7.723 73.177-46.184 2.946-3.424-12.421-31.373 1.99-6.37 12.98zM96.11 304.493l-21.021 1.353c-5.335-9.873-11.466-13.218-20.942-12.58-15.129.955-26.516 13.934-27.55 26.515-1.115 12.74 5.812 25.879 22.852 24.844 10.192-.637 16.96-6.848 23.012-15.05l21.5-1.354zm44.671-6.132c.956-10.271-6.052-10.829-20.782-9.873l-2.15 22.693c11.307-.716 21.897-1.672 22.932-12.82m16.801 56.376 4.619-47.776c-3.982 10.75-11.705 16.801-22.216 21.18zm107.815-35.832-6.29-30.099-12.582 31.294zm-135.445-59.401-3.424-13.935-31.532 2.07-6.45 14.492-25.401 1.672 45.387-97.065 19.031-1.274 24.445 81.22 7.884-83.37 21.499-1.433 30.099 50.643 5.175-53.032 22.694-1.513-3.185 32.807c5.892-10.75 18.234-35.593 50.643-37.823 32.248-2.23 41.724 23.33 42.52 24.127l2.628-25.48 31.293-2.15c10.113-.717 22.136.238 28.905 7.723l-3.504-9.475 25.64-1.752 10.272 34.399 18.314-36.39 24.684-1.752-34.717 62.428-3.822 35.274-22.614 1.513 3.822-35.274-12.581-34.24c.796 17.757-7.326 31.93-25.48 39.495l20.065 30.895-28.984 1.911-15.288-29.302-3.185 30.497-22.614 1.513 2.628-25.083c-5.335 7.405-15.687 28.188-47.458 30.258-20.862 1.354-36.31-8.201-44.113-31.213l-3.185 32.09-19.907 1.273-29.94-50.404-5.016 52.713zm220.247-65.374c8.122-.557 13.935-1.672 17.2-3.424 3.583-1.911 5.574-5.096 6.051-9.635.478-4.22-.477-7.007-2.707-8.281-2.866-1.672-8.44-2.23-18.234-1.592zm-86.872 27.63c4.459 4.698 10.112 6.769 16.96 6.291 3.743-.239 7.246-1.433 10.59-3.265 4.38-2.388 8.441-6.37 12.024-11.386l-27.232 1.831 1.91-19.03 50.245-3.425.956-9.555-24.844 1.672c-3.264-2.946-6.21-5.255-8.838-6.45-3.185-1.353-6.45-2.229-9.715-1.99-6.37.398-12.183 2.866-17.518 7.326-6.13 5.096-9.555 11.545-10.271 19.428-.876 7.645 1.114 13.776 5.733 18.553m-160.289 6.53 18.951-1.274-6.609-29.94z"/></svg>