<svg xmlns="http://www.w3.org/2000/svg" viewBox="0 0 512 512"><!--! Font Awesome Free 7.0.1 by @fontawesome - https://fontawesome.com License - https://fontawesome.com/license/free (Icons: CC BY 4.0, Fonts: SIL OFL 1.1, Code: MIT License) Copyright 2025 Fonticons, Inc.--><path fill="currentColor" d="M450 308.435c33.74-34.783 50.522-69.565 50.87-100.957.695-56.956-51.653-102.782-147.305-117.391C241.652 72.957 102.695 103.565 0 161.739c45.217-23.043 96.174-41.913 148.435-50.609 64.782-17.826 133.043-22.087 192.435-12.87C473.478 118.958 512 209.13 426.783 299.74c-8.87 9.39-19.13 18.347-30.435 26.608L265.13 129.478 99.74 377.74c-57.044-25.565-66.523-78.435-16.61-131.478 18.087-19.304 42-36.435 69.13-50.522 17.392-10.609 34.523-19.652 53.914-26.696-56.609 17.653-106.696 46-140.522 80.783-24.087 24.87-36 49.652-36.26 72.087-.435 30.522 20.347 56.609 59.478 72.174l-30 44.956h88.347l19.13-29.913c19.305.87 39.392 0 59.653-2.347l-19.826 32.26H324l-28.348-46.173c16.174-4.61 32.087-10 47.391-16.261l39.914 62.434h88.347l-63.826-96c16.087-10.521 30.435-22.173 42.522-34.608m-163.13 70-21.74-35.305-28.434 46.348c-20.348 3.044-40.609 4.435-60.174 3.826l88.608-138.521 68.435 106.956a396 396 0 0 1-46.695 16.696"/></svg>