<svg xmlns="http://www.w3.org/2000/svg" viewBox="0 0 512 512"><!--! Font Awesome Free 7.0.1 by @fontawesome - https://fontawesome.com License - https://fontawesome.com/license/free (Icons: CC BY 4.0, Fonts: SIL OFL 1.1, Code: MIT License) Copyright 2025 Fonticons, Inc.--><path fill="currentColor" d="M256 19.378c141.422 0 256 90.4 256 201.866S397.422 423.111 256 423.111c-15.556 0-30.756-1.067-45.511-3.2-14.756 10.4-100.089 70.311-108.178 71.467 0 0-3.289 1.244-6.133-.356-2.845-1.6-2.311-5.955-2.311-5.955.889-5.867 22.222-79.29 26.133-92.89C47.911 356.534 0 293.245 0 221.157 0 109.689 114.578 19.378 256 19.378M76.622 160.888c-8 0-14.489 6.49-14.489 14.49s6.49 14.489 14.49 14.489h23.021V277.6c0 7.822 6.667 14.133 14.756 14.133s14.756-6.31 14.756-14.133v-87.733h23.022c8 0 14.489-6.49 14.489-14.49s-6.49-14.488-14.49-14.488H76.534zm125.156 0c-9.6.179-17.156 7.468-19.645 14.579l-35.289 92.977c-4.444 13.956-.533 19.112 3.467 20.978 2.845 1.334 6.133 2.045 9.422 2.045 6.134 0 10.845-2.49 12.267-6.49l7.289-19.2h45.067l7.288 19.112c1.423 4 6.134 6.489 12.267 6.489 3.289 0 6.489-.711 9.422-2.045 4.09-1.866 8-7.022 3.467-20.977l-35.289-92.89c-2.489-7.11-10.044-14.4-19.733-14.577m160.8 0c-8.178 0-14.756 6.668-14.756 14.756v101.067c0 8.178 6.667 14.756 14.756 14.756s14.755-6.667 14.755-14.756v-32.178l5.156-5.155 34.578 45.866c2.844 3.734 7.11 5.867 11.822 5.867 3.2 0 6.311-.978 8.889-2.933 3.11-2.4 5.155-5.867 5.689-9.778s-.445-7.822-2.845-10.933l-36.355-48.178 33.689-33.6c2.31-2.311 3.466-5.511 3.288-8.978-.177-3.467-1.777-6.755-4.355-9.333-2.756-2.756-6.489-4.356-10.133-4.356-3.2 0-6.045 1.156-8.178 3.29l-41.156 41.244v-31.734c0-8.178-6.666-14.755-14.755-14.755zm-81.156 0c-8.266 0-15.022 6.668-15.022 14.756v100.267c0 7.467 6.311 13.511 14.133 13.6h47.378c7.822 0 14.133-6.133 14.133-13.6s-6.4-13.511-14.133-13.511h-31.378v-86.756c0-8.177-6.755-14.755-15.11-14.755m-64.889 78.756h-29.51l14.755-41.866z"/></svg>