<svg xmlns="http://www.w3.org/2000/svg" viewBox="0 0 512 512"><!--! Font Awesome Free 7.0.1 by @fontawesome - https://fontawesome.com License - https://fontawesome.com/license/free (Icons: CC BY 4.0, Fonts: SIL OFL 1.1, Code: MIT License) Copyright 2025 Fonticons, Inc.--><path fill="currentColor" d="M256 0C114.58 0 0 114.58 0 256s114.58 256 256 256 256-114.58 256-256S397.42 0 256 0m176.826 163.716-47.071 106.839c-2.478 5.677-7.123 8.464-13.42 8.464-23.741 0-47.483.104-71.225 0-5.265 0-8.465 1.962-10.633 6.916-10.529 24.362-21.264 48.517-32 72.775-1.548 3.613-4.232 5.47-8.154 5.47H108.077c-3.2 0-5.78-1.135-7.948-3.509-11.561-12.697-23.226-25.394-34.787-38.09-2.787-3.097-2.89-6.4-1.239-10.013 8.98-20.13 17.858-40.362 26.736-60.594 13.316-30.348 26.735-60.593 39.948-90.942 1.755-4.026 4.439-5.884 8.774-5.884 14.658.104 29.42 0 44.078 0 6.4 0 9.496 4.955 6.916 10.942a68449 68449 0 0 0-42.013 95.278l-17.652 40.258c-4.025 9.29 7.33 12.387 11.355 5.78.207-.412-1.445 4.336 30.968-69.883 1.445-3.2 3.51-4.542 7.02-4.542 15.69.103 31.38 0 47.07 0 5.78 0 8.155 3.716 5.884 8.98-8.568 19.613-17.239 39.123-25.806 58.736-5.162 11.768 8.36 12.903 11.664 5.47 0-.102 28.8-65.341 33.239-75.56 2.064-4.749 5.574-6.71 10.632-6.71 27.252.103 54.607 0 81.858 0 12.8 0 14.349-14.039 4.026-14.039h-78.245c-6.503 0-8.052-2.58-5.471-8.568 5.987-13.522 11.974-26.942 17.858-40.464 1.755-4.13 4.645-5.987 9.084-5.987 23.845.103 26.839 0 135.02 0 6.296 0 8.257 2.89 5.78 8.567z"/></svg>