<svg xmlns="http://www.w3.org/2000/svg" viewBox="0 0 512 512"><!--! Font Awesome Free 7.0.1 by @fontawesome - https://fontawesome.com License - https://fontawesome.com/license/free (Icons: CC BY 4.0, Fonts: SIL OFL 1.1, Code: MIT License) Copyright 2025 Fonticons, Inc.--><path fill="currentColor" d="M483.958 2.676c-29.77 7.582-75.93 31.777-127.777 75.261-34.453-19.512-73.366-29.77-113.059-29.77-128.112 0-231.916 103.805-231.916 231.917C11.206 408.195 115.01 512 243.122 512c128.111 0 231.916-103.805 231.916-231.916.112-60.32-23.414-118.3-65.45-161.45a172.4 172.4 0 0 0-18.954 30.55c32.223 36.015 49.951 82.62 50.063 130.9 0 108.933-88.53 197.463-197.464 197.463a195.9 195.9 0 0 1-97.672-26.09c92.432-119.638 168.14-42.147 205.491-252.656 6.467-36.348 31.22-105.142 140.711-178.62 9.031-6.02 2.676-20.181-7.805-17.505M115.01 429.937a196.4 196.4 0 0 1-51.066-67.345c-11.93-25.867-18.174-54.076-18.174-82.508C45.77 171.15 134.3 82.62 243.233 82.62c29.659 0 58.872 6.802 85.408 19.847-73.589 69.24-141.491 170.48-213.63 327.582z"/></svg>