<svg xmlns="http://www.w3.org/2000/svg" viewBox="0 0 512 512"><!--! Font Awesome Free 7.0.1 by @fontawesome - https://fontawesome.com License - https://fontawesome.com/license/free (Icons: CC BY 4.0, Fonts: SIL OFL 1.1, Code: MIT License) Copyright 2025 Fonticons, Inc.--><path fill="currentColor" d="M256.571 137.943c1.715-20.114 5.6-60.229 56.915-60.229H426.17c23.658 0 36.686-8.914 36.686-24.685V38.97c0-13.942 10.629-25.257 24.572-25.257S512 25.03 512 38.971v41.715c0 49.028-24.571 70.857-76.343 70.857H320.8c-34.4 0-37.714 16.8-37.714 30.971 0 1.486-.115 2.857-.229 4.229-.8 14.057-12.457 25.371-26.743 25.371s-25.943-11.2-26.743-25.371c-.114-1.372-.228-2.743-.228-4.229 0-14.057-3.429-30.971-37.714-30.971H76.343C24.57 151.543 0 129.714 0 80.686V38.97C0 25.03 10.743 13.714 24.686 13.714S49.257 25.03 49.257 38.971V53.03c0 15.771 13.029 24.685 36.686 24.685h112.686c51.2 0 55.2 40.115 56.914 60.229zM256 498.286c13.143 0 24.457-8 29.371-18.629C286.63 477.6 396.343 285.83 397.6 283.771c13.6-22.4-3.657-50.628-31.086-50.628-15.885 0-26.628 7.314-34.057 23.2L256 390.857l-76.457-134.514c-7.314-15.886-18.172-23.2-34.057-23.2-27.429 0-44.686 28.114-31.086 50.628 1.257 2.172 110.971 193.829 112.229 195.886 4.914 10.629 16.228 18.629 29.371 18.629"/></svg>