<svg xmlns="http://www.w3.org/2000/svg" viewBox="0 0 512 512"><!--! Font Awesome Free 7.0.1 by @fontawesome - https://fontawesome.com License - https://fontawesome.com/license/free (Icons: CC BY 4.0, Fonts: SIL OFL 1.1, Code: MIT License) Copyright 2025 Fonticons, Inc.--><path fill="currentColor" d="M458.495 315.19c-57.468 142.575-195.142 56.32-195.142 56.32C221.113 456.826 151.337 511.687 70.818 512c-16.792 0-17.313-25.449 0-25.449 67.169-.313 125.68-44.535 163.957-114.832-42.866 16.583-123.697 29.1-168.546-85.733 113.685-46.83 165.939 11.681 185.964 47.455 10.326-25.448 17.73-53.087 22.529-83.125 0 0-145.705 22.841-155.926-102.317 124.219-49.959 159.159 79.997 159.159 79.997 1.669-17.418 3.442-54.86 3.442-55.695 0 0-110.87-76.868-39.738-172.301 129.956 44.848 64.04 169.38 64.04 169.38.52 1.67.52 24.823 0 34.836 0 0 47.142-92.825 142.262-59.972-4.38 139.76-148 110.974-148 110.974-4.588 28.577-11.68 55.695-20.859 80.83 0 0 86.568-95.745 179.393-20.859"/></svg>