<svg xmlns="http://www.w3.org/2000/svg" viewBox="0 0 512 512"><!--! Font Awesome Free 7.0.1 by @fontawesome - https://fontawesome.com License - https://fontawesome.com/license/free (Icons: CC BY 4.0, Fonts: SIL OFL 1.1, Code: MIT License) Copyright 2025 Fonticons, Inc.--><path fill="currentColor" d="M512 256c0 141.42-114.58 256-256 256-26.426 0-51.82-4.026-75.768-11.458 10.426-17.032 26.013-44.903 31.794-67.097 3.097-11.974 15.897-60.903 15.897-60.903 8.36 15.897 32.722 29.42 58.632 29.42 77.213 0 132.851-71.02 132.851-159.278 0-84.542-69.058-147.82-157.832-147.82-110.451 0-169.187 74.117-169.187 154.942 0 37.575 20.026 84.336 51.923 99.2 4.851 2.271 7.432 1.24 8.567-3.406.826-3.51 5.162-20.955 7.123-29.006.62-2.581.31-4.852-1.755-7.33-10.426-12.903-18.89-36.438-18.89-58.425 0-56.465 42.735-111.071 115.613-111.071 62.864 0 106.942 42.838 106.942 104.155 0 69.264-34.994 117.264-80.516 117.264-25.084 0-43.975-20.748-37.884-46.245 7.225-30.452 21.161-63.277 21.161-85.265 0-19.612-10.53-36.025-32.413-36.025-25.703 0-46.348 26.529-46.348 62.142 0 22.71 7.638 37.987 7.638 37.987s-25.29 107.148-29.935 127.174c-5.161 22.09-3.097 53.264-.93 73.497C67.51 457.187 0 364.49 0 256 0 114.58 114.58 0 256 0s256 114.58 256 256"/></svg>