<svg xmlns="http://www.w3.org/2000/svg" viewBox="0 0 512 512"><!--! Font Awesome Free 7.0.1 by @fontawesome - https://fontawesome.com License - https://fontawesome.com/license/free (Icons: CC BY 4.0, Fonts: SIL OFL 1.1, Code: MIT License) Copyright 2025 Fonticons, Inc.--><path fill="currentColor" d="M493.97 302.985c-9.6-9.678-23.18-14.985-37.775-13.424-33.795-.78-38.79-27.239-29.268-77.112 17.795-44.878-11.63-102.634-68.215-102.088-60.41.546-63.766 64-102.166 64-37.541 0-42.146-63.454-102.166-64-56.897-.624-85.931 57.21-68.214 102.088 9.522 49.873 4.527 76.331-29.268 77.112-16.547-1.795-28.878 5.073-41.366 17.561C0 322.498.468 381.112 48.78 387.2c36.761 4.605 63.688-33.483 47.766-68.527-36.917-80.936 145.093-82.81 114.342-6.4a1.1 1.1 0 0 0-.234.312c-20.917 33.405 5.307 76.02 45.892 74.303 40.664 1.639 66.654-41.054 45.893-74.303a1.1 1.1 0 0 0-.234-.312c-30.751-76.41 151.258-74.536 114.341 6.4-3.59 7.805-5.229 16.625-4.448 25.756 3.824 41.678 53.62 57.834 81.873 27.473 13.892-11.55 18.029-51.2 0-68.917m-237.19-14.907h-.468c-33.873 0-49.014-29.268-49.014-49.015 0-27.083 22.01-49.014 49.014-49.014h.468c27.083 0 49.015 21.931 49.015 49.014 0 19.513-14.985 49.015-49.015 49.015"/></svg>