<svg xmlns="http://www.w3.org/2000/svg" viewBox="0 0 512 512"><!--! Font Awesome Free 7.0.1 by @fontawesome - https://fontawesome.com License - https://fontawesome.com/license/free (Icons: CC BY 4.0, Fonts: SIL OFL 1.1, Code: MIT License) Copyright 2025 Fonticons, Inc.--><path fill="currentColor" d="M481.416 172.022c-10.77-25.91-32.616-53.853-49.686-62.692 13.92 27.332 22.049 54.766 25.097 75.19 0 .1 0 .304.102.406-28.044-69.906-75.596-98.052-114.41-159.32C327.278 1.523 331.444 0 329.209.507l-.102.102c-47.451 26.418-76.51 79.66-83.928 124.672-16.867.914-33.429 5.08-48.67 12.295a6.15 6.15 0 0 0-3.15 3.048c-.61 1.32-.914 2.845-.61 4.369.204.813.61 1.626 1.118 2.337a6.2 6.2 0 0 0 1.93 1.727 6.9 6.9 0 0 0 2.44.813c.812.102 1.726 0 2.54-.305l.507-.203c15.75-7.417 32.921-11.38 50.296-11.482 63.81-.61 98.763 44.708 109.33 63.302-13.21-9.348-36.985-18.493-59.745-14.53 89.11 44.606 65.232 197.626-58.323 192.241-60.457-2.642-98.661-51.82-102.116-92.26 0 0 11.38-42.573 81.896-42.573 7.62 0 29.365-21.236 29.77-27.434-.1-2.032-43.182-19.204-60.05-35.766-8.94-8.84-13.31-13.107-17.07-16.359a76 76 0 0 0-6.4-4.877c-5.69-19.813-5.894-40.643-.712-60.558-25.503 11.584-45.317 29.873-59.643 46.13h-.102c-9.856-12.396-9.145-53.445-8.535-62.082-.101-.508-7.316 3.76-8.332 4.369-8.738 6.198-16.765 13.107-24.182 20.728-16.562 16.867-44.81 51.007-56.392 102.827-4.573 20.728-6.91 45.113-6.91 53.14C4.064 401.045 115.02 512 251.884 512c122.54 0 226.586-88.602 244.265-205.857 11.787-77.933-14.936-133.207-14.936-134.122z"/></svg>