<svg xmlns="http://www.w3.org/2000/svg" viewBox="0 0 512 512"><!--! Font Awesome Free 7.0.1 by @fontawesome - https://fontawesome.com License - https://fontawesome.com/license/free (Icons: CC BY 4.0, Fonts: SIL OFL 1.1, Code: MIT License) Copyright 2025 Fonticons, Inc.--><path fill="currentColor" d="M255.543 55.2C184.457 53.486 118.17 90.514 82.17 151.771c-36 61.258-36 137.258.115 198.515 36 61.257 102.4 98.057 173.485 96.343 71.086 1.714 137.372-35.315 173.372-96.572s36-137.257-.114-198.514c-36-61.257-102.4-98.057-173.486-96.343m90.743 274.286c-3.657 15.543-15.429 24.228-31.2 27.2-13.829 2.514-25.372 3.2-36.457-5.715-13.486-11.428-13.715-30.171-1.6-42.057 9.6-9.143 23.2-10.971 43.428-14.628 3.429-.572 6.4-1.372 8.8-4.229 3.657-4.114 2.514-2.286 2.514-92.343 0-6.4-3.085-8.114-9.6-6.971-4.571.8-105.028 19.543-105.028 19.543-5.714 1.257-7.657 2.971-7.657 9.485 0 132.686.571 126.629-1.372 135.429-2.4 10.286-8.685 18.057-17.028 22.4-9.486 5.257-26.743 7.543-35.886 5.943-24.457-4.572-33.029-32.8-16.457-49.029 9.6-9.143 23.2-10.971 43.428-14.628 3.429-.572 6.4-1.372 8.8-4.229 5.715-6.514 1.029-145.143 2.972-152.8.457-2.971 1.714-5.486 4-7.314 2.4-1.943 6.628-3.086 7.657-3.086C321.029 130.743 335.086 128 337.143 128c6.514-.457 10.286 3.429 10.286 9.943-.115 194.971.457 184.457-1.143 191.543M394.514 0H117.486C52.457 0 0 52.457 0 117.486v277.028C0 459.543 52.457 512 117.486 512h277.028C459.657 512 512 459.543 512 394.514V117.486C512 52.457 459.543 0 394.514 0M255.543 30.857c121.486 0 220 98.514 220 220s-98.514 220-220 220-220-98.514-220-220 98.514-220 220-220"/></svg>