<svg xmlns="http://www.w3.org/2000/svg" viewBox="0 0 512 512"><!--! Font Awesome Free 7.0.1 by @fontawesome - https://fontawesome.com License - https://fontawesome.com/license/free (Icons: CC BY 4.0, Fonts: SIL OFL 1.1, Code: MIT License) Copyright 2025 Fonticons, Inc.--><path fill="currentColor" d="M512 73.143C512 32.8 479.2 0 438.857 0H73.143C32.8 0 0 32.8 0 73.143v365.714C0 479.2 32.8 512 73.143 512h365.714C479.2 512 512 479.2 512 438.857zM293.486 438.857c-86.286 0-105.029-63.428-105.029-100.457V235.543h-33.943c-3.885 0-7.085-3.2-7.085-7.086v-48.571c0-5.143 3.2-9.715 8.114-11.429 44.343-15.657 58.171-54.286 60.228-83.657.572-7.886 4.686-11.657 11.429-11.657h50.629c3.885 0 7.085 3.2 7.085 7.086v82.285h59.315c3.885 0 7.085 3.2 7.085 7.086V228c0 3.886-3.2 7.086-7.085 7.086h-59.543v95.2c0 24.457 16.914 38.285 48.571 25.6 3.429-1.372 6.4-2.286 9.143-1.6 2.514.571 4.114 2.4 5.257 5.6l15.772 45.943c1.142 3.657 2.285 7.657-.343 10.4-9.715 10.4-35.657 22.628-69.6 22.628"/></svg>