<svg xmlns="http://www.w3.org/2000/svg" viewBox="0 0 512 512"><!--! Font Awesome Free 7.0.1 by @fontawesome - https://fontawesome.com License - https://fontawesome.com/license/free (Icons: CC BY 4.0, Fonts: SIL OFL 1.1, Code: MIT License) Copyright 2025 Fonticons, Inc.--><path fill="currentColor" d="M456.355 377.287c33.707-39.648 53.817-89.466 53.817-143.74C510.172 104.435 396.369 0 255.942 0 115.518 0 1.829 104.548 1.829 233.548S115.631 467.21 256.058 467.21c30.85 0 61.585-5.142 90.722-15.31 1.6-.572 3.428-.572 5.141-.115s3.085 1.6 4.114 2.97c21.252 28.68 54.388 48.79 91.294 57.016 1.257.229 2.628 0 3.77-.685a4.58 4.58 0 0 0 2.171-3.2 6.9 6.9 0 0 0 0-2.17c-.114-.686-.457-1.371-.914-1.943-14.054-18.281-21.366-40.905-20.567-63.985.8-23.081 9.598-45.133 24.795-62.5l-.229.113zm-79.753-171.162L311.13 255.83l23.766 78.725c.457 1.485.457 3.085-.115 4.57-.57 1.486-1.37 2.743-2.628 3.657-1.256.914-2.742 1.37-4.341 1.37s-3.085-.456-4.342-1.37l-67.528-46.847-67.528 46.96c-1.257.915-2.742 1.372-4.342 1.372s-3.085-.457-4.342-1.371a7.06 7.06 0 0 1-2.628-3.656c-.457-1.486-.571-3.085-.114-4.57l23.766-78.726-65.47-49.703a7.06 7.06 0 0 1-2.629-3.657 7.8 7.8 0 0 1 0-4.57 7.06 7.06 0 0 1 2.628-3.656c1.257-.914 2.742-1.486 4.228-1.486l82.153-1.714 27.08-77.582c.457-1.486 1.485-2.743 2.742-3.657s2.742-1.37 4.342-1.37 3.085.456 4.341 1.37 2.171 2.171 2.743 3.657l27.08 77.582 82.153 1.714c1.6 0 3.085.457 4.341 1.371a7.06 7.06 0 0 1 2.628 3.657 7.8 7.8 0 0 1 0 4.57c-.457 1.485-1.37 2.742-2.628 3.77z"/></svg>