<svg xmlns="http://www.w3.org/2000/svg" viewBox="0 0 512 512"><!--! Font Awesome Free 7.0.1 by @fontawesome - https://fontawesome.com License - https://fontawesome.com/license/free (Icons: CC BY 4.0, Fonts: SIL OFL 1.1, Code: MIT License) Copyright 2025 Fonticons, Inc.--><path fill="currentColor" d="M9.475 167.493 0 342.047h39.994l5.102-72.7 25.418 72.7h40.723l23.231-70.514 4.373 70.514h41.452l-11.661-174.554H127.18L90.101 274.357 51.564 167.493H9.384zm256 0h-43.639v174.554h43.639s86.548.729 85.819-87.277c-.729-85.82-85.82-87.277-85.82-87.277M264.38 300.96v-93.016s41.908 3.917 42.637 46.098-42.637 46.918-42.637 46.918m217.1-67.598c6.559-10.386 9.11-22.776 7.288-34.893-4.829-32.615-50.198-31.248-50.198-31.248h-47.283v174.554h41.452S512 346.147 512 283.65c0-39.266-30.52-50.198-30.52-50.198zm-47.283-29.062s12.39-1.458 14.576 8.746c1.276 6.104-3.644 10.932-3.644 10.932h-10.932zm-.091 99.758.09-22.685v-16.58h.092s37.899-4.282 37.534 20.407c-.273 23.413-37.625 18.858-37.625 18.858z"/></svg>