<svg xmlns="http://www.w3.org/2000/svg" viewBox="0 0 512 512"><!--! Font Awesome Free 7.0.1 by @fontawesome - https://fontawesome.com License - https://fontawesome.com/license/free (Icons: CC BY 4.0, Fonts: SIL OFL 1.1, Code: MIT License) Copyright 2025 Fonticons, Inc.--><path fill="currentColor" d="M180.971 277.6c0-41.371 33.6-74.971 74.972-74.971s74.971 33.6 74.971 74.971-33.6 74.971-74.971 74.971-74.972-33.6-74.972-74.971m309.372-5.829h-.114c-.8-33.485-8.8-66.514-23.429-96.685s-35.657-56.8-61.486-78.172l-51.885 29.943c25.142 16.229 45.828 38.629 60.228 64.914s21.829 55.772 21.829 85.829c0 98.971-80.572 179.543-179.543 179.543S76.4 376.57 76.4 277.6c0-93.6 72-170.629 163.429-178.743v44.686L364.17 71.77 239.83 0v43.771C117.886 52 21.543 153.486 21.543 277.6c0 127.543 101.828 231.2 228.686 234.286V512h240.228V271.771z"/></svg>