<svg xmlns="http://www.w3.org/2000/svg" viewBox="0 0 512 512"><!--! Font Awesome Free 7.0.1 by @fontawesome - https://fontawesome.com License - https://fontawesome.com/license/free (Icons: CC BY 4.0, Fonts: SIL OFL 1.1, Code: MIT License) Copyright 2025 Fonticons, Inc.--><path fill="currentColor" d="M373.688 49.3c-36.636-22.705-77.343-33.47-117.507-33.47-75.262 0-148.715 37.903-191.14 106.652C0 227.958 32.836 366.089 138.311 431.129c105.476 65.04 243.607 32.204 308.648-73.181C512 252.472 479.163 114.25 373.688 49.3m46.858 292.365c-36.546 59.25-99.868 91.816-164.636 91.816-6.152 0-12.303-.362-18.454-.904-8.142-12.303-18.002-30.123-21.439-38.355-5.156-12.393-24.605-41.25 28.223-60.698 46.768-17.278 159.842-14.926 188.88-15.921-3.619 8.141-7.78 16.192-12.574 24.062m-181.643-78.066c-50.205-1.267-73.905-18.816-52.919-43.602s46.225-36.817 62.327-46.315c16.192-9.498 24.695-30.485-21.348-26.866-116.331 7.87-151.339 89.826-161.29 126.824-7.96-44.959-.09-92.902 25.781-134.875 55.995-90.912 175.04-119.135 265.95-63.141 67.665 41.702 100.592 118.411 89.827 192.407-22.524-.452-162.194-3.256-208.328-4.432m166.264-49.572c-20.534-5.428-51.561 10.222-78.428 24.605-26.866 14.292-28.133 7.417-28.133 7.417s36.365-25.419 45.863-31.208c9.498-5.79 28.857-12.664 12.122-22.253-2.895-1.628-6.061-2.442-9.408-2.442-16.102 0-37.54 16.915-61.06 32.203-28.495 18.544-59.07 28.314-59.07 28.314l153.329-1.447 42.063-21.168s3.257-8.594-17.278-14.021"/></svg>