<svg xmlns="http://www.w3.org/2000/svg" viewBox="0 0 512 512"><!--! Font Awesome Free 7.0.1 by @fontawesome - https://fontawesome.com License - https://fontawesome.com/license/free (Icons: CC BY 4.0, Fonts: SIL OFL 1.1, Code: MIT License) Copyright 2025 Fonticons, Inc.--><path fill="currentColor" d="M342.623 310.294c9.718-6.644 23.205-12.396 23.205-12.396s-38.378 6.942-76.557 10.115c-46.708 3.868-96.887 4.661-122.075 1.29-59.6-7.934 32.725-29.85 32.725-29.85s-35.8-2.38-79.929 18.842c-52.063 25.188 128.918 36.692 222.63 11.999m-84.69-31.833c-18.841-42.344-82.407-79.532 0-144.585C360.77 52.756 308.014 0 308.014 0c21.321 83.796-74.97 109.183-109.778 161.246-23.7 35.6 11.603 73.78 59.699 117.215M371.58 103.73c.1 0-173.74 43.435-90.738 139.032 24.495 28.164-6.445 53.55-6.445 53.55s62.177-32.13 33.617-72.292c-26.676-37.486-47.104-56.129 63.566-120.29m-6.049 268.247c-.496.992-1.19 1.785-1.983 2.578 127.231-33.419 80.424-117.91 19.635-96.49-3.273 1.19-6.148 3.372-8.132 6.248a71 71 0 0 1 10.909-2.975c30.741-6.446 74.87 41.155-20.429 90.639m46.708 61.781s14.38 11.801-15.768 21.024c-57.418 17.354-238.794 22.61-289.171.694-18.148-7.834 15.867-18.842 26.577-21.123 11.106-2.38 17.552-1.983 17.552-1.983-20.13-14.181-130.206 27.866-55.93 39.865 202.5 32.923 369.298-14.776 316.74-38.477m-221.639-41.055c-78.044 21.817 47.501 66.839 146.867 24.296a182.5 182.5 0 0 1-27.965-13.685c-44.328 8.429-64.856 9.024-105.118 4.462-33.22-3.768-13.784-15.073-13.784-15.073m178.303 96.39c-78.045 14.677-174.336 12.991-231.357 3.57 0-.099 11.702 9.62 71.797 13.487 91.432 5.851 231.853-3.272 235.125-46.51 0 0-6.347 16.363-75.565 29.453M325.665 350.06c-58.707 11.305-92.721 11.008-135.66 6.545-33.222-3.47-11.504-19.536-11.504-19.536-86.077 28.56 47.798 60.889 168.088 25.684-7.735-2.776-14.875-7.04-20.924-12.693"/></svg>