<svg xmlns="http://www.w3.org/2000/svg" viewBox="0 0 512 512"><!--! Font Awesome Free 7.0.1 by @fontawesome - https://fontawesome.com License - https://fontawesome.com/license/free (Icons: CC BY 4.0, Fonts: SIL OFL 1.1, Code: MIT License) Copyright 2025 Fonticons, Inc.--><path fill="currentColor" d="M465.207 46.575H46.575C20.833 46.575 0 67.41 0 93.15v69.7h46.575v-69.7h418.632v325.7h-162.74v46.575h162.958c25.742 0 46.575-20.834 46.575-46.575V93.15c0-25.741-21.052-46.575-46.793-46.575M0 395.18v69.7h69.7c0-38.504-31.196-69.7-69.7-69.7m0-92.714v46.248c64.245 0 116.274 52.465 116.274 116.71h46.576C162.959 375.548 89.878 302.576 0 302.467m209.534 162.959h46.575C255.564 324.172 141.253 209.86 0 209.534v46.248c115.62-.218 209.425 94.023 209.534 209.643"/></svg>