<svg xmlns="http://www.w3.org/2000/svg" viewBox="0 0 512 512"><!--! Font Awesome Free 7.0.1 by @fontawesome - https://fontawesome.com License - https://fontawesome.com/license/free (Icons: CC BY 4.0, Fonts: SIL OFL 1.1, Code: MIT License) Copyright 2025 Fonticons, Inc.--><path fill="currentColor" d="m267.448 471.608 10.598 15.797 5.299-12.298 5.299 6.999V512c21.096-7.898 21.096-66.887 25.495-97.181 4.599-31.894-.9-92.782 81.384-149.07-8.899-23.596-11.998-49.391-2.6-79.985 27.895 3.4 53.89 10.598 63.288 54.09l-30.294 8.398c11.098 22.995 16.996 46.79 13.197 72.085l-27.294-6.998-6.2 33.393-18.496-6.998-8.798 33.393-19.396-6.999 26.395 21.096 8.798-28.194 24.595 5.199 6.999-35.593 26.395 14.497c.2-19.996 6.998-58.089-8.799-84.484l26.395 5.3c4-22.096-2.4-39.193-7.898-56.69l22.395 9.699c-.4-25.095-29.894-56.79-61.588-58.489-20.196-1.1-56.688-25.195-54.089-51.89 2-19.896 17.397-42.591 43.092-49.69-43.992 36.493-9.699 67.287 5.299 73.486 4.399-11.398 17.496-69.087 0-130.175-40.393 22.895-89.683 65.087-93.182 147.771l-57.989 38.693-3.5 93.181 107.28-59.788 6.998 6.999-17.596 3.499-43.992 38.692-15.796-5.299-28.095 49.29-3.5 119.577 21.097 15.797-32.494 15.797-32.594-15.797 21.096-15.797-3.5-119.576-28.194-49.29-15.797 5.298-43.99-38.692-17.597-3.5 6.998-6.998 107.28 59.788-3.5-93.281-58.089-38.693C184.763 65.087 135.573 22.896 95.081 0c-17.496 61.088-4.399 118.777 0 130.175 14.998-6.2 49.29-36.993 5.3-73.486 25.694 7.099 41.091 29.794 43.091 49.69 2.6 26.695-33.893 50.79-54.09 51.89-31.693 1.7-61.188 33.394-61.587 58.489l22.395-9.698c-5.499 17.796-11.897 34.893-7.898 56.988l26.395-5.299c-15.797 26.395-9.099 64.388-8.799 84.384l26.395-14.497 6.999 35.593 24.595-5.3 8.798 28.195 26.395-21.095-19.396 6.998-8.798-33.393-18.497 6.998-6.199-33.393-27.294 6.998c-3.6-25.295 2.2-49.09 13.397-72.085l-30.294-8.399c9.398-43.491 35.493-50.79 63.288-54.09 9.398 30.595 6.198 56.49-2.6 80.085 82.284 56.29 76.785 117.177 81.384 149.071 4.4 30.294 4.4 89.283 25.495 97.181v-29.794l5.3-6.999 5.298 12.298 10.598-15.797 11.398 21.096 11.398-21.096zm79.184-94.982-15.897-10.498c7.499-4.399 13.798-8.398 19.397-12.297-.6 7.198-.3 13.797-3.5 22.795m28.195-49.29c-.4 10.898-.9 21.696-1.8 31.694-7.798-1.9-15.597-3.8-21.096-6.999 8.199-7.898 15.597-16.297 22.896-24.695m24.595 5.299c0-13.397-2.1-24.195-5.299-33.393-5.499 9.498-11.698 18.596-18.496 27.294l23.795 6.199zm3.5-80.884c19.396 12.797 27.794 33.693 29.893 56.289-12.297-4.5-24.595-9.298-36.992-10.598 5.099-11.998 6.598-28.095 6.998-45.691zm-1.8-45.691c.8 14.297 1.8 28.794 1.8 42.192 19.196-8.099 29.793-9.699 43.99-14.098-10.597-18.996-27.194-25.495-45.79-28.194zM165.468 376.626l15.797-10.498c-7.499-4.399-13.798-8.398-19.397-12.297.6 7.298.3 13.897 3.5 22.895zm-28.195-49.19c.4 10.898.9 21.696 1.8 31.694 7.798-1.9 15.597-3.8 21.096-6.999-8.199-7.898-15.597-16.297-22.896-24.695m-24.595 5.299c0-13.397 2-24.195 5.299-33.393 5.499 9.498 11.698 18.596 18.496 27.294l-23.795 6.199zm-3.5-80.884c-19.396 12.797-27.794 33.693-29.893 56.289 12.297-4.5 24.595-9.298 36.992-10.598-4.999-11.998-6.598-28.095-6.998-45.691zm1.8-45.691c-.8 14.297-1.8 28.794-1.8 42.191-19.196-8.098-29.794-9.698-43.99-14.097 10.597-18.996 27.194-25.495 45.79-28.094"/></svg>