<svg xmlns="http://www.w3.org/2000/svg" viewBox="0 0 512 512"><!--! Font Awesome Free 7.0.1 by @fontawesome - https://fontawesome.com License - https://fontawesome.com/license/free (Icons: CC BY 4.0, Fonts: SIL OFL 1.1, Code: MIT License) Copyright 2025 Fonticons, Inc.--><path fill="currentColor" d="M424.785 65.986c-39.86 0-73.228 25.674-83.618 64.237-18.182-58.043-65.436-64.237-84.917-64.237-19.78 0-66.735 6.293-85.217 64.237-10.39-38.563-43.358-64.237-83.618-64.237C38.462 65.986 0 99.852 0 143.11c0 28.972 4.196 33.268 77.125 233.272 22.378 60.541 67.734 69.333 92.61 69.333 39.161 0 69.931-19.481 85.815-53.948 15.885 34.766 46.655 54.247 85.817 54.247 24.975 0 70.331-9.09 92.61-69.632C510.5 167.986 511.4 170.983 511.4 149.404c.599-48.253-35.965-83.418-86.816-83.418zm26.275 114.688L385.623 357c-7.892 21.48-21.179 37.164-46.155 37.164-23.377 0-37.363-12.388-43.957-33.867L256.25 243.013h-1l-39.26 117.285c-6.994 21.48-20.88 33.567-43.958 33.567-24.976 0-38.263-15.684-46.155-37.163L60.94 181.672c-5.394-14.785-7.892-23.876-7.892-34.466 0-16.284 15.785-29.371 38.263-29.371 18.682 0 31.969 11.788 36.065 29.072l43.957 139.663h.999l44.656-136.666c5.994-19.681 16.484-32.07 38.962-32.07s32.868 12.09 38.962 32.07l44.656 136.666h1l43.956-139.663c4.096-17.184 17.384-29.072 36.065-29.072 22.179 0 38.263 13.287 38.263 35.665-.3 7.892-4.096 15.984-7.593 27.174z"/></svg>