<svg xmlns="http://www.w3.org/2000/svg" viewBox="0 0 512 512"><!--! Font Awesome Free 7.0.1 by @fontawesome - https://fontawesome.com License - https://fontawesome.com/license/free (Icons: CC BY 4.0, Fonts: SIL OFL 1.1, Code: MIT License) Copyright 2025 Fonticons, Inc.--><path fill="currentColor" d="M512 73.143C512 32.8 479.2 0 438.857 0H73.143C32.8 0 0 32.8 0 73.143v365.714C0 479.2 32.8 512 73.143 512h365.714C479.2 512 512 479.2 512 438.857zM135.2 399.086C57.486 314.97 112.571 174.97 228 174.97c15.2 0 30.4 2.4 44.686 7.658-4.915 9.6-8.343 20.114-9.6 30.971C252 208.914 240 206.743 228 206.743c-55.771 0-96.686 47.657-96.686 101.6 0 49.143 32.572 89.943 79.429 98.171 70.286-27.428 83.314-134.4 83.314-200 0-8.343 0-16.914-.686-25.257-12.8-37.6-30.4-73.828-50.514-108 30.972 20.914 47.886 71.429 50.514 107.543v.457c8.8 25.714 13.486 52.8 13.486 80 0 61.829-25.028 113.143-78.057 146.514l-2.743.229c57.143 1.143 98.514-44.114 98.514-99.657 0-13.943-2.4-27.772-7.885-40.8 10.857-2.172 21.143-6.4 30.171-12 17.486 41.828 14.4 99.771-26.057 143.543-48.457 52.8-137.143 53.257-185.6 0m178.629-186.972c25.028-13.714 56.685-35.085 71.2-60.571 1.714-3.429 4.685-9.829 5.142-13.714-14.285 31.885-50.514 56.914-84.457 64.8-5.371-8.343-8.571-17.715-8.571-27.772 0-11.771 5.943-27.543 14.743-36.114 9.485-9.029 20.571-12.457 31.885-16.114 18.286-5.829 37.143-11.772 50.858-41.029 37.142 52.8 14.971 148.914-41.486 148.914-15.2 0-28.686-8.114-39.314-18.4"/></svg>