<svg xmlns="http://www.w3.org/2000/svg" viewBox="0 0 512 512"><!--! Font Awesome Free 7.0.1 by @fontawesome - https://fontawesome.com License - https://fontawesome.com/license/free (Icons: CC BY 4.0, Fonts: SIL OFL 1.1, Code: MIT License) Copyright 2025 Fonticons, Inc.--><path fill="currentColor" d="M310.979 196.823v81.268c0 2.1-1.6 3.699-3.699 3.699h-12.995c-1.3 0-2.399-.7-2.999-1.5l-37.285-50.28v48.181c0 2.1-1.6 3.699-3.699 3.699h-12.995c-2.099 0-3.698-1.6-3.698-3.699v-81.268c0-2.1 1.6-3.698 3.698-3.698h12.895c1.1 0 2.4.6 3 1.599l37.285 50.28v-48.18c0-2.1 1.599-3.7 3.698-3.7h12.995c2.1-.1 3.799 1.6 3.799 3.5zm-93.664-3.698H204.32c-2.099 0-3.698 1.599-3.698 3.698v81.268c0 2.1 1.599 3.699 3.698 3.699h12.995c2.1 0 3.699-1.6 3.699-3.699v-81.268c0-1.9-1.6-3.698-3.699-3.698m-31.388 68.073h-35.586v-64.375c0-2.1-1.6-3.698-3.698-3.698h-12.995c-2.1 0-3.699 1.599-3.699 3.698v81.268c0 1 .3 1.8 1 2.5.7.6 1.5.999 2.499.999h52.18c2.099 0 3.698-1.6 3.698-3.699v-12.994c0-1.9-1.6-3.699-3.499-3.699zm193.625-68.073h-52.28c-1.9 0-3.698 1.599-3.698 3.698v81.268c0 1.9 1.599 3.699 3.698 3.699h52.18c2.099 0 3.698-1.6 3.698-3.699v-13.095c0-2.099-1.599-3.698-3.698-3.698h-35.486v-13.595h35.486c2.099 0 3.698-1.6 3.698-3.698V230.91c0-2.1-1.599-3.699-3.698-3.699h-35.486v-13.694h35.486c2.099 0 3.698-1.6 3.698-3.699v-12.995c-.1-1.9-1.699-3.698-3.698-3.698zM511.9 93.463v325.873c-.1 51.18-42.084 92.664-93.363 92.564H92.664C41.484 511.8 0 469.717.1 418.537V92.664C.2 41.484 42.283 0 93.463.1h325.873C470.516.2 512 42.184 511.9 93.463M441.528 233.51c0-83.368-83.668-151.241-186.328-151.241S68.873 150.14 68.873 233.508c0 74.672 66.274 137.347 155.84 149.242 21.79 4.699 19.292 12.696 14.394 42.084-.8 4.698-3.799 18.393 16.093 10.096 19.893-8.297 107.258-63.175 146.443-108.158 26.99-29.688 39.885-59.776 39.885-93.063z"/></svg>