<svg xmlns="http://www.w3.org/2000/svg" viewBox="0 0 512 512"><!--! Font Awesome Free 7.0.1 by @fontawesome - https://fontawesome.com License - https://fontawesome.com/license/free (Icons: CC BY 4.0, Fonts: SIL OFL 1.1, Code: MIT License) Copyright 2025 Fonticons, Inc.--><path fill="currentColor" d="m55.432 166.606 104.774 286.968C86.916 418.064 36.44 342.916 36.44 256c0-31.897 6.813-62.039 18.993-89.394m348.8 78.349c0-27.149-9.703-45.936-18.064-60.594-11.149-18.064-21.574-33.445-21.574-51.51 0-20.232 15.277-39.019 36.851-39.019.93 0 1.858.103 2.89.207C365.213 58.219 313.187 36.335 256 36.335c-76.697 0-144.206 39.33-183.535 98.994 5.16.206 10.012.31 14.141.31 22.917 0 58.53-2.787 58.53-2.787 11.87-.723 13.212 16.722 1.445 18.064 0 0-11.871 1.342-25.084 2.065l80 237.832L249.6 246.71l-34.168-93.73c-11.87-.722-23.02-2.064-23.02-2.064-11.87-.722-10.425-18.787 1.343-18.064 0 0 36.232 2.787 57.806 2.787 22.916 0 58.53-2.787 58.53-2.787 11.87-.723 13.212 16.722 1.444 18.064 0 0-11.87 1.342-25.083 2.065l79.38 236.077 21.884-73.187c9.29-30.348 16.516-52.13 16.516-70.916M259.82 275.2l-65.858 191.484c19.716 5.78 40.465 8.98 62.039 8.98 25.6 0 50.065-4.438 72.877-12.49a16.5 16.5 0 0 1-1.548-2.993zm188.904-124.594c.929 7.02 1.445 14.452 1.445 22.607 0 22.297-4.13 47.277-16.723 78.658l-67.097 193.961c65.342-38.09 109.213-108.8 109.213-189.832 0-38.194-9.703-74.116-26.838-105.394M0 256C0 114.58 114.58 0 256 0s256 114.58 256 256-114.58 256-256 256S0 397.42 0 256m500.232 0c0-134.916-109.316-244.232-244.232-244.232S11.768 121.084 11.768 256 121.084 500.232 256 500.232 500.232 390.916 500.232 256"/></svg>