<svg xmlns="http://www.w3.org/2000/svg" viewBox="0 0 512 512"><!--! Font Awesome Free 7.0.1 by @fontawesome - https://fontawesome.com License - https://fontawesome.com/license/free (Icons: CC BY 4.0, Fonts: SIL OFL 1.1, Code: MIT License) Copyright 2025 Fonticons, Inc.--><path fill="currentColor" d="M256 0c141.42 0 256 114.58 256 256S397.42 512 256 512 0 397.42 0 256 114.58 0 256 0m0 17.032C169.497 15.277 88.671 60.387 44.903 135.02s-43.768 167.226 0 241.858S169.497 496.62 256 494.865c86.503 1.754 167.329-43.355 211.097-117.988 43.768-74.632 43.768-167.225 0-241.858C423.329 60.387 342.503 15.277 256 17.032m28.49 22.503V64.93c31.278 4.645 60.904 16.826 86.297 35.613l17.961-17.961c-29.625-22.813-65.342-38.09-104.258-43.149zm-57.187.104c-38.813 5.058-74.529 20.438-104.155 43.251l17.858 17.962h.104c24.877-18.375 54.296-31.071 86.193-35.82v-25.29zm12.594 51.82v85.573c-10.323 2.065-20.026 6.09-28.594 11.768l-60.49-60.49-22.607 22.606L188.8 211.51c-5.677 8.464-9.703 18.167-11.871 28.49H91.355v32h85.574c2.065 10.323 6.194 19.923 11.871 28.387l-60.594 60.594 22.607 22.606 60.49-60.49a80.1 80.1 0 0 0 28.594 11.87v85.575h32v-85.574c10.322-2.065 20.026-6.297 28.49-11.871l60.594 60.593 22.606-22.606-60.593-60.594c5.677-8.464 9.806-18.064 11.87-28.387h85.575v-32h-85.574c-2.065-10.322-6.194-20.026-11.871-28.49l60.593-60.594-22.606-22.606-60.594 60.593c-8.464-5.677-18.168-9.806-28.49-11.87V91.56h-32zm189.11 31.69-17.962 17.96c18.89 25.394 31.174 55.123 35.82 86.4h25.393c-5.161-38.915-20.439-74.632-43.252-104.257zm-346.426.103a216.4 216.4 0 0 0-43.149 104.154h25.394c4.748-32 17.342-61.316 35.716-86.193l-17.755-17.961zM39.535 284.594a216.4 216.4 0 0 0 43.149 104.154l17.961-17.96a192.66 192.66 0 0 1-35.613-86.194H39.64zm407.433 0c-4.749 32-17.342 61.419-35.82 86.296l17.962 17.962c22.813-29.626 38.193-65.342 43.251-104.258zM141.11 411.252l-17.962 17.96c29.626 22.814 65.342 38.194 104.258 43.253V447.07c-32-4.748-61.419-17.342-86.296-35.716zm229.677 0c-24.877 18.374-54.297 31.07-86.297 35.819v25.394c38.916-5.059 74.53-20.44 104.258-43.149l-17.858-17.961h-.103z"/></svg>