<svg xmlns="http://www.w3.org/2000/svg" viewBox="0 0 512 512"><!--! Font Awesome Free 7.0.1 by @fontawesome - https://fontawesome.com License - https://fontawesome.com/license/free (Icons: CC BY 4.0, Fonts: SIL OFL 1.1, Code: MIT License) Copyright 2025 Fonticons, Inc.--><path fill="currentColor" d="M512 276.197c0 51.272-87.186 92.865-194.77 92.865-19.836 0-38.873-1.44-56.87-3.999q9.237.48 18.716.48c107.584 0 194.77-45.513 194.77-101.664 0-23.517-15.278-45.113-40.954-62.39C480.885 218.366 512 245.562 512 276.197M38.234 248.52c-.08-56.151 87.026-101.824 194.61-102.064 6.319 0 12.478.16 18.637.4-17.997-2.56-37.035-3.92-56.791-3.92C87.106 143.258 0 185.012.08 236.284c.08 30.635 31.275 57.831 79.428 74.628-25.836-17.197-41.194-38.874-41.274-62.39m48.153 31.915s8.398 10.559 23.436 10.559c14.318 0 22.716-9.199 22.716-20.077 0-22.397-32.155-20.077-32.155-31.755 0-4.32 4.24-7.28 9.999-7.28 4.559 0 9.038 2.08 9.038 5.28v3.12h11.359v-6.32c0-9.678-12.319-13.437-20.317-13.437-13.198 0-22.797 8.158-22.797 19.277 0 21.276 32.155 20.316 32.155 31.915 0 5.279-4.639 8.078-9.838 8.078-9.519 0-16.558-8.078-16.558-8.078zm96.624-58.87v43.513c0 9.038-5.679 14.237-14.237 14.237s-14.238-5.199-14.238-14.157v-43.594h-12.638v43.994c0 15.117 10.718 25.516 26.956 25.516 16.077 0 26.715-10.399 26.715-25.516v-43.994zm27.516 68.309h12.638v-23.597h12.398c12.798 0 21.757-9.198 21.757-22.476s-8.959-22.237-21.757-22.237h-31.275v10.719h6.24zm12.638-34.395v-23.276h10.319c6.958 0 10.958 4.559 10.958 11.518 0 7.119-4.08 11.758-11.198 11.758zm45.593 34.395h12.638v-23.597h12.398c12.798 0 21.757-9.198 21.757-22.476s-8.959-22.237-21.757-22.237H262.52v10.719h6.239zm12.558-34.395v-23.276h10.318c6.96 0 10.959 4.559 10.959 11.518 0 7.119-4 11.758-11.199 11.758zm45.673 27.836c0 4.639 1.92 6.559 6.559 6.559h30.075c4.64 0 6.56-1.92 6.56-6.56v-10.398h-11.44v4.16c0 1.36-.799 2.08-2.079 2.08h-14.877c-1.36 0-2.08-.8-2.08-2.08v-48.953c0-4.559-1.92-6.559-6.56-6.559H320.83v10.719h4.16c1.359 0 2.079.8 2.079 2.08v48.952zm50.712 0c0 4.639 1.92 6.559 6.559 6.559h30.955c4.56 0 6.56-1.92 6.56-6.56v-10.398h-11.44v4.16c0 1.36-.799 2.08-2.079 2.08H392.5c-1.36 0-2.08-.8-2.08-2.08v-16.238h22.157v-10.718h-22.157v-17.917h15.358c1.36 0 2.08.8 2.08 2.08v4.159h11.357v-10.399c0-4.559-2-6.559-6.558-6.559h-41.274v10.719h6.239v51.112zm47.113-60.79v4.718h1.28v-4.719h2.16v-.96h-5.6v.96zm4.559-.96v5.678h1.2v-4.559l1.84 4.56h1.04l1.839-4.56v4.56h1.2v-5.68h-1.84l-1.68 4.08-1.68-4.08z"/></svg>