<svg xmlns="http://www.w3.org/2000/svg" viewBox="0 0 512 512"><!--! Font Awesome Free 7.0.1 by @fontawesome - https://fontawesome.com License - https://fontawesome.com/license/free (Icons: CC BY 4.0, Fonts: SIL OFL 1.1, Code: MIT License) Copyright 2025 Fonticons, Inc.--><path fill="currentColor" d="M193.036 141.588c-31.32 0-56.837 23.674-56.837 53.153 0 29.201 25.517 53.152 56.837 53.152s56.838-23.95 56.838-53.152c0-29.479-25.517-53.153-56.838-53.153m132.1 0c-31.321 0-56.838 23.674-56.838 53.153 0 29.201 25.517 53.152 56.838 53.152 31.597 0 56.837-23.95 56.837-53.152.092-29.479-25.24-53.153-56.837-53.153m144.259 82.907-5.527 3.961V45.783C463.868 20.543 444.89 0 421.493 0H90.692C67.293 0 48.317 20.543 48.317 45.783v182.673c-1.843-1.29-3.961-2.671-5.804-3.96-13.91-9.766-23.122 3.684-14.739 16.304 16.858 20.82 48.915 46.336 97.923 66.326-51.863 176.593 126.572 204.782 123.716 114.32 0-.644.277-52.14.277-88.987 4.698 1.013 8.659 2.119 12.62 2.856 0 36.571.277 85.487.277 86.132C259.73 512 438.167 483.81 386.303 307.218c48.915-19.99 81.065-45.507 97.923-66.326 8.383-12.712-.83-26.07-14.831-16.397m-28.097 17.687c-63.47 34.453-118.189 28.65-147.944 27.36-21.832-.83-30.03 8.382-31.044 22.937-9.488-7.093-17.134-14.278-18.7-15.752-4.698-4.975-12.62-7.37-24.964-7.093-29.202 1.013-82.632 6.817-144.996-25.794V66.602c0-32.15 8.198-42.098 37.4-42.098h292.664c27.912 0 37.676 11.883 37.676 42.098v175.58z"/></svg>