<svg xmlns="http://www.w3.org/2000/svg" viewBox="0 0 512 512"><!--! Font Awesome Free 7.0.1 by @fontawesome - https://fontawesome.com License - https://fontawesome.com/license/free (Icons: CC BY 4.0, Fonts: SIL OFL 1.1, Code: MIT License) Copyright 2025 Fonticons, Inc.--><path fill="currentColor" d="m337.223 391.289-14.078 24.561-4.593 80.075c0 8.886-28.256 16.075-63.001 16.075-34.746 0-63.002-7.189-63.002-16.075l-5.79-79.276-14.878-25.36c41.136 17.273 125.804 16.674 165.342 0M141.53 138.384l13.579 125.304c5.89-19.969 20.767-46.927 39.937-55.114 6.29-2.696 12.68-2.696 18.671.899 5.192 2.995 9.585 9.285 10.084 11.781 1.198 6.49-1.997 9.086-4.493 9.086-2.995 0-5.291-4.593-6.79-7.289-4.093-7.288-10.283-7.588-16.873-2.795-6.889 4.992-12.88 13.379-17.073 20.668-5.092 8.786-9.385 18.47-11.981 28.156-1.498 5.59-2.896 14.577-.6 19.869 1 2.196 2.497 3.594 4.893 3.594 4.992 0 12.28-6.59 15.775-10.084 4.493-4.493 10.284-11.482 12.48-15.975l5.193-15.476c2.596-6.79 9.884-5.591 9.884 0 0 10.184-3.694 13.579-9.984 34.646-5.791 19.47-7.588 25.76-7.588 25.76-.7 2.795-3.395 7.488-6.29 7.488-1.199 0-2.097-.4-2.596-1.198-.999-1.398-.899-5.292-.8-6.29.2-3.196 6.291-22.166 7.29-25.161a131 131 0 0 1-6.39 6.59c-5.392 5.091-14.079 11.781-21.467 11.781-3.395 0-5.591-.899-7.688-2.396l7.588 79.476c1.997 4.992 39.139 17.073 88.063 17.073 49.023 0 86.165-12.181 88.062-17.073l10.883-94.453c-5.691 5.192-12.28 11.582-19.57 14.777-5.391 2.296-17.372 3.794-17.372-5.691 0-5.192 9.085-14.777 14.377-21.466 1.398-1.698 4.693-5.891 4.693-8.088 0-2.895-5.99-2.196-11.682 2.496-3.195 2.696-6.19 6.29-8.686 9.685-4.294 5.99-6.59 11.183-8.487 15.476-6.19 14.178-4.094 8.587-9.086 21.966-4.992 13.279-4.193 11.781-5.192 13.978-.898 1.897-2.196 3.494-3.993 4.493-1.898.998-4.493.898-6.091-.3-.899-.599-1.298-1.897-1.298-3.694q0-1.348.3-2.696c1.497-6.09 7.787-18.072 14.976-34.246 1.598-3.695.999-2.596.799-2.297-6.19 5.99-10.883 8.886-14.378 10.484-5.79 2.596-12.98 2.596-14.477-4.094-.1-.4-.1-.798-.2-1.198-11.781 9.186-24.262 11.682-19.968-8.087-4.593 8.187-12.58 14.877-22.365 14.877-4.094 0-7.09-1.398-8.587-5.092-2.296-5.492 1.298-14.877 4.593-23.763 1.697-4.493 3.994-9.885 7.089-16.175 1.597-3.395 4.193-5.392 7.588-4.493.599.2 1.098.4 1.597.699 2.596 1.797 1.598 4.493.3 7.189-3.794 7.488-7.09 12.98-9.286 20.767-.898 3.295-1.997 8.986 1.498 8.986q3.594 0 6.89-2.396c4.592-3.395 8.286-8.487 11.082-13.479 1.997-3.594 4.393-8.287 5.591-12.28a34 34 0 0 1 1.797-4.793c1.099-2.496 2.596-5.092 5.192-5.092 1.298 0 2.397.499 3.195 1.497 1.698 2.197 1.298 4.493.4 6.89-1.997 5.59-4.693 10.583-6.89 16.673-1.298 3.495-2.695 7.988-2.695 11.682 0 3.395 3.694 2.596 6.789 1.198 2.396-1.098 4.793-2.795 6.79-4.493 1.198-4.892.898-3.794 26.358-68.093 1.298-3.295 3.694-4.693 6.09-4.693 1.199 0 2.197.4 3.196 1.098 1.697 1.298 1.697 4.094.998 6.19-.699 1.898-.599 1.299-4.493 10.484-5.192 12.081-8.586 20.768-13.18 31.85-1.896 4.593-7.687 18.871-8.686 22.266-.599 2.196-1.298 5.79.999 5.79 5.391 0 19.27-13.079 23.064-16.973.2-.3.499-.4.898-.599.6-1.897 1.198-3.694 1.698-5.491 1.398-3.794 2.695-8.187 5.291-11.283.8-.998 1.698-1.597 2.696-1.597 2.796 0 4.194 1.198 4.194 3.994 0 1.098-.7 5.092-1.099 6.19a95 95 0 0 1 4.493-4.493c14.977-13.878 25.66-6.79 25.66.2 0 7.388-8.886 17.672-13.778 23.363-1.598 1.897-4.893 5.392-4.992 6.39 0 1.298.898 1.797 2.196 1.797 1.997 0 6.39-3.494 7.988-4.692 4.992-3.894 11.781-9.885 16.574-14.078l14.777-136.587c-30.453 17.073-197.292 17.173-227.944.2m229.342-8.487c0 20.967-230.84 20.967-230.84 0 0-8.786 51.72-15.875 115.42-15.875 8.986 0 17.772.1 26.259.4l12.58-48.625 61.205-64.4c1.397-1.397 5.79-.199 9.884 3.495s6.59 7.888 5.292 9.286l-.1.1-57.21 60.405-9.985 40.637c39.838 2.596 67.495 8.087 67.495 14.577m-69.292 4.593c0-.799-.899-1.498-2.496-2.097l-.2.799c0 1.298-4.992 2.396-11.083 2.396-6.09 0-11.082-1.098-11.082-2.396 0-.1 0-.2.1-.3l.2-.699c-1.798.6-2.996 1.398-2.996 2.297 0 2.097 6.19 3.694 13.678 3.694 7.688.1 13.879-1.597 13.879-3.694"/></svg>