<svg xmlns="http://www.w3.org/2000/svg" viewBox="0 0 512 512"><!--! Font Awesome Free 7.0.1 by @fontawesome - https://fontawesome.com License - https://fontawesome.com/license/free (Icons: CC BY 4.0, Fonts: SIL OFL 1.1, Code: MIT License) Copyright 2025 Fonticons, Inc.--><path fill="currentColor" d="M411.092 243.853c3.024-7.662 5.544-14.113 5.242-24.597l-4.335 9.072c4.436-13.306 4.033-27.318 3.63-40.726-.202-6.048-.303-11.895 0-17.54l-1.815-.504c-1.512-45.565-40.928-93.852-75.908-110.283-30.242-13.912-76.714-16.331-98.086-5.847 1.31-1.109 4.234-2.016 6.855-2.722l.303-.1c3.326-1.009 6.048-1.714 4.032-2.924-19.355 1.915-25.101 5.544-31.351 9.476h-.1c-4.638 2.923-9.578 6.048-20.465 8.77-3.528 3.427 1.714 2.016 5.847.907s7.258-1.915-.1 2.42c-3.529 1.008-6.654 1.31-9.678 1.612h-.101c-8.367.807-15.928 1.613-30.948 17.138.807 1.31 3.428-.202 5.343-1.31l.1-.102c2.32-1.41 3.428-2.016-1.713 4.436-19.254-2.42-60.787 44.053-69.658 59.476l4.637.807c-3.225 8.064-6.855 14.92-10.08 20.968-4.335 8.165-7.964 15.02-8.77 21.472-.303 5.14-1.009 11.088-1.714 17.44l-.303 3.023-.1.605c-3.025 27.52-6.755 61.291 3.931 73.59l-1.31 13.104a55 55 0 0 1 1.612 3.529c.202.403.404.806.504 1.109 1.008 2.117 2.017 4.234 3.327 6.25l-3.024.201c7.056 22.279 10.887 22.682 15.222 23.085 4.435.403 9.375.907 18.85 24.395-2.721-.907-5.544-1.915-9.475-7.258-.504 4.133 5.847 16.432 13.206 26.009l-3.125 3.629c2.116 3.73 4.838 6.25 7.66 8.87 1.009.908 2.118 1.916 3.126 2.924-11.996-6.552 3.226 13.81 11.996 25.404a108 108 0 0 0 2.218 2.923c1.411 1.915 2.52 3.427 2.923 4.133l2.42-4.234c-.303 6.15 4.334 14.012 13.205 24.9l7.36-.303c3.023 6.049 14.112 16.835 20.866 17.339l-4.435 5.847c8.165 2.62 10.383 4.335 12.802 6.25 2.621 2.117 5.444 4.335 16.23 8.165l-4.234-7.46c3.529 3.025 6.25 5.948 8.871 8.77l.101.102c5.242 5.645 9.98 10.685 19.86 15.423 10.786 3.73 16.733 4.738 22.882 5.847.303 0 .605.1.908.1 5.443.807 11.29 1.815 20.968 4.537-1.11-.1-2.218-.1-3.327-.1-2.319-.102-4.738-.102-7.056-.102-14.517-.201-29.436-.403-43.045-5.242-97.38-25.907-186.393-140.122-179.84-257.663-.605-9.98-.303-21.069 0-30.948.403-13.609.705-25-1.613-28.528l1.008-3.125c5.343-17.54 11.794-38.509 23.992-63.307l-.1-.202v-.1c.402.403 3.427 3.427 8.87-5.847.807-1.815 1.613-3.73 2.42-5.646.504-1.108.907-2.217 1.41-3.225 2.521-6.15 5.142-12.4 8.469-18.045l2.62-.605c1.714-10.181 17.138-23.992 30.041-35.484l1.11-1.008c5.745-5.141 10.785-9.778 13.709-13.206l.706 4.436c17.137-16.029 44.96-27.722 66.13-36.694l.503-.202c4.839-2.016 9.375-3.931 13.407-5.746-3.427 3.831 2.218 2.722 10.081 1.008C241.635 1.411 247.28.302 252.22 0l-3.932 2.117c-2.722 1.411-5.443 2.823-8.064 4.637 8.165-2.016 11.794-1.411 15.826-.806h.303c3.528.604 7.359 1.21 14.718.201-5.646.807-12.4 3.024-11.29 3.83 7.963.908 12.903-.1 17.338-1.007h.202c5.544-1.109 10.383-2.016 19.456.907l-1.009-4.839c7.36 2.621 12.803 4.335 17.642 5.847l.504.101c10.08 3.024 17.742 5.343 34.476 14.214 3.226.201 5.343-.504 7.46-1.21h.1c3.63-1.109 7.057-2.117 15.323 1.21.303.504.504 1.008.706 1.411.1.202.201.504.302.706v.1c1.008 2.622 1.815 4.638 14.718 12.198 1.714-.705-2.722-4.738-6.452-8.266l-.1-.1c-.202-.102-.303-.303-.504-.404 32.46 17.44 67.843 54.537 78.63 94.255-6.05-11.19-5.243-5.545-4.336.504.605 4.032 1.21 8.165-.201 7.56 4.536 12.198 8.165 24.698 10.484 37.702l-.807-2.923-.1-.303c-3.327-11.996-9.678-34.576-20.061-49.698-.403 4.335-2.823 3.932-5.242 3.529h-.1c-3.328-.605-6.251-1.11-1.916 12.701 2.62 3.831 3.125 2.42 3.528 1.11.504-1.513.907-2.722 4.738 5.241.1 4.133 1.008 8.266 2.117 12.803l.1.605c.102.302.102.504.202.806l.101.605c.605 2.621 1.31 5.444 1.815 8.468-1.11-.202-2.319-2.218-3.428-4.234-1.411-2.42-2.822-4.738-3.73-3.226 2.42 11.593 6.553 17.54 8.065 18.448-.302.605-.605.705-1.109.705-.806 0-1.814.101-1.915 5.343.705 13.81 3.326 12.601 5.342 11.694.605-.303 1.21-.605 1.714-.403-.605 2.52-1.613 5.14-2.722 7.963-2.822 7.158-6.048 15.525-3.427 26.311-.806-3.024-2.016-6.048-3.125-8.972l-.1-.403-.606-1.512a56 56 0 0 0-.907-2.319c-.605 4.436-.302 7.762-.1 10.686v.706c.402 5.342.705 10.08-3.025 20.06 4.335-14.314 3.83-27.117-.202-20.968 1.008 10.988-3.73 20.565-8.064 29.134l-.101.201c-3.63 7.158-6.855 13.61-5.948 19.456l-5.242-7.157c-7.56 10.988-7.056 13.407-6.552 15.625v.1c.504 1.916 1.008 3.831-3.428 10.888 1.714-2.924 1.311-3.63 1.009-4.234-.404-.807-.706-1.512 1.713-5.141-1.613.1-5.544 3.931-10.181 8.568-3.932 3.932-8.569 8.468-12.904 11.896C352.12 333.37 306.958 337.3 263.31 320.97c.201-1.008-.202-2.117-3.125-4.133-37.098-28.427-58.973-52.52-51.311-108.368 2.117-1.613 3.629-5.846 5.342-10.887l.202-.403.1-.302v-.101c2.924-8.468 6.553-18.952 14.416-23.992 7.863-17.44 31.553-33.57 56.856-33.972 25.806-1.412 47.58 13.81 58.569 28.125-19.96-18.549-52.521-24.194-80.344-10.484-28.427 12.802-45.363 44.153-42.843 75.303.303-.403.605-.605.907-.807l.202-.201c.605-.504 1.109-.907 1.411-3.327-.907 60.686 65.323 105.142 113.005 82.662l.605 1.31c12.803-3.528 16.028-6.552 20.464-10.786l.1-.1c2.218-2.118 4.739-4.537 8.973-7.36-.303.706-1.31 1.714-2.42 2.722-2.218 2.117-4.637 4.537-1.613 4.637 5.04-1.31 18.65-13.508 28.73-22.48.605-.504 1.21-1.008 1.714-1.512 1.512-1.31 2.823-2.52 4.032-3.629l.303-.302c1.915-4.234 1.613-5.645 1.31-7.057v-.1c-.403-1.613-.806-3.327 2.42-9.678l7.359-3.73c.806-2.117 1.512-4.133 2.217-6.048.202-.605.504-1.21.706-1.815l-.403-.201zm-133.469 89.214c-6.048-3.024-13.81-8.972-14.92-11.492l-.403.303c-.302.604-.504 1.31-.201 2.217-12.299-5.746-23.59-14.415-32.863-25.1 4.94 7.157 10.181 14.213 17.137 19.657-6.956-2.319-15.222-11.896-21.774-19.456l-.101-.1c-4.335-5.041-7.964-9.174-9.779-9.578 19.96 35.787 81.15 62.803 113.207 49.396-14.819.504-33.67.302-50.303-5.847m79.94-120.666-.1-.202c-.505-1.512-1.11-3.125-1.714-3.427 1.411-5.847 5.443-10.787 4.435 4.637-1.008 3.83-1.814 1.512-2.62-1.008m-4.234 22.38c-1.31 7.963-5.04 15.624-10.181 22.68.201-2.015-1.21-2.419-2.621-2.822-2.924-.806-5.948-1.613 5.645-16.23-.504 1.915-2.117 4.637-3.73 7.36l-.302.402c-3.63 5.948-6.754 11.09 4.032 4.335l1.008-1.815c2.621-4.536 5.04-8.87 6.049-13.91zm-56.048 34.173c7.157.605 14.213.605 21.17-1.11-2.521 2.42-5.243 4.84-8.368 7.259-11.19-1.714-21.371-6.048-12.802-6.15m-93.348 11.693c3.63 7.158 6.452 11.593 9.073 15.827l.1.202c2.32 3.73 4.436 7.157 6.855 11.794-5.14-4.234-8.77-9.577-12.6-15.12l-.303-.505c-1.411-2.117-2.823-4.234-4.435-6.25l1.21-5.948zm7.56-9.677c1.614 3.327 3.226 6.452 5.747 9.173l2.62 7.762-1.31-2.116c-3.226-5.343-6.35-10.686-8.064-16.835zm240.83-41.936c-2.32 17.54-7.763 34.88-16.13 50.706 7.661-15.02 12.6-31.15 14.92-47.58zM63.71 107.763c.403.806 1.411.504 2.319.302 1.915-.504 3.629-.907-.101 7.662-.504.302-1.008.705-1.512 1.008-1.411.907-2.823 1.915-3.932 3.024 1.916-3.83 3.529-7.46 3.226-11.996M53.327 149.8c-.706 3.73-1.512 7.963-3.427 14.012.201-1.916 0-3.528-.202-4.94v-.1c-.403-3.428-.706-6.351 4.335-12.904-.303 1.21-.504 2.52-.706 3.83z"/></svg>