<svg xmlns="http://www.w3.org/2000/svg" viewBox="0 0 512 512"><!--! Font Awesome Free 7.0.1 by @fontawesome - https://fontawesome.com License - https://fontawesome.com/license/free (Icons: CC BY 4.0, Fonts: SIL OFL 1.1, Code: MIT License) Copyright 2025 Fonticons, Inc.--><path fill="currentColor" d="m500.919 205.245-.693-1.78-68.959-179.868a17.16 17.16 0 0 0-7.123-8.51c-2.375-1.582-5.046-2.473-7.915-2.77-2.87-.296-5.64.1-8.31 1.089-2.672.99-5.047 2.671-7.025 4.749-1.88 2.078-3.265 4.65-4.057 7.321l-46.5 142.47H161.86l-46.6-142.47a18.4 18.4 0 0 0-4.056-7.321c-1.978-2.078-4.353-3.66-7.024-4.749a18.1 18.1 0 0 0-8.31-1.088c-2.87.296-5.541 1.187-7.916 2.77-3.166 1.979-5.738 5.046-7.123 8.509l-68.86 179.867-.792 1.781C1.286 231.167 0 259.661 7.717 286.374c7.618 26.614 23.745 50.16 45.907 66.881l.297.198.593.396 104.874 78.655c38.09 28.79 65.99 49.765 83.7 63.22 3.661 1.88 8.212 4.255 12.863 4.255s9.2-2.374 12.861-4.254c17.71-13.357 45.61-34.53 83.701-63.221l105.566-79.05.297-.298c22.162-16.72 38.289-40.168 45.115-66.782 8.509-26.713 7.322-55.207-2.572-81.129"/></svg>