<svg xmlns="http://www.w3.org/2000/svg" viewBox="0 0 512 512"><!--! Font Awesome Free 7.0.1 by @fontawesome - https://fontawesome.com License - https://fontawesome.com/license/free (Icons: CC BY 4.0, Fonts: SIL OFL 1.1, Code: MIT License) Copyright 2025 Fonticons, Inc.--><path fill="currentColor" d="M36 36C0 72 0 129.943 0 245.714v20.572C0 382.057 0 440 36 476s93.943 36 209.714 36h20.457c115.886 0 173.829 0 209.715-36S512 382.057 512 266.286v-20.457C512 129.943 512 72 476 36.114S382.057 0 266.286 0h-20.572C129.943 0 72 0 36 36m50.4 119.771h58.4c1.943 97.715 45.029 139.086 79.2 147.658V155.77h55.086V240c33.714-3.657 69.143-42.057 81.028-84.229H415.2c-4.457 21.943-13.486 42.629-26.4 60.915-12.914 18.285-29.371 33.714-48.571 45.257 21.371 10.628 40.228 25.6 55.314 44s26.171 39.886 32.343 62.857h-60.572a105.25 105.25 0 0 0-32.685-51.429c-15.772-13.6-35.086-22.171-55.658-24.685V368.8h-6.628c-116.686 0-183.2-80-186.057-213.143z"/></svg>