<svg xmlns="http://www.w3.org/2000/svg" viewBox="0 0 512 512"><!--! Font Awesome Free 7.0.1 by @fontawesome - https://fontawesome.com License - https://fontawesome.com/license/free (Icons: CC BY 4.0, Fonts: SIL OFL 1.1, Code: MIT License) Copyright 2025 Fonticons, Inc.--><path fill="currentColor" d="M84.9 112.737c9.324-9.503 14.344-15.33 14.344-19.634 0-2.51-1.703-4.93-3.406-6.634a12.67 12.67 0 0 0-7.531-2.51c-7.62 0-18.737 7.889-32.095 23.04C19.006 149.404 0 190.465.807 250.98c.807 60.515 15.6 104.803 48.412 145.057 16.854 21.157 29.764 32.095 38.998 32.095 2.869-.269 5.469-1.434 7.53-3.407 1.704-2.51 3.408-5.02 3.408-7.53 0-5.021-3.497-10.938-11.834-18.469-39.895-37.922-60.336-86.962-60.515-147.925-.18-55.046 19.365-100.768 58.094-138.063m127.485 290.381.806.538zm84.093.538.179-.09c-.18.09-.269.18-.18.09m2.779-141.829c-14.524-3.765 45.184-74.32-61.053-158.862 0 0 13.896 44.288-56.301 143.084-66.611 93.596 21.068 151.242 30.482 157.07-6.007-3.856-42.495-32.006 8.606-115.293 9.862-16.406 22.861-31.288 38.998-64.728 0 0 14.255 20.082 6.814 63.742-11.206 65.984 48.233 47.067 49.13 47.964 20.44 24.026-15.87 65.894-19.366 68.673 4.931-3.317 105.52-69.928 29.585-168.635-5.379 5.38-12.372 30.661-26.895 26.985M455.699 106.91c-13.358-15.15-24.565-23.04-32.185-23.04-2.69.09-5.29.986-7.53 2.51-1.704 1.704-3.408 4.214-3.408 6.634 0 4.304 5.02 10.131 14.345 19.634 38.73 37.295 58.273 83.018 58.094 138.153-.18 60.963-20.62 109.913-60.515 147.925-8.338 7.531-11.834 13.358-11.834 18.468 0 2.421 1.703 5.021 3.407 7.531 2.062 1.973 4.662 3.228 7.53 3.407 9.235 0 22.145-10.848 38.999-32.095 32.812-40.254 47.605-84.631 48.501-145.146S492.904 149.315 455.7 106.91"/></svg>