<svg xmlns="http://www.w3.org/2000/svg" viewBox="0 0 512 512"><!--! Font Awesome Free 7.0.1 by @fontawesome - https://fontawesome.com License - https://fontawesome.com/license/free (Icons: CC BY 4.0, Fonts: SIL OFL 1.1, Code: MIT License) Copyright 2025 Fonticons, Inc.--><path fill="currentColor" d="M164.203 302.515c-3.923 21.52-19.502 121.835-24.098 150.193-.336 2.017-1.12 2.802-3.362 2.802H53.128c-8.519 0-14.683-7.398-13.562-15.58l65.68-416.84c1.682-10.76 11.321-18.943 22.418-18.943 170.704 0 185.05-4.147 228.651 12.778 67.363 26.115 73.527 89.107 49.317 157.254-24.098 70.164-81.26 100.315-157.03 101.212-48.644.784-77.898-7.846-84.399 27.124m275.39-161.29c-2.017-1.456-2.801-2.017-3.362 1.458-2.242 12.778-5.716 25.219-9.863 37.66C381.646 307.895 257.68 296.8 197.156 296.8c-6.837 0-11.32 3.698-12.217 10.536C159.608 464.7 154.564 497.54 154.564 497.54c-1.12 7.958 3.923 14.459 11.88 14.459h71.174c9.64 0 17.597-7.061 19.503-16.7.784-6.053-1.233 6.837 16.14-102.333 5.156-24.659 16.028-22.08 32.84-22.08 79.58 0 141.675-32.281 160.169-125.871 7.285-39.005 5.156-80.028-26.676-103.79"/></svg>