<svg xmlns="http://www.w3.org/2000/svg" viewBox="0 0 512 512"><!--! Font Awesome Free 7.0.1 by @fontawesome - https://fontawesome.com License - https://fontawesome.com/license/free (Icons: CC BY 4.0, Fonts: SIL OFL 1.1, Code: MIT License) Copyright 2025 Fonticons, Inc.--><path fill="currentColor" d="M0 314.094c1.927-3.518 4.356-4.104 8.126-2.094 8.712 4.691 17.256 9.55 26.136 13.99 34.01 16.921 69.78 29.99 106.722 38.785 17.424 4.188 35.1 7.54 52.943 9.885 26.387 3.518 52.942 5.026 79.58 4.356 14.577-.335 29.153-1.508 43.645-3.184a508.8 508.8 0 0 0 136.796-35.853c2.429-1.005 4.942-1.675 7.623-1.005 5.612 1.508 7.539 7.54 3.434 11.644-2.513 2.262-5.193 4.356-8.042 6.199-25.717 17.675-53.78 30.492-83.434 40.125a394.4 394.4 0 0 1-62.911 14.744 361 361 0 0 1-44.566 4.02c-.67 0-1.424.168-2.094.252h-17.675c-.67-.084-1.424-.167-2.095-.251-3.015-.168-6.03-.252-8.963-.335-14.157-.67-28.23-2.095-42.22-4.44a381 381 0 0 1-67.35-17.508c-44.985-16.251-86.367-40.963-121.97-72.88-1.507-1.34-2.512-3.183-3.685-4.774zM132.356 96.126l-3.602.502c-11.56 1.424-22.45 5.78-31.833 12.65-2.01 1.424-3.853 2.931-5.947 4.523-.168-.335-.251-.754-.335-1.173-.335-2.262-.67-4.607-1.09-6.869-.586-3.853-2.512-5.529-6.366-5.529H73.55c-5.78 0-6.87 1.09-6.87 6.87v175.33c0 .837 0 1.675.084 2.512.168 2.513 1.676 4.105 4.105 4.189 5.864.084 11.812.084 17.676 0 2.429 0 3.937-1.676 4.188-4.189.084-.837.084-1.675.084-2.513V221.78c.921.754 1.424 1.173 1.843 1.592 14.994 12.481 32.251 16.586 51.1 12.9 17.088-3.35 28.983-13.822 36.69-29.235 5.864-11.644 8.293-24.042 8.629-36.943.418-14.324-1.006-28.398-6.786-41.717-7.12-16.419-18.932-27.225-36.775-30.911-2.68-.586-5.445-.838-8.21-1.257-2.345-.083-4.606-.083-6.952-.083m-39.707 35.1c-.084-.587.084-1.09.335-1.592.252-.503.67-.922 1.09-1.173 11.476-7.958 24.125-12.147 38.198-11.058 12.482.922 22.702 7.037 28.063 21.696 3.267 8.964 4.105 18.262 4.105 27.644 0 8.712-.67 17.257-3.351 25.634-5.696 17.843-18.764 24.628-35.686 23.874-11.728-.502-21.948-5.026-31.33-11.644-.502-.251-.837-.67-1.089-1.172-.251-.503-.335-1.006-.335-1.592.084-11.812 0-23.54 0-35.35 0-11.812.084-23.456 0-35.268m172.314-35.1c-.837.083-1.675.251-2.429.335-8.126.335-16.251 1.508-24.21 3.434-5.11 1.34-10.052 3.184-14.994 4.859-3.016 1.005-4.524 3.183-4.44 6.45.084 2.765-.084 5.529 0 8.293.084 4.021 1.76 5.11 5.696 4.105 6.534-1.675 13.068-3.518 19.686-4.775 10.304-1.926 20.691-2.764 31.163-1.173 5.445.838 10.555 2.43 14.073 7.037 3.1 4.021 4.272 8.796 4.44 13.738.251 6.953.167 13.906.251 20.859 0 .419-.084.754-.168 1.173-.418-.084-.754 0-1.089-.084-8.795-2.178-17.759-3.518-26.806-4.105-9.466-.502-18.848.084-27.895 3.267-10.806 3.77-19.518 10.304-24.628 20.859-3.938 8.21-4.524 16.921-3.267 25.717 1.675 11.728 7.539 20.775 17.926 26.555 9.969 5.529 20.775 6.2 31.749 4.524 12.65-1.927 23.874-7.288 33.76-15.414.418-.335.837-.67 1.34-.921.502 3.183.92 6.199 1.507 9.214.503 2.597 2.095 4.273 4.524 4.356 4.523.084 9.13.084 13.654 0a4 4 0 0 0 2.848-1.172c.754-.754 1.173-1.76 1.257-2.765.084-.754.084-1.591.084-2.345V139.35q0-5.403-.754-10.806c-1.592-10.807-6.2-19.686-15.916-25.466-5.613-3.351-11.812-5.027-18.262-5.948-3.016-.419-6.032-.67-9.047-1.09-3.267.085-6.618.085-9.969.085zm29.32 106.973c0 .503-.084 1.006-.252 1.425-.167.418-.586.837-1.005 1.089-9.382 6.785-19.686 11.308-31.33 12.481-4.775.503-9.55.335-14.073-1.508-2.513-.921-4.691-2.429-6.534-4.356-1.843-1.926-3.1-4.272-3.853-6.785-1.676-5.277-1.676-10.974-.084-16.251 2.094-6.953 7.036-10.89 13.738-13.068 6.702-2.01 13.822-2.681 20.775-1.843 7.037.586 13.906 1.926 20.942 2.848 1.34.167 1.76.838 1.76 2.178-.084 4.02 0 7.958 0 11.979s-.168 7.874-.084 11.811M512 311.497c-.838-4.188-4.02-5.78-7.623-6.952-5.696-1.76-11.644-2.932-17.592-3.268-10.973-.921-22.031-.418-32.837 1.592-11.98 2.262-23.372 6.115-33.508 13.068a11.5 11.5 0 0 0-3.1 2.932c-.335.503-.502 1.09-.586 1.592s0 1.173.167 1.759c.336 1.256 1.76 1.592 3.016 1.508.587 0 1.257 0 1.843-.084 6.534-.67 12.984-1.424 19.518-2.094 9.55-.922 19.184-1.508 28.733-.754a59 59 0 0 1 12.063 2.262c4.272 1.172 6.2 4.356 6.367 8.712.335 6.701-1.173 13.151-2.932 19.518-3.435 12.9-8.377 25.382-13.236 37.78-.335.838-.67 1.675-.838 2.513-.418 2.43 1.006 4.021 3.435 3.435 1.508-.335 2.848-1.09 4.021-2.095 3.77-3.518 7.372-7.287 10.639-11.225 10.722-13.738 17.005-29.57 20.69-46.576.671-3.015 1.174-6.115 1.76-9.13zM401.34 208.293a106818 106818 0 0 1-32.419-89.8c-1.675-4.776-3.518-9.467-5.277-14.158-.921-2.43-2.68-4.02-5.361-4.02-6.367-.085-12.733-.168-19.184-.085-2.094 0-3.099 1.676-2.68 3.77.419 1.76.921 3.435 1.591 5.11a37166 37166 0 0 0 49.508 121.885c1.424 3.434 1.76 6.366.168 9.885-2.765 6.115-4.943 12.565-7.79 18.68-2.514 5.445-6.702 9.55-12.734 11.142a35.2 35.2 0 0 1-12.9.921c-2.094-.168-4.189-.67-6.283-.838-2.848-.167-4.272 1.09-4.356 4.021a137 137 0 0 0 0 8.293c.084 4.608 1.675 6.702 6.199 7.456 4.691.921 9.382 1.508 14.157 1.675 14.325.335 25.717-5.445 33.09-17.926 2.931-4.943 5.528-10.053 7.706-15.414 19.853-50.094 39.54-100.272 59.141-150.45.587-1.508 1.09-3.016 1.34-4.608.336-2.345-.753-3.685-3.099-3.685-5.529-.084-11.141 0-16.67 0-1.424-.084-2.848.25-3.937 1.089-1.09.837-2.01 1.926-2.513 3.267-.42 1.172-.922 2.261-1.34 3.434l-29.152 83.77c-2.095 6.031-4.273 12.146-6.45 18.597-.336-.922-.503-1.424-.755-2.01"/></svg>