<svg xmlns="http://www.w3.org/2000/svg" viewBox="0 0 512 512"><!--! Font Awesome Free 7.0.1 by @fontawesome - https://fontawesome.com License - https://fontawesome.com/license/free (Icons: CC BY 4.0, Fonts: SIL OFL 1.1, Code: MIT License) Copyright 2025 Fonticons, Inc.--><path fill="currentColor" d="M33.69 225.95c17.766 0 23.208 2.241 26.809 11.684h.64V219.31c0-9.043-3.841-12.324-14.324-12.324-9.043 0-11.524 2-12.084 10.243H3.84c.24-11.124 1.2-15.285 4.642-19.526 5.841-7.042 15.124-9.443 36.891-9.443 26.408 0 37.692 4.001 43.134 15.125 1.6 3.44 3.2 12.483 3.2 18.965v61.06H61.06l1.04-15.285h-.8c-4.241 12.484-10.883 16.325-28.409 16.325-24.247 0-32.89-8.083-32.89-29.85 0-20.166 9.843-28.648 33.69-28.648m13.685 38.493c10.483 0 13.524-2.401 13.524-10.724 0-7.282-3.441-9.283-15.685-9.283-10.483 0-14.324 2.401-14.324 9.683-.08 8.323 2.96 10.324 16.485 10.324m62.26-75.944h30.649l-1.2 16.485h.64c7.282-13.684 12.724-16.725 30.009-16.725 11.524 0 19.766 2.4 25.208 7.282 7.842 6.882 10.243 16.325 10.243 38.492 0 24.008-2.4 34.49-9.683 42.333-5.442 5.842-13.124 8.083-26.568 8.083-16.325 0-23.368-4.401-27.049-16.965h-.64v56.257h-31.61zm64.74 48.575c0-22.007-2.641-26.008-16.566-26.008-13.524 0-16.565 4.001-16.565 22.967 0 22.407 2.801 26.809 16.965 26.809 13.125 0 16.165-4.482 16.165-23.768m46.334-48.575h30.65l-1.2 16.485h.64c7.282-13.684 12.723-16.725 30.009-16.725 11.523 0 19.766 2.4 25.208 7.282 7.842 6.882 10.243 16.325 10.243 38.492 0 24.008-2.4 34.49-9.683 42.333-5.442 5.842-13.124 8.083-26.649 8.083-16.325 0-23.367-4.401-27.048-16.965h-.64v56.257h-31.61V188.5zm64.74 48.575c0-22.007-2.64-26.008-16.565-26.008-13.524 0-16.565 4.001-16.565 22.967 0 22.407 2.8 26.809 16.965 26.809 13.124 0 16.165-4.482 16.165-23.768m43.054-3.04c0-20.327 2.64-30.25 9.843-36.652 7.042-6.482 17.765-9.043 36.091-9.043 34.25 0 44.574 10.243 44.574 44.574v8.883h-60.259c-.24 1.6-.24 3.2-.24 3.84 0 13.525 3.601 17.526 16.085 17.526 11.124 0 14.325-2.4 14.325-11.123h30.009v1.84c0 7.843-2 15.125-5.442 19.767-5.842 7.842-15.685 10.883-35.45 10.883-22.008 0-33.291-2.64-40.494-9.843-6.802-6.802-9.042-17.045-9.042-40.653m61.139-9.284c-.24-1.44-.24-2.64-.24-3.04 0-9.844-2.641-11.684-15.685-11.684-11.524 0-13.684 2.4-14.485 12.083l-.24 2.641zm44.494-36.251h30.65l-1.441 15.925h.56c5.442-11.924 11.524-16.165 23.767-16.165 8.643 0 15.285 2.64 18.726 7.442 4.242 5.842 5.442 11.524 5.442 27.209 0 1.2 0 4 .16 7.442h-28.009c.24-1.44.24-2.64.24-3.201 0-12.324-1.6-15.525-8.242-15.525-5.042 0-8.643 2.641-10.484 7.442-.8 2.401-.8 3.442-.8 9.844v54.417h-30.65v-94.83z"/></svg>