<svg xmlns="http://www.w3.org/2000/svg" viewBox="0 0 512 512"><!--! Font Awesome Free 7.0.1 by @fontawesome - https://fontawesome.com License - https://fontawesome.com/license/free (Icons: CC BY 4.0, Fonts: SIL OFL 1.1, Code: MIT License) Copyright 2025 Fonticons, Inc.--><path fill="currentColor" d="M213.325 484.45c1.572 2.456 2.063 5.5 1.375 8.349-.59 2.848-2.357 5.402-4.812 6.973-2.554 1.572-5.5 2.063-8.447 1.473a251.98 251.98 0 0 1-149.485-99.394C16.01 351.466 0 289.688 6.876 228.205c6.874-61.582 36.143-118.35 82.206-159.601C135.145 27.354 194.86 4.567 256.737 4.567c1.473 0 2.062.295 4.223.884 1.375.59 1.768 1.375 3.634 2.455a11.3 11.3 0 0 1 2.455 3.634c.491 1.375.786 2.75.786 4.224v99.198l24.063-25.438c.982-1.08 2.16-1.964 3.536-2.554 1.277-.589 2.75-.884 4.223-.982s2.848.197 4.223.688a10 10 0 0 1 3.733 2.357c.982.982 1.866 2.16 2.455 3.536.59 1.276.982 2.75.982 4.223s-.196 2.946-.687 4.223a12.9 12.9 0 0 1-2.358 3.634l-43.215 45.769c-1.08 1.08-2.259 1.964-3.634 2.553-1.473.59-2.946.884-5.303.884-.59 0-2.161-.294-3.536-.884-1.375-.589-2.652-1.473-3.634-2.553l-43.313-45.769a11.28 11.28 0 0 1-2.947-7.955c0-2.947 1.277-6.58 3.438-7.76a10.95 10.95 0 0 1 7.955-3.044c2.947.098 5.697 1.277 7.76 3.437l24.062 25.537V26.96C190.244 29.71 137.797 52.3 97.823 90.8c-39.876 38.403-64.528 90.065-69.34 145.262C23.67 291.26 39.09 346.457 71.796 391.243c31.822 44.689 80.537 76.118 134.556 88.297 2.848.687 5.402 2.455 6.973 4.91m-39.68-356.033a10.35 10.35 0 0 1-3.044 3.143c-20.134 13.652-36.536 32.019-47.93 53.528-11.392 21.51-17.383 45.474-17.383 69.832s5.99 48.322 17.384 68.947c11.393 22.394 27.795 40.76 47.93 54.412 2.455 1.67 4.124 4.223 4.615 7.17.59 2.848-.884 5.893-1.67 8.25-1.669 2.455-5.107 4.125-7.17 3.83-2.847 1.375-5.892.786-8.25-.884-23.178-15.714-42.036-36.83-55.098-61.581A171.16 171.16 0 0 1 83.09 254.92c0-27.894 6.875-55.492 19.938-80.145 13.062-24.75 31.92-45.867 55.099-61.581 1.178-.786 2.553-1.375 3.928-1.768a11.2 11.2 0 0 1 4.42 0c1.375.196 2.75.786 4.027 1.572 1.277.785 2.259 1.866 3.143 3.044a11.3 11.3 0 0 1 1.67 4.027c.294 1.473.294 2.947 0 4.322-.295 1.473-.786 2.848-1.67 4.026m166.477 252.808c.786-1.178 1.866-2.259 2.16-3.044v-.099c20.92-13.75 37.323-32.116 48.716-53.625 11.295-21.412 17.188-45.376 17.188-69.636s-5.893-48.224-17.188-69.733c-11.393-22.295-27.795-39.777-48.715-53.528-.295-.785-1.375-1.866-2.161-3.044-.786-1.277-1.375-2.652-1.571-4.027-1.179-1.473-.295-2.947 0-4.322a11.3 11.3 0 0 1 1.67-4.027c.883-1.178 1.08-2.259 3.142-3.044 1.179-.786 2.554-1.277 4.027-1.572a10.7 10.7 0 0 1 4.321 0c1.474.295 2.75.884 4.027 1.768 22.983 15.715 41.939 36.831 54.903 61.483 13.063 24.653 19.054 52.153 19.054 80.046 0 27.992-5.991 55.492-19.054 80.145-12.964 24.652-31.92 45.768-54.903 61.483-1.276.884-2.553 1.473-4.027 1.768a10.7 10.7 0 0 1-4.321 0c-1.473-.295-2.848-1.67-4.027-1.572-2.062-.785-2.259-1.866-3.143-3.044a11.3 11.3 0 0 1-1.67-4.027c-.294-1.375-1.178-2.849 0-4.322.197-1.375.786-2.75 1.572-4.027m-28.09-370.47C367.23 23.228 416.534 53.97 452.186 97.872c29.858 36.93 48.716 81.52 54.314 128.663 5.5 47.144-2.357 94.975-22.786 137.797-20.527 42.822-52.644 79.064-92.814 104.404-40.17 25.241-86.627 38.697-134.163 38.697-1.474 0-2.849-.295-4.224-.884-1.375-.491-2.553-1.375-3.634-2.357-1.866-1.08-1.866-2.26-2.357-3.634-.59-1.375-.884-2.75-.884-4.223v-97.43l-24.063 25.535c-2.062 2.161-4.812 2.554-7.759 3.536-2.946.098-5.795-1.08-7.955-3.928-2.161-1.179-3.438-3.93-3.438-6.876a11.28 11.28 0 0 1 2.947-7.955l43.313-45.769c1.277-2.16 5.009-3.339 7.17-3.339 3.928 0 6.777 1.179 8.937 3.34l43.215 45.768a10.95 10.95 0 0 1 3.045 7.955c-.098 2.947-1.375 5.697-3.437 6.876-2.161 2.848-5.01 4.026-7.956 3.928-2.946-.982-5.795-1.375-7.76-3.536l-24.062-25.438v85.94c55.394-2.75 107.841-25.34 147.815-63.84 39.974-39.287 64.626-90.065 69.439-145.262 4.714-56.082-10.608-110.297-43.313-155.083C409.07 75.97 361.238 44.639 307.22 32.46c-1.474-.294-2.75-.884-4.027-1.768-1.179-.883-2.161-1.866-2.947-3.142-.785-1.179-2.16-2.554-1.571-4.027-.197-1.474-.197-2.947.098-4.322.393-1.375.982-2.75 1.768-3.928a12.8 12.8 0 0 1 3.143-2.947c1.277-.786 2.652-1.277 4.027-1.571 1.473-.295 2.946-.197 4.321.098zm40.072 245.343c0 30.84-17.187 60.01-48.42 82.01-2.063 1.474-4.715 2.26-7.268 1.965-2.652-.197-5.107-1.277-6.875-3.143l-68.85-68.555c-2.16-2.062-4.125-4.91-3.339-7.857 0-2.947 1.179-5.795 3.241-7.857 2.16-2.063 4.91-3.241 7.857-3.241s5.795 1.178 7.858 3.24l61.974 61.68c20.429-16.795 31.626-37.224 31.626-58.242 0-23.473-13.849-46.161-38.992-63.938-2.456-1.67-4.027-4.224-4.518-7.17-.491-2.848.098-5.893 1.866-8.25 1.67-2.456 4.223-4.027 7.17-4.518 2.848-.491 5.893.098 8.25 1.866 31.233 22 48.42 51.17 48.42 82.01m-133.966 83.877c-2.947.49-5.893-.197-8.349-1.866-31.134-22-49.206-51.171-49.206-82.01s18.072-60.01 49.206-82.011c2.161-1.572 4.813-2.26 7.367-2.063 2.651.295 5.009 1.375 6.875 3.241l68.85 68.555a11.15 11.15 0 0 1 3.24 7.857c0 2.947-1.964 5.697-3.24 7.858-2.063 2.062-4.912 3.24-7.76 3.24-2.946 0-6.679-1.178-7.857-3.24l-61.975-61.778c-20.527 16.991-31.625 37.322-31.625 58.34 0 22.59 13.848 46.162 38.992 63.84 2.357 1.769 4.027 4.322 4.518 7.269.49 2.848-.197 5.794-1.866 8.25-1.67 2.357-4.322 4.027-7.17 4.518"/></svg>