<svg xmlns="http://www.w3.org/2000/svg" viewBox="0 0 512 512"><!--! Font Awesome Free 7.0.1 by @fontawesome - https://fontawesome.com License - https://fontawesome.com/license/free (Icons: CC BY 4.0, Fonts: SIL OFL 1.1, Code: MIT License) Copyright 2025 Fonticons, Inc.--><path fill="currentColor" d="M255.587 0C401.961 0 512 113.652 512 256c0 151.845-122.323 256-256.413 256C117.265 512 0 398.968 0 256 0 118.813 108.077 0 255.587 0m.826 46.142C134.4 46.142 46.142 147.2 46.142 256c0 113.342 94.142 209.342 210.27 209.342 106.53 0 209.343-83.716 209.343-209.342.103-117.471-93.11-209.858-209.342-209.858m110.452 212.232c-4.852 0-9.29 2.89-11.046 7.432l-4.129 9.807-11.355-95.794c-1.754-14.348-22.71-13.832-23.845.413l-4.438 53.058-5.368-71.019c-1.136-14.761-22.813-14.658-23.949 0l-3.612 46.348-6.09-97.342c-.93-14.967-23.02-14.864-23.95 0l-5.264 86.4-4.438-68.438c-.93-14.865-22.916-14.865-23.949 0l-5.47 82.787-4.233-58.839c-1.135-14.761-22.71-14.761-23.948-.206l-7.949 92.696-1.858-12.593c-1.755-11.768-17.651-14.039-22.71-3.407l-13.625 28.594H90.323v23.948h52.954c4.542 0 8.671-2.58 10.736-6.606l11.045 75.458c2.065 13.935 22.607 13.42 23.845-.723l3.923-45.006 5.884 80.826c1.135 14.864 23.019 14.658 23.948-.103l4.748-72.671 4.955 75.664c.93 14.865 23.02 14.865 23.949-.103l5.058-83.097 4.645 74.116c.929 14.761 22.813 14.968 23.948.207l4.749-60.49 5.058 66.477c1.135 14.761 22.71 14.658 23.845.103l7.02-85.677 2.786 23.019c1.446 12.18 18.271 14.555 23.02 3.2l18.58-44.8h52.13v-23.948zm-80.517 5.368h-22.606v22.606c0 4.233-3.407 7.742-7.742 7.742-4.232 0-7.742-3.406-7.742-7.742v-22.606h-22.606c-4.233 0-7.742-3.407-7.742-7.742 0-4.232 3.51-7.742 7.742-7.742h22.606v-22.606c0-4.233 3.51-7.742 7.742-7.742s7.742 3.406 7.742 7.742v22.606h22.606c4.233 0 7.742 3.407 7.742 7.742 0 4.232-3.51 7.742-7.742 7.742"/></svg>