<svg xmlns="http://www.w3.org/2000/svg" viewBox="0 0 512 512"><!--! Font Awesome Free 7.0.1 by @fontawesome - https://fontawesome.com License - https://fontawesome.com/license/free (Icons: CC BY 4.0, Fonts: SIL OFL 1.1, Code: MIT License) Copyright 2025 Fonticons, Inc.--><path fill="currentColor" d="M85.76 85.36h-1.04c-25.84 26.48-52.32 52.4-78.4 78.8-2.08 2.24-4.88 4.08-6.32 6.88 28.48 28.32 56.8 56.8 85.28 85.12 28.32-28.24 56.56-56.64 84.88-84.88v-1.04l-58.56-58.56c-8.56-8.88-17.76-17.04-25.84-26.32m170.8 0h-1.04c-27.92 28.88-57.2 56.8-85.04 85.76 28.72 28.08 56.8 56.8 85.36 85.04 27.44-27.28 54.72-54.72 82.08-81.92 1.2-1.2 2.64-2.24 3.28-3.84-27.68-27.04-54.72-54.56-82.08-81.68-1.04-1.04-1.84-2.08-2.64-3.28zm170.8 0h-1.04c-13.76 14.4-28.08 28.24-42.08 42.4-14.32 14.16-28.32 28.56-42.8 42.64.64 1.84 2.4 2.88 3.68 4.4l81.52 81.36c28.88-27.92 56.64-56.96 85.36-84.88-.4-1.76-2.08-2.8-3.2-4l-64.16-64.16c-5.68-5.92-11.92-11.36-17.2-17.76zM255.68 256.32c-27.92 28.08-56 56-83.92 83.92-.24.56-.56 1.36-.8 1.84 19.2 18.96 38.16 38 57.2 57.04 9.44 9.04 18.24 18.8 27.92 27.52 6.72-5.92 13.12-13.12 19.76-19.44 20.4-20.24 40.8-40.8 61.2-61.04 1.44-1.76 3.44-2.88 4.4-5.04-28.32-27.92-56.4-56.16-84.48-84.32l-1.2-.56z"/></svg>