<svg xmlns="http://www.w3.org/2000/svg" viewBox="0 0 512 512"><!--! Font Awesome Free 7.0.1 by @fontawesome - https://fontawesome.com License - https://fontawesome.com/license/free (Icons: CC BY 4.0, Fonts: SIL OFL 1.1, Code: MIT License) Copyright 2025 Fonticons, Inc.--><path fill="currentColor" d="M502.4 233.257 278.857 9.714C272.686 3.43 264.23 0 255.543 0S238.4 3.429 232.229 9.6L185.714 56l58.857 58.857c30.972-10.4 60.229 19.2 49.6 49.943l56.8 56.8c39.086-13.486 69.943 35.429 40.572 64.8-30.286 30.286-80.229-3.314-64-42.629l-52.914-52.914v139.314c28.914 14.286 25.485 47.772 10.4 62.858-7.315 7.314-17.372 11.542-27.772 11.542s-20.343-4.114-27.771-11.542c-20.115-20.115-12.686-53.6 12.8-64V188.457c-23.772-9.714-28.115-35.086-21.257-51.428L162.97 78.857 9.714 232.114C3.43 238.4 0 246.743 0 255.43c0 8.685 3.429 17.142 9.714 23.314L233.257 502.4c6.172 6.171 14.514 9.6 23.314 9.6s17.143-3.429 23.315-9.6L502.4 279.886c6.171-6.172 9.6-14.629 9.6-23.315 0-8.685-3.429-17.142-9.6-23.314"/></svg>