<svg xmlns="http://www.w3.org/2000/svg" viewBox="0 0 512 512"><!--! Font Awesome Free 7.0.1 by @fontawesome - https://fontawesome.com License - https://fontawesome.com/license/free (Icons: CC BY 4.0, Fonts: SIL OFL 1.1, Code: MIT License) Copyright 2025 Fonticons, Inc.--><path fill="currentColor" d="M109.791 395.739h2.745c12.45 0 24.997 0 37.447.098 1.568 0 3.039-.392 3.529 2.058 6.96 34.212 29.408 53.524 61.66 62.64 26.369 7.45 53.032 7.647 79.696 1.765 33.134-7.254 54.896-27.742 66.66-59.21 7.841-21.075 10.488-42.935 10.782-65.188.098-5.685.294-46.073-.196-51.758l-.882-.294c-.784 1.47-1.667 2.842-2.45 4.313-21.665 42.25-60.092 66.07-103.322 67.737-100.97 3.921-166.06-55.876-168.608-172.725-.49-23.233 1.764-45.975 8.136-68.326C125.182 47.151 178.117.98 255.853.392 315.944 0 355.351 38.33 369.761 69.306c.49 1.078 1.275 2.254 2.353 1.862V10.783h43.426c0 274.772.099 325.649.099 325.649-.099 76.952-26.174 140.866-100.97 159.001C246.54 512 158.806 500.14 122.536 439.361c-7.842-13.233-11.567-27.742-12.744-43.622M253.206 36.172c-51.464-.49-106.36 39.898-112.732 131.162-4.02 57.836 14.508 119.79 70.09 145.67 27.056 12.645 72.835 14.703 106.164-8.53 46.662-32.544 61.464-95.086 53.72-150.962-9.51-69.698-46.858-117.634-117.242-117.34"/></svg>