<svg xmlns="http://www.w3.org/2000/svg" viewBox="0 0 512 512"><!--! Font Awesome Free 7.0.1 by @fontawesome - https://fontawesome.com License - https://fontawesome.com/license/free (Icons: CC BY 4.0, Fonts: SIL OFL 1.1, Code: MIT License) Copyright 2025 Fonticons, Inc.--><path fill="currentColor" d="M136.288 169.242v173.756h18.694l6.151 21.09 33.553-21.09h39.545V169.242h-98.023zm78.13 154.902H192.13l-22.289 13.98-4.074-13.98h-9.507V188.095h58.158zm-94.666-75.334H77.97c1.358-21.65 1.758-41.222 1.758-58.717h40.902s1.598-18.055-6.87-17.815h-70.7c2.796-10.466 6.31-21.33 10.465-32.515 0 0-19.253 0-25.804 17.256-2.716 7.11-10.545 34.432-24.525 62.392 4.713-.479 20.291-.958 29.398-17.735 1.678-4.713 1.997-5.352 4.074-11.583h23.088c0 8.388-.959 53.445-1.358 58.637H16.617c-9.347 0-12.463 18.854-12.463 18.854H56.56C53.045 307.448 34.192 341 0 367.524c16.377 4.713 32.674-.72 40.743-7.91 0 0 18.374-16.696 28.44-55.362l43.139 51.847s6.311-21.49-.959-31.955c-6.071-7.11-22.448-26.443-29.398-33.393L70.3 300.178c3.515-11.184 5.592-22.05 6.311-32.514h49.211s-.08-18.854-6.071-18.854m329.137-1.278c16.616-20.451 35.95-46.814 35.95-46.814s-14.86-11.824-21.89-3.276c-4.793 6.551-29.399 38.506-29.399 38.506l15.339 11.504zm-119.832-47.214c-7.19-6.55-20.69 1.678-20.69 1.678s31.555 43.938 32.833 45.855l15.578-10.944s-20.53-30.038-27.72-36.669zm182.304 57.04c-15.818 0-104.573.72-104.733.72V177.39q5.752 0 18.215-.96c32.674-1.916 56-3.195 70.14-3.834 0 0 9.747-21.73-.478-26.682-2.477-.959-18.534 3.675-18.534 3.675s-131.975 13.181-185.66 14.38c1.279 7.03 6.072 13.66 12.623 15.657 10.625 2.796 18.134 1.358 39.305.72 19.812-1.279 34.91-1.918 45.136-1.918v79.728h-106.65s2.237 17.815 20.372 18.294h86.198v56.64c0 11.185-8.947 17.576-19.572 16.857-11.264.08-20.85-.879-33.313-1.438 1.597 3.195 5.033 11.504 15.418 17.415 7.909 3.835 12.942 5.273 20.77 5.273 23.648 0 36.51-13.82 35.87-36.19v-58.557h97.783c7.749 0 6.95-19.013 6.95-19.013z"/></svg>