<svg xmlns="http://www.w3.org/2000/svg" viewBox="0 0 512 512"><!--! Font Awesome Free 7.0.1 by @fontawesome - https://fontawesome.com License - https://fontawesome.com/license/free (Icons: CC BY 4.0, Fonts: SIL OFL 1.1, Code: MIT License) Copyright 2025 Fonticons, Inc.--><path fill="currentColor" d="M512 73.143C512 32.8 479.2 0 438.857 0H73.143C32.8 0 0 32.8 0 73.143v365.714C0 479.2 32.8 512 73.143 512h365.714C479.2 512 512 479.2 512 438.857zm-271.2 211.2c-2.057-6.286-3.886-12.343-5.714-18.172-14.743-47.885-24-78.171-66.286-78.171-25.6 0-51.543 18.4-51.543 69.943 0 40.228 20.572 65.371 49.486 65.371 32.686 0 54.4-24.343 54.4-24.343l13.371 36.458S211.886 357.6 164.571 357.6c-58.628 0-91.314-34.4-91.314-98.057 0-66.172 32.686-105.143 94.286-105.143 77.6 0 90.628 40.343 110.171 101.029 1.6 5.028 3.315 10.171 5.029 15.428 10.057 30.629 27.657 52.8 69.943 52.8 28.457 0 43.543-6.286 43.543-21.828 0-20-19.315-24.229-45.715-30.172-3.657-.8-7.428-1.6-11.314-2.514-34.743-8.343-48.571-26.4-48.571-54.857 0-45.715 36.914-59.886 74.514-59.886 42.743 0 68.686 15.543 72 53.257l-41.943 5.029c-1.714-18.057-12.571-25.6-32.686-25.6-18.4 0-29.714 8.343-29.714 22.628 0 12.572 5.486 20.115 23.886 24.343 2.514.572 5.143 1.143 7.657 1.6 35.543 7.429 74.4 15.657 74.4 64.114.114 41.943-35.086 57.829-86.972 57.829-72.457 0-97.6-32.686-110.971-73.257"/></svg>