<svg xmlns="http://www.w3.org/2000/svg" viewBox="0 0 512 512"><!--! Font Awesome Free 7.0.1 by @fontawesome - https://fontawesome.com License - https://fontawesome.com/license/free (Icons: CC BY 4.0, Fonts: SIL OFL 1.1, Code: MIT License) Copyright 2025 Fonticons, Inc.--><path fill="currentColor" d="M403.796.057H108.204C48.674.057 0 48.732 0 108.147v295.591c0 59.53 48.675 108.205 108.204 108.205h295.592c59.53 0 108.204-48.675 108.204-108.09V108.147C512 48.732 463.325.057 403.796.057m-57.13 361.52c-31.88 55.073-102.72 74.154-157.908 42.504-26.166 45.476-62.729 9.827-48.332-15.082l17.939-31.079c6.741-11.769 21.938-15.882 33.706-9.026 21.253 12.34-.114-.115 21.139 12.225 31.535 18.168 72.44 7.199 90.722-24.337 18.168-31.536 7.199-72.441-24.337-90.723-20.339-11.654-.686-.457-21.253-12.111-28.108-16.225-3.885-59.301 24.68-42.848 21.253 12.34-.114-.114 21.139 12.226 55.302 31.993 74.383 103.177 42.504 158.25M371.573 123c-19.424 33.707-18.624 32.907-21.71 35.992-7.426 7.427-18.624 9.94-30.278 4.113-21.253-12.34.114.115-21.138-12.225-31.536-18.168-72.441-7.199-90.723 24.337s-7.198 72.441 24.337 90.723c0 0 21.139 12.111 21.253 12.111 28.108 16.225 3.885 59.301-24.68 42.848-21.253-12.34.114.114-21.138-12.226-55.074-31.764-74.155-102.948-42.391-158.136 31.879-55.074 102.72-74.155 157.908-42.505l5.484-9.598c16.34-28.45 59.415-3.77 43.076 24.566"/></svg>