<svg xmlns="http://www.w3.org/2000/svg" viewBox="0 0 512 512"><!--! Font Awesome Free 7.0.1 by @fontawesome - https://fontawesome.com License - https://fontawesome.com/license/free (Icons: CC BY 4.0, Fonts: SIL OFL 1.1, Code: MIT License) Copyright 2025 Fonticons, Inc.--><path fill="currentColor" d="M185.507 187.79c5.48-5.593 7.078-5.822 41.554-5.822 31.05 0 32.078.114 36.645 2.398 6.62 3.31 9.475 7.99 9.475 15.525 0 6.736-2.74 11.416-8.676 15.297-3.197 2.055-5.137 2.17-35.503 2.398-18.722.114-33.677-.229-35.96-.914-11.759-3.31-16.097-20.206-7.535-28.882M255.6 295.67c-61.53 0-63.7.228-68.723 4.68-3.995 3.54-6.507 10.731-5.822 15.869.8 5.365 5.48 11.53 10.503 13.699 2.511 1.141 16.096 1.94 64.27 1.37l54.683-.686 10.502-1.712c10.274-5.822 11.987-19.863 3.54-27.855-6.051-5.365-5.709-5.365-68.953-5.365m255.03 148.52c-3.995 32.42-26.256 57.536-58.335 65.641-8.22 2.055-11.073 2.169-197.38 2.055-180.141 0-189.388-.114-196.352-2.055-9.59-2.511-17.808-6.279-25.457-11.416-6.393-4.338-15.868-13.47-19.407-18.722-4.338-6.393-9.361-17.466-11.416-25.115S.114 443.848.114 256.628c0-186.192 0-190.188 2.055-198.293C9.361 30.138 31.736 8.562 60.619 2.169 68.951.342 439.737 0 448.755 1.827c24.202 4.908 43.266 19.52 54.34 41.553 8.79 17.466 7.99-1.712 8.333 206.17.229 132.195 0 187.79-.799 194.64M413.14 232.769c-1.256-5.708-4.795-10.96-8.79-13.128-1.256-.685-9.133-1.484-17.695-1.941-14.155-.685-15.754-.913-20.32-3.539-7.078-4.11-9.019-8.676-9.133-20.891 0-23.288-9.703-44.978-28.882-64.5-13.699-13.927-28.882-23.402-46.348-28.653-4.11-1.256-13.47-1.713-44.75-2.055-48.974-.57-59.933.457-76.6 7.078-30.823 12.215-52.856 38.129-60.96 71.235-1.485 6.164-1.827 16.21-2.17 73.403-.456 71.692 0 82.309 4.567 96.464 11.073 35.047 42.352 60.96 73.746 66.669 10.502 1.94 139.501 2.397 152.63.57 22.945-3.082 40.982-12.329 57.878-29.567 12.215-12.443 19.863-26.028 24.886-43.95 3.653-12.444 3.31-100.917 1.94-107.195"/></svg>