<svg xmlns="http://www.w3.org/2000/svg" viewBox="0 0 512 512"><!--! Font Awesome Free 7.0.1 by @fontawesome - https://fontawesome.com License - https://fontawesome.com/license/free (Icons: CC BY 4.0, Fonts: SIL OFL 1.1, Code: MIT License) Copyright 2025 Fonticons, Inc.--><path fill="currentColor" d="M465.6 0H46.4C20.8 0 0 20.8 0 46.4v419.2C0 491.2 20.8 512 46.4 512h419.2c25.6 0 46.4-20.8 46.4-46.4V46.4C512 20.8 491.2 0 465.6 0M201.257 129.829c.457 26.742-25.6 31.2-30.4 31.314-17.028 0-30.971-13.714-30.971-30.857.114-40.229 60.685-40.572 61.371-.457m179.086 264.457c-74.972 0-38.972-84.572-28.572-121.829 16.115-53.028-51.657-67.428-68.457.8L253.83 391.314h-51.543l9.257-37.143c-36 59.2-108.114 50.743-108.114-4.914.114-16.343 1.028-16 26.285-118.971H93.371l11.086-40.686h87.314c-38.4 152.8-37.257 145.029-37.6 157.943 0 23.886 46.743 15.428 65.6-26.514l22.629-90.743h-36.914L216.57 189.6H295.2l-10.171 46.286C331.314 149.6 431.2 181.257 401.37 279.314c-16.228 58.4-16.685 57.943-17.028 67.2 0 17.715 20 25.829 36.343-19.314l20.457 7.657c-12 41.943-33.6 59.429-60.8 59.429"/></svg>