<svg xmlns="http://www.w3.org/2000/svg" viewBox="0 0 512 512"><!--! Font Awesome Free 7.0.1 by @fontawesome - https://fontawesome.com License - https://fontawesome.com/license/free (Icons: CC BY 4.0, Fonts: SIL OFL 1.1, Code: MIT License) Copyright 2025 Fonticons, Inc.--><path fill="currentColor" d="M256 0C114.58 0 0 114.58 0 256s114.58 256 256 256 256-114.58 256-256S397.42 0 256 0m169.29 118.09c30.452 37.162 48.93 84.645 49.342 136.258-7.226-1.548-79.484-16.206-152.258-7.019-5.987-14.452-11.561-27.252-19.2-42.942 80.826-33.032 117.471-80 122.116-86.193zM400.93 92.8c-3.923 5.574-36.852 49.858-114.58 78.968-35.82-65.858-75.562-119.949-81.549-128C274.168 27.045 347.252 45.11 401.032 92.8zM162.994 58.426c5.78 7.948 44.8 62.039 81.032 126.451C141.729 212.026 51.613 211.613 41.91 211.51c14.142-67.82 59.87-124.284 121.084-153.084M37.368 256.31c0-2.271 0-4.439.103-6.71 9.6.206 115.51 1.548 224.723-31.071 6.296 12.284 12.283 24.671 17.754 37.058-79.07 22.297-150.916 86.194-186.322 146.89-34.89-38.812-56.258-90.012-56.258-146.167m84.438 172.49c22.813-46.658 84.852-106.942 173.007-137.084 30.658 79.794 43.355 146.684 46.658 165.78-70.297 29.936-154.839 21.781-219.665-28.8zm256.413 8.774c-2.27-13.316-13.832-77.316-42.529-155.87 68.542-10.943 128.723 7.019 136.155 9.393-9.703 60.8-44.697 113.342-93.729 146.58z"/></svg>