<svg xmlns="http://www.w3.org/2000/svg" viewBox="0 0 512 512"><!--! Font Awesome Free 7.0.1 by @fontawesome - https://fontawesome.com License - https://fontawesome.com/license/free (Icons: CC BY 4.0, Fonts: SIL OFL 1.1, Code: MIT License) Copyright 2025 Fonticons, Inc.--><path fill="currentColor" d="M475.429 0H36.457C16.343 0 0 16.571 0 36.914v438.172C0 495.429 16.343 512 36.457 512H475.43C495.543 512 512 495.429 512 475.086V36.914C512 16.571 495.543 0 475.429 0M154.743 438.857H78.857V194.514h76v244.343zM116.8 73.143c24.343 0 44 19.657 44 44s-19.657 44-44 44-44-19.657-44-44 19.657-44 44-44m322.4 365.714h-75.886V320c0-28.343-.571-64.8-39.428-64.8-39.543 0-45.6 30.857-45.6 62.743v120.914H202.4V194.514h72.8v33.372h1.029c10.171-19.2 34.971-39.429 71.885-39.429 76.8 0 91.086 50.629 91.086 116.457z"/></svg>