<svg xmlns="http://www.w3.org/2000/svg" viewBox="0 0 512 512"><!--! Font Awesome Free 7.0.1 by @fontawesome - https://fontawesome.com License - https://fontawesome.com/license/free (Icons: CC BY 4.0, Fonts: SIL OFL 1.1, Code: MIT License) Copyright 2025 Fonticons, Inc.--><path fill="currentColor" d="M0 412.444C0 436 19.111 455.111 42.667 455.111h426.666C492.89 455.111 512 436 512 412.444v-.977h-54.844l-28.356-31.2-28.356 31.2H219.378v-145.6h-58.49l72.623-164.178h69.867l24.978 56.178v-56.178h86.4L429.778 144l15.11-42.311H512v-2.133c0-23.556-19.111-42.667-42.667-42.667H42.667C19.11 56.889 0 76 0 99.556zm391.467-19.288L428.977 352l37.334 41.156H512l-60.444-64.09L512 264.979h-44.978l-37.333 41.51-36.889-41.51h-45.689l60 64.444-59.911 63.645v-29.423h-73.778v-19.733h71.911V315.2h-71.91v-19.911H347.2v-29.422H238.756v127.289zm85.6-64L512 366.4v-74.044zM444.8 247.378l32.8-89.422v89.422H512V120h-53.511l-28.622 79.378L401.51 120h-54.4v127.2L290.933 120h-45.51l-55.467 127.378h38.222l10.578-25.511h58.577L308 247.377h73.511v-89.155l32.711 89.156zm-194.133-54.134L268 151.556l17.244 41.688z"/></svg>