<svg xmlns="http://www.w3.org/2000/svg" viewBox="0 0 512 512"><!--! Font Awesome Free 7.0.1 by @fontawesome - https://fontawesome.com License - https://fontawesome.com/license/free (Icons: CC BY 4.0, Fonts: SIL OFL 1.1, Code: MIT License) Copyright 2025 Fonticons, Inc.--><path fill="currentColor" d="M512 314.6c0 52.72-42 91.52-94 91.52-132.72 0-157.28-199.76-287.76-199.76-117.52 0-117.68 169.76 4.48 169.76 34 0 72.72-14.24 100.24-34 4.48-3.28 13.52-13.04 18.24-13.04s8.72 4 8.72 8.72c0 6.24-10.48 15.28-14.96 19.28-32.72 28.48-80.24 48.96-123.76 48.96C56.48 406.12 0 358.84 0 290.12s54-119.28 122.24-119.28c148.24 0 178 196.72 289.52 196.72 79.92 0 75.84-111.76 2.72-111.76-14 0-28 9.28-37.52 9.28-6.72 0-12.72-5.76-12.72-12.48 0-9.28 4.24-18.96 4.24-29.04 0-53.28-40.72-91.76-93.52-91.76-42.48 0-64 29.52-71.04 29.52-4.96 0-8.96-4-8.96-8.96 0-4.48 3.28-8.24 6.24-11.52 20.24-23.04 51.76-34.96 82.24-34.96 63.52 0 111.28 46.72 111.28 110.24 0 5.52-.24 10.96-.96 16.48 9.52-2.48 19.28-3.76 28.72-3.76 48.56 0 89.52 36.24 89.52 85.76"/></svg>