<svg xmlns="http://www.w3.org/2000/svg" viewBox="0 0 512 512"><!--! Font Awesome Free 7.0.1 by @fontawesome - https://fontawesome.com License - https://fontawesome.com/license/free (Icons: CC BY 4.0, Fonts: SIL OFL 1.1, Code: MIT License) Copyright 2025 Fonticons, Inc.--><path fill="currentColor" d="M73.143 0C32.8 0 0 32.8 0 73.143v365.714C0 479.2 32.8 512 73.143 512h365.714C479.2 512 512 479.2 512 438.857V73.143C512 32.8 479.2 0 438.857 0zM256 246.171c16.571-34.285 61.714-98.057 103.657-129.485 30.286-22.743 79.2-40.229 79.2 15.657 0 11.2-6.4 93.828-10.171 107.2-13.029 46.628-60.572 58.514-102.857 51.314 73.942 12.572 92.8 54.286 52.114 96-77.143 79.2-110.857-19.886-119.543-45.257l-.343-1.029c-1.028-2.971-1.6-4.685-2.057-4.685s-1.029 1.714-2.057 4.685l-.343 1.029c-8.686 25.371-42.4 124.343-119.543 45.257-40.571-41.714-21.828-83.428 52.114-96-42.285 7.2-89.828-4.686-102.857-51.314-3.771-13.372-10.171-96-10.171-107.2 0-55.886 49.028-38.286 79.2-15.657C194.286 148.114 239.429 212 256 246.17"/></svg>