<svg xmlns="http://www.w3.org/2000/svg" viewBox="0 0 512 512"><!--! Font Awesome Free 7.0.1 by @fontawesome - https://fontawesome.com License - https://fontawesome.com/license/free (Icons: CC BY 4.0, Fonts: SIL OFL 1.1, Code: MIT License) Copyright 2025 Fonticons, Inc.--><path fill="currentColor" d="M499.36 192.24c-8.689-34.87-25.165-61.165-60.261-61.165h-45.253v53.491c0 41.529-35.209 76.512-75.384 76.512H197.94c-32.952 0-60.262 28.213-60.262 61.278v114.88c0 32.727 28.438 51.912 60.262 61.278 38.143 11.173 74.82 13.204 120.523 0 30.357-8.802 60.262-26.52 60.262-61.277v-45.93h-120.41v-15.348h180.785c35.096 0 48.074-24.488 60.262-61.164 12.639-37.805 12.075-74.143 0-122.555M326.024 467.82c-8.576.564-16.814-3.612-21.328-10.947a23.53 23.53 0 0 1 0-24.037c4.514-7.335 12.752-11.51 21.328-10.947 8.577-.564 16.815 3.612 21.329 10.947a23.53 23.53 0 0 1 0 24.037c-4.514 7.335-12.752 11.51-21.329 10.946M192.41 245.955h120.524c33.516 0 60.262-27.648 60.262-61.277V69.685c0-32.727-27.536-57.215-60.262-62.745-40.4-6.658-84.3-6.32-120.524.113-51.008 9.028-60.262 27.874-60.262 62.745v45.93h120.637v15.347H86.894c-35.096 0-65.791 21.103-75.383 61.165C.45 238.17 0 266.834 11.51 314.795c8.576 35.66 29.002 61.164 64.098 61.164h41.416v-55.07c0-39.836 34.42-74.933 75.384-74.933M184.961 38.99a22.973 22.973 0 0 1 23.021 23.021 22.973 22.973 0 0 1-23.021 23.021 22.973 22.973 0 0 1-23.021-23.021A22.973 22.973 0 0 1 184.96 38.99"/></svg>