<svg xmlns="http://www.w3.org/2000/svg" viewBox="0 0 512 512"><!--! Font Awesome Free 7.0.1 by @fontawesome - https://fontawesome.com License - https://fontawesome.com/license/free (Icons: CC BY 4.0, Fonts: SIL OFL 1.1, Code: MIT License) Copyright 2025 Fonticons, Inc.--><path fill="currentColor" d="M73.143 0C32.8 0 0 32.8 0 73.143v365.714C0 479.2 32.8 512 73.143 512h365.714C479.2 512 512 479.2 512 438.857V73.143C512 32.8 479.2 0 438.857 0zm328.343 191.2c0 99.086-75.429 213.257-213.257 213.257-42.515 0-81.943-12.343-115.086-33.6 6.057.686 11.886.914 18.057.914 35.086 0 67.314-11.885 93.029-32-32.915-.685-60.572-22.285-70.058-52 11.543 1.715 21.943 1.715 33.829-1.371-34.286-6.971-60-37.143-60-73.6v-.914c9.943 5.6 21.6 9.028 33.829 9.485-10.286-6.857-18.743-16.114-24.572-26.971-5.828-10.857-8.914-23.086-8.8-35.429 0-13.942 3.657-26.742 10.172-37.828 36.914 45.486 92.342 75.2 154.514 78.4-10.629-50.857 27.428-92.114 73.143-92.114 21.6 0 41.028 9.028 54.743 23.657 16.914-3.2 33.142-9.486 47.542-18.057-5.6 17.371-17.371 32-32.914 41.257 15.086-1.6 29.714-5.829 43.2-11.657-10.171 14.971-22.971 28.228-37.6 38.857.229 3.2.229 6.514.229 9.714"/></svg>