<svg xmlns="http://www.w3.org/2000/svg" viewBox="0 0 512 512"><!--! Font Awesome Free 7.0.1 by @fontawesome - https://fontawesome.com License - https://fontawesome.com/license/free (Icons: CC BY 4.0, Fonts: SIL OFL 1.1, Code: MIT License) Copyright 2025 Fonticons, Inc.--><path fill="currentColor" d="M69.04 231.08c-6.4-.08-12.72 1.36-18.48 4.08s-10.8 6.88-14.72 11.92v-49.52c0-1.76-.72-3.44-1.92-4.64a6.6 6.6 0 0 0-4.64-1.92H6.56c-1.76 0-3.44.72-4.64 1.92S0 195.88 0 197.64v142.08c0 .88.16 1.68.48 2.48q.48 1.2 1.44 2.16t2.16 1.44c.8.32 1.68.48 2.48.48h22.72c.88 0 1.68-.16 2.48-.48q1.2-.48 2.16-1.44t1.44-2.16c.32-.8.48-1.68.48-2.48v-6.48c9.28 10.72 20.72 15.84 33.28 15.84 27.68 0 49.52-20.96 49.52-59.04 0-36.72-21.6-58.88-49.52-58.88zM57.2 317.4c-7.68 0-16.96-3.92-21.36-10V273c4.4-6.08 13.76-10.24 21.36-10.24 14.16 0 24.88 10.48 24.88 27.2 0 16.96-10.72 27.44-24.88 27.44m125.12-47.2c-7.68 0-13.92 6.24-13.92 13.92s6.24 13.92 13.92 13.92 13.92-6.24 13.92-13.92-6.24-13.92-13.92-13.92m36.88-72v-35.76c2.24-.96 4.16-2.64 5.28-4.8s1.52-4.64 1.04-7.12-1.76-4.56-3.68-6.16-4.32-2.4-6.72-2.4-4.88.88-6.72 2.4-3.2 3.76-3.68 6.16-.08 4.88 1.04 7.12 3.04 3.84 5.28 4.8v35.76c-22.4 1.04-43.52 10.88-58.88 27.28s-23.6 38.16-23.04 60.64 9.84 43.76 25.92 59.44 37.6 24.48 60.08 24.48 44-8.8 60.08-24.48 25.36-37.04 25.92-59.44-7.76-44.24-23.04-60.64-36.4-26.24-58.88-27.28m68.8 85.92c0 24.4-32.64 44.24-72.88 44.24s-72.88-19.76-72.88-44.24 32.64-44.24 72.88-44.24S288 259.64 288 284.12m-40.16 13.92c2.72 0 5.44-.8 7.76-2.32s4.08-3.68 5.12-6.24 1.36-5.36.8-8.08-1.84-5.2-3.84-7.12-4.4-3.28-7.12-3.84-5.52-.24-8.08.8-4.72 2.8-6.24 5.12a14 14 0 0 0-2.32 7.76c0 3.68 1.44 7.2 4.08 9.84s6.16 4.08 9.84 4.08m216.72-24.8c-11.84-2.08-17.92-3.04-17.92-7.92 0-4.4 5.84-7.92 14.16-7.92 9.76.08 19.36 2.88 27.6 8.08 1.44.96 3.2 1.28 4.96.88s3.2-1.36 4.08-2.88c.08-.08.08-.16.16-.24l6.88-11.92c.88-1.52 1.12-3.28.64-4.88s-1.52-3.12-2.96-4a79.3 79.3 0 0 0-41.6-11.28c-31.2 0-48.16 17.2-48.16 36.96 0 29.04 26.96 33.52 46.08 36.48 10.72 1.84 19.28 3.52 19.28 8.8 0 5.12-4.4 8.64-15.12 8.64-10.88 0-24.8-4.96-34.08-10.88q-1.08-.72-2.4-.96c-.88-.16-1.68-.16-2.56.08s-1.68.56-2.32 1.04-1.28 1.12-1.76 1.84c0 .08-.08.08-.08.16l-8.16 13.52c-.88 1.44-1.12 3.2-.8 4.8s1.36 3.12 2.8 4c12.16 8.24 30.16 13.36 47.52 13.36 32.32 0 51.2-15.84 51.2-37.2 0-30.48-28.4-35.12-47.44-38.64zm-76.72 48.64c-.4-1.6-1.44-2.96-2.88-3.84s-3.12-1.2-4.72-.88c-1.12.24-2.24.32-3.36.32-6.24 0-10-4.88-10-11.36v-40.96h16.24c1.76 0 3.36-.72 4.64-1.92s1.92-2.88 1.92-4.64v-18.16c0-1.76-.72-3.36-1.92-4.64s-2.88-1.92-4.64-1.92h-16.24v-24.16c0-1.76-.72-3.36-1.92-4.64s-2.88-1.92-4.64-1.92h-22.56c-1.76 0-3.36.72-4.64 1.92s-1.92 2.88-1.92 4.64v24.16h-12.08c-.88 0-1.68.16-2.48.48s-1.52.8-2.08 1.44-1.12 1.36-1.44 2.08-.48 1.6-.48 2.48v18.16c0 .88.16 1.68.48 2.48s.8 1.52 1.44 2.08 1.36 1.12 2.08 1.44 1.6.48 2.48.48h12.08v50.96c0 21.6 12.32 33.04 35.12 33.04 9.76 0 17.12-1.76 22.08-4.32 1.28-.64 2.32-1.76 2.96-3.12s.72-2.88.4-4.32l-4-15.44z"/></svg>