<svg xmlns="http://www.w3.org/2000/svg" viewBox="0 0 512 512"><!--! Font Awesome Free 7.0.1 by @fontawesome - https://fontawesome.com License - https://fontawesome.com/license/free (Icons: CC BY 4.0, Fonts: SIL OFL 1.1, Code: MIT License) Copyright 2025 Fonticons, Inc.--><path fill="currentColor" d="M239.07 52.331h.08c6.012.08 11.391 3.718 13.844 9.335l104.425 244.055.237-.08.159.317-2.215 7.911-33.939 124.994c-2.927 12.816-15.584 20.806-28.321 17.879L239.229 444.4l-54.19 12.342c-12.737 2.927-25.395-5.063-28.322-17.88L122.779 313.87l-2.136-7.911.079-.316L225.226 61.666c2.374-5.537 7.832-9.177 13.844-9.335M130.057 307.145l103.634 30.932 5.459 96.91 6.25-96.12 103.317-31.09.158-.079-103.634 19.857-6.803-253.31-4.114 253.31zM340.41 228.43l74.68-32.435h58.383L349.271 391.871l24.998-86.23zm135.674-32.593 32.752 60.282c3.164 5.933-3.086 12.578-9.177 9.651l-37.657-17.958zM104.11 304.297l24.84 88.207L4.667 174.556C0 166.33 9.02 157.152 17.246 161.74l120.089 66.611-33.305 75.946z"/></svg>