<svg xmlns="http://www.w3.org/2000/svg" viewBox="0 0 512 512"><!--! Font Awesome Free 7.0.1 by @fontawesome - https://fontawesome.com License - https://fontawesome.com/license/free (Icons: CC BY 4.0, Fonts: SIL OFL 1.1, Code: MIT License) Copyright 2025 Fonticons, Inc.--><path fill="currentColor" d="M503.088 74.212c-10.74-30.279-34.621-54.16-64.9-65.128C410.65.057 385.285.057 333.526.057h-155.28c-51.189 0-76.783 0-104.32 8.57A108.67 108.67 0 0 0 8.798 73.755C0 101.52 0 127.115 0 178.532v154.936c0 51.646 0 77.012 8.57 104.549a108.67 108.67 0 0 0 65.128 65.128c27.765 8.798 53.36 8.798 104.662 8.798h155.051c51.417 0 77.012 0 104.663-8.798a108.67 108.67 0 0 0 65.128-65.128C512 410.25 512 384.657 512 333.468V178.646c0-51.417 0-77.012-8.798-104.548zm-133.913 101.12-29.48 24.11c-2.627 2.17-6.284 1.713-8.34-1.03-15.083-18.51-38.506-29.021-64.1-29.021-28.565 0-46.39 12.454-46.39 29.936-.457 14.625 13.368 22.395 56.102 31.65 53.93 11.426 78.497 33.935 78.497 71.641 0 47.304-38.506 82.153-98.721 86.038l-5.828 27.994c-.457 2.628-2.97 4.685-5.827 4.685h-46.39c-3.884 0-6.627-3.657-5.827-7.313l7.313-31.193c-29.708-8.57-53.93-25.137-67.756-45.361-1.714-2.628-1.257-6.056 1.256-7.999l32.222-25.137c2.628-2.17 6.627-1.485 8.57 1.257 17.024 23.88 43.418 38.049 75.068 38.049 28.565 0 50.046-13.94 50.046-33.936 0-15.31-10.74-22.395-47.075-29.936-61.929-13.368-86.61-36.335-86.61-74.155 0-43.876 36.793-76.783 92.437-81.125l6.056-29.022c.457-2.628 2.97-4.684 5.827-4.684h45.59c3.657 0 6.627 3.428 5.827 7.084l-7.084 32.45c23.88 7.312 43.42 20.452 55.645 36.792 1.943 2.399 1.485 6.055-1.028 7.998z"/></svg>