<svg xmlns="http://www.w3.org/2000/svg" viewBox="0 0 512 512"><!--! Font Awesome Free 7.0.1 by @fontawesome - https://fontawesome.com License - https://fontawesome.com/license/free (Icons: CC BY 4.0, Fonts: SIL OFL 1.1, Code: MIT License) Copyright 2025 Fonticons, Inc.--><path fill="currentColor" d="M69.76 93.96H0v324h80.32c-39.76-42.08-63.04-100.24-62.96-169.68-.08-61.36 19.2-114.16 52.4-154.32m190.56 7.76c-36.72.08-68.08 26.8-71.36 66.56h135.92c-.88-39.76-27.6-66.48-64.56-66.56m184.56-7.68h.24l-.08-.08zm.24 0c25.12 34.16 38.96 78 36.96 130.16.4 4.8.4 9.36 0 19.28H184.16c-.16 87.76 31.12 155.92 110.88 156.24 54.8-.24 94.4-40.8 121.52-84.88l77.12 38.56c-13.92 24.72-29.2 46.24-46.32 64.64H512v-324z"/></svg>