<svg xmlns="http://www.w3.org/2000/svg" viewBox="0 0 512 512"><!--! Font Awesome Free 7.0.1 by @fontawesome - https://fontawesome.com License - https://fontawesome.com/license/free (Icons: CC BY 4.0, Fonts: SIL OFL 1.1, Code: MIT License) Copyright 2025 Fonticons, Inc.--><path fill="currentColor" d="M475.429 361.143C473.37 373.37 459.657 486.857 457.714 512c-134.743-4.914-251.314-5.371-421.143 0v-29.143c52-10.171 69.258-9.143 69.715-40.228 2.057-82.629 4-278.972 0-368C105.143 42.057 92.457 44 36.57 33.486V4.343C121.03 7.086 329.03 14.17 451.43 0c-4 43.657-8.915 144.571-8.915 144.571H416c-12.686-48.914-21.486-103.428-62.514-103.428H196.914c-11.657 0-12.228 4-12.228 11.2v187.2c66.285.571 101.143-2.857 101.143-2.857 34.057-1.143 31.542-9.715 46.514-74.629h29.486c-5.029 115.886-4.458 70.629-2.058 183.2l-29.485-.114c-10.515-45.829-10.4-69.714-45.143-70.286 0 0-24.572-2.286-100.572-2.286V431.43c0 29.714 16.343 43.771 50.629 43.771h102.057c72.686 0 76.114-28.571 112.8-114.057z"/></svg>