<svg xmlns="http://www.w3.org/2000/svg" viewBox="0 0 512 512"><!--! Font Awesome Free 7.0.1 by @fontawesome - https://fontawesome.com License - https://fontawesome.com/license/free (Icons: CC BY 4.0, Fonts: SIL OFL 1.1, Code: MIT License) Copyright 2025 Fonticons, Inc.--><path fill="currentColor" d="m128.484 330.188 29.644.619a206 206 0 0 1-29.644-13.003zm44.66-4.102v4.102l-15.016.619c28.25 9.675 54.102 10.99 73.298 5.573-15.403.155-35.45-2.013-58.283-10.294M489.63 236.92c12.307 0 22.369-9.985 22.369-22.369s-9.985-18.963-22.369-18.963c-12.306 0-22.368 6.657-22.368 18.963s9.984 22.369 22.368 22.369m-22.446 93.267H512V244.66h-44.815zm-57.043 0h44.814V179.026l-44.814 21.13zm-23.994-92.416c-14.087-14.086-39.01-13.235-39.01-13.235s-25-.851-39.01 13.235c-14.086 14.087-13.002 26.239-13.002 40.713s-1.084 26.548 13.003 40.635 39.01 13.235 39.01 13.235 25 .851 39.009-13.235c14.087-14.087 13.003-26.162 13.003-40.635-.077-14.552 1.006-26.703-13.003-40.713m-30.805 55.65c0 2.787-1.393 9.676-8.282 9.676s-8.282-6.889-8.282-9.675v-31.27c0-6.733 5.65-8.436 8.282-8.436s8.282 1.625 8.282 8.436zm-82.199-55.65c-14.087-14.086-39.01-13.235-39.01-13.235s-24.922-.851-39.009 13.235c-1.47 1.47-2.864 3.019-4.102 4.644-29.567-22.91-56.115-35.99-79.025-47.291v-16.022l-17.415 8.205c-42.106-17.106-68.886-14.087-75.31.077 0 0-19.273 25.387 47.833 85.76v57.043h44.814V308.05c-5.03-3.25-10.062-6.733-15.015-10.526-11.456-8.669-21.208-16.718-29.722-24.304v-23.993c10.14 11.377 23.607 24.303 41.332 38.932l3.483 2.786v-23.065c0-5.34 1.315-14.087 8.359-14.087 7.043 0 8.204 5.34 8.204 11.61v37.694a206.4 206.4 0 0 0 44.66 22.91V253.33c0-14.474-10.372-28.948-31.424-28.948-12.23-.077-23.607 6.347-29.8 16.95v-42.027c32.431 16.176 64.94 35.99 77.323 45.124-7.895 11.3-7.198 21.75-7.198 33.823 0 14.474-1.084 26.549 13.003 40.635 14.087 14.087 39.01 13.236 39.01 13.236s25 .851 39.01-13.236c14.086-14.086 12.925-26.16 12.925-40.635 0-14.319 1.16-26.47-12.926-40.48M67.106 200.156v48.994c-37.694-42.183-30.109-58.824-27.245-61.223 10.449-8.824 29.025-6.192 49.845 1.625zm175.31 93.267c0 2.786-1.393 9.675-8.281 9.675s-8.282-6.889-8.282-9.675v-31.27c0-6.733 5.65-8.436 8.282-8.436s8.281 1.625 8.281 8.436z"/></svg>