<svg xmlns="http://www.w3.org/2000/svg" viewBox="0 0 512 512"><!--! Font Awesome Free 7.0.1 by @fontawesome - https://fontawesome.com License - https://fontawesome.com/license/free (Icons: CC BY 4.0, Fonts: SIL OFL 1.1, Code: MIT License) Copyright 2025 Fonticons, Inc.--><path fill="currentColor" d="M468.714 253.095v60.543c-21.382 4.88-42.88 7.088-60.543 7.088C365.29 410.67 288.479 487.83 262.798 502.24c-16.269 9.18-31.492 9.761-49.62-.93-31.491-18.941-150.95-116.902-190.692-424.846h86.573c21.73 184.882 74.952 279.706 133.403 350.707 32.421-32.421 63.68-75.65 87.851-124.223-57.87-29.4-93.08-94.01-93.08-169.195C237.233 57.522 281.043 0 355.995 0c133.52 0 123.41 148.626 94.823 210.912 0 0-53.92 10.691-73.79-23.822 3.95-13.13 9.529-35.79 9.529-56.36 0-36.371-13.132-54.15-33.003-54.15-21.15 0-35.79 19.87-35.79 58.102.115 92.034 69.025 137.935 150.95 118.413"/></svg>