<svg xmlns="http://www.w3.org/2000/svg" viewBox="0 0 512 512"><!--! Font Awesome Free 7.0.1 by @fontawesome - https://fontawesome.com License - https://fontawesome.com/license/free (Icons: CC BY 4.0, Fonts: SIL OFL 1.1, Code: MIT License) Copyright 2025 Fonticons, Inc.--><path fill="currentColor" d="M318.163 214.77c-8.66 2.224-15.809 3.416-23.118 6.037-5.799 1.51-11.677 3.099-18.43 4.846l-.477.08c-3.336.953-3.654 1.033-6.752-2.542-3.734-4.21-6.435-6.912-11.599-9.454-15.65-7.626-30.743-5.402-44.805 3.734-16.841 10.883-25.5 27.01-25.262 47.03.238 19.86 13.823 36.145 32.73 38.846 17.477 2.224 31.618-3.654 42.74-16.285 1.668-2.066 3.177-4.21 4.845-6.594.636-.794 1.192-1.668 1.828-2.622h-47.745c-5.163 0-6.435-3.177-4.687-7.388 3.178-7.705 9.136-20.575 12.631-27.01.715-1.43 2.463-4.607 5.482-4.607h80.315c3.575-10.645 9.374-21.37 17.16-31.539 18.033-23.753 39.164-36.145 69.272-41.31 25.263-4.448 49.016-1.985 70.624 12.632 19.542 13.346 31.618 31.459 34.875 55.212 4.21 33.445-5.482 60.614-29.155 83.89-15.65 16.603-35.67 27.01-58.708 31.697-4.448.795-8.818 1.192-13.107 1.589-2.304.159-4.529.397-6.753.635-22.482-.476-43.057-6.91-60.375-21.766-12.155-10.566-20.576-23.515-24.707-38.53-2.94 5.8-6.355 11.44-11.122 16.763-17.159 23.514-40.435 38.131-69.829 42.024-24.309 3.257-46.79-1.43-66.65-16.285-18.272-13.903-28.68-32.174-31.38-54.974-3.257-27.01 4.687-51.955 20.972-72.53 17.636-23.038 40.913-37.655 69.353-42.819 23.276-4.925 45.52-1.51 65.618 12.155 13.108 8.659 22.482 20.496 28.679 34.875 1.509 2.224.476 3.495-2.463 4.21m-279.475 4.449c-1.033 0-1.271-.477-.715-1.271l5.243-6.674c.477-.714 1.748-1.191 2.701-1.191h88.418c.954 0 1.192.715.715 1.43l-4.21 6.435c-.477.794-1.748 1.509-2.463 1.509l-89.61-.238zm-37.417 22.8c-.953 0-1.271-.557-.715-1.272l5.164-6.673c.476-.715 1.747-1.27 2.7-1.27h112.887c.953 0 1.43.794 1.192 1.508l-1.986 5.959c-.239.953-1.192 1.509-2.225 1.509zm59.184 21.29c-.477.715-.238 1.43.715 1.43l54.02.238c.715 0 1.748-.715 1.748-1.668l.476-5.958c0-1.033-.476-1.748-1.509-1.748H66.413c-.953 0-1.986.715-2.463 1.51zm398.399-14.3c-.16-2.065-.239-3.813-.556-5.56-4.45-24.469-27.01-38.371-50.525-32.89-23.038 5.164-37.894 19.781-43.296 43.058-4.448 19.304 4.926 38.847 22.72 46.79 13.664 5.959 27.249 5.244 40.357-1.509 19.542-10.804 30.188-25.977 31.459-47.267-.08-.954-.08-1.827-.16-2.622"/></svg>