<svg xmlns="http://www.w3.org/2000/svg" viewBox="0 0 512 512"><!--! Font Awesome Free 7.0.1 by @fontawesome - https://fontawesome.com License - https://fontawesome.com/license/free (Icons: CC BY 4.0, Fonts: SIL OFL 1.1, Code: MIT License) Copyright 2025 Fonticons, Inc.--><path fill="currentColor" d="M425.309 99.533c-.207-1.135-.722-2.166-1.548-2.888-.825-.722-1.856-1.238-2.99-1.238-2.064 0-38.37-.825-38.37-.825s-22.279-21.454-30.53-29.705v446.298l129.65-32.18s-55.697-376.987-56.11-379.462zm-102.73-34.656c-1.96-6.292-4.436-12.274-7.427-18.153-10.727-20.629-26.817-31.871-45.795-31.871-1.34 0-2.785.103-4.126.412-.412-.825-1.237-1.238-1.65-2.063C255.33 4.126 244.603 0 231.813.412c-24.754.826-49.508 18.566-69.312 50.334-14.027 22.279-24.754 50.334-27.642 72.303-28.467 8.664-48.27 14.853-48.683 15.265-14.44 4.539-14.853 4.951-16.503 18.566-1.238 10.314-39.194 300.97-39.194 300.97L342.589 512V59.926c-1.548.103-2.992.206-4.539.412 0 0-5.776 1.65-15.265 4.539zm-57.038 17.74c-16.503 4.951-34.656 10.727-52.397 16.09 4.951-19.39 14.853-38.781 26.405-51.57 4.538-4.54 10.727-9.903 17.74-13.203 7.014 14.852 8.664 35.068 8.252 48.683M231.71 17.328c5.157-.206 10.314 1.135 14.852 3.713-6.6 3.3-13.202 8.664-19.39 14.853-15.678 16.915-27.643 43.32-32.593 68.59a20200 20200 0 0 1-43.32 13.202c9.076-39.607 42.494-99.43 80.45-100.255zm-47.858 227.12c1.65 26.405 71.374 32.18 75.5 94.582 2.888 49.096-25.992 82.617-67.661 85.092-50.334 3.301-77.976-26.404-77.976-26.404l10.727-45.383s27.642 21.041 49.92 19.391c14.44-.825 19.804-12.79 19.391-21.041-2.062-34.656-58.997-32.593-62.71-89.631-3.3-47.858 28.055-96.232 97.47-100.77 26.817-1.65 40.431 4.95 40.431 4.95l-15.677 59.41s-17.74-8.25-38.782-6.6c-30.53 2.062-30.943 21.453-30.53 26.404zm98.192-166.782c0-12.377-1.65-30.117-7.427-44.97 18.978 3.713 28.055 24.754 32.18 37.544q-11.139 3.094-24.753 7.426"/></svg>