<svg xmlns="http://www.w3.org/2000/svg" viewBox="0 0 512 512"><!--! Font Awesome Free 7.0.1 by @fontawesome - https://fontawesome.com License - https://fontawesome.com/license/free (Icons: CC BY 4.0, Fonts: SIL OFL 1.1, Code: MIT License) Copyright 2025 Fonticons, Inc.--><path fill="currentColor" d="M211.699 275.94c1.657-21.46 14.92-40.249 34.446-49.09a58.82 58.82 0 0 1 59.683 6.447c17.315 12.802 26.157 34.078 23.21 55.353-1.658 21.46-14.921 40.25-34.447 49.091a58.82 58.82 0 0 1-59.683-6.447c-17.315-12.802-26.157-34.078-23.21-55.354m38.314 229.244C114.898 498.092 18.283 377.898 35.137 247.85c10.316-79.761 60.604-144.51 128.115-176.838C311.538 0 485.336 105.458 489.942 270.506 493.717 405.897 380.891 512 250.012 505.184M415.706 339.4c25.697-108.681-147.825-189.64-218.468-215.705-52.959 51.854-63.643 173.706-31.13 317.203 63.366 14.552 155.746-24.316 249.598-101.498"/></svg>