<svg xmlns="http://www.w3.org/2000/svg" viewBox="0 0 512 512"><!--! Font Awesome Free 7.0.1 by @fontawesome - https://fontawesome.com License - https://fontawesome.com/license/free (Icons: CC BY 4.0, Fonts: SIL OFL 1.1, Code: MIT License) Copyright 2025 Fonticons, Inc.--><path fill="currentColor" d="M180.571 108.343c42.972 69.257 73.372 129.257 96.343 185.714-9.485 38.629-21.485 76-35.771 112.343-15.086-59.771-30.286-115.771-64-169.714 7.428-41.6 2.628-84.115 3.428-128.343M126.286 192H19.77c-7.428 0-12 8.571-7.428 14.514 48.228 62.057 81.943 134.629 104.8 214.057h118.286c-18.515-79.657-44.229-152.8-94.286-221.142C137.714 194.857 132 192 126.286 192m54.628-100.571C259.2 214.857 329.486 359.429 338.857 512H468.8c-13.714-157.714-78.171-302.857-163.657-420.571zm287.772-78.286C466.629 5.37 459.314 0 451.314 0H350.4c-6.057 0-10.286 5.714-8.914 11.771C356.57 64.914 366.97 120.914 371.77 178.63c55.086 98.514 91.086 203.771 103.543 309.485 18.057-69.143 28.915-152.571 28.915-232 0-84.114-13.829-165.828-35.543-242.971"/></svg>