<svg xmlns="http://www.w3.org/2000/svg" viewBox="0 0 512 512"><!--! Font Awesome Free 7.0.1 by @fontawesome - https://fontawesome.com License - https://fontawesome.com/license/free (Icons: CC BY 4.0, Fonts: SIL OFL 1.1, Code: MIT License) Copyright 2025 Fonticons, Inc.--><path fill="currentColor" d="M436.801 237.945c8.857 75.37-36.96 146.566-109.179 169.475s-150.398-8.772-186.422-75.54c-61.317 2.555-117.014-33.895-138.986-89.847C0 236.413.596 230.11 3.832 225.086c3.237-5.025 8.687-8.261 14.648-8.602l81.842-5.11-20.269-64.638a53.56 53.56 0 0 1 9.368-49.65c11.242-13.967 28.7-21.29 46.414-19.588 44.455 4.258 73.921 4.088 88.57-.51 14.648-4.6 38.408-21.121 71.622-49.736 13.54-11.667 32.106-15.755 49.224-10.816 17.118 4.94 30.744 18.14 36.109 35.258l20.098 64.043L470.27 73.41a18.65 18.65 0 0 1 16.948-1.363c5.535 2.3 9.623 7.068 10.986 12.945C512 143.073 487.644 204.476 436.8 237.86zm-209.33 208.99c12.859 6.388 18.31 21.973 12.093 34.917s-21.632 18.651-34.662 12.69l-37.386-17.885c-12.86-6.387-18.31-21.972-12.094-34.916 6.217-12.945 21.632-18.651 34.662-12.69l37.301 17.884zm260.683-110.882c12.604 7.154 17.033 23.25 9.88 35.939l-20.355 36.11c-7.409 12.177-23.079 16.35-35.428 9.282s-16.947-22.653-10.22-35.258l20.355-36.109c3.406-6.046 9.112-10.56 15.84-12.434s13.882-1.021 19.928 2.47"/></svg>