<svg xmlns="http://www.w3.org/2000/svg" viewBox="0 0 512 512"><!--! Font Awesome Free 7.0.1 by @fontawesome - https://fontawesome.com License - https://fontawesome.com/license/free (Icons: CC BY 4.0, Fonts: SIL OFL 1.1, Code: MIT License) Copyright 2025 Fonticons, Inc.--><path fill="currentColor" d="m438.844 234.797-11.84 144.384c-3.03 37.358-58.654 32.218-55.625-4.498l9.179-112.441-37.725 2.11c9.27 19.001 14.502 40.296 14.502 62.876 0 37.818-14.778 72.238-38.827 97.756l-36.073-36.073c53.146-58.47 12.025-153.472-67.924-153.472-23.773 0-45.435 9.087-61.682 23.865l-36.073-36.073c20.193-19 45.986-32.218 74.716-36.899l69.117-78.663-39.102-22.764-47.363 42.223c-27.537 24.6-64.803-16.981-37.175-41.672l62.417-55.716c8.995-8.078 22.121-9.363 32.585-3.305 0 0 127.863 74.258 128.046 74.441 14.87 9.271 19 33.044 5.6 48.281l-53.606 61.04 97.389-5.415c16.98-1.01 30.84 13.217 29.464 30.015M379.273 93.44c25.793 0 46.72-20.928 46.72-46.72C425.994 20.928 405.067 0 379.274 0s-46.72 20.928-46.72 46.72c0 25.793 20.927 46.721 46.72 46.721m-164.67 325.577c-73.982 0-116.94-83.161-75.91-143.283l-36.44-36.44C83.161 263.434 71.78 294 71.78 327.136c0 119.968 138.326 184.863 230.758 112.441l-36.44-36.44c-14.686 10.005-32.402 15.88-51.494 15.88"/></svg>