<svg xmlns="http://www.w3.org/2000/svg" viewBox="0 0 512 512"><!--! Font Awesome Free 7.0.1 by @fontawesome - https://fontawesome.com License - https://fontawesome.com/license/free (Icons: CC BY 4.0, Fonts: SIL OFL 1.1, Code: MIT License) Copyright 2025 Fonticons, Inc.--><path fill="currentColor" d="M457.143 0H54.857C24.571 0 0 24.571 0 54.857v402.286C0 487.429 24.571 512 54.857 512h402.286C487.429 512 512 487.429 512 457.143V54.857C512 24.571 487.429 0 457.143 0m-292 182.857c40.114 0 72.571 32.457 72.571 72.572 0 40.114-32.457 72.571-72.571 72.571S92.57 295.543 92.57 255.429c0-40.115 32.458-72.572 72.572-72.572m181.714 0c40.114 0 72.572 32.457 72.572 72.572 0 40.114-32.458 72.571-72.572 72.571s-72.571-32.457-72.571-72.571c0-40.115 32.457-72.572 72.571-72.572"/></svg>