<svg xmlns="http://www.w3.org/2000/svg" viewBox="0 0 512 512"><!--! Font Awesome Free 7.0.1 by @fontawesome - https://fontawesome.com License - https://fontawesome.com/license/free (Icons: CC BY 4.0, Fonts: SIL OFL 1.1, Code: MIT License) Copyright 2025 Fonticons, Inc.--><path fill="currentColor" d="M488.712 398.64 264.39 510.289a20.9 20.9 0 0 1-8.334 1.712c-2.854 0-5.708-.57-8.333-1.712L23.288 398.64c-4.566-2.283-4.566-6.05 0-8.334l53.769-26.713a20.9 20.9 0 0 1 8.333-1.712c2.854 0 5.708.57 8.334 1.712l153.885 76.486a20.9 20.9 0 0 0 8.334 1.713c2.854 0 5.708-.571 8.333-1.713l153.886-76.486a20.9 20.9 0 0 1 8.333-1.712c2.854 0 5.708.57 8.334 1.712l53.769 26.713c4.566 2.283 4.566 5.936 0 8.22zm0-155.825-53.769-26.713a20.9 20.9 0 0 0-8.333-1.713c-2.854 0-5.708.571-8.334 1.713l-153.885 76.486a20.9 20.9 0 0 1-8.334 1.712c-2.854 0-5.708-.57-8.333-1.712l-153.886-76.6a20.9 20.9 0 0 0-8.333-1.713c-2.854 0-5.708.57-8.334 1.713L23.288 242.7c-4.566 2.283-4.566 6.05 0 8.333L247.61 362.681a20.9 20.9 0 0 0 8.334 1.712c2.854 0 5.708-.57 8.333-1.712l224.322-111.647c4.566-2.283 4.566-6.05 0-8.333zM23.288 112.903 247.61 215.988a22.45 22.45 0 0 0 16.782 0l224.32-103.085c4.567-2.17 4.567-5.594 0-7.649L264.392 2.169a22.45 22.45 0 0 0-16.782 0L23.29 105.254c-4.567 2.055-4.567 5.594 0 7.649"/></svg>