<svg xmlns="http://www.w3.org/2000/svg" viewBox="0 0 512 512"><!--! Font Awesome Free 7.0.1 by @fontawesome - https://fontawesome.com License - https://fontawesome.com/license/free (Icons: CC BY 4.0, Fonts: SIL OFL 1.1, Code: MIT License) Copyright 2025 Fonticons, Inc.--><path fill="currentColor" d="M326.978 441.022c-11.279 0-20.507 9.228-20.507 20.507s9.228 20.507 20.507 20.507 20.508-9.228 20.508-20.507-9.229-20.507-20.508-20.507m127.488-168.16c-10.824-16.634-44.889-59.7-99.461-83.967-6.95-3.076-13.9-5.81-20.963-8.316 4.671-11.28 6.836-23.47 6.608-35.774s-3.076-24.267-8.203-35.433a89.6 89.6 0 0 0-21.533-29.28C301.8 71.89 291.09 65.738 279.47 61.865c-14.128-4.671-26.546-6.836-36.914-6.608-.683-2.279-2.164-12.532 10.71-39.875L227.176 0l-6.266 8.659c-9.912 13.785-19.254 26.887-27.685 39.761-3.076-.683-6.266-1.253-9.456-1.367-47.281-2.734-44.433-2.62-46.826-2.62-57.648 0-57.876 59.357-57.876 52.293l-2.734 41.812c-1.823 30.762 22.558 57.193 54.23 59.016l10.14.57a253.9 253.9 0 0 0-52.521 40.559c-71.32 72.117-71.32 151.07-71.32 214.643v38.28l26.545-33.95c3.532 14.924 9.115 29.393 16.634 42.837 6.608 11.507 16.975 10.71 22.33 8.317 4.785-2.165 11.393-7.861 4.33-22.9-9.115-19.14-15.153-39.533-18.001-60.497l53.319-68.13-28.14 84.422c66.306-48.306 179.324-70.408 269.101-43.976 38.964 11.506 76.789.797 96.498-27.116.798-1.139 1.368-2.506 2.051-3.645 2.05 10.709 3.076 21.532 3.19 32.356 0 26.545-4.215 60.268-16.975 92.966-2.849 7.406 2.05 16.52 9.798 17.887 8.43 1.823 17.43-3.532 20.963-12.646 10.937-29.052 16.633-62.206 16.633-98.207 0-43.977-14.81-88.296-40.9-126.348zM163.147 110.17l-17.887-1.025-1.595 24.836 14.925.912c-.683 7.405-.57 14.925.342 22.33l-25.52-1.481c-1.823-.114-3.646-.57-5.355-1.253-1.709-.684-3.19-1.823-4.443-3.19-1.254-1.368-2.165-2.963-2.849-4.671-.683-1.71-.911-3.532-.797-5.355l2.848-42.04c1.14-13.9 15.836-12.874 15.153-12.874l33.153 1.937c-3.19 7.063-5.81 14.355-7.975 21.874M332.22 306.357c-2.393 1.823-5.469 2.734-8.545 2.506-3.076-.227-5.81-1.709-7.86-3.987l-11.052-13.102-39.192 30.76c-1.823 1.482-4.215 2.166-6.608 1.938s-4.557-1.367-6.038-3.19l-18.001-21.191a8.65 8.65 0 0 1-1.709-6.152c.228-2.165 1.481-4.216 3.19-5.583l39.42-30.989-16.064-19.026-19.482 15.38c-1.823 1.368-3.988 2.051-6.266 1.823s-4.33-1.253-5.81-2.962c0 0-4.216-5.013-4.33-5.127-1.367-1.823-1.937-3.987-1.71-6.266.229-2.278 1.482-4.215 3.19-5.582l19.369-15.38s-21.077-25.065-21.191-25.18c-.911-1.139-1.481-2.392-1.937-3.76-.455-1.366-.455-2.847-.342-4.214.114-1.368.684-2.735 1.368-3.988.683-1.253 1.709-2.279 2.848-3.19 2.392-1.937 5.468-2.734 8.43-2.506 2.963.227 5.811 1.708 7.862 4.101l92.397 109.714c.911 1.14 1.48 2.393 1.937 3.76.455 1.367.455 2.848.341 4.215-.114 1.368-.683 2.849-1.367 3.988-.683 1.14-1.709 2.392-2.848 3.19M214.416 441.022c-11.28 0-20.508 9.228-20.508 20.507s9.229 20.507 20.508 20.507 20.507-9.228 20.507-20.507-9.228-20.507-20.507-20.507"/></svg>