<svg xmlns="http://www.w3.org/2000/svg" viewBox="0 0 512 512"><!--! Font Awesome Free 7.0.1 by @fontawesome - https://fontawesome.com License - https://fontawesome.com/license/free (Icons: CC BY 4.0, Fonts: SIL OFL 1.1, Code: MIT License) Copyright 2025 Fonticons, Inc.--><path fill="currentColor" d="M243.064 292.182c5.252-5.252 14.298-5.252 19.55 0l74.894 74.894c13.811 13.812 32.194 21.398 51.647 21.398h14.687l-94.444 94.444c-29.47 28.693-77.325 28.693-106.796 0l-94.833-94.736h9.046c19.452 0 37.835-7.586 51.647-21.398zm19.55-71.586c-6.225 5.35-14.2 5.447-19.55 0l-74.602-74.602c-13.812-14.687-32.195-21.398-51.647-21.398h-9.046l94.736-94.736c29.568-29.47 77.422-29.47 106.893 0l94.541 94.444h-14.784c-19.453 0-37.836 7.587-51.647 21.398zm-145.8-74.116c13.423 0 25.776 5.447 36.086 14.979l74.602 74.602c7.003 6.127 16.145 10.504 25.386 10.504 9.142 0 18.285-4.377 25.288-10.504l74.894-74.894c9.532-9.434 22.663-14.881 36.085-14.881h36.669l56.705 56.705c29.471 29.471 29.471 77.325 0 106.796l-56.705 56.705h-36.669c-13.422 0-26.553-5.446-36.085-14.978l-74.894-74.894c-13.52-13.52-37.155-13.52-50.674.097L152.9 351.222c-10.31 9.532-22.663 14.979-36.085 14.979h-30.93L29.47 309.787C0 280.317 0 232.462 29.471 202.991l56.413-56.51z"/></svg>