<svg xmlns="http://www.w3.org/2000/svg" viewBox="0 0 512 512"><!--! Font Awesome Free 7.0.1 by @fontawesome - https://fontawesome.com License - https://fontawesome.com/license/free (Icons: CC BY 4.0, Fonts: SIL OFL 1.1, Code: MIT License) Copyright 2025 Fonticons, Inc.--><path fill="currentColor" d="M255.587 0C401.961 0 512 113.652 512 256c0 151.845-122.323 256-256.413 256C117.265 512 0 398.968 0 256 0 118.813 108.077 0 255.587 0m.826 46.142C134.4 46.142 46.142 147.2 46.142 256c0 113.342 94.142 209.342 210.27 209.342 106.53 0 209.343-83.716 209.343-209.342.103-117.471-93.11-209.858-209.342-209.858m3.716 54.916c2.89-.31 11.871 1.032 11.871 11.871l6.813 110.658 5.058-61.213c0-6.193 4.852-10.942 10.942-10.942s10.942 4.852 10.942 10.942c0 2.58-.516-5.884 5.884 84.13l5.987-66.272c.31-2.993 2.993-9.6 10.529-9.6 3.922 0 10.22 2.374 10.942 9.187l11.87 99.613 5.472-13.213q2.786-6.813 10.529-6.813h59.87v21.988h-52.541l-18.787 45.729c-4.026 10.219-20.13 9.393-21.471-3.2l-4.13-32.93-7.741 95.588c-.31 3.096-3.097 9.6-10.53 9.6-3.096 0-10.115-2.168-10.941-9.6 0-1.962.62 5.987-6.4-80.413l-5.471 74.529c-1.136 4.955-4.955 9.6-10.942 9.6-2.994 0-10.116-2.065-10.942-9.6 0-1.962.516 6.916-5.987-90.53l-5.987 97.859c0 6.503-3.716 12.8-10.942 12.8-5.368 0-10.942-4.232-10.942-12.387l-5.987-90.53c-5.987 95.485-5.471 86.71-5.471 88.672-1.136 4.954-4.955 9.6-10.942 9.6-3.097 0-10.116-2.168-10.942-9.6 0-.723-.413-1.136-.413-2.684l-6.4-91.458-5.058 58.529c-.723 6.71-6.916 9.6-10.942 9.6-5.987 0-9.91-4.233-10.942-9.187l-11.458-78.865c-2.064 4.13-3.613 8.671-11.458 8.671H90.013V259.2h46.245l14.142-28.8c4.542-10.22 18.787-7.432 20.542 2.787l3.2 21.058 8.67-101.058c0-6.193 4.956-10.942 10.943-10.942.516 0 10.942-.206 10.942 12.8l5.058 71.33 6.813-95.588c0-10.426 9.806-10.942 10.529-10.942.62 0 10.942.723 10.942 10.942l5.47 83.2 6.4-101.058c.104-1.135-.619-10.632 10.22-11.87"/></svg>