<svg xmlns="http://www.w3.org/2000/svg" fill="none" viewBox="0 0 512 512"><path fill="currentColor" d="m66.259 224.878 89.349 12.047v35.138l-89.35 12.047zm30.117-94.368 77.302 45.176-13.05 32.126-87.342-23.09zm65.255-76.298 55.216 71.278-25.098 25.098-71.278-55.215zm87.342-46.18 23.09 87.34-32.126 13.052-45.176-77.302zM352.376 0 340.33 89.349h-35.137L293.145 0zM74.29 327.278l87.341-23.09 13.051 32.126L97.38 381.49z"/><path fill="currentColor" fill-opacity=".8" d="m120.47 416.627 71.279-55.215 25.098 25.098-55.216 72.282z"/><path fill="currentColor" fill-opacity=".6" d="m197.773 481.882 45.176-78.306 32.126 13.051-23.09 87.342z"/><path fill="currentColor" fill-opacity=".4" d="m292.141 512 12.047-89.349h35.137L351.373 512z"/><path fill="currentColor" fill-opacity=".2" d="m391.53 504.973-23.09-87.342 32.125-13.05 45.176 78.305z"/></svg>