<svg xmlns="http://www.w3.org/2000/svg" fill="none" viewBox="0 0 512 512"><path fill="#000" d="m1 225 89 12v35L1 284zM31 131l77 45-13 32-87-23zM96 55l55 71-25 25-71-55zM183 9l23 87-32 13-45-77zM286 1l-12 89h-35L227 1zM9 327l87-23 13 32-77 45z"/><path fill="#000" fill-opacity=".8" d="m55 416 71-55 25 25-55 72z"/><path fill="#000" fill-opacity=".6" d="m132 481 45-78 32 13-23 87z"/><path fill="#000" fill-opacity=".4" d="m226 511 12-89h35l12 89z"/><path fill="#000" fill-opacity=".2" d="m325 504-23-87 32-13 45 78z"/></svg>