<svg xmlns="http://www.w3.org/2000/svg" viewBox="0 0 512 512"><!--! Font Awesome Free 7.0.1 by @fontawesome - https://fontawesome.com License - https://fontawesome.com/license/free (Icons: CC BY 4.0, Fonts: SIL OFL 1.1, Code: MIT License) Copyright 2025 Fonticons, Inc.--><path fill="currentColor" d="M512 443.7c0 35.3-28.5 64-63.9 64H64c-35.4 0-64-28.7-64-64v-252c.1-15.5 7.8-30 20.5-38.8L206 25c30.1-20.7 69.8-20.7 99.9 0l185.6 127.9c12.8 8.8 20.4 23.3 20.5 38.8zm-448 16h384.1c8.8 0 15.9-7.1 15.9-16V252L309.2 369.4c-31.4 23.9-74.9 23.9-106.4 0L48 252v191.7c0 8.9 7.2 16 16 16m399.6-267.6L278.7 64.5a40.07 40.07 0 0 0-45.4 0L48.4 192.1l183.4 139.1c14.3 10.8 34.1 10.8 48.4 0z"/></svg>