<svg xmlns="http://www.w3.org/2000/svg" viewBox="0 0 512 512"><!--! Font Awesome Free 7.0.1 by @fontawesome - https://fontawesome.com License - https://fontawesome.com/license/free (Icons: CC BY 4.0, Fonts: SIL OFL 1.1, Code: MIT License) Copyright 2025 Fonticons, Inc.--><path fill="currentColor" d="m438.346 61.627 12.027 12.027c9.344 9.343 9.344 24.452 0 33.696l-28.925 29.024-45.822-45.822 28.925-28.925c9.343-9.344 24.452-9.344 33.696 0zM208.537 257.739 341.93 124.248l45.822 45.822-133.491 133.393a23.8 23.8 0 0 1-10.338 6.063l-58.148 16.6 16.6-58.149a23.8 23.8 0 0 1 6.063-10.337zM370.855 27.931 174.742 223.944c-8.648 8.648-14.91 19.283-18.19 30.913l-28.428 99.398c-2.385 8.35-.1 17.295 6.064 23.458 6.162 6.163 15.108 8.449 23.458 6.063l99.398-28.428c11.729-3.38 22.364-9.641 30.913-18.19l196.112-196.013C512 113.215 512 67.89 484.07 39.958l-12.027-12.027C444.11 0 398.785 0 370.855 27.93M87.47 66.696C39.163 66.696 0 105.86 0 154.166V424.53C0 472.837 39.163 512 87.47 512h270.363c48.308 0 87.47-39.163 87.47-87.47V313.204a23.8 23.8 0 0 0-23.855-23.856 23.8 23.8 0 0 0-23.855 23.856V424.53c0 21.967-17.793 39.759-39.76 39.759H87.47c-21.967 0-39.759-17.792-39.759-39.76V154.168c0-21.967 17.792-39.76 39.76-39.76h111.325a23.8 23.8 0 0 0 23.856-23.855 23.8 23.8 0 0 0-23.856-23.856z"/></svg>