<svg xmlns="http://www.w3.org/2000/svg" viewBox="0 0 512 512"><!--! Font Awesome Free 7.0.1 by @fontawesome - https://fontawesome.com License - https://fontawesome.com/license/free (Icons: CC BY 4.0, Fonts: SIL OFL 1.1, Code: MIT License) Copyright 2025 Fonticons, Inc.--><path fill="currentColor" d="M277.326 21.326A21.275 21.275 0 0 0 256 0a21.275 21.275 0 0 0-21.326 21.326v69.398l-20.437-20.437c-8.353-8.353-21.86-8.353-30.123 0s-8.353 21.859 0 30.123l50.649 50.649v67.976l-58.824-33.944-18.571-69.131c-3.022-11.374-14.75-18.127-26.125-15.106s-18.216 14.661-15.106 26.035l7.465 27.99-60.069-34.654c-10.218-5.954-23.28-2.488-29.145 7.73-5.865 10.22-2.4 23.281 7.82 29.146l60.068 34.655-27.99 7.464c-11.375 3.02-18.128 14.75-15.107 26.124s14.75 18.127 26.125 15.106l69.131-18.571 58.824 33.943-58.824 33.944-69.131-18.571C73.93 268.174 62.2 274.927 59.179 286.3c-3.02 11.373 3.732 23.103 15.106 26.124l27.99 7.464-60.067 34.655c-10.22 6.042-13.685 19.104-7.82 29.323 5.865 10.218 18.927 13.684 29.145 7.82l60.069-34.655-7.465 27.99c-3.02 11.374 3.732 23.103 15.106 26.124s23.103-3.732 26.125-15.106l18.57-69.131 58.825-33.944v67.976l-50.65 50.65c-8.352 8.352-8.352 21.858 0 30.122 8.354 8.264 21.86 8.353 30.124 0l20.437-20.437v69.398A21.275 21.275 0 0 0 256 512a21.275 21.275 0 0 0 21.326-21.326v-69.398l20.437 20.437c8.353 8.353 21.86 8.353 30.123 0s8.353-21.859 0-30.123l-50.649-50.649v-67.976l58.824 33.944 18.571 69.131c3.022 11.374 14.75 18.127 26.125 15.106s18.127-14.75 15.106-26.124l-7.465-27.99 60.069 34.654c10.218 5.865 23.28 2.4 29.145-7.82 5.865-10.218 2.4-23.28-7.82-29.145l-60.068-34.654 27.99-7.464c11.375-3.022 18.128-14.75 15.107-26.125s-14.75-18.127-26.125-15.106l-69.131 18.572L298.74 256l58.824-33.944 69.131 18.572c11.374 3.02 23.103-3.732 26.125-15.106 3.02-11.374-3.732-23.103-15.106-26.125l-27.99-7.464 60.067-34.654c10.22-5.865 13.685-18.927 7.82-29.146-5.865-10.218-18.927-13.684-29.145-7.82l-60.069 34.655 7.465-27.99c3.02-11.374-3.732-23.103-15.106-26.124s-23.103 3.732-26.125 15.106l-18.57 69.131-58.825 33.944V151.06l50.65-50.65c8.352-8.352 8.352-21.858 0-30.122-8.354-8.264-21.86-8.353-30.124 0l-20.437 20.437z"/></svg>