<svg xmlns="http://www.w3.org/2000/svg" viewBox="0 0 512 512"><!--! Font Awesome Free 7.0.1 by @fontawesome - https://fontawesome.com License - https://fontawesome.com/license/free (Icons: CC BY 4.0, Fonts: SIL OFL 1.1, Code: MIT License) Copyright 2025 Fonticons, Inc.--><path fill="currentColor" d="M256 0a22.534 22.534 0 0 1 22.588 22.588v37.647h45.177a22.534 22.534 0 0 1 22.588 22.589 22.534 22.534 0 0 1-22.588 22.588h-45.177v75.294h152.283c19.858 0 35.953 16.094 35.953 35.953a35.55 35.55 0 0 1-4.424 17.223l-81.035 148.706 45.553 56.941c6.306 7.906 9.788 17.695 9.788 27.86 0 24.658-19.953 44.611-44.612 44.611H119.906c-24.659 0-44.612-19.953-44.612-44.612 0-10.164 3.482-19.953 9.788-27.859l45.553-56.94L49.6 233.975a36.2 36.2 0 0 1-4.424-17.317c0-19.859 16.095-35.953 35.953-35.953h152.283v-75.294h-45.177a22.534 22.534 0 0 1-22.588-22.588 22.534 22.534 0 0 1 22.588-22.589h45.177V22.588A22.534 22.534 0 0 1 256 0m-86.776 406.588-3.389 4.141-44.8 56.095h269.741l-44.8-56.095-3.388-4.14H169.13zm1.035-45.647.282.47H341.46l.282-.47 73.694-135.059H96.66l73.694 135.06z"/></svg>