<svg xmlns="http://www.w3.org/2000/svg" viewBox="0 0 512 512"><!--! Font Awesome Free 7.0.1 by @fontawesome - https://fontawesome.com License - https://fontawesome.com/license/free (Icons: CC BY 4.0, Fonts: SIL OFL 1.1, Code: MIT License) Copyright 2025 Fonticons, Inc.--><path fill="currentColor" d="M240.272 9.892c9.002-8.111 22.652-8.111 31.654 0l229.49 205.75c9.793 8.704 10.584 23.74 1.78 33.533a23.676 23.676 0 0 1-33.533 1.78l-7.913-7.122v203.079c0 34.918-28.39 63.307-63.308 63.307H113.558c-34.918 0-63.308-28.389-63.308-63.307V243.833l-7.913 7.122c-9.793 8.705-24.73 7.914-33.533-1.78s-7.914-24.73 1.78-33.534zm15.827 49.558L97.83 201.397v245.614c0 8.705 7.122 15.827 15.827 15.827h47.48V359.963c0-39.37 31.852-71.221 71.222-71.221h47.48c39.37 0 71.221 31.852 71.221 71.22v102.876h47.481c8.705 0 15.827-7.122 15.827-15.827V201.397L256.098 59.55zm-47.48 403.388h94.96V359.963a23.683 23.683 0 0 0-23.74-23.74h-47.48a23.683 23.683 0 0 0-23.74 23.74z"/></svg>