<svg xmlns="http://www.w3.org/2000/svg" viewBox="0 0 512 512"><!--! Font Awesome Free 7.0.1 by @fontawesome - https://fontawesome.com License - https://fontawesome.com/license/free (Icons: CC BY 4.0, Fonts: SIL OFL 1.1, Code: MIT License) Copyright 2025 Fonticons, Inc.--><path fill="currentColor" d="M38.56 104.68c-.08-.64-.16-1.36-.16-2v-.16c0-7.04 5.76-12.8 12.8-12.8.72 0 1.52.08 2.24.16 6 1.04 10.56 6.32 10.56 12.64 0 7.04-5.76 12.8-12.8 12.8-6.32 0-11.6-4.56-12.64-10.56zM0 102.44a51 51 0 0 0 32 47.44v84.24c-18.8 7.6-32 26-32 47.44 0 28.24 22.96 51.2 51.2 51.2a51 51 0 0 0 47.44-32h161.04c7.6 18.8 26 32 47.44 32 28.24 0 51.2-22.96 51.2-51.2a51 51 0 0 0-32-47.44v-84.24c18.8-7.6 32-26 32-47.44 0-28.24-22.96-51.2-51.2-51.2a51 51 0 0 0-47.44 32H98.64a51 51 0 0 0-47.44-32C22.96 51.24 0 74.2 0 102.44m294.4 0c0-7.04 5.76-12.8 12.8-12.8s12.8 5.76 12.8 12.8-5.76 12.8-12.8 12.8-12.8-5.76-12.8-12.8m-34.64 19.2c5.2 12.8 15.44 23.12 28.24 28.24v84.24c-12.8 5.2-23.12 15.44-28.24 28.24H98.72c-5.2-12.8-15.44-23.12-28.24-28.24v-84.24c12.8-5.2 23.12-15.44 28.24-28.24zm47.44 147.2c7.04 0 12.8 5.76 12.8 12.8s-5.76 12.8-12.8 12.8-12.8-5.76-12.8-12.8 5.76-12.8 12.8-12.8M64 281.64c0 6.32-4.56 11.6-10.56 12.64-.64.08-1.36.16-2 .16h-.16c-7.04 0-12.8-5.76-12.8-12.8 0-.72.08-1.52.16-2.24 1.04-6 6.32-10.56 12.64-10.56 7.04 0 12.8 5.76 12.8 12.8zm349.36-32c5.2 12.8 15.44 23.12 28.24 28.24v84.24c-12.8 5.2-23.12 15.44-28.24 28.24H252.32c-5.2-12.8-15.44-23.12-28.24-28.24v-16.56h-38.4v16.56c-18.8 7.6-32 26-32 47.44 0 28.24 22.96 51.2 51.2 51.2a51 51 0 0 0 47.44-32h161.04c7.6 18.8 26 32 47.44 32 28.24 0 51.2-22.96 51.2-51.2a51 51 0 0 0-32-47.44v-84.24c18.8-7.6 32-26 32-47.44 0-28.24-22.96-51.2-51.2-51.2a51 51 0 0 0-47.44 32H371.2v7.68a88.7 88.7 0 0 1 19.68 30.72h22.4zm47.44-6.4c-7.04 0-12.8-5.76-12.8-12.8s5.76-12.8 12.8-12.8 12.8 5.76 12.8 12.8-5.76 12.8-12.8 12.8M217.44 411.8a12.84 12.84 0 0 1-8.16 10.24c-4.32 1.68-9.28.8-12.88-2.24-3.52-3.04-5.12-7.84-4.16-12.4a12.84 12.84 0 0 1 8.16-10.24c4.32-1.68 9.28-.8 12.88 2.24 3.52 3.04 5.12 7.84 4.16 12.4m241.2 10.4c-6-1.04-10.56-6.32-10.56-12.64 0-7.04 5.76-12.8 12.8-12.8 6.32 0 11.6 4.56 12.64 10.56v.08c.08.72.16 1.44.16 2.16 0 7.04-5.76 12.8-12.8 12.8-.72 0-1.52-.08-2.24-.16"/></svg>