<svg xmlns="http://www.w3.org/2000/svg" viewBox="0 0 512 512"><!--! Font Awesome Free 7.0.1 by @fontawesome - https://fontawesome.com License - https://fontawesome.com/license/free (Icons: CC BY 4.0, Fonts: SIL OFL 1.1, Code: MIT License) Copyright 2025 Fonticons, Inc.--><path fill="currentColor" d="M54.857 438.857c0 10.057 8.229 18.286 18.286 18.286h365.714c10.057 0 18.286-8.229 18.286-18.286V73.143c0-10.057-8.229-18.286-18.286-18.286H73.143c-10.057 0-18.286 8.229-18.286 18.286zM73.143 512C32.8 512 0 479.2 0 438.857V73.143C0 32.8 32.8 0 73.143 0h365.714C479.2 0 512 32.8 512 73.143v365.714C512 479.2 479.2 512 438.857 512zm73.143-256c0-7.657 3.2-14.857 8.8-20.114l128-118.857c8-7.429 19.657-9.372 29.6-5.029s16.457 14.286 16.457 25.143v237.714c0 10.857-6.514 20.8-16.457 25.143s-21.6 2.4-29.6-5.029l-128-118.857c-5.6-5.143-8.8-12.457-8.8-20.114"/></svg>