<svg xmlns="http://www.w3.org/2000/svg" viewBox="0 0 512 512"><!--! Font Awesome Free 7.0.1 by @fontawesome - https://fontawesome.com License - https://fontawesome.com/license/free (Icons: CC BY 4.0, Fonts: SIL OFL 1.1, Code: MIT License) Copyright 2025 Fonticons, Inc.--><path fill="currentColor" d="M35.562 85.348a21.286 21.286 0 0 1 21.337-21.337 21.286 21.286 0 0 1 21.337 21.337 21.286 21.286 0 0 1-21.337 21.337 21.286 21.286 0 0 1-21.337-21.337m42.674 52.72c14.224-5.778 25.693-17.158 31.383-31.383h292.762c5.779 14.225 17.159 25.694 31.383 31.383v235.864c-14.224 5.778-25.693 17.158-31.383 31.383H109.619c-5.779-14.225-17.159-25.694-31.383-31.383zM455.19 28.45c-23.915 0-44.363 14.67-52.72 35.562H109.619C101.262 43.12 80.814 28.45 56.899 28.45 25.516 28.45 0 53.965 0 85.35c0 23.914 14.67 44.362 35.562 52.72v235.863C14.669 382.377 0 402.825 0 426.652c0 31.383 25.516 56.899 56.899 56.899 23.915 0 44.363-14.67 52.72-35.562h292.762c8.446 20.892 28.894 35.562 52.72 35.562 31.383 0 56.899-25.516 56.899-56.9 0-23.914-14.67-44.362-35.562-52.72V138.069C497.331 129.623 512 109.175 512 85.348c0-31.383-25.516-56.899-56.899-56.899zm-21.337 56.9A21.286 21.286 0 0 1 455.19 64.01a21.286 21.286 0 0 1 21.337 21.337 21.286 21.286 0 0 1-21.337 21.337 21.286 21.286 0 0 1-21.337-21.337M56.9 405.403a21.286 21.286 0 0 1 21.337 21.337 21.286 21.286 0 0 1-21.337 21.337 21.286 21.286 0 0 1-21.337-21.337 21.286 21.286 0 0 1 21.337-21.337m376.954 21.337a21.286 21.286 0 0 1 21.337-21.337 21.286 21.286 0 0 1 21.337 21.337 21.286 21.286 0 0 1-21.337 21.337 21.286 21.286 0 0 1-21.337-21.337M170.696 184.92h78.236v49.786h-78.236zm-7.112-35.562c-15.736 0-28.45 12.714-28.45 28.45v64.01c0 15.737 12.714 28.45 28.45 28.45h92.46c15.737 0 28.45-12.713 28.45-28.45v-64.01c0-15.736-12.713-28.45-28.45-28.45zm64.011 163.584v21.337c0 15.736 12.713 28.45 28.45 28.45h92.46c15.736 0 28.45-12.714 28.45-28.45v-64.01c0-15.737-12.714-28.45-28.45-28.45h-21.337c0 12.98-3.467 25.07-9.513 35.561h23.738v49.787h-78.236v-14.58c-2.312.266-4.712.355-7.113.355z"/></svg>