<svg xmlns="http://www.w3.org/2000/svg" viewBox="0 0 512 512"><!--! Font Awesome Free 7.0.1 by @fontawesome - https://fontawesome.com License - https://fontawesome.com/license/free (Icons: CC BY 4.0, Fonts: SIL OFL 1.1, Code: MIT License) Copyright 2025 Fonticons, Inc.--><path fill="currentColor" d="M169.212 77.514 256 169.757l86.788-92.243zm213.647 26.88-71.711 76.274h127.95l-56.14-76.274zm49.594 123.883H79.547L256 422.98zM73 180.668h127.95l-71.711-76.274-56.14 76.274zm430.767 39.774L273.655 474.359c-4.463 4.96-10.91 7.835-17.655 7.835s-13.093-2.876-17.655-7.835L8.232 220.442C.595 212.01 0 199.414 6.745 190.289L117.833 39.526c4.464-6.05 11.605-9.72 19.143-9.72h238.048c7.538 0 14.68 3.57 19.143 9.72l111.088 150.763c6.745 9.125 6.05 21.722-1.487 30.153"/></svg>