<svg xmlns="http://www.w3.org/2000/svg" viewBox="0 0 512 512"><!--! Font Awesome Free 7.0.1 by @fontawesome - https://fontawesome.com License - https://fontawesome.com/license/free (Icons: CC BY 4.0, Fonts: SIL OFL 1.1, Code: MIT License) Copyright 2025 Fonticons, Inc.--><path fill="currentColor" d="M142.411 89.19c-8.943-32.857 10.207-66.88 43.064-76.213 33.05-9.332 67.463 9.916 76.795 42.967l29.454 104.11L304.556 92.3c6.416-33.732 38.98-55.895 72.712-49.48 30.524 5.833 51.521 32.954 50.549 63.09a61.6 61.6 0 0 1 30.62-.098c33.344 8.36 53.563 42.092 45.3 75.434L449.981 396.76c-16.429 65.616-75.337 111.596-142.995 111.596h-32.76c-55.311 0-109.068-18.47-152.812-52.396l-89.432-69.602C4.86 365.263 0 326.185 21.094 299.064s60.173-31.982 87.294-10.888l16.526 12.832L74.559 173.47c-12.637-31.982 3.111-68.144 34.996-80.684 10.79-4.277 22.066-5.25 32.759-3.597zM217.36 68.58c-2.333-8.263-10.887-13.026-19.15-10.693s-13.026 10.887-10.693 19.15l53.27 177.31c3.403 11.956-3.207 24.496-14.97 28.482-11.762 3.985-24.593-1.944-29.162-13.512L146.883 144.89c-3.11-7.971-12.151-11.957-20.22-8.749s-11.956 12.151-8.748 20.22l71.254 180.42c11.665 29.454-23.039 55.409-48.021 35.967l-61.437-47.73a15.613 15.613 0 0 0-21.872 2.722c-5.346 6.805-4.082 16.526 2.722 21.872l89.433 69.602c35.48 27.607 79.128 42.578 124.135 42.578h32.76c46.174 0 86.516-31.496 97.695-76.31l53.854-215.415c2.041-8.36-3.014-16.817-11.276-18.858s-16.818 3.013-18.859 11.276l-25.274 101.097c-2.82 11.374-13.026 19.345-24.789 19.345-16.04 0-28.093-14.581-25.08-30.33l27.802-145.716c1.653-8.457-3.888-16.622-12.345-18.178-8.458-1.555-16.526 3.889-18.178 12.346l-30.913 162.339c-2.138 11.276-12.054 19.442-23.524 19.442-10.693 0-20.123-7.097-23.039-17.4z"/></svg>