<svg xmlns="http://www.w3.org/2000/svg" viewBox="0 0 512 512"><!--! Font Awesome Free 7.0.1 by @fontawesome - https://fontawesome.com License - https://fontawesome.com/license/free (Icons: CC BY 4.0, Fonts: SIL OFL 1.1, Code: MIT License) Copyright 2025 Fonticons, Inc.--><path fill="currentColor" d="M464 256c0-114.9-93.1-208-208-208S48 141.1 48 256s93.1 208 208 208 208-93.1 208-208M0 256C0 114.6 114.6 0 256 0s256 114.6 256 256-114.6 256-256 256S0 397.4 0 256m177.3 63.4c15 15.6 41.1 32.6 78.7 32.6s63.7-17 78.7-32.6c9.2-9.6 24.4-9.9 33.9-.7s9.9 24.4.7 33.9c-22.1 23-60 47.4-113.3 47.4s-91.2-24.4-113.3-47.4c-9.2-9.6-8.9-24.8.7-33.9s24.8-8.9 33.9.7M144 208c0-17.7 14.3-32 32-32s32 14.3 32 32-14.3 32-32 32-32-14.3-32-32m192-32c17.7 0 32 14.3 32 32s-14.3 32-32 32-32-14.3-32-32 14.3-32 32-32"/></svg>