<svg xmlns="http://www.w3.org/2000/svg" viewBox="0 0 512 512"><!--! Font Awesome Free 7.0.1 by @fontawesome - https://fontawesome.com License - https://fontawesome.com/license/free (Icons: CC BY 4.0, Fonts: SIL OFL 1.1, Code: MIT License) Copyright 2025 Fonticons, Inc.--><path fill="currentColor" d="M323.778 97.261c8.958-4.725 20.279-3.248 27.76 4.233l39.18 39.18 3.643 3.25c8.958 6.989 20.575 9.843 31.895 7.58l45.678-9.156 3.445-.394c7.876-.394 15.554 3.15 20.28 9.648A23.74 23.74 0 0 1 497.234 177L386.387 376.445l50.698 69.795 1.772 2.658c3.938 6.498 6.104 13.98 6.104 21.658 0 22.937-18.606 41.444-41.445 41.444h-295.13c-21.461 0-39.18-16.341-41.248-37.211l-.197-4.233.098-3.249c.591-7.58 3.347-14.865 7.777-21.067l50.698-69.795L14.766 177c-4.43-8.072-3.839-18.015 1.575-25.398 5.415-7.384 14.668-11.026 23.725-9.254l45.678 9.155c12.895 2.56 26.284-1.476 35.537-10.73l39.279-39.377 3.445-2.757c8.466-5.71 19.787-5.512 28.057 1.083l39.377 31.502 2.756 2.067c14.176 9.45 32.978 8.762 46.465-2.067l39.377-31.502zm-158.1 304.385-45.873 63.003h272.39l-45.874-63.003h-180.74zM310.194 168.14c-29.632 23.725-70.977 25.201-102.184 4.43l-6.103-4.43-22.937-18.31-24.217 24.217c-19.492 19.491-46.957 28.45-73.93 24.413l86.727 156.032h177l86.63-156.032c-25.3 3.741-50.895-3.839-69.993-20.673l-3.938-3.642-24.217-24.217-22.838 18.31zm-54.144-89.386c-21.756 0-39.377-17.621-39.377-39.377S234.293 0 256.05 0s39.377 17.621 39.377 39.377-17.621 39.377-39.377 39.377"/></svg>