<svg xmlns="http://www.w3.org/2000/svg" viewBox="0 0 512 512"><!--! Font Awesome Free 7.0.1 by @fontawesome - https://fontawesome.com License - https://fontawesome.com/license/free (Icons: CC BY 4.0, Fonts: SIL OFL 1.1, Code: MIT License) Copyright 2025 Fonticons, Inc.--><path fill="currentColor" d="M256 48c114.9 0 208 93.1 208 208s-93.1 208-208 208S48 370.9 48 256 141.1 48 256 48m0 464c141.4 0 256-114.6 256-256S397.4 0 256 0 0 114.6 0 256s114.6 256 256 256m-96-320v128c0 17.7 14.3 32 32 32h128c17.7 0 32-14.3 32-32V192c0-17.7-14.3-32-32-32H192c-17.7 0-32 14.3-32 32m48 112v-96h96v96z"/></svg>