<svg xmlns="http://www.w3.org/2000/svg" viewBox="0 0 512 512"><!--! Font Awesome Free 7.0.1 by @fontawesome - https://fontawesome.com License - https://fontawesome.com/license/free (Icons: CC BY 4.0, Fonts: SIL OFL 1.1, Code: MIT License) Copyright 2025 Fonticons, Inc.--><path fill="currentColor" d="M401.916 49.966c-5.375 1.692-11.247 1.791-16.124-.896a245 245 0 0 0-17.717-8.858c-10.352-4.679-13.636-18.215-4.081-24.486C378.924 5.872 396.84.1 416.05.1c52.354 0 94.756 42.4 94.756 94.755a94.5 94.5 0 0 1-7.565 37.126c-4.479 10.451-18.314 9.755-24.784.398-3.782-5.474-7.763-10.75-11.944-15.925-3.483-4.38-4.479-10.152-3.782-15.726.199-1.891.398-3.882.398-5.873 0-25.978-21.101-46.98-46.98-46.98-4.877 0-9.654.797-14.133 2.19zM33.543 132.28c-6.47 9.356-20.405 10.053-24.784-.398a94.5 94.5 0 0 1-7.565-37.126C1.194 42.4 43.596 0 95.95 0c19.21 0 37.126 5.773 52.056 15.627 9.555 6.27 6.27 19.807-4.08 24.485-6.072 2.787-11.945 5.673-17.718 8.858-4.877 2.688-10.849 2.588-16.124.896-4.479-1.393-9.157-2.19-14.134-2.19-25.978 0-46.98 21.102-46.98 46.98 0 1.991.1 3.982.399 5.873.696 5.574-.299 11.347-3.783 15.726-4.18 5.176-8.161 10.451-11.944 15.925zm397.636 154.376c0-96.746-78.432-175.179-175.179-175.179S80.821 189.91 80.821 286.657c0 96.746 78.432 175.178 175.179 175.178s175.179-78.432 175.179-175.179m-35.335 173.686c-38.22 30.756-86.892 49.27-139.844 49.27s-101.624-18.514-139.844-49.27l-42.302 42.302c-9.356 9.356-24.485 9.356-33.742 0s-9.356-24.485 0-33.742L82.414 426.6c-30.856-38.32-49.369-86.992-49.369-139.944 0-123.123 99.832-222.955 222.955-222.955s222.955 99.832 222.955 222.955c0 52.952-18.513 101.624-49.27 139.845l42.303 42.301c9.356 9.357 9.356 24.486 0 33.742-9.357 9.257-24.486 9.356-33.742 0l-42.302-42.301zm-115.956-277.2v93.66l40.809 40.81c9.356 9.355 9.356 24.484 0 33.741s-24.485 9.356-33.742 0l-47.776-47.776c-4.48-4.479-6.967-10.55-6.967-16.92V183.141a23.83 23.83 0 0 1 23.888-23.889 23.83 23.83 0 0 1 23.888 23.889z"/></svg>