<svg xmlns="http://www.w3.org/2000/svg" viewBox="0 0 512 512"><!--! Font Awesome Free 7.0.1 by @fontawesome - https://fontawesome.com License - https://fontawesome.com/license/free (Icons: CC BY 4.0, Fonts: SIL OFL 1.1, Code: MIT License) Copyright 2025 Fonticons, Inc.--><path fill="currentColor" d="M73.143 54.857c-10.057 0-18.286 8.229-18.286 18.286v365.714c0 10.057 8.229 18.286 18.286 18.286h365.714c10.057 0 18.286-8.229 18.286-18.286V73.143c0-10.057-8.229-18.286-18.286-18.286zM0 73.143C0 32.8 32.8 0 73.143 0h365.714C479.2 0 512 32.8 512 73.143v365.714C512 479.2 479.2 512 438.857 512H73.143C32.8 512 0 479.2 0 438.857zM228.571 356.57V283.43H155.43A27.363 27.363 0 0 1 128 256a27.363 27.363 0 0 1 27.429-27.429h73.142V155.43A27.363 27.363 0 0 1 256 128a27.363 27.363 0 0 1 27.429 27.429v73.142h73.142A27.363 27.363 0 0 1 384 256a27.363 27.363 0 0 1-27.429 27.429H283.43v73.142A27.363 27.363 0 0 1 256 384a27.363 27.363 0 0 1-27.429-27.429"/></svg>