<svg xmlns="http://www.w3.org/2000/svg" viewBox="0 0 512 512"><!--! Font Awesome Free 7.0.1 by @fontawesome - https://fontawesome.com License - https://fontawesome.com/license/free (Icons: CC BY 4.0, Fonts: SIL OFL 1.1, Code: MIT License) Copyright 2025 Fonticons, Inc.--><path fill="currentColor" d="M38.259 8.287C29.972 0 16.573 0 8.375 8.287.176 16.573.088 29.972 8.287 38.259L473.74 503.713c8.287 8.287 21.686 8.287 29.884 0 8.199-8.286 8.287-21.685 0-29.884l-84.98-84.98c2.38-2.116 4.76-4.232 7.052-6.348 41.256-38.347 68.848-84.099 81.983-115.57a28.03 28.03 0 0 0 0-21.686c-13.135-31.47-40.727-77.311-81.983-115.57-41.52-38.523-98.557-71.052-169.785-71.052-50.072 0-93.091 16.044-128.705 38.964zm119.802 119.89c28.297-16.662 61.002-27.417 97.939-27.417 57.477 0 104.727 26.094 140.959 59.68 33.94 31.472 57.388 69.026 69.289 95.472-11.989 26.446-35.438 63.912-69.29 95.47-2.732 2.47-5.465 4.938-8.286 7.406l-39.405-39.405c12.342-18.072 19.57-39.934 19.57-63.471 0-62.325-50.512-112.838-112.837-112.838-23.537 0-45.4 7.229-63.471 19.57zm160.44 160.44-95.206-95.207A70.4 70.4 0 0 1 256 185.388c38.964 0 70.523 31.56 70.523 70.524 0 11.813-2.909 22.92-8.022 32.705M93.267 182.92l-29.972-29.972c-28.739 32.44-48.485 66.82-58.975 92.12a28.03 28.03 0 0 0 0 21.687c13.135 31.47 40.727 77.311 81.983 115.57 41.52 38.523 98.557 71.052 169.785 71.052 32.882 0 62.766-6.964 89.477-18.16l-32.97-32.97c-17.63 5.643-36.496 8.816-56.595 8.816-57.477 0-104.727-26.093-140.959-59.68-33.94-31.471-57.388-69.025-69.289-95.471 9.168-20.364 25.212-47.25 47.603-72.992z"/></svg>