<svg xmlns="http://www.w3.org/2000/svg" viewBox="0 0 512 512"><!--! Font Awesome Free 7.0.1 by @fontawesome - https://fontawesome.com License - https://fontawesome.com/license/free (Icons: CC BY 4.0, Fonts: SIL OFL 1.1, Code: MIT License) Copyright 2025 Fonticons, Inc.--><path fill="currentColor" d="M1.198 268.276c-1.198-35.231 26.348-64.873 61.58-66.07l3.293-.1-8.184-1.797c-34.433-7.685-56.19-41.819-48.605-76.251s41.818-56.19 76.25-48.506l172.664 38.226c2.295-2.895 4.59-5.69 7.086-8.484l18.364-20.26c16.667-18.165 40.221-28.644 64.973-28.644h10.18c53.995 0 103.897 28.644 131.044 75.253l1.497 2.595c13.574 23.155 20.66 49.603 20.66 76.45v125.156c0 66.17-53.595 119.766-119.766 119.766H288.437c-35.232 0-63.876-28.644-63.876-63.875 0-2.795.2-5.59.5-8.284-19.363-10.978-32.437-31.738-32.437-55.591v-2.396l-125.355 4.392c-35.232 1.197-64.874-26.349-66.071-61.58m63.276-18.164c-8.783.299-15.67 7.684-15.37 16.567s7.685 15.67 16.468 15.37l161.185-5.589c9.781-.3 18.664 5.29 22.656 14.172s2.196 19.263-4.491 26.349c-2.795 2.894-4.392 6.687-4.392 10.978 0 8.783 7.186 15.97 15.969 15.97 9.082 0 17.366 5.09 21.458 13.273s3.194 17.865-2.295 25.051c-1.997 2.695-3.194 5.989-3.194 9.582 0 8.783 7.186 15.969 15.969 15.969h103.797c39.722 0 71.86-32.138 71.86-71.86V210.788c0-18.364-4.89-36.429-14.173-52.298l-1.497-2.594c-18.564-31.938-52.697-51.5-89.625-51.5h-10.18c-11.278 0-21.957 4.79-29.542 13.075l-18.364 20.26c-.6.599-1.098 1.297-1.697 1.896l56.889 13.175c8.583 1.996 13.973 10.579 11.976 19.162s-10.579 13.973-19.162 11.977l-85.433-19.961L75.153 122.26c-8.583-1.896-17.166 3.493-19.063 12.176s3.494 17.167 12.177 19.063L255.4 195.02c10.18 2.295 17.765 10.878 18.664 21.357l.1.998a24.28 24.28 0 0 1-5.79 18.065c-4.29 4.99-10.579 7.885-17.166 8.184z"/></svg>