<svg xmlns="http://www.w3.org/2000/svg" viewBox="0 0 512 512"><!--! Font Awesome Free 7.0.1 by @fontawesome - https://fontawesome.com License - https://fontawesome.com/license/free (Icons: CC BY 4.0, Fonts: SIL OFL 1.1, Code: MIT License) Copyright 2025 Fonticons, Inc.--><path fill="currentColor" d="M256 48c114.9 0 208 93.1 208 208s-93.1 208-208 208S48 370.9 48 256 141.1 48 256 48m0 464c141.4 0 256-114.6 256-256S397.4 0 256 0 0 114.6 0 256s114.6 256 256 256m-80-136c0 13.3 10.7 24 24 24h112c13.3 0 24-10.7 24-24s-10.7-24-24-24H200c-13.3 0-24 10.7-24 24m-16-112c-22.1 0-40-17.9-40-40 0-9.5 3.3-18.1 8.8-25 3.2 14.3 16 25 31.2 25s28-10.7 31.2-25c5.5 6.8 8.8 15.5 8.8 25 0 22.1-17.9 40-40 40m0 40c44.2 0 80-35.8 80-80s-35.8-80-80-80-80 35.8-80 80 35.8 80 80 80m192-40c-22.1 0-40-17.9-40-40 0-9.5 3.3-18.1 8.8-25 3.2 14.3 16 25 31.2 25s28-10.7 31.2-25c5.5 6.8 8.8 15.5 8.8 25 0 22.1-17.9 40-40 40m0 40c44.2 0 80-35.8 80-80s-35.8-80-80-80-80 35.8-80 80 35.8 80 80 80"/></svg>