<svg xmlns="http://www.w3.org/2000/svg" viewBox="0 0 512 512"><!--! Font Awesome Free 7.0.1 by @fontawesome - https://fontawesome.com License - https://fontawesome.com/license/free (Icons: CC BY 4.0, Fonts: SIL OFL 1.1, Code: MIT License) Copyright 2025 Fonticons, Inc.--><path fill="currentColor" d="M71.111 199.111c0-78.578 63.645-142.222 142.222-142.222 41.867 0 79.467 18.133 105.511 46.844 9.423-2.755 19.378-4.177 29.6-4.177 58.934 0 106.667 47.733 106.667 106.666 0 11.734-1.867 23.022-5.422 33.6C486.667 258.578 512 296.978 512 341.333c0 62.845-50.933 113.778-113.778 113.778H128c-70.667 0-128-57.333-128-128 0-50.489 29.244-94.133 71.733-115.022-.355-4.267-.622-8.622-.622-12.978m142.222-99.555c-55.022 0-99.555 44.533-99.555 99.555 0 7.467.8 14.756 2.4 21.778 2.4 10.755-3.822 21.6-14.311 24.978-34.4 11.022-59.2 43.289-59.2 81.244 0 47.111 38.222 85.333 85.333 85.333h270.222c39.29 0 71.111-31.822 71.111-71.11 0-33.245-22.844-61.245-53.777-68.978-6.667-1.69-12.09-6.4-14.667-12.712-2.578-6.31-1.867-13.51 1.778-19.288 6.222-9.867 9.777-21.512 9.777-34.045 0-35.378-28.622-64-64-64-9.866 0-19.11 2.222-27.377 6.133-9.334 4.445-20.534 1.512-26.49-6.933-18.044-25.422-47.733-41.867-81.155-41.867z"/></svg>