<svg xmlns="http://www.w3.org/2000/svg" viewBox="0 0 512 512"><!--! Font Awesome Free 7.0.1 by @fontawesome - https://fontawesome.com License - https://fontawesome.com/license/free (Icons: CC BY 4.0, Fonts: SIL OFL 1.1, Code: MIT License) Copyright 2025 Fonticons, Inc.--><path fill="currentColor" d="M451.765 75.294c8.282 0 15.059 6.777 15.059 15.059v240.941c0 8.282-6.777 15.059-15.06 15.059H150.589c-8.282 0-15.059-6.777-15.059-15.059V90.353c0-8.282 6.777-15.059 15.06-15.059zM150.588 30.118c-33.223 0-60.235 27.011-60.235 60.235v240.941c0 33.224 27.012 60.235 60.235 60.235h301.177c33.223 0 60.235-27.011 60.235-60.235V90.353c0-33.224-27.012-60.235-60.235-60.235zm75.294 105.411c0-16.658-13.458-30.117-30.117-30.117-16.66 0-30.118 13.459-30.118 30.117 0 16.66 13.459 30.118 30.118 30.118s30.117-13.459 30.117-30.118m132.424 3.577c-4.047-6.87-11.482-11.106-19.482-11.106s-15.436 4.235-19.483 11.106l-43.765 74.353-16.188-23.153c-4.235-6.024-11.106-9.6-18.54-9.6-7.436 0-14.307 3.576-18.542 9.6L169.6 265.6c-4.8 6.87-5.459 15.906-1.506 23.341s11.765 12.235 20.141 12.235h225.883c8.094 0 15.623-4.329 19.576-11.388s3.953-15.717-.094-22.682zm-313.13 3.953a22.534 22.534 0 0 0-22.588-22.588A22.534 22.534 0 0 0 0 143.059v278.588c0 33.224 27.012 60.235 60.235 60.235H399.06a22.534 22.534 0 0 0 22.588-22.588 22.534 22.534 0 0 0-22.588-22.588H60.235c-8.282 0-15.059-6.777-15.059-15.059z"/></svg>