<svg xmlns="http://www.w3.org/2000/svg" viewBox="0 0 512 512"><!--! Font Awesome Free 7.0.1 by @fontawesome - https://fontawesome.com License - https://fontawesome.com/license/free (Icons: CC BY 4.0, Fonts: SIL OFL 1.1, Code: MIT License) Copyright 2025 Fonticons, Inc.--><path fill="currentColor" d="M60.755 404.864 107.275 256H460.27l-46.52 148.864zm177.428 44.66h175.66c19.538 0 36.844-12.654 42.612-31.355l46.52-148.864c9.025-28.75-12.467-57.964-42.612-57.964H107.368c-19.538 0-36.844 12.653-42.612 31.354l-20.097 63.919V122.022c0-8.187 6.7-14.886 14.887-14.886h129.046c3.257 0 6.327 1.023 8.932 2.977l35.728 26.796c12.84 9.676 28.563 14.886 44.659 14.886h109.136c8.188 0 14.886 6.699 14.886 14.886h44.66c0-32.843-26.703-59.545-59.546-59.545H277.911c-6.42 0-12.747-2.047-17.864-5.955L224.32 74.386c-10.328-7.723-22.795-11.91-35.728-11.91H59.546C26.703 62.476 0 89.18 0 122.022v267.956c0 32.843 26.703 59.546 59.546 59.546z"/></svg>