<svg xmlns="http://www.w3.org/2000/svg" viewBox="0 0 512 512"><!--! Font Awesome Free 7.0.1 by @fontawesome - https://fontawesome.com License - https://fontawesome.com/license/free (Icons: CC BY 4.0, Fonts: SIL OFL 1.1, Code: MIT License) Copyright 2025 Fonticons, Inc.--><path fill="currentColor" d="M363.54 418.91c.775-5.043 1.066-10.28 1.066-15.516v-51.879c9.891-12.218 17.746-26.085 23.079-41.212 3.976-11.248-7.564-20.751-19.006-17.26-33.746 10.278-72.049 16.096-112.776 16.096-40.63 0-78.933-5.818-112.582-16-11.442-3.49-22.982 5.916-19.006 17.261 5.333 15.03 13.188 28.994 23.079 41.115v51.879c0 5.236.388 10.473 1.067 15.515-56.63-35.685-94.158-98.812-94.158-170.667 0-111.418 90.279-201.697 201.697-201.697s201.697 90.28 201.697 201.697c0 71.855-37.624 134.982-94.158 170.667m-37.625 67.587c103.079-30.158 178.327-125.479 178.327-238.255C504.242 111.127 393.115 0 256 0S7.758 111.127 7.758 248.242c0 112.776 75.248 208.097 178.327 238.255C204.994 502.4 229.333 512 256 512s51.006-9.6 69.915-25.503m-7.854-119.37v36.267c0 34.23-27.83 62.06-62.061 62.06-34.23 0-62.06-27.83-62.06-62.06v-36.267c0-14.254 11.539-25.794 25.793-25.794h1.94c10.957 0 20.46 7.66 22.885 18.328 2.715 12.218 20.17 12.218 22.884 0a23.436 23.436 0 0 1 22.885-18.328h1.94c14.254 0 25.794 11.54 25.794 25.794M135.758 224.97c0-10.667 8.727-19.394 19.394-19.394h15.515c10.666 0 19.394 8.727 19.394 19.394s8.727 19.394 19.394 19.394 19.393-8.728 19.393-19.394c0-32.097-26.084-58.182-58.181-58.182h-15.515c-32.097 0-58.182 26.085-58.182 58.182 0 10.666 8.727 19.394 19.394 19.394s19.394-8.728 19.394-19.394m221.478-23.273a23.217 23.217 0 0 0-23.272-23.273 23.217 23.217 0 0 0-23.273 23.273 23.217 23.217 0 0 0 23.273 23.273 23.217 23.217 0 0 0 23.272-23.273m-70.206 0c0-25.697 20.849-46.545 46.546-46.545S380.12 176 380.12 201.697s-20.848 46.545-46.545 46.545-46.546-20.848-46.546-46.545m124.122 0c0-42.86-34.716-77.576-77.576-77.576S256 158.836 256 201.697s34.715 77.576 77.576 77.576 77.576-34.715 77.576-77.576"/></svg>