<svg xmlns="http://www.w3.org/2000/svg" viewBox="0 0 512 512"><!--! Font Awesome Free 7.0.1 by @fontawesome - https://fontawesome.com License - https://fontawesome.com/license/free (Icons: CC BY 4.0, Fonts: SIL OFL 1.1, Code: MIT License) Copyright 2025 Fonticons, Inc.--><path fill="currentColor" d="M256 12.166c8.327 0 16.006 4.719 19.8 12.12l68 133.413 147.938 23.5a22.24 22.24 0 0 1 17.671 15.08c2.591 7.957.463 16.653-5.366 22.575L398.11 324.788l23.407 147.938c1.296 8.234-2.127 16.56-8.881 21.464s-15.729 5.644-23.13 1.85L256 428.132 122.495 496.04c-7.401 3.794-16.376 3.054-23.13-1.85-6.754-4.903-10.177-13.138-8.881-21.464l23.314-147.938L7.957 218.854C2.035 212.932 0 204.236 2.59 196.279c2.59-7.957 9.344-13.785 17.67-15.08l147.938-23.5 68.094-133.413c3.794-7.401 11.473-12.12 19.8-12.12zm0 71.055-53.476 104.731c-3.238 6.292-9.252 10.732-16.283 11.843L70.129 218.299l83.082 83.174c4.996 4.996 7.31 12.12 6.2 19.152l-18.32 116.11 104.824-53.29c6.292-3.238 13.786-3.238 20.17 0l104.824 53.29-18.32-116.11c-1.11-7.032 1.204-14.156 6.2-19.152L441.87 218.3l-116.112-18.504c-7.031-1.11-13.045-5.551-16.283-11.843z"/></svg>