<svg xmlns="http://www.w3.org/2000/svg" viewBox="0 0 512 512"><!--! Font Awesome Free 7.0.1 by @fontawesome - https://fontawesome.com License - https://fontawesome.com/license/free (Icons: CC BY 4.0, Fonts: SIL OFL 1.1, Code: MIT License) Copyright 2025 Fonticons, Inc.--><path fill="currentColor" d="M199.952 0c-12.897 0-24.534 8.048-29.091 20.17l-15.71 41.89h-93.09a23.217 23.217 0 0 0-23.273 23.273 23.217 23.217 0 0 0 23.273 23.273h387.878a23.217 23.217 0 0 0 23.273-23.273 23.217 23.217 0 0 0-23.273-23.272h-93.09l-15.71-41.891C336.582 8.048 325.042 0 312.05 0zM69.818 155.152v294.787c0 34.23 27.83 62.061 62.06 62.061h248.243c34.23 0 62.06-27.83 62.06-62.06V155.151h-46.545v294.787c0 8.534-6.981 15.516-15.515 15.516H131.88c-8.534 0-15.515-6.982-15.515-15.516V155.152zM224.97 224.97a23.217 23.217 0 0 0-23.273-23.273 23.217 23.217 0 0 0-23.273 23.273v170.666a23.217 23.217 0 0 0 23.273 23.273 23.217 23.217 0 0 0 23.273-23.273zm108.606 0a23.217 23.217 0 0 0-23.273-23.273 23.217 23.217 0 0 0-23.273 23.273v170.666a23.217 23.217 0 0 0 23.273 23.273 23.217 23.217 0 0 0 23.273-23.273z"/></svg>