<svg xmlns="http://www.w3.org/2000/svg" viewBox="0 0 512 512"><!--! Font Awesome Free 7.0.1 by @fontawesome - https://fontawesome.com License - https://fontawesome.com/license/free (Icons: CC BY 4.0, Fonts: SIL OFL 1.1, Code: MIT License) Copyright 2025 Fonticons, Inc.--><path fill="currentColor" d="m381.414 0 7.731.418c36.564 3.76 65.293 33.639 67.278 70.725 18.595 12.327 31.445 32.803 33.43 56.309l.209 6.268c0 5.954-.732 11.7-2.09 17.237 10.656 12.014 17.551 27.475 18.596 44.608l.209 5.014c0 13.79-3.761 26.535-10.238 37.61 5.119 8.774 8.566 18.699 9.715 29.25l.418 8.358c0 38.967-29.564 70.934-67.487 74.8l-7.73.417H316.853l14.73 31.34 3.238 7.94c13.059 37.295-1.88 78.874-35.728 99.245l-7.521 4.075c-39.176 18.386-85.351 3.76-107.185-32.595l-.627-.94-2.82-5.223-.627-1.254-31.445-66.86c-9.82 18.596-29.252 31.236-51.712 31.236h-33.43c-32.281 0-58.503-26.221-58.503-58.502l.105-234.114c0-32.28 26.221-58.502 58.502-58.502h33.43c12.954 0 24.968 4.283 34.684 11.491 13.79-22.356 33.43-41.16 57.457-53.905l12.746-6.79.73-.314 6.896-3.343.731-.314 7.417-3.134C235.367 3.656 253.963.21 272.871.21zM272.663 50.145c-12.536 0-24.968 2.403-36.669 6.895l-4.91 2.09-5.537 2.715-12.745 6.79c-30.505 16.193-50.458 46.907-52.965 81.068l-.21 8.358v117.945l.105 4.283c.523 8.566 2.612 16.924 6.268 24.759L225.34 431.35l2.193 3.97c8.776 14.312 27.162 19.954 42.623 12.745l3.03-1.671c13.581-8.149 19.536-24.76 14.312-39.698l-1.253-3.134-31.55-67.069c-3.656-7.73-3.03-16.82 1.567-24.132s12.536-11.596 21.103-11.596h154.09l2.508-.105c11.805-1.149 21.207-10.551 22.356-22.356l.105-2.612c0-7.417-3.239-14.103-8.567-18.804-5.432-4.806-8.566-11.596-8.566-18.804 0-7.209 3.134-14 8.566-18.805 4.597-4.074 7.731-9.715 8.358-15.983l.209-2.821c0-8.775-4.597-16.61-11.7-21.103-11.179-7.208-14.835-21.834-8.358-33.43 1.567-2.716 2.612-5.85 3.03-8.984l.208-3.343c0-11.073-7.208-20.476-17.341-23.819-12.223-3.97-19.536-16.61-16.715-29.25.209-.941.313-1.881.417-2.717l.21-2.716c0-12.954-9.925-23.61-22.566-24.864l-2.194-.104zM63.83 117.005c-4.596 0-8.357 3.76-8.357 8.357v234.01c0 4.596 3.76 8.357 8.357 8.357h33.43c4.597 0 8.358-3.76 8.358-8.357v-234.01c0-4.596-3.761-8.357-8.358-8.357z"/></svg>