<svg xmlns="http://www.w3.org/2000/svg" viewBox="0 0 512 512"><!--! Font Awesome Free 7.0.1 by @fontawesome - https://fontawesome.com License - https://fontawesome.com/license/free (Icons: CC BY 4.0, Fonts: SIL OFL 1.1, Code: MIT License) Copyright 2025 Fonticons, Inc.--><path fill="currentColor" d="M256 100.043c-57.775 0-105.271 26.23-141.69 59.99C80.193 191.756 56.622 229.416 44.571 256c12.051 26.584 35.622 64.244 69.737 95.967 36.42 33.76 83.916 59.99 141.691 59.99s105.271-26.23 141.69-59.99c34.116-31.723 57.687-69.383 69.738-95.967-12.051-26.584-35.622-64.244-69.737-95.967-36.42-33.76-83.916-59.99-141.691-59.99M85.333 128.93C127.07 90.118 184.402 57.51 256 57.51s128.93 32.608 170.667 71.42c41.47 38.547 69.206 84.536 82.409 116.17a28.18 28.18 0 0 1 0 21.8c-13.203 31.634-40.939 77.712-82.41 116.17-41.736 38.723-99.068 71.42-170.666 71.42s-128.93-32.608-170.667-71.42c-41.47-38.547-69.206-84.536-82.409-116.17a28.18 28.18 0 0 1 0-21.8c13.203-31.634 40.939-77.712 82.41-116.17M256 326.89c39.166 0 70.89-31.724 70.89-70.89 0-26.23-14.267-49.18-35.445-61.408-1.24 52.901-43.952 95.612-96.853 96.853C206.82 312.623 229.77 326.89 256 326.89m-70.535-78.333c2.215.265 4.43.354 6.734.354 31.28 0 56.712-25.432 56.712-56.712 0-2.304-.177-4.519-.354-6.734-33.141 3.456-59.548 29.862-63.004 63.003zm40.407-101.904c9.57-2.659 19.672-3.988 30.04-3.988 7.797 0 15.506.798 22.861 2.304.266.089.443.089.71.177 51.306 10.811 89.852 56.446 89.852 110.943 0 62.648-50.775 113.423-113.424 113.423-54.585 0-100.131-38.546-110.942-89.853-1.595-7.62-2.48-15.507-2.48-23.57 0-9.748 1.24-19.318 3.544-28.356.177-.62.265-1.152.443-1.684 10.544-38.457 40.85-68.763 79.307-79.308z"/></svg>