<svg xmlns="http://www.w3.org/2000/svg" viewBox="0 0 512 512"><!--! Font Awesome Free 7.0.1 by @fontawesome - https://fontawesome.com License - https://fontawesome.com/license/free (Icons: CC BY 4.0, Fonts: SIL OFL 1.1, Code: MIT License) Copyright 2025 Fonticons, Inc.--><path fill="currentColor" d="M68.267 238.933C68.267 135.253 152.32 51.2 256 51.2s187.733 84.053 187.733 187.733v47.787c-15.04-8.747-32.533-13.653-51.2-13.653h-17.066c-28.267 0-51.2 22.933-51.2 51.2V460.8c0 28.267 22.933 51.2 51.2 51.2h17.066c56.534 0 102.4-45.867 102.4-102.4V238.933C494.933 106.987 387.947 0 256 0S17.067 106.987 17.067 238.933V409.6c0 56.533 45.866 102.4 102.4 102.4h17.066c28.267 0 51.2-22.933 51.2-51.2V324.267c0-28.267-22.933-51.2-51.2-51.2h-17.066c-18.667 0-36.16 5.013-51.2 13.653zm0 136.534c0-28.267 22.933-51.2 51.2-51.2h17.066V460.8h-17.066c-28.267 0-51.2-22.933-51.2-51.2zm375.466 0V409.6c0 28.267-22.933 51.2-51.2 51.2h-17.066V324.267h17.066c28.267 0 51.2 22.933 51.2 51.2"/></svg>