<svg xmlns="http://www.w3.org/2000/svg" viewBox="0 0 512 512"><!--! Font Awesome Free 7.0.1 by @fontawesome - https://fontawesome.com License - https://fontawesome.com/license/free (Icons: CC BY 4.0, Fonts: SIL OFL 1.1, Code: MIT License) Copyright 2025 Fonticons, Inc.--><path fill="currentColor" d="M464 256c0-114.9-93.1-208-208-208S48 141.1 48 256s93.1 208 208 208 208-93.1 208-208M0 256C0 114.6 114.6 0 256 0s256 114.6 256 256-114.6 256-256 256S0 397.4 0 256m118.3 58.2c-4.2-13.7 7.1-26.2 21.4-26.2h232.6c14.3 0 25.6 12.5 21.4 26.2C375.7 373.1 320.8 416 256 416s-119.7-42.9-137.7-101.8M176 180c-15.5 0-28 12.5-28 28v8c0 11-9 20-20 20s-20-9-20-20v-8c0-37.6 30.4-68 68-68s68 30.4 68 68v8c0 11-9 20-20 20s-20-9-20-20v-8c0-15.5-12.5-28-28-28m132 28v8c0 11-9 20-20 20s-20-9-20-20v-8c0-37.6 30.4-68 68-68s68 30.4 68 68v8c0 11-9 20-20 20s-20-9-20-20v-8c0-15.5-12.5-28-28-28s-28 12.5-28 28"/></svg>