<svg xmlns="http://www.w3.org/2000/svg" viewBox="0 0 512 512"><!--! Font Awesome Free 7.0.1 by @fontawesome - https://fontawesome.com License - https://fontawesome.com/license/free (Icons: CC BY 4.0, Fonts: SIL OFL 1.1, Code: MIT License) Copyright 2025 Fonticons, Inc.--><path fill="currentColor" d="M383.601 2.493c10.77 2.593 18.35 12.167 18.35 23.237v386.044c0 8.976-5.086 17.253-13.064 21.342L242.088 507.91c-7.978 4.089-17.652 3.291-24.932-1.994s-10.97-14.162-9.574-23.137l25.132-159.464-114.088-114.188c-6.383-6.382-8.577-15.757-5.785-24.333 2.793-8.577 10.073-14.86 19.048-16.256l159.365-25.33 65.52-128.25C361.761 5.086 372.93 0 383.701 2.593zm-29.52 122.864-25.729 50.462c-3.49 6.782-9.973 11.569-17.552 12.765L185.642 208.53l89.556 89.655c5.385 5.385 7.878 13.064 6.681 20.643l-19.746 125.158 91.949-46.772z"/></svg>