<svg xmlns="http://www.w3.org/2000/svg" viewBox="0 0 512 512"><!--! Font Awesome Free 7.0.1 by @fontawesome - https://fontawesome.com License - https://fontawesome.com/license/free (Icons: CC BY 4.0, Fonts: SIL OFL 1.1, Code: MIT License) Copyright 2025 Fonticons, Inc.--><path fill="currentColor" d="M64 24C64 10.7 74.7 0 88 0h336c13.3 0 24 10.7 24 24s-10.7 24-24 24h-8v19c0 40.3-16 79-44.5 107.5L290 256l81.5 81.5C400 366 416 404.7 416 445v19h8c13.3 0 24 10.7 24 24s-10.7 24-24 24H88c-13.3 0-24-10.7-24-24s10.7-24 24-24h8v-19c0-40.3 16-79 44.5-107.5L222 256l-81.5-81.5C112 146 96 107.3 96 67V48h-8c-13.3 0-24-10.7-24-24m110.5 347.5c-3.9 3.9-7.5 8.1-10.7 12.5h184.4c-3.2-4.4-6.8-8.6-10.7-12.5L256 290zM144.8 432c-.5 4.3-.8 8.6-.8 13v19h224v-19c0-4.4-.3-8.7-.8-13zm173.3-272H194l62.1 62.1 62.1-62.1zm39.7-48c6.6-13.9 10.2-29.3 10.2-45V48H144v19c0 15.7 3.6 31.1 10.2 45h203.5z"/></svg>