<svg xmlns="http://www.w3.org/2000/svg" viewBox="0 0 512 512"><!--! Font Awesome Free 7.0.1 by @fontawesome - https://fontawesome.com License - https://fontawesome.com/license/free (Icons: CC BY 4.0, Fonts: SIL OFL 1.1, Code: MIT License) Copyright 2025 Fonticons, Inc.--><path fill="currentColor" d="M392.221 392.221c62.252-62.251 72.998-156.462 32.33-229.737l33.998-4.817c4.169-.556 8.152-1.482 12.135-2.594 41.316 87.912 25.66 195.925-46.966 268.645S242.985 512 155.073 470.684c1.112-3.89 1.945-7.966 2.594-12.135l4.817-33.998c73.275 40.668 167.486 29.922 229.737-32.33M88.282 88.282C160.91 15.656 269.015 0 356.927 41.316c-1.112 3.89-1.945 7.966-2.594 12.135l-4.817 33.998C276.241 46.78 182.03 57.527 119.78 119.779S46.78 276.24 87.449 349.516l-33.998 4.817c-4.169.556-8.152 1.482-12.135 2.594C0 269.015 15.656 161.002 88.282 88.282M362.392 210.1c5.374-10.098 19.547-11.487 24.457-1.204 23.714 49.56 15.007 110.792-26.124 151.83-41.038 41.038-102.178 49.746-151.738 26.124-10.282-4.91-8.893-19.083 1.204-24.456 29.644-15.841 59.473-37.796 86.893-65.216 27.513-27.513 49.468-57.342 65.309-87.078m-257.157 69.847c-1.575-7.41 2.686-14.729 9.82-17.045l78.37-25.938c5.28-1.76 11.208-.37 15.099 3.613s5.373 9.82 3.613 15.1l-25.938 78.37c-2.409 7.133-9.727 11.394-17.045 9.82-7.319-1.575-12.414-8.338-11.765-15.841l3.613-39.927-39.927 3.613c-7.503.649-14.358-4.354-15.84-11.765m186.476-158.87-3.613 39.926 39.927-3.613c7.503-.649 14.358 4.354 15.84 11.765 1.483 7.41-2.686 14.729-9.819 17.045l-78.37 25.938c-5.28 1.76-11.21.37-15.1-3.613s-5.373-9.82-3.613-15.1l25.938-78.37c2.409-7.133 9.727-11.394 17.045-9.82 7.319 1.575 12.414 8.338 11.765 15.841M493.102 66.42c0 23.715-17.415 43.817-40.852 47.152l-43.354 6.207c-9.82 1.39-18.157-6.948-16.767-16.768l6.206-43.26c3.335-23.53 23.437-40.946 47.152-40.946 26.309 0 47.615 21.306 47.615 47.615M59.658 398.335l43.353-6.206c9.82-1.39 18.157 6.948 16.768 16.767l-6.207 43.261c-3.335 23.53-23.437 40.945-47.152 40.945-26.309 0-47.615-21.306-47.615-47.615 0-23.715 17.416-43.817 40.853-47.152"/></svg>