<svg xmlns="http://www.w3.org/2000/svg" viewBox="0 0 512 512"><!--! Font Awesome Free 7.0.1 by @fontawesome - https://fontawesome.com License - https://fontawesome.com/license/free (Icons: CC BY 4.0, Fonts: SIL OFL 1.1, Code: MIT License) Copyright 2025 Fonticons, Inc.--><path fill="currentColor" d="M256 0c62.4 0 112.941 50.541 112.941 112.941 0 25.977-8.753 49.788-23.435 68.894 9.223 2.824 15.906 11.389 15.906 21.46a22.534 22.534 0 0 1-22.588 22.587h-.565l23.153 150.589 50.447 63.058c6.306 7.906 9.788 17.695 9.788 27.86 0 24.658-19.953 44.611-44.612 44.611h-242.07c-24.66 0-44.612-19.953-44.612-44.612 0-10.164 3.482-19.953 9.788-27.859l50.447-63.058 23.153-150.589h-.565a22.534 22.534 0 0 1-22.588-22.588c0-10.165 6.683-18.635 15.906-21.459-14.682-19.106-23.435-42.917-23.435-68.894C143.059 50.541 193.6 0 256 0m-71.624 406.588-48.188 60.236h239.718l-48.188-60.236H184.47zm34.071-173.835-19.765 128.659h114.73l-19.765-128.66-1.035-6.87h-73.036l-1.035 6.87zM256 45.176c-37.459 0-67.765 30.306-67.765 67.765s30.306 67.765 67.765 67.765 67.765-30.306 67.765-67.765S293.459 45.176 256 45.176"/></svg>