<svg xmlns="http://www.w3.org/2000/svg" viewBox="0 0 512 512"><!--! Font Awesome Free 7.0.1 by @fontawesome - https://fontawesome.com License - https://fontawesome.com/license/free (Icons: CC BY 4.0, Fonts: SIL OFL 1.1, Code: MIT License) Copyright 2025 Fonticons, Inc.--><path fill="currentColor" d="M274.286 457.143H73.143c-10.057 0-18.286-8.229-18.286-18.286V73.143c0-10.057 8.229-18.286 18.286-18.286h365.714c10.057 0 18.286 8.229 18.286 18.286v201.143H356.57c-45.485 0-82.285 36.8-82.285 82.285zm160.114-128L329.143 434.4v-77.829a27.363 27.363 0 0 1 27.428-27.428zM0 438.857C0 479.2 32.8 512 73.143 512h225.714c19.429 0 38.057-7.657 51.772-21.371l140-140.115C504.343 336.8 512 318.171 512 298.743v-225.6C512 32.8 479.2 0 438.857 0H73.143C32.8 0 0 32.8 0 73.143z"/></svg>