<svg xmlns="http://www.w3.org/2000/svg" viewBox="0 0 512 512"><!--! Font Awesome Free 7.0.1 by @fontawesome - https://fontawesome.com License - https://fontawesome.com/license/free (Icons: CC BY 4.0, Fonts: SIL OFL 1.1, Code: MIT License) Copyright 2025 Fonticons, Inc.--><path fill="currentColor" d="M38.259 8.287C29.972 0 16.573 0 8.375 8.287.176 16.573.088 29.972 8.287 38.259L473.74 503.713c8.287 8.287 21.686 8.287 29.884 0 8.199-8.286 8.287-21.685 0-29.884l-77.4-77.4c15.428-2.908 27.152-16.484 27.152-32.704a33.57 33.57 0 0 0-4.495-16.75l-19.218-33.146a187.8 187.8 0 0 1-25.565-94.59v-12.782c0-74.578-55.184-136.374-126.942-146.6v-8.551A21.106 21.106 0 0 0 256 30.149a21.106 21.106 0 0 0-21.157 21.157v8.55c-37.201 5.29-69.995 24.508-92.915 52.1zm133.818 133.818c19.306-25.124 49.72-41.345 83.923-41.345 58.446 0 105.785 47.34 105.785 105.785v12.783c0 40.727 10.843 80.661 31.295 115.835l11.372 19.482h-19.923l-212.54-212.54zM118.92 335.163a229.9 229.9 0 0 0 30.501-96.089l-41.168-41.168q-.264 4.365-.264 8.728v12.782c0 33.234-8.815 65.851-25.565 94.59L63.03 346.887c-2.997 5.113-4.496 10.843-4.496 16.75 0 18.424 14.899 33.322 33.323 33.322h215.449l-42.314-42.314H107.548zm77.223 104.11c8.728 24.683 32.265 42.314 59.857 42.314s51.13-17.631 59.857-42.314z"/></svg>