<svg xmlns="http://www.w3.org/2000/svg" viewBox="0 0 512 512"><!--! Font Awesome Free 7.0.1 by @fontawesome - https://fontawesome.com License - https://fontawesome.com/license/free (Icons: CC BY 4.0, Fonts: SIL OFL 1.1, Code: MIT License) Copyright 2025 Fonticons, Inc.--><path fill="currentColor" d="M73.143 54.857c-10.057 0-18.286 8.229-18.286 18.286v365.714c0 10.057 8.229 18.286 18.286 18.286h365.714c10.057 0 18.286-8.229 18.286-18.286V73.143c0-10.057-8.229-18.286-18.286-18.286zM0 73.143C0 32.8 32.8 0 73.143 0h365.714C479.2 0 512 32.8 512 73.143v365.714C512 479.2 479.2 512 438.857 512H73.143C32.8 512 0 479.2 0 438.857zm146.286 36.571c20.228 0 36.571 16.343 36.571 36.572 0 20.228-16.343 36.571-36.571 36.571-20.229 0-36.572-16.343-36.572-36.571 0-20.229 16.343-36.572 36.572-36.572M301.714 192c9.715 0 18.743 5.143 23.657 13.486L416.8 360.914c5.029 8.457 5.029 18.972.114 27.543-4.914 8.572-13.943 13.829-23.771 13.829H118.857c-10.171 0-19.657-5.715-24.343-14.743-4.685-9.029-4-20 1.829-28.343l64-91.429c5.143-7.314 13.486-11.657 22.514-11.657 9.029 0 17.372 4.343 22.514 11.657l19.658 28.115L278.17 205.6c4.915-8.343 13.943-13.486 23.658-13.486z"/></svg>