<svg xmlns="http://www.w3.org/2000/svg" viewBox="0 0 512 512"><!--! Font Awesome Free 7.0.1 by @fontawesome - https://fontawesome.com License - https://fontawesome.com/license/free (Icons: CC BY 4.0, Fonts: SIL OFL 1.1, Code: MIT License) Copyright 2025 Fonticons, Inc.--><path fill="currentColor" d="M457.697 248.242c0-111.418-90.279-201.697-201.697-201.697S54.303 136.825 54.303 248.242c0 71.855 37.624 134.982 94.158 170.667-.68-5.042-1.067-10.279-1.067-15.515v-51.879c-9.891-12.218-17.746-26.085-23.079-41.115-3.976-11.248 7.564-20.752 19.006-17.26 33.649 10.278 71.952 16 112.582 16 40.727 0 79.03-5.819 112.776-16.098 11.442-3.49 22.982 5.916 19.006 17.261-5.333 15.127-13.188 28.994-23.079 41.212v51.879c0 5.236-.388 10.473-1.067 15.515 56.63-35.685 94.158-98.812 94.158-170.667m46.545 0c0 112.776-75.248 208.097-178.327 238.255C307.006 502.4 282.667 512 256 512s-51.006-9.6-69.915-25.503C83.006 456.339 7.758 361.018 7.758 248.242 7.758 111.127 118.885 0 256 0s248.242 111.127 248.242 248.242m-325.818-77.575c17.164 0 31.03 13.866 31.03 31.03s-13.866 31.03-31.03 31.03c-17.163 0-31.03-13.866-31.03-31.03s13.867-31.03 31.03-31.03m124.121 31.03c0-17.164 13.867-31.03 31.03-31.03 17.164 0 31.031 13.866 31.031 31.03s-13.867 31.03-31.03 31.03c-17.164 0-31.03-13.866-31.03-31.03m15.516 201.697v-36.267c0-14.254-11.54-25.794-25.794-25.794h-1.94c-10.957 0-20.46 7.66-22.885 18.328-2.715 12.218-20.17 12.218-22.884 0a23.436 23.436 0 0 0-22.885-18.328h-1.94c-14.254 0-25.794 11.54-25.794 25.794v36.267c0 34.23 27.83 62.06 62.061 62.06 34.23 0 62.06-27.83 62.06-62.06"/></svg>