<svg xmlns="http://www.w3.org/2000/svg" viewBox="0 0 512 512"><!--! Font Awesome Free 7.0.1 by @fontawesome - https://fontawesome.com License - https://fontawesome.com/license/free (Icons: CC BY 4.0, Fonts: SIL OFL 1.1, Code: MIT License) Copyright 2025 Fonticons, Inc.--><path fill="currentColor" d="M145.067 0a25.54 25.54 0 0 1 25.6 25.6v42.667h170.666V25.6a25.54 25.54 0 0 1 25.6-25.6 25.54 25.54 0 0 1 25.6 25.6v42.667h34.134c37.653 0 68.266 30.613 68.266 68.266v307.2c0 37.654-30.613 68.267-68.266 68.267H85.333c-37.653 0-68.266-30.613-68.266-68.267v-307.2c0-37.653 30.613-68.266 68.266-68.266h34.134V25.6a25.54 25.54 0 0 1 25.6-25.6m0 119.467H85.333c-9.386 0-17.066 7.68-17.066 17.066v307.2c0 9.387 7.68 17.067 17.066 17.067h341.334c9.386 0 17.066-7.68 17.066-17.067v-307.2c0-9.386-7.68-17.066-17.066-17.066zm183.36 98.24c10.026 10.026 10.026 26.24 0 36.16l-36.16 36.16 36.16 36.16c10.026 10.026 10.026 26.24 0 36.16s-26.24 10.026-36.16 0l-36.16-36.16-36.16 36.16c-10.027 10.026-26.24 10.026-36.16 0s-10.027-26.24 0-36.16l36.16-36.16-36.16-36.16c-10.027-10.027-10.027-26.24 0-36.16s26.24-10.027 36.16 0l36.16 36.16 36.16-36.16c10.026-10.027 26.24-10.027 36.16 0"/></svg>