<svg xmlns="http://www.w3.org/2000/svg" viewBox="0 0 512 512"><!--! Font Awesome Free 7.0.1 by @fontawesome - https://fontawesome.com License - https://fontawesome.com/license/free (Icons: CC BY 4.0, Fonts: SIL OFL 1.1, Code: MIT License) Copyright 2025 Fonticons, Inc.--><path fill="currentColor" d="M73.143 54.857c-10.057 0-18.286 8.229-18.286 18.286v185.143A74.2 74.2 0 0 1 73.143 256h365.714c6.286 0 12.457.8 18.286 2.286V73.143c0-10.057-8.229-18.286-18.286-18.286zM54.857 329.143v109.714c0 10.057 8.229 18.286 18.286 18.286h365.714c10.057 0 18.286-8.229 18.286-18.286V329.143c0-10.057-8.229-18.286-18.286-18.286H73.143c-10.057 0-18.286 8.229-18.286 18.286m-54.857 0v-256C0 32.8 32.8 0 73.143 0h365.714C479.2 0 512 32.8 512 73.143v365.714C512 479.2 479.2 512 438.857 512H73.143C32.8 512 0 479.2 0 438.857zM246.857 384a27.363 27.363 0 0 1 27.429-27.429A27.363 27.363 0 0 1 301.714 384a27.363 27.363 0 0 1-27.428 27.429A27.363 27.363 0 0 1 246.857 384M384 356.571A27.363 27.363 0 0 1 411.429 384 27.363 27.363 0 0 1 384 411.429 27.363 27.363 0 0 1 356.571 384 27.363 27.363 0 0 1 384 356.571"/></svg>