<svg xmlns="http://www.w3.org/2000/svg" viewBox="0 0 512 512"><!--! Font Awesome Free 7.0.1 by @fontawesome - https://fontawesome.com License - https://fontawesome.com/license/free (Icons: CC BY 4.0, Fonts: SIL OFL 1.1, Code: MIT License) Copyright 2025 Fonticons, Inc.--><path fill="currentColor" d="m203.843 479.589-37.697 26.627c-7.28 5.186-16.854 5.784-24.832 1.695a23.82 23.82 0 0 1-12.965-21.242v-71.803H96.436c-52.855 0-95.738-42.883-95.738-95.739V95.738C.698 42.883 43.581 0 96.436 0h319.128c52.855 0 95.738 42.883 95.738 95.738v223.39c0 52.855-42.883 95.738-95.738 95.738H295.492zm64.124-103.817c8.078-5.684 17.752-8.776 27.625-8.776h119.972c26.427 0 47.869-21.44 47.869-47.869V95.738c0-26.428-21.442-47.869-47.87-47.869H96.437c-26.427 0-47.869 21.441-47.869 47.87v223.388c0 26.428 21.442 47.87 47.87 47.87h55.847c10.371 0 19.247 6.581 22.538 15.856a23.7 23.7 0 0 1 1.396 8.078v49.565c32.611-23.037 63.128-44.579 91.65-64.724z"/></svg>