<svg xmlns="http://www.w3.org/2000/svg" viewBox="0 0 512 512"><!--! Font Awesome Free 7.0.1 by @fontawesome - https://fontawesome.com License - https://fontawesome.com/license/free (Icons: CC BY 4.0, Fonts: SIL OFL 1.1, Code: MIT License) Copyright 2025 Fonticons, Inc.--><path fill="currentColor" d="M311.99 0a23.94 23.94 0 0 1 23.994 23.995 23.94 23.94 0 0 1-23.995 23.996h-15.997l81.784 98.08c24.695 29.595 38.193 66.987 38.193 105.58 0 43.691-17.397 85.683-48.29 116.577l-8.6 8.598 46.492 58.189c6.698 8.398 10.398 18.796 10.398 29.594 0 26.195-21.196 47.391-47.391 47.391l-225.156-.1c-26.195 0-47.39-21.196-47.39-47.39 0-10.699 3.699-21.197 10.397-29.595l46.491-58.189-8.598-8.598c-30.894-30.794-48.29-72.786-48.29-116.477 0-38.593 13.497-75.885 38.192-105.58l81.784-98.08H200.01a23.94 23.94 0 0 1-23.995-23.996A23.94 23.94 0 0 1 200.01 0zM190.412 406.72l-45.691 57.19h222.656l-45.69-57.09-5.5-6.898H195.912zM252.9 78.686l-81.784 98.08c-15.297 18.397-24.596 40.992-26.695 64.688l-.4 10.198c0 30.994 12.297 60.688 34.193 82.684l17.697 17.696h120.176c6.2-6.199 12.098-12.097 17.797-17.696a116.76 116.76 0 0 0 34.193-82.584l-.4-10.198c-1.5-16.997-6.699-33.294-15.197-47.99l-47.49 47.39c-9.399 9.398-24.596 9.398-33.894 0s-9.398-24.595 0-33.893l51.79-51.79-63.688-76.485-3.099-3.8-3.1 3.8z"/></svg>