<svg xmlns="http://www.w3.org/2000/svg" viewBox="0 0 512 512"><!--! Font Awesome Free 7.0.1 by @fontawesome - https://fontawesome.com License - https://fontawesome.com/license/free (Icons: CC BY 4.0, Fonts: SIL OFL 1.1, Code: MIT License) Copyright 2025 Fonticons, Inc.--><path fill="currentColor" d="M256 48c114.9 0 208 93.1 208 208s-93.1 208-208 208S48 370.9 48 256 141.1 48 256 48m0 464c141.4 0 256-114.6 256-256S397.4 0 256 0 0 114.6 0 256s114.6 256 256 256m-32-328c0-13.3-10.7-24-24-24s-24 10.7-24 24v144c0 13.3 10.7 24 24 24s24-10.7 24-24zm112 0c0-13.3-10.7-24-24-24s-24 10.7-24 24v144c0 13.3 10.7 24 24 24s24-10.7 24-24z"/></svg>