<svg xmlns="http://www.w3.org/2000/svg" viewBox="0 0 512 512"><!--! Font Awesome Free 7.0.1 by @fontawesome - https://fontawesome.com License - https://fontawesome.com/license/free (Icons: CC BY 4.0, Fonts: SIL OFL 1.1, Code: MIT License) Copyright 2025 Fonticons, Inc.--><path fill="currentColor" d="M464 256c0-114.9-93.1-208-208-208S48 141.1 48 256s93.1 208 208 208 208-93.1 208-208M0 256C0 114.6 114.6 0 256 0s256 114.6 256 256-114.6 256-256 256S0 397.4 0 256m372.2 46.3c11.8-3.6 23.7 6.1 19.6 17.8-19.8 55.9-73.1 96-135.8 96s-116-40-135.8-95.9c-4.1-11.6 7.8-21.4 19.6-17.8 34.7 10.6 74.2 16.5 116.1 16.5 42 0 81.5-6 116.3-16.6M224 192c0 35.3-14.3 64-32 64s-32-28.7-32-64 14.3-64 32-64 32 28.7 32 64m96 64c-17.7 0-32-28.7-32-64s14.3-64 32-64 32 28.7 32 64-14.3 64-32 64"/></svg>