<svg xmlns="http://www.w3.org/2000/svg" viewBox="0 0 512 512"><!--! Font Awesome Free 7.0.1 by @fontawesome - https://fontawesome.com License - https://fontawesome.com/license/free (Icons: CC BY 4.0, Fonts: SIL OFL 1.1, Code: MIT License) Copyright 2025 Fonticons, Inc.--><path fill="currentColor" d="M128 48h112v88c0 39.8 32.2 72 72 72h88v240c0 8.8-7.2 16-16 16H128c-8.8 0-16-7.2-16-16V64c0-8.8 7.2-16 16-16m160 19.9 92.1 92.1H312c-13.3 0-24-10.7-24-24zM128 0C92.7 0 64 28.7 64 64v384c0 35.3 28.7 64 64 64h256c35.3 0 64-28.7 64-64V186.5c0-17-6.7-33.3-18.7-45.3L306.7 18.7C294.7 6.7 278.5 0 261.5 0zm106.2 295.6c8.6-10.1 7.5-25.2-2.6-33.8s-25.2-7.5-33.8 2.6l-48 56c-7.7 9-7.7 22.2 0 31.2l48 56c8.6 10.1 23.8 11.2 33.8 2.6s11.2-23.8 2.6-33.8L199.6 336zm80-31.2c-8.6-10.1-23.8-11.2-33.8-2.6s-11.2 23.8-2.6 33.8l34.6 40.4-34.6 40.4c-8.6 10.1-7.5 25.2 2.6 33.8s25.2 7.5 33.8-2.6l48-56c7.7-9 7.7-22.2 0-31.2z"/></svg>