<svg xmlns="http://www.w3.org/2000/svg" viewBox="0 0 512 512"><!--! Font Awesome Free 7.0.1 by @fontawesome - https://fontawesome.com License - https://fontawesome.com/license/free (Icons: CC BY 4.0, Fonts: SIL OFL 1.1, Code: MIT License) Copyright 2025 Fonticons, Inc.--><path fill="currentColor" d="M56.889 128c-7.822 0-14.222 6.4-14.222 14.222v227.556c0 7.822 6.4 14.222 14.222 14.222H455.11c7.822 0 14.222-6.4 14.222-14.222V142.222c0-7.822-6.4-14.222-14.222-14.222zM0 142.222c0-31.378 25.511-56.889 56.889-56.889H455.11c31.378 0 56.889 25.511 56.889 56.89v227.555c0 31.378-25.511 56.889-56.889 56.889H56.89C25.51 426.667 0 401.156 0 369.777zM156.444 312.89h199.112c7.822 0 14.222 6.4 14.222 14.222v14.222c0 7.823-6.4 14.223-14.222 14.223H156.444c-7.822 0-14.222-6.4-14.222-14.223v-14.222c0-7.822 6.4-14.222 14.222-14.222m-64-64c0-7.822 6.4-14.222 14.223-14.222h14.222c7.822 0 14.222 6.4 14.222 14.222v14.222c0 7.822-6.4 14.222-14.222 14.222h-14.222c-7.823 0-14.223-6.4-14.223-14.222zm14.223-85.333h14.222c7.822 0 14.222 6.4 14.222 14.222V192c0 7.822-6.4 14.222-14.222 14.222h-14.222c-7.823 0-14.223-6.4-14.223-14.222v-14.222c0-7.822 6.4-14.222 14.223-14.222m56.889 85.333c0-7.822 6.4-14.222 14.222-14.222H192c7.822 0 14.222 6.4 14.222 14.222v14.222c0 7.822-6.4 14.222-14.222 14.222h-14.222c-7.822 0-14.222-6.4-14.222-14.222zm14.222-85.333H192c7.822 0 14.222 6.4 14.222 14.222V192c0 7.822-6.4 14.222-14.222 14.222h-14.222c-7.822 0-14.222-6.4-14.222-14.222v-14.222c0-7.822 6.4-14.222 14.222-14.222m56.889 85.333c0-7.822 6.4-14.222 14.222-14.222h14.222c7.822 0 14.222 6.4 14.222 14.222v14.222c0 7.822-6.4 14.222-14.222 14.222H248.89c-7.822 0-14.222-6.4-14.222-14.222zm14.222-85.333h14.222c7.822 0 14.222 6.4 14.222 14.222V192c0 7.822-6.4 14.222-14.222 14.222H248.89c-7.822 0-14.222-6.4-14.222-14.222v-14.222c0-7.822 6.4-14.222 14.222-14.222m56.889 85.333c0-7.822 6.4-14.222 14.222-14.222h14.222c7.822 0 14.222 6.4 14.222 14.222v14.222c0 7.822-6.4 14.222-14.222 14.222H320c-7.822 0-14.222-6.4-14.222-14.222zM320 163.556h14.222c7.822 0 14.222 6.4 14.222 14.222V192c0 7.822-6.4 14.222-14.222 14.222H320c-7.822 0-14.222-6.4-14.222-14.222v-14.222c0-7.822 6.4-14.222 14.222-14.222m56.889 85.333c0-7.822 6.4-14.222 14.222-14.222h14.222c7.823 0 14.223 6.4 14.223 14.222v14.222c0 7.822-6.4 14.222-14.223 14.222h-14.222c-7.822 0-14.222-6.4-14.222-14.222zm14.222-85.333h14.222c7.823 0 14.223 6.4 14.223 14.222V192c0 7.822-6.4 14.222-14.223 14.222h-14.222c-7.822 0-14.222-6.4-14.222-14.222v-14.222c0-7.822 6.4-14.222 14.222-14.222"/></svg>