<svg xmlns="http://www.w3.org/2000/svg" viewBox="0 0 512 512"><!--! Font Awesome Free 7.0.1 by @fontawesome - https://fontawesome.com License - https://fontawesome.com/license/free (Icons: CC BY 4.0, Fonts: SIL OFL 1.1, Code: MIT License) Copyright 2025 Fonticons, Inc.--><path fill="currentColor" d="M296.157 409.516c-24.429 13.051-52.288 20.497-81.987 20.497-96.126 0-174.013-77.888-174.013-174.013S118.128 81.987 214.17 81.987c94.703 0 171.67 75.629 173.93 169.746 11.963 1.255 23.926 5.02 35.053 11.462 1.673 1.004 3.346 2.008 4.936 3.095q.25-5.145.25-10.29c0-118.295-95.874-214.17-214.17-214.17C95.876 41.83 0 137.705 0 256s95.875 214.17 214.17 214.17c34.635 0 67.346-8.199 96.293-22.84-4.853-10.791-10.04-23.842-14.39-37.814zM187.399 282.771c0 7.362 6.023 13.386 13.385 13.386h13.386c7.362 0 13.386 6.023 13.386 13.385 0 7.363-6.024 13.386-13.386 13.386h-13.386c-7.362 0-13.385 6.024-13.385 13.386s6.023 13.385 13.385 13.385h13.386c7.362 0 13.386 6.024 13.386 13.386s-6.024 13.386-13.386 13.386h-13.386c-7.362 0-13.385 6.023-13.385 13.385s6.023 13.386 13.385 13.386h26.772c22.17 0 40.156-17.987 40.156-40.157 0-10.29-3.848-19.66-10.206-26.771a40 40 0 0 0 10.206-26.772c0-22.17-17.987-40.156-40.156-40.156h-26.772c-7.362 0-13.385 6.023-13.385 13.385m-40.157-40.157c14.808 0 26.771-11.963 26.771-26.77 0-14.809-11.963-26.772-26.771-26.772s-26.771 11.963-26.771 26.771 11.963 26.771 26.77 26.771m127.163-36.81h13.386c9.202 0 16.732 7.53 16.732 16.732 0 9.203 7.53 16.732 16.732 16.732 9.203 0 16.732-7.53 16.732-16.732 0-27.692-22.505-50.196-50.196-50.196h-13.386c-27.691 0-50.196 22.504-50.196 50.196 0 9.203 7.53 16.732 16.732 16.732 9.203 0 16.732-7.53 16.732-16.732 0-9.203 7.53-16.732 16.732-16.732m152.93 128.837c-1.84-15.31-10.791-28.947-24.177-36.644-23.508-13.553-53.459-5.521-67.012 17.987l-2.258 3.849c-20.497 35.555 6.609 98.635 20.413 126.16 4.266 8.449 12.967 13.468 22.42 12.966 30.704-1.84 98.887-9.788 119.467-45.343l2.26-3.849c13.552-23.508 5.52-53.459-17.988-67.011-13.385-7.697-29.616-8.701-43.838-2.594l-8.198 3.514-1.088-8.868z"/></svg>