<svg xmlns="http://www.w3.org/2000/svg" viewBox="0 0 512 512"><!--! Font Awesome Free 7.0.1 by @fontawesome - https://fontawesome.com License - https://fontawesome.com/license/free (Icons: CC BY 4.0, Fonts: SIL OFL 1.1, Code: MIT License) Copyright 2025 Fonticons, Inc.--><path fill="currentColor" d="M88 0C74.7 0 64 10.7 64 24s10.7 24 24 24h8v19c0 40.3 16 79 44.5 107.5L222 256l-81.5 81.5C112 366 96 404.7 96 445v19h-8c-13.3 0-24 10.7-24 24s10.7 24 24 24h336c13.3 0 24-10.7 24-24s-10.7-24-24-24h-8v-19c0-40.3-16-79-44.5-107.5L290 256l81.5-81.5C400 146 416 107.3 416 67V48h8c13.3 0 24-10.7 24-24S437.3 0 424 0zm168 289.9 81.5 81.5C357 391 368 417.4 368 445v19H144v-19c0-27.6 11-54 30.5-73.5zm0-67.9-81.5-81.5C155 121 144 94.6 144 67V48h224v19c0 27.6-11 54-30.5 73.5L256 222.1z"/></svg>