<svg xmlns="http://www.w3.org/2000/svg" viewBox="0 0 512 512"><!--! Font Awesome Free 7.0.1 by @fontawesome - https://fontawesome.com License - https://fontawesome.com/license/free (Icons: CC BY 4.0, Fonts: SIL OFL 1.1, Code: MIT License) Copyright 2025 Fonticons, Inc.--><path fill="currentColor" d="M.05 255.95c0-29.594 4.999-57.889 14.197-84.384l17.297 16.897-4.6 26.995c-4.198 24.395 5.6 46.19 21.996 59.888C58.74 381.126 147.721 464.01 256 464.01s197.361-82.783 207.06-188.563c16.396-13.697 26.094-35.393 21.995-59.888l-4.599-26.995 17.297-16.897c9.198 26.395 14.197 54.79 14.197 84.384C511.95 397.422 397.372 512 256 512S.05 397.322.05 255.95M256 47.99c-15.197 0-29.994 1.6-44.291 4.7L201.41 31.794c-4.4-8.798-10.298-15.997-17.197-21.596A257.9 257.9 0 0 1 256 0c24.895 0 48.99 3.6 71.786 10.198-6.899 5.599-12.798 12.798-17.197 21.596L300.291 52.69c-14.297-3.1-29.094-4.7-44.291-4.7m116.177 254.251c11.798-3.6 23.696 6.099 19.596 17.796-19.796 55.89-73.085 95.982-135.773 95.982s-115.977-39.992-135.773-95.882c-4.1-11.597 7.798-21.395 19.596-17.796 34.693 10.598 74.185 16.497 116.077 16.497 41.992 0 81.484-6 116.277-16.597M353.681 53.09c5.899-11.898 22.795-11.898 28.694 0l23.296 47.19 51.99 7.599c13.097 1.9 18.396 17.996 8.898 27.295l-37.693 36.692 8.898 51.79c2.2 13.098-11.497 22.996-23.195 16.897l-46.59-24.595-46.492 24.495c-11.698 6.199-25.495-3.8-23.195-16.897l8.898-51.79-37.693-36.692c-9.498-9.299-4.299-25.395 8.899-27.295l51.99-7.599 23.295-47.19zm-195.262 0 23.296 47.19 51.99 7.599c13.097 1.9 18.396 17.996 8.898 27.295l-37.693 36.692 8.898 51.79c2.2 13.098-11.498 22.996-23.195 16.897l-46.591-24.595-46.491 24.495c-11.698 6.199-25.495-3.8-23.196-16.897l8.899-51.79-37.693-36.692c-9.498-9.299-4.3-25.395 8.898-27.295l51.99-7.599 23.296-47.19c5.899-11.898 22.795-11.898 28.694 0z"/></svg>