<svg xmlns="http://www.w3.org/2000/svg" viewBox="0 0 512 512"><!--! Font Awesome Free 7.0.1 by @fontawesome - https://fontawesome.com License - https://fontawesome.com/license/free (Icons: CC BY 4.0, Fonts: SIL OFL 1.1, Code: MIT License) Copyright 2025 Fonticons, Inc.--><path fill="currentColor" d="M494.582 95.115c9.18-6.693 11.24-19.563 4.547-28.745-6.693-9.18-19.563-11.24-28.745-4.547l-63.924 46.506-8.495-5.663c-16.904-11.326-36.81-17.333-57.146-17.333H166.462c-22.91 0-45.048 7.637-62.98 21.537L41.53 61.823c-9.181-6.693-22.052-4.634-28.745 4.547s-4.634 22.052 4.548 28.745l75.508 54.916c8.238 5.92 19.478 5.062 26.686-2.06l3.346-3.346a61.77 61.77 0 0 1 43.675-18.105h39.728l-78.684 78.683c-13.385 13.386-13.385 35.095 0 48.566l.687.687c40.157 40.242 105.369 40.242 145.611 0l23.254-23.254 83.917 83.918c13.386 13.385 13.386 35.094 0 48.566l-8.409 8.409-26.6-26.6c-8.065-8.066-21.107-8.066-29.087 0s-8.066 21.108 0 29.088l24.025 24.025c-15.016 8.924-31.92 14.33-49.424 15.874l-41.615-41.701c-8.066-8.066-21.108-8.066-29.088 0s-8.066 21.108 0 29.088l12.87 12.87h-3.26c-30.976 0-60.664-12.27-82.545-34.15L37.154 269.815c-8.066-8.066-21.108-8.066-29.088 0-7.98 8.065-8.066 21.108 0 29.088l110.774 110.86a157.89 157.89 0 0 0 111.633 46.25h44.447l.858.857.858-.858h4.891c41.873 0 82.03-16.646 111.633-46.249l17.075-17.075c1.03-1.03 1.973-1.974 2.917-3.003.601-.43 1.116-.944 1.63-1.46l89.152-89.237c8.066-8.065 8.066-21.108 0-29.088-8.065-7.98-21.108-8.065-29.088 0l-46.163 46.164c-3.604-10.983-9.696-21.366-18.448-30.118l-98.504-98.504c-8.066-8.066-21.109-8.066-29.088 0l-37.84 37.84c-22.739 22.738-58.777 24.025-82.974 3.947l84.69-84.69a61.9 61.9 0 0 1 43.417-18.105h51.055a61.55 61.55 0 0 1 34.235 10.382l20.336 13.73c7.208 4.804 16.56 4.547 23.51-.515z"/></svg>