<svg xmlns="http://www.w3.org/2000/svg" viewBox="0 0 512 512"><!--! Font Awesome Free 7.0.1 by @fontawesome - https://fontawesome.com License - https://fontawesome.com/license/free (Icons: CC BY 4.0, Fonts: SIL OFL 1.1, Code: MIT License) Copyright 2025 Fonticons, Inc.--><path fill="currentColor" d="M455.111 99.556c7.822 0 14.222 6.4 14.222 14.222v284.444c0 7.822-6.4 14.222-14.222 14.222H56.89c-7.822 0-14.222-6.4-14.222-14.222V113.778c0-7.822 6.4-14.222 14.222-14.222zM56.89 56.889C25.51 56.889 0 82.4 0 113.778v284.444c0 31.378 25.511 56.89 56.889 56.89H455.11c31.378 0 56.889-25.512 56.889-56.89V113.778c0-31.378-25.511-56.89-56.889-56.89zm128 192c27.467 0 49.778-22.311 49.778-49.778s-22.311-49.778-49.778-49.778-49.778 22.311-49.778 49.778 22.311 49.778 49.778 49.778m-28.445 35.555c-39.288 0-71.11 31.823-71.11 71.112 0 7.822 6.4 14.222 14.222 14.222h170.666c7.822 0 14.222-6.4 14.222-14.222 0-39.29-31.822-71.112-71.11-71.112zm177.778-128a21.28 21.28 0 0 0-21.333 21.334 21.28 21.28 0 0 0 21.333 21.333h71.111a21.28 21.28 0 0 0 21.334-21.333 21.28 21.28 0 0 0-21.334-21.334zm0 85.334a21.28 21.28 0 0 0-21.333 21.333 21.28 21.28 0 0 0 21.333 21.333h71.111a21.28 21.28 0 0 0 21.334-21.333 21.28 21.28 0 0 0-21.334-21.333z"/></svg>