<svg xmlns="http://www.w3.org/2000/svg" viewBox="0 0 512 512"><!--! Font Awesome Free 7.0.1 by @fontawesome - https://fontawesome.com License - https://fontawesome.com/license/free (Icons: CC BY 4.0, Fonts: SIL OFL 1.1, Code: MIT License) Copyright 2025 Fonticons, Inc.--><path fill="currentColor" d="M373.73 20.113c-6.562-6.562-16.357-8.464-24.916-4.945-8.558 3.518-14.074 11.887-14.074 21.111v53.254h-45.646c-84.066 0-152.155 68.09-152.155 152.155 0 44.41 19.685 76.458 41.462 98.33 7.703 7.798 15.691 14.17 23.109 19.4 8.749 6.18 20.636 5.42 28.624-1.807s9.7-19.02 4.28-28.34c-3.424-5.99-6.182-14.168-6.182-25.39 0-34.425 27.863-62.288 62.288-62.288h44.22v53.254c0 9.224 5.516 17.593 14.074 21.111s18.354 1.617 24.916-4.945l129.33-129.331c8.94-8.94 8.94-23.394 0-32.238zm6.656 92.244V91.34l74.27 74.27-74.27 74.271v-21.016a22.77 22.77 0 0 0-22.823-22.823H290.52c-48.404 0-89.296 31.857-102.99 75.696-3.138-8.939-4.945-18.829-4.945-30.05 0-58.865 47.644-106.508 106.509-106.508h68.47a22.77 22.77 0 0 0 22.822-22.823m-304.309-7.608C34.045 104.749 0 138.793 0 180.826v243.447c0 42.033 34.045 76.078 76.077 76.078h243.448c42.032 0 76.077-34.045 76.077-76.078V401.45a22.77 22.77 0 0 0-22.823-22.823 22.77 22.77 0 0 0-22.824 22.823v22.823c0 16.832-13.598 30.431-30.43 30.431H76.077c-16.832 0-30.43-13.599-30.43-30.43V180.825c0-16.832 13.598-30.43 30.43-30.43H98.9a22.77 22.77 0 0 0 22.824-22.824A22.77 22.77 0 0 0 98.9 104.75z"/></svg>