<svg xmlns="http://www.w3.org/2000/svg" viewBox="0 0 512 512"><!--! Font Awesome Free 7.0.1 by @fontawesome - https://fontawesome.com License - https://fontawesome.com/license/free (Icons: CC BY 4.0, Fonts: SIL OFL 1.1, Code: MIT License) Copyright 2025 Fonticons, Inc.--><path fill="currentColor" d="M270.634 3.683C235.592 0 204.332 25.386 200.65 60.43l-6.372 60.329-17.322-49.18c-11.648-33.15-48.084-50.572-81.235-38.925s-50.672 48.084-39.025 81.235l52.564 149.43a79.41 79.41 0 0 0-24.59 57.54v23.893C84.67 437.136 159.534 512 251.92 512h47.785c92.385 0 167.248-74.864 167.248-167.249V225.288c0-35.142-28.571-63.714-63.713-63.714-7.865 0-15.332 1.394-22.3 3.982-10.354-21.204-32.156-35.839-57.343-35.839h-2.19l5.874-56.048c3.683-35.043-21.703-66.302-56.745-69.986zm-.199 154.705c-6.57 10.055-10.453 22.101-10.453 35.043v49.776a64.7 64.7 0 0 0-15.928-1.99h-7.367l-5.376-15.232 16.924-160.579c.896-8.76 8.76-15.132 17.521-14.136 8.76.995 15.132 8.76 14.137 17.521l-9.458 89.697zM131.858 87.507l54.057 153.71h-21.603c-3.982 0-7.964.298-11.847.895L101.793 98.06c-2.887-8.262 1.493-17.421 9.756-20.308s17.422 1.493 20.309 9.756m175.81 105.924c0-8.76 7.168-15.928 15.928-15.928s15.929 7.167 15.929 15.928v47.785c0 8.761-7.168 15.929-15.929 15.929s-15.928-7.168-15.928-15.929zm38.228 107.517c10.354 21.205 32.156 35.84 57.343 35.84a64.7 64.7 0 0 0 15.928-1.992v9.955c0 66.004-53.46 119.464-119.463 119.464h-47.786c-66.003 0-119.463-53.46-119.463-119.464V320.86c0-17.621 14.236-31.857 31.857-31.857h79.642c8.76 0 15.929 7.168 15.929 15.928s-7.168 15.929-15.929 15.929h-39.821a23.835 23.835 0 0 0-23.893 23.892 23.835 23.835 0 0 0 23.893 23.893h39.821c35.142 0 63.714-28.572 63.714-63.714v-1.99a64.7 64.7 0 0 0 15.928 1.99c7.865 0 15.331-1.394 22.3-3.982m73.271-27.875c0 8.76-7.168 15.929-15.928 15.929s-15.929-7.168-15.929-15.929v-47.785c0-8.76 7.168-15.928 15.929-15.928s15.928 7.167 15.928 15.928z"/></svg>