<svg xmlns="http://www.w3.org/2000/svg" viewBox="0 0 512 512"><!--! Font Awesome Free 7.0.1 by @fontawesome - https://fontawesome.com License - https://fontawesome.com/license/free (Icons: CC BY 4.0, Fonts: SIL OFL 1.1, Code: MIT License) Copyright 2025 Fonticons, Inc.--><path fill="currentColor" d="M464 256c0 114.9-93.1 208-208 208S48 370.9 48 256 141.1 48 256 48s208 93.1 208 208M0 256c0 141.4 114.6 256 256 256s256-114.6 256-256S397.4 0 256 0 0 114.6 0 256m387.3 11.3c6.2-6.2 6.2-16.4 0-22.6l-104-104c-4.6-4.6-11.5-5.9-17.4-3.5s-9.9 8.3-9.9 14.8v72H152c-13.3 0-24 10.7-24 24v16c0 13.3 10.7 24 24 24h104v72c0 6.5 3.9 12.3 9.9 14.8s12.9 1.1 17.4-3.5z"/></svg>