<svg xmlns="http://www.w3.org/2000/svg" viewBox="0 0 512 512"><!--! Font Awesome Free 7.0.1 by @fontawesome - https://fontawesome.com License - https://fontawesome.com/license/free (Icons: CC BY 4.0, Fonts: SIL OFL 1.1, Code: MIT License) Copyright 2025 Fonticons, Inc.--><path fill="currentColor" d="M416 0c17.7 0 32 14.3 32 32v138.7c0 13.8-4.5 27.3-12.8 38.4L400 256v112l40.8 68.1c4.7 7.8 7.2 16.7 7.2 25.8 0 27.7-22.4 50.1-50.1 50.1H114.1C86.4 512 64 489.6 64 461.9c0-9.1 2.5-18 7.2-25.8L112 368V256l-35.2-46.9C68.5 198 64 184.5 64 170.7V32C64 14.3 78.3 0 96 0zM112.3 460.8l-.3 1.1c0 1.2 1 2.1 2.1 2.1h283.8c1.2 0 2.1-1 2.1-2.1l-.3-1.1-36.5-60.8H148.8zm-.3-290.1c0 2.6.6 5.1 1.8 7.4l1.4 2.2 35.2 46.9L160 240v112h192V240l9.6-12.8 35.2-46.9 1.4-2.2c1.2-2.3 1.8-4.8 1.8-7.4V48h-64v24c0 13.3-10.7 24-24 24s-24-10.7-24-24V48h-64v24c0 13.3-10.7 24-24 24s-24-10.7-24-24V48h-64z"/></svg>