<svg xmlns="http://www.w3.org/2000/svg" viewBox="0 0 512 512"><!--! Font Awesome Free 7.0.1 by @fontawesome - https://fontawesome.com License - https://fontawesome.com/license/free (Icons: CC BY 4.0, Fonts: SIL OFL 1.1, Code: MIT License) Copyright 2025 Fonticons, Inc.--><path fill="currentColor" d="M56.889 85.333c-7.822 0-14.222 6.4-14.222 14.223v256c0 7.822 6.4 14.222 14.222 14.222h2.933c9.245-32.8 39.467-56.89 75.29-56.89 35.821 0 65.955 24.09 75.288 56.89h91.2c4.356-15.467 13.422-29.067 25.511-39.022v-231.2c0-7.823-6.4-14.223-14.222-14.223zm2.933 327.111H56.89C25.51 412.444 0 386.934 0 355.556v-256c0-31.378 25.511-56.89 56.889-56.89h256c31.378 0 56.889 25.512 56.889 56.89V128h49.244c15.111 0 29.6 5.956 40.267 16.622l36.089 36.09C506.044 191.377 512 205.866 512 220.977v134.578c0 31.377-25.511 56.888-56.889 56.888h-2.933c-9.245 32.8-39.467 56.89-75.29 56.89-35.821 0-65.955-24.09-75.288-56.89h-91.2c-9.244 32.8-39.467 56.89-75.289 56.89s-65.955-24.09-75.289-56.89m309.956-170.666h99.555v-20.8c0-3.734-1.51-7.378-4.177-10.045l-36.09-36.089c-2.666-2.666-6.31-4.177-10.044-4.177h-49.244zm0 42.666v28.8c2.31-.177 4.71-.355 7.11-.355 35.823 0 65.956 24.089 75.29 56.889h2.933c7.822 0 14.222-6.4 14.222-14.222v-71.112zM135.11 426.667c19.645 0 35.556-15.911 35.556-35.556s-15.911-35.555-35.556-35.555-35.555 15.91-35.555 35.555 15.91 35.556 35.555 35.556m241.778 0c19.644 0 35.555-15.911 35.555-35.556s-15.91-35.555-35.555-35.555-35.556 15.91-35.556 35.555 15.911 35.556 35.556 35.556"/></svg>