<svg xmlns="http://www.w3.org/2000/svg" viewBox="0 0 512 512"><!--! Font Awesome Free 7.0.1 by @fontawesome - https://fontawesome.com License - https://fontawesome.com/license/free (Icons: CC BY 4.0, Fonts: SIL OFL 1.1, Code: MIT License) Copyright 2025 Fonticons, Inc.--><path fill="currentColor" d="M156.444 28.444c-31.377 0-56.888 25.512-56.888 56.89V128H56.889C25.51 128 0 153.511 0 184.889v241.778c0 31.377 25.511 56.889 56.889 56.889H455.11c31.378 0 56.889-25.512 56.889-56.89V184.89C512 153.51 486.489 128 455.111 128h-42.667V85.333c0-31.377-25.51-56.889-56.888-56.889zm-14.222 56.89c0-7.823 6.4-14.223 14.222-14.223h199.112c7.822 0 14.222 6.4 14.222 14.222v64a21.28 21.28 0 0 0 21.333 21.334h64c7.822 0 14.222 6.4 14.222 14.222v241.778c0 7.822-6.4 14.222-14.222 14.222H298.667v-71.111c0-15.734-12.711-28.445-28.445-28.445h-28.444c-15.734 0-28.445 12.711-28.445 28.445v71.11H56.89c-7.822 0-14.222-6.4-14.222-14.221V184.889c0-7.822 6.4-14.222 14.222-14.222h64a21.28 21.28 0 0 0 21.333-21.334zM99.556 227.555c-7.823 0-14.223 6.4-14.223 14.222v28.444c0 7.822 6.4 14.222 14.223 14.222H128c7.822 0 14.222-6.4 14.222-14.222v-28.444c0-7.822-6.4-14.222-14.222-14.222zM85.333 327.11v28.445c0 7.822 6.4 14.222 14.223 14.222H128c7.822 0 14.222-6.4 14.222-14.222V327.11c0-7.822-6.4-14.222-14.222-14.222H99.556c-7.823 0-14.223 6.4-14.223 14.222m284.445 0v28.445c0 7.822 6.4 14.222 14.222 14.222h28.444c7.823 0 14.223-6.4 14.223-14.222V327.11c0-7.822-6.4-14.222-14.223-14.222H384c-7.822 0-14.222 6.4-14.222 14.222M384 227.556c-7.822 0-14.222 6.4-14.222 14.222v28.444c0 7.822 6.4 14.222 14.222 14.222h28.444c7.823 0 14.223-6.4 14.223-14.222v-28.444c0-7.822-6.4-14.222-14.223-14.222zM234.667 120.889v28.444h-28.445c-7.822 0-14.222 6.4-14.222 14.223v14.222C192 185.6 198.4 192 206.222 192h28.445v28.444c0 7.823 6.4 14.223 14.222 14.223h14.222c7.822 0 14.222-6.4 14.222-14.223V192h28.445C313.6 192 320 185.6 320 177.778v-14.222c0-7.823-6.4-14.223-14.222-14.223h-28.445V120.89c0-7.822-6.4-14.222-14.222-14.222H248.89c-7.822 0-14.222 6.4-14.222 14.222"/></svg>