<svg xmlns="http://www.w3.org/2000/svg" viewBox="0 0 512 512"><!--! Font Awesome Free 7.0.1 by @fontawesome - https://fontawesome.com License - https://fontawesome.com/license/free (Icons: CC BY 4.0, Fonts: SIL OFL 1.1, Code: MIT License) Copyright 2025 Fonticons, Inc.--><path fill="currentColor" d="M273.9 48.7C166.8 57.2 82.6 146.8 82.6 256c0 114.9 93.1 208 208 208 33.3 0 64.7-7.8 92.6-21.7C279.8 418.9 202.6 326.5 202.6 216c0-65.8 27.4-125.1 71.3-167.3M34.6 256c0-141.4 114.6-256 256-256C310 0 329 2.2 347.3 6.3c9.9 2.2 17.3 10.5 18.5 20.5s-4 19.8-13.1 24.4C292.1 81.4 250.6 143.9 250.6 216c0 101.6 82.4 184 184 184 5 0 9.9-.2 14.8-.6 10.1-.8 19.6 4.8 23.8 14.1s2 20.1-5.3 27.1c-46 44.2-108.5 71.4-177.3 71.4-141.4 0-256-114.6-256-256"/></svg>