<svg xmlns="http://www.w3.org/2000/svg" viewBox="0 0 512 512"><!--! Font Awesome Free 7.0.1 by @fontawesome - https://fontawesome.com License - https://fontawesome.com/license/free (Icons: CC BY 4.0, Fonts: SIL OFL 1.1, Code: MIT License) Copyright 2025 Fonticons, Inc.--><path fill="currentColor" d="M482.802 31.57c-8.522-10.362-17.915-20.24-28.084-29.052a7.66 7.66 0 0 0-10.071 0c-10.168 8.812-19.465 18.69-28.084 29.052-14.236 17.238-28.859 38.834-28.859 62.076 0 35.25 26.728 61.978 61.979 61.978s61.978-26.728 61.978-61.978c0-23.242-14.72-44.838-28.859-62.076m-127.83 8.62c-32.345-15.399-68.564-24.018-106.72-24.018C111.32 16.172.34 127.152.34 264.086S111.319 512 248.253 512s247.913-110.98 247.913-247.914c0-23.629-3.292-46.484-9.49-68.176-11.524 4.067-23.92 6.198-36.993 6.198-3.293 0-6.586-.097-9.878-.388a201.2 201.2 0 0 1 9.878 62.366c0 111.27-90.16 201.43-201.43 201.43s-201.43-90.16-201.43-201.43 90.159-201.43 201.43-201.43c33.7 0 65.368 8.232 93.258 22.855 1.356-16.85 6.682-32.055 13.364-45.322zm24.791 285.875c3.97-11.234-7.553-20.724-18.98-17.238-33.701 10.265-71.954 16.076-112.627 16.076-40.577 0-78.829-5.81-112.433-15.98-11.427-3.486-22.951 5.908-18.98 17.239 19.174 54.134 70.79 92.87 131.51 92.87s112.336-38.833 131.51-92.967M143.664 217.602c0-15.01 12.105-27.115 27.116-27.115s27.115 12.105 27.115 27.115v7.748c0 10.652 8.716 19.368 19.368 19.368 10.653 0 19.369-8.716 19.369-19.368v-7.748c0-36.412-29.44-65.852-65.852-65.852s-65.852 29.44-65.852 65.852v7.748c0 10.652 8.715 19.368 19.368 19.368s19.368-8.716 19.368-19.368zm182.062-27.115c15.01 0 27.115 12.105 27.115 27.115v7.748c0 10.652 8.716 19.368 19.369 19.368 10.652 0 19.368-8.716 19.368-19.368v-7.748c0-36.412-29.44-65.852-65.852-65.852s-65.852 29.44-65.852 65.852v7.748c0 10.652 8.715 19.368 19.368 19.368s19.368-8.716 19.368-19.368v-7.748c0-15.01 12.105-27.115 27.116-27.115"/></svg>