<svg xmlns="http://www.w3.org/2000/svg" viewBox="0 0 512 512"><!--! Font Awesome Free 7.0.1 by @fontawesome - https://fontawesome.com License - https://fontawesome.com/license/free (Icons: CC BY 4.0, Fonts: SIL OFL 1.1, Code: MIT License) Copyright 2025 Fonticons, Inc.--><path fill="currentColor" d="M67.722 258.4c5.42-13.51 3.555-28.973-4.977-40.793-12.887-17.864-20.086-38.838-20.086-61.145 0-59.368 53.769-113.758 127.978-113.758s127.978 54.39 127.978 113.758S244.846 270.22 170.637 270.22c-14.13 0-27.64-2.044-40.26-5.777-9.154-2.755-19.019-2.222-27.906 1.333L57.68 283.73l10.131-25.33zM0 156.462c0 31.816 10.31 61.411 28.173 86.03L1.689 308.612C.533 311.457 0 314.48 0 317.5c0 13.154 10.665 23.819 23.818 23.819 3.022 0 6.043-.623 8.887-1.69l85.586-34.215c16.53 4.888 34.127 7.465 52.346 7.465 94.206 0 170.637-70.032 170.637-156.417S264.843.044 170.637.044 0 70.077 0 156.462m341.274 327.054c18.308 0 35.816-2.666 52.347-7.465l85.585 34.216c2.844 1.155 5.865 1.689 8.887 1.689 13.153 0 23.818-10.665 23.818-23.819 0-3.021-.622-6.043-1.688-8.887l-26.396-66.122C501.602 388.421 512 358.827 512 327.098c0-73.231-54.835-134.643-128.867-151.706-1.421 14.486-4.532 28.35-8.976 41.681 56.79 13.154 95.273 59.812 95.273 110.115 0 22.307-7.2 43.281-20.086 61.145-8.532 11.82-10.398 27.195-4.977 40.792l10.132 25.33-44.792-17.953c-8.888-3.555-18.753-4-27.907-1.333-12.62 3.733-26.128 5.777-40.26 5.777-64.166 0-112.957-40.616-125.044-89.94a226.5 226.5 0 0 1-42.748 4.621c14.575 72.788 84.163 127.978 167.793 127.978z"/></svg>