<svg xmlns="http://www.w3.org/2000/svg" viewBox="0 0 512 512"><!--! Font Awesome Free 7.0.1 by @fontawesome - https://fontawesome.com License - https://fontawesome.com/license/free (Icons: CC BY 4.0, Fonts: SIL OFL 1.1, Code: MIT License) Copyright 2025 Fonticons, Inc.--><path fill="currentColor" d="M403.28 333.6c7.04 11.36 16.96 20.8 28.56 27.36C396.08 420.8 330.72 460.8 256 460.8s-140.08-40-175.84-99.84c11.68-6.56 21.52-16 28.64-27.44 27.92 52.8 83.36 88.8 147.28 88.8s119.36-36 147.28-88.8zm13.12-122c-19.44-70.32-83.84-122-160.4-122s-140.96 51.68-160.4 122c-8.48-3.84-18.16-5.44-28.32-4l-10.72 1.52C77.76 118.64 159.04 51.2 256 51.2s178.24 67.44 199.44 157.92l-10.72-1.52c-10.16-1.44-19.84.16-28.32 4m-51.76 95.6C348.8 351.92 306.16 384 256 384s-92.8-32-108.64-76.72c-3.28-9.28 6.24-17.12 15.68-14.24 27.76 8.48 59.36 13.2 92.88 13.2 33.6 0 65.2-4.8 93.04-13.28 9.44-2.88 18.96 4.88 15.68 14.24M169.6 217.6v6.4c0 8.8-7.2 16-16 16s-16-7.2-16-16v-6.4c0-30.08 24.32-54.4 54.4-54.4s54.4 24.32 54.4 54.4v6.4c0 8.8-7.2 16-16 16s-16-7.2-16-16v-6.4c0-12.4-10-22.4-22.4-22.4s-22.4 10-22.4 22.4M320 195.2c-12.4 0-22.4 10-22.4 22.4v6.4c0 8.8-7.2 16-16 16s-16-7.2-16-16v-6.4c0-30.08 24.32-54.4 54.4-54.4s54.4 24.32 54.4 54.4v6.4c0 8.8-7.2 16-16 16s-16-7.2-16-16v-6.4c0-12.4-10-22.4-22.4-22.4m192 96.48c0 22.72-18.4 41.12-41.12 41.12-20.48 0-37.84-15.04-40.72-35.28l-5.36-37.44c-1.2-8.48 6-15.68 14.48-14.48l37.36 5.36c20.24 2.88 35.28 20.24 35.28 40.72zm-512 0c0-20.48 15.04-37.84 35.28-40.72l37.44-5.36c8.48-1.2 15.68 6 14.48 14.48l-5.36 37.36c-2.88 20.32-20.24 35.36-40.72 35.36C18.4 332.8 0 314.4 0 291.68"/></svg>