<svg xmlns="http://www.w3.org/2000/svg" viewBox="0 0 512 512"><!--! Font Awesome Free 7.0.1 by @fontawesome - https://fontawesome.com License - https://fontawesome.com/license/free (Icons: CC BY 4.0, Fonts: SIL OFL 1.1, Code: MIT License) Copyright 2025 Fonticons, Inc.--><path fill="currentColor" d="M263.484 0c104.019 0 188.27 84.25 188.27 188.27v120.21c0 17.792-5.743 34.924-16.192 49.139l-4.8 5.836-34.171 38.313 30.217 37.842c6.307 7.908 9.79 17.698 9.79 27.864l-.188 4.519C434.15 494.49 415.135 512 392.072 512H119.834l-4.519-.188c-22.498-2.26-40.007-21.275-40.007-44.338 0-10.166 3.483-19.956 9.79-27.864l35.395-44.243v-22.875c0-22.875 9.507-44.808 26.17-60.435l59.775-56.01h-16.38l-.188.188c-19.11 19.11-46.69 26.546-72.578 19.863l-5.177-1.506c-29.088-9.696-49.233-35.772-51.68-65.989l-.189-6.025v-1.317c0-18.545 6.684-36.525 18.733-50.645l71.637-83.592V22.687l.094-2.354C151.84 8.85 161.441 0 173.114 0zM121.058 466.91h269.79L354.7 421.724H157.111l-36.148 45.184zm74.649-391.602c0 5.366-1.977 10.637-5.46 14.685l-77.097 89.899c-4.989 5.93-7.813 13.461-7.813 21.274v1.318l.377 4.895c1.788 11.202 9.695 20.616 20.615 24.287l4.236 1.036c9.884 1.788 20.05-1.318 27.3-8.473l6.777-6.777 3.483-2.824c3.671-2.448 8.001-3.766 12.52-3.766h82.839c9.225 0 17.603 5.648 20.992 14.309s1.224 18.45-5.554 24.757l-101.478 95.077c-7.625 7.154-11.955 17.038-11.955 27.487v4.048h193.165l38.313-43.114 2.165-2.636c4.801-6.401 7.343-14.308 7.343-22.31l.094-120.21c0-78.98-64.106-143.085-143.085-143.085h-67.777zm30.123 67.777a22.54 22.54 0 0 1-22.593-22.592A22.54 22.54 0 0 1 225.83 97.9a22.54 22.54 0 0 1 22.592 22.593 22.54 22.54 0 0 1-22.592 22.592"/></svg>