<svg xmlns="http://www.w3.org/2000/svg" viewBox="0 0 512 512"><!--! Font Awesome Free 7.0.1 by @fontawesome - https://fontawesome.com License - https://fontawesome.com/license/free (Icons: CC BY 4.0, Fonts: SIL OFL 1.1, Code: MIT License) Copyright 2025 Fonticons, Inc.--><path fill="currentColor" d="M145.067 0a25.54 25.54 0 0 1 25.6 25.6v42.667h170.666V25.6a25.54 25.54 0 0 1 25.6-25.6 25.54 25.54 0 0 1 25.6 25.6v42.667h34.134c37.653 0 68.266 30.613 68.266 68.266v307.2c0 37.654-30.613 68.267-68.266 68.267H85.333c-37.653 0-68.266-30.613-68.266-68.267v-307.2c0-37.653 30.613-68.266 68.266-68.266h34.134V25.6a25.54 25.54 0 0 1 25.6-25.6m281.6 460.8c9.386 0 17.066-7.68 17.066-17.067v-68.266h-93.866V460.8zm17.066-136.533v-85.334h-93.866v85.334zm-145.066 0v-85.334h-85.334v85.334zm-136.534 0v-85.334H68.267v85.334zm-93.866 51.2v68.266c0 9.387 7.68 17.067 17.066 17.067h76.8v-85.333zm145.066 0V460.8h85.334v-85.333zm-68.266-256H85.333c-9.386 0-17.066 7.68-17.066 17.066v51.2h375.466v-51.2c0-9.386-7.68-17.066-17.066-17.066z"/></svg>