<svg xmlns="http://www.w3.org/2000/svg" viewBox="0 0 512 512"><!--! Font Awesome Free 7.0.1 by @fontawesome - https://fontawesome.com License - https://fontawesome.com/license/free (Icons: CC BY 4.0, Fonts: SIL OFL 1.1, Code: MIT License) Copyright 2025 Fonticons, Inc.--><path fill="currentColor" d="M172.442 5.041a23.13 23.13 0 0 0-21.4-2.092c-7.039 2.853-12.08 9.13-13.507 16.55l-19.879 98.252-98.253 19.784c-7.419 1.522-13.696 6.658-16.55 13.602C0 158.08.761 166.165 4.946 172.537l55.356 83.51-55.356 83.51a23.13 23.13 0 0 0-2.093 21.402 22.5 22.5 0 0 0 16.55 13.6l98.253 19.785 19.88 98.253c1.521 7.419 6.657 13.696 13.6 16.55 6.944 2.853 15.029 2.092 21.401-2.093l83.51-55.356 83.51 55.356a23.13 23.13 0 0 0 21.402 2.093 22.5 22.5 0 0 0 13.6-16.55l19.88-98.158 98.158-19.88c7.419-1.52 13.696-6.657 16.55-13.6 2.853-6.944 2.092-15.028-2.093-21.401l-55.356-83.51 55.356-83.51a23.13 23.13 0 0 0 2.093-21.401 22.5 22.5 0 0 0-16.55-13.602l-98.348-19.784-19.784-98.253c-1.522-7.418-6.658-13.6-13.697-16.55C353.73 0 345.74.857 339.368 5.042l-83.416 55.357zm-13.03 136.584 16.169-79.8 67.816 44.988c7.61 5.041 17.596 5.041 25.206 0l67.816-44.989 16.17 79.801c1.807 9.036 8.845 15.98 17.881 17.882l79.8 16.169-44.988 67.816c-5.041 7.61-5.041 17.597 0 25.206l44.989 67.816-79.801 16.17a22.77 22.77 0 0 0-17.881 17.881l-16.17 79.801-67.816-44.99c-7.61-5.04-17.596-5.04-25.206 0l-67.816 44.99-16.17-79.8a22.77 22.77 0 0 0-17.881-17.882l-79.8-16.17 44.988-67.816c5.041-7.61 5.041-17.596 0-25.206L61.73 175.676l79.801-16.17c9.036-1.807 15.98-8.845 17.881-17.88m50.125 114.423c0-25.396 20.64-46.036 46.035-46.036s46.035 20.64 46.035 46.036c0 25.395-20.64 46.035-46.035 46.035-25.396 0-46.035-20.64-46.035-46.035m137.725 0c0-50.601-41.09-91.69-91.69-91.69s-91.69 41.089-91.69 91.69 41.09 91.69 91.69 91.69 91.69-41.09 91.69-91.69"/></svg>