<svg xmlns="http://www.w3.org/2000/svg" viewBox="0 0 512 512"><!--! Font Awesome Free 7.0.1 by @fontawesome - https://fontawesome.com License - https://fontawesome.com/license/free (Icons: CC BY 4.0, Fonts: SIL OFL 1.1, Code: MIT License) Copyright 2025 Fonticons, Inc.--><path fill="currentColor" d="M184.544 50.98C206.273 14.627 252.448 0 291.624 18.387l7.521 3.97c36.356 21.834 50.981 68.01 32.595 107.185l-14.73 31.34h114.602l7.73.418c37.922 3.866 67.487 35.937 67.487 74.8 0 13.79-3.761 26.535-10.238 37.608 6.372 11.074 10.133 23.82 10.238 37.61 0 19.117-7.209 36.354-18.805 49.622a72 72 0 0 1 2.09 17.237c0 26.221-13.477 49.1-33.639 62.576-1.985 37.087-30.714 67.07-67.278 70.726l-7.73.418H272.715c-18.804 0-37.504-3.552-54.95-10.343l-7.418-3.134-.731-.313-6.895-3.343-.731-.314-12.745-6.79c-12.85-6.79-24.342-15.357-34.37-25.177C150.59 490.584 126.355 512 97.103 512h-33.43c-32.28 0-58.502-26.222-58.502-58.502l.21-234.114c0-32.281 26.22-58.503 58.501-58.503h33.43c11.283 0 21.834 3.239 30.819 8.88l52.338-111.259.627-1.253 2.82-5.224.628-.94zM63.882 211.027c-4.596 0-8.357 3.761-8.357 8.358v234.01c0 4.596 3.76 8.357 8.357 8.357h33.43c4.597 0 8.358-3.761 8.358-8.358v-234.01c0-4.596-3.761-8.357-8.358-8.357zm206.43-147.3c-15.461-7.209-33.743-1.672-42.518 12.536l-2.299 4.179-59.338 126.302c-3.656 7.835-5.746 16.193-6.268 24.76l-.104 4.387v117.945l.208 8.253c2.508 34.16 22.357 64.875 52.966 81.172l12.014 6.372 6.581 3.239a99.9 99.9 0 0 0 41.161 8.88h108.752l2.507-.105c12.64-1.253 22.565-12.014 22.565-24.968l-.209-2.716c-.104-.94-.209-1.776-.418-2.716-2.82-12.64 4.492-25.282 16.715-29.251 10.134-3.239 17.342-12.745 17.342-23.82 0-4.491-1.15-8.566-3.239-12.326-6.581-11.596-2.925-26.326 8.358-33.43 7.104-4.492 11.7-12.328 11.7-21.103 0-7.417-3.238-14.103-8.566-18.804-5.432-4.806-8.566-11.596-8.566-18.805s3.134-13.998 8.566-18.804c5.328-4.701 8.566-11.387 8.566-18.804l-.104-2.507c-1.15-11.805-10.551-21.208-22.356-22.357l-2.508-.104H277.73c-8.567 0-16.507-4.388-21.103-11.596-4.597-7.209-5.224-16.402-1.567-24.132l31.34-67.174c7.313-15.67 1.463-34.16-13.058-42.832z"/></svg>