<svg xmlns="http://www.w3.org/2000/svg" viewBox="0 0 512 512"><!--! Font Awesome Free 7.0.1 by @fontawesome - https://fontawesome.com License - https://fontawesome.com/license/free (Icons: CC BY 4.0, Fonts: SIL OFL 1.1, Code: MIT License) Copyright 2025 Fonticons, Inc.--><path fill="currentColor" d="M438.857 0C479.2 0 512 32.8 512 73.143v365.714C512 479.2 479.2 512 438.857 512H73.143C32.8 512 0 479.2 0 438.857V73.143C0 32.8 32.8 0 73.143 0zM73.143 54.857c-10.057 0-18.286 8.229-18.286 18.286v365.714c0 10.057 8.229 18.286 18.286 18.286h365.714c10.057 0 18.286-8.229 18.286-18.286V73.143c0-10.057-8.229-18.286-18.286-18.286zM336.8 157.6c8.914-12.229 26.057-14.971 38.286-6.057 12.228 8.914 14.971 26.057 6.057 38.286l-139.543 192c-4.686 6.514-12 10.628-20 11.2s-15.886-2.286-21.486-7.886l-63.885-63.886c-10.743-10.743-10.743-28.114 0-38.743 10.742-10.628 28.114-10.743 38.742 0l41.143 41.143L336.8 157.714z"/></svg>