<svg xmlns="http://www.w3.org/2000/svg" viewBox="0 0 512 512"><!--! Font Awesome Free 7.0.1 by @fontawesome - https://fontawesome.com License - https://fontawesome.com/license/free (Icons: CC BY 4.0, Fonts: SIL OFL 1.1, Code: MIT License) Copyright 2025 Fonticons, Inc.--><path fill="currentColor" d="M42.667 398.222V170.667h426.666v227.555c0 7.822-6.4 14.222-14.222 14.222H284.444c0-39.288-31.822-71.11-71.11-71.11h-56.89c-39.288 0-71.11 31.822-71.11 71.11H56.888c-7.822 0-14.222-6.4-14.222-14.222M56.889 56.89C25.51 56.889 0 82.4 0 113.778v284.444c0 31.378 25.511 56.89 56.889 56.89H455.11c31.378 0 56.889-25.512 56.889-56.89V113.778c0-31.378-25.511-56.89-56.889-56.89zm128 248.889c27.467 0 49.778-22.311 49.778-49.778s-22.311-49.778-49.778-49.778S135.11 228.533 135.11 256s22.311 49.778 49.778 49.778m149.333-92.445a21.28 21.28 0 0 0-21.333 21.334A21.28 21.28 0 0 0 334.222 256h71.111a21.28 21.28 0 0 0 21.334-21.333 21.28 21.28 0 0 0-21.334-21.334zm0 85.334A21.28 21.28 0 0 0 312.89 320a21.28 21.28 0 0 0 21.333 21.333h71.111A21.28 21.28 0 0 0 426.667 320a21.28 21.28 0 0 0-21.334-21.333z"/></svg>