<svg xmlns="http://www.w3.org/2000/svg" viewBox="0 0 512 512"><!--! Font Awesome Free 7.0.1 by @fontawesome - https://fontawesome.com License - https://fontawesome.com/license/free (Icons: CC BY 4.0, Fonts: SIL OFL 1.1, Code: MIT License) Copyright 2025 Fonticons, Inc.--><path fill="currentColor" d="M73.143 54.857c-10.057 0-18.286 8.229-18.286 18.286v365.714c0 10.057 8.229 18.286 18.286 18.286h365.714c10.057 0 18.286-8.229 18.286-18.286V73.143c0-10.057-8.229-18.286-18.286-18.286zM0 73.143C0 32.8 32.8 0 73.143 0h365.714C479.2 0 512 32.8 512 73.143v365.714C512 479.2 479.2 512 438.857 512H73.143C32.8 512 0 479.2 0 438.857zm256 73.143c7.657 0 14.857 3.2 20.114 8.8l118.857 128c7.429 8 9.372 19.657 5.029 29.6s-14.286 16.457-25.143 16.457H137.143c-10.857 0-20.8-6.514-25.143-16.457s-2.4-21.6 5.029-29.6l118.857-128c5.143-5.6 12.457-8.8 20.114-8.8"/></svg>