<svg xmlns="http://www.w3.org/2000/svg" viewBox="0 0 512 512"><!--! Font Awesome Free 7.0.1 by @fontawesome - https://fontawesome.com License - https://fontawesome.com/license/free (Icons: CC BY 4.0, Fonts: SIL OFL 1.1, Code: MIT License) Copyright 2025 Fonticons, Inc.--><path fill="currentColor" d="M256 .1a23.94 23.94 0 0 0-23.995 23.995v9.698C150.62 45.391 88.033 115.477 88.033 200.061v14.497a213 213 0 0 1-28.995 107.28L37.143 359.23c-3.3 5.799-5.1 12.297-5.1 18.996 0 20.896 16.897 37.793 37.793 37.793h372.328c20.896 0 37.792-16.897 37.792-37.793a38.07 38.07 0 0 0-5.099-18.996l-21.895-37.493a213 213 0 0 1-28.995-107.279v-14.497c0-84.584-62.588-154.67-143.972-166.268v-9.698A23.94 23.94 0 0 0 256 0zm168.367 367.928H87.533l12.897-22.096c23.296-39.892 35.593-85.283 35.593-131.374v-14.497c0-66.287 53.69-119.977 119.977-119.977s119.977 53.69 119.977 119.977v14.497c0 46.191 12.297 91.482 35.493 131.374zM188.113 464.01C198.011 492.004 224.706 512 256 512s57.989-19.996 67.887-47.99z"/></svg>