<svg xmlns="http://www.w3.org/2000/svg" viewBox="0 0 512 512"><!--! Font Awesome Free 7.0.1 by @fontawesome - https://fontawesome.com License - https://fontawesome.com/license/free (Icons: CC BY 4.0, Fonts: SIL OFL 1.1, Code: MIT License) Copyright 2025 Fonticons, Inc.--><path fill="currentColor" d="M48 256c0-114.9 93.1-208 208-208s208 93.1 208 208-93.1 208-208 208S48 370.9 48 256m464 0C512 114.6 397.4 0 256 0S0 114.6 0 256s114.6 256 256 256 256-114.6 256-256m-387.3-11.3c-6.2 6.2-6.2 16.4 0 22.6l104 104c4.6 4.6 11.5 5.9 17.4 3.5s9.9-8.3 9.9-14.8v-72h104c13.3 0 24-10.7 24-24v-16c0-13.3-10.7-24-24-24H256v-72c0-6.5-3.9-12.3-9.9-14.8s-12.9-1.1-17.4 3.5z"/></svg>