<svg xmlns="http://www.w3.org/2000/svg" viewBox="0 0 512 512"><!--! Font Awesome Free 7.0.1 by @fontawesome - https://fontawesome.com License - https://fontawesome.com/license/free (Icons: CC BY 4.0, Fonts: SIL OFL 1.1, Code: MIT License) Copyright 2025 Fonticons, Inc.--><path fill="currentColor" d="M410.858 66.675c-3.441 0-6.667.43-9.57 1.398-20.541 5.915-49.577 11.507-79.903 3.549-61.729-16.024-133.996 7.958-187.874 61.836S55.652 259.603 71.676 321.33c7.85 30.326 2.366 59.362-3.55 79.902-.86 3.011-1.397 6.238-1.397 9.571 0 19.035 15.378 34.413 34.413 34.413 3.441 0 6.667-.43 9.57-1.398 20.541-5.914 49.577-11.506 79.903-3.548 61.729 16.023 133.996-7.958 187.874-61.836s77.859-126.145 61.835-187.873c-7.85-30.327-2.366-59.363 3.55-79.903.86-3.011 1.397-6.237 1.397-9.571 0-19.035-15.378-34.413-34.413-34.413m0-51.62c47.533 0 86.033 38.5 86.033 86.033 0 8.28-1.183 16.346-3.334 23.982-4.947 16.99-7.636 35.38-3.226 52.587 21.615 83.451-11.722 173.678-75.279 237.342-63.556 63.663-153.89 97.001-237.341 75.278-17.207-4.41-35.489-1.72-52.588 3.226a88.5 88.5 0 0 1-23.981 3.334c-47.533 0-86.033-38.5-86.033-86.033 0-8.28 1.183-16.346 3.334-23.981 4.947-16.991 7.636-35.38 3.226-52.587C.054 250.784 33.391 160.558 96.948 96.894S250.946 0 334.289 21.616c17.207 4.409 35.489 1.72 52.588-3.227a88.5 88.5 0 0 1 23.981-3.333m-130.446 145.18c-55.921 16.346-103.777 64.202-120.123 120.123-3.979 13.658-18.39 21.508-32.047 17.529-13.658-3.979-21.508-18.282-17.422-31.94 21.293-72.804 82.376-133.887 155.181-155.18 13.658-3.98 28.068 3.871 32.047 17.529 3.98 13.657-3.871 28.068-17.529 32.047z"/></svg>