<svg xmlns="http://www.w3.org/2000/svg" viewBox="0 0 512 512"><!--! Font Awesome Free 7.0.1 by @fontawesome - https://fontawesome.com License - https://fontawesome.com/license/free (Icons: CC BY 4.0, Fonts: SIL OFL 1.1, Code: MIT License) Copyright 2025 Fonticons, Inc.--><path fill="currentColor" d="M455.111 99.556h-256c-7.822 0-14.222 6.4-14.222 14.222V128h-42.667v-14.222c0-31.378 25.511-56.89 56.89-56.89h256c31.377 0 56.888 25.512 56.888 56.89v170.666c0 31.378-25.511 56.89-56.889 56.89h-42.667v-42.667h42.667c7.822 0 14.222-6.4 14.222-14.223V113.778c0-7.822-6.4-14.222-14.222-14.222m-128 184.888H42.667v113.778c0 7.822 6.4 14.222 14.222 14.222h256c7.822 0 14.222-6.4 14.222-14.222zM56.89 170.667h256c31.378 0 56.889 25.51 56.889 56.889v170.666c0 31.378-25.511 56.89-56.89 56.89h-256C25.512 455.111 0 429.6 0 398.221V227.556c0-31.378 25.511-56.89 56.889-56.89"/></svg>