<svg xmlns="http://www.w3.org/2000/svg" viewBox="0 0 512 512"><!--! Font Awesome Free 7.0.1 by @fontawesome - https://fontawesome.com License - https://fontawesome.com/license/free (Icons: CC BY 4.0, Fonts: SIL OFL 1.1, Code: MIT License) Copyright 2025 Fonticons, Inc.--><path fill="currentColor" d="M171.912 44.847H67.27c-8.222 0-14.949 6.727-14.949 14.949v358.773c0 8.222 6.727 14.95 14.95 14.95h74.744v44.846H67.27c-32.98 0-59.796-26.815-59.796-59.796V59.796C7.474 26.815 34.29 0 67.27 0H192c15.883 0 31.112 6.26 42.324 17.472l114.453 114.546c11.211 11.211 17.471 26.44 17.471 42.324V314.02h-44.847V194.43h-82.219c-37.185 0-67.27-30.085-67.27-67.27V44.94zM302.81 149.489l-86.05-86.05v63.627a22.37 22.37 0 0 0 22.423 22.423zM201.81 355.036h29.898c30.926 0 56.058 25.133 56.058 56.059s-25.132 56.058-56.058 56.058h-11.212v26.16c0 10.278-8.408 18.687-18.686 18.687-10.277 0-18.686-8.409-18.686-18.686V373.723c0-10.278 8.409-18.687 18.686-18.687m29.898 74.745c10.277 0 18.686-8.409 18.686-18.686s-8.409-18.686-18.686-18.686h-11.212v37.372zm89.693-74.745H351.3c26.815 0 48.584 21.77 48.584 48.584v59.796c0 26.815-21.77 48.584-48.584 48.584h-29.898c-10.277 0-18.686-8.409-18.686-18.686V373.723c0-10.278 8.41-18.687 18.686-18.687M351.3 474.628c6.167 0 11.212-5.046 11.212-11.212V403.62c0-6.166-5.045-11.211-11.212-11.211h-11.211v82.219zm71.008-100.905c0-10.278 8.408-18.687 18.686-18.687h44.846c10.278 0 18.687 8.41 18.687 18.687s-8.41 18.686-18.687 18.686h-26.16v22.423h26.16c10.278 0 18.687 8.409 18.687 18.686 0 10.278-8.41 18.686-18.687 18.686h-26.16v41.11c0 10.277-8.409 18.686-18.686 18.686-10.278 0-18.686-8.409-18.686-18.686z"/></svg>