<svg xmlns="http://www.w3.org/2000/svg" viewBox="0 0 512 512"><!--! Font Awesome Free 7.0.1 by @fontawesome - https://fontawesome.com License - https://fontawesome.com/license/free (Icons: CC BY 4.0, Fonts: SIL OFL 1.1, Code: MIT License) Copyright 2025 Fonticons, Inc.--><path fill="currentColor" d="M464 256c0-114.9-93.1-208-208-208S48 141.1 48 256s93.1 208 208 208 208-93.1 208-208M0 256C0 114.6 114.6 0 256 0s256 114.6 256 256-114.6 256-256 256S0 397.4 0 256m118.3 58.2c-4.2-13.7 7.1-26.2 21.4-26.2h232.6c14.3 0 25.6 12.5 21.4 26.2C375.7 373.1 320.8 416 256 416s-119.7-42.9-137.7-101.8M144 192c0-17.7 14.3-32 32-32s32 14.3 32 32-14.3 32-32 32-32-14.3-32-32m164 8c0 11-9 20-20 20s-20-9-20-20c0-33.1 26.9-60 60-60h16c33.1 0 60 26.9 60 60 0 11-9 20-20 20s-20-9-20-20-9-20-20-20h-16c-11 0-20 9-20 20"/></svg>