<svg xmlns="http://www.w3.org/2000/svg" viewBox="0 0 512 512"><!--! Font Awesome Free 7.0.1 by @fontawesome - https://fontawesome.com License - https://fontawesome.com/license/free (Icons: CC BY 4.0, Fonts: SIL OFL 1.1, Code: MIT License) Copyright 2025 Fonticons, Inc.--><path fill="currentColor" d="M73.143 54.857c-10.057 0-18.286 8.229-18.286 18.286v365.714c0 10.057 8.229 18.286 18.286 18.286h365.714c10.057 0 18.286-8.229 18.286-18.286V161.486c0-4.8-1.943-9.486-5.372-12.915L365.714 62.4v102.171c0 20.229-16.343 36.572-36.571 36.572H146.286c-20.229 0-36.572-16.343-36.572-36.572V54.857zm91.428 0v91.429h146.286V54.857zM0 73.143C0 32.8 32.8 0 73.143 0h277.371c19.429 0 38.057 7.657 51.772 21.371l88.343 88.343C504.343 123.43 512 142.057 512 161.486v277.371C512 479.2 479.2 512 438.857 512H73.143C32.8 512 0 479.2 0 438.857zm182.857 256C182.857 288.8 215.657 256 256 256s73.143 32.8 73.143 73.143-32.8 73.143-73.143 73.143-73.143-32.8-73.143-73.143"/></svg>