<svg xmlns="http://www.w3.org/2000/svg" viewBox="0 0 512 512"><!--! Font Awesome Free 7.0.1 by @fontawesome - https://fontawesome.com License - https://fontawesome.com/license/free (Icons: CC BY 4.0, Fonts: SIL OFL 1.1, Code: MIT License) Copyright 2025 Fonticons, Inc.--><path fill="currentColor" d="M255.859 0a22.534 22.534 0 0 1 22.588 22.588v45.177a22.534 22.534 0 0 1-22.588 22.588 22.534 22.534 0 0 1-22.588-22.588V22.588A22.534 22.534 0 0 1 255.859 0m0 150.588c11.67 0 21.365 8.847 22.494 20.424l12.706 133.553L455.012 40.753c6.306-10.07 19.294-13.647 29.835-8s14.87 18.353 9.977 29.176L365.788 348.8c2.07 2.165 4.047 4.424 5.93 6.682L463.2 304c9.882-5.553 22.212-2.918 29.082 6.024 6.87 8.94 5.93 21.647-2.07 29.647l-81.883 81.882h-67.2c-12.423-35.106-45.835-60.235-85.176-60.235s-72.847 25.13-85.177 60.235H95.86L24.8 372.329c-9.318-6.211-12.518-18.353-7.624-28.329s16.377-14.965 27.012-11.67l91.483 28.611c2.823-3.67 5.74-7.153 8.847-10.635l-58.636-97.788c-5.74-9.506-3.67-21.742 4.8-28.894 8.47-7.153 20.894-7.06 29.27.094l96.377 82.73c1.412-.377 2.824-.754 4.236-1.036l12.8-134.306c1.13-11.577 10.823-20.424 22.494-20.424zM45.035 466.824h429.177a22.534 22.534 0 0 1 22.588 22.588A22.534 22.534 0 0 1 474.212 512H37.506a22.534 22.534 0 0 1-22.588-22.588 22.534 22.534 0 0 1 22.588-22.588z"/></svg>