<svg xmlns="http://www.w3.org/2000/svg" viewBox="0 0 512 512"><!--! Font Awesome Free 7.0.1 by @fontawesome - https://fontawesome.com License - https://fontawesome.com/license/free (Icons: CC BY 4.0, Fonts: SIL OFL 1.1, Code: MIT License) Copyright 2025 Fonticons, Inc.--><path fill="currentColor" d="M356.235 361.506c11.389 1.13 20.236 10.823 20.236 22.494s-8.847 21.27-20.236 22.494l-2.353.094h-75.294v82.824A22.534 22.534 0 0 1 256 512a22.534 22.534 0 0 1-22.588-22.588v-82.824h-75.294A22.534 22.534 0 0 1 135.529 384c0-11.67 8.847-21.27 20.236-22.494l2.353-.094h195.764zM256 0c99.765 0 180.706 80.941 180.706 180.706 0 54.023-23.718 102.4-61.27 135.53H136.564c-37.553-33.13-61.27-81.507-61.27-135.53C75.294 80.94 156.234 0 256 0m30.118 225.882c-7.247 0-13.365 5.177-14.777 12.047l-.565 6.024a15.11 15.11 0 0 1-11.764 11.765l-6.024.564c-6.87 1.412-12.047 7.53-12.047 14.777 0 8.282 6.777 15.059 15.059 15.059 24.941 0 45.176-20.236 45.176-45.177 0-8.282-6.776-15.059-15.058-15.059m60.235-60.235c-7.247 0-13.365 5.177-14.777 12.047l-.564 6.024a15.11 15.11 0 0 1-11.765 11.764l-6.023.565c-6.871 1.412-12.048 7.53-12.048 14.777 0 8.282 6.777 15.058 15.06 15.058 24.94 0 45.176-20.235 45.176-45.176 0-8.282-6.777-15.059-15.06-15.059m-75.294-15.059c-7.247 0-13.365 5.177-14.777 12.047l-.564 6.024a15.11 15.11 0 0 1-11.765 11.765l-6.024.564c-6.87 1.412-12.047 7.53-12.047 14.777 0 8.282 6.777 15.059 15.06 15.059 24.94 0 45.176-20.236 45.176-45.177 0-8.282-6.777-15.059-15.06-15.059"/></svg>