<svg xmlns="http://www.w3.org/2000/svg" viewBox="0 0 512 512"><!--! Font Awesome Free 7.0.1 by @fontawesome - https://fontawesome.com License - https://fontawesome.com/license/free (Icons: CC BY 4.0, Fonts: SIL OFL 1.1, Code: MIT License) Copyright 2025 Fonticons, Inc.--><path fill="currentColor" d="M209.962 8.26C204.237 2.44 195.883.094 188 2.253c-7.884 2.158-13.985 8.26-15.956 16.143L157.683 74.9c-1.033 4.13-5.256 6.57-9.292 5.35L92.263 64.481c-7.884-2.253-16.331 0-22.057 5.725-5.725 5.726-7.978 14.173-5.725 22.057l15.862 56.128c1.126 4.036-1.314 8.26-5.35 9.292l-56.597 14.36c-7.884 1.971-14.078 8.166-16.237 16.05s.187 16.238 6.007 21.963l41.767 40.641c3.003 2.91 3.003 7.79 0 10.794L8.26 302.13c-5.82 5.726-8.166 14.08-6.007 21.964a22.82 22.82 0 0 0 16.237 16.05l56.503 14.36c4.13 1.032 6.57 5.256 5.35 9.292L64.481 419.83c-2.253 7.884 0 16.331 5.725 22.056 5.726 5.726 14.173 7.978 22.057 5.726l56.128-15.862c4.036-1.127 8.26 1.314 9.292 5.35l14.36 56.503c1.971 7.884 8.166 14.078 16.05 16.237s16.238-.187 21.963-6.007l40.641-41.767c2.91-3.003 7.79-3.003 10.794 0l40.547 41.767c5.725 5.82 14.079 8.166 21.963 6.007a22.82 22.82 0 0 0 16.05-16.237l14.36-56.41c1.032-4.13 5.256-6.57 9.292-5.35l56.128 15.863c7.884 2.252 16.331 0 22.056-5.726 5.726-5.725 7.978-14.172 5.726-22.057l-15.862-56.127c-1.127-4.036 1.314-8.26 5.35-9.292l56.503-14.36c7.884-1.972 14.078-8.166 16.237-16.05s-.187-16.332-6.007-21.963l-41.767-40.641c-3.003-2.91-3.003-7.79 0-10.794l41.767-40.64c5.82-5.726 8.166-14.08 6.007-21.964a22.82 22.82 0 0 0-16.237-16.05l-56.503-14.36c-4.13-1.033-6.57-5.256-5.35-9.292l15.862-56.128c2.252-7.884 0-16.331-5.726-22.057-5.725-5.725-14.172-7.978-22.056-5.725l-56.128 15.862c-4.036 1.126-8.26-1.314-9.292-5.35l-14.36-56.597C338.08 10.512 331.885 4.318 324 2.16s-16.238.187-21.963 6.007l-40.641 41.86c-2.91 3.004-7.79 3.004-10.794 0z"/></svg>