<svg xmlns="http://www.w3.org/2000/svg" viewBox="0 0 512 512"><!--! Font Awesome Free 7.0.1 by @fontawesome - https://fontawesome.com License - https://fontawesome.com/license/free (Icons: CC BY 4.0, Fonts: SIL OFL 1.1, Code: MIT License) Copyright 2025 Fonticons, Inc.--><path fill="currentColor" d="M28.253 29.975C12.626 29.975 0 42.6 0 58.228s12.626 28.253 28.253 28.253h64.364l81.316 243.86c-19.865 15.54-32.667 39.731-32.667 66.925 0 46.794 37.965 84.76 84.76 84.76 46.264 0 83.964-37.083 84.759-83.26l178.436-59.508c14.833-4.944 22.779-20.924 17.835-35.757-4.945-14.833-20.925-22.78-35.758-17.835L292.95 345.174c-15.186-19.512-38.76-32.226-65.336-32.668l-81.316-243.86c-7.77-23.132-29.312-38.671-53.68-38.671zm155.392 367.29c0-23.396 18.983-42.379 42.38-42.379s42.38 18.983 42.38 42.38-18.983 42.38-42.38 42.38-42.38-18.983-42.38-42.38m64.011-288.446c-22.249 7.24-34.433 31.167-27.193 53.416l34.963 107.45c7.24 22.25 31.167 34.434 53.416 27.194l107.45-34.963c22.25-7.24 34.434-31.167 27.194-53.417l-34.875-107.45c-7.24-22.25-31.167-34.433-53.416-27.194z"/></svg>