<svg xmlns="http://www.w3.org/2000/svg" viewBox="0 0 512 512"><!--! Font Awesome Free 7.0.1 by @fontawesome - https://fontawesome.com License - https://fontawesome.com/license/free (Icons: CC BY 4.0, Fonts: SIL OFL 1.1, Code: MIT License) Copyright 2025 Fonticons, Inc.--><path fill="currentColor" d="M107.85 42.258c-26.717 0-49.873 18.525-55.661 44.619L7.926 286.369C0 321.993 27.074 355.746 63.5 355.746h163.958v56.998h-56.998c-15.764 0-28.499 12.735-28.499 28.499s12.735 28.499 28.499 28.499h170.993c15.764 0 28.499-12.736 28.499-28.5s-12.735-28.498-28.499-28.498h-56.998v-56.998h163.958c36.425 0 63.588-33.753 55.662-69.377L459.722 86.877c-5.788-26.094-28.855-44.619-55.572-44.619zm110.255 56.998h75.879l6.501 78.372h-88.88zm-49.427 78.372H90.484l17.455-78.372h67.329l-6.501 78.372zm-87.723 42.748h84.16l-6.501 78.372H63.588l17.456-78.372zm126.998 0h96.005l6.502 78.372H201.362l6.502-78.372zm138.932 0h84.16l17.456 78.372h-95.026l-6.501-78.372zm74.631-42.748h-78.194l-6.501-78.372h67.329l17.455 78.372z"/></svg>