<svg xmlns="http://www.w3.org/2000/svg" viewBox="0 0 512 512"><!--! Font Awesome Free 7.0.1 by @fontawesome - https://fontawesome.com License - https://fontawesome.com/license/free (Icons: CC BY 4.0, Fonts: SIL OFL 1.1, Code: MIT License) Copyright 2025 Fonticons, Inc.--><path fill="currentColor" d="M133.827 236.896c0-68.586 15.57-129.529 39.642-172.514C197.922 20.632 228.012 0 256.096 0s58.173 20.633 82.626 64.382c24.072 42.985 39.642 103.928 39.642 172.514h-99.343v91.701h7.642c8.883 0 17.29 1.91 24.836 5.254l113.098-96.955h-.478c0-74.89-16.907-143.857-45.468-194.866a235 235 0 0 0-19.391-29.517c82.627 34.293 141.182 109.947 141.182 209.099 0 6.687-2.961 13.087-8.024 17.385L343.403 366.901c2.866 7.07 4.394 14.71 4.394 22.83v61.135c0 33.72-27.415 61.134-61.134 61.134h-61.135c-33.719 0-61.134-27.415-61.134-61.134V389.73c0-8.024 1.528-15.76 4.394-22.83L19.582 238.997c-5.063-4.298-8.024-10.698-8.024-17.385 0-99.152 58.555-174.902 141.182-209.099-6.973 9.075-13.468 19.01-19.295 29.517-28.561 51.009-45.469 119.976-45.469 194.866H87.5l113.098 96.955c7.642-3.344 16.048-5.254 24.836-5.254h7.642v-91.701H133.73z"/></svg>