<svg xmlns="http://www.w3.org/2000/svg" viewBox="0 0 512 512"><!--! Font Awesome Free 7.0.1 by @fontawesome - https://fontawesome.com License - https://fontawesome.com/license/free (Icons: CC BY 4.0, Fonts: SIL OFL 1.1, Code: MIT License) Copyright 2025 Fonticons, Inc.--><path fill="currentColor" d="M73.143 0C32.8 0 0 32.8 0 73.143v365.714C0 479.2 32.8 512 73.143 512h365.714C479.2 512 512 479.2 512 438.857V161.486c0-19.429-7.657-38.057-21.371-51.772l-88.343-88.343C388.57 7.657 369.943 0 350.514 0zm36.571 109.714c0-20.228 16.343-36.571 36.572-36.571h182.857c20.228 0 36.571 16.343 36.571 36.571v73.143c0 20.229-16.343 36.572-36.571 36.572H146.286c-20.229 0-36.572-16.343-36.572-36.572zM256 292.571c40.343 0 73.143 32.8 73.143 73.143s-32.8 73.143-73.143 73.143-73.143-32.8-73.143-73.143 32.8-73.143 73.143-73.143"/></svg>