<svg xmlns="http://www.w3.org/2000/svg" viewBox="0 0 512 512"><!--! Font Awesome Free 7.0.1 by @fontawesome - https://fontawesome.com License - https://fontawesome.com/license/free (Icons: CC BY 4.0, Fonts: SIL OFL 1.1, Code: MIT License) Copyright 2025 Fonticons, Inc.--><path fill="currentColor" d="M31.03 103.515c51.394 0 93.091 41.697 93.091 93.091v83.2c28.8-43.345 75.443-73.89 129.358-81.454 24.824 58.181 82.618 99.006 149.915 99.006 10.57 0 20.945-1.067 31.03-3.006v181.527c0 17.163-13.866 31.03-31.03 31.03s-31.03-13.867-31.03-31.03V339.345l-131.88 105.503h54.304c17.164 0 31.03 13.867 31.03 31.03 0 17.164-13.866 31.031-31.03 31.031H155.152c-51.394 0-93.091-41.697-93.091-93.09V196.605c0-16.097-12.219-29.285-27.83-30.836l-6.4-.291C12.217 163.83 0 150.642 0 134.545c0-17.163 13.867-31.03 31.03-31.03m455.564-89.988C496.679 5.091 512 12.267 512 25.455v109.09c0 60.025-48.582 108.607-108.606 108.607S294.788 194.57 294.788 134.545V25.455c0-13.188 15.321-20.364 25.406-11.928l52.17 43.443h62.06zM356.848 115.152c-10.666 0-19.393 8.727-19.393 19.393s8.727 19.394 19.393 19.394 19.394-8.727 19.394-19.394-8.727-19.393-19.394-19.393m93.091 0c-10.666 0-19.394 8.727-19.394 19.393s8.728 19.394 19.394 19.394c10.667 0 19.394-8.727 19.394-19.394s-8.727-19.393-19.394-19.393"/></svg>