<svg xmlns="http://www.w3.org/2000/svg" viewBox="0 0 512 512"><!--! Font Awesome Free 7.0.1 by @fontawesome - https://fontawesome.com License - https://fontawesome.com/license/free (Icons: CC BY 4.0, Fonts: SIL OFL 1.1, Code: MIT License) Copyright 2025 Fonticons, Inc.--><path fill="currentColor" d="M36.571 438.857C16.343 438.857 0 455.2 0 475.43 0 495.657 16.343 512 36.571 512c20.229 0 36.572-16.343 36.572-36.571 0-20.229-16.343-36.572-36.572-36.572M182.857 0c-20.228 0-36.571 16.343-36.571 36.571 0 20.229 16.343 36.572 36.571 36.572 20.229 0 36.572-16.343 36.572-36.572C219.429 16.343 203.086 0 182.857 0m146.286 438.857c-20.229 0-36.572 16.343-36.572 36.572 0 20.228 16.343 36.571 36.572 36.571 20.228 0 36.571-16.343 36.571-36.571 0-20.229-16.343-36.572-36.571-36.572M182.857 512c20.229 0 36.572-16.343 36.572-36.571 0-20.229-16.343-36.572-36.572-36.572-20.228 0-36.571 16.343-36.571 36.572 0 20.228 16.343 36.571 36.571 36.571M329.143 0c-20.229 0-36.572 16.343-36.572 36.571 0 20.229 16.343 36.572 36.572 36.572 20.228 0 36.571-16.343 36.571-36.572C365.714 16.343 349.371 0 329.143 0m146.286 512C495.657 512 512 495.657 512 475.429c0-20.229-16.343-36.572-36.571-36.572-20.229 0-36.572 16.343-36.572 36.572 0 20.228 16.343 36.571 36.572 36.571m0-438.857C495.657 73.143 512 56.8 512 36.57 512 16.343 495.657 0 475.429 0c-20.229 0-36.572 16.343-36.572 36.571 0 20.229 16.343 36.572 36.572 36.572M36.57 0C16.343 0 0 16.343 0 36.571 0 56.8 16.343 73.143 36.571 73.143c20.229 0 36.572-16.343 36.572-36.572C73.143 16.343 56.8 0 36.57 0M475.43 365.714c20.228 0 36.571-16.343 36.571-36.571 0-20.229-16.343-36.572-36.571-36.572-20.229 0-36.572 16.343-36.572 36.572 0 20.228 16.343 36.571 36.572 36.571M36.57 146.286C16.343 146.286 0 162.629 0 182.857c0 20.229 16.343 36.572 36.571 36.572 20.229 0 36.572-16.343 36.572-36.572 0-20.228-16.343-36.571-36.572-36.571m0 219.428c20.229 0 36.572-16.343 36.572-36.571 0-20.229-16.343-36.572-36.572-36.572C16.343 292.571 0 308.914 0 329.143c0 20.228 16.343 36.571 36.571 36.571M475.43 146.286c-20.229 0-36.572 16.343-36.572 36.571 0 20.229 16.343 36.572 36.572 36.572 20.228 0 36.571-16.343 36.571-36.572 0-20.228-16.343-36.571-36.571-36.571"/></svg>