<svg xmlns="http://www.w3.org/2000/svg" viewBox="0 0 512 512"><!--! Font Awesome Free 7.0.1 by @fontawesome - https://fontawesome.com License - https://fontawesome.com/license/free (Icons: CC BY 4.0, Fonts: SIL OFL 1.1, Code: MIT License) Copyright 2025 Fonticons, Inc.--><path fill="currentColor" d="M271.787 15.39c-9.7-5.542-21.676-5.542-31.475 0L18.607 142.08C6.137 149.204 0 163.853 3.662 177.71s16.331 23.557 30.682 23.557h31.673v205.869L15.34 445.142c-8.017 5.939-12.669 15.341-12.669 25.338 0 17.518 14.154 31.672 31.672 31.672h443.41c17.52 0 31.673-14.154 31.673-31.672 0-9.997-4.652-19.4-12.67-25.338l-50.675-38.006v-205.87h31.672c14.352 0 26.922-9.699 30.584-23.556 3.662-13.856-2.474-28.505-14.945-35.63L271.688 15.39zm126.787 185.877v205.869H335.23v-205.87zm-110.852 0v205.869h-63.345v-205.87zm-110.853 0v205.869h-63.344v-205.87zm79.18-110.853c17.52 0 31.673 14.154 31.673 31.672s-14.154 31.672-31.673 31.672-31.672-14.153-31.672-31.672 14.154-31.672 31.672-31.672"/></svg>