<svg xmlns="http://www.w3.org/2000/svg" viewBox="0 0 512 512"><!--! Font Awesome Free 7.0.1 by @fontawesome - https://fontawesome.com License - https://fontawesome.com/license/free (Icons: CC BY 4.0, Fonts: SIL OFL 1.1, Code: MIT License) Copyright 2025 Fonticons, Inc.--><path fill="currentColor" d="M275.892 24.286c-3.794-7.401-11.473-12.12-19.8-12.12s-16.005 4.719-19.799 12.12L168.2 157.7l-147.937 23.5a22.24 22.24 0 0 0-17.671 15.08c-2.591 7.957-.463 16.653 5.366 22.575l105.841 105.934-23.314 147.938c-1.296 8.234 2.127 16.56 8.881 21.464a22.2 22.2 0 0 0 23.13 1.85l133.598-67.908 133.504 67.908c7.402 3.794 16.376 3.054 23.13-1.85 6.754-4.903 10.177-13.138 8.882-21.464l-23.407-147.938 105.841-105.934c5.922-5.922 7.957-14.618 5.366-22.575-2.59-7.957-9.344-13.785-17.67-15.08l-147.846-23.5z"/></svg>