<svg xmlns="http://www.w3.org/2000/svg" viewBox="0 0 512 512"><!--! Font Awesome Free 7.0.1 by @fontawesome - https://fontawesome.com License - https://fontawesome.com/license/free (Icons: CC BY 4.0, Fonts: SIL OFL 1.1, Code: MIT License) Copyright 2025 Fonticons, Inc.--><path fill="currentColor" d="M38.259 8.287C29.972 0 16.573 0 8.375 8.287.176 16.573.088 29.972 8.287 38.259L473.74 503.713c8.287 8.287 21.686 8.287 29.884 0 8.199-8.286 8.287-21.685 0-29.884L396.077 366.281a138 138 0 0 0 10.667-9.609l62.677-62.678a137.92 137.92 0 0 0 40.375-97.498c0-76.165-61.708-137.962-137.961-137.962-32.882 0-64.441 11.725-89.3 32.794 17.895 8.903 34.115 20.716 48.044 34.82 12.43-7.316 26.622-11.195 41.256-11.195 45.047 0 81.542 36.496 81.542 81.543a81.47 81.47 0 0 1-23.89 57.653l-62.677 62.677a79.3 79.3 0 0 1-11.108 9.257l-41.873-41.874c14.546-.793 26.182-12.694 26.623-27.416v-3.438c0-76.077-61.62-138.314-137.962-138.314-16.925 0-33.41 3.086-48.925 8.992zm162.997 162.997h1.499a81 81 0 0 1 37.113 8.991c1.587 1.058 3.173 2.028 4.848 2.733 23.626 14.37 39.493 40.463 39.493 70.171v1.058zm106.05 225.675L171.372 261.025c1.058 74.578 61.355 134.788 135.846 135.846zM125.267 214.92l-39.934-39.934L42.49 217.83a137.92 137.92 0 0 0-40.374 97.499c0 76.165 61.708 137.961 137.961 137.961 32.794 0 64.44-11.724 89.3-32.793-17.895-8.904-34.203-20.716-48.132-34.821-12.341 7.229-26.534 11.107-41.168 11.107-45.047 0-81.543-36.495-81.543-81.542a81.47 81.47 0 0 1 23.89-57.653l42.843-42.843z"/></svg>