<svg xmlns="http://www.w3.org/2000/svg" viewBox="0 0 512 512"><!--! Font Awesome Free 7.0.1 by @fontawesome - https://fontawesome.com License - https://fontawesome.com/license/free (Icons: CC BY 4.0, Fonts: SIL OFL 1.1, Code: MIT License) Copyright 2025 Fonticons, Inc.--><path fill="currentColor" d="M1.143 468.229C6.286 493.143 28.343 512 54.857 512h402.286C487.429 512 512 487.429 512 457.143V347.429c0-30.286-24.571-54.858-54.857-54.858h-54.857v82.286a27.363 27.363 0 0 1-27.429 27.429 27.363 27.363 0 0 1-27.428-27.429v-82.286h-73.143v82.286a27.363 27.363 0 0 1-27.429 27.429 27.363 27.363 0 0 1-27.428-27.429v-82.286h-82.286a27.363 27.363 0 0 1-27.429-27.428 27.363 27.363 0 0 1 27.429-27.429h82.286v-73.143h-82.286a27.363 27.363 0 0 1-27.429-27.428 27.363 27.363 0 0 1 27.429-27.429h82.286V54.857C219.429 24.571 194.857 0 164.57 0H54.857C24.571 0 0 24.571 0 54.857v402.286c0 3.771.343 7.543 1.143 11.086"/></svg>