<svg xmlns="http://www.w3.org/2000/svg" viewBox="0 0 512 512"><!--! Font Awesome Free 7.0.1 by @fontawesome - https://fontawesome.com License - https://fontawesome.com/license/free (Icons: CC BY 4.0, Fonts: SIL OFL 1.1, Code: MIT License) Copyright 2025 Fonticons, Inc.--><path fill="currentColor" d="M288.514 73.143c-101.028 0-182.857 81.828-182.857 182.857 0 81.829 53.829 151.2 128 174.514V256a27.363 27.363 0 0 1 27.429-27.429c14.628 0 26.628 11.543 27.428 25.943 17.715-10.857 38.286-16.8 59.772-16.8h13.485a27.363 27.363 0 0 1 27.429 27.429 27.363 27.363 0 0 1-27.429 27.428h-13.485c-21.486 0-41.257 11.429-51.886 30.058-5.143 9.028-7.886 19.2-7.886 29.6v86.628c48.572 0 92.686-18.971 125.486-49.828 14.743-13.829 37.829-13.143 51.657 1.485 13.829 14.629 13.143 37.829-1.486 51.657C418.457 485.486 356.514 512 288.514 512c-141.371 0-256-114.629-256-256s114.629-256 256-256c68 0 129.943 26.514 175.657 69.829 14.743 13.828 15.315 37.028 1.486 51.657S428.63 136.8 414 122.97c-32.8-30.857-76.914-49.828-125.486-49.828"/></svg>