<svg xmlns="http://www.w3.org/2000/svg" viewBox="0 0 512 512"><!--! Font Awesome Free 7.0.1 by @fontawesome - https://fontawesome.com License - https://fontawesome.com/license/free (Icons: CC BY 4.0, Fonts: SIL OFL 1.1, Code: MIT License) Copyright 2025 Fonticons, Inc.--><path fill="currentColor" d="M256 30.118c6.212 0 12.141 2.54 16.376 7.058l135.53 143.06.47.47h73.506c16.66 0 30.118 13.459 30.118 30.118 0 13.647-9.035 25.129-21.459 28.894l-43.388 195.011c-6.118 27.577-30.588 47.153-58.824 47.153H123.576c-28.235 0-52.705-19.576-58.823-47.153L21.459 239.718C9.035 236.048 0 224.47 0 210.824c0-16.66 13.459-30.118 30.118-30.118h73.506l.47-.47 135.53-143.06c4.235-4.517 10.164-7.058 16.376-7.058m0 55.435-90.165 95.153h180.33zm-75.294 193.035A22.534 22.534 0 0 0 158.118 256a22.534 22.534 0 0 0-22.589 22.588V384a22.534 22.534 0 0 0 22.589 22.588A22.534 22.534 0 0 0 180.706 384zM256 256a22.534 22.534 0 0 0-22.588 22.588V384A22.534 22.534 0 0 0 256 406.588 22.534 22.534 0 0 0 278.588 384V278.588A22.534 22.534 0 0 0 256 256m120.47 22.588A22.534 22.534 0 0 0 353.883 256a22.534 22.534 0 0 0-22.588 22.588V384a22.534 22.534 0 0 0 22.588 22.588A22.534 22.534 0 0 0 376.471 384z"/></svg>