<svg xmlns="http://www.w3.org/2000/svg" viewBox="0 0 512 512"><!--! Font Awesome Free 7.0.1 by @fontawesome - https://fontawesome.com License - https://fontawesome.com/license/free (Icons: CC BY 4.0, Fonts: SIL OFL 1.1, Code: MIT License) Copyright 2025 Fonticons, Inc.--><path fill="currentColor" d="M258.844 373.067c27.734-16.711 57.512-32.356 89.867-32.356h49.511c4.09 0 8.09-.178 12.09-.622l75.821 108.355c3.556 5.067 10.045 7.29 15.911 5.423 5.867-1.867 9.956-7.378 9.956-13.6V226.933c0-62.844-50.933-113.777-113.778-113.777h-49.51c-32.356 0-62.134-15.645-89.868-32.356-25.688-15.556-55.91-24.533-88.177-24.533C76.444 56.267 0 132.71 0 226.933c0 63.2 34.311 118.311 85.333 147.823v58.4a21.28 21.28 0 0 0 21.334 21.333A21.28 21.28 0 0 0 128 433.156v-40.89a172.6 172.6 0 0 0 42.667 5.334c4.8 0 9.51-.178 14.222-.622v36.178a21.28 21.28 0 0 0 21.333 21.333 21.28 21.28 0 0 0 21.334-21.333V387.91c11.022-3.911 21.51-8.889 31.288-14.844M398.222 205.6a21.28 21.28 0 0 1 21.334 21.333 21.28 21.28 0 0 1-21.334 21.334 21.28 21.28 0 0 1-21.333-21.334 21.28 21.28 0 0 1 21.333-21.333"/></svg>