<svg xmlns="http://www.w3.org/2000/svg" viewBox="0 0 512 512"><!--! Font Awesome Free 7.0.1 by @fontawesome - https://fontawesome.com License - https://fontawesome.com/license/free (Icons: CC BY 4.0, Fonts: SIL OFL 1.1, Code: MIT License) Copyright 2025 Fonticons, Inc.--><path fill="currentColor" d="M384 512H64c-17.7 0-32-14.3-32-32s14.3-32 32-32v-66.7c-18.6-6.6-32-24.4-32-45.3V48C32 21.5 53.5 0 80 0h304c53 0 96 43 96 96v320c0 53-43 96-96 96m32-96c0-17.7-14.3-32-32-32H128v64h256c17.7 0 32-14.3 32-32M145.9 229c-1.2 2-1.9 4.2-1.9 6.6 0 6.9 5.6 12.5 12.5 12.5h56.9l30.5 49.2c2.6 4.2 7.2 6.8 12.2 6.8s9.6-2.6 12.2-6.8l30.5-49.2h56.9c6.9 0 12.5-5.6 12.5-12.5 0-2.3-.6-4.6-1.9-6.6l-27.8-45 27.8-45c1.2-2 1.9-4.2 1.9-6.6 0-6.9-5.6-12.5-12.5-12.5h-56.9l-30.5-49.2C265.6 66.6 261 64 256 64s-9.6 2.6-12.2 6.8L213.3 120h-56.9c-6.9 0-12.5 5.6-12.5 12.5 0 2.3.6 4.6 1.9 6.6l27.8 45-27.8 45z"/></svg>