<svg xmlns="http://www.w3.org/2000/svg" viewBox="0 0 512 512"><!--! Font Awesome Free 7.0.1 by @fontawesome - https://fontawesome.com License - https://fontawesome.com/license/free (Icons: CC BY 4.0, Fonts: SIL OFL 1.1, Code: MIT License) Copyright 2025 Fonticons, Inc.--><path fill="currentColor" d="M32.044 31.994V45.59c0 17.097 1.7 33.993 4.999 50.39h352.73c3.2-6.898 7.5-13.297 12.998-18.796l38.593-38.593c4.199-4.199 6.599-9.998 6.599-15.996C447.963 10.098 437.864 0 425.367 0H64.037C46.341 0 32.044 14.297 32.044 31.994m355.63 111.978H51.74c12.397 29.694 30.194 56.789 52.69 79.984h339.533l-47.19-62.887c-3.9-5.2-7-10.998-9.199-17.097zM274.596 334.635c8.199 4.799 15.797 10.698 22.496 17.296h179.865c2-9.798 3-19.896 3-30.094 0-17.097-2.9-33.993-8.6-49.89h-303.34zm51.69 65.287c5.3 16.997 6.499 35.193 3.6 52.99l-5.9 35.693c-1.999 12.197 7.4 23.395 19.797 23.395 5.299 0 10.398-2.1 14.197-5.899l78.185-78.185q12.747-12.747 21.896-27.894H326.286z"/></svg>