<svg xmlns="http://www.w3.org/2000/svg" viewBox="0 0 512 512"><!--! Font Awesome Free 7.0.1 by @fontawesome - https://fontawesome.com License - https://fontawesome.com/license/free (Icons: CC BY 4.0, Fonts: SIL OFL 1.1, Code: MIT License) Copyright 2025 Fonticons, Inc.--><path fill="currentColor" d="M512 290.68v106.16c0 21.2-17.2 38.4-38.4 38.4H51.2c-14.16 0-25.6-11.44-25.6-25.6s11.44-25.6 25.6-25.6h307.2v-38.4H76.8c-14.16 0-25.6-11.44-25.6-25.6v-93.28l-24.16-4.32C11.36 219.64 0 206.04 0 190.12c0-7.12 2.32-14 6.56-19.68l28.48-38c26.24-35.04 67.52-55.68 111.28-55.68 21.6 0 42.88 5.04 62.24 14.72l260.96 130.56C495.6 235 512 261.64 512 290.68m-153.6 3.76v-12.8l-256-45.68v58.48z"/></svg>