<svg xmlns="http://www.w3.org/2000/svg" viewBox="0 0 512 512"><!--! Font Awesome Free 7.0.1 by @fontawesome - https://fontawesome.com License - https://fontawesome.com/license/free (Icons: CC BY 4.0, Fonts: SIL OFL 1.1, Code: MIT License) Copyright 2025 Fonticons, Inc.--><path fill="currentColor" d="M177.778 56.889h99.555c3.911 0 7.111 3.2 7.111 7.111v35.556H170.667V64c0-3.911 3.2-7.111 7.11-7.111M128 64v35.556H56.889C25.51 99.556 0 125.066 0 156.444v85.334h271.111C301.156 215.2 340.711 199.11 384 199.11c25.422 0 49.422 5.511 71.111 15.467v-58.134c0-31.377-25.511-56.888-56.889-56.888h-71.11V64c0-27.467-22.312-49.778-49.779-49.778h-99.555C150.31 14.222 128 36.533 128 64m71.111 263.111c-15.733 0-28.444-12.711-28.444-28.444v-14.223H0V384c0 31.378 25.511 56.889 56.889 56.889H228.8c-9.956-21.689-15.467-45.689-15.467-71.111a172.6 172.6 0 0 1 5.334-42.667zM512 369.778c0-70.667-57.333-128-128-128s-128 57.333-128 128c0 70.666 57.333 128 128 128s128-57.334 128-128m-128-71.111c7.822 0 14.222 6.4 14.222 14.222v42.667h28.445c7.822 0 14.222 6.4 14.222 14.222S434.489 384 426.667 384H384c-7.822 0-14.222-6.4-14.222-14.222v-56.89c0-7.821 6.4-14.221 14.222-14.221"/></svg>