<svg xmlns="http://www.w3.org/2000/svg" viewBox="0 0 512 512"><!--! Font Awesome Free 7.0.1 by @fontawesome - https://fontawesome.com License - https://fontawesome.com/license/free (Icons: CC BY 4.0, Fonts: SIL OFL 1.1, Code: MIT License) Copyright 2025 Fonticons, Inc.--><path fill="currentColor" d="M128 455.111c-70.667 0-128-57.333-128-128 0-56.355 36.444-104.178 87.022-121.333-1.155-6.845-1.689-13.778-1.689-20.89 0-70.666 57.334-128 128-128 49.245 0 92 27.823 113.423 68.534a85.16 85.16 0 0 1 43.022-11.644c47.11 0 85.333 38.222 85.333 85.333 0 13.956-3.378 27.2-9.333 38.845C484.888 256 512 295.466 512 341.333c0 62.845-50.933 113.778-113.778 113.778zm207.111-148.444c8.356-8.356 8.356-21.867 0-30.134s-21.867-8.355-30.133 0l-27.556 27.556v-90.756A21.28 21.28 0 0 0 256.09 192a21.28 21.28 0 0 0-21.333 21.333v90.756L207.2 276.533c-8.356-8.355-21.867-8.355-30.133 0-8.267 8.356-8.356 21.867 0 30.134l64 64c8.355 8.355 21.866 8.355 30.133 0l64-64z"/></svg>