<svg xmlns="http://www.w3.org/2000/svg" viewBox="0 0 512 512"><!--! Font Awesome Free 7.0.1 by @fontawesome - https://fontawesome.com License - https://fontawesome.com/license/free (Icons: CC BY 4.0, Fonts: SIL OFL 1.1, Code: MIT License) Copyright 2025 Fonticons, Inc.--><path fill="currentColor" d="m282.183 150.99-41.43-10.378a12.68 12.68 0 0 1-9.579-11.015c-.558-5.349 2.235-10.458 6.945-12.852l32.569-16.285-34.565-25.943a12.77 12.77 0 0 1-4.47-14.289c1.756-5.268 6.706-8.62 12.214-8.62h127.72c24.107 0 46.858 11.334 61.306 30.652l45.98 61.306c4.949 6.625 7.663 14.688 7.663 22.99 0 21.153-17.163 38.316-38.316 38.316h-17.163c-13.57 0-26.582-5.348-36.16-14.928l-10.618-10.616h-25.544v17.162c0 19.797 10.218 38.237 26.981 48.773l85.094 53.164c25.624 16.045 41.19 44.064 41.19 74.318 0 48.374-39.194 87.648-87.648 87.648l-397.371-.08c-2.634 0-5.268-.32-7.663-1.117-7.344-2.236-13.331-7.664-16.285-14.848-1.037-2.634-1.756-5.508-1.836-8.541-.16-2.954.24-5.828 1.038-8.542 2.235-7.344 7.663-13.33 14.848-16.284 2.394-.958 4.949-1.597 7.583-1.756l322.415-28.737c6.625-.56 11.734-6.147 11.734-12.852 0-3.433-1.357-6.706-3.752-9.1l-35.442-35.443c-23.948-23.947-37.438-56.436-37.438-90.282zm127.72-41.67v-.479zm-1.037 5.908-37.04-9.26a20.5 20.5 0 0 0-.239 3.113 19.11 19.11 0 0 0 19.158 19.158c8.462 0 15.566-5.428 18.12-13.011m-303.177 29.376c13.011-11.575 32.25-12.932 46.698-3.273l104.252 69.448v21.952c0 26.183 6.705 51.727 19.158 74.238H90.602c-5.348 0-10.138-3.353-11.974-8.302-1.836-4.95-.4-10.617 3.672-14.13l55.399-47.496-121.814 18.76c-5.588.878-11.095-2.076-13.49-7.185s-1.118-11.175 3.113-15.007z"/></svg>