<svg xmlns="http://www.w3.org/2000/svg" viewBox="0 0 512 512"><!--! Font Awesome Free 7.0.1 by @fontawesome - https://fontawesome.com License - https://fontawesome.com/license/free (Icons: CC BY 4.0, Fonts: SIL OFL 1.1, Code: MIT License) Copyright 2025 Fonticons, Inc.--><path fill="currentColor" d="M404.428 28.774c-13.352-9.498-31.5-4.326-39.68 9.873l-68.08 117.821c29.432 14.857 49.649 45.417 49.649 80.585h135.405c16.643 0 30.278-13.54 28.303-29.996-8.556-73.439-48.332-137.38-105.597-178.283m-257.175 9.779c-8.18-14.199-26.329-19.37-39.681-9.78-57.265 40.81-97.04 104.751-105.597 178.284C0 223.512 13.729 237.053 30.278 237.053h135.405c0-35.262 20.217-65.728 49.648-80.585zm-8.839 391.922c-8.18 14.199-3.573 32.44 11.284 39.305 32.346 14.763 68.36 23.038 106.255 23.038s73.909-8.275 106.255-23.038c14.857-6.77 19.465-25.106 11.284-39.305L305.507 312.56a90 90 0 0 1-49.46 14.763 90 90 0 0 1-49.46-14.763zm117.539-148.287c24.918-.188 44.947-20.5 44.853-45.417-.188-25.013-20.593-45.041-45.511-44.853s-44.947 20.499-44.76 45.51c.095 24.92 20.5 44.948 45.418 44.76"/></svg>