<svg xmlns="http://www.w3.org/2000/svg" viewBox="0 0 512 512"><!--! Font Awesome Free 7.0.1 by @fontawesome - https://fontawesome.com License - https://fontawesome.com/license/free (Icons: CC BY 4.0, Fonts: SIL OFL 1.1, Code: MIT License) Copyright 2025 Fonticons, Inc.--><path fill="currentColor" d="M204.784 25.568a19.16 19.16 0 0 1 19.206 19.206v8.803a75 75 0 0 1 19.846 8.242l4.962-5.041c7.522-7.523 19.686-7.523 27.128 0s7.523 19.686 0 27.128l-5.041 5.042c3.68 6.242 6.402 12.964 8.242 19.846h8.803A19.16 19.16 0 0 1 307.136 128a19.16 19.16 0 0 1-19.206 19.206h-8.803a75 75 0 0 1-8.242 19.846l5.121 4.962c7.523 7.522 7.523 19.686 0 27.128s-19.686 7.523-27.128 0l-3.281-3.28-24.088 24.087 3.281 3.28c7.523 7.523 7.523 19.687 0 27.13s-19.686 7.522-27.128 0l-3.281-3.282-24.088 24.088 3.281 3.28c7.523 7.523 7.523 19.687 0 27.13s-19.686 7.522-27.128 0l-5.042-5.042c-6.242 3.68-12.964 6.402-19.846 8.242v8.803a19.16 19.16 0 0 1-19.206 19.206 19.16 19.16 0 0 1-19.206-19.206v-8.803a75 75 0 0 1-19.846-8.242l-4.962 5.121c-7.522 7.523-19.686 7.523-27.128 0s-7.523-19.686 0-27.128l5.041-5.042c-3.68-6.242-6.402-12.964-8.242-19.846h-8.803A19.16 19.16 0 0 1 0 230.432a19.16 19.16 0 0 1 19.206-19.206h8.803a75 75 0 0 1 8.242-19.846l-5.121-4.962c-7.523-7.522-7.523-19.686 0-27.128s19.686-7.523 27.128 0l3.281 3.28 24.088-24.087-3.281-3.28c-7.523-7.523-7.523-19.687 0-27.13s19.686-7.522 27.128 0l3.281 3.282 24.088-24.088-3.281-3.28c-7.523-7.523-7.523-19.687 0-27.13s19.686-7.522 27.208-.08l5.042 5.042c6.242-3.68 12.964-6.402 19.846-8.242v-8.803a19.16 19.16 0 0 1 19.206-19.206zM102.352 256.04c14.164 0 25.608-11.444 25.608-25.608s-11.444-25.608-25.608-25.608-25.608 11.444-25.608 25.608 11.444 25.608 25.608 25.608m89.628-89.628c0-14.164-11.444-25.608-25.608-25.608s-25.608 11.444-25.608 25.608 11.444 25.608 25.608 25.608 25.608-11.444 25.608-25.608m236.874 32.01v8.803a75 75 0 0 1 19.846 8.242l4.962-5.041c7.522-7.523 19.686-7.523 27.128 0s7.523 19.686 0 27.128l-5.041 5.042c3.68 6.242 6.402 12.964 8.242 19.846h8.803A19.16 19.16 0 0 1 512 281.648a19.16 19.16 0 0 1-19.206 19.206h-8.803a75 75 0 0 1-8.242 19.846l5.121 4.962c7.523 7.522 7.523 19.686 0 27.128s-19.686 7.523-27.128 0l-3.281-3.28-24.088 24.087 3.281 3.28c7.523 7.523 7.523 19.687 0 27.13s-19.686 7.522-27.128 0l-3.281-3.282-24.088 24.088 3.281 3.28c7.523 7.523 7.523 19.687 0 27.13s-19.686 7.522-27.128 0l-5.042-5.042c-6.242 3.68-12.964 6.402-19.846 8.242v8.803a19.16 19.16 0 0 1-19.206 19.206 19.16 19.16 0 0 1-19.206-19.206v-8.803a75 75 0 0 1-19.846-8.242l-4.962 5.121c-7.522 7.523-19.686 7.523-27.128 0s-7.523-19.686 0-27.128l5.041-5.042c-3.68-6.242-6.402-12.964-8.242-19.846h-8.803a19.16 19.16 0 0 1-19.206-19.206 19.16 19.16 0 0 1 19.206-19.206h8.803a75 75 0 0 1 8.242-19.846l-5.121-4.962c-7.523-7.522-7.523-19.686 0-27.128s19.686-7.523 27.128 0l3.281 3.28 24.088-24.087-3.281-3.28c-7.523-7.523-7.523-19.687 0-27.13s19.686-7.522 27.128 0l3.281 3.282 24.088-24.088-3.281-3.28c-7.523-7.523-7.523-19.687 0-27.13s19.686-7.522 27.128 0l5.042 5.042c6.242-3.68 12.964-6.402 19.846-8.242v-8.803a19.16 19.16 0 0 1 19.206-19.206 19.16 19.16 0 0 1 19.206 19.206zm-70.422 160.05c0-14.164-11.444-25.608-25.608-25.608s-25.608 11.444-25.608 25.608 11.444 25.608 25.608 25.608 25.608-11.444 25.608-25.608"/></svg>