<svg xmlns="http://www.w3.org/2000/svg" viewBox="0 0 512 512"><!--! Font Awesome Free 7.0.1 by @fontawesome - https://fontawesome.com License - https://fontawesome.com/license/free (Icons: CC BY 4.0, Fonts: SIL OFL 1.1, Code: MIT License) Copyright 2025 Fonticons, Inc.--><path fill="currentColor" d="M406.118 192.047c8.282-7.906 21.364-8.376 30.306-.753 8.94 7.624 10.352 20.612 3.858 30.024l-1.411 1.788-21.647 25.13c25.129 12.705 43.576 36.8 48.376 65.505h23.812A22.534 22.534 0 0 1 512 336.33a22.534 22.534 0 0 1-22.588 22.589h-22.588v30.117h22.588A22.534 22.534 0 0 1 512 411.624a22.534 22.534 0 0 1-22.588 22.588H465.6c-7.153 42.73-44.33 75.294-89.13 75.294s-81.882-32.565-89.129-75.294l-23.812.094a22.534 22.534 0 0 1-22.588-22.588 22.534 22.534 0 0 1 22.588-22.589h22.589v-30.117h-22.589a22.534 22.534 0 0 1-22.588-22.588 22.534 22.534 0 0 1 22.588-22.589h23.812c4.8-28.706 23.247-52.8 48.377-65.506L314.165 223.2c-8.094-9.506-7.06-23.718 2.447-31.812s23.717-7.059 31.812 2.447l28.047 32.753 28.047-32.753 1.6-1.694zM165.176 11.341c8.283-7.906 21.365-8.376 30.306-.753 8.942 7.624 10.353 20.612 3.86 30.024l-1.413 1.788-21.647 25.13c25.13 12.8 43.483 36.894 48.377 65.6h23.812a22.534 22.534 0 0 1 22.588 22.588 22.534 22.534 0 0 1-22.588 22.588h-22.589v30.118h22.589a22.534 22.534 0 0 1 22.588 22.588A22.534 22.534 0 0 1 248.47 253.6h-23.812c-7.153 42.73-44.33 75.294-89.13 75.294S53.647 296.33 46.4 253.6H22.588A22.534 22.534 0 0 1 0 231.012a22.534 22.534 0 0 1 22.588-22.588h22.588v-30.118H22.588A22.534 22.534 0 0 1 0 155.718a22.534 22.534 0 0 1 22.588-22.589H46.4c4.894-28.705 23.247-52.8 48.376-65.505L73.224 42.4c-8.095-9.412-7.06-23.718 2.447-31.812 9.505-8.094 23.717-7.059 31.811 2.447l28.047 32.753 28.047-32.753z"/></svg>