<svg xmlns="http://www.w3.org/2000/svg" viewBox="0 0 512 512"><!--! Font Awesome Free 7.0.1 by @fontawesome - https://fontawesome.com License - https://fontawesome.com/license/free (Icons: CC BY 4.0, Fonts: SIL OFL 1.1, Code: MIT License) Copyright 2025 Fonticons, Inc.--><path fill="currentColor" d="M231.896 0C109.17 11.45 11.45 109.17 0 231.896c16.27-.1 32.138-1.807 47.404-5.021 13.056-2.712 25.81 5.524 28.522 18.58s-5.523 25.81-18.58 28.522c-18.479 3.917-37.762 6.026-57.346 6.127C11.45 402.83 109.17 500.55 231.896 512c.1-19.584 2.21-38.867 6.127-57.346 2.711-13.057 15.567-21.392 28.522-18.58 12.956 2.812 21.392 15.567 18.58 28.522-3.214 15.266-4.921 31.134-5.021 47.404C402.83 500.55 500.55 402.83 512 280.104c-16.27.1-32.138 1.807-47.404 5.021-13.056 2.712-25.81-5.524-28.522-18.58s5.523-25.81 18.58-28.522c18.479-3.917 37.762-6.026 57.346-6.127C500.55 109.17 402.83 11.45 280.104 0c-.1 19.584-2.21 38.867-6.127 57.346-2.711 13.057-15.567 21.392-28.522 18.58-12.956-2.812-21.392-15.567-18.58-28.522 3.214-15.266 4.921-31.134 5.021-47.404m2.813 152.053c-21.493 33.042-49.714 61.163-82.656 82.656-11.148 7.23-26.112 4.117-33.343-7.03-7.231-11.149-4.118-26.113 7.03-33.344 27.318-17.776 50.718-41.177 68.595-68.595 7.231-11.148 22.195-14.361 33.343-7.03s14.362 22.195 7.03 33.343m158.58 132.269c7.232 11.148 4.119 26.112-7.03 33.343-27.317 17.776-50.717 41.177-68.594 68.595-7.231 11.148-22.195 14.361-33.343 7.03s-14.362-22.195-7.03-33.343c21.492-33.042 49.713-61.163 82.655-82.656 11.148-7.23 26.112-4.117 33.343 7.03"/></svg>