<svg xmlns="http://www.w3.org/2000/svg" viewBox="0 0 512 512"><!--! Font Awesome Free 7.0.1 by @fontawesome - https://fontawesome.com License - https://fontawesome.com/license/free (Icons: CC BY 4.0, Fonts: SIL OFL 1.1, Code: MIT License) Copyright 2025 Fonticons, Inc.--><path fill="currentColor" d="M111.276 448.385c-17.593 0-31.807 14.214-31.807 31.808 0 17.593 14.214 31.807 31.807 31.807H206.7c52.68 0 95.422-42.741 95.422-95.422V111.724l72.958 72.958c12.425 12.425 32.603 12.425 45.027 0 12.425-12.425 12.425-32.603 0-45.028l-127.23-127.23C280.453 0 260.275 0 247.85 12.425l-127.23 127.23c-12.424 12.425-12.424 32.603 0 45.028 12.425 12.425 32.603 12.425 45.028 0l72.859-72.958v304.854c0 17.593-14.214 31.807-31.807 31.807z"/></svg>