<svg xmlns="http://www.w3.org/2000/svg" viewBox="0 0 512 512"><!--! Font Awesome Free 7.0.1 by @fontawesome - https://fontawesome.com License - https://fontawesome.com/license/free (Icons: CC BY 4.0, Fonts: SIL OFL 1.1, Code: MIT License) Copyright 2025 Fonticons, Inc.--><path fill="currentColor" d="M214.163 17.73h-71.015c-27.364 0-51.284 18.708-57.8 45.235L6.982 379.323c-6.981 28.108 14.333 55.38 43.372 55.38H214.07v-59.568c0-16.474 13.31-29.784 29.784-29.784a29.6 29.6 0 0 1 15.543 4.375 88.76 88.76 0 0 1 29.225-56.124v-22.71c0-65.803 53.332-119.135 119.135-119.135 5.77 0 11.541.372 17.126 1.21l-22.245-90.002c-6.608-26.527-30.435-45.234-57.892-45.234h-71.108v59.567c0 16.474-13.31 29.784-29.784 29.784s-29.784-13.31-29.784-29.784V17.73zm59.568 178.703V256c0 16.474-13.31 29.784-29.784 29.784s-29.784-13.31-29.784-29.784v-59.567c0-16.474 13.31-29.784 29.784-29.784s29.784 13.31 29.784 29.784m163.81 74.552v44.582h-59.568v-44.582c0-16.474 13.31-29.784 29.784-29.784s29.784 13.31 29.784 29.784m-134.027 89.258v89.35c0 24.665 20.011 44.676 44.676 44.676h119.134c24.665 0 44.676-20.01 44.676-44.675v-89.351c0-19.453-12.472-36.02-29.784-42.163v-47.095c0-41.139-33.32-74.46-74.459-74.46s-74.46 33.321-74.46 74.46v47.095c-17.31 6.143-29.783 22.71-29.783 42.163"/></svg>