<svg xmlns="http://www.w3.org/2000/svg" viewBox="0 0 512 512"><!--! Font Awesome Free 7.0.1 by @fontawesome - https://fontawesome.com License - https://fontawesome.com/license/free (Icons: CC BY 4.0, Fonts: SIL OFL 1.1, Code: MIT License) Copyright 2025 Fonticons, Inc.--><path fill="currentColor" d="M73.143 0C32.8 0 0 32.8 0 73.143v365.714C0 479.2 32.8 512 73.143 512h365.714C479.2 512 512 479.2 512 438.857V73.143C512 32.8 479.2 0 438.857 0zM256 146.286c7.657 0 14.857 3.2 20.114 8.8l118.857 128c7.429 8 9.372 19.657 5.029 29.6s-14.286 16.457-25.143 16.457H137.143c-10.857 0-20.8-6.514-25.143-16.457s-2.4-21.6 5.029-29.6l118.857-128c5.143-5.6 12.457-8.8 20.114-8.8"/></svg>