<svg xmlns="http://www.w3.org/2000/svg" viewBox="0 0 512 512"><!--! Font Awesome Free 7.0.1 by @fontawesome - https://fontawesome.com License - https://fontawesome.com/license/free (Icons: CC BY 4.0, Fonts: SIL OFL 1.1, Code: MIT License) Copyright 2025 Fonticons, Inc.--><path fill="currentColor" d="M184.889 28.444C184.889 12.711 197.6 0 213.333 0h85.334C314.4 0 327.11 12.711 327.11 28.444c0 15.734-12.711 28.445-28.444 28.445v91.822c57.689 18.133 99.555 72 99.555 135.733v170.667c0 31.378-25.51 56.889-56.889 56.889H170.667c-31.378 0-56.89-25.511-56.89-56.889V284.444c0-63.644 41.867-117.6 99.556-135.733V56.89c-15.733 0-28.444-12.711-28.444-28.445M256 398.222c31.378 0 56.889-28.8 56.889-56.889 0-18.844-25.689-57.333-42.578-80.533-7.2-9.867-21.511-9.867-28.711 0-16.889 23.2-42.578 61.689-42.578 80.533 0 28.09 25.511 56.89 56.89 56.89z"/></svg>