<svg xmlns="http://www.w3.org/2000/svg" viewBox="0 0 512 512"><!--! Font Awesome Free 7.0.1 by @fontawesome - https://fontawesome.com License - https://fontawesome.com/license/free (Icons: CC BY 4.0, Fonts: SIL OFL 1.1, Code: MIT License) Copyright 2025 Fonticons, Inc.--><path fill="currentColor" d="M73.143 0C32.8 0 0 32.8 0 73.143v365.714C0 479.2 32.8 512 73.143 512h365.714C479.2 512 512 479.2 512 438.857V73.143C512 32.8 479.2 0 438.857 0zm81.143 154.286c10.743-10.743 28.114-10.743 38.743 0l62.857 62.857 62.857-62.857c10.743-10.743 28.114-10.743 38.743 0 10.628 10.743 10.743 28.114 0 38.743l-62.857 62.857 62.857 62.857c10.743 10.743 10.743 28.114 0 38.743-10.743 10.628-28.115 10.743-38.743 0l-62.857-62.857-62.857 62.857c-10.743 10.743-28.115 10.743-38.743 0s-10.743-28.115 0-38.743l62.857-62.857-62.857-62.857c-10.743-10.743-10.743-28.115 0-38.743"/></svg>