<svg xmlns="http://www.w3.org/2000/svg" viewBox="0 0 512 512"><!--! Font Awesome Free 7.0.1 by @fontawesome - https://fontawesome.com License - https://fontawesome.com/license/free (Icons: CC BY 4.0, Fonts: SIL OFL 1.1, Code: MIT License) Copyright 2025 Fonticons, Inc.--><path fill="currentColor" d="M438.857 512C479.2 512 512 479.2 512 438.857V73.143C512 32.8 479.2 0 438.857 0H73.143C32.8 0 0 32.8 0 73.143v365.714C0 479.2 32.8 512 73.143 512zM256 365.714c-7.657 0-14.857-3.2-20.114-8.8l-118.857-128c-7.429-8-9.372-19.657-5.029-29.6s14.286-16.457 25.143-16.457h237.714c10.857 0 20.8 6.514 25.143 16.457s2.4 21.6-5.029 29.6l-118.857 128c-5.143 5.6-12.457 8.8-20.114 8.8"/></svg>