<svg xmlns="http://www.w3.org/2000/svg" viewBox="0 0 512 512"><!--! Font Awesome Free 7.0.1 by @fontawesome - https://fontawesome.com License - https://fontawesome.com/license/free (Icons: CC BY 4.0, Fonts: SIL OFL 1.1, Code: MIT License) Copyright 2025 Fonticons, Inc.--><path fill="currentColor" d="M56.889 56.889C25.51 56.889 0 82.4 0 113.778v284.444c0 31.378 25.511 56.89 56.889 56.89H455.11c31.378 0 56.889-25.512 56.889-56.89V113.778c0-31.378-25.511-56.89-56.889-56.89zm199.111 64c27.467 0 49.778 22.311 49.778 49.778S283.467 220.444 256 220.444s-49.778-22.31-49.778-49.777 22.311-49.778 49.778-49.778M256 256c47.111 0 85.333 38.222 85.333 85.333v21.334A21.28 21.28 0 0 1 320 384H192a21.28 21.28 0 0 1-21.333-21.333v-21.334c0-47.11 38.222-85.333 85.333-85.333m85.333-56.889c0-23.555 19.111-42.667 42.667-42.667s42.667 19.112 42.667 42.667-19.111 42.667-42.667 42.667-42.667-19.111-42.667-42.667m-192 71.378C135.823 290.756 128 315.11 128 341.333v21.334c0 7.466 1.244 14.666 3.644 21.333h-41.6c-10.4 0-18.933-8.533-18.933-18.933v-9.511c0-44.712 34.4-81.423 78.222-85.067M380.356 384c2.4-6.667 3.644-13.867 3.644-21.333v-21.334c0-26.222-7.822-50.577-21.333-70.844 43.822 3.644 78.222 40.267 78.222 85.067v9.51c0 10.49-8.533 18.934-18.933 18.934zM85.333 199.111c0-23.555 19.111-42.667 42.667-42.667s42.667 19.112 42.667 42.667-19.111 42.667-42.667 42.667-42.667-19.111-42.667-42.667"/></svg>