<svg xmlns="http://www.w3.org/2000/svg" viewBox="0 0 512 512"><!--! Font Awesome Free 7.0.1 by @fontawesome - https://fontawesome.com License - https://fontawesome.com/license/free (Icons: CC BY 4.0, Fonts: SIL OFL 1.1, Code: MIT License) Copyright 2025 Fonticons, Inc.--><path fill="currentColor" d="M353.842 372.364c7.08-21.625 21.237-41.212 37.237-58.085 31.709-33.358 51.103-78.449 51.103-128.097C442.182 83.394 358.788 0 256 0S69.818 83.394 69.818 186.182c0 49.648 19.394 94.74 51.103 128.097 16 16.873 30.255 36.46 37.237 58.085h195.587zm-4.751 46.545H162.909v15.515c0 42.86 34.715 77.576 77.576 77.576h31.03c42.86 0 77.576-34.715 77.576-77.576zM248.242 108.606c-38.594 0-69.818 31.224-69.818 69.818a23.217 23.217 0 0 1-23.272 23.273 23.217 23.217 0 0 1-23.273-23.273c0-64.29 52.073-116.363 116.363-116.363a23.217 23.217 0 0 1 23.273 23.272 23.217 23.217 0 0 1-23.273 23.273"/></svg>