<svg xmlns="http://www.w3.org/2000/svg" viewBox="0 0 512 512"><!--! Font Awesome Free 7.0.1 by @fontawesome - https://fontawesome.com License - https://fontawesome.com/license/free (Icons: CC BY 4.0, Fonts: SIL OFL 1.1, Code: MIT License) Copyright 2025 Fonticons, Inc.--><path fill="currentColor" d="M399.944 52.446C399.944 23.506 423.451 0 452.39 0s52.446 23.507 52.446 52.446-23.507 52.445-52.446 52.445-52.446-23.507-52.446-52.445M12.877 281.8c5.713-11.05 19.293-15.265 30.344-9.552l185.245 96.181 58.346-81.665-76.796-86.348c-10.301-11.613-15.171-25.754-15.171-39.709l104.516 50.01 40.177 45.142c13.955 15.64 15.172 38.96 2.997 56.004l-60.312 84.475 120.156 62.373c12.737 6.649 27.909 6.743 40.833.28l14.235-7.117c11.145-5.526 24.63-1.03 30.156 10.02 5.526 11.052 1.03 24.631-10.02 30.157l-14.236 7.118c-25.754 12.83-56.098 12.643-81.665-.656L22.43 312.144c-10.958-5.712-15.266-19.292-9.553-30.343m93.934-235.35 16.858 8.149 8.147-16.296c3.746-7.399 12.737-10.395 20.136-6.743s10.395 12.737 6.743 20.135l-7.96 15.921 79.417 38.398.374-.187 71.27-31.655c29.314-13.018 63.59-.656 77.92 28.002l27.065 54.132 64.34 25.754c15.359 6.181 22.85 23.6 16.67 38.96-6.181 15.359-23.6 22.851-38.96 16.67l-69.678-27.909a45.32 45.32 0 0 1-23.506-21.633l-10.77-21.634c-15.36 8.803-24.257 13.86-26.692 15.265l-7.117-3.465-173.82-83.913-8.616 17.139c-3.746 7.398-12.737 10.395-20.135 6.743-7.399-3.653-10.396-12.737-6.743-20.136l8.429-16.764-16.483-7.96c-7.399-3.559-10.49-12.55-6.93-20.042 3.558-7.492 12.549-10.583 20.041-6.93"/></svg>