<svg xmlns="http://www.w3.org/2000/svg" viewBox="0 0 512 512"><!--! Font Awesome Free 7.0.1 by @fontawesome - https://fontawesome.com License - https://fontawesome.com/license/free (Icons: CC BY 4.0, Fonts: SIL OFL 1.1, Code: MIT License) Copyright 2025 Fonticons, Inc.--><path fill="currentColor" d="M473.741 8.287c8.287-8.287 21.686-8.287 29.884 0 8.199 8.286 8.287 21.685 0 29.884L38.26 503.713c-8.287 8.287-21.686 8.287-29.884 0-8.199-8.286-8.287-21.685 0-29.884l22.038-22.038V57.565c0-13.223 9.256-24.948 22.391-26.27 6.524-.617 13.135-.97 19.923-.97 99.35 0 181.598 73.433 195.438 168.992.353 2.644 1.499 5.2 3.174 7.317l1.94 2.292L473.828 8.375zm-353.675 473.3L256 345.653v51.306c0 46.721-37.906 84.628-84.628 84.628zm37.201-253.885c15.604 0 28.21-12.606 28.21-28.209s-12.606-28.21-28.21-28.21c-15.603 0-28.21 12.607-28.21 28.21s12.607 28.21 28.21 28.21m296.199 35.262a21.106 21.106 0 0 1 21.157 21.157 21.106 21.106 0 0 1-21.157 21.157 21.106 21.106 0 0 1-21.157-21.157 21.106 21.106 0 0 1 21.157-21.157m-77.576 63.471a21.106 21.106 0 0 1 21.157-21.157 21.106 21.106 0 0 1 21.157 21.157 21.106 21.106 0 0 1-21.157 21.157 21.106 21.106 0 0 1-21.157-21.157M319.47 368.75a21.106 21.106 0 0 1 21.157-21.157 21.106 21.106 0 0 1 21.157 21.157 21.106 21.106 0 0 1-21.157 21.157 21.106 21.106 0 0 1-21.157-21.157m112.838 0a21.106 21.106 0 0 1 21.157-21.157 21.106 21.106 0 0 1 21.157 21.157 21.106 21.106 0 0 1-21.157 21.157 21.106 21.106 0 0 1-21.157-21.157m21.157 63.471a21.106 21.106 0 0 1 21.157 21.157 21.106 21.106 0 0 1-21.157 21.157 21.106 21.106 0 0 1-21.157-21.157 21.106 21.106 0 0 1 21.157-21.157m-77.576-21.157a21.106 21.106 0 0 1 21.157-21.157 21.106 21.106 0 0 1 21.157 21.157 21.106 21.106 0 0 1-21.157 21.157 21.106 21.106 0 0 1-21.157-21.157"/></svg>