<svg xmlns="http://www.w3.org/2000/svg" viewBox="0 0 512 512"><!--! Font Awesome Free 7.0.1 by @fontawesome - https://fontawesome.com License - https://fontawesome.com/license/free (Icons: CC BY 4.0, Fonts: SIL OFL 1.1, Code: MIT License) Copyright 2025 Fonticons, Inc.--><path fill="currentColor" d="M128 0C75 0 32 43 32 96v288c0 29.8 20.4 54.9 48 62v34c0 17.7 14.3 32 32 32h16c17.7 0 32-14.3 32-32v-32h192v32c0 17.7 14.3 32 32 32h16c17.7 0 32-14.3 32-32v-34c27.6-7.1 48-32.2 48-62V96c0-53-43-96-96-96zM96 176c0-17.7 14.3-32 32-32h104v112H128c-17.7 0-32-14.3-32-32zm184 80V144h104c17.7 0 32 14.3 32 32v48c0 17.7-14.3 32-32 32zm-152 64c17.7 0 32 14.3 32 32s-14.3 32-32 32-32-14.3-32-32 14.3-32 32-32m256 0c17.7 0 32 14.3 32 32s-14.3 32-32 32-32-14.3-32-32 14.3-32 32-32M184 72c0-13.3 10.7-24 24-24h96c13.3 0 24 10.7 24 24s-10.7 24-24 24h-96c-13.3 0-24-10.7-24-24"/></svg>