<svg xmlns="http://www.w3.org/2000/svg" viewBox="0 0 512 512"><!--! Font Awesome Free 7.0.1 by @fontawesome - https://fontawesome.com License - https://fontawesome.com/license/free (Icons: CC BY 4.0, Fonts: SIL OFL 1.1, Code: MIT License) Copyright 2025 Fonticons, Inc.--><path fill="currentColor" d="M340.669 22.78v60.75a22.726 22.726 0 0 1-22.781 22.78 22.726 22.726 0 0 1-22.78-22.78V22.78A22.726 22.726 0 0 1 317.887 0a22.726 22.726 0 0 1 22.78 22.78m-117.701 2.564 30.374 45.561c7.024 10.442 4.177 24.585-6.36 31.609s-24.584 4.176-31.608-6.36L185 50.593c-7.024-10.442-4.177-24.585 6.36-31.609 10.535-7.024 24.584-4.082 31.608 6.36m-80.682 102.798c8.922-8.922 23.35-8.922 32.177 0L291.975 245.56c9.587 9.587 25.913 2.752 25.913-10.726v-37.399c0-16.8 13.574-30.374 30.375-30.374 16.8 0 30.374 13.573 30.374 30.374v145.798c0 54.2-28.476 104.412-74.892 132.319-60.75 36.449-138.394 26.862-188.417-23.16l-94.54-94.542c-8.923-8.922-8.923-23.35 0-32.178s23.35-8.922 32.178 0l50.307 50.308c5.79 5.79 15.188 5.79 20.978 0s5.79-15.187 0-20.977l-88.276-88.276c-8.923-8.923-8.923-23.35 0-32.178s23.35-8.922 32.178 0l88.276 88.276c5.79 5.79 15.187 5.79 20.977 0s5.79-15.187 0-20.978L66.349 190.79c-8.922-8.923-8.922-23.35 0-32.178s23.35-8.923 32.178 0l111.057 111.057c5.79 5.79 15.187 5.79 20.977 0s5.79-15.188 0-20.978l-88.275-88.276c-8.923-8.922-8.923-23.35 0-32.178zm282.957 347.314c-22.97 13.763-48.315 20.977-73.753 21.926 45.656-37.588 72.709-93.97 72.709-154.15v-93.117c7.783-.095 15.187-6.075 15.187-15.187v-37.399c0-16.8 13.574-30.374 30.374-30.374 16.801 0 30.375 13.573 30.375 30.374v145.798c0 54.2-28.476 104.412-74.892 132.319zm19.174-456.472c10.441 7.024 13.289 21.167 6.36 31.609l-30.375 45.561c-7.024 10.441-21.167 13.29-31.609 6.36-10.44-6.93-13.288-21.167-6.36-31.609l30.375-45.561c7.024-10.442 21.168-13.29 31.609-6.36"/></svg>