<svg xmlns="http://www.w3.org/2000/svg" viewBox="0 0 512 512"><!--! Font Awesome Free 7.0.1 by @fontawesome - https://fontawesome.com License - https://fontawesome.com/license/free (Icons: CC BY 4.0, Fonts: SIL OFL 1.1, Code: MIT License) Copyright 2025 Fonticons, Inc.--><path fill="currentColor" d="M247.23 110.418c0 14.645-11.832 26.477-26.478 26.477-14.645 0-26.477-11.832-26.477-26.477 0-14.646 11.832-26.477 26.477-26.477 14.646 0 26.477 11.831 26.477 26.477m-26.478-79.432c-43.852 0-79.43 35.579-79.43 79.432 0 34.585 22.091 64.041 52.953 74.88v213.388c-52.044-11.831-91.18-57.67-92.587-112.94l13.322 11.666c8.274 7.198 20.768 6.37 28.049-1.903s6.37-20.768-1.903-28.05l-52.954-46.334c-7.447-6.537-18.7-6.537-26.146 0L9.1 267.46C.827 274.658 0 287.235 7.198 295.509s19.775 9.101 28.05 1.903l13.404-11.75c1.737 93.58 78.107 168.875 172.1 168.875 13.735 0 27.057-1.573 39.881-4.634-16.796-25.236-26.642-55.436-26.642-88.036 0-22.588 4.716-44.101 13.238-63.628V185.215c30.863-10.922 52.955-40.295 52.955-74.88 0-43.853-35.579-79.431-79.432-79.431zm172.101 450.11C458.633 481.096 512 427.73 512 361.95c0-65.78-53.368-119.147-119.147-119.147S273.707 296.17 273.707 361.95s53.367 119.146 119.146 119.146m49.066-149.512-30.366 30.366 30.366 30.365c5.13 5.13 5.13 13.57 0 18.7s-13.57 5.13-18.7 0l-30.366-30.366-30.366 30.366c-5.13 5.13-13.57 5.13-18.699 0s-5.13-13.57 0-18.7l30.366-30.365-30.366-30.366c-5.13-5.13-5.13-13.57 0-18.7s13.57-5.13 18.7 0l30.365 30.366 30.366-30.366c5.13-5.13 13.57-5.13 18.7 0s5.13 13.57 0 18.7"/></svg>