<svg xmlns="http://www.w3.org/2000/svg" viewBox="0 0 512 512"><!--! Font Awesome Free 7.0.1 by @fontawesome - https://fontawesome.com License - https://fontawesome.com/license/free (Icons: CC BY 4.0, Fonts: SIL OFL 1.1, Code: MIT License) Copyright 2025 Fonticons, Inc.--><path fill="currentColor" d="M0 36.571C0 16.343 16.343 0 36.571 0 299.2 0 512 212.8 512 475.429 512 495.657 495.657 512 475.429 512c-20.229 0-36.572-16.343-36.572-36.571 0-222.172-180.114-402.286-402.286-402.286C16.343 73.143 0 56.8 0 36.57m0 402.286c0-40.343 32.8-73.143 73.143-73.143s73.143 32.8 73.143 73.143S113.486 512 73.143 512 0 479.2 0 438.857m36.571-292.571c181.829 0 329.143 147.314 329.143 329.143 0 20.228-16.343 36.571-36.571 36.571-20.229 0-36.572-16.343-36.572-36.571 0-141.372-114.628-256-256-256C16.343 219.429 0 203.086 0 182.857c0-20.228 16.343-36.571 36.571-36.571"/></svg>