<svg xmlns="http://www.w3.org/2000/svg" viewBox="0 0 512 512"><!--! Font Awesome Free 7.0.1 by @fontawesome - https://fontawesome.com License - https://fontawesome.com/license/free (Icons: CC BY 4.0, Fonts: SIL OFL 1.1, Code: MIT License) Copyright 2025 Fonticons, Inc.--><path fill="currentColor" d="m242.614 36.37-58.386 84.893c-9.863 14.354-15.146 31.35-15.146 48.7v1.496c0 46.674 37.867 84.541 84.54 84.541s84.541-37.867 84.541-84.54v-1.498c0-17.436-5.284-34.345-15.147-48.699L264.63 36.37a13.37 13.37 0 0 0-11.008-5.812 13.37 13.37 0 0 0-11.008 5.812M96.254 331.294l-37.516 37.427H28.18c-15.587 0-28.18 12.593-28.18 28.18v56.36c0 15.588 12.593 28.181 28.18 28.181h282.243c25.538 0 50.46-8.19 71.067-23.337l111.488-82.163c15.676-11.536 19.022-33.552 7.486-49.227-11.537-15.675-33.552-19.022-49.228-7.486l-105.5 77.672h-99.159a21.084 21.084 0 0 1-21.135-21.135 21.084 21.084 0 0 1 21.135-21.135h63.406c15.587 0 28.18-12.593 28.18-28.18s-12.593-28.18-28.18-28.18H175.95c-29.853 0-58.562 11.888-79.697 33.023"/></svg>