<svg xmlns="http://www.w3.org/2000/svg" viewBox="0 0 512 512"><!--! Font Awesome Free 7.0.1 by @fontawesome - https://fontawesome.com License - https://fontawesome.com/license/free (Icons: CC BY 4.0, Fonts: SIL OFL 1.1, Code: MIT License) Copyright 2025 Fonticons, Inc.--><path fill="currentColor" d="M170.667 213.333V384h56.889V213.333zm227.555-70.222c-41.51 5.156-76.089 32.711-91.289 70.222h-22.489v80.711c-8.977 13.512-14.222 29.69-14.222 47.2v85.334c0 4.889.445 9.689 1.156 14.31H56.888C25.512 440.889 0 415.379 0 384V99.556c0-31.378 25.511-56.89 56.889-56.89h284.444c31.378 0 56.89 25.512 56.89 56.89zM56.89 213.333V384h56.889V213.333zm384 42.667c-.089-15.644-12.8-28.356-28.445-28.356-15.733 0-28.444 12.712-28.444 28.445v42.578h85.333c23.556 0 42.667 19.11 42.667 42.666v85.334c0 23.555-19.111 42.666-42.667 42.666H355.556c-23.556 0-42.667-19.11-42.667-42.666v-85.334c0-18.577 11.911-34.4 28.444-40.266v-44.978c0-39.289 31.823-71.111 71.111-71.111 39.29 0 71.023 31.822 71.112 71.022z"/></svg>