<svg xmlns="http://www.w3.org/2000/svg" viewBox="0 0 512 512"><!--! Font Awesome Free 7.0.1 by @fontawesome - https://fontawesome.com License - https://fontawesome.com/license/free (Icons: CC BY 4.0, Fonts: SIL OFL 1.1, Code: MIT License) Copyright 2025 Fonticons, Inc.--><path fill="currentColor" d="M235.076 36.272c-10.316-9.56-26.25-9.56-36.482 0l-187.86 174.44C2.685 218.26 0 229.919 4.027 240.15s13.837 17.025 24.908 17.025h13.418v147.604c0 29.604 24.07 53.674 53.674 53.674h164.377c-17.78-24.74-28.766-54.765-30.108-87.22h-26.92c-7.38 0-13.42-6.039-13.42-13.42v-33.545H156.41c-7.38 0-13.419-6.039-13.419-13.419v-26.837c0-7.38 6.038-13.418 13.419-13.418h33.546v-33.547c0-7.38 6.038-13.418 13.418-13.418h26.837c7.38 0 13.419 6.038 13.419 13.418v33.547h16.773c29.27-40.675 76.905-67.093 130.83-67.093 8.974 0 17.696.755 26.25 2.097zm156.157 449.017c66.674 0 120.767-54.094 120.767-120.767s-54.093-120.766-120.767-120.766-120.766 54.093-120.766 120.766S324.56 485.29 391.233 485.29m0-83.866c9.226 0 16.774 7.548 16.774 16.773s-7.548 16.773-16.774 16.773c-9.225 0-16.773-7.548-16.773-16.773s7.548-16.773 16.773-16.773m0-117.412c7.38 0 13.419 6.038 13.419 13.419v67.092c0 7.38-6.038 13.419-13.419 13.419-7.38 0-13.418-6.039-13.418-13.419V297.43c0-7.38 6.038-13.419 13.418-13.419"/></svg>