<svg xmlns="http://www.w3.org/2000/svg" viewBox="0 0 512 512"><!--! Font Awesome Free 7.0.1 by @fontawesome - https://fontawesome.com License - https://fontawesome.com/license/free (Icons: CC BY 4.0, Fonts: SIL OFL 1.1, Code: MIT License) Copyright 2025 Fonticons, Inc.--><path fill="currentColor" d="M297.15 12.425C309.577 0 329.754 0 342.179 12.425s12.425 32.602 0 45.027L316.931 82.6h66.299c52.68 0 95.422 42.741 95.422 95.422v31.808c0 17.593-14.214 31.807-31.808 31.807-17.593 0-31.807-14.214-31.807-31.807v-31.808c0-17.593-14.214-31.807-31.807-31.807H316.93l25.247 25.247c12.425 12.425 12.425 32.602 0 45.027s-32.602 12.425-45.027 0l-79.519-79.518c-12.424-12.425-12.424-32.603 0-45.028zM214.95 282.788l79.518 79.518c12.425 12.425 12.425 32.603 0 45.028l-79.518 79.518c-12.425 12.425-32.603 12.425-45.028 0s-12.425-32.602 0-45.027l25.148-25.247H128.77c-17.593 0-31.807 14.214-31.807 31.807v31.808c0 17.593-14.214 31.807-31.807 31.807-17.594 0-31.808-14.214-31.808-31.807v-31.808c0-52.68 42.741-95.422 95.422-95.422h66.299l-25.247-25.247c-12.425-12.425-12.425-32.603 0-45.028s32.602-12.424 45.027 0zM351.422 384.77c0-35.087 28.528-63.614 63.615-63.614s63.615 28.527 63.615 63.614c0 35.088-28.527 63.615-63.615 63.615s-63.615-28.527-63.615-63.615M96.962 178.022c-35.087 0-63.614-28.527-63.614-63.615s28.527-63.615 63.615-63.615 63.615 28.528 63.615 63.615-28.528 63.615-63.615 63.615"/></svg>