<svg xmlns="http://www.w3.org/2000/svg" viewBox="0 0 512 512"><!--! Font Awesome Free 7.0.1 by @fontawesome - https://fontawesome.com License - https://fontawesome.com/license/free (Icons: CC BY 4.0, Fonts: SIL OFL 1.1, Code: MIT License) Copyright 2025 Fonticons, Inc.--><path fill="currentColor" d="M278.588 22.588A22.534 22.534 0 0 0 256 0a22.534 22.534 0 0 0-22.588 22.588v22.588h-30.118a22.534 22.534 0 0 0-22.588 22.589 22.534 22.534 0 0 0 22.588 22.588h30.118v45.176l-92.8 61.93c-12.612 8.376-20.141 22.4-20.141 37.553v36.047l-75.106 42.917c-18.73 10.73-30.306 30.683-30.306 52.236v85.553C15.059 484.988 42.07 512 75.294 512h361.412c33.223 0 60.235-27.012 60.235-60.235v-85.553c0-21.647-11.576-41.6-30.306-52.33L391.53 271.06v-36.047a45.09 45.09 0 0 0-20.14-37.553l-92.8-61.93V90.353h30.117a22.534 22.534 0 0 0 22.588-22.588 22.534 22.534 0 0 0-22.588-22.589h-30.118zM256 331.294c33.224 0 60.235 27.012 60.235 60.235v75.295h-120.47v-75.295c0-33.223 27.011-60.235 60.235-60.235"/></svg>