<svg xmlns="http://www.w3.org/2000/svg" viewBox="0 0 512 512"><!--! Font Awesome Free 7.0.1 by @fontawesome - https://fontawesome.com License - https://fontawesome.com/license/free (Icons: CC BY 4.0, Fonts: SIL OFL 1.1, Code: MIT License) Copyright 2025 Fonticons, Inc.--><path fill="currentColor" d="M17.067 85.333C17.067 38.187 55.253 0 102.4 0h307.2c47.147 0 85.333 38.187 85.333 85.333V358.4c0 27.947-13.44 52.693-34.133 68.267v51.2c0 18.88-15.253 34.133-34.133 34.133h-34.134c-18.88 0-34.133-15.253-34.133-34.133v-34.134H153.6v34.134c0 18.88-15.253 34.133-34.133 34.133H85.333c-18.88 0-34.133-15.253-34.133-34.133v-51.2c-20.693-15.574-34.133-40.32-34.133-68.267zm102.4 85.334v68.266h273.066v-68.266c0-18.88-15.253-34.134-34.133-34.134H153.6c-18.88 0-34.133 15.254-34.133 34.134M153.6 341.333c0-18.88-15.253-34.133-34.133-34.133s-34.134 15.253-34.134 34.133 15.254 34.134 34.134 34.134 34.133-15.254 34.133-34.134m238.933 34.134c18.88 0 34.134-15.254 34.134-34.134S411.413 307.2 392.533 307.2 358.4 322.453 358.4 341.333s15.253 34.134 34.133 34.134"/></svg>