<svg xmlns="http://www.w3.org/2000/svg" viewBox="0 0 512 512"><!--! Font Awesome Free 7.0.1 by @fontawesome - https://fontawesome.com License - https://fontawesome.com/license/free (Icons: CC BY 4.0, Fonts: SIL OFL 1.1, Code: MIT License) Copyright 2025 Fonticons, Inc.--><path fill="currentColor" d="M479.406 224.006C471.108 98.931 367.128.05 239.953.05 107.48.05 0 107.529 0 240.003v56.29c0 48.49 39.192 87.682 87.683 87.682h127.275l128.575 121.376c4.499 4.2 10.398 6.599 16.497 6.599h95.98a23.94 23.94 0 0 0 23.996-23.995 23.94 23.94 0 0 0-23.995-23.996h-86.483l-1.5-1.5V287.995h111.978C497.703 287.994 512 273.697 512 256s-14.297-31.994-31.994-31.994h-.5zM319.938 417.17l-77.985-73.686 32.393-55.49h45.592zm-34.694-314.04 34.694 51.99v-43.19c0-8.8 7.198-15.998 15.996-15.998s15.997 7.199 15.997 15.997v95.981c0 7.099-4.599 13.298-11.398 15.297s-13.997-.6-17.896-6.398l-34.693-51.99v43.191c0 8.799-7.199 15.997-15.997 15.997s-15.997-7.198-15.997-15.997v-95.98c0-7.1 4.6-13.298 11.398-15.298s13.997.6 17.896 6.399m-125.275 8.9v63.987c0 8.798 7.198 15.996 15.997 15.996s15.997-7.198 15.997-15.996v-63.988c0-8.798 7.198-15.997 15.996-15.997s15.997 7.199 15.997 15.997v63.988c0 26.494-21.496 47.99-47.99 47.99s-47.991-21.496-47.991-47.99v-63.988c0-8.798 7.199-15.997 15.997-15.997s15.997 7.199 15.997 15.997"/></svg>