<svg xmlns="http://www.w3.org/2000/svg" viewBox="0 0 512 512"><!--! Font Awesome Free 7.0.1 by @fontawesome - https://fontawesome.com License - https://fontawesome.com/license/free (Icons: CC BY 4.0, Fonts: SIL OFL 1.1, Code: MIT License) Copyright 2025 Fonticons, Inc.--><path fill="currentColor" d="M256.05 0c-17.7 0-32 14.3-32 32v3.2c-73 14.8-128 79.4-128 156.8v21.7c0 48.1-16.4 94.8-46.4 132.4l-9.8 12.2c-5.1 6.3-7.8 14.1-7.8 22.2 0 19.6 15.9 35.5 35.5 35.5h376.9c19.6 0 35.5-15.9 35.5-35.5 0-8.1-2.7-15.9-7.8-22.2l-9.8-12.2c-29.9-37.6-46.3-84.3-46.3-132.4V192c0-77.4-55-142-128-156.8V32c0-17.7-14.3-32-32-32m-62 464c7.1 27.6 32.2 48 62 48s54.9-20.4 62-48z"/></svg>