<svg xmlns="http://www.w3.org/2000/svg" viewBox="0 0 512 512"><!--! Font Awesome Free 7.0.1 by @fontawesome - https://fontawesome.com License - https://fontawesome.com/license/free (Icons: CC BY 4.0, Fonts: SIL OFL 1.1, Code: MIT License) Copyright 2025 Fonticons, Inc.--><path fill="currentColor" d="M263.111 199.111c-18.755-10.755-37.6-21.511-64-26.044V48.356C229.067 40 276.8 28.444 312.89 28.444 398.222 28.444 512 71.111 512 142.222s-106.311 85.334-156.444 85.334c-42.667 0-67.556-14.223-92.445-28.445M113.778 56.89h42.666v113.778h-42.666c-31.378 0-56.89-25.511-56.89-56.89 0-31.377 25.512-56.888 56.89-56.888m92.444 256c24.89-14.222 49.778-28.445 92.445-28.445 50.133 0 156.444 14.223 156.444 85.334 0 71.11-113.778 113.778-199.111 113.778-36 0-83.822-11.556-113.778-19.912v-124.71c26.4-4.623 45.245-15.378 64-26.134zM56.89 455.11C25.51 455.111 0 429.6 0 398.222s25.511-56.889 56.889-56.889h42.667v113.778z"/></svg>