<svg xmlns="http://www.w3.org/2000/svg" viewBox="0 0 512 512"><!--! Font Awesome Free 7.0.1 by @fontawesome - https://fontawesome.com License - https://fontawesome.com/license/free (Icons: CC BY 4.0, Fonts: SIL OFL 1.1, Code: MIT License) Copyright 2025 Fonticons, Inc.--><path fill="currentColor" d="M193.485.102a24.32 24.32 0 0 0-24.376 24.376 24.32 24.32 0 0 0 24.376 24.376h32.502V74.55C116.294 86.637 30.978 179.672 30.978 292.615 30.978 413.785 129.193 512 250.363 512s219.385-98.215 219.385-219.385c0-40.424-10.97-78.308-30.064-110.911l28.642-28.642c12.696-12.696 12.696-33.314 0-46.01s-33.314-12.696-46.01 0l-23.767 23.766c-33.415-30.673-76.378-51.088-123.911-56.37V48.753h32.501a24.32 24.32 0 0 0 24.376-24.376A24.32 24.32 0 0 0 307.14 0H193.384zm-60.94 243.76c0-29.149 23.665-52.814 52.815-52.814s52.815 23.665 52.815 52.815v3.86c0 11.883-3.25 23.461-9.446 33.516l-44.486 72.316h33.619c11.172 0 20.313 9.141 20.313 20.314s-9.141 20.313-20.313 20.313h-58.706c-14.728 0-26.61-11.883-26.61-26.61 0-4.977 1.32-9.75 3.96-14.017l57.589-93.543a23.6 23.6 0 0 0 3.453-12.29v-3.86c0-6.703-5.485-12.187-12.188-12.187s-12.188 5.484-12.188 12.188c0 11.172-9.141 20.313-20.313 20.313-11.173 0-20.314-9.14-20.314-20.313m182.821-52.814c29.15 0 52.815 23.665 52.815 52.815v97.504c0 29.15-23.665 52.815-52.815 52.815s-52.815-23.665-52.815-52.815v-97.504c0-29.15 23.665-52.815 52.815-52.815m-12.188 52.815v97.504c0 6.704 5.485 12.188 12.188 12.188s12.188-5.484 12.188-12.188v-97.504c0-6.704-5.485-12.188-12.188-12.188s-12.188 5.484-12.188 12.188"/></svg>