<svg xmlns="http://www.w3.org/2000/svg" viewBox="0 0 512 512"><!--! Font Awesome Free 7.0.1 by @fontawesome - https://fontawesome.com License - https://fontawesome.com/license/free (Icons: CC BY 4.0, Fonts: SIL OFL 1.1, Code: MIT License) Copyright 2025 Fonticons, Inc.--><path fill="currentColor" d="M341.333 142.222c62.845 0 113.778 50.934 113.778 113.778s-50.933 113.778-113.778 113.778H170.667c-62.845 0-113.778-50.934-113.778-113.778s50.933-113.778 113.778-113.778zM512 256c0-94.222-76.444-170.667-170.667-170.667H170.667C76.444 85.333 0 161.778 0 256s76.444 170.667 170.667 170.667h170.666C435.556 426.667 512 350.222 512 256m-341.333 71.111c39.289 0 71.11-31.822 71.11-71.111s-31.821-71.111-71.11-71.111S99.556 216.71 99.556 256s31.822 71.111 71.11 71.111"/></svg>