<svg xmlns="http://www.w3.org/2000/svg" viewBox="0 0 512 512"><!--! Font Awesome Free 7.0.1 by @fontawesome - https://fontawesome.com License - https://fontawesome.com/license/free (Icons: CC BY 4.0, Fonts: SIL OFL 1.1, Code: MIT License) Copyright 2025 Fonticons, Inc.--><path fill="currentColor" d="M113.778 85.333c0-31.377 25.51-56.889 56.889-56.889h170.666c31.378 0 56.89 25.512 56.89 56.89v56.888h56.888c31.378 0 56.889 25.511 56.889 56.89v227.555c0 31.377-25.511 56.889-56.889 56.889H56.89C25.51 483.556 0 458.044 0 426.666V199.112c0-31.378 25.511-56.889 56.889-56.889h56.889zm128 256c-15.734 0-28.445 12.711-28.445 28.445v71.11h85.334v-71.11c0-15.734-12.711-28.445-28.445-28.445zm-128 14.223V327.11c0-7.822-6.4-14.222-14.222-14.222H71.11c-7.822 0-14.222 6.4-14.222 14.222v28.445c0 7.822 6.4 14.222 14.222 14.222h28.445c7.822 0 14.222-6.4 14.222-14.222M99.556 256c7.822 0 14.222-6.4 14.222-14.222v-28.445c0-7.822-6.4-14.222-14.222-14.222H71.11c-7.822 0-14.222 6.4-14.222 14.222v28.445c0 7.822 6.4 14.222 14.222 14.222zm355.555 99.556V327.11c0-7.822-6.4-14.222-14.222-14.222h-28.445c-7.822 0-14.222 6.4-14.222 14.222v28.445c0 7.822 6.4 14.222 14.222 14.222h28.445c7.822 0 14.222-6.4 14.222-14.222M440.89 256c7.822 0 14.222-6.4 14.222-14.222v-28.445c0-7.822-6.4-14.222-14.222-14.222h-28.445c-7.822 0-14.222 6.4-14.222 14.222v28.445c0 7.822 6.4 14.222 14.222 14.222zM234.667 120.889v28.444h-28.445c-7.822 0-14.222 6.4-14.222 14.223v14.222C192 185.6 198.4 192 206.222 192h28.445v28.444c0 7.823 6.4 14.223 14.222 14.223h14.222c7.822 0 14.222-6.4 14.222-14.223V192h28.445C313.6 192 320 185.6 320 177.778v-14.222c0-7.823-6.4-14.223-14.222-14.223h-28.445V120.89c0-7.822-6.4-14.222-14.222-14.222H248.89c-7.822 0-14.222 6.4-14.222 14.222"/></svg>