<svg xmlns="http://www.w3.org/2000/svg" viewBox="0 0 512 512"><!--! Font Awesome Free 7.0.1 by @fontawesome - https://fontawesome.com License - https://fontawesome.com/license/free (Icons: CC BY 4.0, Fonts: SIL OFL 1.1, Code: MIT License) Copyright 2025 Fonticons, Inc.--><path fill="currentColor" d="M113.778 0c15.733 0 28.444 12.711 28.444 28.444v85.334H256V28.444C256 12.711 268.711 0 284.444 0c15.734 0 28.445 12.711 28.445 28.444v85.334h56.889c15.733 0 28.444 12.71 28.444 28.444s-12.71 28.445-28.444 28.445v43.289c-87.645 7.2-156.445 80.622-156.445 170.044 0 24.267 5.067 47.378 14.223 68.356v2.755c0 15.733-12.712 28.445-28.445 28.445s-28.444-12.712-28.444-28.445v-59.289C89.956 382.312 28.444 312.09 28.444 227.556v-56.89C12.711 170.667 0 157.957 0 142.223s12.711-28.444 28.444-28.444h56.89V28.444C85.333 12.711 98.043 0 113.777 0M256 384c0-70.667 57.333-128 128-128s128 57.333 128 128-57.333 128-128 128-128-57.333-128-128m179.022-54.133c-6.31-4.623-15.289-3.2-19.91 3.11L368 397.778l-23.822-23.821c-5.511-5.512-14.578-5.512-20.09 0-5.51 5.51-5.51 14.577 0 20.088l35.556 35.556a14.14 14.14 0 0 0 11.2 4.089c4.178-.356 7.912-2.489 10.4-5.778l56.89-78.222c4.622-6.311 3.2-15.289-3.112-19.822"/></svg>