<svg xmlns="http://www.w3.org/2000/svg" viewBox="0 0 512 512"><!--! Font Awesome Free 7.0.1 by @fontawesome - https://fontawesome.com License - https://fontawesome.com/license/free (Icons: CC BY 4.0, Fonts: SIL OFL 1.1, Code: MIT License) Copyright 2025 Fonticons, Inc.--><path fill="currentColor" d="M59.97 16.117C26.894 16.117 0 43.01 0 76.087v359.825c0 33.078 26.893 59.97 59.97 59.97h239.884c33.077 0 59.97-26.892 59.97-59.97v-89.956h73.183l-29.048 29.048c-8.808 8.809-8.808 23.052 0 31.766 8.808 8.715 23.051 8.808 31.766 0l67.467-67.467c8.808-8.808 8.808-23.051 0-31.766l-67.467-67.467c-8.808-8.808-23.052-8.808-31.766 0s-8.808 23.052 0 31.766l29.048 29.048h-73.183V175.79c0-15.93-6.278-31.203-17.522-42.448l-99.89-99.701c-11.244-11.245-26.424-17.523-42.353-17.523zm245.037 164.92h-87.613a22.435 22.435 0 0 1-22.49-22.49V70.935zm-125.095 142.43a22.435 22.435 0 0 1 22.49-22.489h97.452v44.978H202.4a22.435 22.435 0 0 1-22.489-22.489"/></svg>