<svg xmlns="http://www.w3.org/2000/svg" viewBox="0 0 512 512"><!--! Font Awesome Free 7.0.1 by @fontawesome - https://fontawesome.com License - https://fontawesome.com/license/free (Icons: CC BY 4.0, Fonts: SIL OFL 1.1, Code: MIT License) Copyright 2025 Fonticons, Inc.--><path fill="currentColor" d="m420.379 48.842 34.358 45.81h37.052c11.2 0 20.211 9.011 20.211 20.211s-9.01 20.21-20.21 20.21h-47.158a20.22 20.22 0 0 1-16.169-8.084l-20.295-27.031-39.579 84.126c-3.115 6.569-9.515 11.032-16.757 11.537s-14.232-2.863-18.274-8.926l-34.442-51.621h-36.38c-11.2 0-20.21-9.01-20.21-20.21s9.01-20.211 20.21-20.211h47.159c6.737 0 13.052 3.368 16.842 9.01l20.547 30.821 38.653-82.105a20.38 20.38 0 0 1 16.252-11.537 19.9 19.9 0 0 1 18.19 8m-177.853 153.6c0-14.905 12.042-26.947 26.948-26.947h8l22.4 33.6c12.126 18.19 33.094 28.463 54.905 26.863 21.81-1.6 41.095-14.821 50.358-34.61l11.705-24.843c38.653 6.063 68.21 39.495 68.21 79.832v188.631c0 14.906-12.041 26.948-26.947 26.948s-26.947-12.042-26.947-26.948v-53.894H53.895v53.894c0 14.906-12.042 26.948-26.948 26.948C12.042 471.916 0 459.874 0 444.968V121.6c0-14.905 12.042-26.947 26.947-26.947 14.906 0 26.948 12.042 26.948 26.947v188.632h188.631zM94.316 229.39c0-29.726 24.168-53.894 53.895-53.894 29.726 0 53.894 24.168 53.894 53.894 0 29.727-24.168 53.895-53.894 53.895-29.727 0-53.895-24.168-53.895-53.895"/></svg>