<svg xmlns="http://www.w3.org/2000/svg" viewBox="0 0 512 512"><!--! Font Awesome Free 7.0.1 by @fontawesome - https://fontawesome.com License - https://fontawesome.com/license/free (Icons: CC BY 4.0, Fonts: SIL OFL 1.1, Code: MIT License) Copyright 2025 Fonticons, Inc.--><path fill="currentColor" d="M65.293 58.694c-5.515-16.544-23.34-25.408-39.885-19.991C8.863 44.119 0 62.14 5.515 78.587l54.361 163.38H35.354a23.58 23.58 0 0 0-23.635 23.635 23.58 23.58 0 0 0 23.635 23.635h40.279l55.838 167.515c4.432 13.295 17.136 22.06 31.12 21.568 13.984-.493 26-10.242 29.347-23.833l41.362-165.25h45.301l41.362 165.25c3.348 13.59 15.363 23.34 29.347 23.833s26.688-8.273 31.12-21.568l55.839-167.515h40.278a23.58 23.58 0 0 0 23.635-23.635 23.58 23.58 0 0 0-23.635-23.635h-24.522l54.46-163.38c5.515-16.544-3.447-34.37-19.893-39.884s-34.37 3.447-39.885 19.893L385.65 241.868h-53.77L286.676 60.861c-3.644-13.886-16.25-23.734-30.726-23.734-14.477 0-27.082 9.848-30.53 23.832l-45.3 181.008h-53.77zm76.814 230.543h26.196l-11.227 44.907zm103.01-47.27 10.834-43.43 10.833 43.43zm98.481 47.27h26.196l-14.969 44.907z"/></svg>