<svg xmlns="http://www.w3.org/2000/svg" viewBox="0 0 512 512"><!--! Font Awesome Free 7.0.1 by @fontawesome - https://fontawesome.com License - https://fontawesome.com/license/free (Icons: CC BY 4.0, Fonts: SIL OFL 1.1, Code: MIT License) Copyright 2025 Fonticons, Inc.--><path fill="currentColor" d="M255.959 123.807c36.518 0 66.096-29.578 66.096-66.096h44.202c14.046 0 27.513 5.535 37.427 15.45l97.988 98.07c10.328 10.328 10.328 27.1 0 37.427l-41.888 41.889c-10.328 10.328-27.1 10.328-37.427 0l-34.205-34.205v185.07c0 29.165-23.712 52.877-52.878 52.877H176.643c-29.165 0-52.877-23.712-52.877-52.877v-185.07L89.56 250.547c-10.328 10.328-27.1 10.328-37.427 0l-41.806-41.971C0 198.248 0 181.476 10.328 171.149l97.988-97.988c9.914-9.915 23.381-15.45 37.427-15.45h44.202c0 36.518 29.578 66.096 66.096 66.096z"/></svg>