<svg xmlns="http://www.w3.org/2000/svg" viewBox="0 0 512 512"><!--! Font Awesome Free 7.0.1 by @fontawesome - https://fontawesome.com License - https://fontawesome.com/license/free (Icons: CC BY 4.0, Fonts: SIL OFL 1.1, Code: MIT License) Copyright 2025 Fonticons, Inc.--><path fill="currentColor" d="M241.918 0C269.2 0 291.36 22.161 291.36 49.443S269.2 98.886 241.918 98.886s-49.443-22.161-49.443-49.443S214.635 0 241.918 0M185.41 181.526c0-30.018 24.369-54.387 54.388-54.387 17.923 0 35.051 7.152 47.677 19.777l42.556 42.557c5.298 5.297 12.45 8.299 19.954 8.299h33.109c5.12 0 9.977 1.413 14.127 3.797v-67.367a21.14 21.14 0 0 1 21.19-21.19 21.14 21.14 0 0 1 21.19 21.19v353.165a21.14 21.14 0 0 1-21.19 21.19 21.14 21.14 0 0 1-21.19-21.19V250.482c-4.15 2.384-9.006 3.796-14.127 3.796h-33.11a84.73 84.73 0 0 1-59.949-24.81l-5.827-5.827v96.414l30.46 26.134c15.628 13.42 25.87 31.962 28.783 52.357l11.125 77.784c2.207 15.451-8.564 29.754-24.015 31.962s-29.754-8.564-31.962-24.015l-11.124-77.785c-.971-6.798-4.415-12.979-9.624-17.481l-63.04-54.035c-18.806-16.069-29.577-39.642-29.577-64.364v-89.174zm-4.238 179.85c2.031 2.03 4.15 3.884 6.269 5.738l39.643 33.992c-3.179 7.417-7.505 14.392-12.714 20.66l-63.746 76.637c-9.977 12.008-27.812 13.597-39.82 3.62s-13.597-27.812-3.62-39.82l63.835-76.548c2.295-2.737 3.973-5.827 5.12-9.182zM72.4 169.518c0-31.167 25.34-56.506 56.506-56.506 15.628 0 28.253 12.625 28.253 28.253v113.012c0 15.628-12.625 28.253-28.253 28.253h-28.253c-15.628 0-28.253-12.625-28.253-28.253z"/></svg>