<svg xmlns="http://www.w3.org/2000/svg" viewBox="0 0 512 512"><!--! Font Awesome Free 7.0.1 by @fontawesome - https://fontawesome.com License - https://fontawesome.com/license/free (Icons: CC BY 4.0, Fonts: SIL OFL 1.1, Code: MIT License) Copyright 2025 Fonticons, Inc.--><path fill="currentColor" d="M215.178 3.657c17.1 3.657 27.973 20.46 24.315 37.56l-18.878 88.266h125.034l21.746-101.51c3.657-17.1 20.46-27.973 37.56-24.316s27.972 20.46 24.314 37.56l-18.878 88.266h67.014c17.495 0 31.63 14.134 31.63 31.629s-14.135 31.63-31.63 31.63h-80.654l-27.083 126.517h67.015c17.495 0 31.629 14.134 31.629 31.629s-14.134 31.63-31.63 31.63h-80.654l-21.745 101.51c-3.658 17.1-20.46 27.972-37.56 24.315s-27.972-20.46-24.315-37.56l18.878-88.266H166.252l-21.745 101.51c-3.658 17.1-20.46 27.973-37.56 24.316s-27.972-20.46-24.315-37.56l18.977-88.266H34.595c-17.495 0-31.63-14.134-31.63-31.629s14.135-31.63 31.63-31.63h80.654l27.083-126.517H75.317c-17.495 0-31.629-14.134-31.629-31.629s14.134-31.63 31.63-31.63h80.654l21.745-101.51C181.276 10.872 198.08 0 215.178 3.657m-8.203 189.084L179.892 319.26h125.035l27.082-126.518z"/></svg>