<svg xmlns="http://www.w3.org/2000/svg" viewBox="0 0 512 512"><!--! Font Awesome Free 7.0.1 by @fontawesome - https://fontawesome.com License - https://fontawesome.com/license/free (Icons: CC BY 4.0, Fonts: SIL OFL 1.1, Code: MIT License) Copyright 2025 Fonticons, Inc.--><path fill="currentColor" d="M327.1 0c-8.8 11.1-16 23.1-21.9 34.8C283.8 77.5 272 133.2 272 192v264c0 30.9-25.1 56-56 56H56c-30.9 0-56-25.1-56-56V192C0 86 43 0 96 0zM416 384c-53 0-96-86-96-192S363 0 416 0s96 86 96 192-43 192-96 192m0-128c17.7 0 32-28.7 32-64s-14.3-64-32-64-32 28.7-32 64 14.3 64 32 64"/></svg>