<svg xmlns="http://www.w3.org/2000/svg" viewBox="0 0 512 512"><!--! Font Awesome Free 7.0.1 by @fontawesome - https://fontawesome.com License - https://fontawesome.com/license/free (Icons: CC BY 4.0, Fonts: SIL OFL 1.1, Code: MIT License) Copyright 2025 Fonticons, Inc.--><path fill="currentColor" d="M269.89 32.128c-.977-4.615-4.083-8.432-8.432-10.295-4.349-1.864-9.319-1.332-13.224 1.242L185.4 64.788l-62.746-41.624c-3.905-2.574-8.875-3.106-13.224-1.243-4.349 1.864-7.544 5.68-8.431 10.295l-14.999 73.752-73.84 14.91c-4.615.976-8.431 4.082-10.295 8.431s-1.331 9.319 1.242 13.224l41.713 62.835-41.624 62.746C.621 272.02.089 276.99 1.953 281.338s5.68 7.544 10.295 8.431l73.751 15 14.91 73.84c.976 4.614 4.083 8.43 8.431 10.294 4.349 1.864 9.319 1.332 13.224-1.242l59.729-39.583c-14.023-17.217-23.075-38.606-25.028-62.036-33.28-11.626-57.155-43.221-57.155-80.496 0-47.038 38.163-85.2 85.2-85.2 19.26 0 37.098 6.39 51.298 17.217 13.756-15.62 32.749-26.625 54.226-30.175l-6.035-1.42zm-53.428 144.041c-7.81-8.254-18.815-13.401-31.063-13.401-23.519 0-42.6 19.081-42.6 42.6 0 15.088 7.899 28.4 19.703 35.944 9.052-27.868 28.488-50.943 53.871-64.788zm54.137 171.2H441c39.228 0 71.001-31.773 71.001-71 0-30.087-18.726-55.825-45.174-66.12 1.686-6.035 2.574-12.425 2.574-19.081 0-39.228-31.773-71-71-71-27.335 0-51.032 15.442-62.924 37.985a49.5 49.5 0 0 0-29.377-9.585c-27.423 0-49.7 22.276-49.7 49.7 0 2.84.267 5.68.71 8.343-32.748 6.3-57.51 35.145-57.51 69.757 0 39.228 31.773 71 71 71m-16.862 43.576c-11.183-3.728-23.253 2.307-26.98 13.49l-18.993 56.889c-3.727 11.182 2.308 23.252 13.49 26.98 11.183 3.727 23.253-2.308 26.98-13.49l18.993-56.89c3.727-11.182-2.308-23.252-13.49-26.98m106.5 0c-11.182-3.728-23.252 2.307-26.98 13.49l-18.992 56.889c-3.728 11.182 2.307 23.252 13.49 26.98 11.182 3.727 23.252-2.308 26.98-13.49l18.992-56.89c3.728-11.182-2.307-23.252-13.49-26.98m106.5 0c-11.182-3.728-23.252 2.307-26.98 13.49l-18.992 56.889c-3.728 11.182 2.307 23.252 13.49 26.98 11.182 3.727 23.252-2.308 26.98-13.49l18.992-56.89c3.728-11.182-2.307-23.252-13.49-26.98"/></svg>