<svg xmlns="http://www.w3.org/2000/svg" viewBox="0 0 512 512"><!--! Font Awesome Free 7.0.1 by @fontawesome - https://fontawesome.com License - https://fontawesome.com/license/free (Icons: CC BY 4.0, Fonts: SIL OFL 1.1, Code: MIT License) Copyright 2025 Fonticons, Inc.--><path fill="currentColor" d="M94.72 102.64c-13.36-4.48-20.64-19.04-16.16-32.4S97.52 49.6 110.96 54l90.4 30.16c11.12-18.8 31.68-31.44 55.12-31.44 35.36 0 64 28.64 64 64 0 2.4-.16 4.72-.4 7.04l98.08 32.72c13.44 4.48 20.64 18.96 16.16 32.4s-18.96 20.64-32.4 16.16l-108.4-36.16c-3.6 2.56-7.44 4.72-11.52 6.56V436.8c0 14.16-11.44 25.6-25.6 25.6H102.8c-14.16 0-25.6-11.44-25.6-25.6s11.44-25.6 25.6-25.6h128V175.44c-16.8-7.36-29.76-21.6-35.36-39.2zm66.08 180.48-58-99.36-57.92 99.36zm-57.92 76.8c-50.32 0-92.16-27.2-100.8-63.12-2.08-8.8.8-17.84 5.36-25.68L83.6 140.56c4-6.88 11.36-11.04 19.28-11.04s15.28 4.24 19.28 11.04l76.16 130.56c4.56 7.84 7.44 16.88 5.36 25.68-8.64 35.84-50.48 63.12-100.8 63.12m306.24-73.76-57.92 99.36h115.92l-57.92-99.36zm100.8 113.04c-8.64 35.92-50.48 63.12-100.8 63.12s-92.16-27.2-100.8-63.12c-2.08-8.8.8-17.84 5.36-25.68l76.16-130.56c4-6.88 11.36-11.04 19.28-11.04s15.28 4.24 19.28 11.04l76.16 130.56c4.56 7.84 7.44 16.88 5.36 25.68"/></svg>