<svg xmlns="http://www.w3.org/2000/svg" viewBox="0 0 512 512"><!--! Font Awesome Free 7.0.1 by @fontawesome - https://fontawesome.com License - https://fontawesome.com/license/free (Icons: CC BY 4.0, Fonts: SIL OFL 1.1, Code: MIT License) Copyright 2025 Fonticons, Inc.--><path fill="currentColor" d="M70.81 220.115c5.956-3.94 14.123-3.267 19.311 2.017l44.292 44.292 5.861 6.438c18.927 22.866 25.269 52.843 18.447 80.61 30.457-7.399 63.604.96 87.047 24.307l44.292 44.292c5.957 5.957 5.957 15.757 0 21.714l-7.11 7.11c-36.03 36.029-94.445 36.029-130.474 0l-29.4-29.304-81.378 81.378a22.964 22.964 0 0 1-32.57 0c-9.032-9.032-9.032-23.636 0-32.57l81.378-81.379-29.304-29.304c-36.03-36.029-36.03-94.444 0-130.378l7.11-7.11 2.401-2.017zm99.92-99.921c5.958-3.94 14.124-3.267 19.312 2.017l44.292 44.292 5.861 6.438c18.928 22.866 25.269 52.842 18.447 80.609 30.457-7.398 63.604.96 87.047 24.308l44.292 44.292c5.957 5.957 5.957 15.757 0 21.713l-7.11 7.11c-36.03 36.03-94.445 36.03-130.474 0l-91.178-91.178c-36.03-36.03-36.03-94.445 0-130.378l7.11-7.11 2.402-2.017zM470.015 9.127c9.031-9.03 23.635-9.03 32.666 0 8.455 8.455 8.936 21.81 1.538 30.938l-1.538 1.729-110.009 109.913c7.398.961 14.604 2.883 21.618 5.669l56.013-56.014c9.031-9.031 23.635-9.031 32.667 0 8.455 8.455 8.935 21.81 1.537 30.841l-1.633 1.73-50.634 50.633 37.47 37.47c5.958 5.957 5.958 15.757 0 21.714l-7.109 7.11c-36.03 36.03-94.445 36.03-130.474 0l-91.178-91.178c-36.03-36.03-36.03-94.445 0-130.378l7.11-7.11 2.402-2.018c5.957-3.939 14.123-3.266 19.311 2.018l37.47 37.47 50.634-50.633C386.906 0 401.51 0 410.542 9.031c8.454 8.455 8.935 21.81 1.537 30.841l-1.634 1.73-56.013 56.013a89.7 89.7 0 0 1 5.476 21.234z"/></svg>