<svg xmlns="http://www.w3.org/2000/svg" viewBox="0 0 512 512"><!--! Font Awesome Free 7.0.1 by @fontawesome - https://fontawesome.com License - https://fontawesome.com/license/free (Icons: CC BY 4.0, Fonts: SIL OFL 1.1, Code: MIT License) Copyright 2025 Fonticons, Inc.--><path fill="currentColor" d="m353.315 21.138-44.769 44.769 137.497 137.497 44.77-44.769c13.56-13.46 21.137-31.807 21.137-50.95s-7.578-37.49-21.138-50.951l-35.596-35.596C441.756 7.578 423.41 0 404.266 0s-37.49 7.578-50.951 21.138m-78.57 78.57L60.174 314.18c-10.669 10.668-18.446 24.03-22.534 38.587L2.343 480.193c-2.293 8.276 0 17.25 6.182 23.332s15.056 8.475 23.332 6.182l127.426-35.397c14.558-4.088 27.819-11.765 38.587-22.534l214.372-214.57z"/></svg>