<svg xmlns="http://www.w3.org/2000/svg" viewBox="0 0 512 512"><!--! Font Awesome Free 7.0.1 by @fontawesome - https://fontawesome.com License - https://fontawesome.com/license/free (Icons: CC BY 4.0, Fonts: SIL OFL 1.1, Code: MIT License) Copyright 2025 Fonticons, Inc.--><path fill="currentColor" d="M398.944 202.883h3.655c12.345 0 22.335-9.99 22.335-22.335 0-6.416-2.761-12.589-7.635-16.812L278.741 42.477c-6.254-5.523-14.376-8.528-22.741-8.528s-16.487 3.005-22.741 8.528L94.7 163.736c-4.874 4.223-7.635 10.396-7.635 16.812 0 12.345 9.99 22.335 22.335 22.335h3.655v76.67a126.3 126.3 0 0 1 51.98-11.695c26.883-.163 53.847 8.284 76.67 25.502 17.949 13.483 23.634 13.483 41.583 0 22.335-16.812 48.65-25.34 75.046-25.502 13.726-.081 27.452 2.112 40.61 6.497zm-181.929-6.497a19.446 19.446 0 0 1 19.493-19.493h38.984a19.446 19.446 0 0 1 19.493 19.493v38.985a19.446 19.446 0 0 1-19.493 19.492h-38.984a19.446 19.446 0 0 1-19.493-19.492zM381.563 368.65c15.432 11.695 34.03 22.903 54.58 27.045 21.522 4.386 44.1.65 65.542-15.512 8.61-6.498 10.315-18.68 3.818-27.29-6.498-8.609-18.68-10.314-27.29-3.817-12.101 9.097-23.228 10.64-34.355 8.366-12.102-2.437-25.097-9.665-38.822-19.98-31.188-23.553-73.503-23.553-104.772 0-19.492 14.7-33.056 21.36-44.264 21.36s-24.772-6.66-44.264-21.36c-31.188-23.553-73.502-23.553-104.772 0-17.543 13.239-33.543 20.954-47.837 20.873-7.797-.081-16.163-2.437-25.34-9.34-8.61-6.498-20.792-4.792-27.29 3.817s-4.71 20.873 3.899 27.37c15.513 11.696 32 17.057 48.568 17.138 27.533.162 52.224-14.132 71.554-28.67 17.3-13.076 40.528-13.076 57.827 0 19.655 14.863 42.477 29.157 67.736 29.157s48-14.376 67.736-29.157c17.3-13.076 40.528-13.076 57.828 0zm-57.827 77.97c17.3-13.077 40.528-13.077 57.827 0 15.432 11.695 34.03 22.903 54.58 27.045 21.522 4.386 44.1.65 65.542-15.513 8.61-6.497 10.315-18.68 3.818-27.29-6.498-8.608-18.68-10.314-27.29-3.816-12.101 9.096-23.228 10.64-34.355 8.365-12.102-2.436-25.097-9.665-38.822-19.98-31.188-23.553-73.503-23.553-104.772 0-19.492 14.701-33.056 21.36-44.264 21.36s-24.772-6.659-44.264-21.36c-31.188-23.553-73.502-23.553-104.772 0-17.543 13.24-33.543 20.955-47.837 20.874-7.797-.082-16.163-2.437-25.34-9.34-8.61-6.498-20.792-4.792-27.29 3.817s-4.71 20.873 3.899 27.37c15.513 11.696 32 17.056 48.568 17.137 27.533.163 52.224-14.132 71.554-28.67 17.3-13.076 40.528-13.076 57.827 0 19.655 14.863 42.477 29.158 67.736 29.158s48-14.376 67.736-29.158z"/></svg>