<svg xmlns="http://www.w3.org/2000/svg" viewBox="0 0 512 512"><!--! Font Awesome Free 7.0.1 by @fontawesome - https://fontawesome.com License - https://fontawesome.com/license/free (Icons: CC BY 4.0, Fonts: SIL OFL 1.1, Code: MIT License) Copyright 2025 Fonticons, Inc.--><path fill="currentColor" d="M256 85.333c-199.111 0-256 85.334-256 184.89s71.111 156.444 156.444 156.444h7.467c21.511 0 41.245-12.178 50.845-31.467l20.622-41.156c3.91-7.822 11.822-12.71 20.622-12.71s16.711 4.888 20.622 12.71l20.622 41.156c9.6 19.289 29.334 31.467 50.845 31.467h7.467c85.333 0 156.444-56.89 156.444-156.445S455.111 85.333 256 85.333M85.333 256c0-31.378 25.511-56.889 56.89-56.889 31.377 0 56.888 25.511 56.888 56.889s-25.511 56.889-56.889 56.889S85.333 287.378 85.333 256m284.445-56.889c31.378 0 56.889 25.511 56.889 56.889s-25.511 56.889-56.89 56.889c-31.377 0-56.888-25.511-56.888-56.889s25.511-56.889 56.889-56.889"/></svg>