<svg xmlns="http://www.w3.org/2000/svg" viewBox="0 0 512 512"><!--! Font Awesome Free 7.0.1 by @fontawesome - https://fontawesome.com License - https://fontawesome.com/license/free (Icons: CC BY 4.0, Fonts: SIL OFL 1.1, Code: MIT License) Copyright 2025 Fonticons, Inc.--><path fill="currentColor" d="M179.2 289.48c0 10.64-8.56 19.2-19.2 19.2s-19.2-8.56-19.2-19.2V199.4l70.56-95.76c10.48-14.24 7.44-34.24-6.8-44.72s-34.24-7.44-44.72 6.8L85.2 167C71.44 185.64 64 208.28 64 231.56v88.56l-46.48 15.52C7.04 339.08 0 348.84 0 359.88v76.8c0 8 3.76 15.6 10.16 20.4s14.72 6.4 22.48 4.16l123.52-35.28c44-12.56 74.24-52.72 74.24-98.48v-95.6c0-14.16-11.44-25.6-25.6-25.6s-25.6 11.44-25.6 25.6zm153.6 0v-57.6c0-14.16-11.44-25.6-25.6-25.6s-25.6 11.44-25.6 25.6v95.68c0 45.76 30.32 85.92 74.24 98.48l123.52 35.28c7.76 2.24 16 .64 22.48-4.16S512 444.68 512 436.68v-76.8c0-11.04-7.04-20.8-17.52-24.32L448 320.04v-88.56c0-23.2-7.44-45.84-21.2-64.56l-74.64-101.2c-10.48-14.24-30.48-17.28-44.72-6.8s-17.28 30.48-6.8 44.72l70.56 95.76v90.08c0 10.64-8.56 19.2-19.2 19.2s-19.2-8.56-19.2-19.2"/></svg>