<svg xmlns="http://www.w3.org/2000/svg" viewBox="0 0 512 512"><!--! Font Awesome Free 7.0.1 by @fontawesome - https://fontawesome.com License - https://fontawesome.com/license/free (Icons: CC BY 4.0, Fonts: SIL OFL 1.1, Code: MIT License) Copyright 2025 Fonticons, Inc.--><path fill="currentColor" d="M240.178 8.036c8.884-7.387 21.762-7.387 30.646 0l37.734 31.445c8.684 7.287 11.08 19.565 5.99 29.548-1.199 2.395-2.796 5.49-4.593 9.184 34.14 19.166 57.2 55.702 57.2 97.628s-23.06 78.462-57.2 97.628c1.797 3.694 3.294 6.788 4.592 9.184 5.091 9.983 2.695 22.261-5.99 29.548l-37.134 30.946v19.765c22.86-15.672 48.315-33.241 76.565-52.607 42.725-29.349 68.28-77.864 68.28-129.772v-11.08c0-23.859-7.087-47.218-20.364-67.083-5.091-7.686-4.592-17.769 1.697-24.557 6.589-7.087 17.17-8.086 25.156-2.795C450.209 93.086 512 142.4 512 223.857c0 46.418-20.165 88.444-41.727 120.188-21.562 31.944-45.52 54.904-55.203 63.688-7.786 7.088-18.966 7.886-27.551 2.995l-70.676-40.23L284.2 392.96l45.42 31.245c1.797-.399 3.694-.698 5.69-.698a23.9 23.9 0 0 1 23.958 23.957 23.9 23.9 0 0 1-23.957 23.958c-12.179 0-22.261-9.084-23.759-20.963l-40.13-27.551v28.849a31.84 31.84 0 0 1 15.973 27.651c0 17.67-14.275 31.944-31.944 31.944s-31.944-14.275-31.944-31.944a31.84 31.84 0 0 1 15.972-27.651v-28.05l-40.23 27.65c-1.796 11.38-11.779 20.065-23.658 20.065a23.9 23.9 0 0 1-23.958-23.958 23.9 23.9 0 0 1 23.958-23.957c2.196 0 4.393.299 6.489.898l45.72-31.445-32.643-22.46-70.676 40.229c-8.685 4.891-19.765 4.093-27.551-2.995-9.683-8.784-33.641-31.844-55.203-63.688C20.264 312.301 0 270.275 0 223.857 0 142.3 61.791 92.987 89.243 75.018c8.086-5.29 18.567-4.292 25.156 2.795 6.389 6.888 6.788 16.97 1.697 24.557a120.76 120.76 0 0 0-20.364 67.082v11.08c0 51.81 25.555 100.424 68.28 129.773 28.35 19.565 53.605 36.835 75.467 51.908v-19.066L202.344 312.2c-8.684-7.287-11.08-19.565-5.99-29.548 1.199-2.396 2.796-5.49 4.593-9.184-34.14-19.166-57.2-55.702-57.2-97.628s23.06-78.462 57.2-97.628c-1.797-3.694-3.294-6.789-4.592-9.184-5.091-9.983-2.695-22.261 5.99-29.548zm-20.364 114.698c-16.97 11.48-28.15 30.946-28.15 53.007s11.18 41.527 28.15 53.007c6.788-19.166 11.779-38.333 11.779-53.007s-4.891-33.84-11.78-53.007m71.374 106.014c16.97-11.48 28.15-30.946 28.15-53.007s-11.18-41.527-28.15-53.007c-6.788 19.167-11.78 38.333-11.78 53.007s4.892 33.84 11.78 53.007"/></svg>