<svg xmlns="http://www.w3.org/2000/svg" viewBox="0 0 512 512"><!--! Font Awesome Free 7.0.1 by @fontawesome - https://fontawesome.com License - https://fontawesome.com/license/free (Icons: CC BY 4.0, Fonts: SIL OFL 1.1, Code: MIT License) Copyright 2025 Fonticons, Inc.--><path fill="currentColor" d="M0 463.083V313.797c0-110.012 69.315-208.15 173.035-244.888L345.257 7.916c21.719-7.713 44.452 8.423 44.452 31.36 0 11.163-5.582 21.514-14.817 27.705l-33.897 22.632c48.815 0 92.556 30.243 109.707 76.013l49.323 131.425c11.975 31.867 4.16 67.793-19.892 91.846-16.238 16.238-38.362 25.473-61.4 25.473h-3.45c-26.488 0-51.656-11.773-68.605-32.171l-32.78-39.276c-11.874 4.161-24.56 6.495-37.854 6.495h-.102q-9.591 0-18.876-1.522c-3.654-.609-7.307-1.42-10.86-2.334-29.33-7.916-53.889-27.198-68.807-52.976-4.466-7.815-14.411-10.453-22.226-5.886s-10.453 14.41-5.886 22.225c24.357 42.117 69.315 71.04 121.073 72.97l47.902 71.852c4.06 6.19 6.292 13.396 6.292 20.703 0 20.602-16.745 37.347-37.347 37.347H48.714C21.82 511.797 0 489.977 0 463.083m332.876-243.567a24.3 24.3 0 0 0 24.357-24.357 24.3 24.3 0 0 0-24.357-24.357 24.3 24.3 0 0 0-24.357 24.357 24.3 24.3 0 0 0 24.357 24.357"/></svg>