<svg xmlns="http://www.w3.org/2000/svg" viewBox="0 0 512 512"><!--! Font Awesome Free 7.0.1 by @fontawesome - https://fontawesome.com License - https://fontawesome.com/license/free (Icons: CC BY 4.0, Fonts: SIL OFL 1.1, Code: MIT License) Copyright 2025 Fonticons, Inc.--><path fill="currentColor" d="M0 56.889c0-15.733 12.711-28.445 28.444-28.445h14.223c39.289 0 71.11 31.823 71.11 71.112v256c0 7.822 6.4 14.222 14.223 14.222h355.556c15.733 0 28.444 12.71 28.444 28.444s-12.711 28.445-28.444 28.445H452.71c1.6 4.444 2.4 9.244 2.4 14.222 0 23.555-19.111 42.667-42.667 42.667-23.555 0-42.666-19.112-42.666-42.667 0-4.978.889-9.778 2.4-14.222H196.622c1.6 4.444 2.4 9.244 2.4 14.222 0 23.555-19.11 42.667-42.666 42.667s-42.667-19.112-42.667-42.667c0-5.333.978-10.4 2.755-15.111-33.866-5.511-59.644-34.845-59.644-70.222l.089-256c0-7.823-6.4-14.223-14.222-14.223H28.444C12.711 85.333 0 72.623 0 56.89m156.444 99.555c0-23.555 19.112-42.666 42.667-42.666h28.445V92.444c0-27.466 22.31-49.777 49.777-49.777h56.89c27.466 0 49.777 22.31 49.777 49.777v21.334h28.444c23.556 0 42.667 19.11 42.667 42.666v128c0 23.556-19.111 42.667-42.667 42.667H199.111c-23.555 0-42.667-19.111-42.667-42.667zm184.89-42.666V92.444c0-3.91-3.2-7.11-7.112-7.11h-56.889c-3.91 0-7.11 3.2-7.11 7.11v21.334z"/></svg>