<svg xmlns="http://www.w3.org/2000/svg" viewBox="0 0 512 512"><!--! Font Awesome Free 7.0.1 by @fontawesome - https://fontawesome.com License - https://fontawesome.com/license/free (Icons: CC BY 4.0, Fonts: SIL OFL 1.1, Code: MIT License) Copyright 2025 Fonticons, Inc.--><path fill="currentColor" d="M79.311 4.07a23.78 23.78 0 0 1 25.412 3.573l40.102 34.345 40.102-34.345c8.934-7.643 22.136-7.643 30.97 0L256 41.988l40.102-34.345a23.78 23.78 0 0 1 30.97 0l40.103 34.345 40.102-34.345A23.78 23.78 0 0 1 432.69 4.07c8.437 3.871 13.896 12.308 13.896 21.64v460.58c0 9.332-5.459 17.769-13.896 21.64a23.78 23.78 0 0 1-25.412-3.573l-40.102-34.345-40.102 34.345a23.78 23.78 0 0 1-30.97 0L256 470.012l-40.102 34.345c-8.934 7.643-22.136 7.643-30.97 0l-40.103-34.345-40.102 34.345a23.78 23.78 0 0 1-25.412 3.573c-8.437-3.871-13.896-12.308-13.896-21.64V25.71c0-9.332 5.459-17.769 13.896-21.64m89.337 132.814a23.766 23.766 0 0 0-23.823 23.823 23.766 23.766 0 0 0 23.823 23.823h174.704a23.766 23.766 0 0 0 23.823-23.823 23.766 23.766 0 0 0-23.823-23.823zm-23.823 214.409a23.766 23.766 0 0 0 23.823 23.823h174.704a23.766 23.766 0 0 0 23.823-23.823 23.766 23.766 0 0 0-23.823-23.823H168.648a23.766 23.766 0 0 0-23.823 23.823m23.823-119.116A23.766 23.766 0 0 0 144.825 256a23.766 23.766 0 0 0 23.823 23.823h174.704A23.766 23.766 0 0 0 367.175 256a23.766 23.766 0 0 0-23.823-23.823z"/></svg>