<svg xmlns="http://www.w3.org/2000/svg" viewBox="0 0 512 512"><!--! Font Awesome Free 7.0.1 by @fontawesome - https://fontawesome.com License - https://fontawesome.com/license/free (Icons: CC BY 4.0, Fonts: SIL OFL 1.1, Code: MIT License) Copyright 2025 Fonticons, Inc.--><path fill="currentColor" d="M195.765 30.118v75.294h120.47V82.824H384a22.534 22.534 0 0 0 22.588-22.589A22.534 22.534 0 0 0 384 37.647h-67.765v-7.53C316.235 13.46 302.776 0 286.118 0h-60.236c-16.658 0-30.117 13.459-30.117 30.118m-30.118 120.47c-33.223 0-60.235 27.012-60.235 60.236v240.94c0 33.224 27.012 60.236 60.235 60.236h180.706c33.223 0 60.235-27.012 60.235-60.235V210.824c0-33.224-27.012-60.236-60.235-60.236zm150.588 203.294c0 33.224-27.011 52.706-60.235 52.706s-60.235-19.482-60.235-52.706c0-30.588 34.823-76.14 47.906-92.14C246.682 258.07 251.294 256 256 256s9.318 2.07 12.33 5.741c13.082 16 47.905 61.553 47.905 92.141"/></svg>