<svg xmlns="http://www.w3.org/2000/svg" viewBox="0 0 512 512"><!--! Font Awesome Free 7.0.1 by @fontawesome - https://fontawesome.com License - https://fontawesome.com/license/free (Icons: CC BY 4.0, Fonts: SIL OFL 1.1, Code: MIT License) Copyright 2025 Fonticons, Inc.--><path fill="currentColor" d="M73.143 0C52.914 0 36.57 16.343 36.57 36.571c0 20.229 16.343 36.572 36.572 36.572h36.571v365.714H73.143c-20.229 0-36.572 16.343-36.572 36.572 0 20.228 16.343 36.571 36.572 36.571h256c80.8 0 146.286-65.486 146.286-146.286 0-53.143-28.343-99.771-70.858-125.371 21.372-25.486 34.286-58.286 34.286-94.057C438.857 65.486 373.371 0 292.571 0zm292.571 146.286c0 40.343-32.8 73.143-73.143 73.143H182.857V73.143h109.714c40.343 0 73.143 32.8 73.143 73.143M182.857 438.857V292.571h146.286c40.343 0 73.143 32.8 73.143 73.143s-32.8 73.143-73.143 73.143z"/></svg>