<svg xmlns="http://www.w3.org/2000/svg" viewBox="0 0 512 512"><!--! Font Awesome Free 7.0.1 by @fontawesome - https://fontawesome.com License - https://fontawesome.com/license/free (Icons: CC BY 4.0, Fonts: SIL OFL 1.1, Code: MIT License) Copyright 2025 Fonticons, Inc.--><path fill="currentColor" d="M269.421 2.905A32.3 32.3 0 0 0 256 0a32.3 32.3 0 0 0-13.421 2.905L53.984 82.93c-22.034 9.314-38.46 31.048-38.36 57.29.501 99.354 41.365 281.138 213.935 363.767a61.18 61.18 0 0 0 52.882 0c172.67-82.629 213.534-264.413 213.935-363.768.1-26.24-16.326-47.975-38.36-57.29zM249.59 183.787 256 192.3l6.41-8.513c11.117-14.823 28.545-23.537 46.973-23.537 32.451 0 58.792 26.342 58.792 58.792v5.309c0 49.176-65.903 98.253-96.65 118.485-9.516 6.21-21.534 6.21-30.95 0-30.747-20.232-96.65-69.409-96.65-118.485v-5.309c0-32.45 26.341-58.792 58.792-58.792 18.529 0 35.956 8.714 46.973 23.537z"/></svg>