<svg xmlns="http://www.w3.org/2000/svg" viewBox="0 0 512 512"><!--! Font Awesome Free 7.0.1 by @fontawesome - https://fontawesome.com License - https://fontawesome.com/license/free (Icons: CC BY 4.0, Fonts: SIL OFL 1.1, Code: MIT License) Copyright 2025 Fonticons, Inc.--><path fill="currentColor" d="M256 147.709 175.742 14.04a22.73 22.73 0 0 0-29.693-8.633L63.893 46.485C52.604 52.082 48.05 65.743 53.648 77.032l66.027 131.961c-28.555 32.16-45.82 74.471-45.82 120.861C73.854 430.414 155.44 512 256 512s182.146-81.586 182.146-182.146c0-46.39-17.361-88.7-45.821-120.86l66.027-131.962c5.598-11.289 1.044-24.95-10.15-30.547l-82.25-41.172C355.325 0 342.328 3.795 336.257 13.946zm29.22 135.186c1.327 2.656 3.794 4.459 6.64 4.838l47.529 6.926c7.304 1.043 10.15 9.96 4.933 15.178l-34.437 33.583c-2.087 2.088-3.036 4.934-2.562 7.874l8.159 47.34c1.233 7.21-6.356 12.806-12.902 9.391l-42.5-22.389a9.05 9.05 0 0 0-8.254 0l-42.5 22.39c-6.547 3.414-14.136-2.088-12.903-9.393l8.159-47.339c.474-2.846-.475-5.786-2.562-7.874l-34.437-33.583c-5.312-5.123-2.371-14.04 4.934-15.178l47.528-6.926c2.846-.38 5.408-2.277 6.64-4.838l21.251-43.07c3.226-6.64 12.618-6.64 15.938 0l21.25 43.07z"/></svg>