<svg xmlns="http://www.w3.org/2000/svg" viewBox="0 0 512 512"><!--! Font Awesome Free 7.0.1 by @fontawesome - https://fontawesome.com License - https://fontawesome.com/license/free (Icons: CC BY 4.0, Fonts: SIL OFL 1.1, Code: MIT License) Copyright 2025 Fonticons, Inc.--><path fill="currentColor" d="M494.717 114.45c12.796 12.795 11.019 34.12-3.82 44.606l-57.403 40.608c-38.831 27.457-70.376 63.889-91.88 106.274l-22.48 44.252c-22.304 43.807-55.181 81.305-95.79 108.94l-65.843 44.962c-11.64 7.908-27.28 6.486-37.143-3.466L80.461 460.73l76.862-59.09c37.587-28.88 68.154-66.022 89.391-108.407l21.77-43.63c21.77-43.54 54.915-80.505 95.878-106.807l96.59-62.112zm-64.689-64.69-88.769 57.136c-47.45 30.479-85.748 73.22-110.983 123.602l-21.77 43.629a269.9 269.9 0 0 1-77.218 93.656l-81.216 62.468-32.79-32.789c-12.795-12.796-11.018-34.121 3.822-44.607l57.402-40.608c38.831-27.457 70.376-63.889 91.88-106.274l22.48-44.251c22.215-43.63 55.092-81.128 95.7-108.851L354.41 7.908C366.05 0 381.6 1.422 391.553 11.374l38.475 38.475z"/></svg>