<svg xmlns="http://www.w3.org/2000/svg" viewBox="0 0 512 512"><!--! Font Awesome Free 7.0.1 by @fontawesome - https://fontawesome.com License - https://fontawesome.com/license/free (Icons: CC BY 4.0, Fonts: SIL OFL 1.1, Code: MIT License) Copyright 2025 Fonticons, Inc.--><path fill="currentColor" d="M182.287 73.713C182.287 32.966 215.253 0 256 0s73.713 32.966 73.713 73.713-32.966 73.714-73.713 73.714-73.713-32.967-73.713-73.714M67.315 131.558c13.309-18.326 38.904-22.319 57.23-9.01l37.061 26.926A160.5 160.5 0 0 0 256 180.188c33.888 0 66.956-10.75 94.394-30.714l37.061-27.028c18.326-13.31 43.921-9.214 57.23 9.01 13.31 18.223 9.215 43.92-9.009 57.23l-37.061 27.028c-13.924 10.135-28.769 18.633-44.33 25.595v37.163h-196.57V241.31c-15.561-6.86-30.406-15.46-44.33-25.595l-37.061-27.029c-18.326-13.309-22.319-38.904-9.01-57.23zm91.936 189.197 62.042 54.261-26.618 38.085 24.878 24.879c15.971 15.97 15.971 41.873 0 57.946-15.971 16.074-41.873 15.972-57.947 0l-49.142-49.142c-14.128-14.128-16.074-36.242-4.71-52.52l51.395-73.509zm131.558 54.261 62.042-54.261 51.395 73.509c11.364 16.278 9.418 38.392-4.608 52.418l-49.142 49.142c-15.97 15.971-41.873 15.971-57.947 0-16.073-15.971-15.97-41.873 0-57.947L317.428 413l-26.619-38.085z"/></svg>