<svg xmlns="http://www.w3.org/2000/svg" viewBox="0 0 512 512"><!--! Font Awesome Free 7.0.1 by @fontawesome - https://fontawesome.com License - https://fontawesome.com/license/free (Icons: CC BY 4.0, Fonts: SIL OFL 1.1, Code: MIT License) Copyright 2025 Fonticons, Inc.--><path fill="currentColor" d="M269.421 2.905A32.3 32.3 0 0 0 256 0a32.3 32.3 0 0 0-13.421 2.905L53.984 82.93c-22.034 9.314-38.46 31.048-38.36 57.29.501 99.354 41.365 281.138 213.935 363.767a61.18 61.18 0 0 0 52.882 0c172.67-82.629 213.534-264.413 213.935-363.768.1-26.24-16.326-47.975-38.36-57.29zm-108.67 283.743c4.808 1.202 9.916 1.803 15.124 1.803 35.355 0 64.1-28.745 64.1-64.1v-64.1h44.27c12.118 0 23.235 6.81 28.644 17.727L320.1 192.3h64.1c8.814 0 16.025 7.212 16.025 16.026v32.05c0 44.269-35.856 80.125-80.125 80.125h-48.075v50.78c0 7.31-5.91 13.32-13.32 13.32-1.804 0-3.606-.4-5.209-1.102l-98.854-42.366c-6.61-2.804-10.817-9.315-10.817-16.426 0-2.804.6-5.508 1.903-8.012zm-.901-126.398h48.075v64.1c0 17.728-14.322 32.05-32.05 32.05s-32.05-14.322-32.05-32.05v-48.075c0-8.813 7.211-16.025 16.025-16.025m128.2 48.076c0-8.814-7.211-16.026-16.025-16.026S256 199.512 256 208.326s7.211 16.025 16.025 16.025 16.025-7.212 16.025-16.025"/></svg>