<svg xmlns="http://www.w3.org/2000/svg" viewBox="0 0 512 512"><!--! Font Awesome Free 7.0.1 by @fontawesome - https://fontawesome.com License - https://fontawesome.com/license/free (Icons: CC BY 4.0, Fonts: SIL OFL 1.1, Code: MIT License) Copyright 2025 Fonticons, Inc.--><path fill="currentColor" d="M256.996 478.04c140.822 0 254.954-107.062 254.954-239.02C511.95 107.06 397.818 0 256.996 0S2.042 107.06 2.042 239.02c0 54.078 19.121 103.874 51.389 143.91l-48.6 91.922c-4.781 8.964-3.287 19.919 3.584 27.388s17.728 9.76 26.99 5.776l117.916-50.493c31.67 13.147 66.726 20.516 103.675 20.516m3.984-350.563c10.955 0 19.918 8.963 19.918 19.918v3.984h7.967c10.955 0 19.919 8.963 19.919 19.918s-8.964 19.919-19.919 19.919H241.56c-6.872 0-12.449 5.577-12.449 12.449 0 6.075 4.382 11.253 10.358 12.25l41.53 6.97c25.196 4.184 43.72 25.994 43.72 51.59 0 25.993-18.922 47.504-43.82 51.588v4.68c0 10.956-8.963 19.919-19.918 19.919s-19.919-8.963-19.919-19.919v-3.983H217.16c-10.955 0-19.918-8.963-19.918-19.919 0-10.955 8.963-19.918 19.918-19.918h55.274c6.871 0 12.449-5.577 12.449-12.449 0-6.075-4.382-11.254-10.358-12.25l-41.53-6.97c-25.196-4.184-43.72-25.994-43.72-51.59 0-28.682 23.105-51.986 51.787-52.285v-3.984c0-10.955 8.964-19.918 19.919-19.918"/></svg>