<svg xmlns="http://www.w3.org/2000/svg" viewBox="0 0 512 512"><!--! Font Awesome Free 7.0.1 by @fontawesome - https://fontawesome.com License - https://fontawesome.com/license/free (Icons: CC BY 4.0, Fonts: SIL OFL 1.1, Code: MIT License) Copyright 2025 Fonticons, Inc.--><path fill="currentColor" d="M199.348 9.318c9.318-9.318 24.386-9.318 33.605 0l88.62 88.621 54.521-54.52c12.392-12.392 32.515-12.392 44.906 0L468.582 91c12.39 12.391 12.39 32.514 0 44.906l-54.521 54.52 88.62 88.621c9.319 9.319 9.319 24.386 0 33.605l-95.163 95.164c-9.318 9.318-24.385 9.318-33.604 0l-88.621-88.621-15.365 15.365c11.3 24.385 17.645 51.546 17.645 80.195 0 31.424-7.633 60.964-21.016 87.035-4.659 8.921-16.554 10.21-23.592 3.073l-95.461-95.461-59.478 59.477c-12.39 12.391-32.514 12.391-44.905 0s-12.391-32.514 0-44.905l59.477-59.478-95.46-95.46c-7.138-7.138-5.85-19.033 3.072-23.593 26.071-13.482 55.71-21.016 87.035-21.016 28.649 0 55.81 6.345 80.195 17.645l15.365-15.365-88.62-88.522c-9.319-9.318-9.319-24.385 0-33.604zM216.2 59.775l-61.56 61.559 71.77 71.769 61.559-61.56zm174.466 297.584 61.56-61.559-71.77-71.769-61.559 61.559z"/></svg>