<svg xmlns="http://www.w3.org/2000/svg" viewBox="0 0 512 512"><!--! Font Awesome Free 7.0.1 by @fontawesome - https://fontawesome.com License - https://fontawesome.com/license/free (Icons: CC BY 4.0, Fonts: SIL OFL 1.1, Code: MIT License) Copyright 2025 Fonticons, Inc.--><path fill="currentColor" d="M163.808 79.598c40.974-70.95 143.41-70.95 184.384 0l33.08 57.293 24.568-14.19c7.45-4.346 16.762-3.725 23.59 1.508 6.83 5.232 9.845 14.101 7.628 22.438l-20.842 77.514c-3.015 11.352-14.722 18.092-26.074 15.077l-77.514-20.753c-8.337-2.218-14.457-9.224-15.61-17.738s3.016-16.94 10.466-21.197l24.567-14.19-33.081-57.293c-19.157-33.08-66.872-33.08-86.028 0l-4.7 8.07c-7.805 13.57-25.188 18.182-38.758 10.377s-18.181-25.187-10.376-38.845zm263.76 194.317c13.57-7.804 30.953-3.193 38.757 10.377l4.7 8.07c40.975 70.951-10.198 159.64-92.147 159.64h-66.162v28.38c0 8.603-5.144 16.408-13.125 19.69-7.982 3.28-17.117 1.507-23.237-4.612l-56.76-56.761c-8.337-8.337-8.337-21.818 0-30.066l56.76-56.76c6.12-6.12 15.255-7.894 23.237-4.612s13.125 11.086 13.125 19.689v28.38h66.162c38.225 0 62.171-41.418 43.014-74.499l-4.7-8.07c-7.805-13.57-3.193-30.953 10.376-38.757zM73.966 235.158 49.4 220.968c-7.45-4.346-11.619-12.683-10.466-21.197s7.273-15.52 15.61-17.737l77.514-20.842c11.352-3.016 23.059 3.725 26.074 15.077l20.753 77.514c2.217 8.337-.798 17.117-7.627 22.438-6.83 5.321-16.141 5.853-23.591 1.508l-24.567-14.19-33.08 57.292c-19.158 33.081 4.788 74.499 43.013 74.499h9.401c15.698 0 28.38 12.682 28.38 28.38s-12.682 28.38-28.38 28.38h-9.4c-81.86 0-133.034-88.688-92.06-159.639z"/></svg>