<svg xmlns="http://www.w3.org/2000/svg" viewBox="0 0 512 512"><!--! Font Awesome Free 7.0.1 by @fontawesome - https://fontawesome.com License - https://fontawesome.com/license/free (Icons: CC BY 4.0, Fonts: SIL OFL 1.1, Code: MIT License) Copyright 2025 Fonticons, Inc.--><path fill="currentColor" d="M0 60.235C0 27.012 27.012 0 60.235 0h240.941c33.224 0 60.236 27.012 60.236 60.235V174.4c-44.141 17.882-75.294 61.176-75.294 111.718v22.964C267.67 325.647 256 349.647 256 376.376v90.353c0 5.177.47 10.26 1.224 15.153H60.235C27.012 481.882 0 454.871 0 421.647zm135.53 301.177v75.294h75.294v-60.33c0-12.894 1.788-25.411 5.176-37.27-5.365-4.894-12.424-7.812-20.235-7.812h-30.118c-16.659 0-30.118 13.459-30.118 30.118m123.294-150.306a14.4 14.4 0 0 0-2.824-.282h-30.118c-8.282 0-15.058 6.776-15.058 15.058V256c0 8.282 6.776 15.059 15.058 15.059H241.6c1.976-21.459 7.906-41.694 17.224-59.953M105.412 90.353c-8.283 0-15.06 6.776-15.06 15.059v30.117c0 8.283 6.777 15.06 15.06 15.06h30.117c8.283 0 15.06-6.777 15.06-15.06v-30.117c0-8.283-6.777-15.06-15.06-15.06zm105.412 15.059v30.117c0 8.283 6.776 15.06 15.058 15.06H256c8.282 0 15.059-6.777 15.059-15.06v-30.117c0-8.283-6.777-15.06-15.059-15.06h-30.118c-8.282 0-15.058 6.777-15.058 15.06M105.412 210.824c-8.283 0-15.06 6.776-15.06 15.058V256c0 8.282 6.777 15.059 15.06 15.059h30.117c8.283 0 15.06-6.777 15.06-15.059v-30.118c0-8.282-6.777-15.058-15.06-15.058zm331.294 75.388c0-16.66-13.459-30.118-30.118-30.118s-30.117 13.459-30.117 30.118v45.082h60.235zm-135.53 90.259c0-19.671 12.612-36.424 30.118-42.636v-47.623c0-41.6 33.694-75.294 75.294-75.294s75.294 33.694 75.294 75.294v47.623C499.388 340.047 512 356.8 512 376.471v90.353c0 24.94-20.235 45.176-45.176 45.176H346.353c-24.941 0-45.177-20.235-45.177-45.176z"/></svg>