<svg xmlns="http://www.w3.org/2000/svg" viewBox="0 0 512 512"><!--! Font Awesome Free 7.0.1 by @fontawesome - https://fontawesome.com License - https://fontawesome.com/license/free (Icons: CC BY 4.0, Fonts: SIL OFL 1.1, Code: MIT License) Copyright 2025 Fonticons, Inc.--><path fill="currentColor" d="M0 204.8c0-70.72 57.28-128 128-128h179.2c70.72 0 128 57.28 128 128V256H0zm121.6-25.6c0-10.64-8.56-19.2-19.2-19.2s-19.2 8.56-19.2 19.2 8.56 19.2 19.2 19.2 19.2-8.56 19.2-19.2m185.6 19.2c10.64 0 19.2-8.56 19.2-19.2s-8.56-19.2-19.2-19.2-19.2 8.56-19.2 19.2 8.56 19.2 19.2 19.2M224 179.2c0-10.64-8.56-19.2-19.2-19.2s-19.2 8.56-19.2 19.2 8.56 19.2 19.2 19.2 19.2-8.56 19.2-19.2M102.4 281.6h332.8v89.6c0 7.04 5.76 12.8 12.8 12.8s12.8-5.76 12.8-12.8v-38.4c0-14.16 11.44-25.6 25.6-25.6s25.6 11.44 25.6 25.6v38.4c0 35.36-28.64 64-64 64s-64-28.64-64-64v-38.4h-25.6v76.8c0 14.16-11.44 25.6-25.6 25.6h-51.2c-14.16 0-25.6-11.44-25.6-25.6v-51.2H102.4v51.2c0 14.16-11.44 25.6-25.6 25.6H25.6C11.44 435.2 0 423.76 0 409.6v-128z"/></svg>