<svg xmlns="http://www.w3.org/2000/svg" viewBox="0 0 512 512"><!--! Font Awesome Free 7.0.1 by @fontawesome - https://fontawesome.com License - https://fontawesome.com/license/free (Icons: CC BY 4.0, Fonts: SIL OFL 1.1, Code: MIT License) Copyright 2025 Fonticons, Inc.--><path fill="currentColor" d="M447.046 23.47c8.795 6.358 14.093 16.636 14.093 27.55v101.722h16.954c18.755 0 33.907 15.152 33.907 33.907s-15.152 33.907-33.907 33.907H376.37c-18.755 0-33.907-15.152-33.907-33.907s15.152-33.907 33.907-33.907h16.954V98.066l-6.252 2.12c-17.801 5.933-36.98-3.71-42.914-21.405s3.709-36.98 21.404-42.913l50.86-16.954c10.385-3.497 21.723-1.695 30.517 4.662zm-56.794 416 12.397-19.073c-34.86-10.49-60.185-42.914-60.185-81.165 0-46.835 37.933-84.768 84.768-84.768S512 292.397 512 339.232c0 24.265-6.993 48-20.238 68.344l-44.61 68.768c-10.172 15.682-31.152 20.239-46.94 9.96s-20.238-31.152-9.96-46.94zm62.41-100.238a25.37 25.37 0 0 0-25.43-25.43 25.37 25.37 0 0 0-25.43 25.43 25.37 25.37 0 0 0 25.43 25.43 25.37 25.37 0 0 0 25.43-25.43M162.967 481.854c-13.245 13.245-34.755 13.245-48 0L13.245 380.132c-13.245-13.245-13.245-34.755 0-48s34.755-13.245 48 0L105.113 376V51.02c0-18.755 15.152-33.907 33.907-33.907s33.907 15.152 33.907 33.907V376l43.868-43.868c13.245-13.245 34.755-13.245 48 0s13.245 34.755 0 48L163.073 481.854z"/></svg>