<svg xmlns="http://www.w3.org/2000/svg" viewBox="0 0 512 512"><!--! Font Awesome Free 7.0.1 by @fontawesome - https://fontawesome.com License - https://fontawesome.com/license/free (Icons: CC BY 4.0, Fonts: SIL OFL 1.1, Code: MIT License) Copyright 2025 Fonticons, Inc.--><path fill="currentColor" d="M444.426 170.396c0-25.097-20.385-45.482-45.482-45.482s-45.482 20.385-45.482 45.482 20.386 45.482 45.482 45.482c25.097 0 45.482-20.386 45.482-45.482m-210.03 37.523-71.96 60.02c.894 0 1.787-.081 2.68-.081 26.884-.163 53.848 8.284 76.67 25.502 17.95 13.483 23.635 13.483 41.585 0 22.335-16.812 48.65-25.34 75.045-25.502 3.899 0 7.878.162 11.777.487-6.741-24.365-19.736-46.863-38.01-65.137-14.944-14.944-32.975-26.558-52.792-33.95l-55.716-20.872a77.8 77.8 0 0 0-67.492 6.172L112.73 180.63c-12.345 7.391-16.325 23.31-8.934 35.655 7.39 12.345 23.31 16.325 35.655 8.934l43.452-26.152a26.13 26.13 0 0 1 22.497-2.03zm89.34 147.736c17.3-13.076 40.528-13.076 57.827 0 15.432 11.695 34.03 22.903 54.58 27.046 21.522 4.385 44.1.65 65.542-15.513 8.61-6.498 10.315-18.68 3.818-27.29-6.498-8.609-18.68-10.314-27.29-3.817-12.101 9.097-23.228 10.64-34.355 8.366-12.102-2.437-25.097-9.665-38.822-19.98-31.188-23.553-73.503-23.553-104.772 0-19.492 14.7-33.056 21.36-44.264 21.36s-24.772-6.66-44.264-21.36c-31.188-23.553-73.502-23.553-104.772 0-17.543 13.239-33.543 20.954-47.837 20.873-7.797-.081-16.163-2.436-25.34-9.34-8.61-6.497-20.792-4.792-27.29 3.817s-4.71 20.873 3.899 27.37c15.513 11.696 32 17.057 48.568 17.138 27.533.162 52.224-14.132 71.554-28.67 17.3-13.076 40.528-13.076 57.827 0 19.655 14.863 42.477 29.157 67.736 29.157s48-14.375 67.736-29.157z"/></svg>