<svg xmlns="http://www.w3.org/2000/svg" viewBox="0 0 512 512"><!--! Font Awesome Free 7.0.1 by @fontawesome - https://fontawesome.com License - https://fontawesome.com/license/free (Icons: CC BY 4.0, Fonts: SIL OFL 1.1, Code: MIT License) Copyright 2025 Fonticons, Inc.--><path fill="currentColor" d="M15.059 30.118C15.059 13.458 28.518 0 45.176 0H256c16.659 0 30.118 13.459 30.118 30.118S272.658 60.235 256 60.235v142.777c-17.412 0-34.824 6.588-48.094 19.859-20.33 20.329-25.035 50.447-14.118 75.2-25.317 9.788-43.2 34.447-43.2 63.153s17.883 53.364 43.2 63.152c-6.87 15.53-7.53 33.13-2.164 49.13-12.612 5.365-26.542 8.282-41.036 8.282-58.259 0-105.412-47.153-105.412-105.412V60.236c-16.658 0-30.117-13.46-30.117-30.118m90.353 30.117v120.47h90.353V60.236zM218.352 384a22.534 22.534 0 0 1-22.587-22.588 22.534 22.534 0 0 1 22.588-22.588c27.106 0 40.659-32.753 21.553-51.953-8.847-8.847-8.847-23.153 0-31.906s23.153-8.847 31.906 0c19.2 19.2 51.953 5.553 51.953-21.553a22.534 22.534 0 0 1 22.588-22.588 22.534 22.534 0 0 1 22.588 22.588c0 27.106 32.753 40.659 51.953 21.553 8.847-8.847 23.153-8.847 31.906 0s8.847 23.153 0 31.906c-19.2 19.2-5.553 51.953 21.553 51.953a22.534 22.534 0 0 1 22.588 22.588A22.534 22.534 0 0 1 474.353 384c-27.106 0-40.659 32.753-21.553 51.953 8.847 8.847 8.847 23.153 0 31.906s-23.153 8.847-31.906 0c-19.2-19.2-51.953-5.553-51.953 21.553A22.534 22.534 0 0 1 346.353 512a22.534 22.534 0 0 1-22.588-22.588c0-27.106-32.753-40.66-51.953-21.553-8.847 8.847-23.153 8.847-31.906 0s-8.847-23.153 0-31.906c19.2-19.2 5.553-51.953-21.553-51.953m97.883-30.118a22.534 22.534 0 0 0 22.589-22.588 22.534 22.534 0 0 0-22.589-22.588 22.534 22.534 0 0 0-22.588 22.588 22.534 22.534 0 0 0 22.588 22.588m82.824 37.647a22.534 22.534 0 0 0-22.588-22.588 22.534 22.534 0 0 0-22.589 22.588 22.534 22.534 0 0 0 22.589 22.589 22.534 22.534 0 0 0 22.588-22.589"/></svg>