<svg xmlns="http://www.w3.org/2000/svg" viewBox="0 0 512 512"><!--! Font Awesome Free 7.0.1 by @fontawesome - https://fontawesome.com License - https://fontawesome.com/license/free (Icons: CC BY 4.0, Fonts: SIL OFL 1.1, Code: MIT License) Copyright 2025 Fonticons, Inc.--><path fill="currentColor" d="M28.45 134.601C11.468 124.821 0 106.418 0 85.348 0 53.965 25.516 28.45 56.899 28.45c21.07 0 39.473 11.469 49.253 28.45h299.696c9.869-16.981 28.183-28.45 49.253-28.45 31.383 0 56.899 25.516 56.899 56.9 0 21.07-11.469 39.473-28.45 49.252V377.4c16.981 9.868 28.45 28.183 28.45 49.253 0 31.383-25.516 56.899-56.899 56.899-21.07 0-39.473-11.469-49.253-28.45H106.152c-9.869 16.981-28.183 28.45-49.253 28.45C25.516 483.55 0 458.035 0 426.65c0-21.07 11.469-39.473 28.45-49.252zm398.29 0a56.94 56.94 0 0 1-20.803-20.803H106.152A56.94 56.94 0 0 1 85.348 134.6V377.4a56.94 56.94 0 0 1 20.804 20.803h299.696a56.94 56.94 0 0 1 20.804-20.803V134.6zm-298.718 50.32c0-15.736 12.714-28.45 28.45-28.45h99.572c15.737 0 28.45 12.714 28.45 28.45v56.899c0 15.736-12.713 28.45-28.45 28.45h-99.572c-15.736 0-28.45-12.714-28.45-28.45zm99.573 128.022h28.45c39.295 0 71.123-31.828 71.123-71.123h28.45c15.735 0 28.449 12.713 28.449 28.45v56.898c0 15.736-12.714 28.45-28.45 28.45h-99.573c-15.736 0-28.449-12.714-28.449-28.45z"/></svg>