<svg xmlns="http://www.w3.org/2000/svg" viewBox="0 0 512 512"><!--! Font Awesome Free 7.0.1 by @fontawesome - https://fontawesome.com License - https://fontawesome.com/license/free (Icons: CC BY 4.0, Fonts: SIL OFL 1.1, Code: MIT License) Copyright 2025 Fonticons, Inc.--><path fill="currentColor" d="M240.941 0c49.883 0 90.353 40.47 90.353 90.353s-40.47 90.353-90.353 90.353-90.353-40.47-90.353-90.353S191.058 0 240.941 0M15.06 316.235c0-65.976 44.235-123.67 110.212-155.2 23.811 38.87 66.729 64.847 115.67 64.847 52.424 0 97.977-29.835 120.47-73.411 14.871-10.636 33.036-16.942 52.707-16.942h18.353c9.788 0 16.94 9.224 14.588 18.73l-16.094 64.282c9.317 11.67 17.13 24.188 22.964 37.459h20.424a22.534 22.534 0 0 1 22.588 22.588V384a22.534 22.534 0 0 1-22.588 22.588h-37.647c-15.53 20.706-36.235 37.27-60.235 47.718v27.576c0 16.66-13.46 30.118-30.118 30.118h-31.059c-13.459 0-25.223-8.941-28.988-21.835l-6.682-23.341h-77.46l-6.682 23.34C191.812 503.06 180.047 512 166.588 512H135.53c-16.658 0-30.117-13.459-30.117-30.118v-27.576c-53.177-23.247-90.353-76.33-90.353-138.07m353.882 15.06a22.534 22.534 0 0 0 22.588-22.59 22.534 22.534 0 0 0-22.588-22.587 22.534 22.534 0 0 0-22.588 22.588 22.534 22.534 0 0 0 22.588 22.588"/></svg>