<svg xmlns="http://www.w3.org/2000/svg" viewBox="0 0 512 512"><!--! Font Awesome Free 7.0.1 by @fontawesome - https://fontawesome.com License - https://fontawesome.com/license/free (Icons: CC BY 4.0, Fonts: SIL OFL 1.1, Code: MIT License) Copyright 2025 Fonticons, Inc.--><path fill="currentColor" d="M153.544 153.584c0-14.162 11.442-25.604 25.604-25.604s25.604 11.442 25.604 25.604v6.241c0 22.163-1.92 44.247-5.68 66.01l-67.531 20.243c-32.486 9.762-54.729 39.687-54.729 73.612v25.924H19.203A19.157 19.157 0 0 0 0 364.817a19.157 19.157 0 0 0 19.203 19.203h58.01c3.36 28.805 27.843 51.208 57.608 51.208a57.92 57.92 0 0 0 50.328-29.205l11.122-19.443c21.443-37.605 37.205-78.172 46.727-120.418l75.532-22.644-10.002 30.005c-2.64 7.841-1.28 16.402 3.52 23.043 4.802 6.641 12.483 10.642 20.724 10.642h102.416c14.162 0 25.604-11.442 25.604-25.604S449.35 256 435.188 256h-66.89l14.402-43.127c3.04-9.041.72-19.043-5.921-25.924-6.641-6.88-16.563-9.441-25.764-6.72l-97.935 29.444a432 432 0 0 0 2.88-49.848v-6.241c0-42.407-34.405-76.812-76.812-76.812s-76.812 34.405-76.812 76.812v25.604c0 14.162 11.442 25.604 25.604 25.604s25.604-11.442 25.604-25.604zm-7.361 141.622 39.206-11.762a385 385 0 0 1-33.685 77.772l-11.122 19.443c-1.2 2.08-3.44 3.441-5.921 3.441a6.795 6.795 0 0 1-6.801-6.801V319.77c0-11.282 7.441-21.283 18.243-24.564zm346.614 88.814A19.157 19.157 0 0 0 512 364.817a19.157 19.157 0 0 0-19.203-19.203H258.44a485 485 0 0 1-17.282 38.406z"/></svg>