<svg xmlns="http://www.w3.org/2000/svg" viewBox="0 0 512 512"><!--! Font Awesome Free 7.0.1 by @fontawesome - https://fontawesome.com License - https://fontawesome.com/license/free (Icons: CC BY 4.0, Fonts: SIL OFL 1.1, Code: MIT License) Copyright 2025 Fonticons, Inc.--><path fill="currentColor" d="M76.41 36.224C76.41 16.187 92.596 0 112.632 0H411.48a27.103 27.103 0 0 1 27.168 27.168 27.103 27.103 0 0 1-27.168 27.168h-86.824c20.037 22.413 34.073 50.486 39.28 81.503h47.544a27.103 27.103 0 0 1 27.168 27.168 27.103 27.103 0 0 1-27.168 27.168h-47.544c-11.772 70.41-68.825 125.538-140.14 134.594l163.46 116.708c16.3 11.66 20.036 34.3 8.376 50.487s-34.3 20.036-50.487 8.376L91.578 319.222c-12.791-9.056-18.225-25.47-13.47-40.526 4.754-15.055 18.79-25.13 34.525-25.13h90.56c40.525 0 74.824-26.602 86.37-63.391H103.578a27.103 27.103 0 0 1-27.168-27.168 27.103 27.103 0 0 1 27.168-27.168h185.987c-11.547-36.79-45.846-63.392-86.371-63.392h-90.56c-20.036 0-36.224-16.187-36.224-36.223"/></svg>