<svg xmlns="http://www.w3.org/2000/svg" viewBox="0 0 512 512"><!--! Font Awesome Free 7.0.1 by @fontawesome - https://fontawesome.com License - https://fontawesome.com/license/free (Icons: CC BY 4.0, Fonts: SIL OFL 1.1, Code: MIT License) Copyright 2025 Fonticons, Inc.--><path fill="currentColor" d="m290.446 27.031 60.07 60.07c5.82 5.82 15.393 5.82 21.212 0l60.07-60.07c4.317-4.317 5.537-10.793 3.285-16.331-2.253-5.538-7.79-9.292-13.891-9.292h-120.14c-6.1 0-11.544 3.66-13.89 9.292s-1.033 12.108 3.284 16.331M140.272 5.82l-60.07 60.07c-4.317 4.317-5.537 10.794-3.285 16.331 2.253 5.538 7.79 9.292 13.891 9.292h120.14c6.1 0 11.544-3.66 13.89-9.292s1.033-12.107-3.284-16.331l-60.07-60.07C155.664 0 146.091 0 140.272 5.82M75.791 151.582c-33.132 0-60.07 26.938-60.07 60.07V451.93c0 33.133 26.938 60.07 60.07 60.07h360.418c33.132 0 60.07-26.937 60.07-60.07V211.652c0-33.132-26.938-60.07-60.07-60.07zm90.105 90.105c24.872 0 45.052 20.18 45.052 45.052s-20.18 45.052-45.052 45.052c-24.873 0-45.053-20.18-45.053-45.052 0-24.873 20.18-45.052 45.053-45.052M90.808 406.878c0-24.873 20.18-45.052 45.053-45.052h60.07c24.872 0 45.052 20.18 45.052 45.052v15.018c0 16.613-13.422 30.034-30.035 30.034h-90.105c-16.613 0-30.035-13.421-30.035-30.034zm180.21 0c0-24.873 20.18-45.052 45.052-45.052h60.07c24.872 0 45.052 20.18 45.052 45.052v15.018c0 16.613-13.422 30.034-30.035 30.034h-90.105c-16.613 0-30.035-13.421-30.035-30.034zm30.034-120.14c0-24.872 20.18-45.051 45.052-45.051 24.873 0 45.053 20.18 45.053 45.052s-20.18 45.052-45.053 45.052-45.052-20.18-45.052-45.052"/></svg>