<svg xmlns="http://www.w3.org/2000/svg" viewBox="0 0 512 512"><!--! Font Awesome Free 7.0.1 by @fontawesome - https://fontawesome.com License - https://fontawesome.com/license/free (Icons: CC BY 4.0, Fonts: SIL OFL 1.1, Code: MIT License) Copyright 2025 Fonticons, Inc.--><path fill="currentColor" d="M347.464 144.843a150.4 150.4 0 0 1 17.993 17.694c8.697 10.196 23.691 13.994 35.087 6.897l54.078-33.787c11.196-6.997 14.695-21.692 6.898-32.187a260.2 260.2 0 0 0-54.08-53.78c-10.395-7.596-24.69-4.298-31.787 6.398l-35.086 52.58c-7.797 11.595-3.799 27.289 6.997 36.185zm-19.692-103.66c8.597-12.894 2.899-30.487-12.195-34.086C296.484 2.5 276.492.1 256 .1s-40.384 2.399-59.577 6.997c-15.094 3.599-20.792 21.192-12.195 34.087l39.984 59.976c5.198 7.797 14.495 11.696 23.891 11.196 5.198-.3 10.596-.3 15.794 0 9.396.5 18.693-3.399 23.89-11.196zM50.58 103.36c-7.897 10.496-4.298 25.29 6.898 32.187l54.078 33.787c11.396 7.097 26.29 3.299 35.087-6.897a150.4 150.4 0 0 1 17.993-17.694c10.795-8.896 14.794-24.59 6.997-36.185l-35.186-52.58c-7.098-10.696-21.492-13.994-31.788-6.397C84.067 64.675 65.874 82.868 50.58 103.36m61.976 141.045c.8-9.897-3.299-19.893-11.795-25.09l-59.677-37.286c-12.895-7.997-29.888-2.3-33.587 12.495C2.6 214.216 0 234.808 0 256.1v23.99a23.933 23.933 0 0 0 23.99 23.991h63.976a23.933 23.933 0 0 0 23.99-23.99V256.1c0-3.899.2-7.797.5-11.596zm286.988 0c.3 3.798.5 7.697.5 11.595v23.99a23.933 23.933 0 0 0 23.99 23.991h63.975A23.933 23.933 0 0 0 512 279.991V256c0-21.192-2.599-41.784-7.497-61.576-3.599-14.694-20.692-20.492-33.587-12.495l-59.677 37.285c-8.396 5.298-12.595 15.194-11.795 25.09zM88.066 351.963H24.09A23.933 23.933 0 0 0 .1 375.953V487.91A23.933 23.933 0 0 0 24.09 511.9h63.976a23.933 23.933 0 0 0 23.99-23.99V375.952a23.933 23.933 0 0 0-23.99-23.99m399.843 0h-63.975a23.933 23.933 0 0 0-23.99 23.99V487.91a23.933 23.933 0 0 0 23.99 23.991h63.975a23.933 23.933 0 0 0 23.991-23.99V375.952a23.933 23.933 0 0 0-23.99-23.99M279.991 184.028A23.933 23.933 0 0 0 256 160.038a23.933 23.933 0 0 0-23.99 23.99V487.91A23.933 23.933 0 0 0 256 511.9a23.933 23.933 0 0 0 23.99-23.99zm-79.97 31.988a23.933 23.933 0 0 0-23.99-23.991 23.933 23.933 0 0 0-23.99 23.99V487.91a23.933 23.933 0 0 0 23.99 23.991 23.933 23.933 0 0 0 23.99-23.99zm159.938 0a23.933 23.933 0 0 0-23.99-23.991 23.933 23.933 0 0 0-23.99 23.99V487.91a23.933 23.933 0 0 0 23.99 23.991 23.933 23.933 0 0 0 23.99-23.99z"/></svg>