<svg xmlns="http://www.w3.org/2000/svg" viewBox="0 0 512 512"><!--! Font Awesome Free 7.0.1 by @fontawesome - https://fontawesome.com License - https://fontawesome.com/license/free (Icons: CC BY 4.0, Fonts: SIL OFL 1.1, Code: MIT License) Copyright 2025 Fonticons, Inc.--><path fill="currentColor" d="M278.588 22.588A22.534 22.534 0 0 0 256 0a22.534 22.534 0 0 0-22.588 22.588v60.236A22.534 22.534 0 0 0 256 105.412a22.534 22.534 0 0 0 22.588-22.588zM181.93 225.882h148.236c6.306 0 11.859 3.86 14.117 9.789l24.565 65.505H143.341l24.565-65.505c2.165-5.836 7.812-9.789 14.118-9.789zM77.176 305.694l-1.223 3.2c-18.353 10.259-30.777 29.93-30.777 52.518v120.47c0 16.66 13.46 30.118 30.118 30.118h15.059c16.659 0 30.118-13.459 30.118-30.118v-30.117h271.058v30.117c0 16.66 13.46 30.118 30.118 30.118h15.059c16.659 0 30.118-13.459 30.118-30.118v-120.47c0-22.588-12.424-42.26-30.871-52.612l-1.224-3.2-34.164-91.2c-11.012-29.365-39.153-48.847-70.494-48.847H181.835c-31.34 0-59.482 19.482-70.494 48.847zm58.353 40.659c16.66 0 30.118 13.459 30.118 30.118s-13.459 30.117-30.118 30.117-30.117-13.459-30.117-30.117c0-16.66 13.459-30.118 30.117-30.118m210.824 30.118c0-16.66 13.459-30.118 30.118-30.118s30.117 13.459 30.117 30.118-13.459 30.117-30.117 30.117c-16.66 0-30.118-13.459-30.118-30.117M51.765 36.706c-8.753 8.847-8.753 23.153 0 32l45.176 45.176c8.847 8.847 23.153 8.847 31.906 0s8.847-23.153.094-32L83.765 36.706c-8.847-8.753-23.153-8.753-32 0m376.47 0L383.06 81.882c-8.847 8.847-8.847 23.153 0 31.906s23.153 8.847 31.906 0l45.176-45.176c8.847-8.847 8.847-23.153 0-31.906s-23.059-8.753-31.906 0"/></svg>