<svg xmlns="http://www.w3.org/2000/svg" viewBox="0 0 512 512"><!--! Font Awesome Free 7.0.1 by @fontawesome - https://fontawesome.com License - https://fontawesome.com/license/free (Icons: CC BY 4.0, Fonts: SIL OFL 1.1, Code: MIT License) Copyright 2025 Fonticons, Inc.--><path fill="currentColor" d="M38.259 8.287C29.972 0 16.573 0 8.375 8.287.176 16.573.088 29.972 8.287 38.259L473.74 503.713c8.287 8.287 21.686 8.287 29.884 0 8.199-8.286 8.287-21.685 0-29.884L341.95 312.154l6.26-6.788h112.22c27.24 0 49.366-22.126 49.366-49.366s-22.127-49.366-49.366-49.366l-112.132-.089L207.956 53.51c-5.29-5.819-12.87-9.168-20.804-9.168h-38.524c-9.609 0-16.397 9.432-13.4 18.6l21.246 63.56zm78.634 198.258H95.207L48.66 148.364c-2.644-3.35-6.7-5.29-11.02-5.29H20.188c-9.168 0-15.867 8.64-13.664 17.543l23.802 95.295-23.802 95.295c-2.292 8.903 4.496 17.542 13.664 17.542h17.455c4.32 0 8.375-1.94 11.02-5.289l46.545-58.182h87.89l-47.868 143.604c-3.086 9.168 3.79 18.6 13.4 18.6h38.523c7.933 0 15.427-3.35 20.804-9.168l76.87-83.835z"/></svg>