<svg xmlns="http://www.w3.org/2000/svg" viewBox="0 0 512 512"><!--! Font Awesome Free 7.0.1 by @fontawesome - https://fontawesome.com License - https://fontawesome.com/license/free (Icons: CC BY 4.0, Fonts: SIL OFL 1.1, Code: MIT License) Copyright 2025 Fonticons, Inc.--><path fill="currentColor" d="M347.011 6.087C353.098 0 363.113 0 369.2 6.087l15.708 15.709c6.087 6.087 6.087 16.1 0 22.188L369.2 59.692c-6.087 6.087-16.102 6.087-22.189 0l-15.708-15.708c-6.087-6.087-6.087-16.101 0-22.188zM138.186 158.558a47.05 47.05 0 0 0-28.275 9.425c-13.844 10.407-33.577 7.658-43.984-6.283s-7.658-33.577 6.283-43.984c18.36-13.843 41.235-21.992 65.976-21.992 60.772 0 109.96 49.187 109.96 109.96 0 16.886-3.83 32.89-10.604 47.125h48.795c12.469 0 24.447-4.909 33.283-13.843l20.322-20.323c18.36-18.36 43.297-28.766 69.314-28.766 54.195 0 98.08 43.886 98.08 98.08v94.35c0 54.194-43.983 98.178-98.178 98.178s-98.178-43.886-98.178-98.08v-3.928c0-17.377 14.04-31.417 31.417-31.417s31.417 14.04 31.417 31.417v3.928c0 19.537 15.807 35.344 35.344 35.344 19.538 0 35.344-15.807 35.344-35.344v-94.35c0-19.44-15.806-35.246-35.246-35.246-9.327 0-18.26 3.731-24.937 10.309l-20.323 20.323c-20.617 20.617-48.5 32.202-77.659 32.202h-26.312c12.37 19.243 19.538 42.02 19.538 66.762 0 73.83-63.816 129.595-137.45 129.595S4.663 456.235 4.663 382.405c0-17.378 14.04-31.417 31.418-31.417 17.377 0 31.417 14.039 31.417 31.417 0 34.657 31.122 66.76 74.615 66.76s74.616-32.103 74.616-66.76-31.123-66.762-74.616-66.762h-19.636c-17.377 0-31.417-14.04-31.417-31.417s14.04-31.417 31.417-31.417h15.709c26.017 0 47.126-21.108 47.126-47.125 0-26.018-21.109-47.126-47.126-47.126m158.165-98.08c-10.8-13.549-30.533-15.905-44.18-5.105s-15.905 30.533-5.105 44.18c25.232 31.711 66.27 51.15 111.04 51.15 44.769 0 85.807-19.439 111.04-51.15 10.799-13.549 8.54-33.38-5.106-44.18-13.647-10.8-33.38-8.542-44.18 5.105-12.37 15.61-34.755 27.392-61.755 27.392-26.999 0-49.383-11.782-61.754-27.392"/></svg>