<svg xmlns="http://www.w3.org/2000/svg" viewBox="0 0 512 512"><!--! Font Awesome Free 7.0.1 by @fontawesome - https://fontawesome.com License - https://fontawesome.com/license/free (Icons: CC BY 4.0, Fonts: SIL OFL 1.1, Code: MIT License) Copyright 2025 Fonticons, Inc.--><path fill="currentColor" d="M73.143 0C32.8 0 0 32.8 0 73.143v365.714C0 479.2 32.8 512 73.143 512h365.714C479.2 512 512 479.2 512 438.857V73.143C512 32.8 479.2 0 438.857 0zm73.143 73.143v73.143h73.143V73.143h73.142v73.143h73.143V73.143h73.143v73.143h-73.143v73.143h73.143v73.142h-73.143v73.143h73.143v73.143h-73.143v-73.143h-73.143v73.143H219.43v-73.143h-73.143v73.143H73.143v-73.143h73.143v-73.143H73.143V219.43h73.143v-73.143H73.143V73.143zm73.143 146.286h73.142v-73.143H219.43zm0 73.142V219.43h-73.143v73.142zm73.142 0H219.43v73.143h73.142zm0 0h73.143V219.43h-73.143z"/></svg>