<svg xmlns="http://www.w3.org/2000/svg" viewBox="0 0 512 512"><!--! Font Awesome Free 7.0.1 by @fontawesome - https://fontawesome.com License - https://fontawesome.com/license/free (Icons: CC BY 4.0, Fonts: SIL OFL 1.1, Code: MIT License) Copyright 2025 Fonticons, Inc.--><path fill="currentColor" d="M127.378 113.778c-12.445 0-23.556 8.178-27.2 20.089L62.578 256H199.11c15.733 0 28.445 12.711 28.445 28.444h56.888c0-15.733 12.712-28.444 28.445-28.444h136.533l-37.6-122.133c-3.644-11.911-14.666-20.09-27.2-20.09h-29.066c-15.734 0-28.445-12.71-28.445-28.444s12.711-28.444 28.445-28.444h29.066c37.422 0 70.578 24.444 81.6 60.267l40.356 131.11C510.222 260 512 272.179 512 284.445v85.334c0 47.11-38.222 85.333-85.333 85.333h-56.89c-47.11 0-85.333-38.222-85.333-85.333v-28.445h-56.888v28.445c0 47.11-38.223 85.333-85.334 85.333H85.333C38.223 455.111 0 416.89 0 369.778v-85.334C0 272.178 1.867 260 5.422 248.267l40.356-131.111c11.022-35.823 44.089-60.267 81.6-60.267h29.066c15.734 0 28.445 12.711 28.445 28.444 0 15.734-12.711 28.445-28.445 28.445zm-70.49 199.11v56.89c0 15.733 12.712 28.444 28.445 28.444h56.89c15.733 0 28.444-12.71 28.444-28.444v-56.89zm369.779 85.334c15.733 0 28.444-12.71 28.444-28.444v-56.89H341.333v56.89c0 15.733 12.711 28.444 28.445 28.444z"/></svg>