<svg xmlns="http://www.w3.org/2000/svg" viewBox="0 0 512 512"><!--! Font Awesome Free 7.0.1 by @fontawesome - https://fontawesome.com License - https://fontawesome.com/license/free (Icons: CC BY 4.0, Fonts: SIL OFL 1.1, Code: MIT License) Copyright 2025 Fonticons, Inc.--><path fill="currentColor" d="M261.412 67.388 200.8 128l31.435 31.435c11.765 11.765 11.765 30.87 0 42.636-11.764 11.764-30.87 11.764-42.635 0l-31.435-31.436-90.73 90.73c-2.73 2.73-4.8 6.117-5.93 9.694h302.59l50.54-50.541a24.37 24.37 0 0 0 7.153-17.224c0-6.4-2.54-12.706-7.153-17.223L295.86 67.388c-4.518-4.612-10.73-7.153-17.224-7.153s-12.706 2.541-17.223 7.153M24.8 218.73 115.53 128 69.034 81.506c-11.764-11.765-11.764-30.87 0-42.635 11.765-11.765 30.87-11.765 42.636 0l46.494 46.494 60.611-60.612C234.682 8.94 256.141 0 278.636 0c22.493 0 43.952 8.941 59.858 24.753l118.682 118.682c15.812 15.906 24.753 37.365 24.753 59.86 0 22.493-8.94 43.952-24.753 59.858L263.2 457.129c-15.906 15.812-37.365 24.753-59.859 24.753s-43.953-8.94-59.859-24.753L24.8 338.447C8.988 322.541.047 301.082.047 278.588S8.988 234.635 24.8 218.73M451.812 512c-33.224 0-60.236-27.012-60.236-60.235 0-23.718 30.683-74.918 48.189-102.306 5.647-8.847 18.353-8.847 24 0 17.6 27.388 48.188 78.588 48.188 102.306 0 33.223-27.012 60.235-60.235 60.235z"/></svg>