<svg xmlns="http://www.w3.org/2000/svg" viewBox="0 0 512 512"><!--! Font Awesome Free 7.0.1 by @fontawesome - https://fontawesome.com License - https://fontawesome.com/license/free (Icons: CC BY 4.0, Fonts: SIL OFL 1.1, Code: MIT License) Copyright 2025 Fonticons, Inc.--><path fill="currentColor" d="m228.652 395.68-83.986 83.985c-13.123 13.123-34.434 13.123-47.557 0L13.123 395.68C0 382.556 0 361.245 13.123 348.122s34.434-13.123 47.557 0l26.665 26.666V52.806c0-18.582 15.013-33.594 33.595-33.594s33.594 15.012 33.594 33.594v321.982l26.666-26.666c13.123-13.123 34.434-13.123 47.557 0s13.123 34.434 0 47.557zM419.72 37.793c53.226 106.347 81.152 162.408 83.986 167.972 8.294 16.587 1.575 36.744-15.012 45.037-16.587 8.294-36.744 1.575-45.038-15.012l-7.558-15.013h-92.805l-7.559 15.013c-8.293 16.587-28.45 23.306-45.037 15.012-16.588-8.293-23.306-28.45-15.013-45.037 2.835-5.564 30.76-61.625 83.986-167.972 5.67-11.338 17.322-18.582 30.025-18.582s24.356 7.139 30.025 18.582m-30.025 90.18-21.206 42.413h42.413zM288.912 321.562c0-18.582 15.013-33.595 33.594-33.595h134.378c13.543 0 25.826 8.189 31.075 20.787 5.25 12.598 2.31 26.98-7.244 36.639l-77.057 76.952h53.226c18.582 0 33.595 15.012 33.595 33.594s-15.013 33.595-33.595 33.595H322.506c-13.542 0-25.825-8.189-31.074-20.787s-2.31-26.98 7.243-36.639l77.058-77.057h-53.227c-18.581 0-33.594-15.012-33.594-33.594z"/></svg>