<svg xmlns="http://www.w3.org/2000/svg" viewBox="0 0 512 512"><!--! Font Awesome Free 7.0.1 by @fontawesome - https://fontawesome.com License - https://fontawesome.com/license/free (Icons: CC BY 4.0, Fonts: SIL OFL 1.1, Code: MIT License) Copyright 2025 Fonticons, Inc.--><path fill="currentColor" d="m145.2 208.88 10.32 5.12c4.72 2.4 9.92 3.6 15.28 3.6 18.8 0 34.08-15.28 34.08-34.08V166.4c0-28.24-22.96-51.2-51.2-51.2h-51.2c-28.24 0-51.2 22.96-51.2 51.2v17.12c0 18.8 15.28 34.08 34.08 34.08 5.28 0 10.48-1.2 15.28-3.6 7.44-3.76 13.12-6.56 16.96-8.48l-9.52-6.32c-3.6-2.4-5.68-6.4-5.68-10.64v-2.96c0-10.64 8.56-19.2 19.2-19.2h12.8c10.64 0 19.2 8.56 19.2 19.2v2.96c0 4.24-2.16 8.24-5.68 10.64l-9.44 6.32zm-6.88 39.52L128 243.28l-10.32 5.12c-10.08 5.04-21.2 7.68-32.4 7.68-2.88 0-5.68-.16-8.48-.48v.48c0 28.24 22.96 51.2 51.2 51.2h51.2c14.16 0 25.6 11.44 25.6 25.6s-11.44 25.6-25.6 25.6h128v-51.2c0-18.96 10.32-35.52 25.6-44.32 7.52-4.32 16.24-6.88 25.6-6.88v-12.8c0-21.2 17.2-38.4 38.4-38.4 7.04 0 12.8 5.76 12.8 12.8v76.8c0 7.04 5.76 12.8 12.8 12.8s12.8-5.76 12.8-12.8v-79.76c0-38.56-24.64-72.8-61.28-85.04l-6.8-2.24c-6.4-2.16-10.08-8.88-8.32-15.44s8.24-10.56 14.88-9.28l15.92 3.2c71.2 14.16 122.4 76.64 122.4 149.2v.88c0 98.96-80.24 179.2-179.2 179.2H204.32c-98.72 0-178.72-80-178.72-178.72v-31.84c-8.08-11.68-12.8-25.84-12.8-41.12v-18.24C5.36 162.64 0 155.6 0 147.2 0 136.56 8.56 128 19.2 128h2.24c14.4-30.24 45.2-51.2 80.96-51.2h51.2c35.76 0 66.56 20.96 80.96 51.2h2.24c10.64 0 19.2 8.56 19.2 19.2 0 8.4-5.36 15.44-12.8 18.08v18.24c0 1.12 0 2.24-.08 3.44 9.6-4.96 20.56-7.68 32.08-7.68h6.4c14.16 0 25.6 11.44 25.6 25.6s-11.44 25.6-25.6 25.6h-6.4c-10.64 0-19.2 8.56-19.2 19.2v6.4h45.12c-12.16 13.6-19.52 31.52-19.52 51.2H256c-33.84 0-62.56-21.92-72.8-52.24-4.08.72-8.24 1.04-12.48 1.04-11.28 0-22.32-2.64-32.4-7.68M76.8 153.6c7.04 0 12.8 5.76 12.8 12.8s-5.76 12.8-12.8 12.8S64 173.44 64 166.4s5.76-12.8 12.8-12.8m89.6 12.8c0-7.04 5.76-12.8 12.8-12.8s12.8 5.76 12.8 12.8-5.76 12.8-12.8 12.8-12.8-5.76-12.8-12.8"/></svg>