<svg xmlns="http://www.w3.org/2000/svg" viewBox="0 0 512 512"><!--! Font Awesome Free 7.0.1 by @fontawesome - https://fontawesome.com License - https://fontawesome.com/license/free (Icons: CC BY 4.0, Fonts: SIL OFL 1.1, Code: MIT License) Copyright 2025 Fonticons, Inc.--><path fill="currentColor" d="M256 368.92c9.252 0 18.411 2.127 26.83 6.476l68.835 35.064-12.028-76.328c-2.96-18.689 3.238-37.655 16.561-51.07l54.586-54.679-76.328-12.12c-18.689-2.96-34.88-14.71-43.484-31.549l-35.157-68.834v253.132zm156.635 125.27c-6.754 4.904-15.729 5.644-23.13 1.85L256 428.132 122.495 496.04c-7.401 3.794-16.376 3.054-23.13-1.85-6.754-4.903-10.177-13.138-8.881-21.464l23.314-147.938L7.957 218.854C2.035 212.932 0 204.236 2.59 196.279c2.59-7.957 9.344-13.785 17.67-15.08l147.938-23.5 68.094-133.413c3.794-7.401 11.473-12.12 19.8-12.12s16.005 4.719 19.799 12.12L343.8 157.7l147.937 23.5a22.24 22.24 0 0 1 17.671 15.08c2.591 7.957.463 16.653-5.366 22.575L398.11 324.788l23.407 147.938c1.296 8.234-2.127 16.56-8.881 21.464"/></svg>