<svg xmlns="http://www.w3.org/2000/svg" viewBox="0 0 512 512"><!--! Font Awesome Free 7.0.1 by @fontawesome - https://fontawesome.com License - https://fontawesome.com/license/free (Icons: CC BY 4.0, Fonts: SIL OFL 1.1, Code: MIT License) Copyright 2025 Fonticons, Inc.--><path fill="currentColor" d="M225.496 10.715a61.91 61.91 0 0 1 61.008 0l169.894 96.241c19.306 11.005 31.276 31.47 31.276 53.768v190.552c0 22.202-11.97 42.763-31.276 53.768l-169.894 96.241c-18.92 10.715-42.088 10.715-60.911 0L55.698 405.044c-19.402-10.908-31.372-31.47-31.372-53.671V160.82c0-22.203 11.97-42.764 31.276-53.768L225.496 10.81zm-117.574 142.19c-8.495-2.992-18.148.29-22.975 8.302-4.826 8.012-3.089 18.05 3.475 24.132l3.09 2.317L236.5 274.727v143.541c0 10.619 8.688 19.307 19.306 19.307s19.306-8.688 19.306-19.307V274.727l145.086-87.07c9.17-5.503 12.163-17.376 6.66-26.45-5.502-9.074-17.375-12.067-26.449-6.661l-144.507 86.685-144.506-86.685-3.572-1.641z"/></svg>