<svg xmlns="http://www.w3.org/2000/svg" viewBox="0 0 512 512"><!--! Font Awesome Free 7.0.1 by @fontawesome - https://fontawesome.com License - https://fontawesome.com/license/free (Icons: CC BY 4.0, Fonts: SIL OFL 1.1, Code: MIT License) Copyright 2025 Fonticons, Inc.--><path fill="currentColor" d="M256 0c16.659 0 30.118 13.459 30.118 30.118V32C404.988 46.776 496.94 148.235 496.94 271.059c0 3.576-.094 7.059-.188 10.635-.282 6.494-4.706 12.047-11.012 13.835s-12.988-.658-16.565-6.117C455.624 269.27 432.66 256 406.588 256c-27.576 0-51.67 14.776-64.847 36.988-2.541 4.33-7.153 7.153-12.235 7.341s-9.882-2.07-12.894-6.117c-13.741-18.636-35.765-30.683-60.706-30.683s-46.965 12.047-60.706 30.683c-3.012 4.047-7.812 6.4-12.894 6.117-5.082-.282-9.6-3.011-12.235-7.34C156.894 270.775 132.8 256 105.224 256c-26.071 0-49.036 13.27-62.589 33.412-3.67 5.364-10.353 7.906-16.564 6.117s-10.542-7.34-10.824-13.835c-.094-3.576-.188-7.059-.188-10.635 0-122.824 91.953-224.283 210.823-239.059v-1.882C225.882 13.458 239.342 0 256 0m30.118 338.824v96.564c0 42.353-34.353 76.612-76.612 76.612-28.988 0-55.53-16.376-68.518-42.353l-2.164-4.423c-7.436-14.871-1.412-32.942 13.458-40.377s32.942-1.412 40.377 13.459l2.165 4.423c2.823 5.553 8.47 9.036 14.682 9.036 9.035 0 16.376-7.341 16.376-16.377v-96.564c0-16.66 13.46-30.118 30.118-30.118 16.659 0 30.118 13.459 30.118 30.118"/></svg>