<svg xmlns="http://www.w3.org/2000/svg" viewBox="0 0 512 512"><!--! Font Awesome Free 7.0.1 by @fontawesome - https://fontawesome.com License - https://fontawesome.com/license/free (Icons: CC BY 4.0, Fonts: SIL OFL 1.1, Code: MIT License) Copyright 2025 Fonticons, Inc.--><path fill="currentColor" d="M56.889 85.333C25.51 85.333 0 110.844 0 142.223v227.555c0 31.378 25.511 56.889 56.889 56.889H455.11c31.378 0 56.889-25.511 56.889-56.89V142.223c0-31.378-25.511-56.889-56.889-56.889zm14.222 56.89h28.445c7.822 0 14.222 6.4 14.222 14.221v28.445c0 7.822-6.4 14.222-14.222 14.222H71.11c-7.822 0-14.222-6.4-14.222-14.222v-28.445c0-7.822 6.4-14.222 14.222-14.222M56.89 241.777c0-7.822 6.4-14.222 14.222-14.222h28.445c7.822 0 14.222 6.4 14.222 14.222v28.444c0 7.822-6.4 14.222-14.222 14.222H71.11c-7.822 0-14.222-6.4-14.222-14.222zm99.555-99.556h28.445c7.822 0 14.222 6.4 14.222 14.222v28.445c0 7.822-6.4 14.222-14.222 14.222h-28.445c-7.822 0-14.222-6.4-14.222-14.222v-28.445c0-7.822 6.4-14.222 14.222-14.222m-14.222 99.556c0-7.822 6.4-14.222 14.222-14.222h28.445c7.822 0 14.222 6.4 14.222 14.222v28.444c0 7.822-6.4 14.222-14.222 14.222h-28.445c-7.822 0-14.222-6.4-14.222-14.222zm14.222 71.11h199.112c7.822 0 14.222 6.4 14.222 14.223v28.445c0 7.822-6.4 14.222-14.222 14.222H156.444c-7.822 0-14.222-6.4-14.222-14.222V327.11c0-7.822 6.4-14.222 14.222-14.222m71.112-156.444c0-7.822 6.4-14.222 14.222-14.222h28.444c7.822 0 14.222 6.4 14.222 14.222v28.445c0 7.822-6.4 14.222-14.222 14.222h-28.444c-7.822 0-14.222-6.4-14.222-14.222zm14.222 71.112h28.444c7.822 0 14.222 6.4 14.222 14.222v28.444c0 7.822-6.4 14.222-14.222 14.222h-28.444c-7.822 0-14.222-6.4-14.222-14.222v-28.444c0-7.822 6.4-14.222 14.222-14.222m71.11-71.112c0-7.822 6.4-14.222 14.223-14.222h28.445c7.822 0 14.222 6.4 14.222 14.222v28.445c0 7.822-6.4 14.222-14.222 14.222H327.11c-7.822 0-14.222-6.4-14.222-14.222zm14.223 71.112h28.445c7.822 0 14.222 6.4 14.222 14.222v28.444c0 7.822-6.4 14.222-14.222 14.222H327.11c-7.822 0-14.222-6.4-14.222-14.222v-28.444c0-7.822 6.4-14.222 14.222-14.222m71.111-71.112c0-7.822 6.4-14.222 14.222-14.222h28.445c7.822 0 14.222 6.4 14.222 14.222v28.445c0 7.822-6.4 14.222-14.222 14.222h-28.445c-7.822 0-14.222-6.4-14.222-14.222zm14.222 71.112h28.445c7.822 0 14.222 6.4 14.222 14.222v28.444c0 7.822-6.4 14.222-14.222 14.222h-28.445c-7.822 0-14.222-6.4-14.222-14.222v-28.444c0-7.822 6.4-14.222 14.222-14.222"/></svg>