<svg xmlns="http://www.w3.org/2000/svg" viewBox="0 0 512 512"><!--! Font Awesome Free 7.0.1 by @fontawesome - https://fontawesome.com License - https://fontawesome.com/license/free (Icons: CC BY 4.0, Fonts: SIL OFL 1.1, Code: MIT License) Copyright 2025 Fonticons, Inc.--><path fill="currentColor" d="M0 73.143C0 32.8 32.8 0 73.143 0h365.714C479.2 0 512 32.8 512 73.143v365.714C512 479.2 479.2 512 438.857 512H73.143C32.8 512 0 479.2 0 438.857zm182.857 73.143c0-20.229-16.343-36.572-36.571-36.572-20.229 0-36.572 16.343-36.572 36.572 0 20.228 16.343 36.571 36.572 36.571 20.228 0 36.571-16.343 36.571-36.571m-36.571 256c20.228 0 36.571-16.343 36.571-36.572 0-20.228-16.343-36.571-36.571-36.571-20.229 0-36.572 16.343-36.572 36.571 0 20.229 16.343 36.572 36.572 36.572m256-256c0-20.229-16.343-36.572-36.572-36.572-20.228 0-36.571 16.343-36.571 36.572 0 20.228 16.343 36.571 36.571 36.571 20.229 0 36.572-16.343 36.572-36.571m-36.572 256c20.229 0 36.572-16.343 36.572-36.572 0-20.228-16.343-36.571-36.572-36.571-20.228 0-36.571 16.343-36.571 36.571 0 20.229 16.343 36.572 36.571 36.572"/></svg>