<svg xmlns="http://www.w3.org/2000/svg" viewBox="0 0 512 512"><!--! Font Awesome Free 7.0.1 by @fontawesome - https://fontawesome.com License - https://fontawesome.com/license/free (Icons: CC BY 4.0, Fonts: SIL OFL 1.1, Code: MIT License) Copyright 2025 Fonticons, Inc.--><path fill="currentColor" d="M186.638 71.08c0-27.217 22.108-49.325 49.324-49.325s49.324 22.108 49.324 49.324c0 27.217-22.108 49.324-49.324 49.324s-49.324-22.107-49.324-49.324M12.683 195.533c5.197-10.481 17.88-14.709 28.362-9.424l21.667 10.833 10.745-17.968c16.647-27.744 46.858-44.48 78.919-44.48 40.692 0 77.245 26.865 88.519 66.412l28.36 99.264 81.826 40.869 22.724-37.874c5.108-8.456 14.269-13.652 24.133-13.652 9.865 0 19.113 5.196 24.134 13.652l84.555 140.926c5.197 8.72 5.373 19.553.353 28.36-5.02 8.809-14.27 14.358-24.398 14.358h-169.11c-10.13 0-19.554-5.461-24.487-14.27-4.932-8.807-4.844-19.64.353-28.36l39.987-66.764-307.13-153.52c-10.48-5.197-14.708-17.88-9.424-28.362zm73.81 111.067 98.648 49.324c9.512 4.756 15.59 14.533 15.59 25.19v77.51c0 15.59-12.595 28.185-28.185 28.185s-28.185-12.596-28.185-28.186v-60.069l-53.993-27.04-31.972 96.005c-4.932 14.798-20.875 22.725-35.672 17.792S0 464.438 4.932 449.73L47.21 322.896a27.84 27.84 0 0 1 15.942-17.088c7.575-3.082 16.119-2.818 23.43.793z"/></svg>