<svg xmlns="http://www.w3.org/2000/svg" viewBox="0 0 512 512"><!--! Font Awesome Free 7.0.1 by @fontawesome - https://fontawesome.com License - https://fontawesome.com/license/free (Icons: CC BY 4.0, Fonts: SIL OFL 1.1, Code: MIT License) Copyright 2025 Fonticons, Inc.--><path fill="currentColor" d="m224.317 106.56 23.995 42.659c2.489 4.443 7.288 7.287 12.354 7.287h47.37c5.154 0 9.864-2.755 12.353-7.287l23.996-42.66c2.4-4.355 2.4-9.598 0-13.953l-23.996-42.66c-2.489-4.443-7.288-7.287-12.354-7.287h-47.37c-5.154 0-9.864 2.755-12.353 7.288l-23.995 42.66a14.42 14.42 0 0 0 0 13.952M60.7 91.628C38.304 69.232 0 85.14 0 116.779v281.463c0 39.282 31.817 71.099 71.099 71.099H352.56c31.639 0 47.547-38.305 25.151-60.7zM448.1 373.002c4.355 2.4 9.598 2.4 13.953 0l42.66-23.996c4.443-2.488 7.287-7.288 7.287-12.353v-47.37c0-5.155-2.755-9.865-7.288-12.353l-42.659-23.996a14.42 14.42 0 0 0-13.953 0l-42.66 23.996c-4.443 2.488-7.287 7.287-7.287 12.353v47.37c0 5.154 2.755 9.865 7.288 12.353zM170.637 71.188c0-15.731-12.709-28.44-28.44-28.44-15.73 0-28.439 12.709-28.439 28.44 0 15.73 12.709 28.44 28.44 28.44 15.73 0 28.439-12.71 28.439-28.44m170.637 199.076c15.73 0 28.44-12.709 28.44-28.44 0-15.73-12.71-28.439-28.44-28.439s-28.44 12.71-28.44 28.44 12.71 28.44 28.44 28.44"/></svg>