<svg xmlns="http://www.w3.org/2000/svg" viewBox="0 0 512 512"><!--! Font Awesome Free 7.0.1 by @fontawesome - https://fontawesome.com License - https://fontawesome.com/license/free (Icons: CC BY 4.0, Fonts: SIL OFL 1.1, Code: MIT License) Copyright 2025 Fonticons, Inc.--><path fill="currentColor" d="M38.259 8.287C29.972 0 16.573 0 8.375 8.287.176 16.573.088 29.972 8.287 38.259L473.74 503.713c8.287 8.287 21.686 8.287 29.884 0 8.199-8.286 8.287-21.685 0-29.884l-51.658-51.658c.97-3.526 1.41-7.229 1.41-11.02V277.863a103 103 0 0 1-35.702 6.347c-7.14 0-14.017-.705-20.716-2.115v58.534h-26.623L249.124 219.416c2.556-3.174 4.848-6.523 6.7-10.138 10.226 19.394 30.59 32.617 54.038 32.617 23.626 0 43.901-13.311 54.127-32.705 10.05 19.482 30.413 32.705 53.598 32.705 40.198 0 69.113-38.523 57.829-77.135l-20.364-70.788c-6.17-21.068-25.476-35.526-47.427-35.526h-303.25c-4.849 0-9.521.706-14.017 2.028zm97.41 217.035-90.622-90.534-8.64 29.884c-11.283 38.524 17.632 77.135 57.83 77.135 15.956 0 30.59-6.259 41.432-16.485m228.056 228.055L250.887 340.54H114.953v-58.534c-6.7 1.41-13.664 2.115-20.716 2.115a103 103 0 0 1-35.703-6.347v133.29c0 23.36 18.954 42.313 42.314 42.313z"/></svg>