<svg xmlns="http://www.w3.org/2000/svg" viewBox="0 0 512 512"><!--! Font Awesome Free 7.0.1 by @fontawesome - https://fontawesome.com License - https://fontawesome.com/license/free (Icons: CC BY 4.0, Fonts: SIL OFL 1.1, Code: MIT License) Copyright 2025 Fonticons, Inc.--><path fill="currentColor" d="M50.475 6.78C55.56 1.695 63.47.942 69.497 4.897l111.968 74.582c8.38 5.556 13.372 14.973 13.372 25.05v46.707l85.506 85.506c31.358-14.125 69.591-8.38 95.3 17.422L494.39 372.912c17.61 17.61 17.61 46.237 0 63.94l-56.596 56.597c-17.61 17.61-46.237 17.61-63.94 0L255.104 374.7c-25.802-25.803-31.546-63.941-17.421-95.3l-85.506-85.506H105.47c-10.076 0-19.493-4.99-25.05-13.372L5.84 68.555c-3.956-5.932-3.202-13.937 1.883-19.022zM187.02 292.585c-5.933 34.748 2.166 71.475 24.672 100.95l-89.367 89.46c-26.461 26.462-69.403 26.462-95.864 0C0 456.536 0 413.594 26.462 387.132l127.505-127.6 33.148 33.054zM345.508 13.09c18.928 0 37.103 3.484 53.771 9.887 9.417 3.579 11.112 15.538 4.05 22.695l-53.395 53.394c-2.825 2.825-4.426 6.686-4.426 10.642v38.986c0 8.287 6.78 15.067 15.067 15.067h38.987c3.955 0 7.816-1.601 10.64-4.426l53.395-53.394c7.157-7.063 19.116-5.368 22.695 4.05 6.403 16.667 9.888 34.842 9.888 53.77 0 40.681-16.198 77.501-42.377 104.622l-46.237-46.237c-31.17-31.076-73.923-43.035-114.04-36.161l-53.488-53.488v-27.969l-.188-4.708c-.753-11.677-4.144-22.883-9.888-32.865 27.686-32.96 69.12-53.865 115.546-53.96z"/></svg>