<svg xmlns="http://www.w3.org/2000/svg" viewBox="0 0 512 512"><!--! Font Awesome Free 7.0.1 by @fontawesome - https://fontawesome.com License - https://fontawesome.com/license/free (Icons: CC BY 4.0, Fonts: SIL OFL 1.1, Code: MIT License) Copyright 2025 Fonticons, Inc.--><path fill="currentColor" d="M379.29 1.894a31.88 31.88 0 0 0-22.325 14.053c-6.778 10.366-6.977 24.02-.399 34.486 5.582 8.87 15.449 12.658 23.721 18.438 7.476 5.183 17.542 13.157 27.609 24.12 19.933 21.628 39.369 54.12 39.369 99.968 0 17.642 14.253 31.894 31.894 31.894s31.894-14.252 31.894-31.894c0-65.781-28.406-113.024-56.313-143.224-13.854-15.05-27.708-26.014-38.173-33.19C405.603 8.97 393.145 0 379.09 1.894zM240.154 129.17c-57.41 0-104.753 43.456-110.932 99.17-1.894 17.543-17.741 30.1-35.183 28.207s-30.1-17.74-28.207-35.183C75.5 133.656 149.852 65.383 240.153 65.383c96.878 0 175.417 78.54 175.417 175.417 0 45.848-17.641 87.61-46.446 118.906-11.96 12.957-17.342 24.718-17.342 34.585v6.08c0 61.695-49.934 111.629-111.63 111.629-17.64 0-31.893-14.253-31.893-31.894 0-17.642 14.252-31.894 31.894-31.894 26.412 0 47.84-21.43 47.84-47.841v-6.08c0-32.791 17.343-59.403 34.287-77.742 18.339-19.934 29.502-46.446 29.502-75.649 0-61.695-49.934-111.63-111.63-111.63zM.947 480.006c0-17.641 14.253-31.894 31.894-31.894s31.894 14.253 31.894 31.894c0 17.642-14.253 31.894-31.894 31.894S.947 497.648.947 480.006m159.47-95.682c17.642 0 31.894-14.253 31.894-31.894 0-17.642-14.252-31.894-31.894-31.894s-31.894 14.252-31.894 31.894 14.253 31.894 31.894 31.894M87.26 361.799c-12.458-12.459-32.691-12.459-45.15 0s-12.458 32.691 0 45.15l63.788 63.788c12.459 12.459 32.692 12.459 45.15 0 12.46-12.459 12.46-32.691 0-45.15zm152.893-152.893c-17.642 0-31.894 14.253-31.894 31.894a23.863 23.863 0 0 1-23.921 23.921 23.863 23.863 0 0 1-23.92-23.92c0-44.054 35.68-79.736 79.735-79.736 44.053 0 79.735 35.682 79.735 79.735a23.863 23.863 0 0 1-23.92 23.921 23.863 23.863 0 0 1-23.921-23.92c0-17.642-14.253-31.895-31.894-31.895"/></svg>