<svg xmlns="http://www.w3.org/2000/svg" viewBox="0 0 512 512"><!--! Font Awesome Free 7.0.1 by @fontawesome - https://fontawesome.com License - https://fontawesome.com/license/free (Icons: CC BY 4.0, Fonts: SIL OFL 1.1, Code: MIT License) Copyright 2025 Fonticons, Inc.--><path fill="currentColor" d="M212.534 16.417c-12.758 1.088-22.648 11.77-22.648 24.626 0 13.648 11.077 24.725 24.725 24.725h149.337c8.703 0 15.824-7.12 15.824-15.824V19.681c0-9.297-7.912-16.516-17.11-15.824zm-6.824 96.822c0 43.714 35.406 79.12 79.12 79.12 43.712 0 79.118-35.406 79.118-79.12 0-5.44-.593-10.68-1.582-15.824H207.292c-.989 5.143-1.582 10.385-1.582 15.824M39.56 224.006C17.703 224.006 0 241.71 0 263.566c0 21.856 17.703 39.56 39.56 39.56h150.326v88.415l161.008-161.007c-13.154-4.253-27-6.429-41.142-6.429zm341.893 20.67L212.237 413.892h167.535v-45.79l53.01 89.602c11.077 18.791 35.406 25.022 54.197 13.945 18.79-11.076 25.021-35.406 13.944-54.196l-75.36-127.382c-11.077-18.791-26.308-34.12-44.11-45.395M189.886 445.54v31.648c0 17.505 14.143 31.647 31.648 31.647h126.59c17.506 0 31.648-14.142 31.648-31.647V445.54z"/></svg>