<svg xmlns="http://www.w3.org/2000/svg" viewBox="0 0 512 512"><!--! Font Awesome Free 7.0.1 by @fontawesome - https://fontawesome.com License - https://fontawesome.com/license/free (Icons: CC BY 4.0, Fonts: SIL OFL 1.1, Code: MIT License) Copyright 2025 Fonticons, Inc.--><path fill="currentColor" d="M284.444 58.489v112.178H43.111C89.067 102.044 167.2 56.889 256 56.889c9.6 0 19.111.533 28.444 1.6m42.667 112.178V66.933c58.667 16.89 108.622 54.223 141.778 103.734zM20.09 213.333h65.244v99.556H0c0-35.289 7.111-68.978 20.089-99.556m136.355 99.556H128v-99.556h256v99.556h-28.444v42.667H512v56.888c0 23.556-19.111 42.667-42.667 42.667H42.667C19.11 455.111 0 436 0 412.444v-56.888h156.444zm270.223 0v-99.556h65.244C504.89 243.911 512 277.6 512 312.89zM256 284.444c-31.378 0-56.889 25.512-56.889 56.89v71.11H312.89v-71.11c0-31.378-25.511-56.89-56.889-56.89"/></svg>