<svg xmlns="http://www.w3.org/2000/svg" viewBox="0 0 512 512"><!--! Font Awesome Free 7.0.1 by @fontawesome - https://fontawesome.com License - https://fontawesome.com/license/free (Icons: CC BY 4.0, Fonts: SIL OFL 1.1, Code: MIT License) Copyright 2025 Fonticons, Inc.--><path fill="currentColor" d="M278.999 3.27c13.185 3.272 21.158 16.56 17.887 29.746l-4.702 18.91c15.742.817 31.074 3.475 45.691 7.666l9.608-38.433C350.652 7.973 364.043 0 377.126 3.27s21.159 16.661 17.888 29.745l-11.55 45.997c13.799 7.973 26.576 17.479 38.024 28.416 13.186 12.368 13.697 33.118 1.329 46.202-12.369 13.083-33.118 13.697-46.202 1.328-3.169-2.964-6.542-5.928-10.017-8.586L304.96 393.021c27.497-4.702 52.233-17.48 71.654-35.878 13.186-12.368 33.833-11.755 46.202 1.329 12.368 13.083 11.754 33.833-1.33 46.201-35.06 33.016-81.772 53.97-133.391 55.606l-7.666 30.562c-3.271 13.186-16.56 21.159-29.745 17.888s-21.159-16.559-17.888-29.745l5.724-22.998c-15.332-3.271-30.051-8.178-43.85-14.72l-12.369 49.575c-3.27 13.186-16.559 21.159-29.745 17.888s-21.056-16.559-17.785-29.643l16.354-65.316c-45.384-37.513-74.31-94.243-74.31-157.719 0-98.945 70.324-181.536 163.852-200.343l8.586-34.55C252.524 7.974 265.915 0 278.999 3.272m-57.037 126.953c-47.122 22.283-79.728 70.223-79.728 125.828 0 31.176 10.221 59.899 27.496 83.102zm-10.835 245.83a139.5 139.5 0 0 0 43.442 16.456l67.36-269.44c-12.879-3.885-26.474-6.032-40.682-6.032-1.84 0-3.577 0-5.417.103z"/></svg>