<svg xmlns="http://www.w3.org/2000/svg" viewBox="0 0 512 512"><!--! Font Awesome Free 7.0.1 by @fontawesome - https://fontawesome.com License - https://fontawesome.com/license/free (Icons: CC BY 4.0, Fonts: SIL OFL 1.1, Code: MIT License) Copyright 2025 Fonticons, Inc.--><path fill="currentColor" d="M65.974 228.51C79.27 135.548 159.338 64.076 256 64.076c52.98 0 100.96 21.492 135.747 56.178l.6.6 7.597 7.197h-47.882c-17.693 0-31.987 14.294-31.987 31.987 0 17.694 14.294 31.988 31.987 31.988h127.95c17.694 0 31.988-14.294 31.988-31.988V32.087C512 14.394 497.706.1 480.012.1s-31.987 14.294-31.987 31.987v53.38L436.729 74.77C390.447 28.689 326.472.1 256 .1 127.05.1 20.392 95.463 2.699 219.514c-2.5 17.493 9.596 33.687 27.09 36.186 17.493 2.5 33.686-9.696 36.185-27.09zm443.327 63.976c2.5-17.493-9.696-33.687-27.09-36.186s-33.686 9.696-36.185 27.09C432.73 376.352 352.662 447.824 256 447.824c-52.98 0-100.96-21.492-135.747-56.178l-.6-.6-7.597-7.197h47.882c17.693 0 31.987-14.294 31.987-31.987 0-17.694-14.294-31.988-31.987-31.988l-127.85.1a31.84 31.84 0 0 0-22.692 9.496C3.4 335.57 0 343.666.1 352.262l1 126.95c.1 17.694 14.594 31.888 32.287 31.688s31.888-14.594 31.688-32.287l-.4-51.48L75.37 437.23C121.652 483.311 185.528 511.9 256 511.9c128.95 0 235.608-95.363 253.301-219.414"/></svg>