<svg xmlns="http://www.w3.org/2000/svg" viewBox="0 0 512 512"><!--! Font Awesome Free 7.0.1 by @fontawesome - https://fontawesome.com License - https://fontawesome.com/license/free (Icons: CC BY 4.0, Fonts: SIL OFL 1.1, Code: MIT License) Copyright 2025 Fonticons, Inc.--><path fill="currentColor" d="M51.2 64C22.96 64 0 86.96 0 115.2v262.4C0 416.48 31.52 448 70.4 448c20.16 0 38.4-8.48 51.2-22.08A70.15 70.15 0 0 0 172.8 448c32.24 0 59.36-21.68 67.76-51.2h107.68c8.32 29.52 35.52 51.2 67.76 51.2 34.4 0 63.12-24.72 69.2-57.36 16-8.64 26.8-25.6 26.8-45.04V228.24c0-13.6-5.36-26.64-14.96-36.24l-36.24-36.24c-9.6-9.6-22.64-14.96-36.24-14.96H384v-25.6c0-28.24-22.96-51.2-51.2-51.2zM384 192h40.56l36.24 36.24v40.56H384zM70.4 345.6c17.68 0 32 14.32 32 32s-14.32 32-32 32-32-14.32-32-32 14.32-32 32-32m313.6 32c0-17.68 14.32-32 32-32s32 14.32 32 32-14.32 32-32 32-32-14.32-32-32m-211.2-32c17.68 0 32 14.32 32 32s-14.32 32-32 32-32-14.32-32-32 14.32-32 32-32"/></svg>