<svg xmlns="http://www.w3.org/2000/svg" viewBox="0 0 512 512"><!--! Font Awesome Free 7.0.1 by @fontawesome - https://fontawesome.com License - https://fontawesome.com/license/free (Icons: CC BY 4.0, Fonts: SIL OFL 1.1, Code: MIT License) Copyright 2025 Fonticons, Inc.--><path fill="currentColor" d="M80.842 175.158V94.316c0-29.727 24.169-53.895 53.895-53.895h87.916c20.379 0 39.073 11.537 48.168 29.81l73.768 147.453c3.706 7.495 5.727 15.748 5.727 24.084v47.916h67.368v-67.368c0-40.927 33.18-74.105 74.105-74.105 11.2 0 20.211 9.01 20.211 20.21s-9.01 20.21-20.21 20.21c-18.611 0-33.685 15.074-33.685 33.685v175.158c0 18.61 15.074 33.684 33.684 33.684 11.2 0 20.211 9.01 20.211 20.21s-9.01 20.21-20.21 20.21c-40.927 0-74.106-33.178-74.106-74.104v-67.369h-53.052c8 13.895 12.631 29.98 12.631 47.158 0 52.126-42.19 94.316-94.316 94.316H94.316C42.189 471.579 0 429.389 0 377.263c0-25.684 10.274-49.01 26.947-66.02v-82.19c0-29.727 24.169-53.895 53.895-53.895m77.221 29.39 36.716 24.505h95.326L222.737 94.316H134.82v91.62l23.326 18.611zm165.305 172.715c0-22.316-18.105-40.42-40.42-40.42H94.315c-22.316 0-40.421 18.104-40.421 40.42S72 417.684 94.315 417.684h188.632c22.316 0 40.421-18.105 40.421-40.42m-235.79 0c0-11.2 9.011-20.21 20.211-20.21S128 366.063 128 377.263s-9.01 20.21-20.21 20.21-20.211-9.01-20.211-20.21m181.896-20.21c11.2 0 20.21 9.01 20.21 20.21s-9.01 20.21-20.21 20.21-20.21-9.01-20.21-20.21 9.01-20.21 20.21-20.21m-101.053 20.21c0-11.2 9.01-20.21 20.21-20.21s20.211 9.01 20.211 20.21-9.01 20.21-20.21 20.21-20.21-9.01-20.21-20.21"/></svg>