<svg xmlns="http://www.w3.org/2000/svg" viewBox="0 0 512 512"><!--! Font Awesome Free 7.0.1 by @fontawesome - https://fontawesome.com License - https://fontawesome.com/license/free (Icons: CC BY 4.0, Fonts: SIL OFL 1.1, Code: MIT License) Copyright 2025 Fonticons, Inc.--><path fill="currentColor" d="M354.428 3.129c10.343-3.042 21.207 2.346 25.205 12.08l.695 2 34.765 118.2c2.173 7.3.087 15.21-5.302 20.598l-55.71 55.711 66.4-18.078 17.296-51.973.782-1.999c4.346-9.647 15.384-14.601 25.64-11.212s16.078 13.993 13.731 24.336l-.608 2.086-20.859 62.576c-2.173 6.606-7.561 11.647-14.34 13.559l-79.177 21.554 79.177 21.554c6.692 1.825 12.08 6.953 14.34 13.559l20.859 62.576.608 2.086c2.347 10.343-3.563 20.946-13.732 24.336-10.255 3.39-21.293-1.565-25.639-11.212l-.782-1.999-17.296-51.974-66.4-18.077 55.71 55.71c5.302 5.302 7.388 13.124 5.389 20.338l-34.765 125.154-.695 1.999c-3.825 9.82-14.602 15.383-25.031 12.515-10.43-2.868-16.774-13.21-14.95-23.64l.436-2.086 31.462-113.42-32.332-32.332c-.782 45.281-37.806 81.784-83.348 81.784s-82.567-36.503-83.436-81.784l-32.158 32.158 31.289 106.293.521 2.086c1.912 10.343-4.259 20.772-14.601 23.814s-21.207-2.347-25.205-12.08l-.695-2-34.765-118.2c-2.173-7.301-.087-15.21 5.302-20.685l55.71-55.711-66.4 18.078-17.296 51.973-.782 2c-4.346 9.646-15.384 14.6-25.64 11.21s-16.078-13.992-13.731-24.335l.608-2.086 20.859-62.576c2.173-6.606 7.561-11.647 14.34-13.559l79.177-21.554-79.177-21.554c-6.692-1.825-12.08-6.953-14.34-13.558L34.678 154.79l-.608-2.086c-2.347-10.343 3.563-20.946 13.732-24.336s21.293 1.565 25.639 11.212l.782 1.999 17.296 51.974 66.4 18.077-55.71-55.71c-5.389-5.389-7.388-13.298-5.302-20.599l34.765-118.2.695-2C136.365 5.303 147.23 0 157.572 3.043s16.513 13.471 14.601 23.814l-.521 2.086-31.289 106.293 46.064 46.064c.869-37.633 31.636-67.879 69.443-67.879 37.806 0 68.573 30.246 69.443 67.966l46.15-46.15-31.288-106.294-.522-2.086c-1.912-10.43 4.259-20.772 14.601-23.814z"/></svg>