<svg xmlns="http://www.w3.org/2000/svg" viewBox="0 0 512 512"><!--! Font Awesome Free 7.0.1 by @fontawesome - https://fontawesome.com License - https://fontawesome.com/license/free (Icons: CC BY 4.0, Fonts: SIL OFL 1.1, Code: MIT License) Copyright 2025 Fonticons, Inc.--><path fill="currentColor" d="M240 0c-26.5 0-48 21.5-48 48v80h-80c-26.5 0-48 21.5-48 48v32c0 26.5 21.5 48 48 48h80v208c0 26.5 21.5 48 48 48h32c26.5 0 48-21.5 48-48V256h80c26.5 0 48-21.5 48-48v-32c0-26.5-21.5-48-48-48h-80V48c0-26.5-21.5-48-48-48z"/></svg>