<svg xmlns="http://www.w3.org/2000/svg" viewBox="0 0 512 512"><!--! Font Awesome Free 7.0.1 by @fontawesome - https://fontawesome.com License - https://fontawesome.com/license/free (Icons: CC BY 4.0, Fonts: SIL OFL 1.1, Code: MIT License) Copyright 2025 Fonticons, Inc.--><path fill="currentColor" d="M231.95 293.9V464c0 26.5-21.5 48-48 48h-104c-26.5 0-48-21.5-48-48V270.5c0-9.5 2.8-18.7 8.1-26.6l47.9-71.8c5.3-7.9 8.1-17.1 8.1-26.6l-.1-97.5c0-26.5 21.5-48 48-48h6.3c18.8 0 34.1 9.7 44.1 18.8 9.3 8.4 28.5 21.2 61.7 21.2s52.4-12.8 61.7-21.2c10-9.1 25.3-18.8 44.1-18.8h6.1c26.5 0 48 21.5 48 48v97.5c0 9.5 2.8 18.7 8.1 26.6l47.9 71.8c5.3 7.9 8.1 17.1 8.1 26.6l-.1 193.5c0 26.5-21.5 48-48 48h-104c-26.5 0-48-21.5-48-48V293.9c0-3.9.5-7.8 1.4-11.6l54.2-216.9c-17.7 11.8-43.8 22.6-79.6 22.6s-61.9-10.8-79.6-22.6l54.2 216.8c1 3.8 1.4 7.7 1.4 11.6zm-104 162.1c22.1 0 40-17.9 40-40s-17.9-40-40-40-40 17.9-40 40 17.9 40 40 40m-32.5-200.5c-4.7 4.7-4.7 12.3 0 17l15.5 15.5-15.5 15.5c-4.7 4.7-4.7 12.3 0 17s12.3 4.7 17 0l15.5-15.5 15.5 15.5c4.7 4.7 12.3 4.7 17 0s4.7-12.3 0-17l-15.5-15.5 15.5-15.5c4.7-4.7 4.7-12.3 0-17s-12.3-4.7-17 0l-15.5 15.5-15.5-15.5c-4.7-4.7-12.3-4.7-17 0m240.5 24.5v40c0 8.8 7.2 16 16 16h40c13.3 0 24-10.7 24-24s-10.7-24-24-24h-8v-8c0-13.3-10.7-24-24-24s-24 10.7-24 24"/></svg>