<svg xmlns="http://www.w3.org/2000/svg" viewBox="0 0 512 512"><!--! Font Awesome Free 7.0.1 by @fontawesome - https://fontawesome.com License - https://fontawesome.com/license/free (Icons: CC BY 4.0, Fonts: SIL OFL 1.1, Code: MIT License) Copyright 2025 Fonticons, Inc.--><path fill="currentColor" d="M73.143 0C32.8 0 0 32.8 0 73.143v365.714C0 479.2 32.8 512 73.143 512h365.714C479.2 512 512 479.2 512 438.857V73.143C512 32.8 479.2 0 438.857 0zm36.571 118.857a27.363 27.363 0 0 1 27.429-27.428c156.571 0 283.428 126.857 283.428 283.428a27.363 27.363 0 0 1-27.428 27.429 27.363 27.363 0 0 1-27.429-27.429c0-126.286-102.285-228.571-228.571-228.571a27.363 27.363 0 0 1-27.429-27.429m0 109.714a27.363 27.363 0 0 1 27.429-27.428c95.886 0 173.714 77.828 173.714 173.714a27.363 27.363 0 0 1-27.428 27.429A27.363 27.363 0 0 1 256 374.857C256 309.257 202.743 256 137.143 256a27.363 27.363 0 0 1-27.429-27.429m0 137.143c0-20.228 16.343-36.571 36.572-36.571 20.228 0 36.571 16.343 36.571 36.571 0 20.229-16.343 36.572-36.571 36.572-20.229 0-36.572-16.343-36.572-36.572"/></svg>