<svg xmlns="http://www.w3.org/2000/svg" viewBox="0 0 512 512"><!--! Font Awesome Free 7.0.1 by @fontawesome - https://fontawesome.com License - https://fontawesome.com/license/free (Icons: CC BY 4.0, Fonts: SIL OFL 1.1, Code: MIT License) Copyright 2025 Fonticons, Inc.--><path fill="currentColor" d="M512 36.571C512 16.343 495.657 0 475.429 0H36.57C16.343 0 0 16.343 0 36.571 0 56.8 16.343 73.143 36.571 73.143H475.43C495.657 73.143 512 56.8 512 36.57m0 292.572c0-20.229-16.343-36.572-36.571-36.572H36.57C16.343 292.571 0 308.914 0 329.143c0 20.228 16.343 36.571 36.571 36.571H475.43c20.228 0 36.571-16.343 36.571-36.571M0 182.857c0 20.229 16.343 36.572 36.571 36.572H475.43c20.228 0 36.571-16.343 36.571-36.572 0-20.228-16.343-36.571-36.571-36.571H36.57C16.343 146.286 0 162.629 0 182.857M512 475.43c0-20.229-16.343-36.572-36.571-36.572H36.57C16.343 438.857 0 455.2 0 475.43 0 495.657 16.343 512 36.571 512H475.43C495.657 512 512 495.657 512 475.429"/></svg>