<svg xmlns="http://www.w3.org/2000/svg" viewBox="0 0 512 512"><!--! Font Awesome Free 7.0.1 by @fontawesome - https://fontawesome.com License - https://fontawesome.com/license/free (Icons: CC BY 4.0, Fonts: SIL OFL 1.1, Code: MIT License) Copyright 2025 Fonticons, Inc.--><path fill="currentColor" d="M153.6 38.4c14.16 0 25.6 11.44 25.6 25.6 0 24.4 29.52 36.64 46.8 19.36 10-10 26.24-10 36.24 0s10 26.24 0 36.24c-17.28 17.28-5.04 46.8 19.36 46.8 14.16 0 25.6 11.44 25.6 25.6s-11.44 25.6-25.6 25.6c-24.4 0-36.64 29.52-19.36 46.8 10 10 10 26.24 0 36.24s-26.24 10-36.24 0c-17.28-17.28-46.8-5.04-46.8 19.36 0 14.16-11.44 25.6-25.6 25.6S128 334.16 128 320c0-24.4-29.52-36.64-46.8-19.36-10 10-26.24 10-36.24 0s-10-26.24 0-36.24c17.28-17.28 5.04-46.8-19.36-46.8C11.44 217.6 0 206.16 0 192s11.44-25.6 25.6-25.6c24.4 0 36.64-29.52 19.36-46.8-10-10-10-26.24 0-36.24s26.24-10 36.24 0C98.48 100.64 128 88.4 128 64c0-14.16 11.44-25.6 25.6-25.6m-38.4 140.8c14.16 0 25.6-11.44 25.6-25.6S129.36 128 115.2 128s-25.6 11.44-25.6 25.6 11.44 25.6 25.6 25.6m102.4 51.2c0-14.16-11.44-25.6-25.6-25.6s-25.6 11.44-25.6 25.6S177.84 256 192 256s25.6-11.44 25.6-25.6m198.4 32c0 18.32 22.16 27.52 35.12 14.56 7.52-7.52 19.68-7.52 27.12 0s7.52 19.68 0 27.12c-12.96 12.96-3.76 35.12 14.56 35.12 10.64 0 19.2 8.56 19.2 19.2s-8.56 19.2-19.2 19.2c-18.32 0-27.52 22.16-14.56 35.12 7.52 7.52 7.52 19.68 0 27.12s-19.68 7.52-27.12 0C438.16 426.88 416 436.08 416 454.4c0 10.64-8.56 19.2-19.2 19.2s-19.2-8.56-19.2-19.2c0-18.32-22.16-27.52-35.12-14.56-7.52 7.52-19.68 7.52-27.12 0s-7.52-19.68 0-27.12c12.96-12.96 3.76-35.12-14.56-35.12-10.64 0-19.2-8.56-19.2-19.2s8.56-19.2 19.2-19.2c18.32 0 27.52-22.16 14.56-35.12-7.52-7.52-7.52-19.68 0-27.12s19.68-7.52 27.12 0c12.96 12.96 35.12 3.76 35.12-14.56 0-10.64 8.56-19.2 19.2-19.2s19.2 8.56 19.2 19.2m-12.8 83.2c0-10.64-8.56-19.2-19.2-19.2s-19.2 8.56-19.2 19.2 8.56 19.2 19.2 19.2 19.2-8.56 19.2-19.2"/></svg>