<svg xmlns="http://www.w3.org/2000/svg" viewBox="0 0 512 512"><!--! Font Awesome Free 7.0.1 by @fontawesome - https://fontawesome.com License - https://fontawesome.com/license/free (Icons: CC BY 4.0, Fonts: SIL OFL 1.1, Code: MIT License) Copyright 2025 Fonticons, Inc.--><path fill="currentColor" d="M108.704 0C88.672 0 72.488 16.184 72.488 36.216v434.589c0 20.031 16.184 36.215 36.216 36.215s36.216-16.184 36.216-36.215V325.942h107.855l115.89 165.687c11.43 16.41 34.065 20.371 50.476 8.94 16.41-11.43 20.37-34.065 8.94-50.475l-95.18-136.036c59.644-24.219 101.744-82.73 101.744-151.087C434.645 72.997 361.648 0 271.675 0zm162.97 253.51H144.92V72.431h126.755c50.023 0 90.539 40.517 90.539 90.54s-40.516 90.54-90.54 90.54"/></svg>