<svg xmlns="http://www.w3.org/2000/svg" viewBox="0 0 512 512"><!--! Font Awesome Free 7.0.1 by @fontawesome - https://fontawesome.com License - https://fontawesome.com/license/free (Icons: CC BY 4.0, Fonts: SIL OFL 1.1, Code: MIT License) Copyright 2025 Fonticons, Inc.--><path fill="currentColor" d="M0 475.429C0 495.657 16.343 512 36.571 512c20.229 0 36.572-16.343 36.572-36.571V73.143h402.286C495.657 73.143 512 56.8 512 36.57 512 16.343 495.657 0 475.429 0H73.143C32.8 0 0 32.8 0 73.143zm146.286 0c0 20.228 16.343 36.571 36.571 36.571 20.229 0 36.572-16.343 36.572-36.571 0-20.229-16.343-36.572-36.572-36.572-20.228 0-36.571 16.343-36.571 36.572m146.285 0c0 20.228 16.343 36.571 36.572 36.571 20.228 0 36.571-16.343 36.571-36.571 0-20.229-16.343-36.572-36.571-36.572-20.229 0-36.572 16.343-36.572 36.572M475.43 512C495.657 512 512 495.657 512 475.429c0-20.229-16.343-36.572-36.571-36.572-20.229 0-36.572 16.343-36.572 36.572 0 20.228 16.343 36.571 36.572 36.571m-36.572-329.143c0 20.229 16.343 36.572 36.572 36.572 20.228 0 36.571-16.343 36.571-36.572 0-20.228-16.343-36.571-36.571-36.571-20.229 0-36.572 16.343-36.572 36.571m36.572 182.857c20.228 0 36.571-16.343 36.571-36.571 0-20.229-16.343-36.572-36.571-36.572-20.229 0-36.572 16.343-36.572 36.572 0 20.228 16.343 36.571 36.572 36.571"/></svg>