<svg xmlns="http://www.w3.org/2000/svg" viewBox="0 0 512 512"><!--! Font Awesome Free 7.0.1 by @fontawesome - https://fontawesome.com License - https://fontawesome.com/license/free (Icons: CC BY 4.0, Fonts: SIL OFL 1.1, Code: MIT License) Copyright 2025 Fonticons, Inc.--><path fill="currentColor" d="M107.79 107.79c0-29.727 24.168-53.895 53.894-53.895h296.421c29.727 0 53.895 24.168 53.895 53.894v202.106h-80.842V296.42c0-14.905-12.042-26.947-26.947-26.947h-53.895c-14.905 0-26.948 12.042-26.948 26.947v13.474H214.653c9.179-15.832 14.4-34.274 14.4-53.895 0-59.537-48.253-107.79-107.79-107.79-4.547 0-9.095.253-13.474.843zM280.42 404.21c-4.295-20.378-13.726-38.82-27.032-53.894H512c0 29.726-24.168 53.895-53.895 53.895zM53.895 256c0-37.221 30.147-67.368 67.368-67.368s67.369 30.147 67.369 67.368-30.148 67.368-67.369 67.368c-37.22 0-67.368-30.147-67.368-67.368M0 431.158c0-44.632 36.21-80.842 80.842-80.842h80.842c44.632 0 80.842 36.21 80.842 80.842 0 14.905-12.042 26.947-26.947 26.947H26.947C12.042 458.105 0 446.063 0 431.158"/></svg>