<svg xmlns="http://www.w3.org/2000/svg" viewBox="0 0 512 512"><!--! Font Awesome Free 7.0.1 by @fontawesome - https://fontawesome.com License - https://fontawesome.com/license/free (Icons: CC BY 4.0, Fonts: SIL OFL 1.1, Code: MIT License) Copyright 2025 Fonticons, Inc.--><path fill="currentColor" d="M396.229 0C351.886 0 312 26.629 294.97 67.543l-63.314 151.886H109.714c-20.228 0-36.571 16.342-36.571 36.571s16.343 36.571 36.571 36.571h91.429L149.6 416.343c-5.714 13.6-18.971 22.514-33.714 22.514H73.143c-20.229 0-36.572 16.343-36.572 36.572 0 20.228 16.343 36.571 36.572 36.571h42.628c44.343 0 84.229-26.629 101.258-67.543l63.314-151.886h121.943c20.228 0 36.571-16.342 36.571-36.571s-16.343-36.571-36.571-36.571h-91.429L362.4 95.657c5.714-13.6 18.971-22.514 33.714-22.514h42.743c20.229 0 36.572-16.343 36.572-36.572C475.429 16.343 459.086 0 438.857 0z"/></svg>