<svg xmlns="http://www.w3.org/2000/svg" viewBox="0 0 512 512"><!--! Font Awesome Free 7.0.1 by @fontawesome - https://fontawesome.com License - https://fontawesome.com/license/free (Icons: CC BY 4.0, Fonts: SIL OFL 1.1, Code: MIT License) Copyright 2025 Fonticons, Inc.--><path fill="currentColor" d="m239.022 61.511-103.644 115.2c-4.09 4.533-3.911 11.556.444 15.911 27.111 27.111 71.111 27.111 98.222 0l28.267-28.266c3.733-3.734 8.445-5.778 13.245-6.134 6.044-.533 12.266 1.511 16.888 6.134L449.422 320 512 270.222v-256l-99.556 56.89-21.155-14.134a85.5 85.5 0 0 0-47.378-14.311h-62.578c-.977 0-2.044 0-3.022.089-15.022.8-29.155 7.555-39.289 18.755m-135.378 86.667 94.934-105.511h-35.2a85.3 85.3 0 0 0-60.356 24.977L0 184.89v312.889l128-120.89 11.022 9.156a113.62 113.62 0 0 0 72.8 26.4h13.956l-6.222-6.222c-8.356-8.355-8.356-21.866 0-30.133s21.866-8.356 30.133 0l36.444 36.444h8c16.978 0 33.6-3.822 48.711-10.933l-23.733-23.822c-8.355-8.356-8.355-21.867 0-30.134s21.867-8.355 30.133 0l28.445 28.445 15.555-15.556c7.912-7.91 10.223-19.377 6.756-29.422l-122.578-121.6-13.244 13.245c-43.822 43.822-114.756 43.822-158.578 0-20.444-20.445-21.244-53.245-1.956-74.667z"/></svg>