<svg xmlns="http://www.w3.org/2000/svg" viewBox="0 0 512 512"><!--! Font Awesome Free 7.0.1 by @fontawesome - https://fontawesome.com License - https://fontawesome.com/license/free (Icons: CC BY 4.0, Fonts: SIL OFL 1.1, Code: MIT License) Copyright 2025 Fonticons, Inc.--><path fill="currentColor" d="M256 0c16.659 0 30.118 13.459 30.118 30.118V47.34c92.33 13.177 165.364 86.212 178.54 178.541h17.224c16.66 0 30.118 13.46 30.118 30.118 0 16.659-13.459 30.118-30.118 30.118H464.66c-13.177 92.33-86.212 165.364-178.541 178.54v17.224c0 16.66-13.46 30.118-30.118 30.118-16.659 0-30.118-13.459-30.118-30.118V464.66c-92.33-13.177-165.364-86.212-178.54-178.541H30.117C13.458 286.118 0 272.658 0 256c0-16.659 13.459-30.118 30.118-30.118H47.34c13.177-92.33 86.212-165.364 178.541-178.54V30.117C225.882 13.458 239.342 0 256 0M105.412 256c0 83.2 67.388 150.588 150.588 150.588S406.588 339.2 406.588 256 339.2 105.412 256 105.412 105.412 172.8 105.412 256M256 165.647c49.882 0 90.353 40.47 90.353 90.353s-40.47 90.353-90.353 90.353-90.353-40.47-90.353-90.353 40.47-90.353 90.353-90.353"/></svg>