<svg xmlns="http://www.w3.org/2000/svg" viewBox="0 0 512 512"><!--! Font Awesome Free 7.0.1 by @fontawesome - https://fontawesome.com License - https://fontawesome.com/license/free (Icons: CC BY 4.0, Fonts: SIL OFL 1.1, Code: MIT License) Copyright 2025 Fonticons, Inc.--><path fill="currentColor" d="M0 99.556c0-31.378 25.511-56.89 56.889-56.89h256c31.378 0 56.889 25.512 56.889 56.89V128h45.066c15.112 0 29.6 5.956 40.267 16.622l40.267 40.267C506.044 195.556 512 210.044 512 225.156v130.4c0 31.377-25.511 56.888-56.889 56.888h-2.933c-9.245 32.8-39.467 56.89-75.29 56.89-35.821 0-65.955-24.09-75.288-56.89h-91.2c-9.244 32.8-39.467 56.89-75.289 56.89s-65.955-24.09-75.289-56.89H56.89C25.51 412.444 0 386.934 0 355.556zm455.111 170.666v-45.066l-40.267-40.267h-45.066v85.333zm-284.444 120.89c0-19.645-15.911-35.556-35.556-35.556s-35.555 15.91-35.555 35.555 15.91 35.556 35.555 35.556 35.556-15.911 35.556-35.556m206.222 35.555c19.644 0 35.555-15.911 35.555-35.556s-15.91-35.555-35.555-35.555-35.556 15.91-35.556 35.555 15.911 35.556 35.556 35.556"/></svg>