<svg xmlns="http://www.w3.org/2000/svg" viewBox="0 0 512 512"><!--! Font Awesome Free 7.0.1 by @fontawesome - https://fontawesome.com License - https://fontawesome.com/license/free (Icons: CC BY 4.0, Fonts: SIL OFL 1.1, Code: MIT License) Copyright 2025 Fonticons, Inc.--><path fill="currentColor" d="M340.745 156.212c0 85.76-75.878 155.285-169.402 155.285-23.557 0-45.968-4.412-66.349-12.352L32.998 337.26c-8.205 4.323-18.264 2.823-24.88-3.706C1.5 327.025 0 316.88 4.411 308.674l31.41-59.291c-21.264-25.94-33.88-58.232-33.88-93.171C1.941 70.452 77.818.926 171.342.926s169.402 69.526 169.402 155.286m0 324.687c-83.025 0-152.109-54.791-166.579-127.052 105.877-1.323 197.9-76.672 208.047-178.842 73.496 16.94 127.934 77.907 127.934 150.609 0 34.939-12.617 67.231-33.88 93.17l31.41 59.291c4.323 8.206 2.823 18.264-3.706 24.881s-16.675 8.118-24.88 3.706l-71.997-38.115c-20.38 7.94-42.791 12.352-66.349 12.352"/></svg>