<svg xmlns="http://www.w3.org/2000/svg" viewBox="0 0 512 512"><!--! Font Awesome Free 7.0.1 by @fontawesome - https://fontawesome.com License - https://fontawesome.com/license/free (Icons: CC BY 4.0, Fonts: SIL OFL 1.1, Code: MIT License) Copyright 2025 Fonticons, Inc.--><path fill="currentColor" d="m238.685 401.808-87.671 87.671c-13.699 13.7-35.946 13.7-49.644 0l-87.671-87.67C0 388.108 0 365.862 13.699 352.163c13.698-13.698 35.945-13.698 49.643 0L91.178 380V43.89c0-19.397 15.671-35.068 35.069-35.068 19.397 0 35.068 15.671 35.068 35.068V380l27.836-27.836c13.698-13.698 35.945-13.698 49.644 0s13.698 35.946 0 49.644zm147.397-201.644 12.822-19.726c-36.055-10.849-62.246-44.383-62.246-83.945 0-48.438 39.232-87.671 87.67-87.671 48.44 0 87.672 39.233 87.672 87.671 0 25.096-7.233 49.644-20.932 70.685l-46.136 71.123c-10.521 16.22-32.22 20.932-48.548 10.302-16.33-10.63-20.932-32.22-10.302-48.548zm64.548-103.67a26.24 26.24 0 0 0-26.301-26.302 26.24 26.24 0 0 0-26.302 26.301 26.24 26.24 0 0 0 26.302 26.302 26.24 26.24 0 0 0 26.301-26.302m-5.808 199.451c9.096 6.576 14.575 17.206 14.575 28.493v105.206h17.535c19.397 0 35.068 15.671 35.068 35.068 0 19.398-15.671 35.069-35.068 35.069H371.726c-19.397 0-35.068-15.671-35.068-35.069 0-19.397 15.67-35.068 35.068-35.068h17.534v-56.548l-6.465 2.192c-18.411 6.137-38.247-3.836-44.384-22.137s3.836-38.247 22.137-44.384l52.603-17.534c10.74-3.617 22.465-1.754 31.561 4.822z"/></svg>