<svg xmlns="http://www.w3.org/2000/svg" viewBox="0 0 512 512"><!--! Font Awesome Free 7.0.1 by @fontawesome - https://fontawesome.com License - https://fontawesome.com/license/free (Icons: CC BY 4.0, Fonts: SIL OFL 1.1, Code: MIT License) Copyright 2025 Fonticons, Inc.--><path fill="currentColor" d="M492.109 49.53C504.739 45.85 512 32.521 508.32 19.89S491.313 0 478.682 3.78L51.518 128.995a70.9 70.9 0 0 0-25.063 13.028C10.443 153.66 0 172.457 0 193.74v254.608C0 483.456 28.544 512 63.652 512h381.911c35.108 0 63.652-28.544 63.652-63.652V193.74c0-35.108-28.544-63.651-63.652-63.651H217.312zm-126.11 191.95c43.959 0 79.564 35.605 79.564 79.564 0 43.96-35.605 79.565-79.565 79.565s-79.564-35.605-79.564-79.565 35.605-79.565 79.564-79.565M63.651 281.261a23.81 23.81 0 0 1 23.87-23.87h111.39a23.81 23.81 0 0 1 23.87 23.87 23.81 23.81 0 0 1-23.87 23.87H87.522a23.81 23.81 0 0 1-23.87-23.87m0 95.478a23.81 23.81 0 0 1 23.87-23.87h111.39a23.81 23.81 0 0 1 23.87 23.87 23.81 23.81 0 0 1-23.87 23.87H87.522a23.81 23.81 0 0 1-23.87-23.87"/></svg>