<svg xmlns="http://www.w3.org/2000/svg" viewBox="0 0 512 512"><!--! Font Awesome Free 7.0.1 by @fontawesome - https://fontawesome.com License - https://fontawesome.com/license/free (Icons: CC BY 4.0, Fonts: SIL OFL 1.1, Code: MIT License) Copyright 2025 Fonticons, Inc.--><path fill="currentColor" d="m99.495 255.7 69.291-119.712C163.195 123.807 160 110.228 160 95.85 160 42.933 202.933 0 255.85 0c52.918 0 95.85 42.933 95.85 95.85 0 14.278-3.095 27.857-8.786 40.138l44.33 76.58c-23.063 25.96-53.615 45.03-88.261 53.716L255.95 191.6l-67.994 117.416c21.467 6.79 44.231 10.484 67.994 10.484 70.59 0 133.591-32.65 174.627-83.87 11.083-13.778 31.152-15.974 44.93-4.991 13.778 10.982 15.975 31.151 4.992 44.93-52.618 65.697-133.69 107.83-224.45 107.83-35.344 0-69.29-6.39-100.542-18.07l-56.612 97.647a48.13 48.13 0 0 1-20.068 18.87l-55.314 27.657a16.02 16.02 0 0 1-15.575-.699C3.245 505.91.349 500.718.349 495.226v-55.313a47.8 47.8 0 0 1 6.49-24.063l59.907-103.538A292 292 0 0 1 31.5 275.569c-11.083-13.778-8.786-33.847 4.992-44.93s33.847-8.786 44.93 4.993A232 232 0 0 0 99.594 255.7zm281.36 151.564c32.45-12.98 62.303-30.952 88.761-52.818l35.545 61.404c4.193 7.289 6.49 15.576 6.49 24.063v55.313c0 5.492-2.896 10.684-7.589 13.579a16.02 16.02 0 0 1-15.575.699l-55.314-27.657a48.13 48.13 0 0 1-20.068-18.87zM255.95 127.8c17.672 0 31.95-14.277 31.95-31.95 0-17.672-14.278-31.95-31.95-31.95S224 78.178 224 95.85c0 17.673 14.278 31.95 31.95 31.95"/></svg>