<svg xmlns="http://www.w3.org/2000/svg" viewBox="0 0 512 512"><!--! Font Awesome Free 7.0.1 by @fontawesome - https://fontawesome.com License - https://fontawesome.com/license/free (Icons: CC BY 4.0, Fonts: SIL OFL 1.1, Code: MIT License) Copyright 2025 Fonticons, Inc.--><path fill="currentColor" d="M384 51.2c14.16 0 25.6 11.44 25.6 25.6h76.8c14.16 0 25.6 11.44 25.6 25.6v76.8c0 14.16-11.44 25.6-25.6 25.6h-76.8v230.4c0 14.16-11.44 25.6-25.6 25.6s-25.6-11.44-25.6-25.6V76.8c0-14.16 11.44-25.6 25.6-25.6M214 98.48l106 102.24v253.2c-7.52 4.32-16.24 6.88-25.6 6.88H89.6c-28.24 0-51.2-22.96-51.2-51.2V294.4H22.48C10.08 294.4 0 284.32 0 271.92c0-6.08 2.48-11.92 6.88-16.16L170 98.48c5.92-5.68 13.76-8.88 22-8.88s16.08 3.2 22 8.88m-50.16 158.16v35.2h-35.2c-7.76 0-14.08 6.32-14.08 14.08v28.16c0 7.76 6.32 14.08 14.08 14.08h35.2v35.2c0 7.76 6.32 14.08 14.08 14.08h28.16c7.76 0 14.08-6.32 14.08-14.08v-35.2h35.2c7.76 0 14.08-6.32 14.08-14.08v-28.16c0-7.76-6.32-14.08-14.08-14.08h-35.2v-35.2c0-7.76-6.32-14.08-14.08-14.08h-28.16c-7.76 0-14.08 6.32-14.08 14.08"/></svg>