<svg xmlns="http://www.w3.org/2000/svg" viewBox="0 0 512 512"><!--! Font Awesome Free 7.0.1 by @fontawesome - https://fontawesome.com License - https://fontawesome.com/license/free (Icons: CC BY 4.0, Fonts: SIL OFL 1.1, Code: MIT License) Copyright 2025 Fonticons, Inc.--><path fill="currentColor" d="M326.556 87.43c7.482-7.482 19.58-7.482 26.981 0l13.69 13.689c1.512-.08 3.103-.16 4.616-.16h25.468c8.914 0 17.43 1.831 25.15 5.174l12.337-12.337c7.481-7.481 19.58-7.481 26.981 0 7.402 7.482 7.481 19.58 0 26.981l-10.267 10.347c6.049 9.71 9.55 21.25 9.55 33.507 0 8.118 5.89 14.963 13.292 18.306C496.56 192.885 512 215.17 512 241.037c0 20.853-10.028 39.317-25.469 50.938v25.468c0 7.004-5.73 12.735-12.734 12.735h-25.469c-7.004 0-12.734-5.73-12.734-12.735V304.71h-50.937v12.734c0 7.004-5.73 12.735-12.735 12.735h-25.468c-7.004 0-12.735-5.73-12.735-12.735v-14.008a63.35 63.35 0 0 1-25.468-11.46c-1.194-.876-2.309-1.831-3.423-2.786-13.53-11.7-22.046-28.97-22.046-48.152 0-7.004-5.73-12.734-12.734-12.734s-12.735 5.73-12.735 12.734c0 35.577 20.853 66.219 50.938 80.545v8.596c0 14.087 11.38 25.468 25.468 25.468h25.469v50.938c0 14.087-11.381 25.468-25.469 25.468h-50.937c-14.087 0-25.469-11.381-25.469-25.468v-60.489a140.3 140.3 0 0 1-50.937 9.551 140.3 140.3 0 0 1-50.937-9.55v60.488c0 14.087-11.382 25.468-25.47 25.468H79.033c-14.087 0-25.468-11.381-25.468-25.468v-94.632l-14.406 32.392c-4.298 9.63-15.6 14.008-25.23 9.71s-13.928-15.6-9.63-25.23l17.43-39.317a73.6 73.6 0 0 0 6.367-30.005c0-85.559 67.81-155.359 152.653-158.463l.16-.08h50.937c33.188 0 66.377 9.63 93.279 20.455 1.353-1.433 2.785-2.865 4.218-4.139l-2.786-2.785c-7.481-7.482-7.481-19.58 0-26.981zm58.1 147.24a19.056 19.056 0 0 0-19.1-19.102 19.056 19.056 0 0 0-19.102 19.102 19.056 19.056 0 0 0 19.101 19.101 19.056 19.056 0 0 0 19.102-19.101m70.04 19.101a19.056 19.056 0 0 0 19.101-19.101 19.056 19.056 0 0 0-19.102-19.102 19.056 19.056 0 0 0-19.101 19.102 19.056 19.056 0 0 0 19.101 19.101m-70.04-89.14c0-7.004-5.73-12.734-12.734-12.734s-12.734 5.73-12.734 12.734 5.73 12.734 12.734 12.734 12.735-5.73 12.735-12.734m38.204 12.734c7.004 0 12.734-5.73 12.734-12.734s-5.73-12.734-12.734-12.734-12.735 5.73-12.735 12.734 5.73 12.734 12.735 12.734"/></svg>