<svg xmlns="http://www.w3.org/2000/svg" viewBox="0 0 512 512"><!--! Font Awesome Free 7.0.1 by @fontawesome - https://fontawesome.com License - https://fontawesome.com/license/free (Icons: CC BY 4.0, Fonts: SIL OFL 1.1, Code: MIT License) Copyright 2025 Fonticons, Inc.--><path fill="currentColor" d="M349.667 0c41.585 0 81.446 16.532 110.758 45.845l5.578 5.578c29.414 29.414 45.946 69.274 45.946 110.758 0 24.443-5.781 48.279-16.43 69.781-1.928 3.753-5.376 6.593-9.433 7.81L372.488 273.85c-3.956 1.217-6.593 4.767-6.593 8.926a9.307 9.307 0 0 0 9.332 9.33h32.659c14.504 0 21.705 17.446 11.461 27.69l-22.72 22.72c-1.927 1.927-4.26 3.245-6.795 4.057l-82.155 24.646c-3.956 1.217-6.593 4.767-6.593 8.926a9.307 9.307 0 0 0 9.331 9.331c13.388 0 19.17 15.924 7.911 23.227-41.686 26.979-90.573 41.686-140.982 41.686H90.117l-48.684 48.684c-8.926 8.926-23.531 8.926-32.457 0-8.925-8.925-8.925-23.53 0-32.456l243.322-243.423c8.925-8.926 8.925-23.531 0-32.456s-23.531-8.926-32.456 0L73.28 341.299c-5.782 5.782-15.722 1.725-15.722-6.49 0-68.87 27.386-134.898 76.07-183.582L238.91 45.845C268.223 16.532 308.083 0 349.668 0"/></svg>