<svg xmlns="http://www.w3.org/2000/svg" viewBox="0 0 512 512"><!--! Font Awesome Free 7.0.1 by @fontawesome - https://fontawesome.com License - https://fontawesome.com/license/free (Icons: CC BY 4.0, Fonts: SIL OFL 1.1, Code: MIT License) Copyright 2025 Fonticons, Inc.--><path fill="currentColor" d="M0 107.79c0-29.727 24.168-53.895 53.895-53.895h323.368c29.726 0 53.895 24.168 53.895 53.894v215.58h53.895c14.905 0 26.947 12.042 26.947 26.947s-12.042 26.947-26.947 26.947h-249.6c.168 2.19.336 4.463.336 6.737 0 40.926-33.178 74.105-74.105 74.105-40.926 0-74.105-33.179-74.105-74.105 0-2.274.084-4.547.337-6.737H53.895C24.168 377.263 0 353.095 0 323.368zm343.579 13.473c-11.2 0-20.21 9.01-20.21 20.21v134.738c0 11.2 9.01 20.21 20.21 20.21s20.21-9.01 20.21-20.21V141.474c0-11.2-9.01-20.21-20.21-20.21m-276.21 20.21v134.738c0 11.2 9.01 20.21 20.21 20.21s20.21-9.01 20.21-20.21V141.474c0-11.2-9.01-20.21-20.21-20.21s-20.21 9.01-20.21 20.21m148.21-20.21c-11.2 0-20.21 9.01-20.21 20.21v134.738c0 11.2 9.01 20.21 20.21 20.21s20.21-9.01 20.21-20.21V141.474c0-11.2-9.01-20.21-20.21-20.21M195.369 384c0-18.61-15.074-33.684-33.685-33.684-18.61 0-33.684 15.073-33.684 33.684s15.074 33.684 33.684 33.684 33.684-15.073 33.684-33.684"/></svg>