<svg xmlns="http://www.w3.org/2000/svg" viewBox="0 0 512 512"><!--! Font Awesome Free 7.0.1 by @fontawesome - https://fontawesome.com License - https://fontawesome.com/license/free (Icons: CC BY 4.0, Fonts: SIL OFL 1.1, Code: MIT License) Copyright 2025 Fonticons, Inc.--><path fill="currentColor" d="M372.213 199.3c19.603 0 37.718 6.038 52.69 16.46-5.625-105.047-98.182-188.506-211.5-188.506-116.958 0-211.749 88.918-211.749 198.514 0 44.914 15.881 86.27 42.68 119.522L3.97 421.635C0 429.079 1.24 438.178 6.948 444.38c5.707 6.204 14.723 8.106 22.415 4.798l97.934-41.936c22.498 9.43 47.064 15.219 72.871 16.708.083-15.633 4.053-31.431 12.407-45.906 14.144-24.566 37.883-40.117 63.69-44.831l7.61-13.235c-2.813-8.85-4.301-18.197-4.301-27.957 0-51.2 41.44-92.64 92.64-92.64zM246.984 397.813c-14.64 25.31-5.955 57.652 19.355 72.292s57.652 5.956 72.292-19.355a54 54 0 0 0 3.226-6.617h60.63a54 54 0 0 0 3.225 6.617c14.64 25.31 46.982 33.996 72.293 19.355 25.31-14.64 33.995-46.981 19.355-72.292-11.084-19.19-32.342-28.784-52.937-25.972l-14.558-25.393c-9.099 9.677-20.679 17.039-33.582 21.175l13.648 23.904a50.4 50.4 0 0 0-7.444 12.903h-60.713c-1.82-4.632-4.383-8.933-7.444-12.903l27.296-47.726c3.391.662 6.948 1.075 10.587 1.075 29.198 0 52.937-23.739 52.937-52.937s-23.739-52.937-52.937-52.937-52.937 23.74-52.937 52.937c0 11.084 3.392 21.34 9.264 29.86l-28.619 50.042c-20.678-2.812-41.853 6.865-52.937 25.972"/></svg>