<svg xmlns="http://www.w3.org/2000/svg" viewBox="0 0 512 512"><!--! Font Awesome Free 7.0.1 by @fontawesome - https://fontawesome.com License - https://fontawesome.com/license/free (Icons: CC BY 4.0, Fonts: SIL OFL 1.1, Code: MIT License) Copyright 2025 Fonticons, Inc.--><path fill="currentColor" d="m416.088 360.928 84.862-84.862c11.05-11.05 11.05-28.994 0-40.044l-84.862-84.862c-11.05-11.05-28.994-11.05-40.044 0s-11.05 28.995 0 40.044l36.597 36.597H96.619l36.596-36.597c11.05-11.05 11.05-28.994 0-40.044s-28.994-11.05-40.044 0L8.31 236.022C3.006 241.326 0 248.486 0 256s3.006 14.674 8.31 19.978L93.17 360.84c11.05 11.05 28.995 11.05 40.044 0 11.05-11.05 11.05-28.995 0-40.044L96.62 284.199H412.64l-36.597 36.597c-11.05 11.05-11.05 28.994 0 40.044s28.995 11.05 40.044 0z"/></svg>