<svg xmlns="http://www.w3.org/2000/svg" viewBox="0 0 512 512"><!--! Font Awesome Free 7.0.1 by @fontawesome - https://fontawesome.com License - https://fontawesome.com/license/free (Icons: CC BY 4.0, Fonts: SIL OFL 1.1, Code: MIT License) Copyright 2025 Fonticons, Inc.--><path fill="currentColor" d="M418.086 217.009c37.062 0 67.081 30.019 67.081 67.081v42.43C500.764 332.053 512 346.98 512 364.503v80.498c0 22.221-18.028 40.25-40.249 40.25h-107.33c-22.221 0-40.25-18.029-40.25-40.25v-80.498c0-17.525 11.237-32.45 26.833-37.985V284.09c0-37.062 30.02-67.081 67.082-67.081M200.574 34.547c10.23-7.798 24.904-7.295 34.547 1.677l155.126 144.058c-45.783 12.326-79.492 54.084-79.492 103.725v20.46c-16.435 14.757-26.832 36.14-26.832 59.954v80.497c0 4.612.419 9.14 1.09 13.5H96.094c-29.6 0-53.665-24.065-53.665-53.665v-147.58H29.013a26.86 26.86 0 0 1-24.988-17.021c-4.025-10.23-1.342-21.97 6.708-29.432L198.561 36.308l2.013-1.677zm2.85 262.876c-22.22 0-40.248 18.028-40.248 40.249v80.498h80.498v-73.203c0-13.836 5.87-26.413 15.429-35.302-7.296-7.546-17.526-12.242-28.846-12.242zm214.662-40.165c-14.842 0-26.833 11.99-26.833 26.832v40.165h53.665V284.09c0-14.841-11.99-26.832-26.832-26.832"/></svg>