<svg xmlns="http://www.w3.org/2000/svg" viewBox="0 0 512 512"><!--! Font Awesome Free 7.0.1 by @fontawesome - https://fontawesome.com License - https://fontawesome.com/license/free (Icons: CC BY 4.0, Fonts: SIL OFL 1.1, Code: MIT License) Copyright 2025 Fonticons, Inc.--><path fill="currentColor" d="M153.6 0c18.88 0 34.133 15.253 34.133 34.133v34.134h136.534V34.133C324.267 15.253 339.52 0 358.4 0s34.133 15.253 34.133 34.133v34.134h34.134c37.653 0 68.266 30.613 68.266 68.266v307.2c0 37.654-30.613 68.267-68.266 68.267H85.333c-37.653 0-68.266-30.613-68.266-68.267v-307.2c0-37.653 30.613-68.266 68.266-68.266h34.134V34.133C119.467 15.253 134.72 0 153.6 0M85.333 256v34.133c0 9.387 7.68 17.067 17.067 17.067h34.133c9.387 0 17.067-7.68 17.067-17.067V256c0-9.387-7.68-17.067-17.067-17.067H102.4c-9.387 0-17.067 7.68-17.067 17.067m136.534 0v34.133c0 9.387 7.68 17.067 17.066 17.067h34.134c9.386 0 17.066-7.68 17.066-17.067V256c0-9.387-7.68-17.067-17.066-17.067h-34.134c-9.386 0-17.066 7.68-17.066 17.067m153.6-17.067c-9.387 0-17.067 7.68-17.067 17.067v34.133c0 9.387 7.68 17.067 17.067 17.067H409.6c9.387 0 17.067-7.68 17.067-17.067V256c0-9.387-7.68-17.067-17.067-17.067zm-290.134 153.6v34.134c0 9.386 7.68 17.066 17.067 17.066h34.133c9.387 0 17.067-7.68 17.067-17.066v-34.134c0-9.386-7.68-17.066-17.067-17.066H102.4c-9.387 0-17.067 7.68-17.067 17.066m153.6-17.066c-9.386 0-17.066 7.68-17.066 17.066v34.134c0 9.386 7.68 17.066 17.066 17.066h34.134c9.386 0 17.066-7.68 17.066-17.066v-34.134c0-9.386-7.68-17.066-17.066-17.066zM358.4 392.533v34.134c0 9.386 7.68 17.066 17.067 17.066H409.6c9.387 0 17.067-7.68 17.067-17.066v-34.134c0-9.386-7.68-17.066-17.067-17.066h-34.133c-9.387 0-17.067 7.68-17.067 17.066"/></svg>