<svg xmlns="http://www.w3.org/2000/svg" viewBox="0 0 512 512"><!--! Font Awesome Free 7.0.1 by @fontawesome - https://fontawesome.com License - https://fontawesome.com/license/free (Icons: CC BY 4.0, Fonts: SIL OFL 1.1, Code: MIT License) Copyright 2025 Fonticons, Inc.--><path fill="currentColor" d="M363.79 235.79h16.757c13.053 0 23.664-10.611 23.664-23.664 0-6.4-2.611-12.547-7.243-17.01L225.263 29.558c-6.231-5.98-14.484-9.347-23.158-9.347-8.673 0-16.926 3.368-23.158 9.347L7.242 195.116A23.64 23.64 0 0 0 0 212.126c0 13.053 10.61 23.663 23.663 23.663h16.758v121.264c0 29.726 24.168 53.894 53.895 53.894h72.168c6.232-5.558 13.81-9.6 22.148-11.79V289.685c0-4.631.59-9.179 1.684-13.473h-8.421c-11.2 0-20.21-9.011-20.21-20.211v-40.421c0-11.2 9.01-20.21 20.21-20.21h40.42c11.2 0 20.211 9.01 20.211 20.21v20.21zm-80.843 94.315h134.737v107.79H282.947zm-53.894-26.947v134.737h-26.948c-7.41 0-13.473 6.063-13.473 13.473 0 22.316 18.105 40.421 40.42 40.421H471.58c22.316 0 40.421-18.105 40.421-40.42 0-7.411-6.063-13.474-13.474-13.474H471.58V303.158c0-14.905-12.042-26.947-26.947-26.947H256c-14.905 0-26.947 12.042-26.947 26.947"/></svg>