<svg xmlns="http://www.w3.org/2000/svg" viewBox="0 0 512 512"><!--! Font Awesome Free 7.0.1 by @fontawesome - https://fontawesome.com License - https://fontawesome.com/license/free (Icons: CC BY 4.0, Fonts: SIL OFL 1.1, Code: MIT License) Copyright 2025 Fonticons, Inc.--><path fill="currentColor" d="M8.2 8.288C16.488 0 29.89 0 38.09 8.288l133.135 133.136v-26.627c0-46.73 37.913-84.643 84.643-84.643 44.349 0 80.763 34.122 84.378 77.59l-49.022.087a21.11 21.11 0 0 0-21.161 21.16 21.11 21.11 0 0 0 21.16 21.162H340.6v42.32h-49.375a21.11 21.11 0 0 0-21.161 21.162 21.11 21.11 0 0 0 21.16 21.16h49.111c-1.675 20.191-10.404 38.266-23.718 52.02l29.89 29.89c22.483-22.924 36.414-54.313 36.414-88.963v-35.268a21.11 21.11 0 0 1 21.16-21.16 21.11 21.11 0 0 1 21.161 21.16v35.268c0 46.377-18.603 88.345-48.757 118.852l127.228 127.229c8.288 8.288 8.288 21.69 0 29.89s-21.69 8.287-29.89 0L8.2 38.265C0 29.978 0 16.576 8.2 8.288M264.597 354.44l36.502 36.502c-7.76 2.116-15.783 3.792-24.07 4.761v43.644h42.32a21.11 21.11 0 0 1 21.161 21.161 21.11 21.11 0 0 1-21.16 21.16H192.386a21.11 21.11 0 0 1-21.16-21.16 21.11 21.11 0 0 1 21.16-21.16h42.321v-43.645C151.3 385.3 86.671 314.06 86.671 227.742v-35.268c0-4.497 1.41-8.729 3.879-12.167l38.442 38.441v8.994c0 70.094 56.87 126.964 126.964 126.964 2.91 0 5.82-.088 8.64-.265"/></svg>