<svg xmlns="http://www.w3.org/2000/svg" viewBox="0 0 512 512"><!--! Font Awesome Free 7.0.1 by @fontawesome - https://fontawesome.com License - https://fontawesome.com/license/free (Icons: CC BY 4.0, Fonts: SIL OFL 1.1, Code: MIT License) Copyright 2025 Fonticons, Inc.--><path fill="currentColor" d="M211.388 51.658a21.09 21.09 0 0 1 21.14-21.139h42.277a21.09 21.09 0 0 1 21.139 21.139v49.324h49.324a21.09 21.09 0 0 1 21.138 21.139v42.277a21.09 21.09 0 0 1-21.138 21.14h-49.324v49.323A21.09 21.09 0 0 1 274.804 256h-42.277a21.09 21.09 0 0 1-21.139-21.139v-49.324h-49.324a21.09 21.09 0 0 1-21.138-21.139v-42.277a21.09 21.09 0 0 1 21.138-21.14h49.324zM58.748 368.74l37.434-37.433c21.138-21.139 49.852-33.03 79.71-33.03h134.144c15.59 0 28.185 12.596 28.185 28.186s-12.595 28.185-28.185 28.185H246.62a21.09 21.09 0 0 0-21.14 21.139 21.09 21.09 0 0 0 21.14 21.139h99.176l105.43-77.686c15.678-11.538 37.697-8.191 49.236 7.487s8.191 37.698-7.487 49.236L381.468 458.14c-20.61 15.15-45.449 23.34-71.08 23.34H28.185C12.595 481.48 0 468.887 0 453.297v-56.37c0-15.59 12.595-28.186 28.185-28.186z"/></svg>