<svg xmlns="http://www.w3.org/2000/svg" viewBox="0 0 512 512"><!--! Font Awesome Free 7.0.1 by @fontawesome - https://fontawesome.com License - https://fontawesome.com/license/free (Icons: CC BY 4.0, Fonts: SIL OFL 1.1, Code: MIT License) Copyright 2025 Fonticons, Inc.--><path fill="currentColor" d="M246.702 3.487c-23.35-3.276-47.121.95-68.04 12.044l-78.185 41.734C79.663 68.358 62.864 85.79 52.51 107.028l-38.775 79.874C3.381 208.14 0 232.228 4.121 255.472l15.32 87.481c4.12 23.35 15.425 44.692 32.435 61.174l63.71 61.702c17.01 16.482 38.67 27.048 62.019 30.323l87.693 12.361c23.35 3.276 47.121-.95 68.04-12.044l78.185-41.734c20.814-11.093 37.613-28.526 47.967-49.868l38.775-79.77c10.354-21.236 13.735-45.325 9.614-68.569l-15.425-87.481c-4.12-23.35-15.426-44.692-32.436-61.174l-63.604-61.596c-17.01-16.483-38.67-27.048-62.019-30.323zm-41.416 134.18c18.7 0 33.81 15.109 33.81 33.81 0 18.7-15.11 33.809-33.81 33.809s-33.81-15.109-33.81-33.81c0-18.7 15.11-33.809 33.81-33.809m-67.619 202.856c0-18.7 15.109-33.809 33.81-33.809 18.7 0 33.809 15.109 33.809 33.81 0 18.7-15.109 33.809-33.81 33.809-18.7 0-33.809-15.109-33.809-33.81m236.666-67.618c18.7 0 33.809 15.108 33.809 33.809s-15.109 33.81-33.81 33.81c-18.7 0-33.809-15.11-33.809-33.81s15.109-33.81 33.81-33.81"/></svg>