<svg xmlns="http://www.w3.org/2000/svg" viewBox="0 0 512 512"><!--! Font Awesome Free 7.0.1 by @fontawesome - https://fontawesome.com License - https://fontawesome.com/license/free (Icons: CC BY 4.0, Fonts: SIL OFL 1.1, Code: MIT License) Copyright 2025 Fonticons, Inc.--><path fill="currentColor" d="M269.421 2.905A32.3 32.3 0 0 0 256 0a32.3 32.3 0 0 0-13.421 2.905L53.984 82.93c-22.034 9.314-38.46 31.048-38.36 57.29.501 99.354 41.365 281.138 213.935 363.767a61.18 61.18 0 0 0 52.882 0c172.67-82.629 213.534-264.413 213.935-363.768.1-26.24-16.326-47.975-38.36-57.29zM159.85 154.642c0-5.81 4.707-10.417 10.416-10.417h.2c3.406 0 6.51 1.603 8.514 4.307l40.062 53.383a16.13 16.13 0 0 0 12.82 6.41h48.075c5.008 0 9.816-2.403 12.82-6.41l40.063-53.383c2.003-2.704 5.208-4.307 8.513-4.307h.2c5.81 0 10.417 4.708 10.417 10.417l.2 117.784c0 53.083-43.067 96.15-96.15 96.15s-96.15-43.067-96.15-96.15zm56.087 133.809c8.814 0 16.025-7.212 16.025-16.025 0-8.814-7.21-16.025-16.025-16.025-8.813 0-16.025 7.21-16.025 16.025 0 8.813 7.212 16.025 16.025 16.025m96.15-16.025c0-8.814-7.21-16.025-16.024-16.025s-16.025 7.21-16.025 16.025c0 8.813 7.21 16.025 16.025 16.025 8.813 0 16.025-7.212 16.025-16.025"/></svg>