<svg xmlns="http://www.w3.org/2000/svg" viewBox="0 0 512 512"><!--! Font Awesome Free 7.0.1 by @fontawesome - https://fontawesome.com License - https://fontawesome.com/license/free (Icons: CC BY 4.0, Fonts: SIL OFL 1.1, Code: MIT License) Copyright 2025 Fonticons, Inc.--><path fill="currentColor" d="M30.118 30.118C30.118 13.458 43.576 0 60.235 0H271.06c16.659 0 30.117 13.459 30.117 30.118s-13.458 30.117-30.117 30.117v151.906c-62.212 28.518-105.412 91.388-105.412 164.33 0 37.364 11.294 72.094 30.777 100.894a106.8 106.8 0 0 1-30.777 4.517c-58.259 0-105.412-47.153-105.412-105.411V60.235c-16.659 0-30.117-13.459-30.117-30.117m90.353 30.117v120.47h90.353V60.236zm90.353 316.236c0-74.824 60.705-135.53 135.529-135.53 74.823 0 135.53 60.706 135.53 135.53 0 74.823-60.707 135.529-135.53 135.529s-135.53-60.706-135.53-135.53m189.552-57.318c-6.682-4.894-16.188-3.388-21.082 3.294l-49.882 68.612-25.224-25.224c-5.835-5.835-15.435-5.835-21.27 0-5.836 5.836-5.836 15.436 0 21.27l37.647 37.648a14.97 14.97 0 0 0 11.859 4.33c4.423-.377 8.376-2.636 11.011-6.118l60.236-82.824c4.894-6.682 3.388-16.188-3.295-20.988"/></svg>