<svg xmlns="http://www.w3.org/2000/svg" viewBox="0 0 512 512"><!--! Font Awesome Free 7.0.1 by @fontawesome - https://fontawesome.com License - https://fontawesome.com/license/free (Icons: CC BY 4.0, Fonts: SIL OFL 1.1, Code: MIT License) Copyright 2025 Fonticons, Inc.--><path fill="currentColor" d="M162.933 30.298c-13.242-13.242-34.748-13.242-47.99 0L13.243 132C0 145.241 0 166.747 13.242 179.99s34.747 13.243 47.99 0l43.858-43.858v324.913c0 18.75 15.149 33.9 33.9 33.9s33.9-15.15 33.9-33.9V136.13l43.859 43.858c13.242 13.243 34.748 13.243 47.99 0s13.242-34.748 0-47.99L163.04 30.3zm227.238 175.01c-10.17 15.68-5.72 36.655 9.958 46.931s36.655 5.72 46.93-9.958l44.6-68.754c13.137-20.34 20.235-44.07 20.235-68.33 0-46.825-37.926-84.75-84.75-84.75-46.825 0-84.751 37.925-84.751 84.75 0 38.244 25.319 70.66 60.173 81.149l-12.395 19.068zm11.547-100.217a25.364 25.364 0 0 1 25.425-25.425 25.364 25.364 0 0 1 25.426 25.425 25.364 25.364 0 0 1-25.426 25.425 25.364 25.364 0 0 1-25.425-25.425m45.236 192.808c-8.793-6.357-20.234-8.158-30.51-4.662l-50.85 16.95c-17.798 5.933-27.333 25.108-21.4 42.905s25.107 27.333 42.905 21.4l6.25-2.119v54.664H376.4c-18.751 0-33.9 15.15-33.9 33.9 0 18.752 15.149 33.901 33.9 33.901h101.7c18.752 0 33.901-15.15 33.901-33.9 0-18.751-15.15-33.9-33.9-33.9h-16.95V325.336c0-10.912-5.191-21.082-14.09-27.544z"/></svg>