<svg xmlns="http://www.w3.org/2000/svg" viewBox="0 0 512 512"><!--! Font Awesome Free 7.0.1 by @fontawesome - https://fontawesome.com License - https://fontawesome.com/license/free (Icons: CC BY 4.0, Fonts: SIL OFL 1.1, Code: MIT License) Copyright 2025 Fonticons, Inc.--><path fill="currentColor" d="M128 51.2c-4.4 0-8.48 2.24-10.8 5.92l-.88 1.68-19.84 44.32-45.36-17.36c-4.72-1.76-10-.64-13.6 2.96a12.82 12.82 0 0 0-2.96 13.6l17.36 45.36L7.6 167.52C2.96 169.6 0 174.16 0 179.2s2.96 9.6 7.6 11.68l44.32 19.84-17.36 45.36c-1.76 4.72-.64 10 2.96 13.6s8.88 4.72 13.6 2.96l45.36-17.36 19.84 44.32c2.08 4.64 6.64 7.6 11.68 7.6s9.6-2.96 11.68-7.6l19.84-44.32 45.44 17.36c4.72 1.76 10 .64 13.6-2.96s4.72-8.88 2.96-13.6l-17.36-45.36 44.32-19.84c4.64-2.08 7.6-6.64 7.6-11.68s-2.96-9.6-7.6-11.68l-44.32-19.84 17.36-45.36.56-1.76c.96-4.24-.32-8.72-3.44-11.84s-7.6-4.4-11.84-3.44l-1.76.56-45.44 17.36-19.84-44.32c-2.16-4.72-6.72-7.68-11.76-7.68m0 76.8c28.24 0 51.2 22.96 51.2 51.2s-22.96 51.2-51.2 51.2-51.2-22.96-51.2-51.2S99.76 128 128 128m25.6 51.2c0-14.16-11.44-25.6-25.6-25.6s-25.6 11.44-25.6 25.6 11.44 25.6 25.6 25.6 25.6-11.44 25.6-25.6M454.4 192v42.72c-11.84 6.16-19.2 18.48-19.2 35.68 0 13.44 12.8 35.2 29.92 53.76 4.64 4.96 12.4 4.96 16.96 0C499.2 305.52 512 283.68 512 270.4c0-17.2-7.36-29.6-19.2-35.68V192c0-35.36-28.64-64-64-64s-64 28.64-64 64v18.16a63.5 63.5 0 0 0-25.6-5.36c-35.36 0-64 28.64-64 64v17.12C263.36 292 256 304.4 256 321.6c0 13.44 12.8 35.2 29.92 53.76 4.64 4.96 12.4 4.96 16.96 0 17.12-18.64 29.92-40.48 29.92-53.76 0-17.2-7.36-29.6-19.2-35.68V268.8c0-14.16 11.44-25.6 25.6-25.6s25.6 11.44 25.6 25.6v140.8H25.6C11.44 409.6 0 421.04 0 435.2s11.44 25.6 25.6 25.6h460.8c14.16 0 25.6-11.44 25.6-25.6s-11.44-25.6-25.6-25.6h-83.2V192c0-14.16 11.44-25.6 25.6-25.6s25.6 11.44 25.6 25.6"/></svg>