<svg xmlns="http://www.w3.org/2000/svg" viewBox="0 0 512 512"><!--! Font Awesome Free 7.0.1 by @fontawesome - https://fontawesome.com License - https://fontawesome.com/license/free (Icons: CC BY 4.0, Fonts: SIL OFL 1.1, Code: MIT License) Copyright 2025 Fonticons, Inc.--><path fill="currentColor" d="m228.652 394.944-83.986 83.986c-13.123 13.123-34.434 13.123-47.557 0l-83.986-83.986C0 381.822 0 360.51 13.123 347.387c13.123-13.122 34.434-13.122 47.557 0l26.665 26.666V52.07c0-18.582 15.013-33.594 33.595-33.594s33.594 15.012 33.594 33.594v321.982l26.666-26.666c13.123-13.122 34.434-13.122 47.557 0s13.123 34.435 0 47.557zm60.26-342.873c0-18.582 15.013-33.594 33.594-33.594h134.378c13.543 0 25.826 8.189 31.075 20.786 5.25 12.598 2.31 26.981-7.244 36.64l-77.057 76.952h53.226c18.582 0 33.595 15.012 33.595 33.594s-15.013 33.594-33.595 33.594H322.506c-13.542 0-25.825-8.188-31.074-20.786s-2.31-26.98 7.243-36.639l77.163-76.952h-53.332c-18.581 0-33.594-15.013-33.594-33.595M419.72 272.22l83.986 167.972c8.294 16.587 1.575 36.744-15.012 45.037-16.587 8.294-36.744 1.575-45.038-15.012l-7.558-15.013h-92.805l-7.559 15.013c-8.293 16.587-28.45 23.306-45.037 15.012-16.588-8.293-23.306-28.45-15.013-45.037L359.67 272.22c5.67-11.338 17.322-18.582 30.025-18.582s24.356 7.139 30.025 18.582m-30.025 90.18-21.206 42.413h42.413z"/></svg>