<svg xmlns="http://www.w3.org/2000/svg" viewBox="0 0 512 512"><!--! Font Awesome Free 7.0.1 by @fontawesome - https://fontawesome.com License - https://fontawesome.com/license/free (Icons: CC BY 4.0, Fonts: SIL OFL 1.1, Code: MIT License) Copyright 2025 Fonticons, Inc.--><path fill="currentColor" d="M105.007 18.649c-18.755 0-33.908 15.152-33.908 33.907s15.153 33.908 33.908 33.908h19.814L13.245 198.146C0 211.39 0 232.9 13.245 246.146s34.755 13.245 48 0l111.576-111.682v19.814c0 18.755 15.153 33.907 33.907 33.907 18.755 0 33.908-15.152 33.908-33.907V52.556c0-18.755-15.153-33.907-33.908-33.907zm326.145 40.37c0 22.253 18.12 40.372 40.371 40.372s40.371-18.12 40.371-40.371-18.12-40.371-40.37-40.371c-22.252 0-40.372 18.12-40.372 40.37M299.656 190.518c0 22.251 18.119 40.37 40.37 40.37 22.252 0 40.371-18.119 40.371-40.37 0-22.252-18.119-40.371-40.37-40.371-22.252 0-40.371 18.119-40.371 40.37m171.867-40.371c-22.251 0-40.37 18.119-40.37 40.37 0 22.252 18.119 40.371 40.37 40.371 22.252 0 40.371-18.119 40.371-40.37 0-22.252-18.12-40.371-40.37-40.371M168.795 321.483c0 22.252 18.119 40.371 40.37 40.371 22.252 0 40.371-18.119 40.371-40.37 0-22.252-18.119-40.371-40.37-40.371-22.252 0-40.371 18.119-40.371 40.37m171.231-40.37c-22.251 0-40.37 18.119-40.37 40.37 0 22.252 18.119 40.371 40.37 40.371 22.252 0 40.371-18.119 40.371-40.37 0-22.252-18.119-40.371-40.37-40.371m91.232 40.37c0 22.252 18.12 40.371 40.371 40.371S512 343.735 512 321.484c0-22.252-18.12-40.371-40.37-40.371-22.253 0-40.372 18.119-40.372 40.37M77.563 412.61c-22.252 0-40.37 18.12-40.37 40.371s18.118 40.371 40.37 40.371 40.37-18.12 40.37-40.37c0-22.253-18.118-40.372-40.37-40.372m91.232 40.371c0 22.252 18.119 40.371 40.37 40.371 22.252 0 40.371-18.12 40.371-40.37 0-22.253-18.119-40.372-40.37-40.372-22.252 0-40.371 18.12-40.371 40.371m171.231-40.37c-22.251 0-40.37 18.118-40.37 40.37s18.119 40.371 40.37 40.371c22.252 0 40.371-18.12 40.371-40.37 0-22.253-18.119-40.372-40.37-40.372m91.232 40.37c0 22.252 18.12 40.371 40.371 40.371S512 475.231 512 452.981c0-22.253-18.12-40.372-40.37-40.372-22.253 0-40.372 18.12-40.372 40.371"/></svg>