<svg xmlns="http://www.w3.org/2000/svg" viewBox="0 0 512 512"><!--! Font Awesome Free 7.0.1 by @fontawesome - https://fontawesome.com License - https://fontawesome.com/license/free (Icons: CC BY 4.0, Fonts: SIL OFL 1.1, Code: MIT License) Copyright 2025 Fonticons, Inc.--><path fill="currentColor" d="M401.78 3.841c18.911 0 37.035 7.486 50.332 20.882l35.165 35.165c13.396 13.297 20.882 31.421 20.882 50.333s-7.486 37.036-20.882 50.333L443.05 204.78 307.22 68.95l44.226-44.227c13.297-13.396 31.421-20.882 50.333-20.882M61.857 314.213l211.97-211.872L409.66 238.17 197.787 450.143c-10.54 10.54-23.739 18.223-38.12 22.261L33.786 507.272c-8.175 2.266-17.04 0-23.049-6.107-6.008-6.107-8.372-14.873-6.107-23.049l35.066-125.784c4.039-14.38 11.623-27.48 22.261-38.119zM225.859 83.43 83.43 225.859l-68.063-68.063C0 142.43 0 117.51 15.366 102.046l86.68-86.68C117.41 0 142.331 0 157.795 15.366l5.812 5.811-55.456 55.456c-7.683 7.683-7.683 20.192 0 27.875s20.193 7.683 27.876 0l55.455-55.455zm202.712 202.712 34.376 34.376-55.455 55.455c-7.683 7.683-7.683 20.193 0 27.876s20.192 7.683 27.875 0l55.456-55.456 5.811 5.812c15.366 15.366 15.366 40.286 0 55.75l-86.68 86.68c-15.365 15.366-40.286 15.366-55.75 0l-68.063-68.063z"/></svg>