<svg xmlns="http://www.w3.org/2000/svg" viewBox="0 0 512 512"><!--! Font Awesome Free 7.0.1 by @fontawesome - https://fontawesome.com License - https://fontawesome.com/license/free (Icons: CC BY 4.0, Fonts: SIL OFL 1.1, Code: MIT License) Copyright 2025 Fonticons, Inc.--><path fill="currentColor" d="M225.882 150.588c0-49.882-40.47-90.353-90.353-90.353s-90.353 40.47-90.353 90.353 40.471 90.353 90.353 90.353c49.883 0 90.353-40.47 90.353-90.353m41.789 30.118C254.024 241.036 200 286.118 135.529 286.118 60.706 286.118 0 225.412 0 150.588c0-74.823 60.706-135.53 135.53-135.53 64.47 0 118.494 45.083 132.14 105.413h67.577c8.282-9.224 20.33-15.06 33.694-15.06h97.883c24.94 0 45.176 20.236 45.176 45.177s-20.235 45.177-45.176 45.177H368.94c-13.365 0-25.412-5.836-33.694-15.06zM135.529 90.353c33.224 0 60.236 27.012 60.236 60.235s-27.012 60.236-60.236 60.236-60.235-27.012-60.235-60.236 27.012-60.235 60.235-60.235M376.471 240.94a22.534 22.534 0 0 1 22.588 22.588v7.53h90.353A22.534 22.534 0 0 1 512 293.647a22.534 22.534 0 0 1-22.588 22.588H263.529a22.534 22.534 0 0 1-22.588-22.588 22.534 22.534 0 0 1 22.588-22.588h90.353v-7.53a22.534 22.534 0 0 1 22.589-22.588M271.059 451.765V346.353h210.823v105.412c0 24.94-20.235 45.176-45.176 45.176h-120.47c-24.942 0-45.177-20.235-45.177-45.176M45.176 316.235h120.471c24.941 0 45.177 20.236 45.177 45.177s-20.236 45.176-45.177 45.176h-15.059c0 16.66-13.459 30.118-30.117 30.118H60.235c-16.659 0-30.117-13.459-30.117-30.118v-75.294c0-8.282 6.776-15.059 15.058-15.059m120.471 60.236c8.282 0 15.059-6.777 15.059-15.06 0-8.282-6.777-15.058-15.059-15.058h-15.059v30.118zM22.588 451.765h165.647a22.534 22.534 0 0 1 22.589 22.588 22.534 22.534 0 0 1-22.589 22.588H22.588A22.534 22.534 0 0 1 0 474.353a22.534 22.534 0 0 1 22.588-22.588"/></svg>