<svg xmlns="http://www.w3.org/2000/svg" viewBox="0 0 512 512"><!--! Font Awesome Free 7.0.1 by @fontawesome - https://fontawesome.com License - https://fontawesome.com/license/free (Icons: CC BY 4.0, Fonts: SIL OFL 1.1, Code: MIT License) Copyright 2025 Fonticons, Inc.--><path fill="currentColor" d="M51.2 51.2C22.96 51.2 0 74.16 0 102.4v307.2c0 28.24 22.96 51.2 51.2 51.2H256c28.24 0 51.2-22.96 51.2-51.2V102.4c0-28.24-22.96-51.2-51.2-51.2zm89.6 281.6h25.6c14.16 0 25.6 11.44 25.6 25.6v64h-76.8v-64c0-14.16 11.44-25.6 25.6-25.6m-64-192c0-7.04 5.76-12.8 12.8-12.8h25.6c7.04 0 12.8 5.76 12.8 12.8v25.6c0 7.04-5.76 12.8-12.8 12.8H89.6c-7.04 0-12.8-5.76-12.8-12.8zM192 128h25.6c7.04 0 12.8 5.76 12.8 12.8v25.6c0 7.04-5.76 12.8-12.8 12.8H192c-7.04 0-12.8-5.76-12.8-12.8v-25.6c0-7.04 5.76-12.8 12.8-12.8M76.8 243.2c0-7.04 5.76-12.8 12.8-12.8h25.6c7.04 0 12.8 5.76 12.8 12.8v25.6c0 7.04-5.76 12.8-12.8 12.8H89.6c-7.04 0-12.8-5.76-12.8-12.8zM192 230.4h25.6c7.04 0 12.8 5.76 12.8 12.8v25.6c0 7.04-5.76 12.8-12.8 12.8H192c-7.04 0-12.8-5.76-12.8-12.8v-25.6c0-7.04 5.76-12.8 12.8-12.8M371.2 51.2c-14.16 0-25.6 11.44-25.6 25.6v358.4c0 14.16 11.44 25.6 25.6 25.6s25.6-11.44 25.6-25.6V204.8h89.6c14.16 0 25.6-11.44 25.6-25.6v-76.8c0-14.16-11.44-25.6-25.6-25.6h-89.6c0-14.16-11.44-25.6-25.6-25.6"/></svg>