<svg xmlns="http://www.w3.org/2000/svg" viewBox="0 0 512 512"><!--! Font Awesome Free 7.0.1 by @fontawesome - https://fontawesome.com License - https://fontawesome.com/license/free (Icons: CC BY 4.0, Fonts: SIL OFL 1.1, Code: MIT License) Copyright 2025 Fonticons, Inc.--><path fill="currentColor" d="M60.235 0C27.012 0 0 27.012 0 60.235v361.412c0 33.224 27.012 60.235 60.235 60.235h169.412c-9.882-13.74-17.882-28.894-23.623-45.176h-70.495v-75.294c0-16.66 13.46-30.118 30.118-30.118h30.118c1.882 0 3.764.188 5.553.47 5.647-22.211 15.34-42.729 28.33-60.705h-3.766c-8.282 0-15.058-6.777-15.058-15.059v-30.118c0-8.282 6.776-15.058 15.058-15.058H256c8.282 0 15.059 6.776 15.059 15.058v3.765c25.882-18.635 56.753-30.494 90.353-33.318V60.235C361.412 27.012 334.4 0 301.176 0zm30.118 105.412c0-8.283 6.776-15.06 15.059-15.06h30.117c8.283 0 15.06 6.777 15.06 15.06v30.117c0 8.283-6.777 15.06-15.06 15.06h-30.117c-8.283 0-15.06-6.777-15.06-15.06zm135.53-15.06H256c8.282 0 15.059 6.777 15.059 15.06v30.117c0 8.283-6.777 15.06-15.059 15.06h-30.118c-8.282 0-15.058-6.777-15.058-15.06v-30.117c0-8.283 6.776-15.06 15.058-15.06m-135.53 135.53c0-8.282 6.776-15.058 15.059-15.058h30.117c8.283 0 15.06 6.776 15.06 15.058V256c0 8.282-6.777 15.059-15.06 15.059h-30.117c-8.283 0-15.06-6.777-15.06-15.059zM512 376.471c0-74.824-60.706-135.53-135.53-135.53-74.823 0-135.529 60.706-135.529 135.53 0 74.823 60.706 135.529 135.53 135.529C451.294 512 512 451.294 512 376.47m-81.506-57.318c6.682 4.894 8.188 14.306 3.294 20.988l-60.235 82.824c-2.635 3.576-6.588 5.835-11.012 6.117-4.423.283-8.753-1.223-11.859-4.33l-37.647-37.646c-5.835-5.835-5.835-15.435 0-21.27 5.836-5.836 15.436-5.836 21.27 0l25.224 25.223 49.883-68.612c4.894-6.682 14.306-8.188 21.082-3.294"/></svg>