<svg xmlns="http://www.w3.org/2000/svg" viewBox="0 0 512 512"><!--! Font Awesome Free 7.0.1 by @fontawesome - https://fontawesome.com License - https://fontawesome.com/license/free (Icons: CC BY 4.0, Fonts: SIL OFL 1.1, Code: MIT License) Copyright 2025 Fonticons, Inc.--><path fill="currentColor" d="m445.304 111.724 54.271-54.272C512 45.027 512 24.85 499.575 12.425s-32.602-12.425-45.027 0l-54.272 54.271H174.941v63.615h161.72L127.23 339.743V34.889c0-17.594-14.214-31.808-31.808-31.808-17.593 0-31.807 14.214-31.807 31.808v31.807H31.807C14.214 66.696 0 80.91 0 98.504c0 17.593 14.214 31.807 31.807 31.807h31.808v254.46c0 35.087 28.527 63.614 63.615 63.614h206.748V384.77H172.257l209.432-209.432v304.855c0 17.593 14.214 31.807 31.807 31.807 17.594 0 31.808-14.214 31.808-31.807v-31.808h31.807c17.594 0 31.808-14.214 31.808-31.807 0-17.594-14.214-31.808-31.808-31.808h-31.807z"/></svg>