<svg xmlns="http://www.w3.org/2000/svg" viewBox="0 0 512 512"><!--! Font Awesome Free 7.0.1 by @fontawesome - https://fontawesome.com License - https://fontawesome.com/license/free (Icons: CC BY 4.0, Fonts: SIL OFL 1.1, Code: MIT License) Copyright 2025 Fonticons, Inc.--><path fill="currentColor" d="m9.213 116.925 70.566 70.567c9.213 9.212 24.11 9.212 33.226 0 9.114-9.213 9.212-24.11 0-33.226l-30.383-30.382h343.13c21.66 0 39.204 17.543 39.204 39.203v23.522a23.466 23.466 0 0 0 23.522 23.523A23.466 23.466 0 0 0 512 186.609v-23.522c0-47.632-38.616-86.248-86.248-86.248H82.622l30.383-30.383c9.212-9.213 9.212-24.11 0-33.225s-24.013-9.31-33.226-.196L9.213 83.602C0 92.815 0 107.712 9.213 116.827zm59.59 176.024L46.063 472.7c-2.352 18.72 12.251 35.283 31.07 35.283h151.423c17.348 0 31.363-14.016 31.363-31.363V361.556a10.33 10.33 0 0 1 10.39-10.39c3.92 0 7.546 2.255 9.31 5.783l66.842 133.783c5.293 10.585 16.172 17.348 28.031 17.348h70.469c18.915 0 33.519-16.564 31.069-35.284l-22.64-179.749c-1.177-9.506-6.763-18.033-14.996-22.934l-162.205-97.42c-9.997-5.98-22.444-5.98-32.441.097L83.602 270.113c-8.135 4.999-13.623 13.428-14.8 22.836"/></svg>