<svg xmlns="http://www.w3.org/2000/svg" viewBox="0 0 512 512"><!--! Font Awesome Free 7.0.1 by @fontawesome - https://fontawesome.com License - https://fontawesome.com/license/free (Icons: CC BY 4.0, Fonts: SIL OFL 1.1, Code: MIT License) Copyright 2025 Fonticons, Inc.--><path fill="currentColor" d="M452.847 241H286.803c-16.699 0-30.19-13.492-30.19-30.19V44.766c0-16.699 13.586-30.379 30.096-28.209 100.947 13.397 180.95 93.4 194.346 194.347 2.17 16.51-11.51 30.095-28.208 30.095M179.44 49.671c17.076-3.585 31.888 10.377 31.888 27.83v186.14c0 5.283 1.886 10.378 5.188 14.434L341.145 428.46c11.038 13.303 8.68 33.398-6.51 41.605-32.171 17.548-69.06 27.549-108.212 27.549C101.42 497.613 0 396.193 0 271.189 0 162.223 76.89 71.276 179.44 49.672m240.763 236.612h60.38c17.453 0 31.416 14.812 27.831 31.888-9.623 45.662-33.02 86.23-65.663 117.174-11.604 11.038-29.812 8.68-40.001-3.68l-79.626-95.946c-16.321-19.718-2.264-49.436 23.209-49.436h73.776z"/></svg>