<svg xmlns="http://www.w3.org/2000/svg" viewBox="0 0 512 512"><!--! Font Awesome Free 7.0.1 by @fontawesome - https://fontawesome.com License - https://fontawesome.com/license/free (Icons: CC BY 4.0, Fonts: SIL OFL 1.1, Code: MIT License) Copyright 2025 Fonticons, Inc.--><path fill="currentColor" d="M206.267 49.778C206.267 22.31 228.577 0 256.044 0s49.778 22.311 49.778 49.778-22.31 49.778-49.778 49.778c-27.466 0-49.777-22.312-49.777-49.778m-21.334 320H162c-9.689 0-16.533-9.511-13.511-18.756l38.222-114.666-42.933 57.866c-9.334 12.622-27.2 15.29-39.822 5.867s-15.29-27.2-5.867-39.822l62.667-84.445A118.85 118.85 0 0 1 256.044 128c37.6 0 72.89 17.778 95.29 47.911L414 260.356c9.333 12.622 6.756 30.4-5.867 39.822-12.622 9.422-30.4 6.755-39.822-5.867l-42.933-57.867L363.6 351.022c3.111 9.245-3.822 18.756-13.511 18.756h-22.933v113.778c0 15.733-12.712 28.444-28.445 28.444s-28.444-12.711-28.444-28.444V369.778h-28.445v113.778c0 15.733-12.71 28.444-28.444 28.444s-28.445-12.711-28.445-28.444z"/></svg>