<svg xmlns="http://www.w3.org/2000/svg" viewBox="0 0 512 512"><!--! Font Awesome Free 7.0.1 by @fontawesome - https://fontawesome.com License - https://fontawesome.com/license/free (Icons: CC BY 4.0, Fonts: SIL OFL 1.1, Code: MIT License) Copyright 2025 Fonticons, Inc.--><path fill="currentColor" d="M208.395 294.575c86.356 0 156.317 69.962 156.317 156.318 0 14.378-11.66 26.039-26.038 26.039H26.038C11.66 476.932 0 465.272 0 450.893c0-86.356 69.962-156.318 156.318-156.318zM471.145 120.9c6.839-9.381 19.99-11.485 29.37-4.647s11.485 19.99 4.647 29.37l-89.776 123.441c-3.682 4.997-9.38 8.241-15.518 8.592-6.136.35-12.273-1.929-16.57-6.4l-40.679-42.082c-8.066-8.33-7.89-21.655.526-29.72 8.329-8.067 21.655-7.804 29.72.525L396.1 224l75.046-103.189zm-288.789 124.58c-58.126 0-105.205-47.079-105.205-105.205S124.23 35.068 182.356 35.068s105.206 47.08 105.206 105.206-47.08 105.205-105.206 105.205"/></svg>