<svg xmlns="http://www.w3.org/2000/svg" viewBox="0 0 512 512"><!--! Font Awesome Free 7.0.1 by @fontawesome - https://fontawesome.com License - https://fontawesome.com/license/free (Icons: CC BY 4.0, Fonts: SIL OFL 1.1, Code: MIT License) Copyright 2025 Fonticons, Inc.--><path fill="currentColor" d="M150.588 150.588c41.6 0 75.294-33.694 75.294-75.294S192.188 0 150.588 0 75.294 33.694 75.294 75.294s33.694 75.294 75.294 75.294m0 180.706c41.6 0 75.294-33.694 75.294-75.294s-33.694-75.294-75.294-75.294S75.294 214.4 75.294 256s33.694 75.294 75.294 75.294m0 128A22.534 22.534 0 0 1 128 436.706a22.534 22.534 0 0 1 22.588-22.588 22.534 22.534 0 0 1 22.588 22.588 22.534 22.534 0 0 1-22.588 22.588m0 52.706c41.6 0 75.294-33.694 75.294-75.294s-33.694-75.294-75.294-75.294-75.294 33.694-75.294 75.294S108.988 512 150.588 512M384 436.706a22.534 22.534 0 0 1-22.588 22.588 22.534 22.534 0 0 1-22.588-22.588 22.534 22.534 0 0 1 22.588-22.588A22.534 22.534 0 0 1 384 436.706m52.706 0c0-41.6-33.694-75.294-75.294-75.294s-75.294 33.694-75.294 75.294S319.812 512 361.412 512s75.294-33.694 75.294-75.294m-75.294-203.294A22.534 22.534 0 0 1 384 256a22.534 22.534 0 0 1-22.588 22.588A22.534 22.534 0 0 1 338.824 256a22.534 22.534 0 0 1 22.588-22.588m0 97.882c41.6 0 75.294-33.694 75.294-75.294s-33.694-75.294-75.294-75.294S286.118 214.4 286.118 256s33.694 75.294 75.294 75.294m0-180.706c41.6 0 75.294-33.694 75.294-75.294S403.012 0 361.412 0s-75.294 33.694-75.294 75.294 33.694 75.294 75.294 75.294"/></svg>