<svg xmlns="http://www.w3.org/2000/svg" viewBox="0 0 512 512"><!--! Font Awesome Free 7.0.1 by @fontawesome - https://fontawesome.com License - https://fontawesome.com/license/free (Icons: CC BY 4.0, Fonts: SIL OFL 1.1, Code: MIT License) Copyright 2025 Fonticons, Inc.--><path fill="currentColor" d="M234.473 12.52c12.174-11.283 30.98-11.283 43.054 0l89.375 82.843V83.189c0-17.519 14.153-31.672 31.672-31.672h31.672c17.519 0 31.672 14.153 31.672 31.672v100.46l37.413 34.74c9.502 8.908 12.669 22.666 7.918 34.74-4.75 12.076-16.43 20.093-29.495 20.093h-15.836v174.197c0 34.938-28.406 63.344-63.344 63.344H294.056l-38.007-63.344 79.973-66.611c7.72-6.433 7.522-18.41-.396-24.645l-116.593-91.651c-14.45-11.382-33.454 6.928-22.567 21.774l59.583 81.952-84.624 70.47c-6.037 4.95-7.423 13.66-3.464 20.29l30.98 51.666h-85.515c-34.938 0-63.344-28.406-63.344-63.344V273.123H34.246c-13.065 0-24.744-8.017-29.495-20.092s-1.584-25.932 7.918-34.74L234.374 12.42z"/></svg>