<svg xmlns="http://www.w3.org/2000/svg" viewBox="0 0 512 512"><!--! Font Awesome Free 7.0.1 by @fontawesome - https://fontawesome.com License - https://fontawesome.com/license/free (Icons: CC BY 4.0, Fonts: SIL OFL 1.1, Code: MIT License) Copyright 2025 Fonticons, Inc.--><path fill="currentColor" d="M56.889 85.333C25.51 85.333 0 110.844 0 142.223v56.888c0 7.822 6.578 13.956 13.956 16.533 16.71 5.778 28.71 21.69 28.71 40.356 0 18.667-12 34.578-28.71 40.356C6.578 298.933 0 305.066 0 312.889v56.889c0 31.378 25.511 56.889 56.889 56.889H455.11c31.378 0 56.889-25.511 56.889-56.89V312.89c0-7.822-6.578-13.956-13.956-16.533-16.71-5.778-28.71-21.69-28.71-40.356 0-18.667 12-34.578 28.71-40.356 7.378-2.577 13.956-8.71 13.956-16.533v-56.889c0-31.378-25.511-56.889-56.889-56.889zm312.889 241.778V184.89H142.222V327.11zM99.556 170.667c0-15.734 12.71-28.445 28.444-28.445h256c15.733 0 28.444 12.711 28.444 28.445v170.666c0 15.734-12.71 28.445-28.444 28.445H128c-15.733 0-28.444-12.711-28.444-28.445z"/></svg>