<svg xmlns="http://www.w3.org/2000/svg" viewBox="0 0 512 512"><!--! Font Awesome Free 7.0.1 by @fontawesome - https://fontawesome.com License - https://fontawesome.com/license/free (Icons: CC BY 4.0, Fonts: SIL OFL 1.1, Code: MIT License) Copyright 2025 Fonticons, Inc.--><path fill="currentColor" d="M56.889 42.667C25.51 42.667 0 68.177 0 99.556v256c0 31.377 25.511 56.888 56.889 56.888h2.933c9.245 32.8 39.467 56.89 75.29 56.89 35.821 0 65.955-24.09 75.288-56.89h91.2c9.244 32.8 39.467 56.89 75.289 56.89s65.955-24.09 75.289-56.89h2.933c31.378 0 56.889-25.51 56.889-56.888v-130.4c0-15.112-5.956-29.6-16.622-40.267l-40.267-40.267C444.444 133.956 429.956 128 414.844 128h-45.066V99.556c0-31.378-25.511-56.89-56.89-56.89zM455.11 225.156v45.066h-85.333V184.89h45.066zm-320 130.4c19.645 0 35.556 15.91 35.556 35.555s-15.911 35.556-35.556 35.556-35.555-15.911-35.555-35.556 15.91-35.555 35.555-35.555m206.222 35.555c0-19.644 15.911-35.555 35.556-35.555s35.555 15.91 35.555 35.555-15.91 35.556-35.555 35.556-35.556-15.911-35.556-35.556M184.89 284.444c-35.378 0-64-28.622-64-64 0-29.51 30.667-69.333 49.6-91.022 7.733-8.889 21.155-8.889 28.889 0 18.844 21.69 49.6 61.422 49.6 91.022 0 42.667-28.622 64-64 64z"/></svg>