<svg xmlns="http://www.w3.org/2000/svg" viewBox="0 0 512 512"><!--! Font Awesome Free 7.0.1 by @fontawesome - https://fontawesome.com License - https://fontawesome.com/license/free (Icons: CC BY 4.0, Fonts: SIL OFL 1.1, Code: MIT License) Copyright 2025 Fonticons, Inc.--><path fill="currentColor" d="M176.034 47.96a23.947 23.947 0 0 1 24.005-24.005h16.003a23.947 23.947 0 0 1 24.005 24.004 23.947 23.947 0 0 1-24.005 24.005H200.04a23.947 23.947 0 0 1-24.005-24.005m24.005 48.009h16.003a23.947 23.947 0 0 1 24.005 24.004 23.947 23.947 0 0 1-24.005 24.005H200.04a23.947 23.947 0 0 1-24.005-24.005A23.947 23.947 0 0 1 200.04 95.97M56.011 167.983h16.003a23.947 23.947 0 0 1 24.005 24.004 23.947 23.947 0 0 1-24.005 24.005H56.011a23.947 23.947 0 0 1-24.005-24.005 23.947 23.947 0 0 1 24.005-24.004M0 291.407c0-15.103 12.302-27.405 27.405-27.405h457.19c15.103 0 27.405 12.302 27.405 27.405 0 70.514-44.409 130.725-106.72 154.13l-1.701 14.503c-2 16.003-15.603 28.005-31.806 28.005H140.227c-16.103 0-29.805-12.002-31.806-28.005l-1.8-14.403C44.409 422.132 0 361.921 0 291.407m224.044-99.42a23.947 23.947 0 0 1 24.004-24.004h16.004a23.947 23.947 0 0 1 24.004 24.004 23.947 23.947 0 0 1-24.004 24.005h-16.004a23.947 23.947 0 0 1-24.004-24.005m-96.019 0a23.947 23.947 0 0 1 24.005-24.004h16.003a23.947 23.947 0 0 1 24.005 24.004 23.947 23.947 0 0 1-24.005 24.005H152.03a23.947 23.947 0 0 1-24.005-24.005M104.02 95.97h16.003a23.947 23.947 0 0 1 24.005 24.004 23.947 23.947 0 0 1-24.005 24.005H104.02a23.947 23.947 0 0 1-24.004-24.005A23.947 23.947 0 0 1 104.02 95.97m216.043 96.018a23.947 23.947 0 0 1 24.004-24.004h16.003a23.947 23.947 0 0 1 24.005 24.004 23.947 23.947 0 0 1-24.005 24.005h-16.003a23.947 23.947 0 0 1-24.004-24.005M296.058 95.97h16.003a23.947 23.947 0 0 1 24.005 24.004 23.947 23.947 0 0 1-24.005 24.005h-16.003a23.947 23.947 0 0 1-24.005-24.005 23.947 23.947 0 0 1 24.005-24.004m120.023 96.018a23.947 23.947 0 0 1 24.005-24.004h16.003a23.947 23.947 0 0 1 24.005 24.004 23.947 23.947 0 0 1-24.005 24.005h-16.003a23.947 23.947 0 0 1-24.005-24.005M392.077 95.97h16.003a23.947 23.947 0 0 1 24.004 24.004 23.947 23.947 0 0 1-24.004 24.005h-16.003a23.947 23.947 0 0 1-24.005-24.005 23.947 23.947 0 0 1 24.005-24.004m-96.02-72.014h16.004a23.947 23.947 0 0 1 24.005 24.004 23.947 23.947 0 0 1-24.005 24.005h-16.003a23.947 23.947 0 0 1-24.005-24.005 23.947 23.947 0 0 1 24.005-24.004"/></svg>