<svg xmlns="http://www.w3.org/2000/svg" viewBox="0 0 512 512"><!--! Font Awesome Free 7.0.1 by @fontawesome - https://fontawesome.com License - https://fontawesome.com/license/free (Icons: CC BY 4.0, Fonts: SIL OFL 1.1, Code: MIT License) Copyright 2025 Fonticons, Inc.--><path fill="currentColor" d="M93.09 53.189c0-26.834 21.797-48.63 48.63-48.63s48.63 21.796 48.63 48.63c0 26.833-21.796 48.63-48.63 48.63-26.833 0-48.63-21.797-48.63-48.63m-6.946 157.438-19.626 19.625c-5.21 5.21-8.163 12.245-8.163 19.626v32.564c0 15.37-12.417 27.789-27.788 27.789-15.37 0-27.788-12.418-27.788-27.789v-32.564a83.33 83.33 0 0 1 24.401-58.963l30.48-30.48c19.8-19.8 46.546-30.915 74.508-30.915 32.044 0 62.35 14.589 82.323 39.598l15.631 19.539a27.84 27.84 0 0 0 21.71 10.42h28.83c15.37 0 27.788 12.418 27.788 27.789 0 15.37-12.417 27.788-27.788 27.788h-28.83c-25.357 0-49.238-11.55-65.13-31.262l-3.299-4.081v100.038l29.96 25.704c15.37 13.2 25.443 31.435 28.309 51.495l10.941 76.505c2.171 15.197-8.423 29.265-23.62 31.435-15.197 2.171-29.264-8.423-31.435-23.62l-10.942-76.504c-.955-6.687-4.342-12.766-9.465-17.194l-61.916-53.059c-18.497-15.804-29.091-38.99-29.091-63.305zm.087 143.891c2.084 1.998 4.168 3.995 6.426 5.905l39.945 34.215-1.91 6.6c-3.908 13.633-11.202 26.051-21.189 36.037l-59.31 59.311c-10.855 10.855-28.483 10.855-39.338 0s-10.855-28.483 0-39.338l59.31-59.31c3.3-3.3 5.732-7.469 7.034-11.984zm355.082-22.578c-8.162 8.163-21.362 8.163-29.438 0s-8.163-21.362 0-29.438l26.92-26.92h-88.662a20.79 20.79 0 0 1-20.841-20.841 20.79 20.79 0 0 1 20.841-20.841h88.662l-26.92-26.92c-8.163-8.163-8.163-21.363 0-29.439s21.362-8.162 29.438 0l62.524 62.524c8.163 8.163 8.163 21.362 0 29.438l-62.524 62.524z"/></svg>