<svg xmlns="http://www.w3.org/2000/svg" viewBox="0 0 512 512"><!--! Font Awesome Free 7.0.1 by @fontawesome - https://fontawesome.com License - https://fontawesome.com/license/free (Icons: CC BY 4.0, Fonts: SIL OFL 1.1, Code: MIT License) Copyright 2025 Fonticons, Inc.--><path fill="currentColor" d="M242.193 53.604c7.634-7.634 19.98-7.634 27.533 0l71.472 71.472c7.634 7.635 7.634 19.98 0 27.533s-19.98 7.635-27.533 0l-38.173-38.172v225.868A19.446 19.446 0 0 1 256 359.797a19.446 19.446 0 0 1-19.492-19.492V114.437l-38.173 38.172c-7.634 7.635-19.98 7.635-27.533 0s-7.634-19.98 0-27.533zm-51.168 150.254v132.467c-8.609-1.787-17.3-2.6-25.99-2.518-26.395.163-52.71 8.69-74.964 25.503-7.147 5.36-12.914 8.852-17.624 10.964l-.65.325c-3.005 1.38-5.198 2.355-7.96.244a60 60 0 0 0-15.675-8.447l-.08-119.553c0-21.523 17.461-38.985 38.984-38.985zm272.894 38.985v126.05c-.894.65-1.787 1.219-2.68 1.95-3.33 2.517-6.742.65-10.234-1.219-.487-.243-.975-.487-1.462-.812-4.223-2.193-9.015-5.36-14.62-9.502-22.821-17.137-49.786-25.665-76.67-25.503-12.588.081-25.177 2.03-37.36 5.929V203.858h103.96c21.523 0 38.985 17.462 38.985 38.985zM323.736 434.599C304 449.381 281.259 463.756 256 463.756s-48-14.375-67.736-29.157c-17.3-13.076-40.528-13.076-57.827 0-19.33 14.538-43.94 28.832-71.554 28.67-16.568-.081-33.056-5.442-48.568-17.137-8.61-6.497-10.315-18.68-3.818-27.29 6.498-8.608 18.68-10.314 27.29-3.817 9.177 6.904 17.543 9.26 25.34 9.34 14.294.082 30.294-7.634 47.837-20.873 31.188-23.553 73.503-23.553 104.772 0 19.492 14.7 33.056 21.36 44.264 21.36s24.772-6.66 44.264-21.36c31.188-23.553 73.502-23.553 104.772 0 13.725 10.315 26.72 17.462 38.822 19.98 11.127 2.274 22.254.731 34.355-8.365 8.61-6.498 20.792-4.792 27.29 3.817s4.791 20.792-3.818 27.29c-21.441 16.162-44.02 19.816-65.543 15.512-20.548-4.142-39.066-15.35-54.579-27.046-17.299-13.076-40.527-13.076-57.827 0z"/></svg>