<svg xmlns="http://www.w3.org/2000/svg" viewBox="0 0 512 512"><!--! Font Awesome Free 7.0.1 by @fontawesome - https://fontawesome.com License - https://fontawesome.com/license/free (Icons: CC BY 4.0, Fonts: SIL OFL 1.1, Code: MIT License) Copyright 2025 Fonticons, Inc.--><path fill="currentColor" d="M391.253 485.251c-66.662 0-120.747-54.084-120.747-120.747s54.085-120.746 120.747-120.746S512 297.842 512 364.504c0 66.663-54.085 120.747-120.747 120.747M200.573 34.547c10.23-7.798 24.905-7.295 34.548 1.677l182.462 169.381a160 160 0 0 0-26.246-2.18c-65.908 0-122.508 39.578-147.412 96.262-4.276-1.51-8.804-2.348-13.584-2.348H203.51c-22.221 0-40.25 18.028-40.25 40.249v80.498h76.306c5.115 14.506 12.242 28.006 21.047 40.249l-164.518.084c-29.6 0-53.665-24.066-53.665-53.666v-147.58H29.013a26.86 26.86 0 0 1-24.988-17.021c-4.025-10.23-1.342-21.97 6.708-29.432L198.561 36.308l2.013-1.677zm190.68 366.852c-9.224 0-16.77 7.547-16.77 16.77 0 9.224 7.546 16.771 16.77 16.771s16.77-7.547 16.77-16.77c0-9.224-7.546-16.77-16.77-16.77m0-117.392c-7.379 0-13.416 6.037-13.416 13.416v67.081c0 7.38 6.037 13.417 13.416 13.417s13.417-6.038 13.417-13.417v-67.081c0-7.38-6.038-13.416-13.417-13.416"/></svg>