<svg xmlns="http://www.w3.org/2000/svg" viewBox="0 0 512 512"><!--! Font Awesome Free 7.0.1 by @fontawesome - https://fontawesome.com License - https://fontawesome.com/license/free (Icons: CC BY 4.0, Fonts: SIL OFL 1.1, Code: MIT License) Copyright 2025 Fonticons, Inc.--><path fill="currentColor" d="M248.117 256c0-53.328-43.162-96.49-96.49-96.49s-96.49 43.162-96.49 96.49 43.162 96.49 96.49 96.49 96.49-43.162 96.49-96.49m-96.49-151.627c74.35 0 136.206 53.5 149.129 124.145.861-.087 1.637-.087 2.498-.087h13.785v-27.568c0-15.249 12.32-27.569 27.568-27.569s27.569 12.32 27.569 27.569v27.568h52.897l-19.298-24.122c-9.477-11.889-7.581-29.206 4.307-38.768 11.89-9.563 29.206-7.582 38.769 4.307l55.137 68.922c8.012 10.08 8.012 24.38 0 34.46l-55.137 68.922c-9.477 11.889-26.88 13.784-38.769 4.307s-13.784-26.879-4.307-38.768l19.298-24.122h-52.897v27.568c0 15.249-12.32 27.569-27.569 27.569s-27.568-12.32-27.568-27.569V283.57h-13.785c-.861 0-1.637 0-2.498-.087-12.923 70.645-74.78 124.145-149.129 124.145C67.887 407.627 0 339.74 0 256s67.888-151.627 151.627-151.627"/></svg>