<svg xmlns="http://www.w3.org/2000/svg" viewBox="0 0 512 512"><!--! Font Awesome Free 7.0.1 by @fontawesome - https://fontawesome.com License - https://fontawesome.com/license/free (Icons: CC BY 4.0, Fonts: SIL OFL 1.1, Code: MIT License) Copyright 2025 Fonticons, Inc.--><path fill="currentColor" d="M206.935 59.403c0-26.185-21.27-47.455-47.454-47.455s-47.455 21.27-47.455 47.455 21.27 47.454 47.455 47.454 47.454-21.27 47.454-47.454m20.338 180.242 31.354 42.285c10.847-14.829 24.15-27.71 39.235-38.133l-47.624-64.148c-21.27-28.727-54.912-45.675-90.757-45.675A113.14 113.14 0 0 0 68.64 179.65L8.898 260.152C0 272.185 2.458 289.133 14.49 298.116s28.98 6.44 37.963-5.593l39.235-52.878v233.29c0 14.999 12.118 27.117 27.117 27.117s27.117-12.118 27.117-27.117V337.35c0-7.458 6.1-13.559 13.558-13.559 7.457 0 13.558 6.101 13.558 13.559v135.584c0 14.999 12.118 27.117 27.117 27.117s27.117-12.118 27.117-27.117zm162.701 260.407c67.369 0 122.026-54.658 122.026-122.026C512 310.657 457.343 256 389.974 256c-67.368 0-122.026 54.657-122.026 122.026 0 67.368 54.658 122.026 122.026 122.026m19.151-122.026 31.1 31.1c5.254 5.253 5.254 13.897 0 19.15-5.254 5.255-13.897 5.255-19.151 0l-31.1-31.099-31.1 31.1c-5.253 5.254-13.897 5.254-19.15 0-5.255-5.254-5.255-13.898 0-19.152l31.099-31.1-31.1-31.099c-5.254-5.254-5.254-13.897 0-19.151s13.898-5.254 19.152 0l31.1 31.1 31.099-31.1c5.254-5.254 13.897-5.254 19.151 0s5.254 13.897 0 19.151z"/></svg>