<svg xmlns="http://www.w3.org/2000/svg" viewBox="0 0 512 512"><!--! Font Awesome Free 7.0.1 by @fontawesome - https://fontawesome.com License - https://fontawesome.com/license/free (Icons: CC BY 4.0, Fonts: SIL OFL 1.1, Code: MIT License) Copyright 2025 Fonticons, Inc.--><path fill="currentColor" d="M462.014 206.014C489.596 206.014 512 228.418 512 256s-22.404 49.986-49.986 49.986h-113.63L206.283 460.943c-5.445 5.891-13.032 9.283-21.066 9.283H146.21c-9.73 0-16.602-9.551-13.567-18.834l48.468-145.406H92.117l-47.13 58.912c-2.677 3.392-6.783 5.356-11.157 5.356H16.156c-9.283 0-16.067-8.748-13.835-17.763L26.42 256l-24.1-96.49C0 150.493 6.873 141.745 16.156 141.745H33.83c4.374 0 8.48 1.964 11.157 5.356l47.13 58.912h88.993L132.642 60.608c-3.035-9.283 3.838-18.834 13.567-18.834h39.007c8.034 0 15.62 3.392 21.066 9.283l142.103 154.957z"/></svg>