<svg xmlns="http://www.w3.org/2000/svg" viewBox="0 0 512 512"><!--! Font Awesome Free 7.0.1 by @fontawesome - https://fontawesome.com License - https://fontawesome.com/license/free (Icons: CC BY 4.0, Fonts: SIL OFL 1.1, Code: MIT License) Copyright 2025 Fonticons, Inc.--><path fill="currentColor" d="M28.444 142.222c14.756 0 26.845 11.2 28.267 25.511l.267 5.867c1.51 14.311 13.6 25.511 28.355 25.511h159.2L369.778 252.8v216.533c0 15.734-12.711 28.445-28.445 28.445H312.89c-15.733 0-28.445-12.711-28.445-28.445v-116.71a155.5 155.5 0 0 1-71.11 17.155c-25.6 0-49.778-6.222-71.112-17.156v116.711c0 15.734-12.71 28.445-28.444 28.445H85.333c-15.733 0-28.444-12.711-28.444-28.445v-218.31C23.733 239.288 0 207.822 0 170.666c0-15.734 12.711-28.445 28.444-28.445m287.823-128c6.844 0 13.244 3.2 17.422 8.711l14.755 19.734h46.312c11.288 0 22.133 4.533 30.133 12.533l16 15.911h49.778A21.28 21.28 0 0 1 512 92.444v21.334c0 39.289-31.822 71.11-71.111 71.11H384l-6.222 24.89-110.845-47.467 28.09-130.844c2.133-10.045 10.933-17.245 21.244-17.245m81.955 67.556c-9.778 0-17.778 8-17.778 17.778s8 17.777 17.778 17.777 17.778-8 17.778-17.777-8-17.778-17.778-17.778"/></svg>