<svg xmlns="http://www.w3.org/2000/svg" viewBox="0 0 512 512"><!--! Font Awesome Free 7.0.1 by @fontawesome - https://fontawesome.com License - https://fontawesome.com/license/free (Icons: CC BY 4.0, Fonts: SIL OFL 1.1, Code: MIT License) Copyright 2025 Fonticons, Inc.--><path fill="currentColor" d="M0 73.143C0 32.8 32.8 0 73.143 0h365.714C479.2 0 512 32.8 512 73.143v365.714C512 479.2 479.2 512 438.857 512H73.143C32.8 512 0 479.2 0 438.857zM54.857 384v36.571c0 10.058 8.229 18.286 18.286 18.286h36.571c10.057 0 18.286-8.228 18.286-18.286V384c0-10.057-8.229-18.286-18.286-18.286H73.143c-10.057 0-18.286 8.229-18.286 18.286m347.429-18.286C392.229 365.714 384 373.943 384 384v36.571c0 10.058 8.229 18.286 18.286 18.286h36.571c10.057 0 18.286-8.228 18.286-18.286V384c0-10.057-8.229-18.286-18.286-18.286zm-347.429-128v36.572c0 10.057 8.229 18.285 18.286 18.285h36.571c10.057 0 18.286-8.228 18.286-18.285v-36.572c0-10.057-8.229-18.285-18.286-18.285H73.143c-10.057 0-18.286 8.228-18.286 18.285m347.429-18.285c-10.057 0-18.286 8.228-18.286 18.285v36.572c0 10.057 8.229 18.285 18.286 18.285h36.571c10.057 0 18.286-8.228 18.286-18.285v-36.572c0-10.057-8.229-18.285-18.286-18.285zm-347.429-128V128c0 10.057 8.229 18.286 18.286 18.286h36.571c10.057 0 18.286-8.229 18.286-18.286V91.429c0-10.058-8.229-18.286-18.286-18.286H73.143c-10.057 0-18.286 8.228-18.286 18.286m347.429-18.286C392.229 73.143 384 81.37 384 91.429V128c0 10.057 8.229 18.286 18.286 18.286h36.571c10.057 0 18.286-8.229 18.286-18.286V91.429c0-10.058-8.229-18.286-18.286-18.286z"/></svg>