<svg xmlns="http://www.w3.org/2000/svg" viewBox="0 0 512 512"><!--! Font Awesome Free 7.0.1 by @fontawesome - https://fontawesome.com License - https://fontawesome.com/license/free (Icons: CC BY 4.0, Fonts: SIL OFL 1.1, Code: MIT License) Copyright 2025 Fonticons, Inc.--><path fill="currentColor" d="M248.148 12.425C260.572 0 280.75 0 293.175 12.425l127.23 127.23c9.144 9.144 11.828 22.762 6.858 34.69s-16.6 19.58-29.422 19.58h-63.615v159.038C334.226 440.83 263.057 512 175.19 512h-63.615c-17.593 0-31.807-14.214-31.807-31.807v-63.615c0-17.594 14.214-31.808 31.807-31.808h63.615c17.594 0 31.808-14.214 31.808-31.807V193.926h-63.615c-12.822 0-24.452-7.753-29.422-19.681s-2.187-25.545 6.858-34.69l127.23-127.23z"/></svg>