<svg xmlns="http://www.w3.org/2000/svg" viewBox="0 0 512 512"><!--! Font Awesome Free 7.0.1 by @fontawesome - https://fontawesome.com License - https://fontawesome.com/license/free (Icons: CC BY 4.0, Fonts: SIL OFL 1.1, Code: MIT License) Copyright 2025 Fonticons, Inc.--><path fill="currentColor" d="M160.469 265.248c0 8.499-3.4 16.597-9.399 22.596l-26.794 26.795c-12.298 12.297-32.494 11.397-49.39 7.198-4.6-1.1-9.499-1.8-14.498-1.8C27.295 320.037.4 346.932.4 380.026s26.895 59.988 59.988 59.988c6.299 0 11.998 5.699 11.998 11.998 0 33.093 26.895 59.988 59.988 59.988s59.988-26.895 59.988-59.988c0-5-.6-9.798-1.8-14.497-4.198-16.897-5.198-37.093 7.2-49.39l26.794-26.796c5.999-5.998 14.097-9.398 22.596-9.398h89.182c6.3 0 12.398-.3 18.497-1 11.897-1.2 16.396-15.497 10.798-25.994-8.499-15.797-13.298-33.794-13.298-52.99 0-61.888 50.09-111.978 111.978-111.978 7.999 0 15.697.8 23.196 2.4 11.697 2.499 24.095-5.9 21.995-17.597C494.803 62.488 422.817 0 336.334 0 239.154 0 160.37 78.785 160.37 175.966v89.182z"/></svg>