<svg xmlns="http://www.w3.org/2000/svg" viewBox="0 0 512 512"><!--! Font Awesome Free 7.0.1 by @fontawesome - https://fontawesome.com License - https://fontawesome.com/license/free (Icons: CC BY 4.0, Fonts: SIL OFL 1.1, Code: MIT License) Copyright 2025 Fonticons, Inc.--><path fill="currentColor" d="M292.66 56.339c121.168 0 219.34 98.172 219.34 219.34v35.377l-.354 7.253c-3.626 35.642-33.785 63.502-70.4 63.502h-10.88l22.288 39.004c5.838 10.17 2.3 23.172-7.871 29.01-10.171 5.836-23.172 2.299-28.921-7.872l-34.316-60.054h-71.109l-42.63 61.646c-6.633 9.64-19.9 12.028-29.54 5.395s-12.028-19.9-5.395-29.54l25.914-37.412h-65.89l-45.726 62.087c-6.987 9.464-20.253 11.41-29.717 4.51-9.463-6.898-11.41-20.253-4.51-29.716l35.82-48.644-38.032-14.505-70.135 88.886c-7.253 9.198-20.608 10.79-29.806 3.538C1.592 440.89 0 427.536 7.252 418.338L219.517 149.47l1.857-2.035c4.6-4.51 11.056-6.633 17.6-5.837 7.43.973 13.798 5.749 16.716 12.648l19.193 44.84L311.056 150l1.857-2.122c4.511-4.688 11.056-7.076 17.69-6.368a21.35 21.35 0 0 1 17.069 12.736l36.97 86.232h56.78c9.021 0 17.689 1.769 25.649 4.865-14.505-83.137-86.94-146.375-174.234-146.375h-14.151a21.176 21.176 0 0 1-21.227-21.226 21.176 21.176 0 0 1 21.227-21.227h14.15zm141.51 233.49a21.176 21.176 0 0 0-21.227 21.227 21.176 21.176 0 0 0 21.227 21.227 21.176 21.176 0 0 0 21.226-21.227 21.176 21.176 0 0 0-21.226-21.226M41.038 320.874c-6.457-8.579-10.171-19.103-10.171-30.336 0-27.683 22.553-50.236 50.324-50.236h24.41l-64.475 80.572zm160.613-80.572h42.63l1.238-1.68-14.947-34.935-28.92 36.704zm95.343 0h41.303l-15.213-35.377z"/></svg>