<svg xmlns="http://www.w3.org/2000/svg" viewBox="0 0 512 512"><!--! Font Awesome Free 7.0.1 by @fontawesome - https://fontawesome.com License - https://fontawesome.com/license/free (Icons: CC BY 4.0, Fonts: SIL OFL 1.1, Code: MIT License) Copyright 2025 Fonticons, Inc.--><path fill="currentColor" d="M438.604 497.896c-39.085 0-70.742-31.658-70.742-70.743s31.657-70.743 70.742-70.743 70.743 31.658 70.743 70.743-31.657 70.743-70.743 70.743M94.441 261.969c27.06-27.06 64.642-40.589 102.4-37.317l104.7 104.61c3.271 37.848-10.258 75.342-37.317 102.49a129.26 129.26 0 0 1-91.347 37.847H19.543C8.754 469.599 0 460.844 0 450.056c0-5.571 2.388-10.877 6.455-14.59L118.23 334.921c3.714-3.272-.354-9.196-4.775-6.986l-45.187 22.638c-5.394 2.653-11.673-1.238-11.673-7.251 0-27.855 11.054-54.649 30.773-74.28zM463.188 23.212c11.142-9.108 27.5-8.4 37.847 1.946C511.38 35.504 512 51.863 502.98 63.005l-1.945 2.122L331.253 234.91l30.773 30.684c3.714 3.714 5.836 8.843 5.836 14.149 0 11.054-8.931 19.985-19.985 19.985h-25.733l-95.767-95.768v-25.733c0-11.053 8.93-19.985 19.984-19.985 5.306 0 10.435 2.123 14.149 5.837l30.773 30.684L461.065 24.981l2.123-1.945z"/></svg>