<svg xmlns="http://www.w3.org/2000/svg" viewBox="0 0 512 512"><!--! Font Awesome Free 7.0.1 by @fontawesome - https://fontawesome.com License - https://fontawesome.com/license/free (Icons: CC BY 4.0, Fonts: SIL OFL 1.1, Code: MIT License) Copyright 2025 Fonticons, Inc.--><path fill="currentColor" d="M33.134 197.526h131.258c8.842 0 16.863-5.287 20.236-13.49 3.373-8.204 1.55-17.593-4.74-23.882l-42.568-42.568c68.638-53.415 167.993-48.584 231.07 14.493 68.364 68.364 68.364 179.113 0 247.477s-179.113 68.364-247.477 0a174.3 174.3 0 0 1-24.064-30.08c-8.66-13.581-26.708-17.592-40.29-8.933-13.58 8.66-17.592 26.708-8.932 40.29 8.933 14.22 19.597 27.71 31.994 40.015 91.152 91.152 238.818 91.152 329.97 0s91.152-238.818 0-329.97C323.726 4.922 187.454 0 95.755 76.112L48.63 28.895c-6.29-6.198-15.679-8.112-23.882-4.74-8.204 3.373-13.49 11.394-13.49 20.236V175.65a21.824 21.824 0 0 0 21.876 21.876"/></svg>