<svg xmlns="http://www.w3.org/2000/svg" viewBox="0 0 512 512"><!--! Font Awesome Free 7.0.1 by @fontawesome - https://fontawesome.com License - https://fontawesome.com/license/free (Icons: CC BY 4.0, Fonts: SIL OFL 1.1, Code: MIT License) Copyright 2025 Fonticons, Inc.--><path fill="currentColor" d="M419.72 41.048c-5.669-11.443-17.322-18.582-30.025-18.582s-24.356 7.14-30.025 18.582c-53.226 106.348-81.151 162.408-83.986 167.972-8.293 16.588-1.575 36.744 15.013 45.038 16.587 8.293 36.744 1.575 45.037-15.013l7.559-15.012h92.805l7.558 15.012c8.294 16.588 28.45 23.306 45.038 15.013s23.306-28.45 15.012-45.038c-2.834-5.564-30.76-61.624-83.986-167.972m-30.025 90.18 21.207 42.413h-42.413zM288.912 324.816c0 18.582 15.013 33.594 33.594 33.594h53.227l-77.058 77.058c-9.658 9.658-12.493 24.04-7.243 36.639 5.249 12.598 17.532 20.681 31.074 20.681h134.378c18.582 0 33.595-15.012 33.595-33.594s-15.013-33.595-33.595-33.595h-53.226l77.057-77.057c9.659-9.658 12.493-24.04 7.244-36.639-5.25-12.598-17.532-20.681-31.075-20.681H322.506c-18.581 0-33.594 15.012-33.594 33.594M144.666 32.335c-13.123-13.123-34.434-13.123-47.557 0L13.123 116.32C0 129.444 0 150.755 13.123 163.878s34.434 13.123 47.557 0l26.665-26.666v321.982c0 18.582 15.013 33.594 33.595 33.594s33.594-15.012 33.594-33.594V137.212l26.666 26.666c13.123 13.123 34.434 13.123 47.557 0s13.123-34.434 0-47.557l-83.986-83.986z"/></svg>