<svg xmlns="http://www.w3.org/2000/svg" viewBox="0 0 512 512"><!--! Font Awesome Free 7.0.1 by @fontawesome - https://fontawesome.com License - https://fontawesome.com/license/free (Icons: CC BY 4.0, Fonts: SIL OFL 1.1, Code: MIT License) Copyright 2025 Fonticons, Inc.--><path fill="currentColor" d="M389.59 498.484c-67.582 0-122.412-54.83-122.412-122.41 0-67.582 54.83-122.412 122.411-122.412S512 308.492 512 376.073s-54.83 122.41-122.41 122.41M36.807 458.53c-7.99 7.906-20.827 7.906-28.817 0C0 450.54 0 437.618 7.99 429.713zM62.48 208.268c5.271-3.485 12.497-2.89 17.087 1.785l39.188 39.189 5.186 5.695c16.746 20.232 22.357 46.755 16.406 71.322 26.948-6.546 56.275.85 77.017 21.507l10.201 10.2c-.68 5.951-1.02 12.072-1.02 18.192 0 17.002 2.55 33.408 7.396 48.794-31.283 18.532-72.257 14.452-99.12-12.496l-26.096-25.927-71.917 72.001c-9.606-9.606-19.211-19.296-28.902-28.902l72.001-72.002L53.98 331.7c-31.878-31.878-31.878-83.562 0-115.355l6.29-6.29 2.125-1.786zm327.11 205.208c-9.352 0-17.002 7.651-17.002 17.002s7.65 17.001 17.001 17.001 17.002-7.65 17.002-17.001-7.65-17.002-17.002-17.002m0-119.01c-7.481 0-13.602 6.12-13.602 13.601v68.006c0 7.48 6.12 13.601 13.601 13.601 7.48 0 13.601-6.12 13.601-13.6v-68.007c0-7.48-6.12-13.601-13.6-13.601M150.887 119.86c5.27-3.486 12.496-2.89 17.087 1.785l39.188 39.188 5.186 5.696c16.746 20.231 22.357 46.754 16.406 71.32 20.572-5.015 42.589-1.784 61.12 9.182-27.372 21.167-47.774 50.834-57.295 85.092-3.23-2.38-6.375-5.1-9.35-8.076l-80.672-80.672c-31.878-31.877-31.878-83.562 0-115.355l6.29-6.29 2.125-1.785zm264.799-98.27c7.99-7.99 20.911-7.99 28.817 0 7.48 7.482 7.906 19.298 1.445 27.288l-1.445 1.615-97.248 97.249a78.4 78.4 0 0 1 19.126 5.015l49.56-49.559c7.99-7.99 20.911-7.99 28.902 0 7.48 7.48 7.906 19.297 1.36 27.287l-1.445 1.53-44.799 44.8 33.153 33.152c2.72 2.72 3.995 6.291 3.995 9.861-15.046-4.59-31.027-7.055-47.519-7.055-29.072 0-56.36 7.565-79.992 20.912l-78.802-78.802c-31.878-31.878-31.878-83.563 0-115.44l6.29-6.291 2.126-1.785c5.27-3.486 12.496-2.89 17.087 1.785l33.152 33.153 44.8-44.8c7.99-7.99 20.911-7.99 28.902 0 7.48 7.482 7.906 19.298 1.36 27.288l-1.275 1.7-49.56 49.56c2.38 6.035 3.996 12.326 4.931 18.786z"/></svg>