<svg xmlns="http://www.w3.org/2000/svg" viewBox="0 0 512 512"><!--! Font Awesome Free 7.0.1 by @fontawesome - https://fontawesome.com License - https://fontawesome.com/license/free (Icons: CC BY 4.0, Fonts: SIL OFL 1.1, Code: MIT License) Copyright 2025 Fonticons, Inc.--><path fill="currentColor" d="M73.143 0C32.8 0 0 32.8 0 73.143v365.714C0 479.2 32.8 512 73.143 512h365.714C479.2 512 512 479.2 512 438.857V73.143C512 32.8 479.2 0 438.857 0zm146.286 256h54.857c20.228 0 36.571-16.343 36.571-36.571 0-20.229-16.343-36.572-36.571-36.572h-54.857zm54.857 73.143h-54.857v36.571c0 20.229-16.343 36.572-36.572 36.572-20.228 0-36.571-16.343-36.571-36.572V155.43c0-25.258 20.457-45.715 45.714-45.715h82.286C334.857 109.714 384 158.857 384 219.43c0 60.571-49.143 109.714-109.714 109.714"/></svg>