<svg xmlns="http://www.w3.org/2000/svg" viewBox="0 0 512 512"><!--! Font Awesome Free 7.0.1 by @fontawesome - https://fontawesome.com License - https://fontawesome.com/license/free (Icons: CC BY 4.0, Fonts: SIL OFL 1.1, Code: MIT License) Copyright 2025 Fonticons, Inc.--><path fill="currentColor" d="M158.7 468.504c-6.664 8.53-18.66 10.752-27.812 4.71s-12.174-18.216-7.375-27.99l1.066-1.956 32.167-51.537v-36.432l.266-3.554a21.8 21.8 0 0 1 4.088-9.686l34.92-46.384-58.823 52.87c-15.106 13.596-34.655 21.06-55.003 21.149h-7.198C33.588 369.694 0 336.106 0 294.698c0-38.21 28.79-70.376 66.732-74.552l115.96-12.885-39.808-34.032-2.133-2.133c-4.71-5.331-6.487-12.795-4.71-19.815l11.819-47.45-23.014-34.566-1.156-1.866c-5.153-9.597-2.399-21.86 6.576-28.168 8.975-6.31 21.06-4.532 27.901 3.82l1.333 1.778 28.435 42.652 1.244 1.955c2.488 4.71 3.11 10.307 1.866 15.639l-10.93 43.718 47.362 40.608V163.81c0-10.485 5.775-19.638 14.217-24.614V85.437l.266-2.932c1.333-6.487 7.11-11.285 13.951-11.285s12.618 4.887 13.95 11.285l.267 2.843v53.76c8.53 4.886 14.218 14.039 14.218 24.613v25.68l47.45-40.697-10.93-43.718c-1.333-5.243-.622-10.84 1.866-15.64l1.244-1.954 28.435-42.652 1.333-1.777c6.842-8.353 18.927-10.219 27.901-3.821 8.975 6.309 11.64 18.571 6.576 28.168l-1.155 1.866-23.015 34.566 11.818 47.45a22.08 22.08 0 0 1-4.709 19.815l-2.133 2.133-39.72 34.033 115.96 12.884C483.3 224.322 512 256.4 512 294.609c0 41.408-33.588 74.996-74.996 74.996h-7.198c-20.26 0-39.897-7.553-55.003-21.148l-58.735-52.87L350.9 341.97a21.8 21.8 0 0 1 4.088 9.686l.266 3.554v36.432l32.167 51.537 1.066 1.866c4.799 9.775 1.777 21.948-7.375 27.99-9.152 6.043-21.148 3.91-27.812-4.709l-1.244-1.777-35.544-56.869-1.421-2.755c-1.244-2.754-1.866-5.864-1.866-8.974v-35.366l-28.79-38.298v66.377c0 15.728-12.707 28.435-28.435 28.435s-28.435-12.707-28.435-28.435v-66.288l-28.7 38.21v35.365c0 3.11-.623 6.13-1.867 8.974l-1.421 2.755-35.544 56.87-1.244 1.776z"/></svg>