<svg xmlns="http://www.w3.org/2000/svg" viewBox="0 0 512 512"><!--! Font Awesome Free 7.0.1 by @fontawesome - https://fontawesome.com License - https://fontawesome.com/license/free (Icons: CC BY 4.0, Fonts: SIL OFL 1.1, Code: MIT License) Copyright 2025 Fonticons, Inc.--><path fill="currentColor" d="M441.067 212.267a77.5 77.5 0 0 0-30.045-6.045h-89.244L220.444 71.112h42.667a21.28 21.28 0 0 0 21.333-21.334 21.28 21.28 0 0 0-21.333-21.334h-128a21.28 21.28 0 0 0-21.333 21.334A21.28 21.28 0 0 0 135.11 71.11h7.111v135.111H93.867l-46.934-58.666c-2.666-3.378-6.755-5.334-11.11-5.334h-21.6C6.4 142.222 0 148.622 0 156.444v78.223h35.556A21.28 21.28 0 0 1 56.889 256a21.28 21.28 0 0 1-21.333 21.333H0v78.223c0 7.822 6.4 14.222 14.222 14.222h21.6c4.356 0 8.445-1.956 11.111-5.334l46.934-58.666h48.355v135.11h-7.11a21.28 21.28 0 0 0-21.334 21.334 21.28 21.28 0 0 0 21.333 21.334h128a21.28 21.28 0 0 0 21.333-21.334 21.28 21.28 0 0 0-21.333-21.333h-42.667l101.334-135.111h89.244a77.5 77.5 0 0 0 30.045-6.045l57.777-24.089c7.912-3.288 13.156-11.11 13.156-19.733 0-8.622-5.156-16.355-13.156-19.733l-57.777-24.09z"/></svg>