<svg xmlns="http://www.w3.org/2000/svg" viewBox="0 0 512 512"><!--! Font Awesome Free 7.0.1 by @fontawesome - https://fontawesome.com License - https://fontawesome.com/license/free (Icons: CC BY 4.0, Fonts: SIL OFL 1.1, Code: MIT License) Copyright 2025 Fonticons, Inc.--><path fill="currentColor" d="M283.945 10.03c-17.266-9.98-38.624-9.98-55.89 0l-84.036 48.506c-17.267 9.98-27.946 28.444-27.946 48.405v101.701l-88.128 50.901C10.68 269.523 0 287.988 0 307.95v97.11c0 19.96 10.68 38.425 27.945 48.405l84.136 48.506c17.266 9.98 38.625 9.98 55.89 0l88.129-50.901 88.128 50.9c17.266 9.981 38.624 9.981 55.89 0l83.937-48.505C501.32 443.484 512 425.02 512 405.06v-97.11c0-19.961-10.68-38.425-27.945-48.406l-88.128-50.9V106.94c0-19.96-10.68-38.425-27.946-48.405zm-51.898 293.328V409.65l-88.128 50.9a8 8 0 0 1-3.992 1.098V356.554zm230.949.598a8 8 0 0 1 1.098 3.993v97.11c0 2.894-1.498 5.49-3.993 6.886l-84.135 48.506a8 8 0 0 1-3.993 1.098V356.454zM348.12 106.941v101.701L256 261.84V155.546l91.022-52.497a8 8 0 0 1 1.098 3.992z"/></svg>