<svg xmlns="http://www.w3.org/2000/svg" viewBox="0 0 512 512"><!--! Font Awesome Free 7.0.1 by @fontawesome - https://fontawesome.com License - https://fontawesome.com/license/free (Icons: CC BY 4.0, Fonts: SIL OFL 1.1, Code: MIT License) Copyright 2025 Fonticons, Inc.--><path fill="currentColor" d="M370.617 37.415c0 14.227 11.494 25.72 25.72 25.72h27.892l-50.638 50.638c-22.827-15.673-50.396-24.916-80.216-24.916-78.126 0-141.463 63.336-141.463 141.463 0 69.365 49.914 127.075 115.743 139.132v28.051h-25.72c-14.228 0-25.721 11.494-25.721 25.72 0 14.228 11.493 25.721 25.72 25.721h25.72v25.721c0 14.227 11.495 25.72 25.721 25.72s25.72-11.493 25.72-25.72v-25.72h25.721c14.227 0 25.72-11.494 25.72-25.721s-11.493-25.72-25.72-25.72h-25.72v-28.052c65.828-12.057 115.742-69.767 115.742-139.132 0-29.74-9.163-57.39-24.916-80.216l50.637-50.638v27.891c0 14.227 11.494 25.72 25.72 25.72 14.227 0 25.721-11.493 25.721-25.72V37.335c0-14.227-11.494-25.72-25.72-25.72l-89.942.08c-14.227 0-25.72 11.494-25.72 25.72m-77.161 102.883c49.753 0 90.022 40.268 90.022 90.022 0 49.753-40.27 90.022-90.022 90.022-49.754 0-90.022-40.27-90.022-90.022 0-49.754 40.268-90.022 90.022-90.022M151.108 45.533c-2.01-4.903-6.671-8.118-11.976-8.118s-9.967 3.215-11.976 8.118l-23.63 59.48-61.248-18.568c-5.064-1.527-10.53.161-13.825 4.26s-3.617 9.806-1.045 14.388l31.75 55.54-52.728 36.25c-4.34 2.974-6.43 8.279-5.224 13.423s5.385 9.002 10.529 9.806l63.257 9.806-4.502 63.819c-.401 5.224 2.492 10.208 7.234 12.458a13.02 13.02 0 0 0 14.307-2.09l27.891-25.56c-4.26-15.351-6.51-31.507-6.51-48.225 0-52.567 22.505-99.828 58.353-132.702z"/></svg>