<svg xmlns="http://www.w3.org/2000/svg" viewBox="0 0 512 512"><!--! Font Awesome Free 7.0.1 by @fontawesome - https://fontawesome.com License - https://fontawesome.com/license/free (Icons: CC BY 4.0, Fonts: SIL OFL 1.1, Code: MIT License) Copyright 2025 Fonticons, Inc.--><path fill="currentColor" d="M307.455 77.442h102.033c14.11 0 25.509 11.399 25.509 25.508s-11.4 25.508-25.509 25.508h-90.554c-4.145 20.566-18.255 37.545-36.987 45.676V409.05h127.541c14.11 0 25.509 11.399 25.509 25.508s-11.4 25.509-25.509 25.509h-306.1c-14.109 0-25.508-11.4-25.508-25.509s11.4-25.508 25.508-25.508H230.93V174.134c-18.733-8.21-32.842-25.19-36.987-45.676h-90.555c-14.109 0-25.508-11.399-25.508-25.508s11.4-25.508 25.508-25.508h102.034c11.638-15.465 30.131-25.509 51.016-25.509s39.379 10.044 51.017 25.509m44.32 229.575h115.426l-57.713-99.005zm57.713 76.525c-50.14 0-91.83-27.103-100.439-62.894-2.072-8.769.797-17.776 5.341-25.588l75.887-130.093c3.986-6.855 11.32-11 19.211-11 7.892 0 15.226 4.224 19.211 11l75.888 130.093c4.543 7.812 7.413 16.82 5.34 25.588-8.609 35.711-50.299 62.894-100.439 62.894m-307.056-175.53-57.713 99.005h115.505zM2.072 320.648C0 311.879 2.87 302.872 7.414 295.06l75.888-130.093c3.985-6.855 11.319-11 19.21-11 7.892 0 15.226 4.224 19.212 11L197.61 295.06c4.544 7.812 7.413 16.82 5.34 25.588-8.608 35.711-50.299 62.894-100.438 62.894s-91.83-27.103-100.44-62.894"/></svg>