<svg xmlns="http://www.w3.org/2000/svg" viewBox="0 0 512 512"><!--! Font Awesome Free 7.0.1 by @fontawesome - https://fontawesome.com License - https://fontawesome.com/license/free (Icons: CC BY 4.0, Fonts: SIL OFL 1.1, Code: MIT License) Copyright 2025 Fonticons, Inc.--><path fill="currentColor" d="M278.321 12.395c-12.346-12.346-32.395-12.346-44.74 0l-63.21 63.21c-9.087 9.086-11.754 22.617-6.815 34.47 4.938 11.85 16.493 19.456 29.234 19.456h31.605v94.815H129.58V192.74c0-12.741-7.703-24.297-19.555-29.235s-25.383-2.173-34.47 6.815l-63.21 63.21C0 245.877 0 265.926 12.346 278.27l63.21 63.21c9.087 9.087 22.618 11.754 34.47 6.815s19.555-16.395 19.555-29.136v-31.604h94.815v94.814H192.79c-12.74 0-24.296 7.704-29.234 19.556s-2.173 25.383 6.814 34.47l63.21 63.209c12.346 12.346 32.395 12.346 44.741 0l63.21-63.21c9.086-9.086 11.753-22.617 6.815-34.47-4.939-11.85-16.395-19.555-29.136-19.555h-31.605v-94.814h94.815v31.604c0 12.741 7.703 24.297 19.555 29.235s25.383 2.173 34.47-6.815l63.21-63.21c12.345-12.345 12.345-32.395 0-44.74l-63.21-63.21c-9.087-9.087-22.618-11.753-34.47-6.815S382.42 180 382.42 192.74v31.605h-94.815V129.53h31.605c12.74 0 24.296-7.704 29.234-19.556s2.173-25.382-6.814-34.469l-63.21-63.21z"/></svg>