<svg xmlns="http://www.w3.org/2000/svg" viewBox="0 0 512 512"><!--! Font Awesome Free 7.0.1 by @fontawesome - https://fontawesome.com License - https://fontawesome.com/license/free (Icons: CC BY 4.0, Fonts: SIL OFL 1.1, Code: MIT License) Copyright 2025 Fonticons, Inc.--><path fill="currentColor" d="M8.067 126.455C0 118.388 0 105.344 8.067 97.362l61.79-61.876c8.067-8.067 21.112-8.067 29.093 0s8.067 21.112 0 29.093L72.346 91.183h348.428c30.294 0 54.924 24.63 54.924 54.925v152.93l-4.377-4.376c-24.115-24.116-63.249-24.116-87.364 0-23.343 23.343-24.115 60.588-2.403 84.875h58.1l-26.604-26.604c-8.067-8.067-8.067-21.111 0-29.093 8.067-7.98 21.112-8.067 29.093 0l61.79 61.79c8.067 8.068 8.067 21.112 0 29.093l-61.79 61.79c-8.067 8.068-21.112 8.068-29.093 0-7.981-8.066-8.067-21.111 0-29.092l26.604-26.604H91.14c-30.294 0-54.924-24.63-54.924-54.925v-152.93l4.377 4.376c24.115 24.116 63.249 24.116 87.364 0 23.343-23.343 24.115-60.588 2.403-84.875h-58.1l26.604 26.604c8.067 8.067 8.067 21.111 0 29.093-8.067 7.98-21.111 8.067-29.093 0zm330.406 129.588c0-45.485-36.903-82.387-82.387-82.387s-82.387 36.902-82.387 82.387 36.902 82.387 82.387 82.387 82.387-36.903 82.387-82.387m75.521-55.354c3.776.43 6.866-2.66 6.866-6.436v-41.194c0-3.776-3.09-6.865-6.866-6.865h-41.193c-3.777 0-6.952 3.09-6.437 6.865 3.09 24.888 22.828 44.54 47.63 47.63M98.178 311.397c-3.776-.43-6.866 2.66-6.866 6.436v41.193c0 3.777 3.09 6.866 6.866 6.866h41.193c3.776 0 6.951-3.09 6.437-6.866-3.09-24.887-22.828-44.54-47.63-47.63"/></svg>