<svg xmlns="http://www.w3.org/2000/svg" viewBox="0 0 512 512"><!--! Font Awesome Free 7.0.1 by @fontawesome - https://fontawesome.com License - https://fontawesome.com/license/free (Icons: CC BY 4.0, Fonts: SIL OFL 1.1, Code: MIT License) Copyright 2025 Fonticons, Inc.--><path fill="currentColor" d="M56.889 56.889C25.51 56.889 0 82.4 0 113.778v284.444c0 31.378 25.511 56.89 56.889 56.89H455.11c31.378 0 56.889-25.512 56.889-56.89V113.778c0-31.378-25.511-56.89-56.889-56.89zM128 284.444h56.889c39.289 0 71.111 31.823 71.111 71.112 0 7.822-6.4 14.222-14.222 14.222H71.11c-7.822 0-14.222-6.4-14.222-14.222 0-39.29 31.822-71.112 71.111-71.112m-21.333-85.333c0-27.467 22.31-49.778 49.777-49.778s49.778 22.311 49.778 49.778-22.31 49.778-49.778 49.778c-27.466 0-49.777-22.311-49.777-49.778M320 156.444h99.556a21.28 21.28 0 0 1 21.333 21.334 21.28 21.28 0 0 1-21.333 21.333H320a21.28 21.28 0 0 1-21.333-21.333A21.28 21.28 0 0 1 320 156.444m0 85.334h99.556a21.28 21.28 0 0 1 21.333 21.333 21.28 21.28 0 0 1-21.333 21.333H320a21.28 21.28 0 0 1-21.333-21.333A21.28 21.28 0 0 1 320 241.778"/></svg>