<svg xmlns="http://www.w3.org/2000/svg" viewBox="0 0 512 512"><!--! Font Awesome Free 7.0.1 by @fontawesome - https://fontawesome.com License - https://fontawesome.com/license/free (Icons: CC BY 4.0, Fonts: SIL OFL 1.1, Code: MIT License) Copyright 2025 Fonticons, Inc.--><path fill="currentColor" d="M372.364 27.403A79.63 79.63 0 0 1 432.409.101C476.335.1 512 35.765 512 79.69c0 22.97-9.974 44.934-27.303 60.046l-202.805 176.51-10.78-10.88-64.478-64.48-10.881-10.78zM158.375 261.037c.907 1.008 27.102 27.202 78.483 78.584l14.004 14.004-17.228 74.754c-3.93 17.228-17.026 30.93-34.053 35.665L28.511 511.9l92.99-92.99c1.21.1 2.318.202 3.527.202 17.832 0 32.24-14.407 32.24-32.24 0-17.832-14.408-32.239-32.24-32.239s-32.24 14.407-32.24 32.24c0 1.208.101 2.417.202 3.525L0 483.488l47.956-171.07c4.735-17.026 18.437-30.123 35.665-34.052z"/></svg>