<svg xmlns="http://www.w3.org/2000/svg" viewBox="0 0 512 512"><!--! Font Awesome Free 7.0.1 by @fontawesome - https://fontawesome.com License - https://fontawesome.com/license/free (Icons: CC BY 4.0, Fonts: SIL OFL 1.1, Code: MIT License) Copyright 2025 Fonticons, Inc.--><path fill="currentColor" d="M174.534 271.586c10.656 0 20.616 5.278 26.491 14.142l11.752 17.727h26.591c26.392 0 47.804 21.413 47.804 47.804v111.543c0 26.392-21.412 47.804-47.804 47.804H48.152C21.761 510.606.35 489.194.35 462.802V351.259c0-26.391 21.412-47.804 47.803-47.804h26.591l11.752-17.727c5.876-8.864 15.835-14.142 26.492-14.142h61.448zm277.462-11.95c5.577-4.88 13.843-5.28 19.819-.897 5.975 4.382 8.266 12.35 5.278 19.22l-38.243 89.235h55.473c6.672 0 12.548 4.083 14.938 10.357 2.39 6.275.598 13.246-4.382 17.628L377.402 506.722c-5.577 4.88-13.843 5.278-19.819.896s-8.266-12.35-5.278-19.221l38.343-89.334h-55.572c-6.673 0-12.549-4.083-14.94-10.357-2.39-6.275-.597-13.246 4.383-17.628l127.477-111.543zm-308.236 99.59c-26.391 0-47.804 21.413-47.804 47.805 0 26.391 21.413 47.803 47.804 47.803s47.804-21.412 47.804-47.803c0-26.392-21.412-47.804-47.804-47.804M482.172 1.097c6.474-1.096 13.047.398 18.425 4.382 6.075 4.481 9.66 11.652 9.66 19.121v151.38l-.299 4.88c-3.286 24.1-30.375 42.923-63.44 42.923-35.155 0-63.738-21.412-63.738-47.804s28.583-47.804 63.739-47.804c5.477 0 10.855.598 15.934 1.594V80.669l-111.542 33.463v109.75l-.3 4.88c-3.286 24.1-30.374 42.924-63.439 42.924-35.156 0-63.738-21.413-63.738-47.804s28.582-47.804 63.738-47.804c5.478 0 10.856.597 15.935 1.593V72.403c0-10.557 6.971-19.918 17.03-22.906L479.483 1.693zM188.477.697c36.948 0 66.826 29.878 66.826 66.826v6.075c0 55.871-74.893 111.642-109.85 134.747-10.755 7.071-24.5 7.071-35.255 0C75.241 185.34.348 129.47.348 73.598v-6.075C.349 30.575 30.227.697 67.175.697c21.014 0 40.733 9.86 53.382 26.69l7.27 9.76 7.27-9.76c12.648-16.83 32.367-26.69 53.381-26.69"/></svg>