<svg xmlns="http://www.w3.org/2000/svg" viewBox="0 0 512 512"><!--! Font Awesome Free 7.0.1 by @fontawesome - https://fontawesome.com License - https://fontawesome.com/license/free (Icons: CC BY 4.0, Fonts: SIL OFL 1.1, Code: MIT License) Copyright 2025 Fonticons, Inc.--><path fill="currentColor" d="M471.416 21.891C449.524 0 414.138 0 392.246 21.891l-24.39 24.39 97.862 97.863 24.39-24.39c21.892-21.892 21.892-57.278 0-79.17zM172.333 241.806c-6.098 6.097-10.796 13.594-13.495 21.891l-29.588 88.765c-2.9 8.597-.6 18.093 5.797 24.59 6.398 6.498 15.894 8.697 24.59 5.798l88.766-29.588c8.197-2.699 15.694-7.397 21.891-13.495L431.831 178.03 333.97 80.17zM95.963 64.175C42.983 64.175 0 107.158 0 160.137v255.9C0 469.017 42.983 512 95.963 512h255.9c52.979 0 95.962-42.983 95.962-95.963v-95.962c0-17.693-14.294-31.988-31.987-31.988-17.694 0-31.988 14.295-31.988 31.988v95.962c0 17.694-14.294 31.988-31.987 31.988h-255.9c-17.694 0-31.988-14.294-31.988-31.988v-255.9c0-17.693 14.294-31.987 31.988-31.987h95.962c17.693 0 31.988-14.294 31.988-31.988s-14.295-31.987-31.988-31.987z"/></svg>