<svg xmlns="http://www.w3.org/2000/svg" viewBox="0 0 512 512"><!--! Font Awesome Free 7.0.1 by @fontawesome - https://fontawesome.com License - https://fontawesome.com/license/free (Icons: CC BY 4.0, Fonts: SIL OFL 1.1, Code: MIT License) Copyright 2025 Fonticons, Inc.--><path fill="currentColor" d="M256 102.4c-21.76 0-43.04 6.4-61.12 18.48l-29.68 19.84a76.96 76.96 0 0 1-42.64 12.88H51.2C22.96 153.6 0 176.56 0 204.8v62.96c0 50.08 36.16 92.8 85.6 101.04l78.32 13.04c26.4 17.6 58.08 27.76 92.08 27.76s65.76-10.24 92.08-27.76l78.32-13.12c49.36-8.24 85.6-50.96 85.6-101.04v-62.96c0-28.24-22.96-51.2-51.2-51.2h-71.36c-15.2 0-30-4.48-42.64-12.88l-29.68-19.76C299.04 108.8 277.76 102.4 256 102.4M108.72 320.72 94 318.24c-24.72-4.08-42.8-25.44-42.8-50.48V204.8h38.4v38.4c0 28 6.88 54.32 19.12 77.52M418 318.24l-14.72 2.48c12.24-23.2 19.12-49.52 19.12-77.52v-38.4h38.4v62.96c0 25.04-18.08 46.4-42.8 50.48M153.6 236.8c0-10.64 8.56-19.2 19.2-19.2h166.4c10.64 0 19.2 8.56 19.2 19.2s-8.56 19.2-19.2 19.2H172.8c-10.64 0-19.2-8.56-19.2-19.2m44.8 44.8h115.2c10.64 0 19.2 8.56 19.2 19.2s-8.56 19.2-19.2 19.2H198.4c-10.64 0-19.2-8.56-19.2-19.2s8.56-19.2 19.2-19.2"/></svg>