<svg xmlns="http://www.w3.org/2000/svg" viewBox="0 0 512 512"><!--! Font Awesome Free 7.0.1 by @fontawesome - https://fontawesome.com License - https://fontawesome.com/license/free (Icons: CC BY 4.0, Fonts: SIL OFL 1.1, Code: MIT License) Copyright 2025 Fonticons, Inc.--><path fill="currentColor" d="M0 120.47c0-39.058 29.741-71.152 67.765-74.917v-.377h263.53c49.881 0 90.352 40.471 90.352 90.353v165.647H256c-37.459 0-67.765 30.306-67.765 67.765v56.47c0 22.871-18.54 41.413-41.411 41.413s-41.412-18.542-41.412-41.412V210.824H45.176C20.236 210.824 0 190.588 0 165.647zm222.87 346.354c6.683-12.33 10.542-26.448 10.542-41.412v-56.47A22.534 22.534 0 0 1 256 346.351h233.412A22.534 22.534 0 0 1 512 368.943v22.587c0 41.6-33.694 75.295-75.294 75.295zM75.295 90.353c-16.659 0-30.118 13.459-30.118 30.118v45.176h60.236v-45.176c0-16.66-13.46-30.118-30.118-30.118"/></svg>