<svg xmlns="http://www.w3.org/2000/svg" viewBox="0 0 512 512"><!--! Font Awesome Free 7.0.1 by @fontawesome - https://fontawesome.com License - https://fontawesome.com/license/free (Icons: CC BY 4.0, Fonts: SIL OFL 1.1, Code: MIT License) Copyright 2025 Fonticons, Inc.--><path fill="currentColor" d="M60.235 75.294c0-33.223 27.012-60.235 60.236-60.235h271.058c33.224 0 60.236 27.012 60.236 60.235v45.177h-60.236V75.294H120.471V256h105.411v90.353h-153.6C32.376 346.353 0 313.976 0 274.07 0 264.094 8.094 256 18.07 256h42.165zM498.73 257.788C507.2 266.258 512 277.741 512 289.694v162.07c0 24.942-20.235 45.177-45.176 45.177H316.235c-24.94 0-45.176-20.235-45.176-45.176V210.824c0-24.942 20.235-45.177 45.176-45.177h71.624c11.953 0 23.435 4.8 31.906 13.27l78.964 78.965zm-107.2 13.27c0 8.283 6.777 15.06 15.06 15.06h56.564l-71.624-71.624z"/></svg>