<svg xmlns="http://www.w3.org/2000/svg" viewBox="0 0 512 512"><!--! Font Awesome Free 7.0.1 by @fontawesome - https://fontawesome.com License - https://fontawesome.com/license/free (Icons: CC BY 4.0, Fonts: SIL OFL 1.1, Code: MIT License) Copyright 2025 Fonticons, Inc.--><path fill="currentColor" d="M413.466 206.708c0 45.615-14.808 87.752-39.752 121.938l125.814 125.913c12.422 12.422 12.422 32.596 0 45.019-12.422 12.422-32.596 12.422-45.019 0L328.696 373.665c-34.187 24.944-76.323 39.751-121.938 39.751C92.57 413.416.05 320.894.05 206.708S92.57 0 206.758 0s206.708 92.522 206.708 206.708M206.758 349.814c79.006 0 143.105-64.1 143.105-143.106S285.764 63.602 206.758 63.602s-143.106 64.1-143.106 143.106 64.1 143.106 143.106 143.106"/></svg>