<svg xmlns="http://www.w3.org/2000/svg" viewBox="0 0 512 512"><!--! Font Awesome Free 7.0.1 by @fontawesome - https://fontawesome.com License - https://fontawesome.com/license/free (Icons: CC BY 4.0, Fonts: SIL OFL 1.1, Code: MIT License) Copyright 2025 Fonticons, Inc.--><path fill="currentColor" d="M461.44 47.54c0-10.003-5.137-19.286-13.7-24.513-8.561-5.227-19.106-5.768-28.028-1.262L314.987 74.128 153.303 20.143c-7.3-2.433-15.141-1.893-21.99 1.532l-115.36 57.68A28.96 28.96 0 0 0 0 105.221v317.24c0 10.004 5.137 19.287 13.699 24.514s19.106 5.768 28.029 1.262l104.635-52.363 156.187 52.092c-3.876-5.768-7.661-11.806-11.356-17.935-9.914-16.493-19.738-35.419-27.038-55.697l-91.206-30.372V87.556l115.36 38.484v89.494c27.939-32.265 69.396-52.633 115.36-52.633 20.368 0 39.835 3.965 57.68 11.266zm-57.68 158.62c-59.753 0-108.15 47.587-108.15 106.258 0 62.096 57.77 135.548 88.863 170.607 10.455 11.716 28.21 11.716 38.664 0C454.23 447.966 512 374.515 512 312.418c0-58.671-48.397-106.257-108.15-106.257zm-36.05 108.15c0-19.917 16.132-36.05 36.05-36.05s36.05 16.133 36.05 36.05c0 19.918-16.132 36.05-36.05 36.05s-36.05-16.132-36.05-36.05"/></svg>