<svg xmlns="http://www.w3.org/2000/svg" viewBox="0 0 512 512"><!--! Font Awesome Free 7.0.1 by @fontawesome - https://fontawesome.com License - https://fontawesome.com/license/free (Icons: CC BY 4.0, Fonts: SIL OFL 1.1, Code: MIT License) Copyright 2025 Fonticons, Inc.--><path fill="currentColor" d="M207.773 76.23c0-22.904 18.582-41.486 41.486-41.486h82.97c22.904 0 41.486 18.582 41.486 41.486v41.485h41.486V55.487a20.693 20.693 0 0 1 20.742-20.743 20.693 20.693 0 0 1 20.743 20.743v62.228h13.829c22.903 0 41.485 18.582 41.485 41.486v276.57c0 22.903-18.582 41.485-41.485 41.485h-67.242c3.458-13.31 2.075-28.176-5.79-41.658L292.732 256h11.84c7.606 0 13.83-6.223 13.83-13.828v-27.657c0-7.606-6.224-13.829-13.83-13.829h-27.656c-5.273 0-9.853 2.939-12.187 7.346l-36.818-63.092c-5.186-8.816-12.186-15.557-20.138-20.138zm55.314 55.314V159.2c0 7.605 6.223 13.828 13.829 13.828h27.657c7.605 0 13.828-6.223 13.828-13.828v-27.657c0-7.606-6.223-13.829-13.828-13.829h-27.657c-7.606 0-13.829 6.223-13.829 13.829m138.285 82.97v27.658c0 7.605 6.223 13.828 13.829 13.828h27.657c7.605 0 13.828-6.223 13.828-13.828v-27.657c0-7.606-6.223-13.829-13.828-13.829H415.2c-7.606 0-13.829 6.223-13.829 13.829m13.829 69.143c-7.606 0-13.829 6.223-13.829 13.828v27.657c0 7.606 6.223 13.829 13.829 13.829h27.657c7.605 0 13.828-6.223 13.828-13.829v-27.657c0-7.605-6.223-13.828-13.828-13.828zm-235.085-55.919-56.265 96.454 28.608 28.607 41.486-41.485h34.917zm-23.854-41.399c10.63-18.323 37.078-18.323 47.795 0l145.458 249.345c10.717 18.41-2.506 41.572-23.854 41.572H34.658c-21.348 0-34.658-23.163-23.854-41.572z"/></svg>