<svg xmlns="http://www.w3.org/2000/svg" viewBox="0 0 512 512"><!--! Font Awesome Free 7.0.1 by @fontawesome - https://fontawesome.com License - https://fontawesome.com/license/free (Icons: CC BY 4.0, Fonts: SIL OFL 1.1, Code: MIT License) Copyright 2025 Fonticons, Inc.--><path fill="currentColor" d="M29.338 75.158C10.308 68.814.113 48.198 6.457 29.28 12.8 10.365 33.303.057 52.219 6.287l434.974 144.99C502.032 156.263 512 170.082 512 185.714s-9.968 29.452-24.807 34.436L52.219 365.139c-19.03 6.344-39.532-3.964-45.876-22.88-6.343-18.917 3.965-39.533 22.882-45.877l331.894-110.669zm446.414 364.29c20.05 0 36.248 16.198 36.248 36.248s-16.198 36.247-36.248 36.247H40.78c-20.05 0-36.248-16.198-36.248-36.247 0-20.05 16.198-36.248 36.248-36.248z"/></svg>