<svg xmlns="http://www.w3.org/2000/svg" viewBox="0 0 512 512"><!--! Font Awesome Free 7.0.1 by @fontawesome - https://fontawesome.com License - https://fontawesome.com/license/free (Icons: CC BY 4.0, Fonts: SIL OFL 1.1, Code: MIT License) Copyright 2025 Fonticons, Inc.--><path fill="currentColor" d="M38.259 8.287C29.972 0 16.573 0 8.375 8.287.176 16.573.088 29.972 8.287 38.259L473.74 503.713c8.287 8.287 21.686 8.287 29.884 0 8.199-8.286 8.287-21.685 0-29.884l-73.168-73.168 10.05-10.05c8.286-8.286 8.286-21.685 0-29.884-8.287-8.198-21.686-8.286-29.884 0l-9.962 9.962-20.98-20.981c15.78-20.716 26.358-45.576 30.06-72.551h29.62v14.105a21.106 21.106 0 0 0 21.157 21.157 21.106 21.106 0 0 0 21.157-21.157v-70.524a21.106 21.106 0 0 0-21.157-21.157 21.106 21.106 0 0 0-21.157 21.157v14.105h-29.62c-3.702-27.063-14.37-51.835-30.06-72.551l20.98-20.98 9.962 9.96c8.286 8.287 21.686 8.287 29.884 0 8.198-8.286 8.286-21.685 0-29.884l-49.895-49.983c-8.287-8.287-21.686-8.287-29.885 0-8.198 8.286-8.286 21.686 0 29.884l9.962 9.962-20.981 20.98c-20.716-15.691-45.488-26.358-72.551-30.06V72.55h14.105a21.106 21.106 0 0 0 21.157-21.157 21.106 21.106 0 0 0-21.157-21.157h-70.524a21.106 21.106 0 0 0-21.157 21.157 21.106 21.106 0 0 0 21.157 21.157h14.105v29.62c-27.063 3.702-51.835 14.369-72.551 30.06l-20.98-20.892 9.96-10.05c8.287-8.286 8.287-21.686 0-29.884-8.286-8.198-21.685-8.287-29.884 0l-10.05 10.05zm64 226.468h-29.62V220.65a21.106 21.106 0 0 0-21.157-21.157 21.106 21.106 0 0 0-21.157 21.157v70.524a21.106 21.106 0 0 0 21.157 21.157 21.106 21.106 0 0 0 21.157-21.157v-14.105h29.62c3.702 27.063 14.37 51.835 30.06 72.55l-20.98 20.982-9.962-9.962c-8.286-8.286-21.686-8.286-29.884 0-8.198 8.287-8.286 21.686 0 29.884l49.895 49.896c8.287 8.286 21.686 8.286 29.885 0 8.198-8.287 8.286-21.686 0-29.885l-9.962-9.961 20.981-20.98c20.716 15.779 45.576 26.357 72.551 30.06v29.62h-14.105a21.106 21.106 0 0 0-21.157 21.157 21.106 21.106 0 0 0 21.157 21.157h70.524a21.106 21.106 0 0 0 21.157-21.157 21.106 21.106 0 0 0-21.157-21.157h-14.105v-29.62c11.813-1.587 23.273-4.584 34.116-8.727L110.986 200.639q-6.214 16.264-8.727 34.116"/></svg>