<svg xmlns="http://www.w3.org/2000/svg" viewBox="0 0 512 512"><!--! Font Awesome Free 7.0.1 by @fontawesome - https://fontawesome.com License - https://fontawesome.com/license/free (Icons: CC BY 4.0, Fonts: SIL OFL 1.1, Code: MIT License) Copyright 2025 Fonticons, Inc.--><path fill="currentColor" d="M30.118 60.235c0-16.659 13.458-30.117 30.117-30.117H391.53c66.542 0 120.471 53.93 120.471 120.47 0 66.541-53.93 120.47-120.47 120.47 0 49.883-40.471 90.354-90.354 90.354H120.471c-49.883 0-90.353-40.47-90.353-90.353zm421.647 90.353c0-33.223-27.012-60.235-60.236-60.235v120.47c33.224 0 60.236-27.011 60.236-60.235M30.118 421.648h361.411c16.66 0 30.118 13.458 30.118 30.117s-13.459 30.117-30.118 30.117H30.118C13.458 481.882 0 468.424 0 451.765c0-16.66 13.459-30.118 30.118-30.118"/></svg>