<svg xmlns="http://www.w3.org/2000/svg" viewBox="0 0 512 512"><!--! Font Awesome Free 7.0.1 by @fontawesome - https://fontawesome.com License - https://fontawesome.com/license/free (Icons: CC BY 4.0, Fonts: SIL OFL 1.1, Code: MIT License) Copyright 2025 Fonticons, Inc.--><path fill="currentColor" d="m331.228 143.57-172.63-89.823c-6.93-3.552-14.985-4.158-22.261-1.473l-35.6 12.993c-8.922 3.205-11.953 14.205-6.15 21.654l87.917 110.785-86.79 31.529-52.058-31.702c-5.37-3.292-11.954-3.898-17.93-1.82l-14.12 5.198C3.466 203.856 0 213.47 4.419 220.92l46.427 79.515c13.512 23.127 41.663 33.261 66.782 24.08l11.174-4.071 345.087-125.596c25.206-9.182 38.112-36.986 29.017-62.192s-36.986-38.112-62.192-29.017zM36.899 406.975c-15.331 0-27.717 12.387-27.717 27.718 0 15.332 12.386 27.718 27.717 27.718h443.485c15.332 0 27.718-12.386 27.718-27.718 0-15.331-12.386-27.718-27.718-27.718z"/></svg>