<svg xmlns="http://www.w3.org/2000/svg" viewBox="0 0 512 512"><!--! Font Awesome Free 7.0.1 by @fontawesome - https://fontawesome.com License - https://fontawesome.com/license/free (Icons: CC BY 4.0, Fonts: SIL OFL 1.1, Code: MIT License) Copyright 2025 Fonticons, Inc.--><path fill="currentColor" d="M471.3 23.5c6.4-6.1 15.7-8.3 24.3-5.5 9.8 3.3 16.4 12.5 16.4 22.8v186.9c0 131.2-108.1 237.1-238.8 237.1-77 0-143.4-49.5-167.5-118.7C70.3 376.9 48 422.2 48 472.8c0 13.3-10.7 24-24 24s-24-10.7-24-24c0-74.9 38.2-140.9 96.1-179.7 35.3-23.6 77.4-36.3 119.9-36.3h80c13.3 0 24-10.7 24-24s-10.7-24-24-24h-80c-39.7 0-77.3 8.8-111 24.5 23.3-70 89.2-120.5 167-120.5 66.4 0 115.8-22.1 148.7-44 19.2-12.8 35.5-28.1 50.7-45.3z"/></svg>