<svg xmlns="http://www.w3.org/2000/svg" viewBox="0 0 512 512"><!--! Font Awesome Free 7.0.1 by @fontawesome - https://fontawesome.com License - https://fontawesome.com/license/free (Icons: CC BY 4.0, Fonts: SIL OFL 1.1, Code: MIT License) Copyright 2025 Fonticons, Inc.--><path fill="currentColor" d="M179.829 36.571C179.829 16.343 163.486 0 143.257 0c-20.228 0-36.571 16.343-36.571 36.571V217.03L62.57 229.6c-14.514 4.114-22.971 19.314-18.857 33.943S63.03 286.514 77.657 282.4l29.029-8.343V475.43c0 20.228 16.343 36.571 36.571 36.571H435.83c20.228 0 36.571-16.343 36.571-36.571 0-20.229-16.343-36.572-36.571-36.572h-256V253.143l153.828-44c14.514-4.114 22.972-19.314 18.857-33.943-4.114-14.629-19.314-22.971-33.943-18.857L179.83 196.114z"/></svg>