<svg xmlns="http://www.w3.org/2000/svg" viewBox="0 0 512 512"><!--! Font Awesome Free 7.0.1 by @fontawesome - https://fontawesome.com License - https://fontawesome.com/license/free (Icons: CC BY 4.0, Fonts: SIL OFL 1.1, Code: MIT License) Copyright 2025 Fonticons, Inc.--><path fill="currentColor" d="M73.143 0C32.8 0 0 32.8 0 73.143v365.714C0 479.2 32.8 512 73.143 512h365.714C479.2 512 512 479.2 512 438.857V73.143C512 32.8 479.2 0 438.857 0zM238.97 269.6l-115.085-69.143c-8.8-5.257-14.172-14.743-14.172-25.028 0-16.115 13.029-29.143 29.143-29.143H373.03c16.114 0 29.142 13.028 29.142 29.143 0 10.285-5.371 19.771-14.171 25.028L273.029 269.6c-5.143 3.086-10.972 4.686-17.029 4.686s-11.886-1.6-17.029-4.686m163.315-34.971v94.514c0 20.228-16.343 36.571-36.572 36.571H146.286c-20.229 0-36.572-16.343-36.572-36.571v-94.514l110.515 66.285c10.742 6.515 23.2 9.943 35.771 9.943s25.029-3.428 35.771-9.943z"/></svg>