<svg xmlns="http://www.w3.org/2000/svg" viewBox="0 0 512 512"><!--! Font Awesome Free 7.0.1 by @fontawesome - https://fontawesome.com License - https://fontawesome.com/license/free (Icons: CC BY 4.0, Fonts: SIL OFL 1.1, Code: MIT License) Copyright 2025 Fonticons, Inc.--><path fill="currentColor" d="m214.222 77.422 13.334 18.4 13.333-18.4c22.222-30.755 57.955-48.978 95.911-48.978 65.333 0 118.311 52.978 118.311 118.312v2.31c0 15.645-3.022 31.645-8.444 47.734A170.5 170.5 0 0 0 384 184.889c-94.222 0-170.667 76.444-170.667 170.667 0 25.333 5.511 49.422 15.467 71.11h-1.244c-13.778 0-27.378-4.088-38.312-12.533C124.356 364.623 0 248.8 0 149.067v-2.311C0 81.422 52.978 28.444 118.311 28.444c37.956 0 73.689 18.223 95.911 48.978M384 227.556c70.667 0 128 57.333 128 128 0 70.666-57.333 128-128 128s-128-57.334-128-128c0-70.667 57.333-128 128-128m0 202.666c9.778 0 17.778-8 17.778-17.778s-8-17.777-17.778-17.777-17.778 8-17.778 17.777 8 17.778 17.778 17.778m0-160c-7.822 0-14.222 6.4-14.222 14.222v71.112c0 7.822 6.4 14.222 14.222 14.222s14.222-6.4 14.222-14.222v-71.112c0-7.822-6.4-14.222-14.222-14.222"/></svg>