<svg xmlns="http://www.w3.org/2000/svg" viewBox="0 0 512 512"><!--! Font Awesome Free 7.0.1 by @fontawesome - https://fontawesome.com License - https://fontawesome.com/license/free (Icons: CC BY 4.0, Fonts: SIL OFL 1.1, Code: MIT License) Copyright 2025 Fonticons, Inc.--><path fill="currentColor" d="M150.897 230.658c30.5 16.628 57.353 39.213 78.96 66.245 9.87 12.36 18.674 25.698 26.143 39.836a265 265 0 0 1 26.142-39.836c21.608-27.12 48.462-49.706 78.961-66.245 37.08-20.185 79.494-31.567 124.221-31.567h8.803c9.87 0 17.873 8.003 17.873 17.873 0 131.601-106.615 238.216-238.216 238.216h-35.746C106.615 455.18 0 348.565 0 216.964c0-9.87 8.003-17.873 17.873-17.873h8.803c44.815 0 87.23 11.382 124.22 31.567m119.33-168.503c15.028 14.138 54.597 56.375 79.139 126.533a302.3 302.3 0 0 0-93.277 73.003 304.7 304.7 0 0 0-93.277-73.003c24.542-70.158 64.2-112.395 79.139-126.533 3.823-3.646 8.892-5.335 14.138-5.335s10.315 1.778 14.138 5.335"/></svg>