<svg xmlns="http://www.w3.org/2000/svg" viewBox="0 0 512 512"><!--! Font Awesome Free 7.0.1 by @fontawesome - https://fontawesome.com License - https://fontawesome.com/license/free (Icons: CC BY 4.0, Fonts: SIL OFL 1.1, Code: MIT License) Copyright 2025 Fonticons, Inc.--><path fill="currentColor" d="m499.553 404.819-94.833 94.833c-9.088 9.088-22.622 11.755-34.476 6.816s-19.46-16.398-19.46-29.141v-63.222H34.674c-17.485 0-31.612-14.127-31.612-31.611s14.127-31.611 31.611-31.611h316.11V287.66c0-12.743 7.706-24.3 19.56-29.24s25.388-2.173 34.476 6.816l94.833 94.833c12.348 12.349 12.348 32.402 0 44.75zM12.348 151.93C0 139.582 0 119.529 12.348 107.18l94.833-94.833C116.27 3.26 129.803.593 141.657 5.532s19.46 16.497 19.46 29.24v63.222h316.11c17.486 0 31.612 14.126 31.612 31.611s-14.126 31.611-31.611 31.611h-316.11v63.222c0 12.744-7.706 24.301-19.56 29.24-11.854 4.94-25.387 2.174-34.476-6.816L12.25 152.03z"/></svg>