<svg xmlns="http://www.w3.org/2000/svg" viewBox="0 0 512 512"><!--! Font Awesome Free 7.0.1 by @fontawesome - https://fontawesome.com License - https://fontawesome.com/license/free (Icons: CC BY 4.0, Fonts: SIL OFL 1.1, Code: MIT License) Copyright 2025 Fonticons, Inc.--><path fill="currentColor" d="M367.978 359.73c39.092-32.294 63.988-81.084 63.988-135.774 0-97.18-78.785-175.965-175.966-175.965S80.034 126.775 80.034 223.956c0 54.69 24.896 103.48 63.988 135.774.4 17.596 3.2 40.392 6.399 61.788C80.034 383.825 32.044 309.44 32.044 223.956 32.044 100.28 132.324 0 256 0s223.956 100.28 223.956 223.956c0 85.584-47.99 159.869-118.477 197.562 3.3-21.396 6-44.192 6.4-61.788zm-13.997-53.39c-8.299-12.597-19.196-21.596-30.394-27.794-2.1-1.1-4.2-2.2-6.299-3.2 11.698-13.897 18.796-31.894 18.796-51.49 0-44.191-35.793-79.984-79.984-79.984s-79.984 35.793-79.984 79.984c0 19.596 7.098 37.593 18.796 51.49-2.1 1-4.2 2-6.299 3.2-11.198 6.198-22.096 15.197-30.394 27.794-18.796-22.295-30.094-50.99-30.094-82.384 0-70.686 57.289-127.975 127.975-127.975s127.975 57.29 127.975 127.975c0 31.394-11.298 60.189-30.094 82.384M256 311.94c32.894 0 63.988 8.597 63.988 43.79 0 32.994-12.898 104.08-20.596 132.875C294.292 507.6 274.896 512 256 512s-38.193-4.4-43.392-23.395c-7.798-28.495-20.596-99.681-20.596-132.774 0-35.094 31.094-43.792 63.988-43.792zm0-127.976c22.096 0 39.992 17.897 39.992 39.992 0 22.096-17.896 39.992-39.992 39.992s-39.992-17.896-39.992-39.992 17.896-39.992 39.992-39.992"/></svg>