<svg xmlns="http://www.w3.org/2000/svg" viewBox="0 0 512 512"><!--! Font Awesome Free 7.0.1 by @fontawesome - https://fontawesome.com License - https://fontawesome.com/license/free (Icons: CC BY 4.0, Fonts: SIL OFL 1.1, Code: MIT License) Copyright 2025 Fonticons, Inc.--><path fill="currentColor" d="M15.106 177.506C15.106 79.436 96.047 0 195.812 0c96.094 0 174.682 73.694 180.33 166.588-59.2 7.624-105.036 58.165-105.036 119.53v22.964c-18.447 16.565-30.118 40.565-30.118 67.294v71.248c-9.317 10.917-17.788 20.423-24.847 28.047-11.106 12.047-29.647 12.047-40.753 0-47.247-51.295-160.376-185.883-160.376-298.165zm180.706 63.435c33.223 0 60.235-27.012 60.235-60.235s-27.012-60.235-60.235-60.235-60.236 27.011-60.236 60.235c0 33.223 27.012 60.235 60.236 60.235m225.882 45.27c0-16.658-13.459-30.117-30.118-30.117s-30.117 13.459-30.117 30.118v45.082h60.235zm-135.53 90.26c0-19.671 12.612-36.424 30.118-42.636v-47.623c0-41.6 33.694-75.294 75.294-75.294s75.295 33.694 75.295 75.294v47.623c17.505 6.212 30.117 22.965 30.117 42.636v90.353c0 24.94-20.235 45.176-45.176 45.176h-120.47c-24.942 0-45.177-20.235-45.177-45.176z"/></svg>