<svg xmlns="http://www.w3.org/2000/svg" viewBox="0 0 512 512"><!--! Font Awesome Free 7.0.1 by @fontawesome - https://fontawesome.com License - https://fontawesome.com/license/free (Icons: CC BY 4.0, Fonts: SIL OFL 1.1, Code: MIT License) Copyright 2025 Fonticons, Inc.--><path fill="currentColor" d="M222.609 16.742c16.417 0 29.68 13.264 29.68 29.681v5.009c0 51.2-21.982 99.246-59.269 132.73l58.342 70.03h82.551c14.006 0 27.177 6.585 35.617 17.808l40.07 53.426c9.832 13.078 7.142 31.722-5.936 41.554s-31.722 7.142-41.554-5.937l-35.617-47.49h-97.206l105.368 129.67c10.296 12.707 8.44 31.444-4.36 41.74-12.8 10.295-31.443 8.44-41.738-4.36l-175.954-216.58a118.3 118.3 0 0 0-8.719 44.522v64.37c0 16.418-13.264 29.682-29.681 29.682s-29.681-13.264-29.681-29.681v-64.371c0-62.516 32.835-120.487 86.446-152.673l4.267-2.597c35.803-21.518 57.693-60.104 57.693-101.843v-5.009c0-16.417 13.263-29.681 29.68-29.681M0 98.365c0-28.66 23.281-51.942 51.942-51.942 28.66 0 51.942 23.281 51.942 51.942s-23.281 51.942-51.942 51.942C23.282 150.307 0 127.027 0 98.365m348.754-7.327a22.207 22.207 0 0 1-22.261 22.26 22.207 22.207 0 0 1-22.261-22.26V46.516a22.207 22.207 0 0 1 22.26-22.26 22.207 22.207 0 0 1 22.262 22.26zm96.463 140.985a22.207 22.207 0 0 1-22.26-22.26 22.207 22.207 0 0 1 22.26-22.262h44.522A22.207 22.207 0 0 1 512 209.762a22.207 22.207 0 0 1-22.26 22.261zm-50.55-90.435c-8.72-8.718-8.72-22.817 0-31.443L426.11 78.7c8.719-8.718 22.818-8.718 31.444 0 8.626 8.72 8.718 22.818 0 31.444l-31.444 31.443c-8.719 8.72-22.817 8.72-31.443 0"/></svg>