<svg xmlns="http://www.w3.org/2000/svg" viewBox="0 0 512 512"><!--! Font Awesome Free 7.0.1 by @fontawesome - https://fontawesome.com License - https://fontawesome.com/license/free (Icons: CC BY 4.0, Fonts: SIL OFL 1.1, Code: MIT License) Copyright 2025 Fonticons, Inc.--><path fill="currentColor" d="M268.516 42.404a27.99 27.99 0 0 0-25.032 0L19.43 154.431C5.6 161.346 0 178.15 6.914 191.978s23.718 19.43 37.547 12.516L256 98.768l211.54 105.726c13.828 6.914 30.632 1.312 37.546-12.516s1.313-30.632-12.516-37.547zM256 291.49c27.044 0 49.012-21.968 49.012-49.012S283.044 193.466 256 193.466s-49.012 21.968-49.012 49.012S228.956 291.49 256 291.49m0 42.01c-46.386 0-84.02 37.634-84.02 84.02v28.008c0 15.49 12.515 28.006 28.006 28.006h112.028c15.491 0 28.007-12.515 28.007-28.006V417.52c0-46.387-37.635-84.02-84.021-84.02m-112.027-56.014c0-23.193-18.817-42.01-42.01-42.01-23.194 0-42.01 18.817-42.01 42.01 0 23.194 18.816 42.01 42.01 42.01s42.01-18.816 42.01-42.01m308.075 0c0-23.193-18.817-42.01-42.01-42.01-23.194 0-42.01 18.817-42.01 42.01 0 23.194 18.816 42.01 42.01 42.01s42.01-18.816 42.01-42.01m-350.086 70.018c-38.684 0-70.017 31.332-70.017 70.017v28.97c0 14.878 12.078 27.043 27.044 27.043h76.844a69.5 69.5 0 0 1-5.864-28.006v-42.01c0-16.105 3.063-31.508 8.577-45.687-10.677-6.564-23.193-10.327-36.584-10.327m274.292 126.03h76.844c14.879 0 27.044-12.078 27.044-27.044v-28.97c0-38.684-31.332-70.016-70.017-70.016-13.39 0-25.906 3.763-36.584 10.327a125.8 125.8 0 0 1 8.577 45.686v42.01c0 9.978-2.1 19.43-5.864 28.007"/></svg>