<svg xmlns="http://www.w3.org/2000/svg" viewBox="0 0 512 512"><!--! Font Awesome Free 7.0.1 by @fontawesome - https://fontawesome.com License - https://fontawesome.com/license/free (Icons: CC BY 4.0, Fonts: SIL OFL 1.1, Code: MIT License) Copyright 2025 Fonticons, Inc.--><path fill="currentColor" d="M157.073 0c20.22 0 36.555 16.336 36.555 36.555v49.806l138.68-39.639c14.509-4.112 29.702 4.227 33.929 18.849 4.226 14.622-4.227 29.7-18.85 33.927l-153.76 43.98v52.663l138.682-39.64c14.508-4.112 29.7 4.227 33.928 18.85 4.226 14.621-4.227 29.7-18.85 33.927l-153.76 43.98V438.89h82.25c60.544 0 109.665-49.121 109.665-109.666 0-20.22 16.336-36.555 36.555-36.555s36.555 16.336 36.555 36.555C458.652 430.208 376.86 512 275.877 512H157.073c-20.22 0-36.555-16.336-36.555-36.555V274.163l-29.016 8.34c-14.508 4.112-29.701-4.227-33.928-18.85-4.226-14.621 4.227-29.7 18.849-33.927l44.095-12.566v-52.662l-29.016 8.34c-14.508 4.112-29.701-4.228-33.928-18.85s4.227-29.7 18.849-33.927l44.095-12.566V36.784c0-20.22 16.335-36.556 36.555-36.556z"/></svg>