<svg xmlns="http://www.w3.org/2000/svg" viewBox="0 0 512 512"><!--! Font Awesome Free 7.0.1 by @fontawesome - https://fontawesome.com License - https://fontawesome.com/license/free (Icons: CC BY 4.0, Fonts: SIL OFL 1.1, Code: MIT License) Copyright 2025 Fonticons, Inc.--><path fill="currentColor" d="M414.113 10.887c30.584 0 55.427 24.843 55.427 55.427 0 30.583-24.843 55.426-55.427 55.426-30.583 0-55.426-24.843-55.426-55.426s24.843-55.427 55.426-55.427M158.658 40.085c10.095-14.252 29.89-17.717 44.143-7.621l269.213 190.033c14.252 10.095 17.717 29.89 7.621 44.143s-29.89 17.716-44.143 7.621l-91.255-64.433-61.563 52.754 31.771 26.426c18.014 15.045 28.505 37.314 28.505 60.87v86.9l76.706 15.045c6.136 1.188 12.47.89 18.508-.792l40.778-11.679c12.57-3.563 25.734 3.662 29.396 16.331s-3.662 25.734-16.331 29.396l-40.778 11.679c-13.263 3.76-27.12 4.355-40.679 1.781L80.17 433.81c-17.024-3.365-32.662-11.679-44.836-23.853l-26.03-25.931C0 374.72 0 359.677 9.304 350.472s24.348-9.304 33.552 0l25.932 25.932c5.543 5.542 12.669 9.303 20.389 10.887l63.542 12.47V277.33c0-27.416 11.877-53.447 32.464-71.46l68.293-59.781-87.296-61.662c-14.253-10.194-17.618-29.99-7.522-44.34m57.504 371.85 63.345 12.373v-74.529c0-4.652-2.079-9.204-5.74-12.174l-57.605-48.003z"/></svg>