<svg xmlns="http://www.w3.org/2000/svg" viewBox="0 0 512 512"><!--! Font Awesome Free 7.0.1 by @fontawesome - https://fontawesome.com License - https://fontawesome.com/license/free (Icons: CC BY 4.0, Fonts: SIL OFL 1.1, Code: MIT License) Copyright 2025 Fonticons, Inc.--><path fill="currentColor" d="M383.95 384h-288l-58.6-205.1c-3.6-12.5-5.4-25.5-5.4-38.6C31.95 62.8 94.75 0 172.25 0h3.4c66 0 123.5 44.9 139.5 108.9l31.4 125.8 17.6-20.1c12.6-14.4 30.7-22.6 49.8-22.6h2.8c34.9 0 63.3 28.3 63.3 63.3 0 15.9-6 31.2-16.8 42.9zm-320 80c0-17.7 14.3-32 32-32h288c17.7 0 32 14.3 32 32v16c0 17.7-14.3 32-32 32h-288c-17.7 0-32-14.3-32-32z"/></svg>