<svg xmlns="http://www.w3.org/2000/svg" viewBox="0 0 512 512"><!--! Font Awesome Free 7.0.1 by @fontawesome - https://fontawesome.com License - https://fontawesome.com/license/free (Icons: CC BY 4.0, Fonts: SIL OFL 1.1, Code: MIT License) Copyright 2025 Fonticons, Inc.--><path fill="currentColor" d="M455.111 113.778H142.222c0-31.378 25.511-56.89 56.89-56.89h256c31.377 0 56.888 25.512 56.888 56.89v170.666c0 31.378-25.511 56.89-56.889 56.89h-42.667v-56.89h42.667zM0 227.556c0-31.378 25.511-56.89 56.889-56.89h256c31.378 0 56.889 25.512 56.889 56.89v170.666c0 31.378-25.511 56.89-56.89 56.89h-256C25.512 455.111 0 429.6 0 398.221zm56.889 35.555a21.28 21.28 0 0 0 21.333 21.333h213.334a21.28 21.28 0 0 0 21.333-21.333 21.28 21.28 0 0 0-21.333-21.333H78.222A21.28 21.28 0 0 0 56.89 263.11"/></svg>