<svg xmlns="http://www.w3.org/2000/svg" viewBox="0 0 512 512"><!--! Font Awesome Free 7.0.1 by @fontawesome - https://fontawesome.com License - https://fontawesome.com/license/free (Icons: CC BY 4.0, Fonts: SIL OFL 1.1, Code: MIT License) Copyright 2025 Fonticons, Inc.--><path fill="currentColor" d="M255.95 0c17.7 0 32 14.3 32 32v168.6l144-83.1c15.3-8.8 34.9-3.6 43.7 11.7s3.6 34.9-11.7 43.7l-144 83.1 144 83.1c15.3 8.8 20.6 28.4 11.7 43.7s-28.4 20.6-43.7 11.7l-144-83.1V480c0 17.7-14.3 32-32 32s-32-14.3-32-32V311.4l-144 83.1c-15.3 8.8-34.9 3.6-43.7-11.7s-3.6-34.8 11.7-43.7l144-83.1-144-83.1c-15.3-8.9-20.5-28.4-11.7-43.8s28.4-20.5 43.7-11.7l144 83.2V32c0-17.7 14.3-32 32-32"/></svg>