<svg xmlns="http://www.w3.org/2000/svg" viewBox="0 0 512 512"><!--! Font Awesome Free 7.0.1 by @fontawesome - https://fontawesome.com License - https://fontawesome.com/license/free (Icons: CC BY 4.0, Fonts: SIL OFL 1.1, Code: MIT License) Copyright 2025 Fonticons, Inc.--><path fill="currentColor" d="M256 51.16c14.16 0 25.6 11.44 25.6 25.6v166.4c0 7.04 5.76 12.8 12.8 12.8s12.8-5.76 12.8-12.8v-140.8c0-14.16 11.44-25.6 25.6-25.6s25.6 11.44 25.6 25.6v140.8c0 7.04 5.76 12.8 12.8 12.8s12.8-5.76 12.8-12.8v-89.6c0-14.16 11.44-25.6 25.6-25.6s25.6 11.44 25.6 25.6v142.56c-15.36 4.32-27.76 16.32-32.32 32.24l-5.2 18.16-18.16 5.2c-20.16 5.76-34 24.16-34 45.12 0 17.68 9.92 33.6 25.12 41.52-22 14.24-48.16 22.48-76.32 22.48h-15.36c-47.68 0-93.52-18.32-128-51.2l-89.84-85.68c-12.8-12.16-13.28-32.48-1.12-45.28s32.48-13.28 45.28-1.12l48.4 46.08c0-1.2-.08-2.48-.08-3.68v-217.6c0-14.16 11.44-25.6 25.6-25.6s25.6 11.44 25.6 25.6v140.8c0 7.04 5.76 12.8 12.8 12.8s12.8-5.76 12.8-12.8V76.76c0-14.16 11.44-25.6 25.6-25.6m-5.84 261.28c-.88-3.12-3.76-5.28-6.96-5.28s-6.08 2.16-6.96 5.28l-5.84 20.32-20.32 5.84c-3.12.88-5.28 3.76-5.28 6.96s2.16 6.08 5.28 6.96l20.32 5.84 5.84 20.32c.88 3.12 3.76 5.28 6.96 5.28s6.08-2.16 6.96-5.28l5.84-20.32 20.32-5.84c3.12-.88 5.28-3.76 5.28-6.96s-2.16-6.08-5.28-6.96L256 332.76zM83.2 147.16l38.64 11.04c3.68 1.04 6.16 4.4 6.16 8.16s-2.48 7.12-6.16 8.16L83.2 185.56 72.16 224.2c-1.04 3.68-4.4 6.16-8.16 6.16s-7.12-2.48-8.16-6.16L44.8 185.56 6.16 174.52c-3.68-1.04-6.16-4.4-6.16-8.16s2.48-7.12 6.16-8.16l38.64-11.04 11.04-38.64c1.04-3.68 4.4-6.16 8.16-6.16s7.12 2.48 8.16 6.16zm384 230.4 38.64 11.04c3.68 1.04 6.16 4.4 6.16 8.16s-2.48 7.12-6.16 8.16l-38.64 11.04-11.04 38.64c-1.04 3.68-4.4 6.16-8.16 6.16s-7.12-2.48-8.16-6.16l-11.04-38.64-38.64-11.04c-3.68-1.04-6.16-4.4-6.16-8.16s2.48-7.12 6.16-8.16l38.64-11.04 11.04-38.64c1.04-3.68 4.4-6.16 8.16-6.16s7.12 2.48 8.16 6.16z"/></svg>