<svg xmlns="http://www.w3.org/2000/svg" viewBox="0 0 512 512"><!--! Font Awesome Free 7.0.1 by @fontawesome - https://fontawesome.com License - https://fontawesome.com/license/free (Icons: CC BY 4.0, Fonts: SIL OFL 1.1, Code: MIT License) Copyright 2025 Fonticons, Inc.--><path fill="currentColor" d="M178.424 0C221.284 0 256 34.715 256 77.576c0 8.533-6.982 15.515-15.515 15.515-42.86 0-77.576-34.715-77.576-77.576C162.91 6.982 169.891 0 178.424 0M62.061 15.515h46.545a23.217 23.217 0 0 1 23.273 23.273 23.217 23.217 0 0 1-23.273 23.273H62.061a23.217 23.217 0 0 1-23.273-23.273A23.217 23.217 0 0 1 62.06 15.515M31.03 85.333h108.605a23.217 23.217 0 0 1 23.273 23.273 23.217 23.217 0 0 1-23.273 23.273H31.03a23.217 23.217 0 0 1-23.272-23.273A23.217 23.217 0 0 1 31.03 85.333m7.757 93.091a23.217 23.217 0 0 1 23.273-23.272h46.545a23.217 23.217 0 0 1 23.273 23.272 23.217 23.217 0 0 1-23.273 23.273H62.061a23.217 23.217 0 0 1-23.273-23.273M271.515 15.515C271.515 6.982 278.497 0 287.03 0c42.86 0 77.576 34.715 77.576 77.576 0 8.533-6.982 15.515-15.515 15.515-42.86 0-77.576-34.715-77.576-77.576M395.636 0c42.861 0 77.576 34.715 77.576 77.576 0 8.533-6.982 15.515-15.515 15.515-42.86 0-77.576-34.715-77.576-77.576C380.121 6.982 387.103 0 395.636 0m77.576 139.636c0 42.861-34.715 77.576-77.576 77.576-8.533 0-15.515-6.982-15.515-15.515 0-42.86 34.715-77.576 77.576-77.576 8.533 0 15.515 6.982 15.515 15.515m-124.121-15.515c8.533 0 15.515 6.982 15.515 15.515 0 42.861-34.715 77.576-77.576 77.576-8.533 0-15.515-6.982-15.515-15.515 0-42.86 34.715-77.576 77.576-77.576M256 139.636c0 42.861-34.715 77.576-77.576 77.576-8.533 0-15.515-6.982-15.515-15.515 0-42.86 34.715-77.576 77.576-77.576 8.533 0 15.515 6.982 15.515 15.515M7.758 310.303c0-25.697 20.848-46.545 46.545-46.545h403.394c25.697 0 46.545 20.848 46.545 46.545v155.152c0 25.697-20.848 46.545-46.545 46.545H54.303c-25.697 0-46.545-20.848-46.545-46.545zm46.545 108.606v46.546h46.545c0-25.697-20.848-46.546-46.545-46.546m46.545-108.606H54.303v46.545c25.697 0 46.545-20.848 46.545-46.545m356.849 108.606c-25.697 0-46.545 20.849-46.545 46.546h46.545zm-46.545-108.606c0 25.697 20.848 46.545 46.545 46.545v-46.545zm-93.091 77.576c0-34.23-27.83-62.06-62.061-62.06-34.23 0-62.06 27.83-62.06 62.06s27.83 62.06 62.06 62.06 62.06-27.83 62.06-62.06"/></svg>