<svg xmlns="http://www.w3.org/2000/svg" viewBox="0 0 512 512"><!--! Font Awesome Free 7.0.1 by @fontawesome - https://fontawesome.com License - https://fontawesome.com/license/free (Icons: CC BY 4.0, Fonts: SIL OFL 1.1, Code: MIT License) Copyright 2025 Fonticons, Inc.--><path fill="currentColor" d="M8.2 8.288C16.488 0 29.89 0 38.09 8.288L215.221 185.42h90.109c12.52 0 24.423 2.47 35.268 7.054l95.928-71.946c12.432-9.346 30.154-6.79 39.5 5.642s6.789 30.154-5.643 39.5l-86.23 64.629c4.673 7.847 8.2 16.487 10.404 25.657h87.112c15.606 0 28.214 12.608 28.214 28.214s-12.608 28.214-28.214 28.214h-84.643V340.6c0 8.376-.705 16.487-2.116 24.51l108.801 108.714c8.288 8.288 8.288 21.69 0 29.89s-21.69 8.287-29.89 0L8.2 38.265C0 29.978 0 16.576 8.2 8.288m344.919 434.587c-20.456 19.486-46.73 32.8-76.002 37.208v-113.21zM234.795 324.552v155.53c-45.143-6.788-83.32-35.003-103.775-73.974l-55.635 41.705c-12.432 9.346-30.154 6.789-39.5-5.643s-6.79-30.154 5.643-39.5l73.533-55.106c-.088-2.292-.176-4.585-.176-6.965v-28.215H30.242c-15.606 0-28.214-12.608-28.214-28.214s12.608-28.214 28.214-28.214h87.112c2.91-12.256 8.2-23.541 15.517-33.328zm80.763-181.453h-72.651L179.16 79.353c13.402-29.008 42.763-49.11 76.796-49.11 46.73 0 84.643 37.912 84.643 84.642v3.174c0 13.842-11.198 25.04-25.04 25.04"/></svg>