<svg xmlns="http://www.w3.org/2000/svg" viewBox="0 0 512 512"><!--! Font Awesome Free 7.0.1 by @fontawesome - https://fontawesome.com License - https://fontawesome.com/license/free (Icons: CC BY 4.0, Fonts: SIL OFL 1.1, Code: MIT License) Copyright 2025 Fonticons, Inc.--><path fill="currentColor" d="M186.182 7.758h77.576V62.06a23.217 23.217 0 0 0 23.272 23.272h77.576a23.217 23.217 0 0 0 23.273-23.272V7.758h77.576C491.152 7.758 512 28.606 512 54.303v403.394c0 25.697-20.848 46.545-46.545 46.545H359.952c7.951-13.672 12.412-29.575 12.412-46.545V302.545c9.697-12.993 15.515-29.09 15.515-46.545v-31.03c0-42.86-34.715-77.576-77.576-77.576H139.636V54.303c0-25.697 20.849-46.545 46.546-46.545M15.515 333.576h310.303v124.121c0 25.697-20.848 46.545-46.545 46.545H62.06c-25.697 0-46.546-20.848-46.546-46.545zM31.03 193.939h279.273c17.164 0 31.03 13.867 31.03 31.03V256c0 17.164-13.866 31.03-31.03 31.03H31.03C13.867 287.03 0 273.164 0 256v-31.03c0-17.164 13.867-31.03 31.03-31.03"/></svg>