<svg xmlns="http://www.w3.org/2000/svg" viewBox="0 0 512 512"><!--! Font Awesome Free 7.0.1 by @fontawesome - https://fontawesome.com License - https://fontawesome.com/license/free (Icons: CC BY 4.0, Fonts: SIL OFL 1.1, Code: MIT License) Copyright 2025 Fonticons, Inc.--><path fill="currentColor" d="M232.655 6.854a55.58 55.58 0 0 1 46.69 0l217.158 100.334c8.444 3.874 13.808 12.318 13.808 21.656s-5.364 17.782-13.808 21.657L279.345 250.834a55.58 55.58 0 0 1-46.69 0L15.497 150.501C7.053 146.527 1.69 138.083 1.69 128.844c0-9.238 5.364-17.782 13.808-21.656zM49.471 218.648l163.217 75.4a103.35 103.35 0 0 0 86.724 0l163.216-75.4 33.875 15.696c8.444 3.874 13.808 12.318 13.808 21.656s-5.364 17.782-13.808 21.656L279.345 377.99a55.58 55.58 0 0 1-46.69 0L15.497 277.656C7.053 273.683 1.69 265.24 1.69 256s5.364-17.782 13.808-21.656l33.875-15.696zM15.497 361.499l33.875-15.695 163.216 75.399a103.35 103.35 0 0 0 86.724 0l163.217-75.4 33.875 15.696c8.443 3.875 13.808 12.319 13.808 21.657s-5.365 17.782-13.808 21.656L279.246 505.146a55.58 55.58 0 0 1-46.69 0L15.497 404.812C7.053 400.838 1.69 392.394 1.69 383.156c0-9.239 5.364-17.782 13.808-21.657"/></svg>