<svg xmlns="http://www.w3.org/2000/svg" viewBox="0 0 512 512"><!--! Font Awesome Free 7.0.1 by @fontawesome - https://fontawesome.com License - https://fontawesome.com/license/free (Icons: CC BY 4.0, Fonts: SIL OFL 1.1, Code: MIT License) Copyright 2025 Fonticons, Inc.--><path fill="currentColor" d="M0 73.143C0 32.8 32.8 0 73.143 0h365.714C479.2 0 512 32.8 512 73.143v365.714C512 479.2 479.2 512 438.857 512H73.143C32.8 512 0 479.2 0 438.857zm164.571 4.571c-27.771 0-50.285 22.515-50.285 50.286v54.857c0 27.772 22.514 50.286 50.285 50.286h36.572c27.771 0 50.286-22.514 50.286-50.286V128c0-27.771-22.515-50.286-50.286-50.286zM160 128a4.585 4.585 0 0 1 4.571-4.571h36.572a4.585 4.585 0 0 1 4.571 4.571v54.857a4.585 4.585 0 0 1-4.571 4.572H164.57a4.585 4.585 0 0 1-4.571-4.572zm160-50.286c-12.571 0-22.857 10.286-22.857 22.857 0 11.086 7.886 20.229 18.286 22.4v87.315c0 12.571 10.285 22.857 22.857 22.857s22.857-10.286 22.857-22.857V100.57c0-12.571-10.286-22.857-22.857-22.857zm-169.143 224c0 11.086 7.886 20.229 18.286 22.4v87.315c0 12.571 10.286 22.857 22.857 22.857s22.857-10.286 22.857-22.857V301.714c0-12.571-10.286-22.857-22.857-22.857h-18.286c-12.571 0-22.857 10.286-22.857 22.857m109.714 27.429V384c0 27.771 22.515 50.286 50.286 50.286h36.572c27.771 0 50.285-22.515 50.285-50.286v-54.857c0-27.772-22.514-50.286-50.285-50.286h-36.572c-27.771 0-50.286 22.514-50.286 50.286m50.286-4.572h36.572a4.585 4.585 0 0 1 4.571 4.572V384a4.585 4.585 0 0 1-4.571 4.571h-36.572a4.585 4.585 0 0 1-4.571-4.571v-54.857a4.585 4.585 0 0 1 4.571-4.572"/></svg>