<svg xmlns="http://www.w3.org/2000/svg" viewBox="0 0 512 512"><!--! Font Awesome Free 7.0.1 by @fontawesome - https://fontawesome.com License - https://fontawesome.com/license/free (Icons: CC BY 4.0, Fonts: SIL OFL 1.1, Code: MIT License) Copyright 2025 Fonticons, Inc.--><path fill="currentColor" d="M438.857 73.143v73.143h-73.143V73.143zm0 146.286v73.142h-73.143V219.43zm0 146.285v73.143h-73.143v-73.143zm-146.286-73.143H219.43V219.43h73.142zm-73.142 73.143h73.142v73.143H219.43zm-73.143-73.143H73.143V219.43h73.143zm-73.143 73.143h73.143v73.143H73.143zm0-219.428V73.143h73.143v73.143zm146.286 0V73.143h73.142v73.143zM73.143 0C32.8 0 0 32.8 0 73.143v365.714C0 479.2 32.8 512 73.143 512h365.714C479.2 512 512 479.2 512 438.857V73.143C512 32.8 479.2 0 438.857 0z"/></svg>