<svg xmlns="http://www.w3.org/2000/svg" viewBox="0 0 512 512"><!--! Font Awesome Free 7.0.1 by @fontawesome - https://fontawesome.com License - https://fontawesome.com/license/free (Icons: CC BY 4.0, Fonts: SIL OFL 1.1, Code: MIT License) Copyright 2025 Fonticons, Inc.--><path fill="currentColor" d="M86.857 36.571C86.857 16.343 103.2 0 123.43 0h195.428c68.8 0 124.572 55.771 124.572 124.571 0 50.058-29.943 95.2-75.886 114.743L208.57 306.743c-40.571 17.143-66.857 56.914-66.857 100.914v31.2h256c20.229 0 36.572 16.343 36.572 36.572 0 20.228-16.343 36.571-36.572 36.571H105.143c-20.229 0-36.572-16.343-36.572-36.571v-67.772C68.571 334.286 112.457 268 180 239.314l158.971-67.428c18.972-8.115 31.315-26.743 31.315-47.315 0-28.457-23.086-51.428-51.429-51.428H123.43c-20.229 0-36.572-16.343-36.572-36.572"/></svg>