<svg xmlns="http://www.w3.org/2000/svg" viewBox="0 0 512 512"><!--! Font Awesome Free 7.0.1 by @fontawesome - https://fontawesome.com License - https://fontawesome.com/license/free (Icons: CC BY 4.0, Fonts: SIL OFL 1.1, Code: MIT License) Copyright 2025 Fonticons, Inc.--><path fill="currentColor" d="M0 142.222c0-31.378 25.511-56.889 56.889-56.889H455.11c31.378 0 56.889 25.511 56.889 56.89v227.555c0 31.378-25.511 56.889-56.889 56.889H56.89C25.51 426.667 0 401.156 0 369.777zm56.889 28.445v28.444c0 15.733 12.711 28.445 28.444 28.445h142.223c15.733 0 28.444-12.712 28.444-28.445v-28.444c0-15.734-12.711-28.445-28.444-28.445H85.333c-15.733 0-28.444 12.711-28.444 28.445m21.333 170.666a21.28 21.28 0 0 0-21.333 21.334A21.28 21.28 0 0 0 78.222 384h120.89a21.28 21.28 0 0 0 21.332-21.333 21.28 21.28 0 0 0-21.333-21.334zm227.556 0a21.28 21.28 0 0 0-21.334 21.334A21.28 21.28 0 0 0 305.778 384h128a21.28 21.28 0 0 0 21.333-21.333 21.28 21.28 0 0 0-21.333-21.334zm135.11-142.222c0-31.378-25.51-56.889-56.888-56.889s-56.889 25.511-56.889 56.89C327.111 230.488 352.622 256 384 256s56.889-25.511 56.889-56.889M78.223 305.778a21.28 21.28 0 0 0 21.334-21.334 21.28 21.28 0 0 0-21.334-21.333 21.28 21.28 0 0 0-21.333 21.333 21.28 21.28 0 0 0 21.333 21.334m92.445-21.334a21.28 21.28 0 0 0-21.334-21.333A21.28 21.28 0 0 0 128 284.444a21.28 21.28 0 0 0 21.333 21.334 21.28 21.28 0 0 0 21.334-21.334m49.777 21.334a21.28 21.28 0 0 0 21.334-21.334 21.28 21.28 0 0 0-21.334-21.333 21.28 21.28 0 0 0-21.333 21.333 21.28 21.28 0 0 0 21.333 21.334"/></svg>