<svg xmlns="http://www.w3.org/2000/svg" viewBox="0 0 512 512"><!--! Font Awesome Free 7.0.1 by @fontawesome - https://fontawesome.com License - https://fontawesome.com/license/free (Icons: CC BY 4.0, Fonts: SIL OFL 1.1, Code: MIT License) Copyright 2025 Fonticons, Inc.--><path fill="currentColor" d="M253.622 23.513a21.084 21.084 0 0 0-21.135 21.135v10.568h-1.585c-32.231 0-58.298 26.154-58.298 58.298 0 29.413 21.928 54.247 51.077 57.857l53.718 6.693c4.492.528 7.926 4.403 7.926 8.982 0 5.02-4.05 8.983-8.982 8.983l-64.991.088c-13.65 0-24.658 11.008-24.658 24.658s11.008 24.657 24.658 24.657h21.135V256a21.084 21.084 0 0 0 21.135 21.135A21.084 21.084 0 0 0 274.757 256v-10.568h1.586c32.23 0 58.298-26.154 58.298-58.297 0-29.414-21.928-54.247-51.077-57.858l-53.719-6.693c-4.491-.528-7.925-4.403-7.925-8.982 0-5.02 4.05-8.983 8.982-8.983l57.946-.088c13.65 0 24.657-11.008 24.657-24.658s-11.008-24.657-24.657-24.657h-14.09V44.648a21.084 21.084 0 0 0-21.136-21.135M96.253 338.339l-37.515 37.427H28.18C12.593 375.766 0 388.36 0 403.946v56.36c0 15.588 12.593 28.181 28.18 28.181h282.243c25.538 0 50.46-8.19 71.067-23.337l111.488-82.163c15.676-11.536 19.022-33.552 7.486-49.227-11.537-15.675-33.552-19.022-49.228-7.485l-105.5 77.671h-99.159a21.084 21.084 0 0 1-21.135-21.135 21.084 21.084 0 0 1 21.135-21.135h63.406c15.587 0 28.18-12.593 28.18-28.18s-12.593-28.18-28.18-28.18H175.95c-29.853 0-58.562 11.888-79.697 33.023"/></svg>