<svg xmlns="http://www.w3.org/2000/svg" viewBox="0 0 512 512"><!--! Font Awesome Free 7.0.1 by @fontawesome - https://fontawesome.com License - https://fontawesome.com/license/free (Icons: CC BY 4.0, Fonts: SIL OFL 1.1, Code: MIT License) Copyright 2025 Fonticons, Inc.--><path fill="currentColor" d="M60.271 0C27.054 0 .047 27.007.047 60.224V421.57c0 33.217 27.007 60.224 60.224 60.224h189.33c-34.064-40.087-53.825-91.748-53.825-146.42v-29.266c0-32.37 20.702-61.165 51.473-71.422l105.392-35.1c2.917-.94 5.834-1.693 8.751-2.352v-36.793c0-15.997-6.304-31.335-17.596-42.627L243.485 17.597C232.193 6.305 216.948 0 200.95 0zm246.073 165.617H218.36a22.53 22.53 0 0 1-22.584-22.584V55.049zm82.62 294.063-12.516 5.929V288.606l90.337 30.112v18.444c0 52.508-30.3 100.216-77.821 122.612zm-22.02-215.49-105.392 35.1c-12.327 4.14-20.608 15.62-20.608 28.606v29.266c0 70.01 40.463 133.716 103.699 163.452l17.408 8.187c4.517 2.07 9.41 3.199 14.303 3.199s9.88-1.13 14.304-3.2l17.408-8.186c63.424-29.83 103.887-93.536 103.887-163.547v-29.265c0-12.986-8.28-24.466-20.608-28.606l-105.392-35.1c-6.211-2.07-12.892-2.07-19.009 0z"/></svg>