<svg xmlns="http://www.w3.org/2000/svg" viewBox="0 0 512 512"><!--! Font Awesome Free 7.0.1 by @fontawesome - https://fontawesome.com License - https://fontawesome.com/license/free (Icons: CC BY 4.0, Fonts: SIL OFL 1.1, Code: MIT License) Copyright 2025 Fonticons, Inc.--><path fill="currentColor" d="M512 34.08c0-9.538-4.272-18.58-11.625-24.541s-17.09-8.545-26.43-6.658L314.97 34.676c-12.122 2.484-21.561 11.626-24.542 23.25h-64.584V34.08c0-17.586-14.208-31.795-31.795-31.795h-31.795c-17.586 0-31.795 14.209-31.795 31.795v28.218C75.513 74.52 29.808 111.481 5.763 160.764 0 172.588 4.869 186.895 16.792 192.658s26.131.894 31.894-11.029c16.196-33.384 45.805-59.02 81.773-70.048v28.615c-37.558 17.885-63.59 56.139-63.59 100.552v127.18h222.566v-127.18c0-44.413-26.033-82.667-63.59-100.552V105.62h64.583c2.98 11.625 12.42 20.766 24.542 23.25l158.975 31.795c9.34 1.888 18.978-.596 26.43-6.557S512 139.004 512 129.466zM289.435 447.416v-31.795H66.869v31.795c0 35.074 28.516 63.59 63.59 63.59h95.385c35.074 0 63.59-28.516 63.59-63.59"/></svg>