<svg xmlns="http://www.w3.org/2000/svg" viewBox="0 0 512 512"><!--! Font Awesome Free 7.0.1 by @fontawesome - https://fontawesome.com License - https://fontawesome.com/license/free (Icons: CC BY 4.0, Fonts: SIL OFL 1.1, Code: MIT License) Copyright 2025 Fonticons, Inc.--><path fill="currentColor" d="M363.063 8.02c11.098 8.02 15.201 22.57 10.165 35.253l-73.116 182.884H435.06a29.8 29.8 0 0 1 28.072 19.678c4.29 11.844.652 25.087-8.953 33.107l-268.59 223.825c-10.54 8.767-25.554 9.233-36.652 1.213s-15.201-22.57-10.165-35.253l73.116-182.884H76.94a29.8 29.8 0 0 1-28.072-19.678c-4.29-11.844-.652-25.087 8.953-33.107L326.411 9.233C336.952.466 351.966 0 363.064 8.02"/></svg>