<svg xmlns="http://www.w3.org/2000/svg" viewBox="0 0 512 512"><!--! Font Awesome Free 7.0.1 by @fontawesome - https://fontawesome.com License - https://fontawesome.com/license/free (Icons: CC BY 4.0, Fonts: SIL OFL 1.1, Code: MIT License) Copyright 2025 Fonticons, Inc.--><path fill="currentColor" d="M500.948 79.35C512 68.3 512 50.352 500.948 39.3c-11.051-11.052-29-11.052-40.05 0L291.143 209.053l-30.68-30.68c-3.712-3.713-8.84-5.835-14.145-5.835-11.052 0-19.982 8.93-19.982 19.981v25.729l95.752 95.751h25.728c11.052 0 19.981-8.93 19.981-19.981 0-5.305-2.122-10.433-5.835-14.146l-30.68-30.68L501.038 79.44zM301.577 343.53l-104.77-104.77c-37.752-3.27-75.327 10.345-102.382 37.4l-7.073 7.072a105 105 0 0 0-30.768 74.267c0 6.012 6.278 9.902 11.67 7.25l45.18-22.545c4.42-2.21 8.4 3.625 4.774 6.984L6.454 449.625C2.387 453.338 0 458.643 0 464.213c0 10.786 8.753 19.539 19.54 19.539h153.22c34.303 0 67.105-13.616 91.418-37.84 27.055-27.055 40.582-64.63 37.399-102.383"/></svg>