<svg xmlns="http://www.w3.org/2000/svg" viewBox="0 0 512 512"><!--! Font Awesome Free 7.0.1 by @fontawesome - https://fontawesome.com License - https://fontawesome.com/license/free (Icons: CC BY 4.0, Fonts: SIL OFL 1.1, Code: MIT License) Copyright 2025 Fonticons, Inc.--><path fill="currentColor" d="M164.571 292.571C144.343 292.571 128 276.23 128 256s16.343-36.571 36.571-36.571h128c40.343 0 73.143-32.8 73.143-73.143s-32.8-73.143-73.143-73.143H109.714c-20.228 0-36.571-16.343-36.571-36.572C73.143 16.343 89.486 0 109.714 0h182.857c80.8 0 146.286 65.486 146.286 146.286 0 43.657-19.2 82.857-49.486 109.714 30.4 26.857 49.486 66.057 49.486 109.714 0 80.8-65.486 146.286-146.286 146.286H109.714c-20.228 0-36.571-16.343-36.571-36.571 0-20.229 16.343-36.572 36.571-36.572h182.857c40.343 0 73.143-32.8 73.143-73.143s-32.8-73.143-73.143-73.143z"/></svg>