<svg xmlns="http://www.w3.org/2000/svg" viewBox="0 0 512 512"><!--! Font Awesome Free 7.0.1 by @fontawesome - https://fontawesome.com License - https://fontawesome.com/license/free (Icons: CC BY 4.0, Fonts: SIL OFL 1.1, Code: MIT License) Copyright 2025 Fonticons, Inc.--><path fill="currentColor" d="M135.53 22.588A22.534 22.534 0 0 1 158.117 0h195.764a22.534 22.534 0 0 1 22.589 22.588 22.534 22.534 0 0 1-22.589 22.588H158.118a22.534 22.534 0 0 1-22.589-22.588m-30.118 128c0-33.223 27.012-60.235 60.235-60.235h180.706c33.223 0 60.235 27.012 60.235 60.235v301.177c0 33.223-27.012 60.235-60.235 60.235H165.647c-33.223 0-60.235-27.012-60.235-60.235zm90.353 60.236c-16.66 0-30.118 13.458-30.118 30.117v120.47c0 16.66 13.459 30.118 30.118 30.118h120.47c16.66 0 30.118-13.458 30.118-30.117v-120.47c0-16.66-13.459-30.118-30.118-30.118z"/></svg>