<svg xmlns="http://www.w3.org/2000/svg" viewBox="0 0 512 512"><!--! Font Awesome Free 7.0.1 by @fontawesome - https://fontawesome.com License - https://fontawesome.com/license/free (Icons: CC BY 4.0, Fonts: SIL OFL 1.1, Code: MIT License) Copyright 2025 Fonticons, Inc.--><path fill="currentColor" d="M156.444 284.444c-70.666 0-128-57.333-128-128 0-70.666 57.334-128 128-128 24.178 0 46.756 6.667 66.045 18.312C240.356 35.2 261.6 28.444 284.444 28.444c42.134 0 78.845 22.845 98.578 56.89H384c55.022 0 99.556 44.533 99.556 99.555 0 53.6-42.312 97.244-95.29 99.467-20.088 17.777-46.488 28.533-75.377 28.533s-55.2-10.756-75.289-28.445zm298.667 92.445a21.28 21.28 0 0 1-21.333 21.333H21.333A21.28 21.28 0 0 1 0 376.89a21.28 21.28 0 0 1 21.333-21.333h412.445a21.28 21.28 0 0 1 21.333 21.333m-376.889 64h71.111a21.28 21.28 0 0 1 21.334 21.333 21.28 21.28 0 0 1-21.334 21.334h-71.11a21.28 21.28 0 0 1-21.334-21.334 21.28 21.28 0 0 1 21.333-21.333m156.445 0h256A21.28 21.28 0 0 1 512 462.222a21.28 21.28 0 0 1-21.333 21.334h-256a21.28 21.28 0 0 1-21.334-21.334 21.28 21.28 0 0 1 21.334-21.333"/></svg>