<svg xmlns="http://www.w3.org/2000/svg" viewBox="0 0 512 512"><!--! Font Awesome Free 7.0.1 by @fontawesome - https://fontawesome.com License - https://fontawesome.com/license/free (Icons: CC BY 4.0, Fonts: SIL OFL 1.1, Code: MIT License) Copyright 2025 Fonticons, Inc.--><path fill="currentColor" d="M109.714 0C89.486 0 73.143 16.343 73.143 36.571V155.43H45.714a27.363 27.363 0 0 0-27.428 27.428 27.363 27.363 0 0 0 27.428 27.429h27.429v265.143c0 20.228 16.343 36.571 36.571 36.571 20.229 0 36.572-16.343 36.572-36.571V365.714H256c91.657 0 167.543-67.428 180.8-155.428h29.486a27.363 27.363 0 0 0 27.428-27.429 27.363 27.363 0 0 0-27.428-27.428H436.8C423.543 67.429 347.657 0 256 0zm252.572 155.429h-216V73.143H256c51.086 0 94.057 34.971 106.286 82.286m-216 54.857h216C350.057 257.6 307.2 292.57 256 292.57H146.286z"/></svg>