<svg xmlns="http://www.w3.org/2000/svg" viewBox="0 0 512 512"><!--! Font Awesome Free 7.0.1 by @fontawesome - https://fontawesome.com License - https://fontawesome.com/license/free (Icons: CC BY 4.0, Fonts: SIL OFL 1.1, Code: MIT License) Copyright 2025 Fonticons, Inc.--><path fill="currentColor" d="M0 142.222c0-31.378 25.511-56.889 56.889-56.889H455.11c31.378 0 56.889 25.511 56.889 56.89v56.888c0 7.822-6.578 13.956-13.956 16.533-16.71 5.778-28.71 21.69-28.71 40.356 0 18.667 12 34.578 28.71 40.356 7.378 2.577 13.956 8.71 13.956 16.533v56.889c0 31.378-25.511 56.889-56.889 56.889H56.89C25.51 426.667 0 401.156 0 369.777V312.89c0-7.822 6.578-13.956 13.956-16.533 16.71-5.778 28.71-21.69 28.71-40.356 0-18.667-12-34.578-28.71-40.356C6.578 213.067 0 206.934 0 199.111z"/></svg>