<svg xmlns="http://www.w3.org/2000/svg" viewBox="0 0 512 512"><!--! Font Awesome Free 7.0.1 by @fontawesome - https://fontawesome.com License - https://fontawesome.com/license/free (Icons: CC BY 4.0, Fonts: SIL OFL 1.1, Code: MIT License) Copyright 2025 Fonticons, Inc.--><path fill="currentColor" d="M256 56.889c141.422 0 256 42.667 256 113.778v170.666c0 71.111-114.578 113.778-256 113.778S0 412.444 0 341.333V170.667C0 99.556 114.578 56.889 256 56.889m213.333 113.778c0-8.8-7.11-26.578-48.889-44.267-16.533-7.022-36.355-12.8-58.666-17.244l-24.711 38.755c-6.49 10.222-9.956 22.045-9.956 34.133 0 15.556 5.689 30.578 16.089 42.223l8.711 9.777c26.489-4.622 49.689-11.11 68.622-19.11 41.867-17.69 48.89-35.467 48.89-44.267zM310.4 239.377c-7.111-23.288-28.8-40.266-54.4-40.266s-47.378 16.978-54.4 40.267a624 624 0 0 0 54.4 2.4c18.933 0 37.156-.8 54.4-2.4M150.222 109.157c-22.4 4.444-42.133 10.31-58.666 17.244-41.867 17.689-48.89 35.467-48.89 44.267s7.112 26.577 48.89 44.266c18.933 8 42.133 14.49 68.622 19.111l8.71-9.777c10.312-11.645 16.09-26.667 16.09-42.223 0-12.088-3.467-23.91-9.956-34.133zm50.045-7.112c-.8 3.823-1.245 7.734-1.245 11.734 0 31.378 25.511 56.889 56.89 56.889 31.377 0 56.888-25.511 56.888-56.89 0-4-.444-8-1.244-11.733-17.6-1.6-36.267-2.488-55.645-2.488s-38.044.888-55.644 2.488"/></svg>