<svg xmlns="http://www.w3.org/2000/svg" viewBox="0 0 512 512"><!--! Font Awesome Free 7.0.1 by @fontawesome - https://fontawesome.com License - https://fontawesome.com/license/free (Icons: CC BY 4.0, Fonts: SIL OFL 1.1, Code: MIT License) Copyright 2025 Fonticons, Inc.--><path fill="currentColor" d="M247.23 110.418c0 14.645-11.832 26.477-26.478 26.477-14.645 0-26.477-11.832-26.477-26.477 0-14.646 11.832-26.477 26.477-26.477 14.646 0 26.477 11.831 26.477 26.477m-26.478-79.432c-43.852 0-79.43 35.579-79.43 79.432 0 34.585 22.091 64.041 52.953 74.88v213.388c-52.044-11.831-91.18-57.67-92.587-112.94l13.322 11.666c8.274 7.198 20.768 6.37 28.049-1.903s6.37-20.768-1.903-28.05l-52.954-46.334c-7.447-6.537-18.7-6.537-26.146 0L9.1 267.46C.827 274.658 0 287.235 7.198 295.509s19.775 9.101 28.05 1.903l13.404-11.75c1.737 93.58 78.107 168.875 172.1 168.875a172.7 172.7 0 0 0 66.193-13.156v-59.905a120 120 0 0 1-39.716 17.128V185.215c30.863-10.922 52.955-40.295 52.955-74.88 0-43.853-35.579-79.431-79.432-79.431zm225.055 251.615v39.633h-52.954v-39.633c0-14.645 11.832-26.477 26.477-26.477s26.477 11.832 26.477 26.477M326.661 361.95v79.43c0 21.927 17.789 39.716 39.715 39.716h105.908c21.927 0 39.716-17.789 39.716-39.715V361.95c0-17.293-11.087-32.021-26.477-37.482v-41.867c0-36.571-29.621-66.192-66.193-66.192-36.571 0-66.192 29.62-66.192 66.192v41.867c-15.39 5.46-26.477 20.189-26.477 37.482"/></svg>