<svg xmlns="http://www.w3.org/2000/svg" viewBox="0 0 512 512"><!--! Font Awesome Free 7.0.1 by @fontawesome - https://fontawesome.com License - https://fontawesome.com/license/free (Icons: CC BY 4.0, Fonts: SIL OFL 1.1, Code: MIT License) Copyright 2025 Fonticons, Inc.--><path fill="currentColor" d="M63.99 108.823c0-17.677-14.318-31.995-31.995-31.995S0 91.146 0 108.823v177.172a76.76 76.76 0 0 0 22.476 54.312l79.908 79.907c9.599 9.599 22.636 14.958 36.234 14.958h53.352c21.197 0 38.394-17.197 38.394-38.394v-63.11a89.6 89.6 0 0 0-26.236-63.35l-20.237-20.237-37.754-37.754c-9.998-9.999-26.236-9.999-36.234 0-9.999 9.998-9.999 26.236 0 36.234l37.754 37.754c8.799 8.799 7.359 23.357-2.96 30.236-7.758 5.199-18.157 4.159-24.796-2.48l-40.953-40.874c-9.599-9.598-14.958-22.636-14.958-36.234zm383.94 0v128.14c0 13.598-5.36 26.636-14.958 36.234L392.1 314.071c-6.64 6.639-17.038 7.679-24.796 2.48-10.319-6.88-11.759-21.517-2.96-30.236l37.754-37.754c9.999-9.998 9.999-26.236 0-36.234-9.998-9.999-26.236-9.999-36.234 0l-37.754 37.754-20.237 20.237a89.6 89.6 0 0 0-26.236 63.35v63.11c0 21.197 17.197 38.394 38.394 38.394h53.352c13.598 0 26.635-5.36 36.234-14.958l79.908-79.907A76.76 76.76 0 0 0 512 285.995l-.08-177.172c0-17.677-14.318-31.995-31.995-31.995s-31.995 14.318-31.995 31.995"/></svg>