<svg xmlns="http://www.w3.org/2000/svg" viewBox="0 0 512 512"><!--! Font Awesome Free 7.0.1 by @fontawesome - https://fontawesome.com License - https://fontawesome.com/license/free (Icons: CC BY 4.0, Fonts: SIL OFL 1.1, Code: MIT License) Copyright 2025 Fonticons, Inc.--><path fill="currentColor" d="M256 341.333c72.34 0 134.206-44.994 159.03-108.606h3.88a23.217 23.217 0 0 0 23.272-23.272v-77.576a23.217 23.217 0 0 0-23.273-23.273h-3.879C390.206 44.994 328.34 0 256 0S121.794 44.994 96.97 108.606h-3.88a23.217 23.217 0 0 0-23.272 23.273v77.576a23.217 23.217 0 0 0 23.273 23.272h3.879C121.794 296.34 183.66 341.333 256 341.333M240.485 93.091h31.03c51.394 0 93.091 41.697 93.091 93.09 0 51.395-41.697 93.092-93.09 93.092h-31.031c-51.394 0-93.091-41.697-93.091-93.091s41.697-93.091 93.09-93.091M54.303 485.43c0 14.642 11.927 26.569 26.57 26.569h51.006v-46.545c0-17.164 13.866-31.03 31.03-31.03h186.182c17.164 0 31.03 13.866 31.03 31.03V512h51.006c14.643 0 26.57-11.927 26.57-26.57 0-57.988-30.933-108.8-77.188-136.727-35.297 24.727-78.157 39.176-124.509 39.176s-89.212-14.449-124.51-39.176c-46.254 27.927-77.187 78.74-77.187 136.727m162.23-332.704c-.872-3.2-3.781-5.333-7.078-5.333s-6.207 2.133-7.08 5.333l-5.817 20.558L176 179.103c-3.2.873-5.333 3.782-5.333 7.079s2.133 6.206 5.333 7.079l20.558 5.818 5.818 20.557c.872 3.2 3.782 5.334 7.079 5.334s6.206-2.134 7.078-5.334l5.819-20.557 20.557-5.818c3.2-.873 5.333-3.782 5.333-7.08 0-3.296-2.133-6.205-5.333-7.078l-20.557-5.818zm-30.351 336V512h46.545v-23.273a23.217 23.217 0 0 0-23.272-23.272 23.217 23.217 0 0 0-23.273 23.272m116.363-23.272a23.217 23.217 0 0 0-23.272 23.272V512h46.545v-23.273a23.217 23.217 0 0 0-23.273-23.272"/></svg>