<svg xmlns="http://www.w3.org/2000/svg" viewBox="0 0 512 512"><!--! Font Awesome Free 7.0.1 by @fontawesome - https://fontawesome.com License - https://fontawesome.com/license/free (Icons: CC BY 4.0, Fonts: SIL OFL 1.1, Code: MIT License) Copyright 2025 Fonticons, Inc.--><path fill="currentColor" d="M256 503.492c136.7 0 247.492-110.791 247.492-247.492 0-23.59-3.287-46.502-9.474-68.157 17.982-34.9-2.61-80.822-45.148-87.01C403.53 44.472 333.921 8.509 256 8.509s-147.529 36.06-192.87 92.326C20.592 107.02 0 152.943 17.982 187.843 11.795 209.498 8.508 232.314 8.508 256c0 136.7 110.791 247.492 247.492 247.492M382.356 322.61c11.505-3.577 23.106 6.09 18.95 17.499-21.656 59.263-78.6 101.607-145.306 101.607s-123.65-42.441-145.305-101.704c-4.157-11.408 7.444-21.075 18.949-17.498 37.897 11.794 80.918 18.465 126.356 18.465s88.46-6.67 126.356-18.465zm-30.55-223.323c5.125-10.344 19.82-10.344 24.943 0l20.206 40.99 45.148 6.575c11.408 1.643 15.951 15.662 7.734 23.686L417.16 202.44l7.734 45.051c1.934 11.312-9.957 20.013-20.205 14.695l-40.411-21.269-40.41 21.27c-10.152 5.317-22.14-3.288-20.206-14.696l7.734-45.05-32.677-31.904c-8.217-8.024-3.674-22.043 7.734-23.686l45.148-6.574zm-191.613 0 20.206 40.99 45.148 6.575c11.408 1.643 15.951 15.662 7.734 23.686l-32.677 31.903 7.734 45.051c1.934 11.312-9.957 20.013-20.205 14.695l-40.41-21.269-40.412 21.27c-10.15 5.317-22.139-3.288-20.205-14.696l7.734-45.05-32.677-31.904c-8.217-8.024-3.674-22.043 7.734-23.686l45.148-6.574 20.206-40.991c5.124-10.344 19.818-10.344 24.942 0"/></svg>