<svg xmlns="http://www.w3.org/2000/svg" viewBox="0 0 512 512"><!--! Font Awesome Free 7.0.1 by @fontawesome - https://fontawesome.com License - https://fontawesome.com/license/free (Icons: CC BY 4.0, Fonts: SIL OFL 1.1, Code: MIT License) Copyright 2025 Fonticons, Inc.--><path fill="currentColor" d="M53.895 26.947C24.168 26.947 0 51.116 0 80.842v323.369c0 29.726 24.168 53.894 53.895 53.894h209.937C258.779 445.642 256 432 256 417.685c0-14.906 6.063-28.38 15.832-38.148A107.2 107.2 0 0 1 256 323.368c0-14.905 6.063-28.379 15.832-38.147A107.2 107.2 0 0 1 256 229.053c0-21.221 12.21-39.495 29.979-48.337-2.021-5.98-3.032-12.38-3.032-19.032v-26.947c0-26.358 16.842-48.758 40.337-57.18-1.684-28.21-25.179-50.61-53.81-50.61zm94.316 296.421h26.947c14.905 0 26.947 12.043 26.947 26.948v67.368h-80.842v-67.368c0-14.905 12.042-26.948 26.948-26.948M80.842 121.263c0-7.41 6.063-13.474 13.474-13.474h26.947c7.41 0 13.474 6.064 13.474 13.474v26.948c0 7.41-6.063 13.473-13.474 13.473H94.316c-7.41 0-13.474-6.063-13.474-13.473zm121.263-13.474h26.948c7.41 0 13.473 6.064 13.473 13.474v26.948c0 7.41-6.063 13.473-13.473 13.473h-26.948c-7.41 0-13.473-6.063-13.473-13.473v-26.948c0-7.41 6.063-13.474 13.473-13.474M80.842 229.053c0-7.41 6.063-13.474 13.474-13.474h26.947c7.41 0 13.474 6.063 13.474 13.474V256c0 7.41-6.063 13.474-13.474 13.474H94.316c-7.41 0-13.474-6.063-13.474-13.474zm121.263-13.474h26.948c7.41 0 13.473 6.063 13.473 13.474V256c0 7.41-6.063 13.474-13.473 13.474h-26.948c-7.41 0-13.473-6.063-13.473-13.474v-26.947c0-7.41 6.063-13.474 13.473-13.474m296.421 0h-13.473c-37.221 0-67.369 30.147-67.369 67.368 0 7.41 6.063 13.474 13.474 13.474h13.474c37.22 0 67.368-30.147 67.368-67.368 0-7.41-6.063-13.474-13.474-13.474M512 323.369c0-7.411-6.063-13.474-13.474-13.474h-13.473c-37.221 0-67.369 30.147-67.369 67.368 0 7.41 6.063 13.474 13.474 13.474h13.474c37.22 0 67.368-30.148 67.368-67.369m0 94.315c0-7.41-6.063-13.473-13.474-13.473h-13.473c-37.221 0-67.369 30.147-67.369 67.368 0 7.41 6.063 13.474 13.474 13.474h13.474c37.22 0 67.368-30.148 67.368-67.369M390.737 471.58c0-37.221-30.148-67.368-67.369-67.368h-13.473c-7.41 0-13.474 6.063-13.474 13.473 0 37.221 30.147 67.369 67.368 67.369h13.474c7.41 0 13.474-6.064 13.474-13.474m-13.474-80.842c7.41 0 13.474-6.063 13.474-13.474 0-37.22-30.148-67.368-67.369-67.368h-13.473c-7.41 0-13.474 6.063-13.474 13.473 0 37.221 30.147 67.369 67.368 67.369zm13.474-107.79c0-37.22-30.148-67.368-67.369-67.368h-13.473c-7.41 0-13.474 6.063-13.474 13.474 0 37.22 30.147 67.368 67.368 67.368h13.474c7.41 0 13.474-6.063 13.474-13.474M404.21 80.842c-11.2 0-20.211 9.01-20.211 20.21v87.58c0 11.2 9.01 20.21 20.21 20.21s20.211-9.01 20.211-20.21v-87.58c0-11.2-9.01-20.21-20.21-20.21m80.842 53.895c0-11.2-9.01-20.21-20.21-20.21s-20.211 9.01-20.211 20.21v26.947c0 11.2 9.01 20.21 20.21 20.21s20.21-9.01 20.21-20.21zm-141.474-20.21c-11.2 0-20.21 9.01-20.21 20.21v26.947c0 11.2 9.01 20.21 20.21 20.21s20.21-9.01 20.21-20.21v-26.947c0-11.2-9.01-20.21-20.21-20.21"/></svg>