<svg xmlns="http://www.w3.org/2000/svg" viewBox="0 0 512 512"><!--! Font Awesome Free 7.0.1 by @fontawesome - https://fontawesome.com License - https://fontawesome.com/license/free (Icons: CC BY 4.0, Fonts: SIL OFL 1.1, Code: MIT License) Copyright 2025 Fonticons, Inc.--><path fill="currentColor" d="M39.022 71.111C17.512 71.111 0 88.622 0 110.133v291.734c0 21.6 17.511 39.022 39.022 39.022 4.89 0 9.511-.889 13.956-2.578 11.466-4.355 91.91-32.978 203.022-32.978s191.556 28.711 203.022 32.978c4.445 1.689 9.067 2.578 13.956 2.578 21.6 0 39.022-17.511 39.022-39.022V110.133c0-21.6-17.511-39.022-39.022-39.022-4.89 0-9.511.889-13.956 2.578-11.466 4.355-91.91 32.978-203.022 32.978S64.444 77.956 52.978 73.689C48.533 72 43.91 71.11 39.022 71.11M64 184.89c0-19.645 15.911-35.556 35.556-35.556s35.555 15.911 35.555 35.556-15.911 35.555-35.555 35.555C79.91 220.444 64 204.534 64 184.89m234.756-14.222c6.666 0 12.977 3.2 16.977 8.533L426.4 327.289a21.35 21.35 0 0 1 1.156 23.911 21.16 21.16 0 0 1-21.778 9.867c-40.711-6.934-91.822-12.623-149.69-12.623-58.31 0-109.688 5.778-150.488 12.8-8.711 1.512-17.511-2.577-21.956-10.222-4.444-7.644-3.822-17.244 1.69-24.178l61.6-77.066c4.088-5.067 10.222-8 16.622-8s12.622 2.933 16.622 8l24.444 30.578L281.69 179.11a21.51 21.51 0 0 1 17.067-8.444"/></svg>