<svg xmlns="http://www.w3.org/2000/svg" viewBox="0 0 512 512"><!--! Font Awesome Free 7.0.1 by @fontawesome - https://fontawesome.com License - https://fontawesome.com/license/free (Icons: CC BY 4.0, Fonts: SIL OFL 1.1, Code: MIT License) Copyright 2025 Fonticons, Inc.--><path fill="currentColor" d="M286.98 37.059c-5.545-12.158-17.703-19.943-31.033-19.943s-25.488 7.785-31.034 19.943L46.39 426.63H34.126C15.25 426.631 0 441.881 0 460.757s15.25 34.127 34.126 34.127h93.847c18.876 0 34.127-15.25 34.127-34.127 0-18.876-15.25-34.126-34.127-34.126h-6.505l23.462-51.19h222.14l23.462 51.19h-6.505c-18.876 0-34.127 15.25-34.127 34.126s15.25 34.127 34.127 34.127h93.847c18.876 0 34.126-15.25 34.126-34.127 0-18.876-15.25-34.126-34.126-34.126H465.61L287.087 37.06zm48.737 270.13h-159.54l79.77-174.043z"/></svg>