<svg xmlns="http://www.w3.org/2000/svg" viewBox="0 0 512 512"><!--! Font Awesome Free 7.0.1 by @fontawesome - https://fontawesome.com License - https://fontawesome.com/license/free (Icons: CC BY 4.0, Fonts: SIL OFL 1.1, Code: MIT License) Copyright 2025 Fonticons, Inc.--><path fill="currentColor" d="M272.798 2.233a84.6 84.6 0 0 0-33.499 0L57.24 38.645C46.365 40.781 38.5 50.395 38.5 61.463c0 10.001 6.312 18.74 15.536 21.945v71.27l-15.244 76.32a13.2 13.2 0 0 0-.291 2.815c0 7.768 6.31 14.176 14.176 14.176h33.887c7.768 0 14.177-6.311 14.177-14.176 0-.971-.097-1.845-.292-2.816l-15.341-76.32V89.914l46.607 9.322v55.443c0 68.648 55.637 124.286 124.286 124.286s124.286-55.638 124.286-124.286V99.235l74.474-14.856c10.876-2.234 18.74-11.846 18.74-22.916s-7.864-20.682-18.74-22.818zM256 232.357c-42.918 0-77.679-34.762-77.679-77.68H333.68c0 42.918-34.761 77.68-77.679 77.68m-100.885 93.311c-59.619 27.382-101.08 87.583-101.08 157.494C54.035 499.086 66.95 512 82.874 512h149.822V370.236l-55.734-41.752c-6.312-4.758-14.76-6.02-21.944-2.719zM279.304 512h149.822c15.925 0 28.839-12.914 28.839-28.838 0-69.911-41.461-130.112-101.08-157.397-7.185-3.301-15.633-2.039-21.944 2.719l-55.734 41.752V512z"/></svg>