<svg xmlns="http://www.w3.org/2000/svg" viewBox="0 0 512 512"><!--! Font Awesome Free 7.0.1 by @fontawesome - https://fontawesome.com License - https://fontawesome.com/license/free (Icons: CC BY 4.0, Fonts: SIL OFL 1.1, Code: MIT License) Copyright 2025 Fonticons, Inc.--><path fill="currentColor" d="M73.143 365.714H128l153.257 136.229a39.63 39.63 0 0 0 26.4 10.057c21.943 0 39.772-17.829 39.772-39.771V39.77C347.429 17.83 329.6 0 307.657 0a39.63 39.63 0 0 0-26.4 10.057L128 146.286H73.143c-30.286 0-54.857 24.571-54.857 54.857v109.714c0 30.286 24.571 54.857 54.857 54.857m380.114-194.857c-11.771-9.6-29.028-7.771-38.628 4s-7.772 29.029 4 38.629c12.342 10.057 20.228 25.371 20.228 42.514s-7.886 32.457-20.228 42.629c-11.772 9.6-13.486 26.857-4 38.628 9.485 11.772 26.857 13.486 38.628 4C477.83 321.03 493.714 290.4 493.714 256s-15.885-65.029-40.571-85.143z"/></svg>