<svg xmlns="http://www.w3.org/2000/svg" viewBox="0 0 512 512"><!--! Font Awesome Free 7.0.1 by @fontawesome - https://fontawesome.com License - https://fontawesome.com/license/free (Icons: CC BY 4.0, Fonts: SIL OFL 1.1, Code: MIT License) Copyright 2025 Fonticons, Inc.--><path fill="currentColor" d="M56.889 56.889c0-15.733-12.711-28.445-28.445-28.445S0 41.156 0 56.89v161.689c0 12.622 4.533 24.8 12.711 34.4l75.822 88.355h-3.2A21.28 21.28 0 0 0 64 362.667 21.28 21.28 0 0 0 85.333 384h341.334A21.28 21.28 0 0 0 448 362.667a21.28 21.28 0 0 0-21.333-21.334h-3.2l75.822-88.444c8.178-9.6 12.711-21.778 12.711-34.4v-161.6c0-15.733-12.711-28.445-28.444-28.445-15.734 0-28.445 12.712-28.445 28.445v100.267l-61.6 82.133A16.384 16.384 0 0 1 372 243.556c-8.622-5.067-10.756-16.623-4.533-24.445L392 188.444c9.6-12 7.911-29.6-3.911-39.555-11.822-9.956-29.333-8.711-39.556 2.844l-41.51 46.667c-14.579 16.444-22.579 37.511-22.579 59.467v83.466h-56.888v-83.466c0-21.867-8-43.023-22.578-59.378l-41.511-46.667c-10.223-11.555-27.823-12.8-39.556-2.844-11.733 9.955-13.511 27.378-3.911 39.466l24.533 30.667c6.223 7.822 4.178 19.378-4.533 24.445-7.2 4.266-16.533 2.4-21.511-4.267l-61.6-82.133zm56.889 398.222v28.445h113.778V455.11h56.888v28.445h113.778V455.11h28.445A21.28 21.28 0 0 0 448 433.778a21.28 21.28 0 0 0-21.333-21.334H85.333A21.28 21.28 0 0 0 64 433.778a21.28 21.28 0 0 0 21.333 21.333z"/></svg>