<svg xmlns="http://www.w3.org/2000/svg" viewBox="0 0 512 512"><!--! Font Awesome Free 7.0.1 by @fontawesome - https://fontawesome.com License - https://fontawesome.com/license/free (Icons: CC BY 4.0, Fonts: SIL OFL 1.1, Code: MIT License) Copyright 2025 Fonticons, Inc.--><path fill="currentColor" d="M461.835 8.46c9.456-8.46 23.888-8.062 32.846.896l7.963 7.963c8.958 8.958 9.356 23.39.896 32.846l-85.4 95.452a15.97 15.97 0 0 0-4.08 10.65v21.3c0 8.76-7.167 15.926-15.926 15.926h-15.727c-4.578 0-8.858 1.891-11.844 5.275L100.23 500.952C93.96 508.019 85.002 512 75.546 512c-8.76 0-17.22-3.484-23.39-9.754L9.655 459.944C3.484 453.773 0 445.313 0 436.554c0-9.456 3.981-18.414 11.048-24.685l111.08-99.334c3.384-2.986 5.275-7.365 5.275-11.844v-27.472c0-8.759 7.166-15.925 15.925-15.925h34.439c3.882 0 7.664-1.493 10.65-4.08zm-31.85 280.585c3.583 0 6.668 2.389 7.664 5.773l14.73 51.459 51.46 14.73c3.383.996 5.772 4.082 5.772 7.665s-2.389 6.669-5.773 7.664l-51.459 14.73-14.73 51.46c-.996 3.384-4.081 5.773-7.665 5.773s-6.668-2.39-7.664-5.773l-14.73-51.46-51.46-14.73c-3.383-.995-5.772-4.08-5.772-7.664s2.389-6.669 5.773-7.664l51.458-14.731 14.731-51.459c.996-3.384 4.081-5.773 7.664-5.773M87.29 71.863l14.73 51.459 51.46 14.73c3.384.996 5.772 4.082 5.772 7.665s-2.388 6.669-5.772 7.664l-51.46 14.731-14.73 51.459c-.996 3.384-4.081 5.773-7.664 5.773s-6.669-2.39-7.664-5.773l-14.731-51.459-51.46-14.731C2.39 152.386 0 149.301 0 145.717s2.389-6.669 5.773-7.664l51.459-14.731 14.73-51.459c.996-3.384 4.082-5.773 7.665-5.773s6.668 2.389 7.664 5.773M207.03 2.39a7.984 7.984 0 0 1 7.763 6.071l6.768 27.173 27.173 6.768a7.984 7.984 0 0 1 6.072 7.764 7.984 7.984 0 0 1-6.072 7.763l-27.173 6.769-6.768 27.172a7.984 7.984 0 0 1-7.763 6.072 7.984 7.984 0 0 1-7.764-6.072l-6.768-27.172-27.173-6.769a7.984 7.984 0 0 1-6.072-7.763 7.984 7.984 0 0 1 6.072-7.764l27.173-6.768 6.768-27.173a7.984 7.984 0 0 1 7.764-6.071"/></svg>