<svg xmlns="http://www.w3.org/2000/svg" viewBox="0 0 512 512"><!--! Font Awesome Free 7.0.1 by @fontawesome - https://fontawesome.com License - https://fontawesome.com/license/free (Icons: CC BY 4.0, Fonts: SIL OFL 1.1, Code: MIT License) Copyright 2025 Fonticons, Inc.--><path fill="currentColor" d="M208 48c0-26.5 21.5-48 48-48s48 21.5 48 48-21.5 48-48 48-48-21.5-48-48m0 416c0-26.5 21.5-48 48-48s48 21.5 48 48-21.5 48-48 48-48-21.5-48-48M48 208c26.5 0 48 21.5 48 48s-21.5 48-48 48-48-21.5-48-48 21.5-48 48-48m368 48c0-26.5 21.5-48 48-48s48 21.5 48 48-21.5 48-48 48-48-21.5-48-48M75 369.1c18.8-18.8 49.1-18.8 67.9 0s18.8 49.1 0 67.9-49.1 18.8-67.9 0-18.8-49.1 0-67.9M75 75c18.8-18.8 49.1-18.8 67.9 0s18.8 49.1 0 67.9-49.1 18.8-67.9 0S56.2 93.8 75 75m362 294.1c18.8 18.8 18.8 49.1 0 67.9s-49.1 18.8-67.9 0-18.8-49.1 0-67.9 49.1-18.8 67.9 0"/></svg>