<svg xmlns="http://www.w3.org/2000/svg" viewBox="0 0 512 512"><!--! Font Awesome Free 7.0.1 by @fontawesome - https://fontawesome.com License - https://fontawesome.com/license/free (Icons: CC BY 4.0, Fonts: SIL OFL 1.1, Code: MIT License) Copyright 2025 Fonticons, Inc.--><path fill="currentColor" d="M121.412 174.118c-8.847 8.847-23.153 8.847-31.906 0l-60.33-60.236c-8.752-8.847-8.752-23.153 0-32s23.153-8.753 32 0l21.648 21.742V22.588A22.534 22.534 0 0 1 105.412 0 22.534 22.534 0 0 1 128 22.588v81.036l21.647-21.648c8.847-8.847 23.153-8.847 31.906 0 8.753 8.848 8.847 23.153 0 31.906l-60.235 60.236zm301.176 0c-8.847 8.847-23.153 8.847-31.906 0l-60.33-60.236c-8.846-8.847-8.846-23.153 0-31.906 8.848-8.752 23.154-8.847 31.907 0l21.647 21.648V22.588A22.534 22.534 0 0 1 406.494 0a22.534 22.534 0 0 1 22.588 22.588v81.036l21.647-21.648c8.847-8.847 23.153-8.847 31.906 0 8.753 8.848 8.847 23.153 0 31.906L422.4 174.118zM256 210.824c29.082 0 52.706 23.623 52.706 52.705 0 29.083-23.624 52.706-52.706 52.706s-52.706-23.623-52.706-52.706c0-29.082 23.624-52.705 52.706-52.705m0 150.588c49.882 0 90.353 40.47 90.353 90.353v30.117c0 16.66-13.459 30.118-30.118 30.118h-120.47c-16.66 0-30.118-13.459-30.118-30.118v-30.117c0-49.883 40.47-90.353 90.353-90.353M45.176 301.176c0-24.94 20.236-45.176 45.177-45.176s45.176 20.235 45.176 45.176-20.235 45.177-45.176 45.177-45.177-20.235-45.177-45.177m331.295 0c0-24.94 20.235-45.176 45.176-45.176s45.177 20.235 45.177 45.176-20.236 45.177-45.177 45.177-45.176-20.235-45.176-45.177M90.353 376.471c14.4 0 27.859 4.047 39.341 11.105a135.3 135.3 0 0 0-9.223 49.13v45.176A74.7 74.7 0 0 0 126.776 512H44.141c-16.094 0-29.082-12.988-29.082-29.082v-31.153c0-41.6 33.694-75.294 75.294-75.294M385.223 512a74.7 74.7 0 0 0 6.306-30.118v-45.176c0-17.318-3.294-33.882-9.223-49.13 11.482-7.058 24.941-11.105 39.341-11.105 41.6 0 75.294 33.694 75.294 75.294v31.153c0 16-12.988 29.082-29.082 29.082z"/></svg>