<svg xmlns="http://www.w3.org/2000/svg" viewBox="0 0 512 512"><!--! Font Awesome Free 7.0.1 by @fontawesome - https://fontawesome.com License - https://fontawesome.com/license/free (Icons: CC BY 4.0, Fonts: SIL OFL 1.1, Code: MIT License) Copyright 2025 Fonticons, Inc.--><path fill="currentColor" d="m398.133 305.689-24.71 42.755h49.51l-24.71-42.755zM369.423 256l-53.512-92.444H196.09L142.578 256l53.51 92.444h119.823zm57.51 0 51.911 89.689a34.7 34.7 0 0 1 4.712 17.511c0 19.289-15.645 35.022-35.023 35.022h-104l-54.489 94.045C283.111 504.533 270.044 512 256 512s-27.111-7.467-34.133-19.733l-54.49-94.045h-104c-19.288 0-35.021-15.644-35.021-35.022 0-6.133 1.6-12.178 4.71-17.511l52-89.689-51.91-89.689a34.7 34.7 0 0 1-4.712-17.511c0-19.378 15.645-35.022 35.023-35.022h104l54.489-94.045C228.889 7.467 241.956 0 256 0s27.111 7.467 34.133 19.733l54.49 94.045h104c19.288 0 35.021 15.644 35.021 35.022 0 6.133-1.6 12.178-4.71 17.511zm-53.51-92.444 24.71 42.755 24.711-42.755h-49.51zm-86.312-49.778L256 60.088l-31.111 53.69zm-148.533 49.778H89.067l24.71 42.755 24.712-42.755zm-24.711 142.133-24.711 42.755h49.51l-24.71-42.755zm111.022 92.533L256 451.912l31.111-53.69z"/></svg>