<svg xmlns="http://www.w3.org/2000/svg" viewBox="0 0 512 512"><!--! Font Awesome Free 7.0.1 by @fontawesome - https://fontawesome.com License - https://fontawesome.com/license/free (Icons: CC BY 4.0, Fonts: SIL OFL 1.1, Code: MIT License) Copyright 2025 Fonticons, Inc.--><path fill="currentColor" d="M80.855 67.337c-29.73 0-53.903 24.173-53.903 53.904v26.952C12.044 148.193 0 160.237 0 175.145V256c0 14.908 12.044 26.952 26.952 26.952v40.428c0 17.77 11.539 32.931 27.457 38.322a77 77 0 0 0-.505 8.843c0 40.933 33.184 74.118 74.117 74.118s74.118-33.185 74.118-74.118c0-2.274-.085-4.548-.337-6.738h121.872c-.168 2.19-.337 4.464-.337 6.738 0 40.933 33.185 74.118 74.118 74.118s74.117-33.185 74.117-74.118c0-2.274-.084-4.548-.337-6.738h.337c22.32 0 40.428-18.108 40.428-40.427v-53.904c0-22.32-18.108-40.428-40.428-40.428H450.77l-1.432-3.537-36.89-89.53c-10.36-25.268-35.038-41.692-62.326-41.692h-34.027a53.56 53.56 0 0 0-46.576-26.952zm242.567 161.711v-80.855h26.867c5.475 0 10.36 3.285 12.465 8.338l29.816 72.517zm-195.4 107.807c18.613 0 33.689 15.077 33.689 33.69 0 18.614-15.076 33.69-33.69 33.69s-33.69-15.076-33.69-33.69 15.076-33.69 33.69-33.69m235.827 33.69c0-18.613 15.076-33.69 33.69-33.69s33.69 15.077 33.69 33.69c0 18.614-15.076 33.69-33.69 33.69s-33.69-15.076-33.69-33.69M216.12 152.32l23.078 34.532v-25.183c0-9.265 7.58-16.845 16.845-16.845s16.845 7.58 16.845 16.845v80.855c0 7.412-4.885 13.981-11.96 16.087s-14.74-.59-18.866-6.738l-23.078-34.532v25.183c0 9.265-7.58 16.845-16.844 16.845s-16.845-7.58-16.845-16.845V161.67c0-7.412 4.885-13.982 11.96-16.087 7.074-2.106 14.739.59 18.866 6.738m-104.943 9.349v53.903c0 5.56 4.548 10.107 10.107 10.107s10.107-4.548 10.107-10.107V161.67c0-9.265 7.58-16.845 16.845-16.845s16.845 7.58 16.845 16.845v53.903c0 24.173-19.624 43.797-43.797 43.797s-43.797-19.624-43.797-43.797V161.67c0-9.265 7.58-16.845 16.845-16.845s16.845 7.58 16.845 16.845"/></svg>