<svg xmlns="http://www.w3.org/2000/svg" viewBox="0 0 512 512"><!--! Font Awesome Free 7.0.1 by @fontawesome - https://fontawesome.com License - https://fontawesome.com/license/free (Icons: CC BY 4.0, Fonts: SIL OFL 1.1, Code: MIT License) Copyright 2025 Fonticons, Inc.--><path fill="currentColor" d="M358.4 102.4c84.8 0 153.6 68.8 153.6 153.6s-68.8 153.6-153.6 153.6H153.6C68.8 409.6 0 340.8 0 256s68.8-153.6 153.6-153.6zM153.6 192c-10.64 0-19.2 8.56-19.2 19.2v25.6h-25.6c-10.64 0-19.2 8.56-19.2 19.2s8.56 19.2 19.2 19.2h25.6v25.6c0 10.64 8.56 19.2 19.2 19.2s19.2-8.56 19.2-19.2v-25.6h25.6c10.64 0 19.2-8.56 19.2-19.2s-8.56-19.2-19.2-19.2h-25.6v-25.6c0-10.64-8.56-19.2-19.2-19.2m192 76.8c-14.16 0-25.6 11.44-25.6 25.6s11.44 25.6 25.6 25.6 25.6-11.44 25.6-25.6-11.44-25.6-25.6-25.6m51.2-76.8c-14.16 0-25.6 11.44-25.6 25.6s11.44 25.6 25.6 25.6 25.6-11.44 25.6-25.6-11.44-25.6-25.6-25.6"/></svg>