<svg xmlns="http://www.w3.org/2000/svg" viewBox="0 0 512 512"><!--! Font Awesome Free 7.0.1 by @fontawesome - https://fontawesome.com License - https://fontawesome.com/license/free (Icons: CC BY 4.0, Fonts: SIL OFL 1.1, Code: MIT License) Copyright 2025 Fonticons, Inc.--><path fill="currentColor" d="M16.637 57.151c1.6-3.6 5.04-5.919 8.959-5.919 3.92 0 7.359 2.32 8.959 5.92l14.477 33.834c1.44 3.28 2.16 6.879 2.16 10.478v.96c0 14.158-11.438 25.596-25.596 25.596S0 116.582 0 102.424v-.96c0-3.6.72-7.119 2.16-10.478zm76.788 0c1.6-3.6 5.04-5.919 8.959-5.919 3.92 0 7.359 2.32 8.959 5.92L125.9 91.065c1.44 3.28 2.16 6.879 2.16 10.478v.96c0 14.158-11.438 25.596-25.596 25.596s-25.676-11.518-25.676-25.676v-.96c0-3.6.72-7.119 2.16-10.478zm62.23 33.915 14.558-33.915c1.6-3.6 5.04-5.919 8.959-5.919 3.92 0 7.359 2.32 8.959 5.92l14.557 33.914c1.44 3.28 2.16 6.879 2.16 10.478v.96c0 14.158-11.438 25.596-25.596 25.596s-25.596-11.438-25.596-25.596v-.96c0-3.6.72-7.119 2.16-10.478zm91.346-33.915c1.6-3.6 5.04-5.919 8.959-5.919 3.92 0 7.359 2.32 8.959 5.92l14.557 33.914c1.44 3.28 2.16 6.879 2.16 10.478v.96c0 14.158-11.438 25.596-25.596 25.596s-25.596-11.438-25.596-25.596v-.96c0-3.6.72-7.119 2.16-10.478zm62.23 33.915L323.79 57.15c1.6-3.6 5.04-5.919 8.959-5.919 3.92 0 7.359 2.32 8.959 5.92l14.557 33.914c1.44 3.28 2.16 6.879 2.16 10.478v.96c0 14.158-11.438 25.596-25.596 25.596s-25.596-11.438-25.596-25.596v-.96c0-3.6.72-7.119 2.16-10.478zm91.346-33.915c1.6-3.6 5.04-5.919 8.959-5.919 3.92 0 7.359 2.32 8.959 5.92l14.557 33.914c1.44 3.28 2.16 6.879 2.16 10.478v.96c0 14.158-11.438 25.596-25.596 25.596s-25.596-11.438-25.596-25.596v-.96c0-3.6.72-7.119 2.16-10.478zm62.23 33.915 14.558-33.915c1.6-3.6 5.04-5.919 8.959-5.919 3.92 0 7.359 2.32 8.959 5.92l14.557 33.914c1.44 3.28 2.16 6.879 2.16 10.478v.96c0 14.158-11.438 25.596-25.596 25.596s-25.596-11.438-25.596-25.596v-.96c0-3.6.72-7.119 2.16-10.478zm-437.211 62.55c14.158 0 25.596 11.438 25.596 25.596v102.384c0 14.158 11.438 25.596 25.596 25.596h153.576v-127.98c0-14.158 11.438-25.596 25.596-25.596s25.596 11.438 25.596 25.596v127.98h153.576c14.158 0 25.596-11.438 25.596-25.596V179.212c0-14.158 11.438-25.596 25.596-25.596s25.596 11.438 25.596 25.596v102.384c0 42.393-34.395 76.788-76.788 76.788H281.556v51.192H383.94c14.158 0 25.596 11.438 25.596 25.596s-11.438 25.596-25.596 25.596H127.98c-14.158 0-25.596-11.438-25.596-25.596s11.438-25.596 25.596-25.596h102.384v-51.192H76.788C34.395 358.384 0 323.989 0 281.596V179.212c0-14.158 11.438-25.596 25.596-25.596m76.788 0c14.158 0 25.596 11.438 25.596 25.596v102.384H76.788V179.212c0-14.158 11.438-25.596 25.596-25.596m76.788 0c14.158 0 25.596 11.438 25.596 25.596v102.384h-51.192V179.212c0-14.158 11.438-25.596 25.596-25.596m153.576 0c14.158 0 25.596 11.438 25.596 25.596v102.384h-51.192V179.212c0-14.158 11.438-25.596 25.596-25.596m76.788 0c14.158 0 25.596 11.438 25.596 25.596v102.384H383.94V179.212c0-14.158 11.438-25.596 25.596-25.596"/></svg>