<svg xmlns="http://www.w3.org/2000/svg" viewBox="0 0 512 512"><!--! Font Awesome Free 7.0.1 by @fontawesome - https://fontawesome.com License - https://fontawesome.com/license/free (Icons: CC BY 4.0, Fonts: SIL OFL 1.1, Code: MIT License) Copyright 2025 Fonticons, Inc.--><path fill="currentColor" d="M256 512C142.933 512 51.2 403.2 51.2 290.133 51.2 170.667 119.467 0 256 0s204.8 170.667 204.8 290.133C460.8 403.2 369.067 512 256 512m-39.68-386.133c6.933-6.4 7.467-17.174 1.067-24.107s-17.174-7.467-24.107-1.067c-25.493 23.254-43.84 56.214-55.787 89.814-11.946 33.706-18.026 69.44-18.026 99.733 0 9.387 7.68 17.067 17.066 17.067 9.387 0 17.067-7.68 17.067-17.067 0-26.133 5.333-58.027 16.107-88.32 10.773-30.4 26.666-57.707 46.613-75.947z"/></svg>