<svg xmlns="http://www.w3.org/2000/svg" viewBox="0 0 512 512"><!--! Font Awesome Free 7.0.1 by @fontawesome - https://fontawesome.com License - https://fontawesome.com/license/free (Icons: CC BY 4.0, Fonts: SIL OFL 1.1, Code: MIT License) Copyright 2025 Fonticons, Inc.--><path fill="currentColor" d="m286.044 77.556-20.977-42.49c-3.467-7.377-14.311-7.644-18.134 0l-20.977 42.49-46.49 6.666c-8.266 1.245-11.822 11.467-5.688 17.6l33.778 32.89-8 46.31c-1.245 8.267 7.288 14.667 14.933 10.845l41.689-22.045 41.422 21.69c7.644 3.821 16.267-2.579 14.933-10.845l-8-46.311 33.778-32.534c6.045-6.044 2.578-16.266-5.689-17.6l-46.489-6.666zm-58.488 179.466c-23.556 0-42.667 19.111-42.667 42.667V441.91c0 23.556 19.111 42.667 42.667 42.667h56.888c23.556 0 42.667-19.111 42.667-42.667V299.69c0-23.556-19.111-42.667-42.667-42.667zm-184.89 56.89C19.112 313.911 0 333.021 0 356.577v85.333c0 23.556 19.111 42.667 42.667 42.667h56.889c23.555 0 42.666-19.111 42.666-42.667v-85.333c0-23.556-19.11-42.667-42.666-42.667zm327.112 99.555v28.444c0 23.556 19.11 42.667 42.666 42.667h56.89c23.555 0 42.666-19.111 42.666-42.667v-28.444c0-23.556-19.111-42.667-42.667-42.667h-56.889c-23.555 0-42.666 19.111-42.666 42.667"/></svg>