<svg xmlns="http://www.w3.org/2000/svg" viewBox="0 0 512 512"><!--! Font Awesome Free 7.0.1 by @fontawesome - https://fontawesome.com License - https://fontawesome.com/license/free (Icons: CC BY 4.0, Fonts: SIL OFL 1.1, Code: MIT License) Copyright 2025 Fonticons, Inc.--><path fill="currentColor" d="M379.013 43.22c14.712 0 26.597 11.886 26.597 26.598h79.793c14.711 0 26.597 11.886 26.597 26.598v79.792c0 14.711-11.886 26.597-26.597 26.597H405.61v239.377c0 14.712-11.885 26.597-26.597 26.597s-26.597-11.885-26.597-26.597V69.818c0-14.712 11.885-26.597 26.597-26.597M222.338 92.344l83.532 80.54V468.78H93.09c-29.34 0-53.194-23.854-53.194-53.195V295.896h-16.54C10.473 295.896 0 285.423 0 272.54a23.33 23.33 0 0 1 7.148-16.79L176.623 92.344c6.151-5.901 14.296-9.226 22.858-9.226 8.56 0 16.706 3.325 22.857 9.226M179.532 256a19.9 19.9 0 0 0-19.948 19.948v39.896a19.9 19.9 0 0 0 19.948 19.948h39.897a19.9 19.9 0 0 0 19.948-19.948v-39.896A19.9 19.9 0 0 0 219.429 256z"/></svg>