<svg xmlns="http://www.w3.org/2000/svg" viewBox="0 0 512 512"><!--! Font Awesome Free 7.0.1 by @fontawesome - https://fontawesome.com License - https://fontawesome.com/license/free (Icons: CC BY 4.0, Fonts: SIL OFL 1.1, Code: MIT License) Copyright 2025 Fonticons, Inc.--><path fill="currentColor" d="M409.64 128.298c20.571 15.503 45.714 30.51 73.739 34.286 13.019 1.789 25.043-7.454 26.832-20.472s-7.453-25.044-20.472-26.832c-15.801-2.087-32.994-11.23-51.379-25.044-38.161-28.82-89.938-28.82-128.199 0-23.85 17.988-40.447 26.137-54.161 26.137s-30.31-8.15-54.161-26.137c-38.162-28.82-89.938-28.82-128.2 0-18.384 13.814-35.577 22.957-51.378 25.044C9.242 117.068 0 128.994 1.789 142.112s13.714 22.26 26.832 20.472c28.025-3.777 53.267-18.783 73.74-34.286 21.167-16 49.59-16 70.757 0 24.05 18.186 51.975 35.677 82.882 35.677s58.733-17.59 82.882-35.677c21.168-16 49.59-16 70.758 0m0 143.106c20.571 15.503 45.714 30.509 73.739 34.285 13.019 1.79 25.043-7.453 26.832-20.472 1.789-13.018-7.453-25.043-20.472-26.832-15.801-2.087-32.994-11.23-51.379-25.043-38.161-28.82-89.938-28.82-128.199 0-23.85 17.987-40.447 26.136-54.161 26.136s-30.31-8.149-54.161-26.136c-38.162-28.82-89.938-28.82-128.2 0-18.384 13.813-35.577 22.956-51.378 25.043C9.242 260.075 0 272.1 1.789 285.217s13.714 22.261 26.832 20.472c28.025-3.776 53.267-18.782 73.74-34.285 21.167-16 49.59-16 70.757 0 24.05 18.186 51.975 35.677 82.882 35.677s58.733-17.59 82.882-35.677c21.168-16 49.59-16 70.758 0m-70.758 143.105c21.168-16 49.59-16 70.758 0 20.571 15.503 45.714 30.51 73.739 34.286 13.019 1.789 25.043-7.453 26.832-20.472s-7.453-25.043-20.472-26.832c-15.801-2.087-32.994-11.23-51.379-25.044-38.161-28.82-89.938-28.82-128.199 0-23.85 17.988-40.447 26.137-54.161 26.137s-30.31-8.15-54.161-26.137c-38.162-28.82-89.938-28.82-128.2 0-18.384 13.814-35.577 22.957-51.378 25.044C9.242 403.28 0 415.205 1.789 428.323s13.714 22.26 26.832 20.472c28.025-3.776 53.267-18.783 73.74-34.286 21.167-16 49.59-16 70.757 0 24.05 18.187 51.975 35.677 82.882 35.677s58.733-17.59 82.882-35.677"/></svg>