<svg xmlns="http://www.w3.org/2000/svg" viewBox="0 0 512 512"><!--! Font Awesome Free 7.0.1 by @fontawesome - https://fontawesome.com License - https://fontawesome.com/license/free (Icons: CC BY 4.0, Fonts: SIL OFL 1.1, Code: MIT License) Copyright 2025 Fonticons, Inc.--><path fill="currentColor" d="M312.889 263.111V85.333c0-15.733-12.711-28.444-28.445-28.444h-56.888c-15.734 0-28.445 12.711-28.445 28.444v177.778a21.28 21.28 0 0 1-21.333 21.333 21.28 21.28 0 0 1-21.334-21.333V97.867c-76.444 28.177-128 101.066-128 186.577v56.89h455.112v-56.89c-.89-84.622-51.912-157.955-128-186.488V263.11a21.28 21.28 0 0 1-21.334 21.333 21.28 21.28 0 0 1-21.333-21.333M35.556 384C15.91 384 0 399.911 0 419.556s15.911 35.555 35.556 35.555h440.888c19.645 0 35.556-15.911 35.556-35.555C512 399.91 496.089 384 476.444 384z"/></svg>