<svg xmlns="http://www.w3.org/2000/svg" viewBox="0 0 512 512"><!--! Font Awesome Free 7.0.1 by @fontawesome - https://fontawesome.com License - https://fontawesome.com/license/free (Icons: CC BY 4.0, Fonts: SIL OFL 1.1, Code: MIT License) Copyright 2025 Fonticons, Inc.--><path fill="currentColor" d="M12.425 119.477C0 107.052 0 86.874 12.425 74.449s32.602-12.425 45.027 0L216.49 233.486c12.425 12.425 12.425 32.603 0 45.028L57.452 437.55c-12.425 12.425-32.602 12.425-45.027 0s-12.425-32.603 0-45.028L148.898 256.05zm213.308 263.802h254.46c17.593 0 31.807 14.214 31.807 31.808 0 17.593-14.214 31.807-31.807 31.807h-254.46c-17.593 0-31.807-14.214-31.807-31.807 0-17.594 14.214-31.808 31.807-31.808"/></svg>