<svg xmlns="http://www.w3.org/2000/svg" viewBox="0 0 512 512"><!--! Font Awesome Free 7.0.1 by @fontawesome - https://fontawesome.com License - https://fontawesome.com/license/free (Icons: CC BY 4.0, Fonts: SIL OFL 1.1, Code: MIT License) Copyright 2025 Fonticons, Inc.--><path fill="currentColor" d="M76.108 141.838c0-57.34 46.443-103.784 103.784-103.784 57.34 0 103.784 46.443 103.784 103.784 0 57.34-46.444 103.784-103.784 103.784S76.108 199.178 76.108 141.838M0 448.259c0-85.189 69.016-154.205 154.205-154.205h51.373c85.19 0 154.206 69.016 154.206 154.205 0 14.184-11.503 25.687-25.687 25.687H25.687C11.502 473.946 0 462.443 0 448.259m366.703-271.827h124.54A20.707 20.707 0 0 1 512 197.19a20.707 20.707 0 0 1-20.757 20.757h-124.54a20.707 20.707 0 0 1-20.757-20.757 20.707 20.707 0 0 1 20.757-20.757"/></svg>