<svg xmlns="http://www.w3.org/2000/svg" viewBox="0 0 512 512"><!--! Font Awesome Free 7.0.1 by @fontawesome - https://fontawesome.com License - https://fontawesome.com/license/free (Icons: CC BY 4.0, Fonts: SIL OFL 1.1, Code: MIT License) Copyright 2025 Fonticons, Inc.--><path fill="currentColor" d="M182.857 36.571C182.857 16.343 199.2 0 219.43 0h219.428c20.229 0 36.572 16.343 36.572 36.571 0 20.229-16.343 36.572-36.572 36.572h-67.086L219.43 438.857h73.142c20.229 0 36.572 16.343 36.572 36.572 0 20.228-16.343 36.571-36.572 36.571H73.143c-20.229 0-36.572-16.343-36.572-36.571 0-20.229 16.343-36.572 36.572-36.572h67.086L292.57 73.143H219.43c-20.229 0-36.572-16.343-36.572-36.572"/></svg>