<svg xmlns="http://www.w3.org/2000/svg" viewBox="0 0 512 512"><!--! Font Awesome Free 7.0.1 by @fontawesome - https://fontawesome.com License - https://fontawesome.com/license/free (Icons: CC BY 4.0, Fonts: SIL OFL 1.1, Code: MIT License) Copyright 2025 Fonticons, Inc.--><path fill="currentColor" d="M318.608 60.152c11.354-15.611 7.86-37.445-7.75-48.798-15.612-11.354-37.446-7.86-48.8 7.75L146.34 178.163l-40.938-40.938c-13.646-13.646-35.807-13.646-49.453 0s-13.646 35.807 0 49.453l69.868 69.868a35.1 35.1 0 0 0 27.4 10.153c10.154-.765 19.542-6.005 25.546-14.302L318.5 60.261zM458.344 208.62c11.353-15.611 7.86-37.445-7.751-48.798s-37.445-7.86-48.799 7.75L216.208 422.7l-75.872-75.872c-13.646-13.646-35.807-13.646-49.453 0s-13.646 35.807 0 49.453l104.801 104.802a35.1 35.1 0 0 0 27.402 10.153c10.152-.764 19.54-6.004 25.545-14.301L458.235 208.73z"/></svg>