<svg xmlns="http://www.w3.org/2000/svg" viewBox="0 0 512 512"><!--! Font Awesome Free 7.0.1 by @fontawesome - https://fontawesome.com License - https://fontawesome.com/license/free (Icons: CC BY 4.0, Fonts: SIL OFL 1.1, Code: MIT License) Copyright 2025 Fonticons, Inc.--><path fill="currentColor" d="M390.682 150.588c.565-4.988.847-9.976.847-15.059C391.53 60.706 330.824 0 256 0S120.47 60.706 120.47 135.53c0 5.082.283 10.07.848 15.058h-.847c-24.942 0-45.177 20.236-45.177 45.177s20.235 45.176 45.177 45.176h271.058c24.942 0 45.177-20.235 45.177-45.176s-20.235-45.177-45.177-45.177zM135.53 286.118l99.012 212.235C238.4 506.635 246.776 512 256 512s17.506-5.365 21.459-13.647l99.012-212.235z"/></svg>