<svg xmlns="http://www.w3.org/2000/svg" viewBox="0 0 512 512"><!--! Font Awesome Free 7.0.1 by @fontawesome - https://fontawesome.com License - https://fontawesome.com/license/free (Icons: CC BY 4.0, Fonts: SIL OFL 1.1, Code: MIT License) Copyright 2025 Fonticons, Inc.--><path fill="currentColor" d="M279.056 56.745C263.85 24.05 230.758 1.391 192.398 1.391c-52.671 0-95.404 42.733-95.404 95.404-35.081 0-63.603 28.522-63.603 63.603 0 35.08 28.522 63.602 63.603 63.602h318.012c35.081 0 63.603-28.522 63.603-63.602 0-35.081-28.522-63.603-63.603-63.603h-1.59c-7.354-36.273-39.453-63.602-77.913-63.602-22.062 0-42.037 9.043-56.447 23.552m130.584 417.79c20.571 15.502 45.714 30.508 73.739 34.285 13.019 1.789 25.043-7.454 26.832-20.472s-7.453-25.044-20.472-26.832c-15.801-2.087-32.994-11.23-51.379-25.044-38.161-28.82-89.938-28.82-128.199 0-23.85 17.988-40.447 26.137-54.161 26.137s-30.31-8.15-54.161-26.137c-38.162-28.82-89.938-28.82-128.2 0-18.384 13.814-35.577 22.957-51.378 25.044C9.242 463.304 0 475.23 1.789 488.348s13.714 22.26 26.832 20.472c28.025-3.777 53.267-18.783 73.74-34.286 21.167-16 49.59-16 70.757 0 24.05 18.186 51.975 35.677 82.882 35.677s58.733-17.59 82.882-35.677c21.168-16 49.59-16 70.758 0m-308.572-171.43c4.174-12.521-2.584-26.037-15.105-30.21C73.44 268.72 59.925 275.477 55.752 288l-21.168 63.602c-4.174 12.522 2.584 26.038 15.105 30.212s26.038-2.584 30.212-15.106zm119.255 0c4.174-12.521-2.584-26.037-15.106-30.21-12.521-4.175-26.037 2.583-30.21 15.105l-21.168 63.602c-4.174 12.522 2.583 26.038 15.105 30.212s26.037-2.584 30.211-15.106zm111.304 0c4.174-12.521-2.584-26.037-15.105-30.21C304 268.72 290.484 275.477 286.31 288l-21.168 63.602c-4.174 12.522 2.584 26.038 15.105 30.212s26.038-2.584 30.212-15.106zm119.255 0c4.174-12.521-2.584-26.037-15.106-30.21-12.521-4.175-26.037 2.583-30.21 15.105l-21.168 63.602c-4.174 12.522 2.583 26.038 15.105 30.212s26.037-2.584 30.211-15.106z"/></svg>