<svg xmlns="http://www.w3.org/2000/svg" viewBox="0 0 512 512"><!--! Font Awesome Free 7.0.1 by @fontawesome - https://fontawesome.com License - https://fontawesome.com/license/free (Icons: CC BY 4.0, Fonts: SIL OFL 1.1, Code: MIT License) Copyright 2025 Fonticons, Inc.--><path fill="currentColor" d="M263.758 69.818c102.787 0 186.181 83.394 186.181 186.182s-83.394 186.182-186.181 186.182c-63.225 0-119.176-31.515-152.825-79.806-9.794-14.06-29.188-17.455-43.248-7.66-14.06 9.793-17.455 29.187-7.66 43.248 44.8 64.194 119.369 106.278 203.733 106.278C400.873 504.242 512 393.115 512 256S400.873 7.758 263.758 7.758c-83.103 0-156.606 40.824-201.697 103.466v-25.89c0-17.164-13.867-31.031-31.03-31.031C13.866 54.303 0 68.17 0 85.333V193.94c0 17.164 13.867 31.03 31.03 31.03h108.703c17.164 0 31.03-13.866 31.03-31.03 0-17.163-13.866-31.03-31.03-31.03h-37.14c32.098-55.66 92.316-93.09 161.165-93.09m23.272 85.334a23.217 23.217 0 0 0-23.272-23.273 23.217 23.217 0 0 0-23.273 23.273V256c0 6.206 2.424 12.121 6.788 16.485l69.818 69.818c9.115 9.115 23.854 9.115 32.873 0s9.115-23.855 0-32.873l-63.03-63.03v-91.248z"/></svg>