<svg xmlns="http://www.w3.org/2000/svg" viewBox="0 0 512 512"><!--! Font Awesome Free 7.0.1 by @fontawesome - https://fontawesome.com License - https://fontawesome.com/license/free (Icons: CC BY 4.0, Fonts: SIL OFL 1.1, Code: MIT License) Copyright 2025 Fonticons, Inc.--><path fill="currentColor" d="M121.76 192c-12.32 30.64-19.36 61.76-19.36 87.04 0 10.64 1.2 20.96 3.52 30.96l-13.6-2.72c-23.92-4.8-41.12-25.76-41.12-50.24V192zm26.32-51.2H51.2C22.96 140.8 0 163.76 0 192v65.04c0 48.8 34.48 90.8 82.32 100.4l53.04 10.64c14.96 17.68 34.32 32 56.64 41.44v-70.24c-8.08-11.36-12.8-25.04-12.8-39.76 0-39.6 34.4-107.52 76.8-107.52 42 0 76.8 67.92 76.8 107.52 0 14.72-4.72 28.32-12.8 39.68v70.16c22.08-9.44 41.36-23.68 56.32-41.28l53.36-10.64c47.84-9.6 82.32-51.6 82.32-100.4V192c0-28.24-22.96-51.2-51.2-51.2h-97.2C335.76 97.44 297.6 64 256 64c-42.08 0-80.16 33.44-107.92 76.8m242 51.2h70.72v65.04c0 24.4-17.2 45.44-41.12 50.24l-13.6 2.72c2.32-9.92 3.6-20.32 3.6-30.96 0-25.28-7.12-56.4-19.52-87.04zM230.4 294.4V448h51.2V294.4c0-14.16-11.44-25.6-25.6-25.6s-25.6 11.44-25.6 25.6"/></svg>