<svg xmlns="http://www.w3.org/2000/svg" viewBox="0 0 512 512"><!--! Font Awesome Free 7.0.1 by @fontawesome - https://fontawesome.com License - https://fontawesome.com/license/free (Icons: CC BY 4.0, Fonts: SIL OFL 1.1, Code: MIT License) Copyright 2025 Fonticons, Inc.--><path fill="currentColor" d="M30.617 43.625c-11.415 0-21.768 6.902-26.193 17.521C0 71.765 2.478 83.888 10.62 91.941L172.2 253.61v101.497c0 7.522 3.01 14.69 8.318 19.999l56.634 56.633a28.2 28.2 0 0 0 7.344 5.31c-18.76-27.344-29.732-60.439-29.732-96.1 0-87.959 66.81-160.255 152.467-169.015l79.995-79.994c8.14-8.141 10.53-20.265 6.105-30.883-4.424-10.619-14.866-17.433-26.28-17.433zm353.958 424.75c70.35 0 127.425-57.076 127.425-127.425 0-70.35-57.076-127.425-127.425-127.425S257.15 270.601 257.15 340.95s57.076 127.425 127.425 127.425m52.474-159.9-32.475 32.475 32.475 32.476c5.487 5.486 5.487 14.512 0 19.998-5.486 5.486-14.512 5.486-19.998 0l-32.476-32.476-32.475 32.476c-5.487 5.486-14.513 5.486-20 0-5.485-5.486-5.485-14.512 0-19.998l32.477-32.476-32.476-32.476c-5.486-5.486-5.486-14.512 0-19.998s14.512-5.487 19.999 0l32.475 32.475 32.476-32.475c5.486-5.487 14.512-5.487 19.998 0 5.487 5.486 5.487 14.512 0 19.998"/></svg>