<svg xmlns="http://www.w3.org/2000/svg" viewBox="0 0 512 512"><!--! Font Awesome Free 7.0.1 by @fontawesome - https://fontawesome.com License - https://fontawesome.com/license/free (Icons: CC BY 4.0, Fonts: SIL OFL 1.1, Code: MIT License) Copyright 2025 Fonticons, Inc.--><path fill="currentColor" d="M72.15 13.416c-8.548.994-14.908 8.15-14.908 16.696 0 9.242 7.454 16.695 16.597 16.795h110.708c8.745-.1 15.8-7.155 15.8-15.9V16.893c0-9.44-8.248-16.894-17.689-15.8zM189.912 78.61H67.776c-1.59 5.664-2.484 11.627-2.484 17.789 0 35.08 28.522 63.602 63.602 63.602 35.081 0 63.603-28.522 63.603-63.602 0-6.162-.895-12.125-2.485-17.79zM33.391 255.404v31.801c0 17.59 14.211 31.801 31.802 31.801h127.205c1.788 0 3.478-.1 5.167-.397L54.261 208.299c-12.82 11.626-20.87 28.421-20.87 47.105M222.41 297.64c1.093-3.28 1.789-6.758 1.789-10.435v-31.801c0-35.081-28.522-63.603-63.603-63.603H96.994c-3.677 0-7.354.298-10.833.895zM383.205 160c35.08 0 63.602-28.522 63.602-63.602 0-35.081-28.521-63.603-63.602-63.603s-63.603 28.522-63.603 63.603c0 35.08 28.522 63.602 63.603 63.602m-31.801 31.801c-35.081 0-63.603 28.522-63.603 63.603v31.801c0 17.59 14.211 31.801 31.801 31.801h127.205c17.59 0 31.802-14.211 31.802-31.801v-31.801c0-35.081-28.522-63.603-63.603-63.603zM216.05 448.298c5.167-4.571 8.149-11.03 8.149-17.987s-2.982-13.417-8.15-17.988l-63.602-55.652c-7.056-6.162-16.994-7.652-25.54-3.777-8.547 3.876-14.013 12.423-14.013 21.764v31.802H25.441a23.794 23.794 0 0 0-23.85 23.85 23.794 23.794 0 0 0 23.85 23.851h87.453v31.802c0 9.341 5.466 17.888 14.013 21.764 8.546 3.875 18.484 2.385 25.54-3.777zm71.751-18.087c0 6.857 2.982 13.416 8.05 17.988l63.602 56.05c7.056 6.16 16.994 7.751 25.54 3.875 8.547-3.876 14.113-12.422 14.113-21.764v-32.199h87.453a23.794 23.794 0 0 0 23.85-23.85 23.794 23.794 0 0 0-23.85-23.851h-87.453v-31.802c0-9.341-5.466-17.888-14.013-21.764-8.546-3.875-18.484-2.385-25.54 3.777l-63.603 55.652c-5.167 4.472-8.149 11.031-8.149 17.888"/></svg>