<svg xmlns="http://www.w3.org/2000/svg" viewBox="0 0 512 512"><!--! Font Awesome Free 7.0.1 by @fontawesome - https://fontawesome.com License - https://fontawesome.com/license/free (Icons: CC BY 4.0, Fonts: SIL OFL 1.1, Code: MIT License) Copyright 2025 Fonticons, Inc.--><path fill="currentColor" d="m111.41 53.937-21.557 107.79H20.21C9.01 161.726 0 152.715 0 141.515v-3.453c0-2.19.337-4.295 1.01-6.4l21.306-63.916c2.779-8.252 10.526-13.81 19.2-13.81zm19.706 107.79 21.558-107.79h69.642v107.79zm131.62-107.79h69.643l13.474 67.368c-12.38.169-24.674 4.632-34.442 13.39-9.685 8.673-18.948 17.684-27.622 27.031h-20.968V53.936zM53.896 202.147h196.379a365 365 0 0 0-14.906 22.148c-18.02 29.22-33.263 64.084-33.263 97.516 0 14.4 1.769 28.463 5.053 42.02h-101.39l1.6 8.674c2.695 14.653-7.073 28.632-21.726 31.327-14.653 2.694-28.631-7.074-31.326-21.727-21.474-118.231-32.421-178.19-32.674-179.958zm431.158-60.631c0 9.263-6.232 17.095-14.737 19.452-.758-.673-1.432-1.347-2.19-2.02-18.358-16.843-45.726-18.359-65.684-4.632a323 323 0 0 0-10.863-10.61l-17.937-89.77h69.895c8.674 0 16.42 5.559 19.2 13.811l21.305 63.916c.674 2.021 1.01 4.21 1.01 6.4zM398.905 202.4l10.358-11.621c4.548-5.137 11.2-7.41 17.6-7.495 6.063 0 12.042 2.19 16.758 6.569 16.59 15.41 33.516 36.379 46.316 59.452C502.653 272.211 512 298.232 512 323.495c0 74.694-60.042 134.568-134.737 134.568-75.452 0-134.737-60.042-134.737-134.568 0-31.41 13.474-61.81 30.99-88 17.6-26.358 40-49.684 59.705-67.537 4.8-4.38 11.032-6.484 17.095-6.316s11.284 2.695 15.831 6.316c12.127 9.6 32.758 34.274 32.758 34.274zM431.158 364c0-30.737-31.158-61.474-46.147-74.442-4.548-3.958-11.032-3.958-15.58 0-14.905 12.968-46.147 43.705-46.147 74.442 0 29.726 24.169 53.895 53.895 53.895s53.895-24.169 53.895-53.895z"/></svg>