<svg xmlns="http://www.w3.org/2000/svg" viewBox="0 0 512 512"><!--! Font Awesome Free 7.0.1 by @fontawesome - https://fontawesome.com License - https://fontawesome.com/license/free (Icons: CC BY 4.0, Fonts: SIL OFL 1.1, Code: MIT License) Copyright 2025 Fonticons, Inc.--><path fill="currentColor" d="m499.605 151.901-94.815 94.815c-12.346 12.346-32.395 12.346-44.74 0-12.346-12.346-12.346-32.395 0-44.74l40.888-40.79H34.815c-17.482 0-31.605-14.124-31.605-31.606s14.123-31.605 31.605-31.605h366.123L360.05 57.086c-12.345-12.345-12.345-32.395 0-44.74C372.395 0 392.444 0 404.79 12.346l94.815 94.814c12.346 12.346 12.346 32.396 0 44.741M107.21 499.556 12.395 404.74C.05 392.395.05 372.346 12.395 360l94.815-94.815c12.346-12.345 32.395-12.345 44.74 0 12.346 12.346 12.346 32.395 0 44.74l-40.79 40.89h366.124c17.481 0 31.605 14.123 31.605 31.605s-14.124 31.605-31.605 31.605H111.16l40.89 40.889c12.345 12.345 12.345 32.395 0 44.74-12.346 12.346-32.396 12.346-44.741 0z"/></svg>