<svg xmlns="http://www.w3.org/2000/svg" viewBox="0 0 512 512"><!--! Font Awesome Free 7.0.1 by @fontawesome - https://fontawesome.com License - https://fontawesome.com/license/free (Icons: CC BY 4.0, Fonts: SIL OFL 1.1, Code: MIT License) Copyright 2025 Fonticons, Inc.--><path fill="currentColor" d="M265.853 76.884c3.62-5.895 10.105-9.516 17.094-9.516h87.58c11.2 0 20.21 9.01 20.21 20.21s-9.01 20.211-20.21 20.211h-55.243l60.8 124.969c9.01-2.442 18.442-3.705 28.127-3.705 59.536 0 107.789 48.252 107.789 107.79 0 59.536-48.253 107.789-107.79 107.789-59.536 0-107.789-48.253-107.789-107.79 0-35.368 17.01-66.695 43.284-86.4l-17.179-35.284-61.894 123.79c-1.937 4.041-5.306 7.41-9.6 9.43-.506.254-1.01.422-1.516.59a19.2 19.2 0 0 1-7.495 1.264l-27.284.084c-6.653 53.137-51.958 94.316-106.948 94.316C48.253 444.632 0 396.379 0 336.842s48.253-107.79 107.79-107.79c9.094 0 17.852 1.095 26.273 3.2l24-47.915-9.684-22.653h-33.853c-11.2 0-20.21-9.01-20.21-20.21s9.01-20.21 20.21-20.21h47.158c8.084 0 15.41 4.8 18.61 12.21l12.043 28.21h104.168l-31.747-65.263c-3.032-6.232-2.695-13.642 1.01-19.537zm-86.906 156.127-38.4 76.884h71.41l-32.925-76.884zm65.01 49.094 40-80h-74.273zm142.064 63.58-25.01-51.37c-10.78 10.948-17.432 25.938-17.432 42.527 0 33.516 27.116 60.632 60.632 60.632s60.631-27.116 60.631-60.632-27.116-60.631-60.631-60.631c-2.274 0-4.632.168-6.822.42L422.4 328c4.884 10.021.674 22.147-9.347 27.032-10.021 4.884-22.148.673-27.032-9.348m-273.853 4.63c-17.01 0-28.126-17.936-20.463-33.178l20.38-40.842c-1.432-.084-2.864-.169-4.296-.169-33.515 0-60.631 27.116-60.631 60.632s27.116 60.631 60.631 60.631c28.885 0 52.969-20.126 59.116-47.157h-54.737z"/></svg>