<svg xmlns="http://www.w3.org/2000/svg" viewBox="0 0 512 512"><!--! Font Awesome Free 7.0.1 by @fontawesome - https://fontawesome.com License - https://fontawesome.com/license/free (Icons: CC BY 4.0, Fonts: SIL OFL 1.1, Code: MIT License) Copyright 2025 Fonticons, Inc.--><path fill="currentColor" d="M21.333 49.778C21.333 22.31 43.644 0 71.111 0s49.778 22.311 49.778 49.778S98.578 99.556 71.11 99.556 21.333 77.244 21.333 49.778M66.756 128c20.888 0 40.444 10.044 52.533 27.022l43.289 60.622c5.333 7.467 13.955 11.912 23.11 11.912h27.645c15.734 0 28.445 12.71 28.445 28.444s-12.711 28.444-28.445 28.444H185.69c-27.556 0-53.422-13.333-69.422-35.733l-2.49-3.467v71.2l36.979 27.734c21.51 16.089 34.133 41.422 34.133 68.266v71.112c0 15.733-12.711 28.444-28.445 28.444S128 499.289 128 483.556v-71.112c0-8.977-4.178-17.422-11.378-22.755l-68.266-51.2c-21.512-16.089-34.134-41.422-34.134-68.267v-89.689c0-28.977 23.556-52.533 52.534-52.533M14.222 483.556V365.6c2.756 2.4 5.6 4.8 8.534 7.022L71.11 408.89v74.667C71.111 499.289 58.4 512 42.667 512c-15.734 0-28.445-12.711-28.445-28.444m483.556-78.223v85.334A21.28 21.28 0 0 1 476.444 512a21.28 21.28 0 0 1-21.333-21.333v-64H305.778a21.24 21.24 0 0 1-16.356-7.645c-4.089-4.889-5.778-11.2-4.71-17.422L312 244.533l-56.089-122.31v64c-4.622-.89-9.333-1.423-14.222-1.423h-28.445V78.133c0-27.466 22.312-49.777 49.778-49.777L448 28.444c27.467 0 49.778 22.312 49.778 49.778zm-256-78.222c4.889 0 9.6-.533 14.222-1.422v164.978A21.28 21.28 0 0 1 234.667 512a21.28 21.28 0 0 1-21.334-21.333V327.11z"/></svg>