<svg xmlns="http://www.w3.org/2000/svg" viewBox="0 0 512 512"><!--! Font Awesome Free 7.0.1 by @fontawesome - https://fontawesome.com License - https://fontawesome.com/license/free (Icons: CC BY 4.0, Fonts: SIL OFL 1.1, Code: MIT License) Copyright 2025 Fonticons, Inc.--><path fill="currentColor" d="M96 0C78.3 0 64 14.3 64 32s14.3 32 32 32v11c0 42.4 16.9 83.1 46.9 113.1l67.9 67.9-67.9 67.9c-30 30-46.9 70.7-46.9 113.1v11c-17.7 0-32 14.3-32 32s14.3 32 32 32h320c17.7 0 32-14.3 32-32s-14.3-32-32-32v-11c0-42.4-16.9-83.1-46.9-113.1L301.2 256l67.9-67.9c30-30 46.9-70.7 46.9-113.1V64c17.7 0 32-14.3 32-32S433.7 0 416 0zm256 437v11H160v-11c0-25.5 10.1-49.9 28.1-67.9l67.9-67.9 67.9 67.9c18 18 28.1 42.4 28.1 67.9"/></svg>