<svg xmlns="http://www.w3.org/2000/svg" viewBox="0 0 512 512"><!--! Font Awesome Free 7.0.1 by @fontawesome - https://fontawesome.com License - https://fontawesome.com/license/free (Icons: CC BY 4.0, Fonts: SIL OFL 1.1, Code: MIT License) Copyright 2025 Fonticons, Inc.--><path fill="currentColor" d="M148.223 287.562h-40.68a27.987 27.987 0 0 1-28.054-28.055 27.987 27.987 0 0 1 28.054-28.055h25.016C85.099 123.09 164.354 0 284.172 0h9.585c39.277 0 77.385 13.21 108.128 37.64l18.82 14.846c16.248 12.858 18.937 36.354 6.079 52.603-12.859 16.248-36.355 18.937-52.603 6.078l-18.82-14.846a99.3 99.3 0 0 0-61.72-21.508h-9.586c-66.981 0-110.7 70.02-81.476 130.22a204.5 204.5 0 0 1 10.637 26.42h174.758a27.987 27.987 0 0 1 28.055 28.054 27.987 27.987 0 0 1-28.055 28.055H222.92c1.169 41.264-10.17 82.527-33.783 117.947l-21.158 31.678H416.03c20.69 0 37.407 16.716 37.407 37.407S436.72 512 416.029 512H98.075c-13.794 0-26.418-7.598-32.964-19.755-6.547-12.157-5.845-26.886 1.87-38.459l59.85-89.775c15.313-22.911 22.444-49.797 21.275-76.45z"/></svg>