<svg xmlns="http://www.w3.org/2000/svg" viewBox="0 0 512 512"><!--! Font Awesome Free 7.0.1 by @fontawesome - https://fontawesome.com License - https://fontawesome.com/license/free (Icons: CC BY 4.0, Fonts: SIL OFL 1.1, Code: MIT License) Copyright 2025 Fonticons, Inc.--><path fill="currentColor" d="M234.42 12.473c12.176-11.285 30.984-11.285 43.062 0l89.392 82.859V83.155c0-17.522 14.156-31.678 31.678-31.678h31.678c17.523 0 31.679 14.156 31.679 31.678v100.48l37.42 34.747c9.503 8.91 12.671 22.67 7.92 34.747-4.752 12.077-16.434 20.096-29.501 20.096h-15.84v174.23c0 34.946-28.41 63.357-63.356 63.357H113.448c-34.945 0-63.357-28.411-63.357-63.356v-174.23H34.252c-13.067 0-24.749-8.02-29.5-20.097s-1.584-25.936 7.92-34.747zm77.017 244.913c0-30.59-24.848-55.437-55.437-55.437-30.59 0-55.437 24.848-55.437 55.437 0 30.59 24.848 55.437 55.437 55.437 30.59 0 55.437-24.848 55.437-55.437m-166.31 174.23c0 8.712 7.127 15.84 15.838 15.84h190.07c8.711 0 15.839-7.128 15.839-15.84 0-43.755-35.44-79.195-79.196-79.195h-63.356c-43.756 0-79.196 35.44-79.196 79.195"/></svg>