<svg xmlns="http://www.w3.org/2000/svg" viewBox="0 0 512 512"><!--! Font Awesome Free 7.0.1 by @fontawesome - https://fontawesome.com License - https://fontawesome.com/license/free (Icons: CC BY 4.0, Fonts: SIL OFL 1.1, Code: MIT License) Copyright 2025 Fonticons, Inc.--><path fill="currentColor" d="M358.4 0c18.88 0 34.133 15.253 34.133 34.133v34.134h34.134c37.653 0 68.266 30.613 68.266 68.266v307.2c0 37.654-30.613 68.267-68.266 68.267H85.333c-37.653 0-68.266-30.613-68.266-68.267v-307.2c0-37.653 30.613-68.266 68.266-68.266h34.134V34.133C119.467 15.253 134.72 0 153.6 0s34.133 15.253 34.133 34.133v34.134h136.534V34.133C324.267 15.253 339.52 0 358.4 0m23.467 172.48c-11.414-8.32-27.414-5.76-35.734 5.653L218.773 353.28 163.2 297.707c-10.027-10.027-26.24-10.027-36.16 0s-10.027 26.24 0 36.16l76.8 76.8a25.76 25.76 0 0 0 20.053 7.466c7.36-.533 14.294-4.373 18.667-10.453l144.96-199.467c8.32-11.413 5.76-27.413-5.653-35.733"/></svg>