<svg xmlns="http://www.w3.org/2000/svg" viewBox="0 0 512 512"><!--! Font Awesome Free 7.0.1 by @fontawesome - https://fontawesome.com License - https://fontawesome.com/license/free (Icons: CC BY 4.0, Fonts: SIL OFL 1.1, Code: MIT License) Copyright 2025 Fonticons, Inc.--><path fill="currentColor" d="M73.143 36.571C73.143 16.343 89.486 0 109.714 0h256c20.229 0 36.572 16.343 36.572 36.571 0 20.229-16.343 36.572-36.572 36.572H146.286v128h137.143c85.828 0 155.428 69.6 155.428 155.428S369.257 512 283.43 512H109.714c-20.228 0-36.571-16.343-36.571-36.571 0-20.229 16.343-36.572 36.571-36.572H283.43c45.485 0 82.285-36.8 82.285-82.286 0-45.485-36.8-82.285-82.285-82.285H109.714c-20.228 0-36.571-16.343-36.571-36.572z"/></svg>