<svg xmlns="http://www.w3.org/2000/svg" viewBox="0 0 512 512"><!--! Font Awesome Free 7.0.1 by @fontawesome - https://fontawesome.com License - https://fontawesome.com/license/free (Icons: CC BY 4.0, Fonts: SIL OFL 1.1, Code: MIT License) Copyright 2025 Fonticons, Inc.--><path fill="currentColor" d="M256 327.111c39.289 0 71.111-31.822 71.111-71.111S295.29 184.889 256 184.889 184.889 216.71 184.889 256 216.71 327.111 256 327.111m139.378-42.667C382.222 349.334 324.8 398.222 256 398.222s-126.222-48.889-139.378-113.778H28.444C12.711 284.444 0 271.734 0 256s12.711-28.444 28.444-28.444h88.178C129.778 162.666 187.2 113.778 256 113.778s126.222 48.889 139.378 113.778h88.178c15.733 0 28.444 12.71 28.444 28.444s-12.711 28.444-28.444 28.444z"/></svg>