<svg xmlns="http://www.w3.org/2000/svg" viewBox="0 0 512 512"><!--! Font Awesome Free 7.0.1 by @fontawesome - https://fontawesome.com License - https://fontawesome.com/license/free (Icons: CC BY 4.0, Fonts: SIL OFL 1.1, Code: MIT License) Copyright 2025 Fonticons, Inc.--><path fill="currentColor" d="M318.287 150.85v-46.881c0-10.113 5.01-19.565 13.421-25.142L444.09 3.97C450.044 0 458.078.756 463.182 5.86l42.91 43.005c5.105 5.104 5.86 13.044 1.891 19.093l-74.858 112.286c-5.576 8.412-15.028 13.422-25.141 13.422h-46.88l-85.728 85.727c14.178 31.474 8.412 69.848-17.486 95.746L138.704 494.325C121.03 512 92.296 512 74.527 494.325l-56.805-56.9c-17.675-17.674-17.675-46.407 0-64.176l119.092-119.092c25.897-25.898 64.177-31.758 95.746-17.486l85.727-85.727z"/></svg>