<svg xmlns="http://www.w3.org/2000/svg" viewBox="0 0 512 512"><!--! Font Awesome Free 7.0.1 by @fontawesome - https://fontawesome.com License - https://fontawesome.com/license/free (Icons: CC BY 4.0, Fonts: SIL OFL 1.1, Code: MIT License) Copyright 2025 Fonticons, Inc.--><path fill="currentColor" d="M56.889 135.111c0-55.022 44.533-99.555 99.555-99.555S256 80.089 256 135.11s-44.533 99.556-99.556 99.556S56.89 190.133 56.89 135.11M0 433.778c0-86.4 70.044-156.445 156.444-156.445S312.89 347.378 312.89 433.778v5.333c0 20.622-16.711 37.333-37.333 37.333H37.333C16.711 476.444 0 459.734 0 439.111zM384 78.222c47.111 0 85.333 38.222 85.333 85.334 0 47.11-38.222 85.333-85.333 85.333s-85.333-38.222-85.333-85.333c0-47.112 38.222-85.334 85.333-85.334m0 213.334c70.667 0 128 57.333 128 128v19.91c0 20.445-16.533 36.978-36.978 36.978h-128.71a79.8 79.8 0 0 0 9.244-37.333v-5.333c0-45.778-15.467-87.911-41.334-121.511 20.09-13.067 44.09-20.711 69.778-20.711"/></svg>