<svg xmlns="http://www.w3.org/2000/svg" viewBox="0 0 512 512"><!--! Font Awesome Free 7.0.1 by @fontawesome - https://fontawesome.com License - https://fontawesome.com/license/free (Icons: CC BY 4.0, Fonts: SIL OFL 1.1, Code: MIT License) Copyright 2025 Fonticons, Inc.--><path fill="currentColor" d="M256 263.883c-53.328 0-96.49 43.162-96.49 96.49s43.162 96.49 96.49 96.49 96.49-43.162 96.49-96.49-43.162-96.49-96.49-96.49m-151.627 96.49c0-74.35 53.5-136.206 124.145-149.129-.087-.775-.087-1.637-.087-2.498V194.96h-27.568c-15.249 0-27.569-12.32-27.569-27.568s12.32-27.569 27.569-27.569h27.568V86.927l-24.122 19.298c-11.889 9.477-29.206 7.581-38.768-4.307-9.563-11.89-7.582-29.206 4.307-38.769L238.77 8.012C248.85 0 263.15 0 273.23 8.012l68.922 55.137c11.889 9.477 13.784 26.88 4.307 38.769s-26.879 13.784-38.768 4.307L283.57 86.927v52.897h27.568c15.249 0 27.569 12.32 27.569 27.569s-12.32 27.568-27.569 27.568H283.57v13.785c0 .861 0 1.637-.087 2.498 70.645 12.923 124.145 74.78 124.145 149.129C407.627 444.113 339.74 512 256 512s-151.627-67.888-151.627-151.627"/></svg>