<svg xmlns="http://www.w3.org/2000/svg" viewBox="0 0 512 512"><!--! Font Awesome Free 7.0.1 by @fontawesome - https://fontawesome.com License - https://fontawesome.com/license/free (Icons: CC BY 4.0, Fonts: SIL OFL 1.1, Code: MIT License) Copyright 2025 Fonticons, Inc.--><path fill="currentColor" d="M500.93 14.694C490.009 2.084 471.344 0 457.94 9.829L250.739 162.525h143.96L499.242 57.882c11.716-11.716 12.51-30.58 1.589-43.188zM32.019 194.296c-17.573 0-31.77 14.197-31.77 31.77s14.197 31.77 31.77 31.77c0 81.909 43.088 146.641 123.01 174.937-11.02 13.8-19.26 30.082-23.728 47.754C126.933 497.505 141.627 512 159.2 512h190.622c17.573 0 32.168-14.495 27.898-31.473-4.467-17.672-12.708-33.855-23.728-47.754 79.922-28.395 123.01-93.028 123.01-174.936 17.574 0 31.771-14.198 31.771-31.77 0-17.574-14.197-31.771-31.77-31.771z"/></svg>