<svg xmlns="http://www.w3.org/2000/svg" viewBox="0 0 512 512"><!--! Font Awesome Free 7.0.1 by @fontawesome - https://fontawesome.com License - https://fontawesome.com/license/free (Icons: CC BY 4.0, Fonts: SIL OFL 1.1, Code: MIT License) Copyright 2025 Fonticons, Inc.--><path fill="currentColor" d="M320 28.444a21.28 21.28 0 0 1 21.333 21.334v16.889c0 35.822 14.223 70.222 39.556 95.555l18.667 18.667c17.333 17.333 27.11 40.8 27.11 65.333v16.89a21.28 21.28 0 0 1-21.333 21.332A21.28 21.28 0 0 1 384 263.111v-16.889a49.7 49.7 0 0 0-14.578-35.2l-18.666-18.666c-33.334-33.334-52.09-78.578-52.09-125.69V49.779A21.28 21.28 0 0 1 320 28.444m170.667 256a21.28 21.28 0 0 1-21.334-21.333v-16.889c0-35.822-14.222-70.222-39.555-95.555L411.11 132C393.778 114.667 384 91.2 384 66.667v-16.89a21.28 21.28 0 0 1 21.333-21.333 21.28 21.28 0 0 1 21.334 21.334v16.889a49.7 49.7 0 0 0 14.577 35.2l18.667 18.666C493.244 153.867 512 199.111 512 246.223v16.888a21.28 21.28 0 0 1-21.333 21.333M284.444 426.667h85.334v-28.445h-85.334zM0 398.222c0-31.378 25.511-56.889 56.889-56.889h341.333c15.734 0 28.445 12.711 28.445 28.445v85.333c0 15.733-12.711 28.445-28.445 28.445H56.89C25.51 483.556 0 458.044 0 426.666zm512-35.555v99.555a21.28 21.28 0 0 1-21.333 21.334 21.28 21.28 0 0 1-21.334-21.334v-99.555a21.28 21.28 0 0 1 21.334-21.334A21.28 21.28 0 0 1 512 362.667"/></svg>