<svg xmlns="http://www.w3.org/2000/svg" viewBox="0 0 512 512"><!--! Font Awesome Free 7.0.1 by @fontawesome - https://fontawesome.com License - https://fontawesome.com/license/free (Icons: CC BY 4.0, Fonts: SIL OFL 1.1, Code: MIT License) Copyright 2025 Fonticons, Inc.--><path fill="currentColor" d="M256 0c62.4 0 112.941 50.541 112.941 112.941 0 25.412-8.376 48.847-22.588 67.765 16.659 0 30.118 13.459 30.118 30.118s-13.46 30.117-30.118 30.117h-10.07l25.129 150.588 52.894 66.165c4.706 5.93 7.341 13.27 7.341 20.894 0 18.447-14.965 33.412-33.412 33.412h-264.47c-18.447 0-33.412-14.965-33.412-33.412 0-7.623 2.541-14.964 7.341-20.894l52.894-66.165 25.13-150.588h-10.07c-16.66 0-30.119-13.459-30.119-30.117 0-16.66 13.46-30.118 30.118-30.118-14.212-18.918-22.588-42.353-22.588-67.765C143.059 50.541 193.6 0 256 0"/></svg>