<svg xmlns="http://www.w3.org/2000/svg" viewBox="0 0 512 512"><!--! Font Awesome Free 7.0.1 by @fontawesome - https://fontawesome.com License - https://fontawesome.com/license/free (Icons: CC BY 4.0, Fonts: SIL OFL 1.1, Code: MIT License) Copyright 2025 Fonticons, Inc.--><path fill="currentColor" d="M438.857 0C479.2 0 512 32.8 512 73.143v365.714C512 479.2 479.2 512 438.857 512H73.143C32.8 512 0 479.2 0 438.857V73.143C0 32.8 32.8 0 73.143 0zm-128 301.714a27.363 27.363 0 0 0 27.429 27.429 27.363 27.363 0 0 0 27.428-27.429v-128a27.363 27.363 0 0 0-27.428-27.428h-128a27.363 27.363 0 0 0-27.429 27.428 27.363 27.363 0 0 0 27.429 27.429h61.828L154.4 318.857c-10.743 10.743-10.743 28.114 0 38.743s28.114 10.743 38.743 0l117.714-117.714z"/></svg>