<svg xmlns="http://www.w3.org/2000/svg" viewBox="0 0 512 512"><!--! Font Awesome Free 7.0.1 by @fontawesome - https://fontawesome.com License - https://fontawesome.com/license/free (Icons: CC BY 4.0, Fonts: SIL OFL 1.1, Code: MIT License) Copyright 2025 Fonticons, Inc.--><path fill="currentColor" d="M129.851 114.605c24.6 0 44.584-19.983 44.584-44.584s-19.983-44.584-44.584-44.584c-24.6 0-44.584 19.983-44.584 44.584 0 24.6 19.983 44.584 44.584 44.584m-68.946 117.75 17.993-17.993v55.172c0 22.292 9.713 43.55 26.67 58.04l56.845 48.723c4.698 4.06 7.803 9.634 8.678 15.764l10.032 70.14c1.99 13.933 14.888 23.646 28.82 21.655s23.646-14.888 21.655-28.82l-10.031-70.14c-2.627-18.391-11.863-35.11-25.954-47.212l-27.467-23.566v-91.715l3.025 3.742c14.49 18.152 36.463 28.66 59.71 28.66h26.433c14.091 0 25.476-11.384 25.476-25.476s-11.385-25.476-25.476-25.476h-26.432a25.52 25.52 0 0 1-19.904-9.554l-14.25-17.834a96.61 96.61 0 0 0-75.475-36.304c-25.636 0-50.237 10.19-68.31 28.343L24.84 196.289a76.4 76.4 0 0 0-22.372 54.058v29.856c0 14.092 11.385 25.476 25.477 25.476 14.091 0 25.476-11.384 25.476-25.476v-29.856c0-6.767 2.707-13.216 7.484-17.992m9.872 142.828c-1.194 4.14-3.423 7.961-6.449 10.986L9.952 440.546C0 450.498 0 466.66 9.952 476.611c9.952 9.952 26.113 9.952 36.065 0l54.377-54.376c9.155-9.156 15.843-20.54 19.426-33.04l1.751-6.05-36.622-31.369c-1.99-1.751-3.981-3.503-5.892-5.414zm217.507-57.561c-7.484 7.483-7.484 19.585 0 26.989l57.322 57.322c7.484 7.484 19.585 7.484 26.99 0 7.403-7.484 7.483-19.585 0-26.99l-24.681-24.68H429.2c.955 0 1.91-.08 2.787-.238C476.65 346.92 512 309.74 512 264.28c0-47.45-38.533-85.984-85.984-85.984h-73.245a19.06 19.06 0 0 0-19.107 19.108 19.06 19.06 0 0 0 19.107 19.107h73.245c26.353 0 47.77 21.417 47.77 47.769s-21.417 47.769-47.77 47.769h-78.101l24.68-24.68c7.484-7.485 7.484-19.586 0-26.99s-19.585-7.484-26.989 0L288.284 317.7z"/></svg>