<svg xmlns="http://www.w3.org/2000/svg" viewBox="0 0 512 512"><!--! Font Awesome Free 7.0.1 by @fontawesome - https://fontawesome.com License - https://fontawesome.com/license/free (Icons: CC BY 4.0, Fonts: SIL OFL 1.1, Code: MIT License) Copyright 2025 Fonticons, Inc.--><path fill="currentColor" d="M307.19 34.126C307.19 15.25 322.44 0 341.315 0H477.82c18.877 0 34.127 15.25 34.127 34.126v136.505c0 18.876-15.25 34.126-34.127 34.126-18.876 0-34.126-15.25-34.126-34.126v-54.069L342.382 217.875c20.796 30.287 33.06 66.866 33.06 106.43 0 103.66-84.036 187.695-187.694 187.695C84.089 512 .053 427.858.053 324.2c0-103.66 84.036-187.695 187.695-187.695 39.458 0 76.144 12.157 106.43 33.06L395.492 68.252h-54.069c-18.876 0-34.126-15.25-34.126-34.126zM187.747 443.641c66.012 0 119.441-53.429 119.441-119.442S253.76 204.757 187.748 204.757c-66.013 0-119.442 53.43-119.442 119.442 0 66.013 53.429 119.442 119.442 119.442"/></svg>