<svg xmlns="http://www.w3.org/2000/svg" viewBox="0 0 512 512"><!--! Font Awesome Free 7.0.1 by @fontawesome - https://fontawesome.com License - https://fontawesome.com/license/free (Icons: CC BY 4.0, Fonts: SIL OFL 1.1, Code: MIT License) Copyright 2025 Fonticons, Inc.--><path fill="currentColor" d="M0 361.977v60.558c0 25.075 20.344 45.418 45.419 45.418h47.31c38.417 0 76.077-10.408 109.005-30.184l126.32-75.792h-88.282l-61.41 36.808c-13.246 7.948-27.345 13.91-42.106 17.978v-62.83a60.6 60.6 0 0 0 22.141-22.14h188.109c63.491 0 120.927-19.493 161.141-66.804 4.353-5.11 4.353-12.585 0-17.789-40.214-47.406-97.65-66.803-161.141-66.803H158.397a60.6 60.6 0 0 0-22.141-22.142V95.426a163.8 163.8 0 0 1 42.107 17.979l61.41 36.808h88.282L201.735 74.42c-32.93-19.965-70.589-30.373-109.005-30.373H45.419C20.344 44.047 0 64.39 0 89.465zm90.837 0v60.558H45.42v-60.558zm0-272.512v60.558H45.42V89.465zm302.79 136.256c8.328 0 15.14 6.813 15.14 15.14v30.279c0 8.326-6.812 15.14-15.14 15.14-8.326 0-15.139-6.814-15.139-15.14v-30.28c0-8.326 6.813-15.14 15.14-15.14"/></svg>