<svg xmlns="http://www.w3.org/2000/svg" viewBox="0 0 512 512"><!--! Font Awesome Free 7.0.1 by @fontawesome - https://fontawesome.com License - https://fontawesome.com/license/free (Icons: CC BY 4.0, Fonts: SIL OFL 1.1, Code: MIT License) Copyright 2025 Fonticons, Inc.--><path fill="currentColor" d="M256.393 51.773c6.29-18.868-3.93-39.195-22.686-45.484-18.755-6.289-39.194 3.93-45.483 22.686L44.473 460.227c-6.29 18.868 3.93 39.195 22.686 45.484 18.755 6.289 39.194-3.93 45.483-22.686zM336.018 4.94c-19.542-3.256-38.072 9.996-41.329 29.537L222.814 465.73c-3.257 19.541 9.995 38.072 29.536 41.329s38.072-9.996 41.328-29.537L365.554 46.27c3.257-19.541-9.995-38.072-29.536-41.329m101.86-.449c-19.878 0-35.937 16.06-35.937 35.938v431.252c0 19.878 16.06 35.938 35.937 35.938 19.879 0 35.938-16.06 35.938-35.938V40.43c0-19.878-16.06-35.938-35.938-35.938"/></svg>