<svg xmlns="http://www.w3.org/2000/svg" viewBox="0 0 512 512"><!--! Font Awesome Free 7.0.1 by @fontawesome - https://fontawesome.com License - https://fontawesome.com/license/free (Icons: CC BY 4.0, Fonts: SIL OFL 1.1, Code: MIT License) Copyright 2025 Fonticons, Inc.--><path fill="currentColor" d="M47.99 258.45c0-114.878 93.082-207.96 207.96-207.96 63.088 0 119.577 28.095 157.77 72.486 8.598 10.098 23.795 11.198 33.793 2.6s11.197-23.796 2.6-33.794C403.22 37.092 333.634 2.5 255.95 2.5 114.578 2.5 0 117.077 0 258.45v39.992a23.94 23.94 0 0 0 23.995 23.995 23.94 23.94 0 0 0 23.996-23.995zm458.411-52.89c-2.7-12.998-15.497-21.296-28.394-18.497-12.898 2.8-21.296 15.497-18.497 28.395 2.9 13.897 4.5 28.294 4.5 43.092v39.992a23.94 23.94 0 0 0 23.995 23.995A23.94 23.94 0 0 0 512 298.542V258.55c0-18.097-1.9-35.794-5.499-52.89zM255.95 82.484c-18.996 0-37.393 3-54.49 8.598-15.196 5-18.696 23.696-8.298 35.893 7.099 8.299 18.797 10.798 29.395 7.899s21.795-4.4 33.393-4.4c70.686 0 127.975 57.29 127.975 127.976v24.895c0 25.195-1.5 50.29-4.4 75.285-1.699 14.597 9.399 27.795 24.196 27.795 11.798 0 21.896-8.599 23.296-20.297 3.299-27.394 4.999-54.989 4.999-82.683V258.55c0-97.182-78.785-175.966-175.966-175.966zM150.67 151.17c-9.098-10.597-25.294-11.397-33.893-.4-23.095 29.795-36.793 67.087-36.793 107.68v24.895c0 24.195-2.6 48.39-7.798 71.886-3.4 15.597 7.898 31.094 23.895 31.094 10.498 0 19.896-7 22.196-17.297 6.399-28.095 9.698-56.789 9.698-85.783V258.35c0-27.195 8.498-52.39 22.896-73.086 7.198-10.398 7.998-24.595-.2-34.194zm105.28 11.298c-52.99 0-95.981 42.992-95.981 95.982v24.895c0 35.893-4.6 71.486-13.798 106.079-3.799 14.297 6.7 28.994 21.496 28.994 9.498 0 17.897-6.199 20.396-15.397 10.498-38.992 15.897-79.184 15.897-119.676V258.45c0-28.695 23.296-51.99 51.99-51.99s51.99 23.295 51.99 51.99v24.895c0 36.293-3.5 72.386-10.398 107.879-2.7 13.897 7.698 27.194 21.796 27.194 10.198 0 18.996-6.998 20.996-16.996a606 606 0 0 0 11.597-118.077V258.45c0-52.99-42.991-95.982-95.981-95.982m23.995 95.982a23.94 23.94 0 0 0-23.995-23.996 23.94 23.94 0 0 0-23.995 23.996v24.895c0 59.888-10.998 119.276-32.494 175.165l-5.899 15.297c-4.799 12.398 1.4 26.295 13.798 30.994 12.397 4.7 26.294-1.4 30.993-13.797l5.9-15.297a536.1 536.1 0 0 0 35.692-192.362z"/></svg>