<svg xmlns="http://www.w3.org/2000/svg" viewBox="0 0 512 512"><!--! Font Awesome Free 7.0.1 by @fontawesome - https://fontawesome.com License - https://fontawesome.com/license/free (Icons: CC BY 4.0, Fonts: SIL OFL 1.1, Code: MIT License) Copyright 2025 Fonticons, Inc.--><path fill="currentColor" d="M468.442 119.981c12.375-12.374 12.375-32.47 0-44.844L405.086 11.78c-9.108-9.107-22.67-11.78-34.55-6.83s-19.501 16.532-19.501 29.302V65.93H192.643C87.71 65.93 2.573 151.066 2.573 256c0 17.522 14.157 31.678 31.68 31.678 17.521 0 31.677-14.156 31.677-31.678 0-69.99 56.724-126.713 126.713-126.713h158.392v31.678c0 12.77 7.721 24.353 19.6 29.303s25.442 2.177 34.55-6.831l63.356-63.357zM43.558 392.02c-12.375 12.374-12.375 32.47 0 44.844l63.356 63.357c9.108 9.107 22.67 11.78 34.55 6.83s19.501-16.532 19.501-29.302V446.07h158.392c104.934 0 190.07-85.136 190.07-190.07 0-17.522-14.157-31.678-31.68-31.678-17.521 0-31.677 14.156-31.677 31.678 0 69.99-56.724 126.713-126.713 126.713H160.965v-31.678c0-12.77-7.721-24.353-19.6-29.303s-25.442-2.177-34.55 6.831L43.46 391.92z"/></svg>