<svg xmlns="http://www.w3.org/2000/svg" viewBox="0 0 512 512"><!--! Font Awesome Free 7.0.1 by @fontawesome - https://fontawesome.com License - https://fontawesome.com/license/free (Icons: CC BY 4.0, Fonts: SIL OFL 1.1, Code: MIT License) Copyright 2025 Fonticons, Inc.--><path fill="currentColor" d="M284.444 28.444c-31.377 0-56.888 25.512-56.888 56.89v28.444h-42.667v-64a21.28 21.28 0 0 0-21.333-21.334 21.28 21.28 0 0 0-21.334 21.334v64H85.333v-64A21.28 21.28 0 0 0 64 28.444a21.28 21.28 0 0 0-21.333 21.334v65.778C18.133 121.866 0 144.178 0 170.666v256c0 31.378 25.511 56.89 56.889 56.89H455.11c31.378 0 56.889-25.512 56.889-56.89V256c0-31.378-25.511-56.889-56.889-56.889h-56.889V85.333c0-31.377-25.51-56.889-56.889-56.889zM341.334 128v28.444c0 7.823-6.4 14.223-14.223 14.223h-28.444c-7.823 0-14.223-6.4-14.223-14.223V128c0-7.822 6.4-14.222 14.223-14.222h28.444c7.822 0 14.222 6.4 14.222 14.222m-14.223 71.111c7.822 0 14.222 6.4 14.222 14.222v28.445c0 7.822-6.4 14.222-14.222 14.222h-28.444c-7.823 0-14.223-6.4-14.223-14.222v-28.445c0-7.822 6.4-14.222 14.223-14.222zm14.222 99.556v28.444c0 7.822-6.4 14.222-14.222 14.222h-28.444c-7.823 0-14.223-6.4-14.223-14.222v-28.444c0-7.823 6.4-14.223 14.223-14.223h28.444c7.822 0 14.222 6.4 14.222 14.223m99.556-14.223c7.822 0 14.222 6.4 14.222 14.223v28.444c0 7.822-6.4 14.222-14.222 14.222h-28.445c-7.822 0-14.222-6.4-14.222-14.222v-28.444c0-7.823 6.4-14.223 14.222-14.223zm-213.333 14.223v28.444c0 7.822-6.4 14.222-14.223 14.222H184.89c-7.822 0-14.222-6.4-14.222-14.222v-28.444c0-7.823 6.4-14.223 14.222-14.223h28.444c7.823 0 14.223 6.4 14.223 14.223m-14.223-99.556c7.823 0 14.223 6.4 14.223 14.222v28.445c0 7.822-6.4 14.222-14.223 14.222H184.89c-7.822 0-14.222-6.4-14.222-14.222v-28.445c0-7.822 6.4-14.222 14.222-14.222zm-99.555 99.556v28.444c0 7.822-6.4 14.222-14.222 14.222H71.11c-7.822 0-14.222-6.4-14.222-14.222v-28.444c0-7.823 6.4-14.223 14.222-14.223h28.445c7.822 0 14.222 6.4 14.222 14.223M99.556 199.11c7.822 0 14.222 6.4 14.222 14.222v28.445c0 7.822-6.4 14.222-14.222 14.222H71.11c-7.822 0-14.222-6.4-14.222-14.222v-28.445c0-7.822 6.4-14.222 14.222-14.222z"/></svg>