<svg xmlns="http://www.w3.org/2000/svg" viewBox="0 0 512 512"><!--! Font Awesome Free 7.0.1 by @fontawesome - https://fontawesome.com License - https://fontawesome.com/license/free (Icons: CC BY 4.0, Fonts: SIL OFL 1.1, Code: MIT License) Copyright 2025 Fonticons, Inc.--><path fill="currentColor" d="M320 42.711a21.28 21.28 0 0 1 21.333 21.333v16.89c0 35.822 14.223 70.222 39.556 95.555l18.667 18.667c17.333 17.333 27.11 40.8 27.11 65.333v16.889a21.28 21.28 0 0 1-21.333 21.333A21.28 21.28 0 0 1 384 277.378v-16.89a49.7 49.7 0 0 0-14.578-35.2l-18.666-18.666c-33.334-33.333-52.09-78.578-52.09-125.689V64.044A21.28 21.28 0 0 1 320 42.711m170.667 256a21.28 21.28 0 0 1-21.334-21.333v-16.89c0-35.821-14.222-70.221-39.555-95.555l-18.667-18.666C393.778 128.933 384 105.467 384 80.933V64.044a21.28 21.28 0 0 1 21.333-21.333 21.28 21.28 0 0 1 21.334 21.333v16.89a49.7 49.7 0 0 0 14.577 35.2l18.667 18.666C493.244 168.133 512 213.378 512 260.489v16.889a21.28 21.28 0 0 1-21.333 21.333m-230.49 28.445c4.979 0 9.512 2.577 12.09 6.755l78.489 127.467c1.155 1.866 0 4.355-2.134 4.622-14.31 2.222-28.8 3.289-43.289 3.289h-33.866a14.17 14.17 0 0 1-12.09-6.756L189.157 348.4c-5.334-8.711 0-20.089 10.222-20.711a301 301 0 0 1 17.955-.533h42.934zm148.09 129.688a14.19 14.19 0 0 1-14.311-6.577l-61.423-99.911c-5.955-9.69 1.334-21.956 12.623-20.356 1.155.178 2.31.356 3.377.533L469.778 349.2c24.266 3.733 42.133 24.622 42.133 49.156s-17.867 45.422-42.133 49.155l-61.511 9.422zM123.289 341.378c5.955-1.334 12.089 1.244 15.289 6.4l61.244 99.555c5.867 9.511-1.066 21.69-12.266 20.534-11.556-1.245-23.023-3.111-34.312-5.778L27.734 433.11C11.466 429.378 0 414.89 0 398.267c0-16.623 11.467-31.111 27.733-34.845z"/></svg>