<svg xmlns="http://www.w3.org/2000/svg" viewBox="0 0 512 512"><!--! Font Awesome Free 7.0.1 by @fontawesome - https://fontawesome.com License - https://fontawesome.com/license/free (Icons: CC BY 4.0, Fonts: SIL OFL 1.1, Code: MIT License) Copyright 2025 Fonticons, Inc.--><path fill="currentColor" d="M202.39 30.83h-67.112c-25.859 0-48.464 17.679-54.621 42.746L6.597 372.544C0 399.107 20.142 424.878 47.585 424.878h184.183c-9.851-21.461-15.305-45.21-15.305-70.366s5.454-48.992 15.305-70.366h-1.32c-15.568 0-28.146-12.578-28.146-28.146v-56.293c0-15.568 12.578-28.146 28.146-28.146s28.147 12.578 28.147 28.146v43.1c30.96-35.096 76.259-57.173 126.658-57.173 7.917 0 15.657.528 23.31 1.583l-28.147-113.64c-6.157-25.068-28.674-42.748-54.622-42.748h-67.2v56.293c0 15.568-12.577 28.146-28.146 28.146-15.568 0-28.146-12.578-28.146-28.146V30.829zM512 354.511c0-69.926-56.733-126.658-126.659-126.658s-126.658 56.732-126.658 126.658 56.732 126.659 126.658 126.659S512 424.438 512 354.512m-76.171-53.566c6.245 4.574 7.652 13.37 3.078 19.615l-56.292 77.402c-2.463 3.343-6.157 5.454-10.291 5.717-4.134.264-8.18-1.143-11.083-4.046l-35.183-35.183c-5.453-5.453-5.453-14.425 0-19.878s14.425-5.453 19.878 0l23.573 23.573 46.617-64.121c4.574-6.245 13.37-7.653 19.703-3.079"/></svg>