<svg xmlns="http://www.w3.org/2000/svg" viewBox="0 0 512 512"><!--! Font Awesome Free 7.0.1 by @fontawesome - https://fontawesome.com License - https://fontawesome.com/license/free (Icons: CC BY 4.0, Fonts: SIL OFL 1.1, Code: MIT License) Copyright 2025 Fonticons, Inc.--><path fill="currentColor" d="M366.727 50.881c-38.728 0-70.126 31.398-70.126 70.126v28.688L13.547 361.986c-11.236 8.447-13.547 24.385-5.1 35.7s24.385 13.548 35.7 5.1l61.201-45.9H209.98l37.135 90.128.797 1.753c4.542 8.527 14.981 12.352 24.145 8.606 9.164-3.745 13.786-13.786 11.077-23.11l-.638-1.832-31.158-75.625h35.143l37.135 90.208.797 1.753c4.542 8.527 14.981 12.352 24.145 8.606 9.165-3.745 13.787-13.786 11.077-23.11l-.637-1.832-33.47-81.283c64.15-18.089 111.326-77.138 111.326-147.264v-57.376l64.149-16.018c6.853-1.673 10.997-8.606 9.244-15.46-5.658-22.71-26.058-38.648-49.487-38.648h-39.924c-12.91-15.54-32.354-25.5-54.109-25.5m0 51.001a19.08 19.08 0 0 1 19.126 19.125 19.08 19.08 0 0 1-19.126 19.126 19.08 19.08 0 0 1-19.125-19.126 19.08 19.08 0 0 1 19.125-19.125"/></svg>