<svg xmlns="http://www.w3.org/2000/svg" viewBox="0 0 512 512"><!--! Font Awesome Free 7.0.1 by @fontawesome - https://fontawesome.com License - https://fontawesome.com/license/free (Icons: CC BY 4.0, Fonts: SIL OFL 1.1, Code: MIT License) Copyright 2025 Fonticons, Inc.--><path fill="currentColor" d="M428.089 266.29q.25-5.145.25-10.29c0-118.295-95.874-214.17-214.17-214.17C95.876 41.83 0 137.705 0 256s95.875 214.17 214.17 214.17c34.635 0 67.346-8.199 96.293-22.84-6.358-14.305-13.47-32.46-18.238-51.618-6.442-25.516-11.796-63.749 6.86-95.958l2.259-3.848c24.68-42.667 79.226-57.307 121.893-32.628 1.673 1.004 3.346 2.008 4.936 3.096zm-254.076 29.867c0-7.362 6.024-13.386 13.386-13.386h26.77c22.17 0 40.158 17.987 40.158 40.157 0 10.29-3.849 19.66-10.207 26.771a40 40 0 0 1 10.207 26.772c0 22.17-17.987 40.156-40.157 40.156h-26.771c-7.362 0-13.386-6.023-13.386-13.385s6.024-13.386 13.386-13.386h13.385c7.362 0 13.386-6.023 13.386-13.385 0-7.363-6.024-13.386-13.386-13.386H187.4c-7.362 0-13.386-6.024-13.386-13.386s6.024-13.385 13.386-13.385h13.385c7.362 0 13.386-6.024 13.386-13.386s-6.024-13.386-13.386-13.386H187.4c-7.362 0-13.386-6.023-13.386-13.385m-26.771-107.085c14.808 0 26.771 11.963 26.771 26.771s-11.963 26.771-26.771 26.771-26.771-11.963-26.771-26.77c0-14.809 11.963-26.772 26.77-26.772m127.163 16.732c-9.202 0-16.732 7.53-16.732 16.732 0 9.203-7.53 16.732-16.732 16.732s-16.732-7.53-16.732-16.732c0-27.692 22.505-50.196 50.196-50.196h13.386c27.691 0 50.196 22.504 50.196 50.196 0 9.203-7.53 16.732-16.732 16.732-9.203 0-16.732-7.53-16.732-16.732 0-9.203-7.53-16.732-16.732-16.732zm152.93 128.837c-1.84-15.31-10.791-28.947-24.177-36.644-23.508-13.553-53.459-5.521-67.012 17.987l-2.258 3.849c-20.497 35.555 6.609 98.635 20.413 126.16 4.266 8.449 12.967 13.468 22.42 12.966 30.704-1.84 98.887-9.788 119.467-45.343l2.26-3.849c13.552-23.508 5.52-53.459-17.988-67.011-13.385-7.697-29.616-8.701-43.838-2.594l-8.198 3.514-1.088-8.868z"/></svg>