<svg xmlns="http://www.w3.org/2000/svg" viewBox="0 0 512 512"><!--! Font Awesome Free 7.0.1 by @fontawesome - https://fontawesome.com License - https://fontawesome.com/license/free (Icons: CC BY 4.0, Fonts: SIL OFL 1.1, Code: MIT License) Copyright 2025 Fonticons, Inc.--><path fill="currentColor" d="m499.652 57.097-39.514 39.514c-12.348 12.348-32.401 12.348-44.75 0-12.347-12.348-12.347-32.401 0-44.75l39.515-39.513C467.25 0 487.303 0 499.652 12.348c12.348 12.348 12.348 32.401 0 44.75m-316.11 316.11L57.097 499.653c-12.348 12.348-32.4 12.348-44.749 0C0 487.304 0 467.25 12.348 454.902l126.444-126.444c12.348-12.348 32.402-12.348 44.75 0s12.348 32.402 0 44.75m56.702-243.602c-56.9 0-103.823 43.07-109.947 98.29-1.877 17.387-17.584 29.834-34.871 27.957S65.593 238.268 67.47 220.98c9.582-86.93 83.275-154.598 172.774-154.598 96.018 0 173.86 77.842 173.86 173.86 0 45.442-17.484 86.832-46.033 117.85-11.854 12.843-17.188 24.5-17.188 34.279v6.026c0 61.147-49.492 110.638-110.64 110.638-17.484 0-31.61-14.126-31.61-31.61s14.126-31.612 31.61-31.612c26.179 0 47.417-21.238 47.417-47.416v-6.026c0-32.5 17.189-58.876 33.982-77.052 18.177-19.757 29.24-46.033 29.24-74.977 0-61.148-49.49-110.639-110.638-110.639zm0 79.028c-17.485 0-31.611 14.126-31.611 31.61a23.65 23.65 0 0 1-23.708 23.71 23.65 23.65 0 0 1-23.709-23.71c0-43.662 35.365-79.027 79.028-79.027s79.027 35.365 79.027 79.028a23.65 23.65 0 0 1-23.708 23.708 23.65 23.65 0 0 1-23.708-23.708c0-17.485-14.126-31.611-31.611-31.611"/></svg>