<svg xmlns="http://www.w3.org/2000/svg" viewBox="0 0 512 512"><!--! Font Awesome Free 7.0.1 by @fontawesome - https://fontawesome.com License - https://fontawesome.com/license/free (Icons: CC BY 4.0, Fonts: SIL OFL 1.1, Code: MIT License) Copyright 2025 Fonticons, Inc.--><path fill="currentColor" d="m499.556 151.901-94.815 94.815c-9.087 9.086-22.618 11.753-34.47 6.815s-19.456-16.395-19.456-29.136v-63.21H34.765c-17.481 0-31.605-14.123-31.605-31.605s14.124-31.605 31.605-31.605h316.05v-63.21c0-12.74 7.704-24.296 19.555-29.234 11.852-4.938 25.383-2.173 34.47 6.815l94.814 94.814c12.346 12.346 12.346 32.396 0 44.741zM107.16 499.556 12.346 404.74C0 392.395 0 372.346 12.346 360l94.814-94.815c9.087-9.086 22.618-11.753 34.47-6.815 11.851 4.939 19.555 16.494 19.555 29.235v63.21h316.05c17.481 0 31.605 14.123 31.605 31.605s-14.124 31.605-31.605 31.605h-316.05v63.21c0 12.74-7.704 24.296-19.555 29.234-11.852 4.938-25.383 2.173-34.47-6.815z"/></svg>