<svg xmlns="http://www.w3.org/2000/svg" viewBox="0 0 512 512"><!--! Font Awesome Free 7.0.1 by @fontawesome - https://fontawesome.com License - https://fontawesome.com/license/free (Icons: CC BY 4.0, Fonts: SIL OFL 1.1, Code: MIT License) Copyright 2025 Fonticons, Inc.--><path fill="currentColor" d="M405.407 134.467C405.407 60.23 338.547 0 256 0S106.593 60.23 106.593 134.467c0 43.981 23.438 83.014 59.763 107.573v26.893c0 16.528 13.353 29.882 29.881 29.882h119.526c16.528 0 29.881-13.354 29.881-29.882V242.04c36.325-24.56 59.763-63.592 59.763-107.573m-209.17-14.941c16.528 0 29.882 13.353 29.882 29.881s-13.354 29.882-29.882 29.882-29.881-13.354-29.881-29.882 13.353-29.881 29.881-29.881m89.644 29.881c0-16.528 13.354-29.881 29.882-29.881s29.881 13.353 29.881 29.881-13.353 29.882-29.881 29.882-29.882-13.354-29.882-29.882M462.836 317.21c-6.35-15.22-23.812-22.41-39.033-16.061L256 370.997 88.197 301.149c-15.22-6.35-32.683.84-39.033 16.061s.84 32.683 16.062 39.033L178.308 403.4 65.226 450.556c-15.221 6.35-22.411 23.812-16.062 39.033S72.976 512 88.197 505.65L256 435.802l167.803 69.848c15.22 6.35 32.683-.84 39.033-16.061s-.84-32.683-16.062-39.033L333.692 403.4l113.082-47.157c15.221-6.35 22.411-23.812 16.062-39.033"/></svg>