<svg xmlns="http://www.w3.org/2000/svg" viewBox="0 0 512 512"><!--! Font Awesome Free 7.0.1 by @fontawesome - https://fontawesome.com License - https://fontawesome.com/license/free (Icons: CC BY 4.0, Fonts: SIL OFL 1.1, Code: MIT License) Copyright 2025 Fonticons, Inc.--><path fill="currentColor" d="M396.387 16.568c27.355 0 49.548 22.193 49.548 49.548 0 6.503-1.341 12.594-3.51 18.271 21.059 5.678 36.543 24.878 36.543 47.794 0 9.393-2.684 18.167-7.226 25.703 22.916 4.335 40.258 24.464 40.258 48.62 0 20.335-12.284 37.78-29.832 45.419C499.716 259.56 512 277.006 512 297.342c0 27.355-22.194 49.548-49.548 49.548H297.29l29.11 72.671a55.9 55.9 0 0 1 3.923 20.542v4.336c0 28.18-22.813 50.993-50.994 50.993-19.303 0-36.955-10.942-45.626-28.18l-58.116-115.923c-6.916-13.729-10.426-28.903-10.426-44.284v-192.62c0-20.025 9.187-39.019 24.774-51.612L202.53 52.8c29.316-23.432 65.652-36.232 103.123-36.232zM82.581 82.632c18.27 0 33.032 14.762 33.032 33.033v264.258c0 18.27-14.761 33.032-33.032 33.032H33.032C14.762 412.955 0 398.194 0 379.923V115.665c0-18.271 14.761-33.033 33.032-33.033z"/></svg>