<svg xmlns="http://www.w3.org/2000/svg" viewBox="0 0 512 512"><!--! Font Awesome Free 7.0.1 by @fontawesome - https://fontawesome.com License - https://fontawesome.com/license/free (Icons: CC BY 4.0, Fonts: SIL OFL 1.1, Code: MIT License) Copyright 2025 Fonticons, Inc.--><path fill="currentColor" d="M0 36.571C0 16.343 16.343 0 36.571 0H475.43C495.657 0 512 16.343 512 36.571c0 20.229-16.343 36.572-36.571 36.572H36.57C16.343 73.143 0 56.8 0 36.57m219.429 146.286c0-20.228 16.342-36.571 36.571-36.571h219.429c20.228 0 36.571 16.343 36.571 36.571 0 20.229-16.343 36.572-36.571 36.572H256c-20.229 0-36.571-16.343-36.571-36.572M256 292.571h219.429c20.228 0 36.571 16.343 36.571 36.572 0 20.228-16.343 36.571-36.571 36.571H256c-20.229 0-36.571-16.343-36.571-36.571 0-20.229 16.342-36.572 36.571-36.572M0 475.43c0-20.229 16.343-36.572 36.571-36.572H475.43c20.228 0 36.571 16.343 36.571 36.572C512 495.657 495.657 512 475.429 512H36.57C16.343 512 0 495.657 0 475.429M146.057 270.4 29.486 361.029c-12 9.371-29.486.8-29.486-14.4V165.37c0-15.2 17.486-23.771 29.486-14.4L145.943 241.6c9.371 7.314 9.371 21.6 0 28.914z"/></svg>