<svg xmlns="http://www.w3.org/2000/svg" viewBox="0 0 512 512"><!--! Font Awesome Free 7.0.1 by @fontawesome - https://fontawesome.com License - https://fontawesome.com/license/free (Icons: CC BY 4.0, Fonts: SIL OFL 1.1, Code: MIT License) Copyright 2025 Fonticons, Inc.--><path fill="currentColor" d="M15.515 69.818c0-34.23 27.83-62.06 62.06-62.06h155.152c34.23 0 62.06 27.83 62.06 62.06V287.03c42.861 0 77.577 34.715 77.577 77.576v11.636c0 10.667 8.727 19.394 19.394 19.394s19.394-8.727 19.394-19.394v-123.83c-31.516-9.89-54.304-39.273-54.304-73.988v-31.03c0-8.533 6.982-15.515 15.516-15.515h15.515V85.333c0-8.533 6.982-15.515 15.515-15.515s15.515 6.982 15.515 15.515v46.546h31.03V85.333c0-8.533 6.982-15.515 15.516-15.515S480.97 76.8 480.97 85.333v46.546h15.515c8.533 0 15.515 6.982 15.515 15.515v31.03c0 34.715-22.788 64.097-54.303 73.988v123.83c0 36.461-29.479 65.94-65.94 65.94s-65.939-29.479-65.939-65.94v-11.636c0-17.164-13.866-31.03-31.03-31.03v125.479c9.018 3.2 15.515 11.83 15.515 21.915a23.217 23.217 0 0 1-23.273 23.272H23.273A23.217 23.217 0 0 1 0 480.97c0-10.182 6.497-18.715 15.515-21.915zM95.71 191.71h37.818l-20.266 64.873c-2.328 7.37 3.2 14.933 10.957 14.933 2.812 0 5.43-.97 7.564-2.812l91.733-79.515c3.006-2.618 4.752-6.4 4.752-10.376 0-7.564-6.11-13.673-13.673-13.673h-37.818l20.266-64.872c2.328-7.37-3.2-14.934-10.957-14.934-2.812 0-5.43.97-7.564 2.812l-91.733 79.516c-3.006 2.618-4.752 6.4-4.752 10.375 0 7.564 6.11 13.673 13.673 13.673"/></svg>