<svg xmlns="http://www.w3.org/2000/svg" viewBox="0 0 512 512"><!--! Font Awesome Free 7.0.1 by @fontawesome - https://fontawesome.com License - https://fontawesome.com/license/free (Icons: CC BY 4.0, Fonts: SIL OFL 1.1, Code: MIT License) Copyright 2025 Fonticons, Inc.--><path fill="currentColor" d="M2.04 36.28C2.04 16.213 18.254 0 38.32 0h90.7c90.133 0 163.26 73.127 163.26 163.26 0 61.562-34.013 115.075-84.35 142.965l46.483 154.983c5.782 19.16-5.102 39.455-24.376 45.123-19.273 5.669-39.454-5.102-45.123-24.375l-46.71-155.664c-3.061.114-6.123.227-9.184.227H74.6v145.12c0 20.067-16.212 36.28-36.28 36.28-20.067 0-36.28-16.213-36.28-36.28zM74.6 253.96h54.42c50.112 0 90.7-40.589 90.7-90.7s-40.588-90.7-90.7-90.7H74.6zm323.232-36.28h39.567c20.068 0 36.28 16.212 36.28 36.28 0 20.067-16.212 36.28-36.28 36.28h-39.567c-8.163 0-14.852 6.688-14.852 14.851 0 6.463 4.194 12.131 10.317 14.172l56.007 18.027c36.166 11.677 60.655 45.236 60.655 83.217 0 48.297-39.114 87.412-87.412 87.412H364.84c-20.068 0-36.28-16.213-36.28-36.28 0-20.068 16.212-36.28 36.28-36.28h57.707c8.163 0 14.852-6.69 14.852-14.852 0-6.463-4.194-12.131-10.317-14.172l-56.007-18.027c-36.166-11.677-60.655-45.236-60.655-83.217 0-48.297 39.114-87.412 87.412-87.412"/></svg>