<svg xmlns="http://www.w3.org/2000/svg" viewBox="0 0 512 512"><!--! Font Awesome Free 7.0.1 by @fontawesome - https://fontawesome.com License - https://fontawesome.com/license/free (Icons: CC BY 4.0, Fonts: SIL OFL 1.1, Code: MIT License) Copyright 2025 Fonticons, Inc.--><path fill="currentColor" d="M85.333 213.333c0-94.222 76.445-170.666 170.667-170.666s170.667 76.444 170.667 170.666C426.667 307.556 350.222 384 256 384S85.333 307.556 85.333 213.333m156.445-81.777v3.555c-25.6.267-46.222 21.067-46.222 46.667 0 22.844 16.444 42.31 39.022 46.044l37.066 6.222c5.334.89 9.245 5.512 9.245 10.934 0 6.133-4.978 11.11-11.111 11.11L220.444 256c-9.777 0-17.777 8-17.777 17.778s8 17.778 17.777 17.778h21.334v3.555c0 9.778 8 17.778 17.778 17.778s17.777-8 17.777-17.778v-4.178c22.223-3.644 39.111-22.844 39.111-46.044 0-22.845-16.444-42.311-39.022-46.045l-37.066-6.222c-5.334-.889-9.245-5.51-9.245-10.933 0-6.133 4.978-11.111 11.111-11.111h42.222c9.778 0 17.778-8 17.778-17.778s-8-17.778-17.778-17.778h-7.11v-3.555c0-9.778-8-17.778-17.778-17.778s-17.778 8-17.778 17.778zM42.667 320v92.444c0 7.823 6.4 14.223 14.222 14.223H455.11c7.822 0 14.222-6.4 14.222-14.223V320a21.28 21.28 0 0 1 21.334-21.333A21.28 21.28 0 0 1 512 320v92.444c0 31.378-25.511 56.89-56.889 56.89H56.89C25.51 469.333 0 443.821 0 412.443V320a21.28 21.28 0 0 1 21.333-21.333A21.28 21.28 0 0 1 42.667 320"/></svg>