<svg xmlns="http://www.w3.org/2000/svg" viewBox="0 0 512 512"><!--! Font Awesome Free 7.0.1 by @fontawesome - https://fontawesome.com License - https://fontawesome.com/license/free (Icons: CC BY 4.0, Fonts: SIL OFL 1.1, Code: MIT License) Copyright 2025 Fonticons, Inc.--><path fill="currentColor" d="M170.135 1.645C147.411.05 128.374 15.598 122.792 36.23l-9.668 36.28c180.202.298 326.118 146.214 326.417 326.415l36.28-9.667c20.73-5.482 36.179-24.619 34.584-47.343C497.847 159.72 352.33 14.203 170.135 1.645M391.4 411.783c.2-4.087.3-8.173.3-12.36 0-154.088-124.986-279.073-279.074-279.073-4.086 0-8.272.1-12.359.3L1.495 491.02c-1.495 5.481.1 11.362 4.086 15.349s9.868 5.581 15.35 4.086l370.37-98.772zM176.414 208.059c17.642 0 31.894 14.253 31.894 31.894 0 17.642-14.252 31.894-31.894 31.894s-31.894-14.252-31.894-31.894 14.253-31.894 31.894-31.894m63.788 127.577c0-17.642 14.253-31.895 31.895-31.895 17.641 0 31.894 14.253 31.894 31.895 0 17.641-14.253 31.894-31.894 31.894-17.642 0-31.895-14.253-31.895-31.894M96.68 383.476c0-17.64 14.253-31.893 31.894-31.893 17.642 0 31.894 14.252 31.894 31.894s-14.252 31.894-31.894 31.894-31.894-14.253-31.894-31.894"/></svg>