<svg xmlns="http://www.w3.org/2000/svg" viewBox="0 0 512 512"><!--! Font Awesome Free 7.0.1 by @fontawesome - https://fontawesome.com License - https://fontawesome.com/license/free (Icons: CC BY 4.0, Fonts: SIL OFL 1.1, Code: MIT License) Copyright 2025 Fonticons, Inc.--><path fill="currentColor" d="M161.93 155.003c34.593-29.12 81.274-54.27 137.222-54.27s102.63 25.15 137.222 54.27c34.504 29.121 59.036 63.89 71.478 88.069a28.42 28.42 0 0 1 0 25.856c-12.442 24.18-36.974 58.948-71.478 88.069-34.593 29.21-81.186 54.27-137.222 54.27s-102.63-25.15-137.222-54.27c-14.295-12.09-26.914-25.15-37.68-38.034l-79.157 46.152c-11.03 6.442-25.061 4.677-34.15-4.324-9.09-9-10.943-22.943-4.678-34.062l40.505-70.685L6.354 185.36C0 174.24 1.94 160.298 11.03 151.297s23.032-10.766 34.15-4.324l79.157 46.152c10.766-12.884 23.385-25.944 37.68-38.034zm236.057 101.041c0-15.62-12.62-28.238-28.239-28.238s-28.238 12.619-28.238 28.238 12.619 28.239 28.238 28.239 28.239-12.62 28.239-28.239"/></svg>