<svg xmlns="http://www.w3.org/2000/svg" viewBox="0 0 512 512"><!--! Font Awesome Free 7.0.1 by @fontawesome - https://fontawesome.com License - https://fontawesome.com/license/free (Icons: CC BY 4.0, Fonts: SIL OFL 1.1, Code: MIT License) Copyright 2025 Fonticons, Inc.--><path fill="currentColor" d="M126.282 67.327c5.844-11.294 19.191-16.506 31.117-12.162l98.72 36.013 98.72-36.013c11.925-4.344 25.271.868 31.116 12.162l62.233 120.754c22.745 44.068 8.134 96.587-30.406 123.676l24.72 68.077 32.38-11.846c13.11-4.739 27.64 1.974 32.38 15.084 4.738 13.11-1.975 27.642-15.085 32.38-37.434 13.663-74.869 27.247-112.303 40.91-13.11 4.817-27.642-1.975-32.38-15.085-4.74-13.11 1.974-27.641 15.084-32.38l32.38-11.846-24.72-68.077c-46.911 4.106-91.77-26.773-102.668-75.185l-11.53-51.098-11.531 51.098c-10.899 48.412-55.757 79.291-102.668 75.185l-24.72 68.077 32.38 11.846c13.11 4.818 19.902 19.27 15.085 32.38s-19.27 19.902-32.38 15.085c-37.435-13.663-74.87-27.326-112.304-40.91-13.11-4.817-19.902-19.27-15.084-32.38 4.817-13.11 19.349-19.823 32.459-15.084l32.38 11.846 24.72-68.077c-38.462-27.089-52.994-79.608-30.249-123.676zm34.75 42.963-21.482 41.699 70.447 25.667 10.345-45.727zm190.252 0-59.31 21.639 10.345 45.727 70.447-25.667z"/></svg>