<svg xmlns="http://www.w3.org/2000/svg" viewBox="0 0 512 512"><!--! Font Awesome Free 7.0.1 by @fontawesome - https://fontawesome.com License - https://fontawesome.com/license/free (Icons: CC BY 4.0, Fonts: SIL OFL 1.1, Code: MIT License) Copyright 2025 Fonticons, Inc.--><path fill="currentColor" d="m432.011 90.83 10.295 9.748v-48.65c0-16.124 13.028-29.152 29.153-29.152s29.153 13.028 29.153 29.153V168.54c0 16.125-13.028 29.153-29.153 29.153H354.847c-16.125 0-29.153-13.028-29.153-29.153s13.028-29.153 29.153-29.153h43.638l-6.923-6.56-.547-.546c-68.327-68.328-179.018-68.328-247.345 0-68.328 68.327-68.328 179.018 0 247.345 68.327 68.327 179.018 68.327 247.345 0q11.204-11.205 19.952-23.778c9.201-13.21 27.422-16.398 40.632-7.197s16.398 27.422 7.197 40.632c-7.744 11.115-16.581 21.683-26.511 31.613C341.18 512 193.503 512 102.49 420.897s-91.103-238.69 0-329.794C193.503.091 340.908 0 432.011 90.83"/></svg>