<svg xmlns="http://www.w3.org/2000/svg" viewBox="0 0 512 512"><!--! Font Awesome Free 7.0.1 by @fontawesome - https://fontawesome.com License - https://fontawesome.com/license/free (Icons: CC BY 4.0, Fonts: SIL OFL 1.1, Code: MIT License) Copyright 2025 Fonticons, Inc.--><path fill="currentColor" d="M169.753 2.74c27.32 0 49.511 22.192 49.511 49.512s-22.191 49.511-49.51 49.511c-27.32 0-49.512-22.191-49.512-49.51 0-27.32 22.191-49.512 49.511-49.512M281.42 295.477l-40.935-55.17v215.11h240.483c15.65 0 28.292 12.643 28.292 28.292S496.616 512 480.967 512H28.292C12.643 512 0 499.357 0 483.708s12.643-28.292 28.292-28.292h70.73v-215.11l-40.935 55.17c-9.283 12.555-27.054 15.207-39.609 5.836-12.554-9.372-15.207-27.055-5.835-39.61l62.331-83.992a118.04 118.04 0 0 1 94.78-47.654 118.04 118.04 0 0 1 94.778 47.654l62.331 83.993c9.283 12.554 6.72 30.237-5.835 39.609-12.555 9.371-30.237 6.72-39.61-5.836m-97.52 159.94v-113.17c0-7.78-6.366-14.145-14.146-14.145s-14.146 6.366-14.146 14.146v113.169zm317.05-333.671c-11.052 11.051-29 11.051-40.052 0L438.53 99.376v129.702c0 15.65-12.643 28.292-28.292 28.292s-28.293-12.643-28.293-28.292V99.376l-22.457 22.457c-11.051 11.052-28.999 11.052-40.05 0-11.052-11.051-11.052-29 0-40.05l70.73-70.731c11.051-11.052 29-11.052 40.05 0l70.731 70.73c11.052 11.052 11.052 29 0 40.051z"/></svg>