<svg xmlns="http://www.w3.org/2000/svg" viewBox="0 0 512 512"><!--! Font Awesome Free 7.0.1 by @fontawesome - https://fontawesome.com License - https://fontawesome.com/license/free (Icons: CC BY 4.0, Fonts: SIL OFL 1.1, Code: MIT License) Copyright 2025 Fonticons, Inc.--><path fill="currentColor" d="M67.368 148.21c-7.41 0-13.473 6.064-13.473 13.474v188.632c0 7.41 6.063 13.473 13.473 13.473h350.316c7.41 0 13.474-6.063 13.474-13.473V161.684c0-7.41-6.063-13.473-13.474-13.473zM0 161.685c0-37.22 30.147-67.368 67.368-67.368h350.316c37.221 0 67.369 30.147 67.369 67.368v40.421c14.905 0 26.947 12.042 26.947 26.948v53.894c0 14.906-12.042 26.948-26.947 26.948v40.42c0 37.222-30.148 67.37-67.369 67.37H67.368C30.148 417.684 0 387.536 0 350.314z"/></svg>