<svg xmlns="http://www.w3.org/2000/svg" viewBox="0 0 512 512"><!--! Font Awesome Free 7.0.1 by @fontawesome - https://fontawesome.com License - https://fontawesome.com/license/free (Icons: CC BY 4.0, Fonts: SIL OFL 1.1, Code: MIT License) Copyright 2025 Fonticons, Inc.--><path fill="currentColor" d="M60.235 0C27.012 0 0 27.012 0 60.235v361.412c0 33.224 27.012 60.235 60.235 60.235h169.412c-21.365-29.647-33.882-66.07-33.882-105.411 0-94.683 72.847-172.424 165.647-180.047v-35.86c0-16-6.306-31.34-17.6-42.635L243.482 17.6C232.188 6.306 216.942 0 200.942 0zm246.118 165.647h-88a22.534 22.534 0 0 1-22.588-22.588v-88zM376.47 512C451.294 512 512 451.294 512 376.47c0-74.823-60.706-135.529-135.53-135.529-74.823 0-135.529 60.706-135.529 135.53 0 74.823 60.706 135.529 135.53 135.529m55.811-170.07-34.54 34.54 34.54 34.542c5.836 5.835 5.836 15.435 0 21.27-5.835 5.836-15.435 5.836-21.27 0l-34.541-34.54-34.542 34.54c-5.835 5.836-15.435 5.836-21.27 0-5.835-5.835-5.835-15.435 0-21.27L355.2 376.47l-34.541-34.542c-5.835-5.835-5.835-15.435 0-21.27s15.435-5.835 21.27 0l34.542 34.541 34.54-34.541c5.836-5.835 15.436-5.835 21.271 0s5.836 15.435 0 21.27"/></svg>