<svg xmlns="http://www.w3.org/2000/svg" viewBox="0 0 512 512"><!--! Font Awesome Free 7.0.1 by @fontawesome - https://fontawesome.com License - https://fontawesome.com/license/free (Icons: CC BY 4.0, Fonts: SIL OFL 1.1, Code: MIT License) Copyright 2025 Fonticons, Inc.--><path fill="currentColor" d="M478.449 192.472h7.842a23.766 23.766 0 0 0 23.823-23.824V25.71c0-9.628-5.757-18.364-14.691-22.036s-19.158-1.588-26.007 5.161l-51.32 51.419C374.124 23.823 317.544 1.886 256 1.886c-128.05 0-233.964 94.697-251.533 217.883-2.482 17.371 9.53 33.452 26.9 35.933 17.371 2.482 33.452-9.628 35.934-26.9C80.503 136.388 160.012 65.415 256 65.415c44.073 0 84.572 14.889 116.833 40.003l-46.356 46.356c-6.85 6.849-8.835 17.073-5.162 26.007 3.673 8.933 12.408 14.69 22.037 14.69zm29.183 99.76c2.482-17.372-9.628-33.453-26.9-35.934-17.272-2.482-33.452 9.628-35.933 26.9-13.202 92.315-92.712 163.288-188.7 163.288-44.073 0-84.572-14.89-116.833-40.003l46.257-46.257c6.85-6.849 8.835-17.073 5.162-26.007-3.673-8.933-12.408-14.69-22.037-14.69H25.71a23.766 23.766 0 0 0-23.823 23.823V486.29c0 9.628 5.757 18.364 14.691 22.036s19.158 1.588 26.007-5.161l51.418-51.419c43.875 36.43 100.455 58.367 161.998 58.367 128.05 0 233.964-94.697 251.533-217.883z"/></svg>