<svg xmlns="http://www.w3.org/2000/svg" viewBox="0 0 512 512"><!--! Font Awesome Free 7.0.1 by @fontawesome - https://fontawesome.com License - https://fontawesome.com/license/free (Icons: CC BY 4.0, Fonts: SIL OFL 1.1, Code: MIT License) Copyright 2025 Fonticons, Inc.--><path fill="currentColor" d="M0 56.889c0-15.733 12.711-28.445 28.444-28.445h398.223c15.733 0 28.444 12.712 28.444 28.445S442.4 85.333 426.667 85.333h-7.111v28.623a156.3 156.3 0 0 1 35.555 5.688v45.067c-13.155-5.333-27.555-8.267-42.667-8.267-62.844 0-113.777 50.934-113.777 113.778v21.69c-.356.266-.623.532-.978.888-15.378-22.222-41.067-36.711-70.133-36.711-47.112 0-85.334 38.222-85.334 85.333v56.89c0 15.732-12.71 28.444-28.444 28.444H85.333c-15.733 0-28.444-12.712-28.444-28.445v-83.555c0-34.49-23.467-64.534-56.889-72.89v-99.555h35.556V85.422h-7.112C12.711 85.333 0 72.622 0 56.89m376.889 60.978V85.333h-71.111v56.89h16.71a156.1 156.1 0 0 1 54.4-24.356M192 85.333v56.89h71.111v-56.89zm-42.667 0h-71.11v56.89h71.11zM440.89 270.311c0-15.733-12.711-28.444-28.445-28.444S384 254.577 384 270.31v42.578h56.889zm-128 85.245c0-18.578 11.911-34.4 28.444-40.267V270.31c0-39.289 31.823-71.111 71.111-71.111 39.29 0 71.112 31.822 71.112 71.111v44.978C500.089 321.156 512 336.978 512 355.556v85.333c0 23.555-19.111 42.667-42.667 42.667H355.556c-23.556 0-42.667-19.112-42.667-42.667z"/></svg>