<svg xmlns="http://www.w3.org/2000/svg" viewBox="0 0 512 512"><!--! Font Awesome Free 7.0.1 by @fontawesome - https://fontawesome.com License - https://fontawesome.com/license/free (Icons: CC BY 4.0, Fonts: SIL OFL 1.1, Code: MIT License) Copyright 2025 Fonticons, Inc.--><path fill="currentColor" d="M251.36 53.84C247.28 60.88 236.8 80.48 236.8 96c0 10.64 8.56 19.2 19.2 19.2s19.2-8.56 19.2-19.2c0-15.52-10.48-35.12-14.56-42.16-.96-1.68-2.72-2.64-4.64-2.64s-3.68.96-4.64 2.64m-230.4 38.4C16.88 99.28 6.4 118.88 6.4 134.4c0 10.64 8.56 19.2 19.2 19.2s19.2-8.56 19.2-19.2c0-15.52-10.48-35.12-14.56-42.16-.96-1.68-2.72-2.64-4.64-2.64s-3.68.96-4.64 2.64M70.4 134.4c0 10.64 8.56 19.2 19.2 19.2s19.2-8.56 19.2-19.2c0-15.52-10.48-35.12-14.56-42.16-.96-1.68-2.72-2.64-4.64-2.64s-3.68.96-4.64 2.64c-4.08 7.04-14.56 26.64-14.56 42.16m65.76-42.16c-4.08 7.04-14.56 26.64-14.56 42.16 0 10.64 8.56 19.2 19.2 19.2s19.2-8.56 19.2-19.2c0-15.52-10.48-35.12-14.56-42.16-.96-1.68-2.72-2.64-4.64-2.64s-3.68.96-4.64 2.64m36.64 42.16c0 10.64 8.56 19.2 19.2 19.2s19.2-8.56 19.2-19.2c0-15.52-10.48-35.12-14.56-42.16-.96-1.68-2.72-2.64-4.64-2.64s-3.68.96-4.64 2.64c-4.08 7.04-14.56 26.64-14.56 42.16m142.56-42.16c-4.08 7.04-14.56 26.64-14.56 42.16 0 10.64 8.56 19.2 19.2 19.2s19.2-8.56 19.2-19.2c0-15.52-10.48-35.12-14.56-42.16-.96-1.68-2.72-2.64-4.64-2.64s-3.68.96-4.64 2.64M352 134.4c0 10.64 8.56 19.2 19.2 19.2s19.2-8.56 19.2-19.2c0-15.52-10.48-35.12-14.56-42.16-.96-1.68-2.72-2.64-4.64-2.64s-3.68.96-4.64 2.64C362.48 99.28 352 118.88 352 134.4m65.76-42.16c-4.08 7.04-14.56 26.64-14.56 42.16 0 10.64 8.56 19.2 19.2 19.2s19.2-8.56 19.2-19.2c0-15.52-10.48-35.12-14.56-42.16-.96-1.68-2.72-2.64-4.64-2.64s-3.68.96-4.64 2.64m49.44 42.16c0 10.64 8.56 19.2 19.2 19.2s19.2-8.56 19.2-19.2c0-15.52-10.48-35.12-14.56-42.16-.96-1.68-2.72-2.64-4.64-2.64s-3.68.96-4.64 2.64c-4.08 7.04-14.56 26.64-14.56 42.16M89.6 179.2c-7.04 0-12.8 5.76-12.8 12.8v89.6h25.6V192c0-7.04-5.76-12.8-12.8-12.8m51.2 0c-7.04 0-12.8 5.76-12.8 12.8v89.6h25.6V192c0-7.04-5.76-12.8-12.8-12.8m51.2 0c-7.04 0-12.8 5.76-12.8 12.8v89.6h25.6V192c0-7.04-5.76-12.8-12.8-12.8m128 0c-7.04 0-12.8 5.76-12.8 12.8v89.6h25.6V192c0-7.04-5.76-12.8-12.8-12.8m51.2 0c-7.04 0-12.8 5.76-12.8 12.8v89.6H384V192c0-7.04-5.76-12.8-12.8-12.8m51.2 0c-7.04 0-12.8 5.76-12.8 12.8v89.6h25.6V192c0-7.04-5.76-12.8-12.8-12.8m-140.8-12.8c0-14.16-11.44-25.6-25.6-25.6s-25.6 11.44-25.6 25.6v140.8H76.8c-14.16 0-25.6-11.44-25.6-25.6v-76.8c0-14.16-11.44-25.6-25.6-25.6S0 190.64 0 204.8v76.8c0 42.4 34.4 76.8 76.8 76.8h153.6v51.2H128c-14.16 0-25.6 11.44-25.6 25.6s11.44 25.6 25.6 25.6h256c14.16 0 25.6-11.44 25.6-25.6s-11.44-25.6-25.6-25.6H281.6v-51.2h153.6c42.4 0 76.8-34.4 76.8-76.8v-76.8c0-14.16-11.44-25.6-25.6-25.6s-25.6 11.44-25.6 25.6v76.8c0 14.16-11.44 25.6-25.6 25.6H281.6z"/></svg>