<svg xmlns="http://www.w3.org/2000/svg" viewBox="0 0 512 512"><!--! Font Awesome Free 7.0.1 by @fontawesome - https://fontawesome.com License - https://fontawesome.com/license/free (Icons: CC BY 4.0, Fonts: SIL OFL 1.1, Code: MIT License) Copyright 2025 Fonticons, Inc.--><path fill="currentColor" d="M135.53 22.588A22.534 22.534 0 0 1 158.117 0h195.764a22.534 22.534 0 0 1 22.589 22.588 22.534 22.534 0 0 1-22.589 22.588H158.118a22.534 22.534 0 0 1-22.589-22.588m-30.118 128c0-33.223 27.012-60.235 60.235-60.235h180.706c33.223 0 60.235 27.012 60.235 60.235v301.177c0 33.223-27.012 60.235-60.235 60.235H165.647c-33.223 0-60.235-27.012-60.235-60.235zm105.412 30.118h-39.718a5.463 5.463 0 0 0-5.459 5.459c0 30.211 24.47 54.776 54.777 54.776h71.152c30.212 0 54.777-24.47 54.777-54.776a5.463 5.463 0 0 0-5.459-5.46h-39.718c-17.976 0-34.164 7.907-45.176 20.424-11.012-12.517-27.2-20.423-45.176-20.423M256 291.482c-11.012-12.517-27.2-20.423-45.176-20.423h-39.718a5.463 5.463 0 0 0-5.459 5.459c0 30.211 24.47 54.776 54.777 54.776h71.152c30.212 0 54.777-24.47 54.777-54.776a5.463 5.463 0 0 0-5.459-5.46h-39.718c-17.976 0-34.164 7.907-45.176 20.424m-45.176 69.93h-39.718a5.463 5.463 0 0 0-5.459 5.459c0 30.211 24.47 54.776 54.777 54.776h20.517v30.118c0 8.282 6.777 15.059 15.059 15.059s15.059-6.777 15.059-15.06v-30.117h20.517c30.212 0 54.777-24.47 54.777-54.776a5.463 5.463 0 0 0-5.459-5.46h-39.718c-17.976 0-34.164 7.907-45.176 20.424-11.012-12.517-27.2-20.423-45.176-20.423"/></svg>