<svg xmlns="http://www.w3.org/2000/svg" viewBox="0 0 512 512"><!--! Font Awesome Free 7.0.1 by @fontawesome - https://fontawesome.com License - https://fontawesome.com/license/free (Icons: CC BY 4.0, Fonts: SIL OFL 1.1, Code: MIT License) Copyright 2025 Fonticons, Inc.--><path fill="currentColor" d="M193.485.102a24.32 24.32 0 0 0-24.376 24.376 24.32 24.32 0 0 0 24.376 24.376h32.502V74.55C116.294 86.637 30.978 179.672 30.978 292.615 30.978 413.785 129.193 512 250.363 512s219.385-98.215 219.385-219.385c0-40.424-10.97-78.308-30.064-110.911l28.642-28.642c12.696-12.696 12.696-33.314 0-46.01s-33.314-12.696-46.01 0l-23.767 23.766c-33.415-30.673-76.378-51.088-123.911-56.37V48.753h32.501a24.32 24.32 0 0 0 24.376-24.376A24.32 24.32 0 0 0 307.14 0H193.384zm81.254 186.883v105.63a24.32 24.32 0 0 1-24.376 24.376 24.32 24.32 0 0 1-24.376-24.376v-105.63a24.32 24.32 0 0 1 24.376-24.376 24.32 24.32 0 0 1 24.376 24.376"/></svg>