<svg xmlns="http://www.w3.org/2000/svg" viewBox="0 0 512 512"><!--! Font Awesome Free 7.0.1 by @fontawesome - https://fontawesome.com License - https://fontawesome.com/license/free (Icons: CC BY 4.0, Fonts: SIL OFL 1.1, Code: MIT License) Copyright 2025 Fonticons, Inc.--><path fill="currentColor" d="M3.18 73.143c0-13.118 10.634-23.851 23.851-23.851h47.702a23.794 23.794 0 0 1 23.85 23.85v103.355h23.852a23.794 23.794 0 0 1 23.85 23.85 23.794 23.794 0 0 1-23.85 23.852H27.03a23.794 23.794 0 0 1-23.85-23.851 23.794 23.794 0 0 1 23.85-23.851h23.851V96.994h-23.85A23.794 23.794 0 0 1 3.18 73.143m30.211 227.776c11.33-8.546 25.143-13.118 39.354-13.118h4.87c33.49 0 60.72 27.23 60.72 60.72 0 19.479-9.341 37.665-25.043 49.094L89.44 415.006h32.994a23.794 23.794 0 0 1 23.85 23.851 23.794 23.794 0 0 1-23.85 23.851H32.298c-16.1 0-29.118-13.019-29.118-29.118a29.05 29.05 0 0 1 12.025-23.553l70.062-50.981c3.379-2.485 5.367-6.36 5.367-10.534 0-7.156-5.864-13.019-13.02-13.019h-4.869c-3.875 0-7.652 1.292-10.733 3.578l-20.67 15.503c-10.535 7.95-25.441 5.764-33.392-4.77-7.95-10.534-5.764-25.441 4.77-33.392zM225.79 65.193h254.41c17.59 0 31.801 14.21 31.801 31.8s-14.211 31.802-31.801 31.802h-254.41c-17.59 0-31.801-14.211-31.801-31.801s14.21-31.801 31.8-31.801m0 159.006h254.41c17.59 0 31.801 14.21 31.801 31.801s-14.211 31.801-31.801 31.801h-254.41c-17.59 0-31.801-14.21-31.801-31.801s14.21-31.801 31.8-31.801m0 159.006h254.41c17.59 0 31.801 14.211 31.801 31.801s-14.211 31.801-31.801 31.801h-254.41c-17.59 0-31.801-14.21-31.801-31.8s14.21-31.802 31.8-31.802"/></svg>