<svg xmlns="http://www.w3.org/2000/svg" viewBox="0 0 512 512"><!--! Font Awesome Free 7.0.1 by @fontawesome - https://fontawesome.com License - https://fontawesome.com/license/free (Icons: CC BY 4.0, Fonts: SIL OFL 1.1, Code: MIT License) Copyright 2025 Fonticons, Inc.--><path fill="currentColor" d="M391.253 485.251c-66.662 0-120.747-54.084-120.747-120.747s54.085-120.746 120.747-120.746S512 297.842 512 364.504c0 66.663-54.085 120.747-120.747 120.747M200.573 34.547c10.23-7.798 24.905-7.295 34.548 1.677l182.462 169.381a160 160 0 0 0-26.246-2.18c-65.908 0-122.592 39.578-147.496 96.262a40.1 40.1 0 0 0-13.5-2.348H203.51c-22.221 0-40.25 18.028-40.25 40.249v80.498h76.222a157.6 157.6 0 0 0 21.13 40.249l-164.517.084c-29.6 0-53.665-24.066-53.665-53.666v-147.58H29.013a26.86 26.86 0 0 1-24.988-17.021c-4.025-10.23-1.342-21.97 6.708-29.432L198.561 36.308l2.013-1.677zM440.978 314.78c-5.198-5.199-13.751-5.199-18.95 0l-30.774 30.774-30.773-30.774c-5.2-5.199-13.752-5.199-18.951 0s-5.199 13.752 0 18.95l30.774 30.774-30.774 30.774c-5.199 5.199-5.199 13.752 0 18.95 5.199 5.2 13.752 5.2 18.95 0l30.774-30.773 30.774 30.774c5.199 5.198 13.752 5.198 18.95 0 5.2-5.2 5.2-13.752 0-18.95l-30.773-30.775 30.773-30.773c5.2-5.2 5.2-13.752 0-18.95"/></svg>