<svg xmlns="http://www.w3.org/2000/svg" viewBox="0 0 512 512"><!--! Font Awesome Free 7.0.1 by @fontawesome - https://fontawesome.com License - https://fontawesome.com/license/free (Icons: CC BY 4.0, Fonts: SIL OFL 1.1, Code: MIT License) Copyright 2025 Fonticons, Inc.--><path fill="currentColor" d="M132.876 48.797c28.565 0 51.79 23.224 51.79 51.79s-23.225 51.791-51.79 51.791c-28.566 0-51.791-23.225-51.791-51.79 0-28.567 23.225-51.791 51.79-51.791M74.61 437.227V372.49H60.207c-8.82 0-15.052-8.66-12.3-17.075l25.247-75.582L49.93 310.42c-8.66 11.41-24.925 13.595-36.254 5.017C2.346 306.86 0 290.514 8.659 279.184l47.663-62.877c18.127-23.953 46.531-38.034 76.554-38.034 30.022 0 58.426 14.081 76.553 38.034l47.663 62.877c8.66 11.41 6.393 27.676-5.017 36.254s-27.675 6.393-36.253-5.017l-23.225-30.59 25.167 75.583c2.832 8.416-3.48 17.075-12.3 17.075h-14.405v64.738c0 14.323-11.572 25.895-25.895 25.895s-25.895-11.572-25.895-25.895V372.49H126.32v64.738c0 14.323-11.572 25.895-25.896 25.895-14.323 0-25.895-11.572-25.895-25.895zm317.218-388.43c28.566 0 51.791 23.224 51.791 51.79s-23.225 51.791-51.79 51.791c-28.567 0-51.791-23.225-51.791-51.79 0-28.567 23.224-51.791 51.79-51.791m-6.474 310.744v77.686c0 14.323-11.572 25.895-25.895 25.895s-25.895-11.572-25.895-25.895V291.97l-10.44 16.59c-7.606 12.138-23.629 15.699-35.686 8.092-12.058-7.607-15.7-23.63-8.093-35.687l41.837-66.438c14.243-22.578 39.086-36.334 65.71-36.334h9.954c26.704 0 51.547 13.676 65.709 36.334l41.837 66.519c7.607 12.138 3.965 28.08-8.092 35.687s-28.08 3.965-35.687-8.093l-10.44-16.589v145.257c0 14.323-11.571 25.895-25.895 25.895s-25.895-11.572-25.895-25.895v-77.686h-12.948z"/></svg>