<svg xmlns="http://www.w3.org/2000/svg" viewBox="0 0 512 512"><!--! Font Awesome Free 7.0.1 by @fontawesome - https://fontawesome.com License - https://fontawesome.com/license/free (Icons: CC BY 4.0, Fonts: SIL OFL 1.1, Code: MIT License) Copyright 2025 Fonticons, Inc.--><path fill="currentColor" d="M438.857 0C479.2 0 512 32.8 512 73.143v365.714C512 479.2 479.2 512 438.857 512H73.143C32.8 512 0 479.2 0 438.857V73.143C0 32.8 32.8 0 73.143 0zm-48 129.943c-12.228-8.914-29.371-6.172-38.286 6.057L216.114 323.657l-59.543-59.543c-10.742-10.743-28.114-10.743-38.742 0-10.629 10.743-10.743 28.115 0 38.743l82.285 82.286a27.6 27.6 0 0 0 21.486 8c7.886-.572 15.314-4.686 20-11.2l155.314-213.714c8.915-12.229 6.172-29.372-6.057-38.286"/></svg>