<svg xmlns="http://www.w3.org/2000/svg" viewBox="0 0 512 512"><!--! Font Awesome Free 7.0.1 by @fontawesome - https://fontawesome.com License - https://fontawesome.com/license/free (Icons: CC BY 4.0, Fonts: SIL OFL 1.1, Code: MIT License) Copyright 2025 Fonticons, Inc.--><path fill="currentColor" d="M25.6 146.76C10.32 137.96 0 121.4 0 102.44c0-28.24 22.96-51.2 51.2-51.2 18.96 0 35.52 10.32 44.32 25.6H262.8c8.88-15.28 25.36-25.6 44.32-25.6 28.24 0 51.2 22.96 51.2 51.2 0 18.96-10.32 35.52-25.6 44.32v90.48c15.28 8.88 25.6 25.36 25.6 44.32 0 28.24-22.96 51.2-51.2 51.2-18.96 0-35.52-10.32-44.32-25.6H95.52c-8.88 15.28-25.36 25.6-44.32 25.6-28.24 0-51.2-22.96-51.2-51.2 0-18.96 10.32-35.52 25.6-44.32zm69.92-18.72a51.24 51.24 0 0 1-18.72 18.72v90.48a51.24 51.24 0 0 1 18.72 18.72H262.8a51.24 51.24 0 0 1 18.72-18.72v-90.48a51.24 51.24 0 0 1-18.72-18.72zM435.2 274.76a51.24 51.24 0 0 1-18.72-18.72h-23.36c-4.24-14.16-11.84-26.8-21.92-37.12v-14.08h45.28c8.88-15.28 25.36-25.6 44.32-25.6 28.24 0 51.2 22.96 51.2 51.2 0 18.96-10.32 35.52-25.6 44.32v90.48c15.28 8.88 25.6 25.36 25.6 44.32 0 28.24-22.96 51.2-51.2 51.2-18.96 0-35.52-10.32-44.32-25.6H249.2c-8.88 15.28-25.36 25.6-44.32 25.6-28.24 0-51.2-22.96-51.2-51.2 0-18.96 10.32-35.52 25.6-44.32v-19.68h51.2v19.68a51.24 51.24 0 0 1 18.72 18.72h167.28a51.24 51.24 0 0 1 18.72-18.72z"/></svg>