<svg xmlns="http://www.w3.org/2000/svg" viewBox="0 0 512 512"><!--! Font Awesome Free 7.0.1 by @fontawesome - https://fontawesome.com License - https://fontawesome.com/license/free (Icons: CC BY 4.0, Fonts: SIL OFL 1.1, Code: MIT License) Copyright 2025 Fonticons, Inc.--><path fill="currentColor" d="M189.13 63.704V23.177a20.215 20.215 0 0 0-20.265-20.264 20.215 20.215 0 0 0-20.263 20.264v40.527a20.215 20.215 0 0 0 20.263 20.264 20.215 20.215 0 0 0 20.264-20.264M20.263 192.042h40.528a20.215 20.215 0 0 0 20.263-20.264 20.215 20.215 0 0 0-20.263-20.263H20.264A20.215 20.215 0 0 0 0 171.778a20.215 20.215 0 0 0 20.264 20.264m210.66-82.322c7.936 7.937 20.77 7.937 28.622 0l28.623-28.622c7.937-7.937 7.937-20.77 0-28.623-7.937-7.852-20.77-7.937-28.623 0l-28.623 28.538c-7.936 7.937-7.936 20.77 0 28.623zM78.1 291.25l28.623-28.622c7.937-7.937 7.937-20.77 0-28.623-7.937-7.852-20.77-7.936-28.623 0l-28.622 28.539c-7.937 7.936-7.937 20.77 0 28.622 7.936 7.852 20.77 7.937 28.622 0zM49.478 52.39c-7.937 7.937-7.937 20.77 0 28.623L78.1 109.636c7.937 7.937 20.77 7.937 28.623 0 7.852-7.937 7.937-20.77 0-28.623L78.1 52.391a20.18 20.18 0 0 0-28.622 0m241.73 145.816 128.423 34.448c5.403 1.436 9.372 6.164 9.963 11.737l6.079 62.48-195.462-52.349 36.475-51.081c3.293-4.56 9.034-6.67 14.522-5.235M182.037 243.04l-1.773 2.448c-18.322 4.644-33.689 18.829-38.924 38.417-3.461 13.087-10.47 39.177-20.939 78.27l-7.008 26.089c-3.884 14.438 4.728 29.214 19.082 33.097l13.087 3.462c14.438 3.884 29.214-4.728 33.098-19.082l7.008-26.09 234.891 62.903-7.008 26.09c-3.883 14.438 4.729 29.214 19.082 33.097l13.087 3.462c14.438 3.884 29.214-4.728 33.098-19.082 3.462-13.087 10.47-39.176 20.94-78.269l7.007-26.09c5.235-19.588-.929-39.514-14.522-52.77l-.254-3.04-8.443-86.965c-2.702-28.032-22.543-51.42-49.73-58.68l-128.592-34.28c-27.187-7.262-56.063 3.039-72.443 26.005l-50.828 71.092zm41.119 48.802c9.456 2.364 16.886 9.625 19.504 19.081 2.533 9.457-.17 19.504-7.093 26.343-6.923 6.84-17.055 9.457-26.427 6.755-9.457-2.364-16.887-9.625-19.504-19.082-2.533-9.456.169-19.504 7.092-26.343 6.924-6.839 17.056-9.456 26.428-6.754m175.704 75.06c2.364-9.456 9.625-16.886 19.082-19.504 9.456-2.533 19.504.17 26.343 7.093s9.456 17.055 6.755 26.427c-2.365 9.457-9.626 16.887-19.082 19.504-9.457 2.533-19.504-.169-26.343-7.092-6.84-6.924-9.457-17.056-6.755-26.428"/></svg>