<svg xmlns="http://www.w3.org/2000/svg" viewBox="0 0 512 512"><!--! Font Awesome Free 7.0.1 by @fontawesome - https://fontawesome.com License - https://fontawesome.com/license/free (Icons: CC BY 4.0, Fonts: SIL OFL 1.1, Code: MIT License) Copyright 2025 Fonticons, Inc.--><path fill="currentColor" d="M38.259 8.287C29.972 0 16.573 0 8.375 8.287.176 16.573.088 29.972 8.287 38.259L473.74 503.713c8.287 8.287 21.686 8.287 29.884 0 8.199-8.286 8.287-21.685 0-29.884l-77.135-77.135c15.163-2.115 26.887-15.25 26.887-31.03 0-7.14-2.38-14.017-6.876-19.57l-8.639-10.755c-26.358-33.146-40.815-74.314-40.815-116.716v-19.13c0-68.231-48.485-125.179-112.838-138.226v-2.82c0-15.604-12.606-28.21-28.209-28.21s-28.21 12.606-28.21 28.21v2.82c-34.027 6.876-63.647 26.094-83.922 52.628zm76.694 210.247c0 42.403-14.457 83.57-40.903 116.717l-8.64 10.755c-4.407 5.553-6.876 12.43-6.876 19.57 0 17.278 14.017 31.295 31.295 31.295h207.427L114.865 214.479v3.967zM256 481.587c26.27 0 48.397-17.984 54.656-42.314H201.344c6.26 24.33 28.386 42.314 54.656 42.314"/></svg>