<svg xmlns="http://www.w3.org/2000/svg" viewBox="0 0 512 512"><!--! Font Awesome Free 7.0.1 by @fontawesome - https://fontawesome.com License - https://fontawesome.com/license/free (Icons: CC BY 4.0, Fonts: SIL OFL 1.1, Code: MIT License) Copyright 2025 Fonticons, Inc.--><path fill="currentColor" d="M0 438.857C0 479.2 32.8 512 73.143 512h365.714C479.2 512 512 479.2 512 438.857V73.143C512 32.8 479.2 0 438.857 0H73.143C32.8 0 0 32.8 0 73.143zM146.286 256c0-7.657 3.2-14.857 8.8-20.114l128-118.857c8-7.429 19.657-9.372 29.6-5.029s16.457 14.286 16.457 25.143v237.714c0 10.857-6.514 20.8-16.457 25.143s-21.6 2.4-29.6-5.029l-128-118.857c-5.6-5.143-8.8-12.457-8.8-20.114"/></svg>