<svg xmlns="http://www.w3.org/2000/svg" viewBox="0 0 512 512"><!--! Font Awesome Free 7.0.1 by @fontawesome - https://fontawesome.com License - https://fontawesome.com/license/free (Icons: CC BY 4.0, Fonts: SIL OFL 1.1, Code: MIT License) Copyright 2025 Fonticons, Inc.--><path fill="currentColor" d="M165.647 0c-14.4 0-26.73 10.165-29.553 24.188l-27.67 138.636c-1.977 9.882-3.012 19.952-3.012 30.117v2.824c0 72.847 51.764 133.647 120.47 147.576v108.424h-60.235c-16.659 0-30.118 13.459-30.118 30.117 0 16.66 13.46 30.118 30.118 30.118h180.706c16.659 0 30.118-13.459 30.118-30.118s-13.46-30.117-30.118-30.117h-60.235V343.34c68.706-13.93 120.47-74.73 120.47-147.576v-2.824c0-10.07-1.035-20.141-3.012-30.117l-27.67-138.636C373.082 10.165 360.753 0 346.353 0zm1.788 174.682 22.87-114.447h131.39l22.87 114.447c1.223 6.024 1.788 12.142 1.788 18.26v2.823c0 49.882-40.47 90.353-90.353 90.353s-90.353-40.47-90.353-90.353v-2.824c0-6.117.565-12.235 1.788-18.259"/></svg>