<svg xmlns="http://www.w3.org/2000/svg" viewBox="0 0 512 512"><!--! Font Awesome Free 7.0.1 by @fontawesome - https://fontawesome.com License - https://fontawesome.com/license/free (Icons: CC BY 4.0, Fonts: SIL OFL 1.1, Code: MIT License) Copyright 2025 Fonticons, Inc.--><path fill="currentColor" d="M0 113.778c0-31.378 25.511-56.89 56.889-56.89H455.11C486.49 56.889 512 82.4 512 113.779zm0 42.666h512v241.778c0 31.378-25.511 56.89-56.889 56.89H56.89C25.51 455.111 0 429.6 0 398.221zm219.822 241.778c17.956 0 31.378-17.244 19.911-31.11-13.066-15.734-32.8-25.779-54.844-25.779H128c-22.044 0-41.778 10.045-54.844 25.778-11.467 13.867 1.955 31.111 19.91 31.111h126.667zm-63.378-92.444c27.467 0 49.778-22.311 49.778-49.778s-22.31-49.778-49.778-49.778c-27.466 0-49.777 22.311-49.777 49.778s22.31 49.778 49.777 49.778M320 213.333a21.28 21.28 0 0 0-21.333 21.334A21.28 21.28 0 0 0 320 256h99.556a21.28 21.28 0 0 0 21.333-21.333 21.28 21.28 0 0 0-21.333-21.334zm0 85.334A21.28 21.28 0 0 0 298.667 320 21.28 21.28 0 0 0 320 341.333h99.556A21.28 21.28 0 0 0 440.889 320a21.28 21.28 0 0 0-21.333-21.333z"/></svg>