<svg xmlns="http://www.w3.org/2000/svg" viewBox="0 0 512 512"><!--! Font Awesome Free 7.0.1 by @fontawesome - https://fontawesome.com License - https://fontawesome.com/license/free (Icons: CC BY 4.0, Fonts: SIL OFL 1.1, Code: MIT License) Copyright 2025 Fonticons, Inc.--><path fill="currentColor" d="M81.362 21.83A21.777 21.777 0 0 1 103.192 0h305.617a21.777 21.777 0 0 1 21.83 21.83v29.106a21.777 21.777 0 0 1-21.83 21.83 21.777 21.777 0 0 1-21.83-21.83V43.66h-109.15v58.212h36.384c48.207 0 87.32 39.112 87.32 87.32v145.532c0 28.379-13.554 53.665-34.565 69.582l58.486 69.128c7.822 9.187 6.64 23.012-2.547 30.744s-23.012 6.64-30.744-2.547l-67.854-80.134q-4.911.546-10.096.546H197.787q-5.184 0-10.096-.546l-67.854 80.134c-7.823 9.187-21.557 10.369-30.744 2.547-9.187-7.823-10.37-21.557-2.547-30.744l58.486-69.128c-21.011-15.917-34.564-41.203-34.564-69.582V189.192c0-48.208 39.112-87.32 87.32-87.32h36.382V43.66H125.021v7.276a21.777 21.777 0 0 1-21.83 21.83 21.777 21.777 0 0 1-21.83-21.83zm116.425 138.255c-16.1 0-29.106 13.007-29.106 29.107v29.106c0 16.1 13.007 29.107 29.106 29.107h116.426c16.1 0 29.106-13.007 29.106-29.107v-29.106c0-16.1-13.007-29.107-29.106-29.107zm29.107 174.639c0-16.1-13.007-29.107-29.107-29.107s-29.106 13.007-29.106 29.107 13.007 29.106 29.106 29.106 29.107-13.007 29.107-29.106m87.319 29.106c16.1 0 29.106-13.007 29.106-29.106s-13.007-29.107-29.106-29.107-29.107 13.007-29.107 29.107 13.007 29.106 29.107 29.106"/></svg>