<svg xmlns="http://www.w3.org/2000/svg" viewBox="0 0 512 512"><!--! Font Awesome Free 7.0.1 by @fontawesome - https://fontawesome.com License - https://fontawesome.com/license/free (Icons: CC BY 4.0, Fonts: SIL OFL 1.1, Code: MIT License) Copyright 2025 Fonticons, Inc.--><path fill="currentColor" d="M301.313 0c28.03 0 50.8 22.77 50.8 50.8 0 28.032-22.77 50.802-50.8 50.802-28.032 0-50.801-22.77-50.801-50.801S273.282 0 301.312 0M180.75 188.689a7.21 7.21 0 0 0-6.713 4.536l-19.957 49.803c-5.987 14.877-22.86 22.134-37.738 16.147s-22.135-22.86-16.147-37.738l19.866-49.803c9.98-24.765 33.928-41.003 60.69-41.003h88.266c25.854 0 49.712 13.698 62.684 36.014l29.755 51.073h55.881c16.057 0 29.03 12.972 29.03 29.029s-12.973 29.029-29.03 29.029h-55.88c-20.684 0-39.734-10.977-50.167-28.848l-9.071-15.512-18.778 63.864 68.4 20.502c25.128 7.53 37.918 35.379 27.305 59.419l-51.345 115.572c-6.532 14.695-23.677 21.227-38.283 14.695-14.605-6.531-21.227-23.676-14.695-38.282l44.632-100.513-86.997-26.126c-29.664-8.89-47.172-39.643-39.643-69.67l20.593-82.188h-32.567zm-7.257 164.195c12.065 13.517 27.85 23.859 46.446 29.392l4.264 1.27-6.26 17.509c-5.26 14.786-14.514 27.94-26.579 37.919l-74.75 61.596c-12.337 10.16-30.662 8.436-40.822-3.901s-8.437-30.662 3.9-40.822l74.75-61.596c4.083-3.357 7.076-7.711 8.89-12.61z"/></svg>