<svg xmlns="http://www.w3.org/2000/svg" viewBox="0 0 512 512"><!--! Font Awesome Free 7.0.1 by @fontawesome - https://fontawesome.com License - https://fontawesome.com/license/free (Icons: CC BY 4.0, Fonts: SIL OFL 1.1, Code: MIT License) Copyright 2025 Fonticons, Inc.--><path fill="currentColor" d="m427.111 37.6-196.8 131.289c-25.867 17.244-42.311 45.244-44.978 75.822 55.378 11.378 99.023 55.022 110.49 110.489 30.666-2.667 58.577-19.111 75.821-44.978l131.2-196.889C508.8 104.356 512 93.867 512 83.023c0-30.134-24.444-54.579-54.578-54.579a54.94 54.94 0 0 0-30.31 9.156M256 384c0-55.022-44.533-99.556-99.556-99.556S56.89 328.978 56.89 384c0 3.467.178 6.933.533 10.311 1.6 15.556-9.066 32.356-24.71 32.356h-4.268C12.711 426.667 0 439.377 0 455.11s12.711 28.445 28.444 28.445h128C211.467 483.556 256 439.022 256 384"/></svg>