<svg xmlns="http://www.w3.org/2000/svg" viewBox="0 0 512 512"><!--! Font Awesome Free 7.0.1 by @fontawesome - https://fontawesome.com License - https://fontawesome.com/license/free (Icons: CC BY 4.0, Fonts: SIL OFL 1.1, Code: MIT License) Copyright 2025 Fonticons, Inc.--><path fill="currentColor" d="M0 60.235C0 27.012 27.012 0 60.235 0h240.941c33.224 0 60.236 27.012 60.236 60.235v136.189c-33.6 2.729-64.47 14.682-90.353 33.317v-3.765c0-8.282-6.777-15.058-15.059-15.058h-30.118c-8.282 0-15.058 6.776-15.058 15.058v30.118c0 8.282 6.776 15.059 15.058 15.059h3.765a180.4 180.4 0 0 0-28.33 60.706c-1.788-.377-3.67-.47-5.552-.47h-30.118c-16.659 0-30.118 13.458-30.118 30.117V436.8h70.495c5.74 16.282 13.74 31.435 23.623 45.176l-169.412-.094C27.012 481.882 0 454.871 0 421.647zm105.412 30.118c-8.283 0-15.06 6.776-15.06 15.059v30.117c0 8.283 6.777 15.06 15.06 15.06h30.117c8.283 0 15.06-6.777 15.06-15.06v-30.117c0-8.283-6.777-15.06-15.06-15.06zm105.412 15.059v30.117c0 8.283 6.776 15.06 15.058 15.06H256c8.282 0 15.059-6.777 15.059-15.06v-30.117c0-8.283-6.777-15.06-15.059-15.06h-30.118c-8.282 0-15.058 6.777-15.058 15.06M105.412 210.824c-8.283 0-15.06 6.776-15.06 15.058V256c0 8.282 6.777 15.059 15.06 15.059h30.117c8.283 0 15.06-6.777 15.06-15.059v-30.118c0-8.282-6.777-15.058-15.06-15.058zm135.53 165.647c0-74.824 60.705-135.53 135.529-135.53 74.823 0 135.529 60.706 135.529 135.53C512 451.294 451.294 512 376.47 512c-74.823 0-135.529-60.706-135.529-135.53m132.423-63.342c-5.836 5.836-5.836 15.436 0 21.271l27.011 27.012h-84.14c-8.283 0-15.06 6.776-15.06 15.059s6.777 15.058 15.06 15.058h84.14l-27.011 27.012c-5.836 5.835-5.836 15.435 0 21.27 5.835 5.836 15.435 5.836 21.27 0l52.706-52.705c5.835-5.835 5.835-15.435 0-21.27l-52.706-52.707c-5.835-5.835-15.435-5.835-21.27 0"/></svg>