<svg xmlns="http://www.w3.org/2000/svg" viewBox="0 0 512 512"><!--! Font Awesome Free 7.0.1 by @fontawesome - https://fontawesome.com License - https://fontawesome.com/license/free (Icons: CC BY 4.0, Fonts: SIL OFL 1.1, Code: MIT License) Copyright 2025 Fonticons, Inc.--><path fill="currentColor" d="M310.044 56.889a85.45 85.45 0 0 0-11.377 42.667v14.222H56.889v199.11h241.778v56.89H56.889C25.51 369.778 0 344.267 0 312.888v-199.11c0-31.378 25.511-56.89 56.889-56.89zm-11.377 355.555a85.45 85.45 0 0 0 11.377 42.667H106.667a21.28 21.28 0 0 1-21.334-21.333 21.28 21.28 0 0 1 21.334-21.334zM384 56.89h85.333C492.89 56.889 512 76 512 99.556v312.888c0 23.556-19.111 42.667-42.667 42.667H384c-23.556 0-42.667-19.111-42.667-42.667V99.556c0-23.556 19.111-42.667 42.667-42.667m21.333 56.889A21.28 21.28 0 0 0 384 135.11a21.28 21.28 0 0 0 21.333 21.333H448a21.28 21.28 0 0 0 21.333-21.333A21.28 21.28 0 0 0 448 113.778zm0 85.333A21.28 21.28 0 0 0 384 220.444a21.28 21.28 0 0 0 21.333 21.334H448a21.28 21.28 0 0 0 21.333-21.334A21.28 21.28 0 0 0 448 199.111zm49.778 128c0-15.733-12.711-28.444-28.444-28.444-15.734 0-28.445 12.71-28.445 28.444s12.711 28.445 28.445 28.445 28.444-12.712 28.444-28.445"/></svg>