<svg xmlns="http://www.w3.org/2000/svg" viewBox="0 0 512 512"><!--! Font Awesome Free 7.0.1 by @fontawesome - https://fontawesome.com License - https://fontawesome.com/license/free (Icons: CC BY 4.0, Fonts: SIL OFL 1.1, Code: MIT License) Copyright 2025 Fonticons, Inc.--><path fill="currentColor" d="M192.038 95.969c0-17.704 14.302-32.007 32.006-32.007 17.703 0 32.006 14.303 32.006 32.007h96.019c17.703 0 32.006 14.303 32.006 32.006s-14.303 32.006-32.006 32.006H256.05v64.013h18.704c8.501 0 16.603 3.4 22.604 9.402L319.962 256h32.007C440.386 256 512 327.614 512 416.031c0 17.704-14.303 32.007-32.006 32.007H415.98c-17.703 0-32.006-14.303-32.006-32.007s-14.303-32.006-32.006-32.006h-36.107c-20.204 29.006-53.91 48.01-91.918 48.01s-71.714-19.004-91.918-48.01H32.006C14.303 384.025 0 369.722 0 352.019v-64.013C0 270.303 14.303 256 32.006 256h96.019l22.604-22.604c6.002-6.002 14.103-9.402 22.605-9.402h18.703V159.98H95.92c-17.704 0-32.007-14.303-32.007-32.006S78.315 95.969 96.02 95.969z"/></svg>