<svg xmlns="http://www.w3.org/2000/svg" viewBox="0 0 512 512"><!--! Font Awesome Free 7.0.1 by @fontawesome - https://fontawesome.com License - https://fontawesome.com/license/free (Icons: CC BY 4.0, Fonts: SIL OFL 1.1, Code: MIT License) Copyright 2025 Fonticons, Inc.--><path fill="currentColor" d="M413.466 206.708c0 45.615-14.808 87.752-39.752 121.938l125.814 125.913c12.422 12.422 12.422 32.596 0 45.019-12.422 12.422-32.596 12.422-45.019 0L328.696 373.665c-34.187 24.944-76.323 39.751-121.938 39.751C92.57 413.416.05 320.894.05 206.708S92.57 0 206.758 0s206.708 92.522 206.708 206.708m-110.31 16.894c9.34-9.341 9.34-24.447 0-33.689l-71.554-71.553c-9.341-9.341-24.447-9.341-33.689 0-9.242 9.342-9.342 24.447 0 33.69l30.807 30.807H127.255a23.794 23.794 0 0 0-23.851 23.851 23.794 23.794 0 0 0 23.85 23.851H228.72l-30.807 30.807c-9.342 9.342-9.342 24.448 0 33.69s24.447 9.342 33.69 0l71.552-71.553z"/></svg>