<svg xmlns="http://www.w3.org/2000/svg" viewBox="0 0 512 512"><!--! Font Awesome Free 7.0.1 by @fontawesome - https://fontawesome.com License - https://fontawesome.com/license/free (Icons: CC BY 4.0, Fonts: SIL OFL 1.1, Code: MIT License) Copyright 2025 Fonticons, Inc.--><path fill="currentColor" d="m171.345 21.236-8.436 25.31H69.82c-17.164 0-31.031 13.866-31.031 31.03 0 17.163 13.867 31.03 31.03 31.03h372.364c17.163 0 31.03-13.867 31.03-31.03 0-17.164-13.867-31.03-31.03-31.03H349.09l-8.436-25.31C336.388 8.533 324.558 0 311.175 0h-110.35c-13.383 0-25.213 8.533-29.48 21.236m270.837 133.916H69.818l20.46 313.309C91.83 492.994 112.195 512 136.729 512h238.545c24.533 0 44.897-19.006 46.448-43.54z"/></svg>