<svg xmlns="http://www.w3.org/2000/svg" viewBox="0 0 512 512"><!--! Font Awesome Free 7.0.1 by @fontawesome - https://fontawesome.com License - https://fontawesome.com/license/free (Icons: CC BY 4.0, Fonts: SIL OFL 1.1, Code: MIT License) Copyright 2025 Fonticons, Inc.--><path fill="currentColor" d="M256.048 71.807c-16.98 0-30.699 13.718-30.699 30.699 0 16.98 13.719 30.698 30.699 30.698s30.699-13.718 30.699-30.698-13.719-30.7-30.699-30.7m-92.097 30.699c0-50.846 41.252-92.097 92.097-92.097s92.097 41.251 92.097 92.097c0 40.1-25.615 74.252-61.398 86.82V436.74c60.342-13.719 105.72-66.866 107.35-130.95l-15.445 13.526c-9.594 8.347-24.08 7.387-32.522-2.206s-7.387-24.08 2.207-32.522l61.397-53.723c8.634-7.579 21.681-7.579 30.315 0l61.398 53.723c9.594 8.347 10.553 22.929 2.207 32.522s-22.928 10.553-32.522 2.206l-15.541-13.526C453.576 414.29 365.029 501.59 256.048 501.59S58.52 414.291 56.505 305.79l-15.541 13.622c-9.594 8.347-24.08 7.387-32.522-2.206s-7.387-24.08 2.207-32.522l61.397-53.723c8.635-7.579 21.682-7.579 30.316 0l61.397 53.723c9.594 8.347 10.553 22.929 2.207 32.522s-22.928 10.553-32.522 2.206L118 305.886c1.727 64.084 47.103 117.231 107.35 130.95V189.422c-35.783-12.664-61.398-46.72-61.398-86.82z"/></svg>