<svg xmlns="http://www.w3.org/2000/svg" viewBox="0 0 512 512"><!--! Font Awesome Free 7.0.1 by @fontawesome - https://fontawesome.com License - https://fontawesome.com/license/free (Icons: CC BY 4.0, Fonts: SIL OFL 1.1, Code: MIT License) Copyright 2025 Fonticons, Inc.--><path fill="currentColor" d="M0 99.556C0 76 19.111 56.889 42.667 56.889h369.777c23.556 0 42.667 19.111 42.667 42.667v72.355c-21.689-9.955-45.689-15.467-71.111-15.467-77.956 0-143.733 52.267-164.178 123.734-6.31-1.156-12.533-3.734-17.866-7.822L17.066 133.689C6.312 125.6 0 112.978 0 99.556M213.333 327.11c0 25.422 5.511 49.422 15.467 71.111H56.889C25.51 398.222 0 372.712 0 341.333v-167.11l176.356 132.266c11.2 8.355 23.91 13.689 37.066 15.911 0 1.6-.089 3.111-.089 4.711m42.667 0c0-70.667 57.333-128 128-128s128 57.333 128 128-57.333 128-128 128-128-57.333-128-128m179.022-54.133c-6.31-4.622-15.289-3.2-19.91 3.11L368 340.889l-23.822-23.821c-5.511-5.511-14.578-5.511-20.09 0-5.51 5.51-5.51 14.577 0 20.089l35.556 35.555a14.14 14.14 0 0 0 11.2 4.089c4.178-.356 7.912-2.489 10.4-5.778l56.89-78.222c4.622-6.311 3.2-15.289-3.112-19.822"/></svg>