<svg xmlns="http://www.w3.org/2000/svg" viewBox="0 0 512 512"><!--! Font Awesome Free 7.0.1 by @fontawesome - https://fontawesome.com License - https://fontawesome.com/license/free (Icons: CC BY 4.0, Fonts: SIL OFL 1.1, Code: MIT License) Copyright 2025 Fonticons, Inc.--><path fill="currentColor" d="M0 41.4a21.41 21.41 0 0 1 21.46-21.46h40.506c24.232 0 44.976 17.347 49.268 41.132l.358 1.788H278.98v91.294l-27.72-27.719c-8.404-8.405-21.996-8.405-30.311 0s-8.406 21.997 0 30.312l64.38 64.38c8.405 8.406 21.996 8.406 30.312 0l64.38-64.38c8.405-8.405 8.405-21.996 0-30.312s-21.997-8.405-30.312 0l-27.72 27.72V62.86h158.626c17.883 0 31.385 16.274 28.077 33.889L480.883 245.09c-5.097 27.093-28.703 46.676-56.243 46.676H153.17l4.561 25.305c1.878 10.193 10.73 17.615 21.102 17.615H407.74a21.41 21.41 0 0 1 21.46 21.46 21.41 21.41 0 0 1-21.46 21.46H178.923c-31.117 0-57.763-22.265-63.307-52.846l-46.586-256c-.626-3.397-3.577-5.901-7.064-5.901H21.46A21.41 21.41 0 0 1 0 41.4m143.067 407.74c0-23.695 19.224-42.92 42.92-42.92 23.695 0 42.92 19.225 42.92 42.92s-19.225 42.92-42.92 42.92c-23.696 0-42.92-19.225-42.92-42.92m200.293 0c0-23.695 19.225-42.92 42.92-42.92 23.696 0 42.92 19.225 42.92 42.92s-19.224 42.92-42.92 42.92c-23.695 0-42.92-19.225-42.92-42.92"/></svg>