<svg xmlns="http://www.w3.org/2000/svg" viewBox="0 0 512 512"><!--! Font Awesome Free 7.0.1 by @fontawesome - https://fontawesome.com License - https://fontawesome.com/license/free (Icons: CC BY 4.0, Fonts: SIL OFL 1.1, Code: MIT License) Copyright 2025 Fonticons, Inc.--><path fill="currentColor" d="M170.667 114.578c0-47.111 38.222-85.334 85.333-85.334s85.333 38.223 85.333 85.334v3.2c0 13.955-11.289 25.244-25.244 25.244H196c-13.956 0-25.244-11.289-25.244-25.244v-3.2zm307.2 11.378c9.422 12.533 6.844 30.4-5.69 39.822l-86.933 65.155c4.712 7.911 8.267 16.623 10.49 25.867h87.822c15.733 0 28.444 12.711 28.444 28.444 0 15.734-12.711 28.445-28.444 28.445h-85.334v28.444c0 2.311-.089 4.711-.178 7.023l74.134 55.555c12.533 9.422 15.11 27.289 5.689 39.822-9.423 12.534-27.29 15.111-39.823 5.69l-56.088-42.045c-20.623 39.289-59.112 67.733-104.623 74.578V278.133A21.28 21.28 0 0 0 256 256.8a21.28 21.28 0 0 0-21.333 21.333v204.623c-45.511-6.845-84-35.29-104.623-74.578l-56.088 42.044c-12.534 9.422-30.4 6.845-39.823-5.689-9.422-12.533-6.844-30.4 5.69-39.822l74.133-55.555c-.09-2.312-.178-4.623-.178-7.023V313.69H28.444C12.711 313.689 0 300.978 0 285.244S12.711 256.8 28.444 256.8h87.823c2.222-9.244 5.777-17.956 10.489-25.867l-86.934-65.155c-12.533-9.422-15.11-27.29-5.689-39.822 9.423-12.534 27.29-15.112 39.823-5.69l96.71 72.534c10.934-4.533 22.934-7.111 35.556-7.111h99.556c12.622 0 24.622 2.489 35.555 7.111l96.711-72.533c12.534-9.423 30.4-6.845 39.823 5.689"/></svg>