<svg xmlns="http://www.w3.org/2000/svg" viewBox="0 0 512 512"><!--! Font Awesome Free 7.0.1 by @fontawesome - https://fontawesome.com License - https://fontawesome.com/license/free (Icons: CC BY 4.0, Fonts: SIL OFL 1.1, Code: MIT License) Copyright 2025 Fonticons, Inc.--><path fill="currentColor" d="M125.28 88.24c6.32-12.64 1.2-28-11.44-34.32s-28-1.2-34.32 11.44L10.8 202.72A102.4 102.4 0 0 0 0 248.56V256c0 56.56 45.84 102.4 102.4 102.4h64v-.24c28.16-2.16 52.32-18.24 65.68-41.36 7.04-12.24 2.88-27.92-9.36-34.96s-27.92-2.88-34.96 9.36c-5.6 9.6-15.92 16-27.76 16-17.68 0-32-14.32-32-32s14.32-32 32-32c11.84 0 22.16 6.4 27.76 16 7.04 12.24 22.72 16.4 34.96 9.36s16.4-22.72 9.36-34.96c-10.24-17.68-26.88-31.28-46.72-37.68l64.64-17.6c13.6-3.68 21.68-17.76 18-31.44s-17.76-21.68-31.44-18l-80.56 22 65.28-54.4c10.88-9.04 12.32-25.2 3.28-36.08s-25.28-12.32-36.16-3.28l-81.52 67.92zm261.44 335.52c-6.32 12.64-1.2 28 11.44 34.32s28 1.2 34.32-11.44l68.72-137.36c7.12-14.24 10.8-29.92 10.8-45.76v-7.44c0-56.56-45.84-102.4-102.4-102.4h-64v.24c-28.16 2.16-52.32 18.24-65.68 41.36-7.12 12.24-2.88 27.92 9.36 34.96s27.92 2.88 34.96-9.36c5.6-9.6 15.92-16 27.76-16 17.68 0 32 14.32 32 32s-14.32 32-32 32c-11.84 0-22.16-6.4-27.76-16-7.12-12.24-22.72-16.4-34.96-9.36s-16.4 22.72-9.36 34.96c10.24 17.68 26.88 31.28 46.72 37.68L262 333.76c-13.68 3.68-21.68 17.76-18 31.44s17.76 21.68 31.44 18l80.56-22-65.28 54.4c-10.88 9.04-12.32 25.2-3.28 36.08s25.2 12.32 36.08 3.28l81.52-67.92-18.4 36.8z"/></svg>