<svg xmlns="http://www.w3.org/2000/svg" viewBox="0 0 512 512"><!--! Font Awesome Free 7.0.1 by @fontawesome - https://fontawesome.com License - https://fontawesome.com/license/free (Icons: CC BY 4.0, Fonts: SIL OFL 1.1, Code: MIT License) Copyright 2025 Fonticons, Inc.--><path fill="currentColor" d="M478.385 95.794c7.384-7.384 19.722-5.538 23.414 4.177C508.405 117.167 512 135.918 512 155.446c0 85.884-69.562 155.446-155.446 155.446-17.002 0-33.42-2.72-48.771-7.772L126.203 484.7C98.903 512 54.6 512 27.3 484.7s-27.3-71.602 0-98.903l181.58-181.58c-5.052-15.35-7.772-31.672-7.772-48.771C201.108 69.562 270.67 0 356.554 0c19.528 0 38.279 3.595 55.475 10.201 9.715 3.692 11.464 16.03 4.177 23.414l-86.175 86.176c-2.914 2.914-4.566 6.897-4.566 10.978v40.222c0 8.549 6.995 15.544 15.544 15.544h40.222c4.08 0 8.064-1.652 10.978-4.566z"/></svg>