<svg xmlns="http://www.w3.org/2000/svg" viewBox="0 0 512 512"><!--! Font Awesome Free 7.0.1 by @fontawesome - https://fontawesome.com License - https://fontawesome.com/license/free (Icons: CC BY 4.0, Fonts: SIL OFL 1.1, Code: MIT License) Copyright 2025 Fonticons, Inc.--><path fill="currentColor" d="M418.683 142.235C418.683 60.44 342.425 0 262.778 18.754L144.381 46.77c-19.431 4.52-31.407 24.064-26.888 43.496 4.52 19.431 24.064 31.52 43.496 26.887L279.386 89.25c34.23-8.021 66.994 17.85 66.994 52.985 0 19.883-10.846 38.185-28.244 47.788l-.79.452H66.202a27.05 27.05 0 0 0-27.114 27.114 27.05 27.05 0 0 0 27.114 27.114h379.594a27.05 27.05 0 0 0 27.114-27.114 27.05 27.05 0 0 0-27.114-27.114h-36.604c6.214-15.026 9.49-31.407 9.49-48.127zm27.114 138.506H66.203a27.05 27.05 0 0 0-27.114 27.114 27.05 27.05 0 0 0 27.114 27.114h37.62c-6.891 15.139-10.506 31.746-10.506 48.918 0 72.417 64.282 128.113 136.021 117.72l155.792-22.483c19.77-2.824 33.44-21.126 30.616-40.896-2.825-19.77-21.24-33.44-40.897-30.616l-155.905 22.482c-28.13 4.067-53.324-17.737-53.324-46.207 0-17.06 9.264-32.65 24.177-40.897l14.687-8.02h241.313a27.05 27.05 0 0 0 27.114-27.115 27.05 27.05 0 0 0-27.114-27.114"/></svg>