<svg xmlns="http://www.w3.org/2000/svg" viewBox="0 0 512 512"><!--! Font Awesome Free 7.0.1 by @fontawesome - https://fontawesome.com License - https://fontawesome.com/license/free (Icons: CC BY 4.0, Fonts: SIL OFL 1.1, Code: MIT License) Copyright 2025 Fonticons, Inc.--><path fill="currentColor" d="M256 0c35.286 0 63.975 28.689 63.975 63.975S291.286 127.95 256 127.95s-63.975-28.689-63.975-63.975S220.714 0 256 0m-31.988 159.938h63.976c35.286 0 63.975 28.688 63.975 63.975v47.98c0 17.694-14.295 31.988-31.988 31.988h-1.8l-11.095 99.461c-1.8 16.194-15.494 28.49-31.788 28.49h-38.684c-16.294 0-29.989-12.296-31.788-28.49l-11.096-99.46h-1.799c-17.693 0-31.987-14.295-31.987-31.988v-47.981c0-35.287 28.688-63.975 63.975-63.975zM412.34 400.044c-16.094-4.199-34.786-7.597-55.378-10.196l5.297-47.682c22.692 2.9 43.683 6.698 62.076 11.496 22.391 5.798 42.584 13.295 57.778 23.29 14.694 9.597 29.788 24.891 29.788 46.982s-15.094 37.386-29.788 46.982c-15.194 9.896-35.486 17.493-57.778 23.291C379.252 505.902 319.075 512 256 512s-123.252-6.098-168.334-17.793c-22.391-5.998-42.584-13.495-57.778-23.39C15.194 461.22.1 445.925.1 423.833c0-22.09 15.094-37.385 29.788-46.981 15.194-9.896 35.486-17.493 57.778-23.291 18.493-4.798 39.484-8.597 62.076-11.496l5.297 47.782c-20.592 2.599-39.284 6.097-55.378 10.196-56.578 14.594-56.578 32.887 0 47.481C139.545 457.821 195.424 463.72 256 463.72s116.455-5.898 156.339-16.194c56.578-14.594 56.578-32.887 0-47.481"/></svg>