<svg xmlns="http://www.w3.org/2000/svg" viewBox="0 0 512 512"><!--! Font Awesome Free 7.0.1 by @fontawesome - https://fontawesome.com License - https://fontawesome.com/license/free (Icons: CC BY 4.0, Fonts: SIL OFL 1.1, Code: MIT License) Copyright 2025 Fonticons, Inc.--><path fill="currentColor" d="M442.116 276.179c15.147 6.231 32.69.288 40.838-13.996l2.3-4.026C512 211.28 507.878 144.273 455.25 110.05c-120.787-78.607-277.617-78.607-398.404 0C4.218 144.273 0 211.376 26.841 258.157l2.301 4.026c8.148 14.284 25.595 20.227 40.837 13.996l78.512-32.306c13.324-5.464 21.473-19.076 20.035-33.455l-4.89-48.89c59.915-20.131 125.389-19.077 184.631 3.163l-4.601 45.727c-1.438 14.379 6.71 27.991 20.035 33.455l78.511 32.306zM41.221 357.854c0 16.967 13.708 30.675 30.676 30.675s30.676-13.708 30.676-30.675c0-16.968-13.709-30.676-30.676-30.676-16.968 0-30.676 13.708-30.676 30.676m92.027 0c0 16.967 13.709 30.675 30.676 30.675 16.968 0 30.676-13.708 30.676-30.675 0-16.968-13.708-30.676-30.676-30.676s-30.676 13.708-30.676 30.676m-61.351 61.351c-16.968 0-30.676 13.709-30.676 30.676 0 16.968 13.708 30.676 30.676 30.676s30.676-13.708 30.676-30.676-13.709-30.676-30.676-30.676m337.435 30.676c0 16.968 13.708 30.676 30.675 30.676 16.968 0 30.676-13.708 30.676-30.676s-13.708-30.676-30.676-30.676-30.675 13.709-30.675 30.676m-153.38-122.703c-16.968 0-30.676 13.708-30.676 30.676s13.708 30.675 30.676 30.675 30.676-13.708 30.676-30.675c0-16.968-13.708-30.676-30.676-30.676m61.352 30.676c0 16.967 13.708 30.675 30.676 30.675s30.676-13.708 30.676-30.675c0-16.968-13.709-30.676-30.676-30.676-16.968 0-30.676 13.708-30.676 30.676m122.703-30.676c-16.967 0-30.675 13.708-30.675 30.676s13.708 30.675 30.675 30.675c16.968 0 30.676-13.708 30.676-30.675 0-16.968-13.708-30.676-30.676-30.676M133.248 449.88c0 16.968 13.709 30.676 30.676 30.676H347.98c16.967 0 30.676-13.708 30.676-30.676s-13.709-30.676-30.676-30.676H163.924c-16.967 0-30.676 13.709-30.676 30.676"/></svg>