<svg xmlns="http://www.w3.org/2000/svg" viewBox="0 0 512 512"><!--! Font Awesome Free 7.0.1 by @fontawesome - https://fontawesome.com License - https://fontawesome.com/license/free (Icons: CC BY 4.0, Fonts: SIL OFL 1.1, Code: MIT License) Copyright 2025 Fonticons, Inc.--><path fill="currentColor" d="M334.74 36.28v68.469h-60.862c-75.602 0-136.939 61.337-136.939 136.939 0 88.82 78.74 128.19 95.667 135.608 2.092.95 4.375 1.331 6.752 1.331h2.378c9.319 0 16.927-7.608 16.927-16.927 0-7.893-5.611-14.74-12.173-19.305-8.463-5.896-18.258-17.307-18.258-38.514 0-42.793 34.71-77.504 77.504-77.504h29.004v68.47c0 9.224 5.516 17.593 14.074 21.111s18.354 1.617 24.916-4.945l129.33-129.331c8.94-8.94 8.94-23.394 0-32.238L373.73 20.113c-6.562-6.562-16.357-8.464-24.916-4.945-8.558 3.518-14.074 11.887-14.074 21.111M76.077 104.748C34.045 104.749 0 138.793 0 180.826v243.447c0 42.033 34.045 76.078 76.077 76.078h243.448c42.032 0 76.077-34.045 76.077-76.078v-30.43c0-16.833-13.599-30.431-30.431-30.431s-30.431 13.598-30.431 30.43v30.431c0 8.369-6.847 15.216-15.215 15.216H76.077c-8.368 0-15.215-6.847-15.215-15.216V180.826c0-8.368 6.847-15.215 15.215-15.215h15.216c16.832 0 30.43-13.6 30.43-30.431s-13.598-30.431-30.43-30.431z"/></svg>