<svg xmlns="http://www.w3.org/2000/svg" viewBox="0 0 512 512"><!--! Font Awesome Free 7.0.1 by @fontawesome - https://fontawesome.com License - https://fontawesome.com/license/free (Icons: CC BY 4.0, Fonts: SIL OFL 1.1, Code: MIT License) Copyright 2025 Fonticons, Inc.--><path fill="currentColor" d="M222.28 60.664a20.16 20.16 0 0 0-20.208 20.207 20.16 20.16 0 0 0 20.207 20.207h47.656l18.944 41.004-80.071 60.032c-28.122-21.133-63.148-33.679-101.036-33.679h-47.15a20.16 20.16 0 0 0-20.208 20.208 20.16 20.16 0 0 0 20.208 20.207h47.15c66.094 0 120.57 50.181 127.305 114.507h-21.386c-9.43-49.844-53.296-87.564-105.92-87.564C48.246 235.793 0 284.037 0 343.565c0 59.527 48.245 107.771 107.772 107.771 52.623 0 96.405-37.72 105.92-87.564h42.266a20.16 20.16 0 0 0 20.207-20.207V324.62c0-37.972 21.639-71.904 55.149-90.68l10.188 21.976c-27.28 19.533-45.045 51.528-45.045 87.649 0 59.527 48.244 107.771 107.771 107.771S512 403.092 512 343.565s-48.245-107.772-107.772-107.772c-9.009 0-17.681 1.094-26.017 3.2l-26.437-57.086h45.634a20.16 20.16 0 0 0 20.208-20.207v-40.415a20.16 20.16 0 0 0-20.208-20.207h-44.877c-5.81 0-11.534 1.852-16.165 5.389l-14.398 10.777-20.712-44.877c-3.284-7.157-10.44-11.703-18.355-11.703zm139.597 239.455 23.912 51.865c4.715 10.104 16.671 14.566 26.775 9.851s14.566-16.67 9.85-26.774l-23.995-51.865a62 62 0 0 1 5.64-.253c33.511 0 60.622 27.111 60.622 60.622s-27.11 60.621-60.621 60.621c-33.51 0-60.622-27.111-60.622-60.621 0-17.008 6.989-32.416 18.355-43.446zM107.772 404.186c-33.51 0-60.622-27.111-60.622-60.621s27.111-60.622 60.622-60.622c26.353 0 48.834 16.84 57.17 40.414h-57.17a20.16 20.16 0 0 0-20.207 20.208 20.16 20.16 0 0 0 20.207 20.207h57.17c-8.336 23.575-30.817 40.414-57.17 40.414"/></svg>