<svg xmlns="http://www.w3.org/2000/svg" viewBox="0 0 512 512"><!--! Font Awesome Free 7.0.1 by @fontawesome - https://fontawesome.com License - https://fontawesome.com/license/free (Icons: CC BY 4.0, Fonts: SIL OFL 1.1, Code: MIT License) Copyright 2025 Fonticons, Inc.--><path fill="currentColor" d="m42.667 202.489 185.955 76.533c8.711 3.556 17.956 5.422 27.378 5.422s18.667-1.866 27.378-5.422l215.466-88.71A21.18 21.18 0 0 0 512 170.666a21.18 21.18 0 0 0-13.156-19.645l-215.466-88.71c-8.711-3.556-17.956-5.423-27.378-5.423s-18.667 1.867-27.378 5.422L13.156 151.022A21.18 21.18 0 0 0 0 170.667v263.11a21.28 21.28 0 0 0 21.333 21.334 21.28 21.28 0 0 0 21.334-21.333zm42.666 63.733v103.556c0 47.11 76.445 85.333 170.667 85.333s170.667-38.222 170.667-85.333V266.133L299.644 318.49c-13.866 5.689-28.622 8.622-43.644 8.622s-29.778-2.933-43.644-8.622L85.333 266.133z"/></svg>