<svg xmlns="http://www.w3.org/2000/svg" viewBox="0 0 512 512"><!--! Font Awesome Free 7.0.1 by @fontawesome - https://fontawesome.com License - https://fontawesome.com/license/free (Icons: CC BY 4.0, Fonts: SIL OFL 1.1, Code: MIT License) Copyright 2025 Fonticons, Inc.--><path fill="currentColor" d="M255.944 3.994c15.188 0 29.588 6.3 39.826 17.55L493.775 237.55c14.512 15.75 18.225 38.588 9.675 58.276s-28.126 32.176-49.501 32.176H57.939c-21.376 0-40.839-12.6-49.389-32.289C0 276.025 3.713 253.3 18.225 237.437L216.23 21.432c10.126-11.138 24.526-17.438 39.714-17.438M3.938 454.004c0-29.812 24.188-54 54-54h396.01c29.814 0 54.002 24.188 54.002 54 0 29.814-24.188 54.002-54.001 54.002H57.939c-29.813 0-54.001-24.188-54.001-54.001"/></svg>