<svg xmlns="http://www.w3.org/2000/svg" viewBox="0 0 512 512"><!--! Font Awesome Free 7.0.1 by @fontawesome - https://fontawesome.com License - https://fontawesome.com/license/free (Icons: CC BY 4.0, Fonts: SIL OFL 1.1, Code: MIT License) Copyright 2025 Fonticons, Inc.--><path fill="currentColor" d="M66.253 91.553c0-20.951 16.998-37.95 37.95-37.95 20.95 0 37.949 16.999 37.949 37.95s-16.998 37.95-37.95 37.95c-20.95 0-37.949-16.999-37.949-37.95m31.625 240.346v101.198c0 13.994-11.306 25.3-25.3 25.3s-25.3-11.306-25.3-25.3V310.71c-6.403 7.274-16.681 10.436-26.485 7.432C7.432 313.952 0 299.8 4.19 286.44l23.481-75.267c10.436-33.522 41.428-56.37 76.532-56.37s66.095 22.848 76.53 56.291l23.482 75.266c4.19 13.362-3.242 27.514-16.603 31.704-9.803 3.083-20.081-.158-26.485-7.432v122.466c0 13.994-11.306 25.3-25.3 25.3s-25.3-11.306-25.3-25.3V331.899zM256 53.603a18.93 18.93 0 0 1 18.975 18.975v366.844A18.93 18.93 0 0 1 256 458.397a18.93 18.93 0 0 1-18.975-18.975V72.578A18.93 18.93 0 0 1 256 53.603m113.848 37.95c0-20.951 16.998-37.95 37.95-37.95 20.95 0 37.949 16.999 37.949 37.95s-16.998 37.95-37.95 37.95c-20.95 0-37.949-16.999-37.949-37.95m-18.975 341.544v-75.899H336.8c-8.617 0-14.705-8.46-12.017-16.682l7.116-21.267c-2.53 0-5.06-.395-7.511-1.186-13.361-4.19-20.793-18.342-16.603-31.704l23.481-75.266c10.436-33.443 41.428-56.291 76.531-56.291s66.096 22.848 76.532 56.291l23.48 75.266c4.191 13.362-3.24 27.514-16.602 31.704-2.53.79-5.06 1.186-7.51 1.186l7.115 21.267c2.767 8.223-3.4 16.682-12.018 16.682h-14.073v75.899c0 13.994-11.305 25.3-25.3 25.3-13.993 0-25.299-11.306-25.299-25.3v-75.899h-12.65v75.899c0 13.994-11.305 25.3-25.3 25.3-13.993 0-25.299-11.306-25.299-25.3"/></svg>