<svg xmlns="http://www.w3.org/2000/svg" viewBox="0 0 512 512"><!--! Font Awesome Free 7.0.1 by @fontawesome - https://fontawesome.com License - https://fontawesome.com/license/free (Icons: CC BY 4.0, Fonts: SIL OFL 1.1, Code: MIT License) Copyright 2025 Fonticons, Inc.--><path fill="currentColor" d="M338.286 0c20.228 0 36.571 16.343 36.571 36.571 0 20.229-16.343 36.572-36.571 36.572H237.714c-55.543 0-100.571 45.028-100.571 100.571v36.8c26.171-17.485 57.6-27.657 91.428-27.657h54.858C374.286 182.857 448 256.571 448 347.43 448 438.286 374.286 512 283.429 512H228.57C137.714 512 64 438.286 64 347.429V173.714C64 77.83 141.829 0 237.714 0zM137.143 347.429c0 50.514 40.914 91.428 91.428 91.428h54.858c50.514 0 91.428-40.914 91.428-91.428 0-50.515-40.914-91.429-91.428-91.429H228.57c-50.514 0-91.428 40.914-91.428 91.429"/></svg>