<svg xmlns="http://www.w3.org/2000/svg" viewBox="0 0 512 512"><!--! Font Awesome Free 7.0.1 by @fontawesome - https://fontawesome.com License - https://fontawesome.com/license/free (Icons: CC BY 4.0, Fonts: SIL OFL 1.1, Code: MIT License) Copyright 2025 Fonticons, Inc.--><path fill="currentColor" d="M224.006 0c-17.696 0-31.994 14.297-31.994 31.994h-95.98c-17.697 0-31.995 14.297-31.995 31.994S78.335 95.98 96.031 95.98h95.981v63.988h-18.696c-8.498 0-16.597 3.4-22.595 9.398l-22.696 22.596H32.044C14.347 191.963.05 206.26.05 223.956v63.988c0 17.696 14.297 31.994 31.994 31.994h100.08c20.196 28.994 53.89 47.99 91.882 47.99s71.686-18.996 91.882-47.99h36.093c17.697 0 31.994 14.297 31.994 31.993 0 17.697 14.297 31.994 31.994 31.994h63.987c17.697 0 31.994-14.297 31.994-31.994 0-88.382-71.586-159.968-159.969-159.968h-31.993l-22.596-22.596c-5.999-5.999-14.097-9.398-22.596-9.398H256.1V95.98h95.981c17.697 0 31.994-14.297 31.994-31.993 0-17.697-14.297-31.994-31.994-31.994H256.1C256.1 14.297 241.803 0 224.106 0zm212.759 423.317-18.197 42.392c-1.8 4.1-2.7 8.598-2.7 13.097v1.2c0 17.697 14.298 31.994 31.995 31.994 17.696 0 31.993-14.297 31.993-31.994v-1.2c0-4.499-.9-8.898-2.7-13.097l-18.196-42.392c-1.9-4.499-6.298-7.398-11.197-7.398-4.9 0-9.199 2.9-11.198 7.398z"/></svg>