<svg xmlns="http://www.w3.org/2000/svg" viewBox="0 0 512 512"><!--! Font Awesome Free 7.0.1 by @fontawesome - https://fontawesome.com License - https://fontawesome.com/license/free (Icons: CC BY 4.0, Fonts: SIL OFL 1.1, Code: MIT License) Copyright 2025 Fonticons, Inc.--><path fill="currentColor" d="M314.08 0c38.613 0 69.973 31.36 69.973 70.08v5.547a75.2 75.2 0 0 1-8.32 34.346l-2.453 4.48-21.44 35.734c-1.173 2.026-1.28 3.626-1.173 4.8.213 1.386.96 2.88 2.24 4.16s2.773 2.026 4.16 2.24c1.173.213 2.773.106 4.8-1.174l35.733-21.44 4.48-2.453c10.667-5.44 22.4-8.32 34.347-8.32h5.546c38.614 0 69.974 31.36 69.974 70.08 0 18.56-7.36 36.373-20.48 49.493l-1.387 1.387a9.98 9.98 0 0 0 0 14.187l1.387 1.386a70 70 0 0 1 20.48 49.494c0 38.613-31.36 69.973-69.974 69.973h-5.546c-13.654 0-27.2-3.733-38.934-10.773l-35.733-21.44c-2.027-1.174-3.627-1.28-4.8-1.174-1.387.214-2.88.96-4.16 2.24s-2.027 2.774-2.24 4.16c-.213 1.174-.107 2.774 1.173 4.8l21.44 35.734a75.63 75.63 0 0 1 10.774 38.933v5.547c0 38.613-31.36 69.973-69.974 69.973a70 70 0 0 1-49.493-20.48l-1.387-1.387a9.98 9.98 0 0 0-14.186 0l-1.387 1.387A70 70 0 0 1 198.027 512c-38.614 0-69.974-31.36-70.08-69.973v-5.547c0-13.653 3.733-27.2 10.773-38.933l21.44-35.734c1.173-2.026 1.28-3.626 1.173-4.8-.213-1.386-.96-2.88-2.24-4.16s-2.773-2.026-4.16-2.24c-.533-.106-1.28-.106-2.026 0l-2.667 1.067-35.733 21.44a75.63 75.63 0 0 1-38.934 10.773h-5.546C31.413 384 .053 352.64.053 314.027c0-18.56 7.36-36.374 20.48-49.494l1.387-1.386 1.28-1.6a9.82 9.82 0 0 0 0-10.987l-1.28-1.6-1.387-1.387A70 70 0 0 1 .053 198.08c0-38.72 31.36-70.08 70.08-70.08h5.547c13.653 0 27.2 3.733 38.933 10.773l35.734 21.44 2.666 1.067c.747.107 1.494.107 2.027.107 1.387-.214 2.88-.96 4.16-2.24s2.027-2.774 2.24-4.16c.107-.534.107-1.28-.107-2.027l-1.066-2.667-21.44-35.733a75.63 75.63 0 0 1-10.774-38.933V70.08c0-38.613 31.36-70.08 70.08-70.08 18.56 0 36.374 7.36 49.494 20.48l1.386 1.387c3.947 3.84 10.24 3.946 14.187 0l1.387-1.387 5.12-4.693C282.187 5.653 297.76 0 314.08 0"/></svg>