<svg xmlns="http://www.w3.org/2000/svg" viewBox="0 0 512 512"><!--! Font Awesome Free 7.0.1 by @fontawesome - https://fontawesome.com License - https://fontawesome.com/license/free (Icons: CC BY 4.0, Fonts: SIL OFL 1.1, Code: MIT License) Copyright 2025 Fonticons, Inc.--><path fill="currentColor" d="M28.44 28.484C12.709 28.484 0 41.193 0 56.924c0 15.73 12.709 28.439 28.44 28.439h14.22c7.82 0 14.219 6.399 14.219 14.22v255.955c0 35.372 25.862 64.7 59.634 70.21a42.6 42.6 0 0 0-2.755 15.109c0 23.551 19.108 42.66 42.66 42.66 23.55 0 42.659-19.109 42.659-42.66 0-4.977-.89-9.776-2.4-14.22h175.525c-1.6 4.444-2.4 9.243-2.4 14.22 0 23.551 19.108 42.66 42.66 42.66s42.659-19.109 42.659-42.66c0-4.977-.889-9.776-2.4-14.22h30.84c15.73 0 28.439-12.709 28.439-28.44 0-15.73-12.709-28.439-28.44-28.439H128.067c-7.821 0-14.22-6.399-14.22-14.22V99.583c-.089-39.282-31.906-71.1-71.188-71.1zm170.637 56.879c-23.552 0-42.66 19.108-42.66 42.66V284.44c0 23.551 19.108 42.659 42.66 42.659h213.296c23.551 0 42.66-19.108 42.66-42.66V128.023c0-23.551-19.109-42.659-42.66-42.659z"/></svg>