<svg xmlns="http://www.w3.org/2000/svg" viewBox="0 0 512 512"><!--! Font Awesome Free 7.0.1 by @fontawesome - https://fontawesome.com License - https://fontawesome.com/license/free (Icons: CC BY 4.0, Fonts: SIL OFL 1.1, Code: MIT License) Copyright 2025 Fonticons, Inc.--><path fill="currentColor" d="M199.543 81.934a20.434 20.434 0 0 0 20.483-20.484V20.483A20.434 20.434 0 0 0 199.543 0a20.434 20.434 0 0 0-20.484 20.483V61.45a20.434 20.434 0 0 0 20.484 20.484M28.847 170.695a20.434 20.434 0 0 0 20.484 20.484h40.967a20.434 20.434 0 0 0 20.483-20.484 20.434 20.434 0 0 0-20.483-20.483H49.33a20.434 20.434 0 0 0-20.484 20.483m78.947 120.682 28.933-28.933c8.022-8.023 8.022-20.996 0-28.933s-20.996-8.023-28.933 0l-28.933 28.933c-8.023 8.022-8.023 20.995 0 28.933s20.996 8.022 28.933 0M78.861 50.014c-8.023 8.022-8.023 20.995 0 28.932l28.933 28.933c8.023 8.023 20.995 8.023 28.933 0s8.022-20.995 0-28.933l-28.933-28.932a20.4 20.4 0 0 0-28.933 0m243.582 65.973c26.372 0 47.795-21.422 47.795-47.794 0-26.373-21.423-47.795-47.795-47.795s-47.795 21.422-47.795 47.795c0 26.372 21.423 47.794 47.795 47.794m-90.298 259.457h22.02v109.245c0 15.106 12.205 27.311 27.311 27.311s27.311-12.205 27.311-27.311V375.444H336.1v109.245c0 15.106 12.204 27.311 27.31 27.311 15.107 0 27.312-12.205 27.312-27.311V375.444h22.02c9.303 0 15.874-9.132 12.973-18.008l-36.7-110.099 41.223 55.561c8.962 12.12 26.116 14.68 38.236 5.633 12.12-9.046 14.68-26.116 5.633-38.235l-60.17-81.08a114.11 114.11 0 0 0-91.493-45.917A113.95 113.95 0 0 0 230.95 189.3l-60.17 81.08c-8.961 12.12-6.486 29.189 5.633 38.236s29.19 6.486 38.236-5.633l41.223-55.561-36.7 110.098c-2.987 8.876 3.67 18.008 12.973 18.008z"/></svg>