<svg xmlns="http://www.w3.org/2000/svg" viewBox="0 0 512 512"><!--! Font Awesome Free 7.0.1 by @fontawesome - https://fontawesome.com License - https://fontawesome.com/license/free (Icons: CC BY 4.0, Fonts: SIL OFL 1.1, Code: MIT License) Copyright 2025 Fonticons, Inc.--><path fill="currentColor" d="m240.823 11.886 13.531 33.645L288 59.063c2.743 1.097 4.571 3.84 4.571 6.766 0 2.925-1.828 5.668-4.571 6.765l-33.646 13.532-13.531 33.645c-1.097 2.743-3.84 4.572-6.766 4.572s-5.668-1.829-6.766-4.572L213.76 86.126l-33.646-13.532c-2.743-1.097-4.571-3.84-4.571-6.765 0-2.926 1.828-5.669 4.571-6.766L213.76 45.53l13.531-33.645c1.098-2.743 3.84-4.572 6.766-4.572s5.669 1.829 6.766 4.572M101.21 74.697l19.658 45.806 45.805 19.657c5.395 2.286 8.869 7.589 8.869 13.44s-3.474 11.154-8.869 13.44l-45.805 19.657-19.658 45.806c-2.285 5.394-7.588 8.868-13.44 8.868s-11.154-3.474-13.44-8.868l-19.657-45.806L8.87 167.04C3.474 164.754 0 159.451 0 153.6s3.474-11.154 8.869-13.44l45.805-19.657 19.657-45.806c2.286-5.394 7.589-8.868 13.44-8.868 5.852 0 11.155 3.474 13.44 8.868M424.23 314.514c5.851 0 11.154 3.475 13.44 8.869l19.657 45.806 45.805 19.657c5.395 2.285 8.869 7.588 8.869 13.44s-3.474 11.154-8.869 13.44l-45.805 19.657-19.657 45.806c-2.286 5.394-7.589 8.868-13.44 8.868-5.852 0-11.155-3.474-13.44-8.868l-19.658-45.806-45.805-19.657c-5.395-2.286-8.869-7.589-8.869-13.44 0-5.852 3.474-11.155 8.869-13.44l45.805-19.657 19.658-45.806c2.285-5.394 7.588-8.869 13.44-8.869M420.57 36.571c10.058 0 19.749 4.023 26.972 11.155L486.217 86.4c7.132 7.223 11.154 16.914 11.154 26.971 0 10.058-4.022 19.749-11.154 26.972l-80.64 80.64-92.617-92.617 80.64-80.64c7.223-7.132 16.914-11.155 26.971-11.155M40.411 400.914 281.966 159.36l92.617 92.617-241.554 241.554c-7.223 7.132-16.915 11.155-26.972 11.155s-19.748-4.023-26.971-11.155L40.41 454.857c-7.131-7.223-11.154-16.914-11.154-26.971s4.023-19.749 11.154-26.972"/></svg>