<svg xmlns="http://www.w3.org/2000/svg" viewBox="0 0 512 512"><!--! Font Awesome Free 7.0.1 by @fontawesome - https://fontawesome.com License - https://fontawesome.com/license/free (Icons: CC BY 4.0, Fonts: SIL OFL 1.1, Code: MIT License) Copyright 2025 Fonticons, Inc.--><path fill="currentColor" d="M256 17.768c14.592 0 27.992 8.04 34.94 20.845l214.41 397.054c6.65 12.308 6.352 27.198-.795 39.209-7.147 12.01-20.15 19.356-34.146 19.356H41.59c-13.996 0-27-7.346-34.146-19.356s-7.445-26.9-.794-39.21L221.059 38.614c6.949-12.805 20.35-20.845 34.941-20.845m0 349.407c-17.57 0-31.764 14.195-31.764 31.764 0 17.57 14.194 31.764 31.764 31.764s31.764-14.194 31.764-31.764S273.57 367.175 256 367.175m0-190.586c-18.066 0-32.46 15.386-31.169 33.452l7.346 103.234c.893 12.408 11.316 22.136 23.724 22.136 12.507 0 22.83-9.629 23.724-22.136l7.345-103.234c1.29-18.066-13.003-33.452-31.169-33.452z"/></svg>