<svg xmlns="http://www.w3.org/2000/svg" viewBox="0 0 512 512"><!--! Font Awesome Free 7.0.1 by @fontawesome - https://fontawesome.com License - https://fontawesome.com/license/free (Icons: CC BY 4.0, Fonts: SIL OFL 1.1, Code: MIT License) Copyright 2025 Fonticons, Inc.--><path fill="currentColor" d="M297.961 24.774A24.715 24.715 0 0 0 273.187 0a24.715 24.715 0 0 0-24.774 24.774V52.13C150.142 68.026 74.993 153.187 74.993 256s75.149 187.974 173.42 203.871v27.355A24.715 24.715 0 0 0 273.187 512a24.715 24.715 0 0 0 24.774-24.774v-25.394c48.31-3.82 91.974-24.361 125.213-55.638 13.316-12.49 13.832-33.446 1.342-46.659-12.49-13.212-33.445-13.832-46.658-1.341-21.368 20.232-49.135 33.754-79.793 37.367V116.748c30.76 3.613 58.425 17.136 79.793 37.368 13.316 12.49 34.168 11.871 46.658-1.342s11.871-34.168-1.342-46.658c-33.239-31.587-76.903-52.129-125.213-55.948zm-49.548 94.761v272.93C186.787 377.6 141.058 322.168 141.058 256s45.73-121.6 107.355-136.465"/></svg>