<svg xmlns="http://www.w3.org/2000/svg" viewBox="0 0 512 512"><!--! Font Awesome Free 7.0.1 by @fontawesome - https://fontawesome.com License - https://fontawesome.com/license/free (Icons: CC BY 4.0, Fonts: SIL OFL 1.1, Code: MIT License) Copyright 2025 Fonticons, Inc.--><path fill="currentColor" d="M285.702 59.36c-15.647 0-28.288 12.64-28.288 28.286s12.641 28.288 28.288 28.288h28.287c15.646 0 28.287-12.641 28.287-28.288S329.636 59.36 313.99 59.36zm0 113.148c-15.647 0-28.288 12.641-28.288 28.288s12.641 28.287 28.288 28.287h84.862c15.646 0 28.287-12.641 28.287-28.287 0-15.647-12.641-28.288-28.287-28.288zm0 113.15c-15.647 0-28.288 12.64-28.288 28.287s12.641 28.287 28.288 28.287h141.436c15.647 0 28.287-12.64 28.287-28.287s-12.64-28.288-28.287-28.288zm0 113.149c-15.647 0-28.288 12.64-28.288 28.287s12.641 28.287 28.288 28.287h198.01c15.647 0 28.288-12.64 28.288-28.287s-12.64-28.287-28.287-28.287zM135.956 67.669c-11.05-11.05-28.995-11.05-40.044 0L11.05 152.53C0 163.58 0 181.525 11.05 192.575s28.994 11.05 40.044 0l36.597-36.597v271.116c0 15.646 12.64 28.287 28.287 28.287s28.287-12.64 28.287-28.287V155.978l36.597 36.597c11.05 11.05 28.994 11.05 40.044 0s11.05-28.995 0-40.045L136.044 67.67z"/></svg>