<svg xmlns="http://www.w3.org/2000/svg" viewBox="0 0 512 512"><!--! Font Awesome Free 7.0.1 by @fontawesome - https://fontawesome.com License - https://fontawesome.com/license/free (Icons: CC BY 4.0, Fonts: SIL OFL 1.1, Code: MIT License) Copyright 2025 Fonticons, Inc.--><path fill="currentColor" d="M153.6 0c18.88 0 34.133 15.253 34.133 34.133v34.134h136.534V34.133C324.267 15.253 339.52 0 358.4 0s34.133 15.253 34.133 34.133v34.134h34.134c37.653 0 68.266 30.613 68.266 68.266v307.2c0 37.654-30.613 68.267-68.266 68.267H85.333c-37.653 0-68.266-30.613-68.266-68.267v-307.2c0-37.653 30.613-68.266 68.266-68.266h34.134V34.133C119.467 15.253 134.72 0 153.6 0m25.6 281.6a25.54 25.54 0 0 0-25.6 25.6 25.54 25.54 0 0 0 25.6 25.6h153.6a25.54 25.54 0 0 0 25.6-25.6 25.54 25.54 0 0 0-25.6-25.6z"/></svg>