<svg xmlns="http://www.w3.org/2000/svg" viewBox="0 0 512 512"><!--! Font Awesome Free 7.0.1 by @fontawesome - https://fontawesome.com License - https://fontawesome.com/license/free (Icons: CC BY 4.0, Fonts: SIL OFL 1.1, Code: MIT License) Copyright 2025 Fonticons, Inc.--><path fill="currentColor" d="M38.259 8.287C29.972 0 16.573 0 8.375 8.287.176 16.573.088 29.972 8.287 38.259L473.74 503.713c8.287 8.287 21.686 8.287 29.884 0 8.199-8.286 8.287-21.685 0-29.884l-133.2-133.29h26.622c8.815 0 17.19-4.142 22.48-11.195 5.288-7.052 7.052-16.22 4.583-24.771l-3.262-11.813c-10.93-38.17-36.143-69.2-68.936-87.89l-9.08-118.214h26.005c15.604 0 28.21-12.606 28.21-28.21 0-15.603-12.606-28.21-28.21-28.21H143.163c-6.524 0-12.43 2.205-17.19 5.82l43.724 43.812-4.231 55.625zM250.887 340.54 134.083 223.824c-20.011 18.071-35.086 41.785-42.931 69.024l-3.35 11.813c-2.469 8.551-.706 17.631 4.584 24.772s13.752 11.107 22.567 11.107zm-23.096 141.047c0 15.603 12.606 28.21 28.209 28.21s28.21-12.607 28.21-28.21v-98.733h-56.42z"/></svg>