<svg xmlns="http://www.w3.org/2000/svg" viewBox="0 0 512 512"><!--! Font Awesome Free 7.0.1 by @fontawesome - https://fontawesome.com License - https://fontawesome.com/license/free (Icons: CC BY 4.0, Fonts: SIL OFL 1.1, Code: MIT License) Copyright 2025 Fonticons, Inc.--><path fill="currentColor" d="M391.253 485.251c-66.662 0-120.747-54.084-120.747-120.747s54.085-120.746 120.747-120.746S512 297.842 512 364.504c0 66.663-54.085 120.747-120.747 120.747M200.573 34.547c10.23-7.798 24.905-7.295 34.548 1.677l182.462 169.381a160 160 0 0 0-26.246-2.18c-65.908 0-122.508 39.578-147.412 96.262-4.276-1.51-8.804-2.348-13.584-2.348H203.51c-22.221 0-40.25 18.028-40.25 40.249v80.498h76.306c5.115 14.506 12.242 28.006 21.047 40.249l-164.518.084c-29.6 0-53.665-24.066-53.665-53.666v-147.58H29.013a26.86 26.86 0 0 1-24.988-17.021c-4.025-10.23-1.342-21.97 6.708-29.432L198.561 36.308l2.013-1.677zm238.811 278.892c-5.953-4.36-14.338-3.02-18.699 2.934l-44.441 61.045-22.389-22.473c-5.199-5.199-13.751-5.199-18.95 0-5.2 5.2-5.2 13.752 0 18.95l33.54 33.542c2.768 2.767 6.625 4.192 10.566 3.94 3.94-.25 7.463-2.347 9.81-5.534l53.666-73.79c4.36-5.953 3.018-14.338-2.935-18.698z"/></svg>