<svg xmlns="http://www.w3.org/2000/svg" viewBox="0 0 512 512"><!--! Font Awesome Free 7.0.1 by @fontawesome - https://fontawesome.com License - https://fontawesome.com/license/free (Icons: CC BY 4.0, Fonts: SIL OFL 1.1, Code: MIT License) Copyright 2025 Fonticons, Inc.--><path fill="currentColor" d="M179.556 16.8c11.11 3.911 16.888 16.089 12.977 27.2l-7.289 20.533 22.578-16.444c9.511-6.933 22.845-4.8 29.778 4.711s4.8 22.844-4.711 29.778l-25.067 18.31h33.956c23.555 0 42.666 19.112 42.666 42.668v1.866c-48.622 9.245-85.333 51.911-85.333 103.111v1.69c0 7.91.889 15.555 2.489 23.021-10.578 15.823-16.711 34.756-16.711 55.2v113.778c0 21.156 6.578 40.8 17.867 56.89H42.666C19.112 499.111 0 480 0 456.443V143.556C0 120 19.111 100.889 42.667 100.889h33.955L51.467 82.578C41.956 75.644 39.822 62.31 46.756 52.8s20.266-11.644 29.777-4.711l24.356 17.778-7.378-22.223c-3.733-11.2 2.311-23.288 13.511-27.022s23.29 2.311 27.022 13.511l8.8 26.49 9.512-26.845c3.91-11.111 16.088-16.89 27.2-12.978m255.91 212.089a19.73 19.73 0 0 0-16.533 8.978l-21.689 33.689h36.534a21.28 21.28 0 0 0 21.333-21.334v-1.689c0-10.844-8.8-19.644-19.644-19.644m-93.155 42.667-21.689-33.69a19.73 19.73 0 0 0-16.533-8.977c-10.845 0-19.645 8.8-19.645 19.644v1.69a21.28 21.28 0 0 0 21.334 21.333zm-91.733 11.11c-5.6-9.51-8.8-20.622-8.8-32.444v-1.689c0-34.4 27.91-62.31 62.31-62.31a62.33 62.33 0 0 1 52.356 28.533l13.334 20.622 13.333-20.622a62.33 62.33 0 0 1 52.356-28.534c34.4 0 62.31 27.911 62.31 62.311v1.69c0 11.821-3.2 22.933-8.8 32.444 13.956 10.4 23.023 27.022 23.023 45.777v113.778c0 31.378-25.511 56.89-56.889 56.89h-64v-184.89h-42.667v184.89h-64c-31.377 0-56.888-25.512-56.888-56.89V328.444c0-18.755 9.066-35.377 23.022-45.777"/></svg>