<svg xmlns="http://www.w3.org/2000/svg" viewBox="0 0 512 512"><!--! Font Awesome Free 7.0.1 by @fontawesome - https://fontawesome.com License - https://fontawesome.com/license/free (Icons: CC BY 4.0, Fonts: SIL OFL 1.1, Code: MIT License) Copyright 2025 Fonticons, Inc.--><path fill="currentColor" d="M231.955 0C386.525 0 511.9 125.376 511.9 279.945a23.94 23.94 0 0 1-23.995 23.996 23.94 23.94 0 0 1-23.996-23.996c0-128.075-103.88-231.954-231.954-231.954a23.94 23.94 0 0 1-23.996-23.996A23.94 23.94 0 0 1 231.955 0m-23.996 119.977a23.94 23.94 0 0 1 23.996-23.996c101.58 0 183.964 82.384 183.964 183.964a23.94 23.94 0 0 1-23.996 23.996 23.94 23.94 0 0 1-23.995-23.996c0-75.085-60.888-135.973-135.973-135.973a23.94 23.94 0 0 1-23.996-23.995M26.395 142.672c8.798-17.896 32.394-19.896 46.49-5.799l128.476 128.475 31.993-31.994c12.498-12.497 32.794-12.497 45.292 0 12.497 12.498 12.497 32.794 0 45.292l-31.994 31.993 128.475 128.475c14.097 14.097 11.997 37.593-5.8 46.491C335.136 502.502 296.743 512 256.05 512 114.678 512 .1 397.422.1 256.05c0-40.692 9.498-79.185 26.395-113.278z"/></svg>