<svg xmlns="http://www.w3.org/2000/svg" viewBox="0 0 512 512"><!--! Font Awesome Free 7.0.1 by @fontawesome - https://fontawesome.com License - https://fontawesome.com/license/free (Icons: CC BY 4.0, Fonts: SIL OFL 1.1, Code: MIT License) Copyright 2025 Fonticons, Inc.--><path fill="currentColor" d="m359.438 5.693-11.203 11.11c-28.648 28.649-28.648 75.203 0 103.851L391.3 163.72c28.648 28.648 75.202 28.648 103.85 0l11.111-11.11c5.693-5.694 5.693-15.06 0-20.752l-11.11-11.11c-28.649-28.65-75.203-28.65-103.851 0 28.648-28.65 28.648-75.203 0-103.852L380.19 5.693C374.495 0 365.13 0 359.437 5.693M247.874 127.541c-41.504 0-79.977 18.732-105.596 49.86l52.063 52.062c8.632 8.632 8.632 22.589 0 31.128-8.63 8.54-22.588 8.631-31.127 0l-43.891-43.799L5.096 468.017c-5.05 11.11-2.663 24.241 5.969 32.964 8.63 8.723 21.761 11.019 32.964 5.969l130.02-59.134-40.218-40.218c-8.632-8.631-8.632-22.588 0-31.127 8.631-8.54 22.588-8.632 31.127 0l51.88 51.88 87.506-39.76c48.758-22.129 80.07-70.795 80.07-124.419 0-75.478-61.154-136.631-136.632-136.631z"/></svg>