<svg xmlns="http://www.w3.org/2000/svg" viewBox="0 0 512 512"><!--! Font Awesome Free 7.0.1 by @fontawesome - https://fontawesome.com License - https://fontawesome.com/license/free (Icons: CC BY 4.0, Fonts: SIL OFL 1.1, Code: MIT License) Copyright 2025 Fonticons, Inc.--><path fill="currentColor" d="m220.818 359.47-84.862 84.861c-11.05 11.05-28.995 11.05-40.044 0L11.05 359.47C0 348.42 0 330.475 11.05 319.425s28.994-11.05 40.044 0l36.597 36.597V84.906c0-15.646 12.64-28.287 28.287-28.287s28.287 12.64 28.287 28.287v271.116l36.597-36.597c11.05-11.05 28.994-11.05 40.044 0s11.05 28.995 0 40.045zm64.884-302.851h28.287c15.646 0 28.287 12.64 28.287 28.287s-12.64 28.287-28.287 28.287h-28.287c-15.647 0-28.288-12.64-28.288-28.287s12.641-28.287 28.288-28.287m0 113.149h84.862c15.646 0 28.287 12.64 28.287 28.287s-12.641 28.288-28.287 28.288h-84.862c-15.647 0-28.288-12.641-28.288-28.288s12.641-28.287 28.288-28.287m0 113.15h141.436c15.647 0 28.287 12.64 28.287 28.286s-12.64 28.288-28.287 28.288H285.702c-15.647 0-28.288-12.641-28.288-28.288s12.641-28.287 28.288-28.287m0 113.148h198.01c15.647 0 28.288 12.641 28.288 28.288s-12.64 28.287-28.287 28.287H285.702c-15.647 0-28.288-12.641-28.288-28.287 0-15.647 12.641-28.288 28.288-28.288"/></svg>