<svg xmlns="http://www.w3.org/2000/svg" viewBox="0 0 512 512"><!--! Font Awesome Free 7.0.1 by @fontawesome - https://fontawesome.com License - https://fontawesome.com/license/free (Icons: CC BY 4.0, Fonts: SIL OFL 1.1, Code: MIT License) Copyright 2025 Fonticons, Inc.--><path fill="currentColor" d="M474.12.81C484.145 0 493.97 3.85 501.06 10.94S512 27.854 511.19 37.88c-4.052 49.934-17.624 127.823-46.896 202.268-1.823 4.558-5.57 8.001-10.33 9.42l-81.941 24.612c-3.95 1.215-6.584 4.76-6.584 8.913a9.294 9.294 0 0 0 9.319 9.318h39.096c12.154 0 19.953 12.965 13.674 23.397-4.052 6.786-8.407 13.37-12.864 19.852-2.025 2.938-5.064 5.065-8.508 6.179L307.2 371.415c-3.95 1.216-6.584 4.76-6.584 8.913a9.294 9.294 0 0 0 9.319 9.319h16.205c14.788 0 21.27 17.623 8.914 25.726-68.875 45.579-139.471 43.857-184.746 31.703-12.863-3.444-24.308-10.028-34.842-18.13l-74.141 74.14c-8.914 8.914-23.499 8.914-32.412 0-8.913-8.912-8.913-23.497 0-32.41l81.029-81.03.506.507a15.6 15.6 0 0 1 2.735-3.646l158.816-158.918c8.913-8.913 8.913-23.498 0-32.411s-23.498-8.913-32.411 0L83.56 331.103c-9.015 9.015-24.309 4.457-25.322-8.305-4.355-53.884 9.42-124.683 73.534-188.797C224.044 41.73 389.242 7.698 474.018.811z"/></svg>