<svg xmlns="http://www.w3.org/2000/svg" viewBox="0 0 512 512"><!--! Font Awesome Free 7.0.1 by @fontawesome - https://fontawesome.com License - https://fontawesome.com/license/free (Icons: CC BY 4.0, Fonts: SIL OFL 1.1, Code: MIT License) Copyright 2025 Fonticons, Inc.--><path fill="currentColor" d="M30.556 59.622C30.556 26.737 57.293 0 90.178 0h238.486c32.885 0 59.621 26.737 59.621 59.622v253.391H283.948c-19.47 0-36.798 9.41-47.698 23.849a44.64 44.64 0 0 0-26.83-8.944c-24.686 0-44.715 20.03-44.715 44.717v59.621h59.621v44.716H90.178c-32.885 0-59.622-26.736-59.622-59.621zm104.338 29.81c-8.198 0-14.906 6.708-14.906 14.906v29.81c0 8.198 6.708 14.906 14.906 14.906h29.81c8.198 0 14.906-6.708 14.906-14.906v-29.81c0-8.198-6.708-14.906-14.905-14.906zm104.337 14.906v29.81c0 8.198 6.708 14.906 14.906 14.906h29.81c8.199 0 14.906-6.708 14.906-14.906v-29.81c0-8.198-6.707-14.906-14.905-14.906h-29.811c-8.198 0-14.906 6.708-14.906 14.906M134.894 208.675c-8.198 0-14.906 6.708-14.906 14.906v29.81c0 8.199 6.708 14.906 14.906 14.906h29.81c8.198 0 14.906-6.707 14.906-14.905V223.58c0-8.198-6.708-14.906-14.905-14.906zm104.337 14.906v29.81c0 8.199 6.708 14.906 14.906 14.906h29.81c8.199 0 14.906-6.707 14.906-14.905V223.58c0-8.198-6.707-14.906-14.905-14.906h-29.811c-8.198 0-14.906 6.708-14.906 14.906m159.674 130.888a18.714 18.714 0 0 1 20.961 9.781l24.314 48.63V372.54c0-10.247 8.385-18.631 18.632-18.631s18.632 8.384 18.632 18.631v119.244c0 8.663-5.962 16.116-14.346 18.166-8.385 2.049-17.049-2.05-20.961-9.782l-24.315-48.629v40.338c0 10.247-8.384 18.631-18.631 18.631s-18.632-8.384-18.632-18.631V372.635c0-8.664 5.962-16.117 14.346-18.166m-96.326 18.166v89.432c0 6.148 5.03 11.179 11.18 11.179 6.148 0 11.178-5.03 11.178-11.179v-89.432c0-10.248 8.385-18.632 18.632-18.632s18.632 8.384 18.632 18.632v89.432c0 26.736-21.706 48.442-48.443 48.442s-48.442-21.706-48.442-48.442v-89.432c0-10.248 8.384-18.632 18.632-18.632 10.247 0 18.631 8.384 18.631 18.632"/></svg>