<svg xmlns="http://www.w3.org/2000/svg" viewBox="0 0 512 512"><!--! Font Awesome Free 7.0.1 by @fontawesome - https://fontawesome.com License - https://fontawesome.com/license/free (Icons: CC BY 4.0, Fonts: SIL OFL 1.1, Code: MIT License) Copyright 2025 Fonticons, Inc.--><path fill="currentColor" d="M423.22 67.54c15.06-12.924 16.857-35.624 3.934-50.683C414.23 1.798 391.529 0 376.47 12.924l-192.394 164.86V40.232c0-19.891-16.07-35.962-35.961-35.962s-35.961 16.07-35.961 35.962v188.797H76.193A26.906 26.906 0 0 0 49.223 256a26.906 26.906 0 0 0 26.97 26.971h35.962v188.797c0 19.891 16.07 35.962 35.96 35.962 19.892 0 35.962-16.07 35.962-35.962V334.216l192.394 164.86c15.058 12.924 37.759 11.126 50.683-3.933s11.125-37.76-3.934-50.683L234.873 282.971h200.934A26.906 26.906 0 0 0 462.777 256a26.906 26.906 0 0 0-26.97-26.971H234.873z"/></svg>