<svg xmlns="http://www.w3.org/2000/svg" viewBox="0 0 512 512"><!--! Font Awesome Free 7.0.1 by @fontawesome - https://fontawesome.com License - https://fontawesome.com/license/free (Icons: CC BY 4.0, Fonts: SIL OFL 1.1, Code: MIT License) Copyright 2025 Fonticons, Inc.--><path fill="currentColor" d="M115.2 192c35.36 0 64 28.64 64 64s-28.64 64-64 64-64-28.64-64-64 28.64-64 64-64m95.84 128c12.24-18.32 19.36-40.32 19.36-64 0-63.6-51.6-115.2-115.2-115.2S0 192.4 0 256s51.6 115.2 115.2 115.2h281.6c63.6 0 115.2-51.6 115.2-115.2s-51.6-115.2-115.2-115.2S281.6 192.4 281.6 256c0 23.68 7.12 45.68 19.36 64h-90zM396.8 192c35.36 0 64 28.64 64 64s-28.64 64-64 64-64-28.64-64-64 28.64-64 64-64"/></svg>