<svg xmlns="http://www.w3.org/2000/svg" viewBox="0 0 512 512"><!--! Font Awesome Free 7.0.1 by @fontawesome - https://fontawesome.com License - https://fontawesome.com/license/free (Icons: CC BY 4.0, Fonts: SIL OFL 1.1, Code: MIT License) Copyright 2025 Fonticons, Inc.--><path fill="currentColor" d="M45.663 347.327h45.664l127.572 113.397a32.98 32.98 0 0 0 21.975 8.372c18.265 0 33.106-14.841 33.106-33.106V76.01c0-18.265-14.84-33.106-33.106-33.106a32.98 32.98 0 0 0-21.975 8.372L91.327 164.673H45.663C20.453 164.673 0 185.127 0 210.337v91.326c0 25.21 20.453 45.664 45.663 45.664m303.471-168.384c-8.942 8.943-8.942 23.403 0 32.25l44.712 44.712-44.712 44.712c-8.942 8.942-8.942 23.402 0 32.25s23.403 8.942 32.25 0l44.712-44.712 44.712 44.712c8.942 8.942 23.402 8.942 32.25 0s8.942-23.403 0-32.25l-44.712-44.712 44.712-44.712c8.942-8.943 8.942-23.403 0-32.25s-23.403-8.942-32.25 0l-44.712 44.712-44.712-44.712c-8.943-8.942-23.403-8.942-32.25 0"/></svg>