<svg xmlns="http://www.w3.org/2000/svg" viewBox="0 0 512 512"><!--! Font Awesome Free 7.0.1 by @fontawesome - https://fontawesome.com License - https://fontawesome.com/license/free (Icons: CC BY 4.0, Fonts: SIL OFL 1.1, Code: MIT License) Copyright 2025 Fonticons, Inc.--><path fill="currentColor" d="M76.112 89.874C76.112 40.256 116.368 0 165.986 0h179.747c49.618 0 89.874 40.256 89.874 89.874v239.663c0 37.541-23.03 69.746-55.703 83.134l50.46 59.635c8.052 9.455 6.835 23.685-2.62 31.643-9.456 7.957-23.686 6.834-31.644-2.622l-69.278-81.916H185.178L115.9 501.327c-8.051 9.456-22.188 10.673-31.643 2.622s-10.673-22.188-2.622-31.643l50.46-59.635c-32.953-13.388-55.983-45.593-55.983-83.134zm59.916 29.958v89.874c0 16.57 13.387 29.958 29.958 29.958h179.747c16.57 0 29.958-13.388 29.958-29.958v-89.874c0-16.57-13.387-29.958-29.958-29.958H165.986c-16.57 0-29.958 13.387-29.958 29.958M255.86 359.495c16.57 0 29.958-13.387 29.958-29.958S272.43 299.58 255.86 299.58s-29.958 13.388-29.958 29.958 13.387 29.958 29.958 29.958"/></svg>