<svg xmlns="http://www.w3.org/2000/svg" viewBox="0 0 512 512"><!--! Font Awesome Free 7.0.1 by @fontawesome - https://fontawesome.com License - https://fontawesome.com/license/free (Icons: CC BY 4.0, Fonts: SIL OFL 1.1, Code: MIT License) Copyright 2025 Fonticons, Inc.--><path fill="currentColor" d="M170.667 0c-31.378 0-56.89 25.511-56.89 56.889v312.889C113.778 448.356 177.423 512 256 512s142.222-63.644 142.222-142.222V56.888C398.222 25.512 372.712 0 341.333 0zM256 348.444c27.467 0 49.778 22.312 49.778 49.778C305.778 425.69 283.467 448 256 448s-49.778-22.311-49.778-49.778 22.311-49.778 49.778-49.778M305.778 256c0 27.467-22.311 49.778-49.778 49.778S206.222 283.467 206.222 256s22.311-49.778 49.778-49.778 49.778 22.311 49.778 49.778M256 163.556c-27.467 0-49.778-22.312-49.778-49.778C206.222 86.31 228.533 64 256 64s49.778 22.311 49.778 49.778-22.311 49.778-49.778 49.778"/></svg>