<svg xmlns="http://www.w3.org/2000/svg" viewBox="0 0 512 512"><!--! Font Awesome Free 7.0.1 by @fontawesome - https://fontawesome.com License - https://fontawesome.com/license/free (Icons: CC BY 4.0, Fonts: SIL OFL 1.1, Code: MIT License) Copyright 2025 Fonticons, Inc.--><path fill="currentColor" d="M497.894 79.174c11.026-7.252 14.106-21.954 6.854-32.98-7.252-11.028-21.954-14.107-32.98-6.855l-104.01 68.048c-34.173-5.762-72.717-8.444-113.447-8.444C113.844 98.943 0 130.732 0 210.204V369.15c0 31.093 27.22 58.412 71.525 78.18V345.307a23.784 23.784 0 0 1 23.842-23.842 23.784 23.784 0 0 1 23.841 23.842v118.612c32.783 8.842 70.631 14.405 111.262 15.994V377.096a23.784 23.784 0 0 1 23.841-23.842 23.784 23.784 0 0 1 23.842 23.842v102.817c40.63-1.59 78.479-7.152 111.261-15.994V345.307a23.784 23.784 0 0 1 23.842-23.842 23.784 23.784 0 0 1 23.841 23.842v102.022c44.306-19.768 71.525-47.087 71.525-78.18V210.204c0-40.829-30-69.041-78.28-86.823l67.452-44.207zm-192.522 69.042-64.174 42.02c-11.026 7.253-14.106 21.955-6.854 32.982 7.252 11.026 21.954 14.106 32.98 6.854l110.368-72.32c14.603 3.18 27.716 6.954 39.14 11.425 38.544 15 44.107 30.398 44.107 41.027 0 .795-2.682 17.087-45.696 35.663-38.644 16.69-95.367 27.915-160.932 27.915S132.023 262.556 93.38 245.867C50.366 227.291 47.683 211 47.683 210.204c0-10.53 5.563-26.027 44.107-41.027 38.048-14.802 94.771-22.55 162.521-22.55 17.881 0 34.869.496 51.061 1.589"/></svg>