<svg xmlns="http://www.w3.org/2000/svg" viewBox="0 0 512 512"><!--! Font Awesome Free 7.0.1 by @fontawesome - https://fontawesome.com License - https://fontawesome.com/license/free (Icons: CC BY 4.0, Fonts: SIL OFL 1.1, Code: MIT License) Copyright 2025 Fonticons, Inc.--><path fill="currentColor" d="M168 421.647h115.765l61.459-61.459-163.295-163.294L62.682 316.141l105.412 105.412zm42.824 60.235H168c-16 0-31.341-6.306-42.635-17.6L16 354.824c-10.259-10.26-16-24.095-16-38.589s5.741-28.33 16-38.588l231.53-231.53c10.258-10.258 24.094-16 38.588-16s28.33 5.742 38.588 16L496 217.413c10.259 10.259 16 24.094 16 38.588s-5.741 28.33-16 38.588l-127.059 127.06h112.941c16.66 0 30.118 13.458 30.118 30.117s-13.459 30.117-30.118 30.117z"/></svg>