<svg xmlns="http://www.w3.org/2000/svg" viewBox="0 0 512 512"><!--! Font Awesome Free 7.0.1 by @fontawesome - https://fontawesome.com License - https://fontawesome.com/license/free (Icons: CC BY 4.0, Fonts: SIL OFL 1.1, Code: MIT License) Copyright 2025 Fonticons, Inc.--><path fill="currentColor" d="M300.264 376.487c31.188-23.553 73.502-23.553 104.772 0 13.725 10.315 26.72 17.462 38.822 19.98 11.127 2.274 22.254.731 34.355-8.365 8.61-6.498 20.792-4.792 27.29 3.817s4.71 20.873-3.899 27.29c-21.442 16.162-44.02 19.816-65.543 15.512-20.548-4.142-39.066-15.35-54.579-27.046-17.3-13.076-40.528-13.076-57.827 0-19.655 14.863-42.477 29.157-67.736 29.157s-48-14.375-67.655-29.157c-17.3-13.076-40.528-13.076-57.827 0-19.33 14.538-43.94 28.833-71.554 28.67-16.568-.081-33.056-5.441-48.568-17.137-8.61-6.497-10.315-18.68-3.818-27.29 6.498-8.608 18.68-10.314 27.29-3.816 9.177 6.903 17.543 9.258 25.34 9.34 14.294.08 30.294-7.635 47.837-20.873 31.188-23.554 73.584-23.554 104.772 0 19.492 14.7 33.056 21.36 44.264 21.36s24.772-6.66 44.264-21.36zM411.777 72.975c39.228 0 72.284 29.238 77.157 68.142l.812 6.66c1.787 14.213-8.284 27.208-22.578 28.995-14.295 1.786-27.209-8.285-28.995-22.58l-.813-6.659c-1.624-12.914-12.588-22.579-25.583-22.579-14.214 0-25.828 11.533-25.828 25.828v172.02c-18.761-4.142-36.467-3.574-51.98-.325v-41.584H178.03v39.554c-4.304-.406-8.69-.65-12.994-.569-13.158.081-26.315 2.193-38.985 6.498V150.782c0-42.965 34.842-77.807 77.726-77.807 39.228 0 72.284 29.238 77.157 68.142l.812 6.66c1.787 14.213-8.284 27.208-22.578 28.995-14.295 1.786-27.209-8.285-28.995-22.58l-.813-6.659c-1.624-12.914-12.588-22.579-25.583-22.579-14.214 0-25.747 11.533-25.747 25.828v78.132h155.94v-78.132c0-42.965 34.842-77.807 77.807-77.807"/></svg>