<svg xmlns="http://www.w3.org/2000/svg" viewBox="0 0 512 512"><!--! Font Awesome Free 7.0.1 by @fontawesome - https://fontawesome.com License - https://fontawesome.com/license/free (Icons: CC BY 4.0, Fonts: SIL OFL 1.1, Code: MIT License) Copyright 2025 Fonticons, Inc.--><path fill="currentColor" d="M483.66 30.643c13.818 16.731 28.011 37.693 28.011 60.252 0 34.215-25.943 60.158-60.158 60.158s-60.158-25.943-60.158-60.158c0-22.56 14.288-43.52 28.011-60.252 8.272-10.058 17.39-19.551 27.26-28.2a7.434 7.434 0 0 1 9.775 0c9.87 8.555 18.893 18.142 27.259 28.2m-242.7.094c39.95 0 77.642 9.776 110.729 26.977-3.384 10.246-5.452 21.337-5.452 33.18 0 59.125 46.152 105.277 105.276 105.277 6.016 0 11.938-.47 17.672-1.41 8.083 24.063 12.407 49.818 12.407 76.607C481.592 404.28 373.872 512 240.961 512 108.049 512 .329 404.28.329 271.368c0-132.91 107.72-240.631 240.632-240.631m122.854 290.356c-36.846 11.467-78.581 17.953-122.853 17.953-44.273 0-86.007-6.486-122.854-17.953-11.186-3.478-22.465 5.922-18.424 17.013 21.056 57.62 76.42 98.79 141.278 98.79s120.221-41.17 141.277-98.79c4.041-11.091-7.238-20.491-18.424-17.013M165.764 199.93c14.569 0 26.318 11.75 26.318 26.319v7.52c0 10.34 8.46 18.8 18.8 18.8s18.799-8.46 18.799-18.8v-7.52c0-35.343-28.575-63.918-63.918-63.918s-63.918 28.575-63.918 63.918v7.52c0 10.34 8.46 18.8 18.8 18.8s18.8-8.46 18.8-18.8v-7.52c0-14.57 11.749-26.319 26.318-26.319m124.075 26.319c0-14.57 11.75-26.319 26.319-26.319 14.57 0 26.319 11.75 26.319 26.319v7.52c0 10.34 8.46 18.8 18.8 18.8s18.799-8.46 18.799-18.8v-7.52c0-35.343-28.575-63.918-63.918-63.918s-63.918 28.575-63.918 63.918v7.52c0 10.34 8.46 18.8 18.8 18.8s18.799-8.46 18.799-18.8z"/></svg>