<svg xmlns="http://www.w3.org/2000/svg" viewBox="0 0 512 512"><!--! Font Awesome Free 7.0.1 by @fontawesome - https://fontawesome.com License - https://fontawesome.com/license/free (Icons: CC BY 4.0, Fonts: SIL OFL 1.1, Code: MIT License) Copyright 2025 Fonticons, Inc.--><path fill="currentColor" d="M217.015 46.944c-21.523 0-38.985 17.462-38.985 38.985v12.995h-12.994c-35.899 0-64.975 29.076-64.975 64.974v88.366l-17.543 6.985c-12.02 4.792-18.274 18.193-14.132 30.457 8.446 25.42 21.766 48.162 38.74 67.492 16.326-7.472 33.869-11.29 51.412-11.37 26.883-.163 53.848 8.284 76.67 25.502l1.3.975v-174.62l-84.467 33.787v-67.574c0-7.147 5.847-12.994 12.995-12.994h181.928c7.148 0 12.995 5.847 12.995 12.994v67.574l-84.467-33.787v174.62l1.3-.975c22.335-16.812 48.65-25.34 75.046-25.503 18.111-.08 36.223 3.655 53.035 11.371 16.975-19.249 30.295-42.071 38.741-67.492 4.061-12.346-2.111-25.665-14.132-30.457l-17.543-6.985v-88.366c0-35.898-29.076-64.974-64.975-64.974H333.97V85.929c0-21.523-17.462-38.985-38.985-38.985zm106.721 386.68c17.3-13.076 40.528-13.076 57.827 0 15.432 11.696 34.03 22.904 54.58 27.046 21.522 4.386 44.1.65 65.542-15.513 8.61-6.497 10.315-18.68 3.818-27.289-6.498-8.61-18.68-10.315-27.29-3.817-12.101 9.096-23.228 10.64-34.355 8.365-12.102-2.436-25.097-9.665-38.822-19.98-31.188-23.553-73.503-23.553-104.772 0-19.492 14.701-33.056 21.361-44.264 21.361s-24.772-6.66-44.264-21.36c-31.188-23.554-73.502-23.554-104.772 0-17.543 13.238-33.543 20.954-47.837 20.873-7.797-.082-16.163-2.437-25.34-9.34-8.61-6.498-20.792-4.792-27.29 3.817s-4.71 20.873 3.899 27.37c15.513 11.696 32 17.056 48.568 17.137 27.533.163 52.224-14.132 71.554-28.67 17.3-13.076 40.528-13.076 57.827 0 19.655 14.863 42.477 29.158 67.736 29.158s48-14.376 67.736-29.158z"/></svg>