<svg xmlns="http://www.w3.org/2000/svg" viewBox="0 0 512 512"><!--! Font Awesome Free 7.0.1 by @fontawesome - https://fontawesome.com License - https://fontawesome.com/license/free (Icons: CC BY 4.0, Fonts: SIL OFL 1.1, Code: MIT License) Copyright 2025 Fonticons, Inc.--><path fill="currentColor" d="M161.947 87.783v79.357l-43.891 32.918c-11.855 8.916-18.81 22.828-18.81 37.621v39.189l-59.372 29.685c-21.26 10.68-34.682 32.331-34.682 56.138v86.607C5.192 483.882 33.31 512 67.894 512h376.212c34.584 0 62.702-28.118 62.702-62.702v-86.607c0-23.709-13.423-45.459-34.682-56.04l-59.371-29.783v-39.189c0-14.793-6.956-28.705-18.81-37.62l-43.892-32.92V87.784a31.38 31.38 0 0 0-11.267-24.101L271.088 7.25a23.515 23.515 0 0 0-30.078 0l-67.796 56.432a31.38 31.38 0 0 0-11.267 24.1M256 323.894c34.584 0 62.702 28.118 62.702 62.702v78.378H193.298v-78.378c0-34.584 28.118-62.702 62.702-62.702"/></svg>