<svg xmlns="http://www.w3.org/2000/svg" viewBox="0 0 512 512"><!--! Font Awesome Free 7.0.1 by @fontawesome - https://fontawesome.com License - https://fontawesome.com/license/free (Icons: CC BY 4.0, Fonts: SIL OFL 1.1, Code: MIT License) Copyright 2025 Fonticons, Inc.--><path fill="currentColor" d="M0 65.227C0 32.843 26.33 6.514 58.713 6.514h137.152c15.595 0 30.549 6.146 41.558 17.155l97.61 97.795c11.01 11.008 17.156 25.962 17.156 41.558v89.446L231.093 373.565H192.47l-14.77-49.173c-4.312-14.403-17.522-24.22-32.568-24.22-10.366 0-20.09 4.68-26.512 12.753l-55.136 68.804c-7.614 9.45-6.055 23.394 3.394 30.917 9.45 7.522 23.394 6.055 30.917-3.486l43.21-53.943 13.944 46.512c2.752 9.357 11.375 15.687 21.1 15.687h28.898c-.826 2.844-1.56 5.78-2.11 8.716l-10 49.998H58.713C26.33 476.13 0 449.8 0 417.416V65.136zm190.819-5.046v85.777a21.965 21.965 0 0 0 22.017 22.018h85.777zm55.227 374.666c2.294-11.376 7.89-21.834 16.055-30L371.179 295.77l73.392 73.392L335.493 478.24c-8.165 8.165-18.624 13.76-30 16.054l-54.676 10.917c-.826.184-1.743.275-2.66.275-7.34 0-13.395-5.963-13.395-13.394 0-.917.092-1.743.275-2.66l10.917-54.677zm245.68-112.84-26.422 26.42-73.391-73.391 26.42-26.421c20.275-20.275 53.118-20.275 73.392 0 20.275 20.274 20.275 53.117 0 73.392"/></svg>