<svg xmlns="http://www.w3.org/2000/svg" viewBox="0 0 512 512"><!--! Font Awesome Free 7.0.1 by @fontawesome - https://fontawesome.com License - https://fontawesome.com/license/free (Icons: CC BY 4.0, Fonts: SIL OFL 1.1, Code: MIT License) Copyright 2025 Fonticons, Inc.--><path fill="currentColor" d="M248.148 499.575c12.424 12.425 32.602 12.425 45.027 0l127.23-127.23c9.144-9.144 11.828-22.762 6.858-34.69s-16.6-19.58-29.422-19.58h-63.615V159.036C334.226 71.17 263.057 0 175.19 0h-63.615C93.981 0 79.767 14.214 79.767 31.807v63.615c0 17.594 14.214 31.808 31.807 31.808h63.615c17.594 0 31.808 14.214 31.808 31.807v159.037h-63.615c-12.822 0-24.452 7.753-29.422 19.681s-2.187 25.545 6.858 34.69l127.23 127.23z"/></svg>