<svg xmlns="http://www.w3.org/2000/svg" viewBox="0 0 512 512"><!--! Font Awesome Free 7.0.1 by @fontawesome - https://fontawesome.com License - https://fontawesome.com/license/free (Icons: CC BY 4.0, Fonts: SIL OFL 1.1, Code: MIT License) Copyright 2025 Fonticons, Inc.--><path fill="currentColor" d="M165.647 0c16.659 0 30.118 13.459 30.118 30.118v90.353h120.47V30.118c0-16.66 13.46-30.118 30.118-30.118 16.659 0 30.118 13.459 30.118 30.118v90.353h60.235c16.659 0 30.118 13.458 30.118 30.117 0 16.66-13.46 30.118-30.118 30.118v60.235c0 89.506-65.13 163.859-150.588 178.165v62.776c0 16.66-13.46 30.118-30.118 30.118-16.659 0-30.118-13.459-30.118-30.118v-62.776C140.424 404.8 75.294 330.447 75.294 240.94v-60.235c-16.659 0-30.118-13.459-30.118-30.118s13.46-30.117 30.118-30.117h60.235V30.118C135.53 13.458 148.99 0 165.647 0"/></svg>