<svg xmlns="http://www.w3.org/2000/svg" viewBox="0 0 512 512"><!--! Font Awesome Free 7.0.1 by @fontawesome - https://fontawesome.com License - https://fontawesome.com/license/free (Icons: CC BY 4.0, Fonts: SIL OFL 1.1, Code: MIT License) Copyright 2025 Fonticons, Inc.--><path fill="currentColor" d="M271.7 8.681C263.019 0 248.98 0 240.392 8.681l-73.974 73.882c-3.786 3.786-6.002 8.68-6.464 13.945l-27.336 356.387h-9.605c-16.346 0-29.553 13.206-29.553 29.552 0 16.347 13.207 29.553 29.553 29.553h265.974c16.346 0 29.553-13.206 29.553-29.553 0-16.346-13.207-29.552-29.553-29.552h-9.605L351.954 96.6a21.65 21.65 0 0 0-6.465-13.945zM196.895 312.52a22.11 22.11 0 0 1 22.164-22.164h73.882a22.11 22.11 0 0 1 22.164 22.164 22.11 22.11 0 0 1-22.164 22.165h-73.882a22.11 22.11 0 0 1-22.164-22.165"/></svg>