<svg xmlns="http://www.w3.org/2000/svg" viewBox="0 0 512 512"><!--! Font Awesome Free 7.0.1 by @fontawesome - https://fontawesome.com License - https://fontawesome.com/license/free (Icons: CC BY 4.0, Fonts: SIL OFL 1.1, Code: MIT License) Copyright 2025 Fonticons, Inc.--><path fill="currentColor" d="M350.915 4.52c11.119 4.52 16.452 17.175 11.932 28.294l-26.214 64.452c52.068 4.248 92.926 47.819 92.926 100.88V386.17c0 16-12.926 28.927-28.926 28.927s-28.927-12.927-28.927-28.927V198.147c0-23.955-19.435-43.39-43.39-43.39-5.785 0-11.3 1.085-16.27 3.164l-27.12 66.712v161.536c0 16-12.926 28.927-28.926 28.927s-28.927-12.927-28.927-28.927v-19.163l-52.248 128.542c-4.52 11.119-17.175 16.452-28.294 11.932s-16.452-17.175-11.932-28.294l92.474-227.435v-53.604c0-23.955-19.435-43.39-43.39-43.39-23.954 0-43.39 19.435-43.39 43.39v188.022c0 16-12.926 28.927-28.926 28.927s-28.926-12.927-28.926-28.927V125.831c0-16 12.926-28.927 28.926-28.927 9.853 0 18.531 4.881 23.774 12.384 14.464-7.864 31.006-12.384 48.543-12.384 28.293 0 53.966 11.661 72.316 30.373 8.678-8.859 18.893-16.09 30.282-21.243l36.43-89.582C327.232 5.333 339.887 0 351.006 4.52z"/></svg>