<svg xmlns="http://www.w3.org/2000/svg" viewBox="0 0 512 512"><!--! Font Awesome Free 7.0.1 by @fontawesome - https://fontawesome.com License - https://fontawesome.com/license/free (Icons: CC BY 4.0, Fonts: SIL OFL 1.1, Code: MIT License) Copyright 2025 Fonticons, Inc.--><path fill="currentColor" d="M96.932 318.136c-52.691 0-95.44-42.75-95.44-95.44 0-42.253 27.438-78.143 65.515-90.67-1.292-6.66-1.889-13.62-1.889-20.678C65.118 49.808 114.927 0 176.466 0c42.849 0 80.031 24.158 98.622 59.65 14.615-17 36.288-27.836 60.446-27.836 43.943 0 79.534 35.591 79.534 79.534 0 5.468-.597 10.737-1.59 15.906h1.59c52.691 0 95.44 42.75 95.44 95.441s-42.749 95.44-95.44 95.44zm6.76 79.136L71.88 492.713C67.703 505.24 54.183 512 41.656 507.824s-19.287-17.696-15.112-30.222l31.814-95.441c4.176-12.527 17.696-19.287 30.223-15.112 12.527 4.176 19.287 17.697 15.111 30.223m119.301 0-31.813 95.441c-4.176 12.527-17.697 19.287-30.223 15.111s-19.287-17.696-15.112-30.222l31.814-95.441c4.176-12.527 17.696-19.287 30.223-15.112 12.527 4.176 19.287 17.697 15.111 30.223m111.348 0-31.814 95.441c-4.175 12.527-17.696 19.287-30.223 15.111s-19.287-17.696-15.111-30.222l31.814-95.441c4.175-12.527 17.696-19.287 30.223-15.112 12.526 4.176 19.287 17.697 15.111 30.223m119.3 0-31.813 95.441c-4.175 12.527-17.696 19.287-30.223 15.111s-19.287-17.696-15.111-30.222l31.814-95.441c4.175-12.527 17.696-19.287 30.222-15.112 12.527 4.176 19.287 17.697 15.112 30.223"/></svg>