<svg xmlns="http://www.w3.org/2000/svg" viewBox="0 0 512 512"><!--! Font Awesome Free 7.0.1 by @fontawesome - https://fontawesome.com License - https://fontawesome.com/license/free (Icons: CC BY 4.0, Fonts: SIL OFL 1.1, Code: MIT License) Copyright 2025 Fonticons, Inc.--><path fill="currentColor" d="m404.819 499.553 94.833-94.833c9.088-9.088 11.755-22.622 6.816-34.476s-16.398-19.46-29.141-19.46h-63.222V34.674c0-17.485-14.127-31.612-31.611-31.612s-31.611 14.127-31.611 31.611v316.11H287.66c-12.743 0-24.3 7.706-29.24 19.56s-2.173 25.388 6.816 34.476l94.833 94.833c12.349 12.348 32.402 12.348 44.75 0zM151.93 12.348C139.582 0 119.529 0 107.18 12.348l-94.833 94.833C3.26 116.27.593 129.803 5.532 141.657s16.497 19.46 29.24 19.46h63.222v316.11c0 17.486 14.126 31.612 31.611 31.612s31.611-14.126 31.611-31.611v-316.11h63.222c12.744 0 24.301-7.706 29.24-19.56 4.94-11.854 2.174-25.387-6.816-34.476L152.03 12.25z"/></svg>