<svg xmlns="http://www.w3.org/2000/svg" viewBox="0 0 512 512"><!--! Font Awesome Free 7.0.1 by @fontawesome - https://fontawesome.com License - https://fontawesome.com/license/free (Icons: CC BY 4.0, Fonts: SIL OFL 1.1, Code: MIT License) Copyright 2025 Fonticons, Inc.--><path fill="currentColor" d="M63.602 0c-17.59 0-31.8 14.211-31.8 31.801v254.41c0 17.59 14.21 31.801 31.8 31.801s31.802-14.21 31.802-31.8v-63.603h50.385l127.205 127.205-104.746 104.745c-12.422 12.422-12.422 32.596 0 45.019 12.423 12.422 32.597 12.422 45.02 0l104.744-104.746 104.746 104.646c12.422 12.423 32.596 12.423 45.018 0s12.423-32.596 0-45.018L363.031 349.814l104.646-104.746c12.422-12.422 12.422-32.596 0-45.018s-32.596-12.423-45.019 0L318.012 304.795l-85.267-85.267c48.895-11.727 85.267-55.752 85.267-108.224C318.012 49.79 268.224 0 206.708 0zm143.106 159.006H95.404V63.602h111.304c26.335 0 47.702 21.367 47.702 47.702 0 26.336-21.367 47.702-47.702 47.702"/></svg>