<svg xmlns="http://www.w3.org/2000/svg" viewBox="0 0 512 512"><!--! Font Awesome Free 7.0.1 by @fontawesome - https://fontawesome.com License - https://fontawesome.com/license/free (Icons: CC BY 4.0, Fonts: SIL OFL 1.1, Code: MIT License) Copyright 2025 Fonticons, Inc.--><path fill="currentColor" d="M198.4 24c2.824-13.93 15.153-24 29.459-24h56.282c14.306 0 26.635 10.07 29.459 24l13.647 65.882a174 174 0 0 1 36.988 21.46l63.812-21.177c13.553-4.518 28.424 1.13 35.577 13.553l28.14 48.753a30.03 30.03 0 0 1-6.117 37.553l-50.165 44.611c.847 6.965 1.224 14.118 1.224 21.365s-.47 14.4-1.224 21.365l50.26 44.706c10.729 9.505 13.176 25.223 6.117 37.553l-28.141 48.752c-7.153 12.33-22.024 18.071-35.577 13.553l-63.812-21.176c-11.388 8.565-23.811 15.718-36.988 21.459L313.788 488c-2.917 14.024-15.247 24-29.459 24h-56.282c-14.306 0-26.635-10.07-29.459-24l-13.553-65.788c-13.27-5.647-25.6-12.894-36.988-21.46L83.953 421.93c-13.553 4.518-28.424-1.129-35.577-13.553l-28.14-48.752a30.03 30.03 0 0 1 6.117-37.553l50.259-44.706c-.847-6.965-1.224-14.118-1.224-21.365s.47-14.4 1.224-21.365l-50.26-44.706c-10.728-9.505-13.176-25.223-6.117-37.553l28.141-48.752C55.53 91.2 70.4 85.553 83.953 90.07l63.812 21.176c11.388-8.565 23.811-15.718 36.988-21.459zM256 331.294c41.6-.188 75.2-33.976 75.012-75.576s-33.977-75.2-75.577-75.012-75.2 33.976-75.011 75.576c.188 41.6 33.976 75.2 75.576 75.012"/></svg>