<svg xmlns="http://www.w3.org/2000/svg" viewBox="0 0 512 512"><!--! Font Awesome Free 7.0.1 by @fontawesome - https://fontawesome.com License - https://fontawesome.com/license/free (Icons: CC BY 4.0, Fonts: SIL OFL 1.1, Code: MIT License) Copyright 2025 Fonticons, Inc.--><path fill="currentColor" d="M0 256C0 114.6 114.6 0 256 0s256 114.6 256 256-114.6 256-256 256S0 397.4 0 256m168 136c0 13.3 10.7 24 24 24h128c13.3 0 24-10.7 24-24s-10.7-24-24-24H192c-13.3 0-24 10.7-24 24m-8-96c39.8 0 72-32.2 72-72s-32.2-72-72-72-72 32.2-72 72 32.2 72 72 72m264-72c0-39.8-32.2-72-72-72s-72 32.2-72 72 32.2 72 72 72 72-32.2 72-72m-288 0c0-13.3 10.7-24 24-24s24 10.7 24 24-10.7 24-24 24-24-10.7-24-24m192 0c0-13.3 10.7-24 24-24s24 10.7 24 24-10.7 24-24 24-24-10.7-24-24"/></svg>