<svg xmlns="http://www.w3.org/2000/svg" viewBox="0 0 512 512"><!--! Font Awesome Free 7.0.1 by @fontawesome - https://fontawesome.com License - https://fontawesome.com/license/free (Icons: CC BY 4.0, Fonts: SIL OFL 1.1, Code: MIT License) Copyright 2025 Fonticons, Inc.--><path fill="currentColor" d="M277.535 12.426c-12.178-11.287-30.99-11.287-43.07 0L12.674 218.375C3.168 227.286 0 241.049 4.753 253.129s16.337 20.1 29.407 20.1h15.842v174.264c0 34.951 28.417 63.368 63.369 63.368h85.548l-30.992-51.685c-4.06-6.733-2.574-15.347 3.466-20.298l84.557-70.596-59.606-81.984c-10.792-14.852 8.12-33.17 22.575-21.783l116.738 91.687c7.92 6.238 8.119 18.218.396 24.654l-80.103 66.637 38.022 63.368H398.53c34.952 0 63.37-28.417 63.37-63.368V273.228h15.841c13.07 0 24.754-8.02 29.506-20.1 4.753-12.08 1.585-25.941-7.92-34.753z"/></svg>