<svg xmlns="http://www.w3.org/2000/svg" viewBox="0 0 512 512"><!--! Font Awesome Free 7.0.1 by @fontawesome - https://fontawesome.com License - https://fontawesome.com/license/free (Icons: CC BY 4.0, Fonts: SIL OFL 1.1, Code: MIT License) Copyright 2025 Fonticons, Inc.--><path fill="currentColor" d="M224.087 33.309c0-11.469-6.183-22.14-16.156-27.724C197.96 0 185.692.1 175.82 5.984L16.256 101.722C6.582 107.406.698 117.878.698 129.047s5.884 21.641 15.458 27.325l159.564 95.739c9.873 5.884 22.139 6.083 32.112.399 9.972-5.685 16.255-16.256 16.255-27.725V160.96H479.39c17.652 0 31.913-14.261 31.913-31.913s-14.261-31.913-31.913-31.913H224.087zm95.738 191.476c-17.651 0-31.912 14.261-31.912 31.913v63.826c0 17.651 14.26 31.912 31.912 31.912H479.39c17.652 0 31.913-14.26 31.913-31.912v-63.826c0-17.652-14.261-31.913-31.913-31.913zM.698 416.262v63.825C.698 497.74 14.96 512 32.611 512h95.738c17.652 0 31.913-14.261 31.913-31.913v-63.825c0-17.652-14.261-31.913-31.913-31.913H32.611c-17.652 0-31.913 14.261-31.913 31.913m223.39-31.913c-17.652 0-31.913 14.261-31.913 31.913v63.825c0 17.652 14.26 31.913 31.912 31.913H479.39c17.652 0 31.913-14.261 31.913-31.913v-63.825c0-17.652-14.261-31.913-31.913-31.913z"/></svg>