<svg xmlns="http://www.w3.org/2000/svg" viewBox="0 0 512 512"><!--! Font Awesome Free 7.0.1 by @fontawesome - https://fontawesome.com License - https://fontawesome.com/license/free (Icons: CC BY 4.0, Fonts: SIL OFL 1.1, Code: MIT License) Copyright 2025 Fonticons, Inc.--><path fill="currentColor" d="M85.333 238.933c0-94.293 76.374-170.666 170.667-170.666s170.667 76.373 170.667 170.666v40c-10.667-3.733-22.187-5.866-34.134-5.866h-17.066c-28.267 0-51.2 22.933-51.2 51.2V460.8c0 28.267 22.933 51.2 51.2 51.2h17.066c56.534 0 102.4-45.867 102.4-102.4V238.933C494.933 106.987 387.947 0 256 0S17.067 106.987 17.067 238.933V409.6c0 56.533 45.866 102.4 102.4 102.4h17.066c28.267 0 51.2-22.933 51.2-51.2V324.267c0-28.267-22.933-51.2-51.2-51.2h-17.066c-11.947 0-23.467 2.026-34.134 5.866z"/></svg>