<svg xmlns="http://www.w3.org/2000/svg" viewBox="0 0 512 512"><!--! Font Awesome Free 7.0.1 by @fontawesome - https://fontawesome.com License - https://fontawesome.com/license/free (Icons: CC BY 4.0, Fonts: SIL OFL 1.1, Code: MIT License) Copyright 2025 Fonticons, Inc.--><path fill="currentColor" d="M58.4 31.2c-7.52-7.52-19.68-7.52-27.12 0s-7.52 19.68-.08 27.2l422.4 422.4c7.52 7.52 19.68 7.52 27.12 0s7.52-19.68 0-27.12L257.44 230.32c45.28-.8 81.76-37.76 81.76-83.2 0-45.92-37.28-83.2-83.2-83.2-45.44 0-82.4 36.48-83.2 81.76zm351.2 250.32c-13.76 0-26.96 2.72-38.96 7.68l136 136c3.36-4.32 5.36-9.76 5.36-15.68v-25.6c0-56.56-45.84-102.4-102.4-102.4M47.92 129.28c-17.2 10-28.72 28.56-28.72 49.84 0 31.84 25.76 57.6 57.6 57.6 21.28 0 39.84-11.52 49.84-28.72zm152.24 152.24C157.44 302.24 128 346.08 128 396.72v12.8c0 14.16 11.44 25.6 25.6 25.6h200.16zm-97.76 0C45.84 281.52 0 327.36 0 383.92v25.6c0 14.16 11.44 25.6 25.6 25.6h69.36a63.5 63.5 0 0 1-5.36-25.6v-12.8c0-42.56 16-81.44 42.32-110.88-9.36-2.8-19.28-4.32-29.52-4.32m390.4-102.4c0-31.84-25.76-57.6-57.6-57.6s-57.6 25.76-57.6 57.6 25.76 57.6 57.6 57.6 57.6-25.76 57.6-57.6"/></svg>