<svg xmlns="http://www.w3.org/2000/svg" viewBox="0 0 512 512"><!--! Font Awesome Free 7.0.1 by @fontawesome - https://fontawesome.com License - https://fontawesome.com/license/free (Icons: CC BY 4.0, Fonts: SIL OFL 1.1, Code: MIT License) Copyright 2025 Fonticons, Inc.--><path fill="currentColor" d="M135.18 70.754a30.17 30.17 0 0 1 18.137-27.678l90.686-39.675a30.16 30.16 0 0 1 24.277 0l90.687 39.675c10.958 4.818 18.043 15.681 18.043 27.678v93.615c0 66.787-54.129 120.915-120.916 120.915-66.786 0-120.915-54.128-120.915-120.915zm196.486 78.5H180.523v15.115c0 41.754 33.818 75.572 75.571 75.572s75.572-33.818 75.572-75.572zm-90.686-105.8v15.114h-15.114c-4.157 0-7.558 3.401-7.558 7.557V81.24c0 4.156 3.401 7.557 7.558 7.557h15.114v15.114c0 4.157 3.4 7.558 7.557 7.558h15.115c4.156 0 7.557-3.401 7.557-7.558V88.797h15.114c4.157 0 7.557-3.4 7.557-7.557V66.125c0-4.156-3.4-7.557-7.557-7.557H271.21V43.454c0-4.157-3.4-7.557-7.557-7.557h-15.115c-4.156 0-7.557 3.4-7.557 7.557M179.2 333.46c-6.14-4.629-14.359-5.857-21.35-2.645-58 26.64-98.337 85.208-98.337 153.128 0 15.492 12.564 28.056 28.056 28.056h336.862c15.492 0 28.056-12.564 28.056-28.056 0-68.015-40.336-126.583-98.338-153.128-6.99-3.212-15.209-1.984-21.349 2.645l-63.292 47.422c-8.029 6.045-19.176 6.045-27.205 0L179.01 333.46z"/></svg>