<svg xmlns="http://www.w3.org/2000/svg" viewBox="0 0 512 512"><!--! Font Awesome Free 7.0.1 by @fontawesome - https://fontawesome.com License - https://fontawesome.com/license/free (Icons: CC BY 4.0, Fonts: SIL OFL 1.1, Code: MIT License) Copyright 2025 Fonticons, Inc.--><path fill="currentColor" d="M134.364 109.69c25.456 0 46.134-20.677 46.134-46.133s-20.678-46.133-46.134-46.133S88.23 38.1 88.23 63.557s20.678 46.134 46.134 46.134M63.022 231.534l18.618-18.618v57.09c0 23.067 10.05 45.062 27.598 60.056l58.82 50.417c4.86 4.202 8.073 9.968 8.98 16.312l10.38 72.578c2.06 14.416 15.405 24.467 29.822 22.407s24.467-15.405 22.407-29.822l-10.38-72.578c-2.718-19.03-12.275-36.33-26.856-48.852l-28.422-24.385v-94.903l3.13 3.872c14.994 18.783 37.732 29.657 61.787 29.657h27.35c14.582 0 26.363-11.78 26.363-26.362s-11.781-26.362-26.363-26.362h-27.35a26.41 26.41 0 0 1-20.595-9.886l-14.747-18.453a99.97 99.97 0 0 0-78.097-37.566c-26.527 0-51.983 10.545-70.683 29.328l-29.081 28.751a79.06 79.06 0 0 0-23.15 55.937v30.893c0 14.581 11.781 26.362 26.363 26.362s26.362-11.78 26.362-26.362V250.15c0-7.002 2.8-13.675 7.744-18.618m10.215 147.792c-1.236 4.284-3.542 8.238-6.673 11.368L10.298 446.96C0 457.258 0 473.98 10.298 484.279c10.297 10.297 27.02 10.297 37.318 0l56.267-56.267c9.474-9.474 16.394-21.254 20.1-34.188l1.813-6.261-37.895-32.458c-2.06-1.813-4.12-3.625-6.096-5.602zM358.441 50.376a19.724 19.724 0 0 0-19.771-19.771 19.724 19.724 0 0 0-19.772 19.771v26.362A19.724 19.724 0 0 0 338.67 96.51a19.724 19.724 0 0 0 19.771-19.772zm0 105.448a19.724 19.724 0 0 0-19.771-19.771 19.724 19.724 0 0 0-19.772 19.771v26.362a19.724 19.724 0 0 0 19.772 19.772 19.724 19.724 0 0 0 19.771-19.772zM338.67 307.406a19.724 19.724 0 0 0-19.772 19.771v26.363a19.724 19.724 0 0 0 19.772 19.771 19.724 19.724 0 0 0 19.771-19.771v-26.363a19.724 19.724 0 0 0-19.771-19.771m19.771 125.22a19.724 19.724 0 0 0-19.771-19.772 19.724 19.724 0 0 0-19.772 19.772v26.362a19.724 19.724 0 0 0 19.772 19.771 19.724 19.724 0 0 0 19.771-19.771zm145.815-163.94c7.744-7.743 7.744-20.265 0-27.927l-59.314-59.314c-7.744-7.744-20.266-7.744-27.928 0-7.661 7.744-7.744 20.266 0 27.927l25.539 25.538H358.44a19.724 19.724 0 0 0-19.771 19.772 19.724 19.724 0 0 0 19.771 19.771h84.112l-25.539 25.539c-7.744 7.743-7.744 20.265 0 27.927s20.266 7.744 27.928 0l59.314-59.315z"/></svg>