<svg xmlns="http://www.w3.org/2000/svg" viewBox="0 0 512 512"><!--! Font Awesome Free 7.0.1 by @fontawesome - https://fontawesome.com License - https://fontawesome.com/license/free (Icons: CC BY 4.0, Fonts: SIL OFL 1.1, Code: MIT License) Copyright 2025 Fonticons, Inc.--><path fill="currentColor" d="M192 128c0-35.3 28.7-64 64-64s64 28.7 64 64c0 41.6-20.7 76.6-46.6 104.1-5.9 6.2-11.8 11.8-17.4 16.7-5.6-4.9-11.5-10.5-17.4-16.7C212.7 204.6 192 169.5 192 128M256 0c-70.7 0-128 57.3-128 128 0 52.4 21.5 95.5 46.8 128H128c-17.7 0-32 14.3-32 32s14.3 32 32 32h96v160c0 17.7 14.3 32 32 32s32-14.3 32-32V320h96c17.7 0 32-14.3 32-32s-14.3-32-32-32h-46.8c25.3-32.5 46.8-75.6 46.8-128C384 57.3 326.7 0 256 0"/></svg>