<svg xmlns="http://www.w3.org/2000/svg" viewBox="0 0 512 512"><!--! Font Awesome Free 7.0.1 by @fontawesome - https://fontawesome.com License - https://fontawesome.com/license/free (Icons: CC BY 4.0, Fonts: SIL OFL 1.1, Code: MIT License) Copyright 2025 Fonticons, Inc.--><path fill="currentColor" d="M284.444 28.444C284.444 12.711 271.734 0 256 0s-28.444 12.711-28.444 28.444c0 15.734 12.71 28.445 28.444 28.445s28.444-12.711 28.444-28.445m-113.777 85.334c15.733 0 28.444-12.711 28.444-28.445S186.4 56.89 170.667 56.89c-15.734 0-28.445 12.711-28.445 28.444 0 15.734 12.711 28.445 28.445 28.445m-35.556 28.444a21.28 21.28 0 0 0-21.333 21.334v14.222c0 .889.089 1.689.178 2.578C47.556 203.733 0 267.022 0 341.333 0 435.556 76.444 512 170.667 512c94.222 0 170.666-76.444 170.666-170.667 0-74.4-47.555-137.6-113.955-160.977.089-.8.178-1.69.178-2.578v-14.222a21.28 21.28 0 0 0-21.334-21.334zM56.89 341.333c0-62.844 50.933-113.777 113.778-113.777 62.844 0 113.777 50.933 113.777 113.777s-50.933 113.778-113.777 113.778S56.889 404.178 56.889 341.333m398.222 0c0 59.467-45.6 108.267-103.644 113.334A213.7 213.7 0 0 1 304 507.91 172.2 172.2 0 0 0 341.333 512C435.556 512 512 435.556 512 341.333c0-74.4-47.556-137.6-113.956-160.977.09-.8.178-1.69.178-2.578v-14.222a21.28 21.28 0 0 0-21.333-21.334h-71.111c-10.934 0-19.911 8.178-21.156 18.756 26.934 17.066 49.867 40 66.845 67.022 58.133 5.156 103.644 53.867 103.644 113.333M341.333 113.778c15.734 0 28.445-12.711 28.445-28.445S357.067 56.89 341.333 56.89 312.89 69.6 312.89 85.333c0 15.734 12.711 28.445 28.444 28.445"/></svg>