<svg xmlns="http://www.w3.org/2000/svg" viewBox="0 0 512 512"><!--! Font Awesome Free 7.0.1 by @fontawesome - https://fontawesome.com License - https://fontawesome.com/license/free (Icons: CC BY 4.0, Fonts: SIL OFL 1.1, Code: MIT License) Copyright 2025 Fonticons, Inc.--><path fill="currentColor" d="M38.259 8.287C29.972 0 16.573 0 8.375 8.287.176 16.573.088 29.972 8.287 38.259L473.74 503.713c8.287 8.287 21.686 8.287 29.884 0 8.199-8.286 8.287-21.685 0-29.884l-84.98-84.98c2.38-2.116 4.76-4.232 7.052-6.348 41.256-38.347 68.848-84.099 81.983-115.57a28.03 28.03 0 0 0 0-21.686c-13.135-31.47-40.727-77.311-81.983-115.57-41.52-38.523-98.557-71.052-169.785-71.052-50.072 0-93.091 16.044-128.705 38.964zm144.132 144.22c20.716-14.81 46.193-23.537 73.609-23.537 70.083 0 126.942 56.86 126.942 126.942 0 27.416-8.727 52.804-23.537 73.609l-30.59-30.59c11.196-18.865 14.987-42.05 8.904-64.97-12.077-45.135-58.534-71.933-103.67-59.856-7.58 2.027-14.721 5.024-21.156 8.815l-30.59-30.59zm-102.7 16.926c-8.286-8.287-21.685-8.287-29.884 0-8.198 8.286-8.286 21.685 0 29.884l241.631 241.719c8.287 8.286 21.686 8.286 29.884 0 8.199-8.287 8.287-21.686 0-29.884zm-37.289 82.336c-8.286-8.287-21.686-8.287-29.884 0-8.198 8.286-8.287 21.686 0 29.884l149.95 150.127c8.287 8.286 21.686 8.286 29.885 0 8.198-8.287 8.286-21.686 0-29.885z"/></svg>