<svg xmlns="http://www.w3.org/2000/svg" viewBox="0 0 512 512"><!--! Font Awesome Free 7.0.1 by @fontawesome - https://fontawesome.com License - https://fontawesome.com/license/free (Icons: CC BY 4.0, Fonts: SIL OFL 1.1, Code: MIT License) Copyright 2025 Fonticons, Inc.--><path fill="currentColor" d="M0 200.667c0-31.378 25.511-56.89 56.889-56.89h56.889l113.689-102.31c16.266-14.578 40.889-14.578 57.066 0l113.69 102.31h56.888c31.378 0 56.889 25.512 56.889 56.89v227.555c0 31.378-25.511 56.89-56.889 56.89H56.89C25.51 485.111 0 459.6 0 428.221zm199.111 163.555v78.222H312.89v-78.222c0-19.644-15.911-35.555-35.556-35.555h-42.666c-19.645 0-35.556 15.91-35.556 35.555m-99.555 7.111c7.822 0 14.222-6.4 14.222-14.222v-28.444c0-7.823-6.4-14.223-14.222-14.223H71.11c-7.822 0-14.222 6.4-14.222 14.223v28.444c0 7.822 6.4 14.222 14.222 14.222zm14.222-128V214.89c0-7.822-6.4-14.222-14.222-14.222H71.11c-7.822 0-14.222 6.4-14.222 14.222v28.444c0 7.823 6.4 14.223 14.222 14.223h28.445c7.822 0 14.222-6.4 14.222-14.223m327.11 128c7.823 0 14.223-6.4 14.223-14.222v-28.444c0-7.823-6.4-14.223-14.222-14.223h-28.445c-7.822 0-14.222 6.4-14.222 14.223v28.444c0 7.822 6.4 14.222 14.222 14.222zm14.223-128V214.89c0-7.822-6.4-14.222-14.222-14.222h-28.445c-7.822 0-14.222 6.4-14.222 14.222v28.444c0 7.823 6.4 14.223 14.222 14.223h28.445c7.822 0 14.222-6.4 14.222-14.223M256 257.556c31.378 0 56.889-25.512 56.889-56.89 0-31.377-25.511-56.888-56.889-56.888s-56.889 25.51-56.889 56.889c0 31.377 25.511 56.889 56.889 56.889"/></svg>