<svg xmlns="http://www.w3.org/2000/svg" viewBox="0 0 512 512"><!--! Font Awesome Free 7.0.1 by @fontawesome - https://fontawesome.com License - https://fontawesome.com/license/free (Icons: CC BY 4.0, Fonts: SIL OFL 1.1, Code: MIT License) Copyright 2025 Fonticons, Inc.--><path fill="currentColor" d="M243.2 29.867c7.556-5.69 18.044-5.69 25.6 0l125.156 93.866c7.377 5.511 16.355 8.534 25.6 8.534a21.28 21.28 0 0 1 21.333 21.333 21.28 21.28 0 0 1-21.333 21.333h-21.334V217.6l52.178 56.889h11.822a21.28 21.28 0 0 1 21.334 21.333 21.28 21.28 0 0 1-21.334 21.334h-7.11v42.666l21.688 28.445h13.867A21.28 21.28 0 0 1 512 409.6a21.28 21.28 0 0 1-21.333 21.333H455.11v28.445c0 15.733-12.711 28.444-28.444 28.444-15.734 0-28.445-12.71-28.445-28.444v-28.445H284.444v28.445c0 15.733-12.71 28.444-28.444 28.444s-28.444-12.71-28.444-28.444v-28.445H113.778v28.445c0 15.733-12.711 28.444-28.445 28.444s-28.444-12.71-28.444-28.444v-28.445H21.333A21.28 21.28 0 0 1 0 409.6a21.28 21.28 0 0 1 21.333-21.333h19.645l15.91-28.445v-42.666h-7.11a21.28 21.28 0 0 1-21.334-21.334 21.28 21.28 0 0 1 21.334-21.333H61.6l52.178-56.889v-42.667H92.444A21.28 21.28 0 0 1 71.111 153.6a21.28 21.28 0 0 1 21.333-21.333c9.245 0 18.223-3.023 25.6-8.534zM113.778 359.822h284.444v-42.666H113.778zm227.555-184.889H170.667V217.6h170.666z"/></svg>