<svg xmlns="http://www.w3.org/2000/svg" viewBox="0 0 512 512"><!--! Font Awesome Free 7.0.1 by @fontawesome - https://fontawesome.com License - https://fontawesome.com/license/free (Icons: CC BY 4.0, Fonts: SIL OFL 1.1, Code: MIT License) Copyright 2025 Fonticons, Inc.--><path fill="currentColor" d="M264.258 0c11.561 0 22.4 6.09 28.284 16l99.097 165.161c6.09 10.22 6.296 22.916.413 33.239-5.884 10.323-16.826 16.826-28.697 16.826H165.16c-11.87 0-22.916-6.4-28.696-16.723s-5.678-23.02.412-33.238l99.097-165.162C241.858 6.09 252.697 0 264.258 0M132.13 280.774c63.897 0 115.613 51.716 115.613 115.613S196.026 512 132.129 512 16.516 460.284 16.516 396.387 68.232 280.774 132.13 280.774m206.452 16.516h115.613c22.812 0 41.29 18.478 41.29 41.29v115.614c0 22.812-18.478 41.29-41.29 41.29H338.58c-22.813 0-41.29-18.478-41.29-41.29V338.58c0-22.813 18.477-41.29 41.29-41.29"/></svg>