<svg xmlns="http://www.w3.org/2000/svg" viewBox="0 0 512 512"><!--! Font Awesome Free 7.0.1 by @fontawesome - https://fontawesome.com License - https://fontawesome.com/license/free (Icons: CC BY 4.0, Fonts: SIL OFL 1.1, Code: MIT License) Copyright 2025 Fonticons, Inc.--><path fill="currentColor" d="M150.588 165.647c0-58.259 47.153-105.412 105.412-105.412s105.412 47.153 105.412 105.412S314.259 271.06 256 271.06s-105.412-47.153-105.412-105.412m135.436 162.918c77.176-14.118 135.623-81.694 135.623-162.918C421.647 74.165 347.482 0 256 0S90.353 74.165 90.353 165.647c0 81.224 58.447 148.8 135.623 162.918-.094.94-.094 1.788-.094 2.73v150.587c0 16.66 13.46 30.118 30.118 30.118 16.659 0 30.118-13.459 30.118-30.118V331.294c0-.941 0-1.788-.094-2.73"/></svg>