<svg xmlns="http://www.w3.org/2000/svg" viewBox="0 0 512 512"><!--! Font Awesome Free 7.0.1 by @fontawesome - https://fontawesome.com License - https://fontawesome.com/license/free (Icons: CC BY 4.0, Fonts: SIL OFL 1.1, Code: MIT License) Copyright 2025 Fonticons, Inc.--><path fill="currentColor" d="M204.606 0c-35.297 0-56.048 56.533-66.23 108.606h-29.77a23.217 23.217 0 0 0-23.273 23.273 23.217 23.217 0 0 0 23.273 23.273h23.273v31.03c0 16.485 3.2 32.194 9.018 46.545H112c-14.74 0-26.667 11.928-26.667 26.667 0 2.909.485 5.721 1.358 8.436l28.024 83.976C77.77 383.612 54.303 430.642 54.303 483.2c0 15.903 12.897 28.8 28.8 28.8h345.794c15.903 0 28.8-12.897 28.8-28.8 0-52.558-23.467-99.588-60.412-131.297l28.024-83.976c.873-2.715 1.358-5.527 1.358-8.436 0-14.74-11.928-26.667-26.667-26.667h-28.897c5.818-14.351 9.018-30.06 9.018-46.545v-31.03h23.273a23.217 23.217 0 0 0 23.273-23.273 23.217 23.217 0 0 0-23.273-23.273h-29.77C363.54 56.63 342.691.097 307.394.097c-9.31 0-18.424 3.782-26.667 7.951-7.951 3.976-17.842 7.564-24.727 7.564s-16.776-3.588-24.727-7.564C223.03 3.782 213.915 0 204.606 0m90.86 469.721-24.048-68.751 27.055-31.515c2.618-3.103 4.072-6.982 4.072-11.055 0-9.406-7.563-16.97-16.97-16.97h-59.15a16.926 16.926 0 0 0-16.97 16.97c0 4.073 1.454 7.952 4.072 11.055l27.055 31.515-24.049 68.751-55.272-174.933h34.618c17.842 9.89 38.303 15.515 60.121 15.515s42.279-5.624 60.121-15.515h34.618zM256 263.758c-33.648 0-62.255-21.43-73.018-51.394 5.527 3.103 11.927 4.848 18.715 4.848h12.024c16 0 30.158-10.279 35.2-25.406 2.23-6.788 11.83-6.788 14.06 0 5.043 15.127 19.298 25.406 35.2 25.406h12.025c6.788 0 13.188-1.745 18.715-4.848-10.763 29.963-39.37 51.394-73.018 51.394z"/></svg>