<svg xmlns="http://www.w3.org/2000/svg" viewBox="0 0 512 512"><!--! Font Awesome Free 7.0.1 by @fontawesome - https://fontawesome.com License - https://fontawesome.com/license/free (Icons: CC BY 4.0, Fonts: SIL OFL 1.1, Code: MIT License) Copyright 2025 Fonticons, Inc.--><path fill="currentColor" d="M37.74 352.767c4.087-14.558 11.765-27.819 22.533-38.587l180.671-180.671 33.801-33.801 103.696 103.696 33.801 33.801-33.8 33.801-180.671 180.67c-10.67 10.67-24.03 18.447-38.587 22.535L31.757 509.707c-8.276 2.293-17.25 0-23.332-6.182S.05 488.469 2.343 480.193zm55.437-3.69a39.54 39.54 0 0 0-9.273 16.552l-24.03 86.646 86.647-24.03a40.1 40.1 0 0 0 16.95-9.671l-70.394-69.497zm352.966-145.673L342.447 99.708l-33.9-33.801 44.768-44.769C366.775 7.578 385.122 0 404.265 0c19.145 0 37.49 7.578 50.951 21.138l35.596 35.596c13.56 13.56 21.138 31.906 21.138 50.95s-7.578 37.49-21.138 50.951l-44.769 44.77z"/></svg>