<svg xmlns="http://www.w3.org/2000/svg" viewBox="0 0 512 512"><!--! Font Awesome Free 7.0.1 by @fontawesome - https://fontawesome.com License - https://fontawesome.com/license/free (Icons: CC BY 4.0, Fonts: SIL OFL 1.1, Code: MIT License) Copyright 2025 Fonticons, Inc.--><path fill="currentColor" d="M0 45.176C0 20.236 20.235 0 45.176 0h45.177c16.659 0 30.118 13.459 30.118 30.118s-13.46 30.117-30.118 30.117H60.235v120.47c0 49.883 40.47 90.354 90.353 90.354s90.353-40.47 90.353-90.353V60.236h-30.117c-16.66 0-30.118-13.46-30.118-30.118C180.706 13.458 194.165 0 210.824 0H256c24.941 0 45.176 20.235 45.176 45.176v135.53c0 72.847-51.764 133.647-120.47 147.576v18.07c0 58.26 47.153 105.413 105.412 105.413 58.258 0 105.411-47.153 105.411-105.412v-80.47c-35.105-12.424-60.235-45.836-60.235-85.177 0-49.882 40.47-90.353 90.353-90.353S512 130.823 512 180.706c0 39.341-25.13 72.847-60.235 85.176v80.47C451.765 437.836 377.6 512 286.118 512c-91.483 0-165.647-74.165-165.647-165.647v-18.07C51.765 314.352 0 253.552 0 180.705zm421.647 165.648c16.659 0 30.118-13.46 30.118-30.118 0-16.659-13.46-30.118-30.118-30.118-16.659 0-30.118 13.46-30.118 30.118 0 16.659 13.46 30.118 30.118 30.118"/></svg>