<svg xmlns="http://www.w3.org/2000/svg" viewBox="0 0 512 512"><!--! Font Awesome Free 7.0.1 by @fontawesome - https://fontawesome.com License - https://fontawesome.com/license/free (Icons: CC BY 4.0, Fonts: SIL OFL 1.1, Code: MIT License) Copyright 2025 Fonticons, Inc.--><path fill="currentColor" d="M512 301.714c0 75.772-61.371 137.143-137.143 137.143h-9.143c-20.228 0-36.571-16.343-36.571-36.571 0-20.229 16.343-36.572 36.571-36.572h9.143c35.314 0 64-28.685 64-64v-9.143h-73.143c-40.343 0-73.143-32.8-73.143-73.142v-73.143c0-40.343 32.8-73.143 73.143-73.143h73.143c40.343 0 73.143 32.8 73.143 73.143zm-292.571 0c0 75.772-61.372 137.143-137.143 137.143h-9.143c-20.229 0-36.572-16.343-36.572-36.571 0-20.229 16.343-36.572 36.572-36.572h9.143c35.314 0 64-28.685 64-64v-9.143H73.143C32.8 292.571 0 259.771 0 219.43v-73.143c0-40.343 32.8-73.143 73.143-73.143h73.143c40.343 0 73.143 32.8 73.143 73.143z"/></svg>