<svg xmlns="http://www.w3.org/2000/svg" viewBox="0 0 512 512"><!--! Font Awesome Free 7.0.1 by @fontawesome - https://fontawesome.com License - https://fontawesome.com/license/free (Icons: CC BY 4.0, Fonts: SIL OFL 1.1, Code: MIT License) Copyright 2025 Fonticons, Inc.--><path fill="currentColor" d="M356.554 42.394c-39.038 0-70.657 31.62-70.657 70.658v219.214L23.405 411.048C8.48 415.465 0 431.274 4.505 446.2c4.504 14.927 20.225 23.406 35.151 18.99l278.655-83.553h38.596c-.176 2.297-.353 4.681-.353 7.066 0 42.924 34.799 77.723 77.723 77.723S512 431.627 512 388.703V42.483H356.554zm113.052 346.22c0 19.52-15.81 35.33-35.329 35.33s-35.329-15.81-35.329-35.33c0-19.518 15.81-35.328 35.329-35.328 19.52 0 35.24 15.81 35.329 35.24zm-420.5-242.442c-29.852 9.097-46.633 40.716-37.536 70.57l24.818 81.078c9.098 29.853 40.717 46.634 70.57 37.537l81.079-24.818c29.852-9.098 46.633-40.717 37.536-70.57l-24.818-81.079c-9.097-29.852-40.716-46.633-70.569-37.536z"/></svg>