<svg xmlns="http://www.w3.org/2000/svg" viewBox="0 0 512 512"><!--! Font Awesome Free 7.0.1 by @fontawesome - https://fontawesome.com License - https://fontawesome.com/license/free (Icons: CC BY 4.0, Fonts: SIL OFL 1.1, Code: MIT License) Copyright 2025 Fonticons, Inc.--><path fill="currentColor" d="M64.125 0c23.69 0 44.383 12.895 55.378 31.988h272.994C403.592 12.895 424.184 0 447.875 0c35.286 0 63.975 28.689 63.975 63.975 0 33.987-26.49 61.776-59.977 63.875l-2.099 2.899-71.472 99.061A63.8 63.8 0 0 1 383.9 256c0 9.296-2 18.193-5.598 26.19l2.2 3.099 69.272 95.962 2.1 2.899c33.486 2.1 59.976 29.888 59.976 63.875 0 35.286-28.689 63.975-63.975 63.975-23.69 0-44.383-12.895-55.378-31.988H119.503C108.408 499.105 87.816 512 64.125 512 28.839 512 .15 483.311.15 448.025c0-23.69 12.895-44.383 31.987-55.378V119.653C13.045 108.358.15 87.666.15 63.975.15 28.689 28.839 0 64.125 0m330.071 413.239-65.474-90.565-2.2-3.099c-2.099.2-4.298.3-6.497.3-35.286 0-63.975-28.689-63.975-63.975s28.689-63.975 63.975-63.975c2.2 0 4.398.1 6.497.3l67.674-93.664c-.6-.9-1.1-1.699-1.6-2.598H119.504a64 64 0 0 1-23.39 23.39v272.994a64 64 0 0 1 23.39 23.39h272.994c.5-.899 1.1-1.799 1.6-2.598z"/></svg>