<svg xmlns="http://www.w3.org/2000/svg" viewBox="0 0 512 512"><!--! Font Awesome Free 7.0.1 by @fontawesome - https://fontawesome.com License - https://fontawesome.com/license/free (Icons: CC BY 4.0, Fonts: SIL OFL 1.1, Code: MIT License) Copyright 2025 Fonticons, Inc.--><path fill="currentColor" d="M372.364 23.273A23.217 23.217 0 0 0 349.09 0a23.217 23.217 0 0 0-23.273 23.273v22.69c-13.479 5.14-26.085 13.092-37.042 23.758l-16.291-16.388c-9.115-9.115-23.855-9.115-32.873 0s-9.115 23.855 0 32.873l16.291 16.291-29.188 29.188-16.29-16.291c-9.116-9.115-23.855-9.115-32.873 0-9.019 9.115-9.116 23.854 0 32.873l16.29 16.29-29.187 29.188-16.291-16.29c-9.116-9.116-23.855-9.116-32.873 0s-9.115 23.854 0 32.872l16.29 16.291-29.187 29.188-16.291-16.29c-9.115-9.116-23.855-9.116-32.873 0-9.018 9.114-9.115 23.854 0 32.872l16.291 16.29c-10.666 10.958-18.618 23.564-23.757 37.043l-22.691.097A23.217 23.217 0 0 0 0 349.091a23.217 23.217 0 0 0 23.273 23.273h15.806c1.26 17.745 6.885 35.297 16.873 50.812l-10.376 10.279c-9.115 9.115-9.115 23.854 0 32.872s23.854 9.115 32.872 0l10.28-10.279c15.514 9.988 33.066 15.613 50.811 16.873v15.806A23.217 23.217 0 0 0 162.812 512a23.217 23.217 0 0 0 23.273-23.273v-22.69c13.479-5.14 26.085-13.092 37.042-23.758l16.388 16.388c9.115 9.115 23.855 9.115 32.873 0s9.115-23.855 0-32.873l-16.291-16.291 29.188-29.188 16.29 16.291c9.116 9.115 23.855 9.115 32.873 0 9.019-9.115 9.116-23.854 0-32.873l-16.29-16.29 29.187-29.188 16.291 16.29c9.116 9.116 23.855 9.116 32.873 0s9.115-23.854 0-32.872l-16.29-16.291 29.187-29.188 16.291 16.29c9.115 9.116 23.855 9.116 32.873 0 9.018-9.114 9.115-23.854 0-32.872l-16.291-16.29c10.666-10.958 18.618-23.564 23.757-37.043h22.691A23.217 23.217 0 0 0 512 163.006a23.217 23.217 0 0 0-23.273-23.273h-15.806c-1.26-17.745-6.885-35.297-16.873-50.812l10.376-10.376c9.115-9.115 9.115-23.854 0-32.872s-23.854-9.115-32.872 0l-10.376 10.279c-15.515-9.988-33.067-15.613-50.812-16.873zM131.879 349.09c0-17.164 13.866-31.03 31.03-31.03s31.03 13.866 31.03 31.03-13.866 31.03-31.03 31.03-31.03-13.866-31.03-31.03m108.606-108.606c17.163 0 31.03 13.867 31.03 31.03 0 17.164-13.867 31.03-31.03 31.03-17.164 0-31.03-13.866-31.03-31.03 0-17.163 13.866-31.03 31.03-31.03"/></svg>