<svg xmlns="http://www.w3.org/2000/svg" viewBox="0 0 512 512"><!--! Font Awesome Free 7.0.1 by @fontawesome - https://fontawesome.com License - https://fontawesome.com/license/free (Icons: CC BY 4.0, Fonts: SIL OFL 1.1, Code: MIT License) Copyright 2025 Fonticons, Inc.--><path fill="currentColor" d="M42.667 49.822A21.28 21.28 0 0 0 21.333 28.49 21.28 21.28 0 0 0 0 49.822v327.111c0 27.467 22.311 49.778 49.778 49.778h163.555v-42.667H49.778c-3.911 0-7.111-3.2-7.111-7.11V170.71h170.666v-42.667H42.667zm256 177.778h170.666c23.556 0 42.667-19.111 42.667-42.667V99.6c0-23.556-19.111-42.667-42.667-42.667h-73.51c-7.556 0-14.756-3.022-20.09-8.355l-7.644-7.645c-8-8-18.845-12.533-30.133-12.533l-39.29.089C275.112 28.489 256 47.6 256 71.156v113.777c0 23.556 19.111 42.667 42.667 42.667m0 256h170.666c23.556 0 42.667-19.111 42.667-42.667V355.6c0-23.556-19.111-42.667-42.667-42.667h-73.51c-7.556 0-14.756-3.022-20.09-8.355l-7.644-7.645c-8-8-18.845-12.533-30.133-12.533l-39.29.089c-23.555 0-42.666 19.111-42.666 42.667v113.777c0 23.556 19.111 42.667 42.667 42.667"/></svg>