<svg xmlns="http://www.w3.org/2000/svg" viewBox="0 0 512 512"><!--! Font Awesome Free 7.0.1 by @fontawesome - https://fontawesome.com License - https://fontawesome.com/license/free (Icons: CC BY 4.0, Fonts: SIL OFL 1.1, Code: MIT License) Copyright 2025 Fonticons, Inc.--><path fill="currentColor" d="M477.304 3.213c8.995-3.213 18.908-.918 25.7 5.782 6.793 6.7 8.996 16.706 5.783 25.701l-163.384 456.1c-4.59 12.76-16.614 21.204-30.107 21.204-13.034 0-24.783-7.894-29.648-19.918l-58.929-145.027c-4.13-10.097-2.294-21.662 4.773-29.923l86.741-103.171a13.99 13.99 0 0 0-.826-18.909c-5.14-5.14-13.401-5.507-18.909-.826l-103.17 86.557a29.54 29.54 0 0 1-29.924 4.773L19.918 226.352C7.894 221.487 0 209.738 0 196.704c0-13.493 8.445-25.517 21.203-30.107z"/></svg>