<svg xmlns="http://www.w3.org/2000/svg" viewBox="0 0 512 512"><!--! Font Awesome Free 7.0.1 by @fontawesome - https://fontawesome.com License - https://fontawesome.com/license/free (Icons: CC BY 4.0, Fonts: SIL OFL 1.1, Code: MIT License) Copyright 2025 Fonticons, Inc.--><path fill="currentColor" d="M76.98 230.34V384.3c0 14.194 11.467 25.66 25.66 25.66h25.66c14.194 0 25.66-11.466 25.66-25.66v-70.725a118.4 118.4 0 0 0 25.661 12.91v19.406c0 7.056 5.774 12.83 12.83 12.83 7.057 0 12.83-5.774 12.83-12.83v-13.552c4.25.481 8.5.722 12.83.722s8.58-.241 12.83-.722v13.552c0 7.056 5.774 12.83 12.83 12.83 7.057 0 12.83-5.774 12.83-12.83v-19.406a111.6 111.6 0 0 0 25.66-12.91V384.3c0 14.193 11.467 25.66 25.66 25.66h25.66c14.194 0 25.661-11.467 25.661-25.66V256l25.66 25.66v39.693a38.16 38.16 0 0 0 6.495 21.33l33.6 50.438c7.056 10.505 18.843 16.84 31.513 16.84 18.042 0 33.599-12.75 37.127-30.472l16.278-81.47a38.52 38.52 0 0 0-6.415-29.91l-3.127-4.411v-65.433a19.2 19.2 0 0 0-19.245-19.245 19.2 19.2 0 0 0-19.245 19.245v11.547l-42.42-59.42c-21.73-30.31-56.693-48.353-93.98-48.353H115.47c-53.165 0-96.226 43.061-96.226 96.226v43.301C7.538 251.028 0 265.462 0 281.66v14.113a11.5 11.5 0 0 0 11.547 11.547c25.5 0 46.188-20.688 46.188-46.188v-62.867c0-19.486 9.703-36.726 24.458-47.231-3.368 8.66-5.213 18.122-5.213 27.986zm372.072 89.81c0-7.056 5.774-12.83 12.83-12.83 7.057 0 12.83 5.774 12.83 12.83 0 7.057-5.773 12.83-12.83 12.83-7.056 0-12.83-5.773-12.83-12.83M133.593 184.312c-3.368-3.368-5.292-8.019-5.292-12.83 0-10.024 8.099-18.123 18.122-18.123H289.72c10.024 0 18.123 8.1 18.123 18.123 0 4.811-1.925 9.462-5.293 12.83l-18.764 18.764c-17.4 17.48-41.056 27.264-65.674 27.264-24.617 0-48.273-9.783-65.674-27.184l-18.764-18.764z"/></svg>