<svg xmlns="http://www.w3.org/2000/svg" viewBox="0 0 512 512"><!--! Font Awesome Free 7.0.1 by @fontawesome - https://fontawesome.com License - https://fontawesome.com/license/free (Icons: CC BY 4.0, Fonts: SIL OFL 1.1, Code: MIT License) Copyright 2025 Fonticons, Inc.--><path fill="currentColor" d="M73.143 0C32.8 0 0 32.8 0 73.143v365.714C0 479.2 32.8 512 73.143 512h365.714C479.2 512 512 479.2 512 438.857V73.143C512 32.8 479.2 0 438.857 0zm265.143 110.514 3.2.915c36.914 10.057 68.457 45.828 59.2 89.371-21.143 100-99.886 178.629-199.886 199.886-43.543 9.257-79.314-22.286-89.371-59.2l-.915-3.2c-3.085-11.2 2.743-22.972 13.486-27.429l55.657-23.2c9.486-3.886 20.343-1.257 26.857 6.743l22.057 26.971c40.115-19.885 72.458-53.257 90.972-94.171l-25.257-20.571a23.33 23.33 0 0 1-6.743-26.858l23.2-55.657c4.457-10.743 16.228-16.457 27.428-13.485z"/></svg>