<svg xmlns="http://www.w3.org/2000/svg" viewBox="0 0 512 512"><!--! Font Awesome Free 7.0.1 by @fontawesome - https://fontawesome.com License - https://fontawesome.com/license/free (Icons: CC BY 4.0, Fonts: SIL OFL 1.1, Code: MIT License) Copyright 2025 Fonticons, Inc.--><path fill="currentColor" d="M59.89 0C26.907 0 .092 26.815.092 59.796v358.773c0 32.981 26.815 59.796 59.796 59.796h74.745V373.723c0-32.981 26.814-59.796 59.795-59.796h164.438V159.299c0-15.883-6.26-31.112-17.471-42.324l-99.597-99.503C230.587 6.26 215.45 0 199.568 0zm244.32 164.438h-87.357a22.37 22.37 0 0 1-22.424-22.423V54.657zm-87.357 190.598c-22.704 0-41.11 18.406-41.11 41.11v74.745c0 22.703 18.406 41.109 41.11 41.109H231.8c22.704 0 41.11-18.406 41.11-41.11v-7.474c0-10.277-8.409-18.686-18.686-18.686-10.278 0-18.686 8.409-18.686 18.686v7.475a3.75 3.75 0 0 1-3.738 3.737h-14.948a3.75 3.75 0 0 1-3.738-3.737v-74.745a3.75 3.75 0 0 1 3.738-3.737H231.8a3.75 3.75 0 0 1 3.738 3.737v7.474c0 10.278 8.408 18.687 18.686 18.687 10.277 0 18.686-8.41 18.686-18.687v-7.474c0-22.704-18.406-41.11-41.11-41.11zm127.065 0c-26.814 0-48.584 21.77-48.584 48.584s21.77 48.584 48.584 48.584c6.167 0 11.212 5.046 11.212 11.212s-5.045 11.212-11.212 11.212H314.02c-10.277 0-18.686 8.408-18.686 18.686 0 10.277 8.41 18.686 18.686 18.686h29.898c26.815 0 48.584-21.77 48.584-48.584s-21.77-48.584-48.584-48.584c-6.166 0-11.211-5.045-11.211-11.212s5.045-11.211 11.211-11.211h22.424c10.277 0 18.686-8.409 18.686-18.686 0-10.278-8.409-18.687-18.686-18.687zm89.694 0c-10.278 0-18.686 8.41-18.686 18.687v29.524c0 33.168 9.81 65.681 28.216 93.244l4.765 7.194c3.457 5.232 9.343 8.315 15.51 8.315 6.165 0 12.052-3.083 15.509-8.315l4.765-7.194c18.405-27.656 28.216-60.076 28.216-93.244v-29.524c0-10.278-8.41-18.687-18.687-18.687s-18.686 8.41-18.686 18.687v29.524a130.5 130.5 0 0 1-11.211 52.975 130.5 130.5 0 0 1-11.212-52.975v-29.524c0-10.278-8.409-18.687-18.686-18.687z"/></svg>