<svg xmlns="http://www.w3.org/2000/svg" viewBox="0 0 512 512"><!--! Font Awesome Free 7.0.1 by @fontawesome - https://fontawesome.com License - https://fontawesome.com/license/free (Icons: CC BY 4.0, Fonts: SIL OFL 1.1, Code: MIT License) Copyright 2025 Fonticons, Inc.--><path fill="currentColor" d="M245.372 64.121c-9.35-7.056-22.05-7.497-32.017-1.323-9.966 6.174-14.905 17.993-12.612 29.459l8.555 42.865c-17.11 7.938-32.546 17.552-46.217 27.783-13.494 10.143-25.577 21.08-35.897 32.017L45.07 147.029c-11.025-6.438-25.049-4.674-34.133 4.322S0 174.283 6.262 185.396l40.484 70.648L6.35 326.692c-6.35 11.113-4.41 25.049 4.675 34.045s23.02 10.76 34.133 4.322l82.114-47.892c10.408 10.848 22.403 21.873 35.898 32.016 13.67 10.231 29.106 19.845 46.216 27.783l-8.555 42.865c-2.293 11.466 2.734 23.197 12.613 29.37 9.878 6.175 22.579 5.734 32.016-1.322l68.443-51.333c48.422-3.528 89.523-23.814 121.01-47.451 34.575-25.93 59.27-57.065 71.971-78.939a28.03 28.03 0 0 0 0-28.312c-12.7-21.874-37.485-53.008-71.97-78.939-31.576-23.637-72.59-43.923-121.01-47.451zm95.961 191.923c0-15.611 12.613-28.224 28.224-28.224s28.224 12.613 28.224 28.224-12.612 28.224-28.224 28.224-28.224-12.613-28.224-28.224"/></svg>