<svg xmlns="http://www.w3.org/2000/svg" viewBox="0 0 512 512"><!--! Font Awesome Free 7.0.1 by @fontawesome - https://fontawesome.com License - https://fontawesome.com/license/free (Icons: CC BY 4.0, Fonts: SIL OFL 1.1, Code: MIT License) Copyright 2025 Fonticons, Inc.--><path fill="currentColor" d="M109.714 0C89.486 0 73.143 16.343 73.143 36.571V475.43c0 20.228 16.343 36.571 36.571 36.571h182.857c80.8 0 146.286-65.486 146.286-146.286 0-53.143-28.343-99.771-70.857-125.371 21.371-25.486 34.286-58.286 34.286-94.057C402.286 65.486 336.8 0 256 0zM256 219.429H146.286V73.143H256c40.343 0 73.143 32.8 73.143 73.143s-32.8 73.143-73.143 73.143M146.286 292.57H292.57c40.343 0 73.143 32.8 73.143 73.143s-32.8 73.143-73.143 73.143H146.286z"/></svg>