<svg xmlns="http://www.w3.org/2000/svg" viewBox="0 0 512 512"><!--! Font Awesome Free 7.0.1 by @fontawesome - https://fontawesome.com License - https://fontawesome.com/license/free (Icons: CC BY 4.0, Fonts: SIL OFL 1.1, Code: MIT License) Copyright 2025 Fonticons, Inc.--><path fill="currentColor" d="M36.571 27.429A27.363 27.363 0 0 1 64 0h384a27.363 27.363 0 0 1 27.429 27.429A27.363 27.363 0 0 1 448 54.857H64A27.363 27.363 0 0 1 36.571 27.43m0 118.857c0-20.229 16.343-36.572 36.572-36.572h365.714c20.229 0 36.572 16.343 36.572 36.572 0 20.228-16.343 36.571-36.572 36.571H292.571V475.43C292.571 495.657 276.23 512 256 512s-36.571-16.343-36.571-36.571V182.857H73.143c-20.229 0-36.572-16.343-36.572-36.571"/></svg>