<svg xmlns="http://www.w3.org/2000/svg" viewBox="0 0 512 512"><!--! Font Awesome Free 7.0.1 by @fontawesome - https://fontawesome.com License - https://fontawesome.com/license/free (Icons: CC BY 4.0, Fonts: SIL OFL 1.1, Code: MIT License) Copyright 2025 Fonticons, Inc.--><path fill="currentColor" d="M167.764 27.96C160.121 9.676 140.19 0 121.228 5.129l-5.322 1.451C53.406 23.607 0 84.172 15.576 157.896c35.895 169.312 169.12 302.536 338.432 338.43 73.82 15.674 134.288-37.829 151.316-100.329l1.452-5.321c5.224-19.06-4.548-38.99-22.737-46.537l-94.137-39.184c-15.964-6.675-34.443-2.031-45.473 11.417l-37.345 45.666c-68.015-33.766-122.776-90.268-154.22-159.637l42.764-34.83c13.448-10.933 17.996-29.412 11.417-45.473z"/></svg>