<svg xmlns="http://www.w3.org/2000/svg" viewBox="0 0 512 512"><!--! Font Awesome Free 7.0.1 by @fontawesome - https://fontawesome.com License - https://fontawesome.com/license/free (Icons: CC BY 4.0, Fonts: SIL OFL 1.1, Code: MIT License) Copyright 2025 Fonticons, Inc.--><path fill="currentColor" d="M0 327.111c0 70.667 57.333 128 128 128h270.222c62.845 0 113.778-50.933 113.778-113.778 0-45.866-27.111-85.422-66.222-103.377a85.2 85.2 0 0 0 9.333-38.845c0-47.111-38.222-85.333-85.333-85.333a84.9 84.9 0 0 0-43.022 11.644c-21.423-40.71-64.178-68.533-113.423-68.533-70.666 0-128 57.333-128 128 0 7.111.623 14.133 1.69 20.889C36.443 222.844 0 270.756 0 327.11"/></svg>