<svg xmlns="http://www.w3.org/2000/svg" viewBox="0 0 512 512"><!--! Font Awesome Free 7.0.1 by @fontawesome - https://fontawesome.com License - https://fontawesome.com/license/free (Icons: CC BY 4.0, Fonts: SIL OFL 1.1, Code: MIT License) Copyright 2025 Fonticons, Inc.--><path fill="currentColor" d="M112 56c13.3 0 24 10.7 24 24s-10.7 24-24 24-24-10.7-24-24 10.7-24 24-24m32.4 97.2c28-12.4 47.6-40.5 47.6-73.2 0-44.2-35.8-80-80-80S32 35.8 32 80c0 32.8 19.7 61 48 73.3v205.3C51.7 371 32 399.2 32 432c0 44.2 35.8 80 80 80s80-35.8 80-80c0-32.8-19.7-61-48-73.3v-86.6c26.7 20.1 60 32 96 32h86.7c12.3 28.3 40.5 48 73.3 48 44.2 0 80-35.8 80-80s-35.8-80-80-80c-32.8 0-61 19.7-73.3 48L240 240c-49.9 0-91-38.1-95.6-86.8M112 408c13.3 0 24 10.7 24 24s-10.7 24-24 24-24-10.7-24-24 10.7-24 24-24m264-136c0-13.3 10.7-24 24-24s24 10.7 24 24-10.7 24-24 24-24-10.7-24-24"/></svg>