<svg xmlns="http://www.w3.org/2000/svg" viewBox="0 0 512 512"><!--! Font Awesome Free 7.0.1 by @fontawesome - https://fontawesome.com License - https://fontawesome.com/license/free (Icons: CC BY 4.0, Fonts: SIL OFL 1.1, Code: MIT License) Copyright 2025 Fonticons, Inc.--><path fill="currentColor" d="M159.037 96.963c17.594 0 31.807-14.214 31.807-31.807 0-17.594-14.213-31.808-31.807-31.808H95.422C42.742 33.348 0 76.09 0 128.77v254.46c0 52.68 42.741 95.422 95.422 95.422h63.615c17.594 0 31.807-14.214 31.807-31.808 0-17.593-14.213-31.807-31.807-31.807H95.422c-17.593 0-31.807-14.214-31.807-31.807V128.77c0-17.593 14.214-31.807 31.807-31.807zm340.538 181.501c12.425-12.425 12.425-32.603 0-45.027l-127.23-127.23c-12.424-12.425-32.602-12.425-45.027 0s-12.425 32.603 0 45.027l72.958 72.959H190.844c-17.593 0-31.807 14.214-31.807 31.807s14.214 31.807 31.807 31.807h209.432l-72.958 72.959c-12.425 12.424-12.425 32.602 0 45.027s32.603 12.425 45.028 0l127.23-127.23z"/></svg>