<svg xmlns="http://www.w3.org/2000/svg" viewBox="0 0 512 512"><!--! Font Awesome Free 7.0.1 by @fontawesome - https://fontawesome.com License - https://fontawesome.com/license/free (Icons: CC BY 4.0, Fonts: SIL OFL 1.1, Code: MIT License) Copyright 2025 Fonticons, Inc.--><path fill="currentColor" d="M155.378 240.578h201.244c38.667 0 70.045-31.378 70.045-70.045a69.99 69.99 0 0 0-29.423-57.066L264.267 18.889c-4.978-3.467-11.556-3.467-16.445 0l-133.066 94.578a69.99 69.99 0 0 0-29.423 57.066c0 38.667 31.378 70.045 70.045 70.045m299.733 256c31.378 0 56.889-25.511 56.889-56.89v-199.11c0-15.734-12.711-28.445-28.444-28.445-15.734 0-28.445 12.711-28.445 28.445v42.666H56.89v-42.666c0-15.734-12.711-28.445-28.445-28.445S0 224.844 0 240.578v199.11c0 31.379 25.511 56.89 56.889 56.89zM213.333 382.8c0-23.556 19.111-42.667 42.667-42.667s42.667 19.111 42.667 42.667v71.111h-85.334z"/></svg>