<svg xmlns="http://www.w3.org/2000/svg" viewBox="0 0 512 512"><!--! Font Awesome Free 7.0.1 by @fontawesome - https://fontawesome.com License - https://fontawesome.com/license/free (Icons: CC BY 4.0, Fonts: SIL OFL 1.1, Code: MIT License) Copyright 2025 Fonticons, Inc.--><path fill="currentColor" d="M82.219 31.533C36.812 31.533 0 68.345 0 113.752v156.963c0 16.538 13.36 29.898 29.898 29.898 16.537 0 29.898-13.36 29.898-29.898V210.92h59.795v59.795c0 16.538 13.36 29.898 29.898 29.898 16.537 0 29.898-13.36 29.898-29.898V113.752c0-45.407-36.812-82.22-82.22-82.22zm37.372 119.591H59.796v-37.372a22.37 22.37 0 0 1 22.423-22.424h14.949a22.37 22.37 0 0 1 22.423 22.424zm134.54-119.591c-16.537 0-29.897 13.36-29.897 29.898v209.284c0 16.538 13.36 29.898 29.897 29.898h67.27c45.408 0 82.22-36.812 82.22-82.219 0-22.05-8.69-42.044-22.798-56.806 9.624-13.454 15.323-29.99 15.323-47.836 0-45.407-36.812-82.22-82.219-82.22zm59.796 104.642h-29.898V91.328h29.898a22.37 22.37 0 0 1 22.423 22.424 22.37 22.37 0 0 1-22.423 22.423m-29.898 104.643V195.97h37.372a22.37 22.37 0 0 1 22.424 22.423 22.37 22.37 0 0 1-22.424 22.424zm217.694 78.481c10.277-12.893 8.222-31.673-4.672-42.044s-31.673-8.221-42.044 4.672l-98.756 123.422-36.158-36.158c-11.678-11.679-30.645-11.679-42.324 0s-11.678 30.645 0 42.324l59.796 59.796c5.98 5.98 14.295 9.156 22.797 8.689s16.35-4.578 21.676-11.212z"/></svg>