<svg xmlns="http://www.w3.org/2000/svg" viewBox="0 0 512 512"><!--! Font Awesome Free 7.0.1 by @fontawesome - https://fontawesome.com License - https://fontawesome.com/license/free (Icons: CC BY 4.0, Fonts: SIL OFL 1.1, Code: MIT License) Copyright 2025 Fonticons, Inc.--><path fill="currentColor" d="M178.03 72.934c0-14.376 11.615-25.99 25.99-25.99h103.96c14.375 0 25.99 11.614 25.99 25.99v25.99h38.984c35.899 0 64.975 29.076 64.975 64.974v103.96h-.081c.08.568.08 1.056.08 1.624 0 24.528-6.172 48.569-17.867 70.092l-10.315 18.923-.487.813c-18.112-9.178-37.767-13.645-57.503-13.564-26.396.163-52.71 8.69-75.045 25.503-17.95 13.482-23.635 13.482-41.584 0-22.822-17.137-49.787-25.665-76.67-25.503-19.168.163-38.254 4.63-55.797 13.564l-.487-.813-10.315-18.923C80.162 318.05 73.99 293.929 73.99 269.482c0-.568 0-1.137.081-1.624h-.081v-103.96c0-35.898 29.076-64.974 64.974-64.974h38.985v-25.99zm-51.98 181.929h259.9v-90.965c0-7.147-5.848-12.994-12.996-12.994H139.046c-7.148 0-12.995 5.847-12.995 12.994zm197.686 178.761C304 448.406 281.259 462.782 256 462.782s-48-14.376-67.736-29.158c-17.3-13.076-40.528-13.076-57.827 0-19.33 14.538-43.94 28.833-71.554 28.67-16.568-.08-33.056-5.441-48.568-17.137-8.61-6.497-10.315-18.68-3.818-27.289 6.498-8.61 18.68-10.315 27.29-3.817 9.177 6.903 17.543 9.259 25.34 9.34 14.294.081 30.294-7.635 47.837-20.873 31.188-23.554 73.503-23.554 104.772 0 19.492 14.7 33.056 21.36 44.264 21.36s24.772-6.66 44.264-21.36c31.188-23.554 73.502-23.554 104.772 0 13.725 10.314 26.72 17.462 38.822 19.98 11.127 2.274 22.254.73 34.355-8.366 8.61-6.497 20.792-4.792 27.29 3.817s4.791 20.792-3.818 27.29c-21.441 16.162-44.02 19.817-65.543 15.512-20.548-4.142-39.066-15.35-54.579-27.045-17.299-13.077-40.527-13.077-57.827 0z"/></svg>