<svg xmlns="http://www.w3.org/2000/svg" viewBox="0 0 512 512"><!--! Font Awesome Free 7.0.1 by @fontawesome - https://fontawesome.com License - https://fontawesome.com/license/free (Icons: CC BY 4.0, Fonts: SIL OFL 1.1, Code: MIT License) Copyright 2025 Fonticons, Inc.--><path fill="currentColor" d="M438.857 219.429c40.343 0 73.143-32.8 73.143-73.143V73.143C512 32.8 479.2 0 438.857 0H73.143C32.8 0 0 32.8 0 73.143v73.143c0 40.343 32.8 73.143 73.143 73.143h146.286v73.142h-36.572c-7.428 0-14.057 4.458-16.914 11.315s-1.257 14.743 4 19.885l73.143 73.143c7.085 7.086 18.743 7.086 25.828 0l73.143-73.143c5.257-5.257 6.743-13.142 4-19.885s-9.486-11.315-16.914-11.315H292.57V219.43zM73.143 292.57C32.8 292.571 0 325.371 0 365.714v73.143C0 479.2 32.8 512 73.143 512h365.714C479.2 512 512 479.2 512 438.857v-73.143c0-40.343-32.8-73.143-73.143-73.143H400c6.4 24.8-.571 51.543-19.086 70.058l-73.143 73.142c-28.571 28.572-74.857 28.572-103.428 0L131.2 362.63c-18.514-18.515-25.6-45.258-19.2-70.058z"/></svg>