<svg xmlns="http://www.w3.org/2000/svg" viewBox="0 0 512 512"><!--! Font Awesome Free 7.0.1 by @fontawesome - https://fontawesome.com License - https://fontawesome.com/license/free (Icons: CC BY 4.0, Fonts: SIL OFL 1.1, Code: MIT License) Copyright 2025 Fonticons, Inc.--><path fill="currentColor" d="M50.866 77.968c0-7.073 3.02-16.61 4.928-21.697.795-2.226 3.02-3.736 5.404-3.736 1.51 0 3.02.557 4.133 1.67l36.401 34.652 36.401-34.653c1.113-1.033 2.544-1.669 4.133-1.669 2.385 0 4.61 1.43 5.405 3.736 1.907 5.166 4.928 14.624 4.928 21.697 0 21.062-17.406 33.381-23.447 37.037l60.563 57.702c4.769 4.53 11.047 6.994 17.565 6.994h199.65c32.03 0 62.152 15.1 81.385 40.693l15.26 20.346c8.425 11.207 6.12 27.182-5.086 35.606-11.207 8.425-27.182 6.12-35.607-5.086l-15.26-20.347c-4.212-5.563-9.378-10.173-15.26-13.511v69.464H152.6l-32.11-74.948c-3.1-7.312-12.16-10.014-18.757-5.563l-33.46 22.254c-7.233 4.848-15.657 7.391-24.4 7.391h-1.59C18.996 256 0 237.005 0 213.638a42.3 42.3 0 0 1 9.299-26.466l60.324-75.346c-7.55-5.722-18.757-17.008-18.757-33.858M432.363 332.3v101.733c0 14.067-11.366 25.433-25.433 25.433h-25.434c-14.067 0-25.433-11.366-25.433-25.433v-50.867H228.898v50.867c0 14.067-11.366 25.433-25.433 25.433h-25.433c-14.068 0-25.433-11.366-25.433-25.433V332.299zm-228.898-57.224A19.03 19.03 0 0 0 222.54 256a19.03 19.03 0 0 0-19.075-19.075A19.03 19.03 0 0 0 184.39 256a19.03 19.03 0 0 0 19.075 19.075M400.57 256a19.03 19.03 0 0 0-19.075-19.075A19.03 19.03 0 0 0 362.422 256a19.03 19.03 0 0 0 19.074 19.075A19.03 19.03 0 0 0 400.571 256m-108.09 19.075A19.03 19.03 0 0 0 311.555 256a19.03 19.03 0 0 0-19.074-19.075A19.03 19.03 0 0 0 273.406 256a19.03 19.03 0 0 0 19.075 19.075"/></svg>