<svg xmlns="http://www.w3.org/2000/svg" viewBox="0 0 512 512"><!--! Font Awesome Free 7.0.1 by @fontawesome - https://fontawesome.com License - https://fontawesome.com/license/free (Icons: CC BY 4.0, Fonts: SIL OFL 1.1, Code: MIT License) Copyright 2025 Fonticons, Inc.--><path fill="currentColor" d="M271.857 5.585c-9.774-5.585-21.84-5.585-31.714 0L16.754 133.235C6.881 138.92.698 149.492.698 160.96v319.127C.698 497.74 14.96 512 32.611 512s31.913-14.261 31.913-31.913V179.51L256 70.11l191.476 109.4v300.578c0 17.652 14.261 31.913 31.913 31.913s31.913-14.261 31.913-31.913V160.96c0-11.469-6.183-22.04-16.056-27.724zM256 208.829c22.04 0 39.89-17.851 39.89-39.89s-17.85-39.892-39.89-39.892-39.89 17.851-39.89 39.891S233.96 208.83 256 208.83m-7.978 191.476h15.956v87.76A23.877 23.877 0 0 0 287.913 512a23.877 23.877 0 0 0 23.934-23.935V314.041l26.827 49.764c6.283 11.668 20.743 15.957 32.411 9.773 11.668-6.183 15.957-20.743 9.774-32.41l-33.11-61.533c-18.25-33.807-53.454-54.85-91.749-54.85s-73.499 21.043-91.65 54.75l-33.109 61.532c-6.283 11.668-1.895 26.129 9.773 32.412 11.669 6.283 26.129 1.895 32.412-9.774l26.727-49.664v174.024A23.877 23.877 0 0 0 224.087 512a23.877 23.877 0 0 0 23.935-23.935z"/></svg>