<svg xmlns="http://www.w3.org/2000/svg" viewBox="0 0 512 512"><!--! Font Awesome Free 7.0.1 by @fontawesome - https://fontawesome.com License - https://fontawesome.com/license/free (Icons: CC BY 4.0, Fonts: SIL OFL 1.1, Code: MIT License) Copyright 2025 Fonticons, Inc.--><path fill="currentColor" d="M192 112c0-35.3 28.7-64 64-64s64 28.7 64 64v48H192zm-48 48H80c-26.5 0-48 21.5-48 48v208c0 53 43 96 96 96h256c53 0 96-43 96-96V208c0-26.5-21.5-48-48-48h-64v-48C368 50.1 317.9 0 256 0S144 50.1 144 112zm24 48c13.3 0 24 10.7 24 24s-10.7 24-24 24-24-10.7-24-24 10.7-24 24-24m152 24c0-13.3 10.7-24 24-24s24 10.7 24 24-10.7 24-24 24-24-10.7-24-24"/></svg>