<svg xmlns="http://www.w3.org/2000/svg" viewBox="0 0 512 512"><!--! Font Awesome Free 7.0.1 by @fontawesome - https://fontawesome.com License - https://fontawesome.com/license/free (Icons: CC BY 4.0, Fonts: SIL OFL 1.1, Code: MIT License) Copyright 2025 Fonticons, Inc.--><path fill="currentColor" d="M38.259 8.287C29.972 0 16.573 0 8.375 8.287.176 16.573.088 29.972 8.287 38.259L473.74 503.713c8.287 8.287 21.686 8.287 29.884 0 8.199-8.286 8.287-21.685 0-29.884L368.75 338.953V143.074c0-31.118-25.3-56.418-56.418-56.418H116.54zm-7.934 134.787V368.75c0 31.119 25.3 56.419 56.419 56.419h225.675c6.876 0 13.487-1.234 19.57-3.526L33.851 123.504c-2.292 6.083-3.526 12.694-3.526 19.57m380.827 183.361 64.793 51.835c3.702 2.997 8.286 4.584 13.047 4.584 11.548 0 20.892-9.344 20.892-20.893V149.862c0-11.548-9.344-20.892-20.892-20.892-4.76 0-9.345 1.586-13.047 4.584l-64.793 51.834z"/></svg>