<svg xmlns="http://www.w3.org/2000/svg" viewBox="0 0 512 512"><!--! Font Awesome Free 7.0.1 by @fontawesome - https://fontawesome.com License - https://fontawesome.com/license/free (Icons: CC BY 4.0, Fonts: SIL OFL 1.1, Code: MIT License) Copyright 2025 Fonticons, Inc.--><path fill="currentColor" d="M256 512c141.4 0 256-114.6 256-256S397.4 0 256 0 0 114.6 0 256s114.6 256 256 256m90.6-113.9c-20.4-28-53.4-46.1-90.6-46.1s-70.2 18.1-90.6 46.1c-7.8 10.7-22.8 13.1-33.5 5.3s-13.1-22.8-5.3-33.5C155.7 330 202.8 304 256 304s100.3 26 129.4 65.9c7.8 10.7 5.4 25.7-5.3 33.5s-25.7 5.4-33.5-5.3M144 208c0-17.7 14.3-32 32-32s32 14.3 32 32-14.3 32-32 32-32-14.3-32-32m192-32c17.7 0 32 14.3 32 32s-14.3 32-32 32-32-14.3-32-32 14.3-32 32-32"/></svg>