<svg xmlns="http://www.w3.org/2000/svg" viewBox="0 0 512 512"><!--! Font Awesome Free 7.0.1 by @fontawesome - https://fontawesome.com License - https://fontawesome.com/license/free (Icons: CC BY 4.0, Fonts: SIL OFL 1.1, Code: MIT License) Copyright 2025 Fonticons, Inc.--><path fill="currentColor" d="M272.516 24.774c0 14.039 5.987 27.355 16.31 36.749L316.18 86.09c24.774 22.297 38.916 53.987 38.916 87.33a24.715 24.715 0 0 1-24.774 24.774 24.715 24.715 0 0 1-24.775-24.775c0-19.303-8.154-37.574-22.503-50.477L255.69 98.374c-20.851-18.787-32.722-45.522-32.722-73.6A24.715 24.715 0 0 1 247.742 0a24.715 24.715 0 0 1 24.774 24.774M24.774 330.323v-82.581c0-36.439 29.626-66.065 66.065-66.065h20.335c8.361 0 16.723 1.652 24.568 4.749l141.523 56.568c7.845 3.096 16.103 4.748 24.567 4.748h119.33c36.438 0 66.064 29.626 66.064 66.064v132.13c0 36.438-29.626 66.064-66.065 66.064H90.84c-36.439 0-66.065-29.626-66.065-66.065zm99.097-16.517a24.715 24.715 0 0 0-24.774 24.775v82.58a24.715 24.715 0 0 0 24.774 24.774 24.715 24.715 0 0 0 24.774-24.774v-82.58a24.715 24.715 0 0 0-24.774-24.775m156.903 24.775A24.715 24.715 0 0 0 256 313.806a24.715 24.715 0 0 0-24.774 24.775v82.58A24.715 24.715 0 0 0 256 445.935a24.715 24.715 0 0 0 24.774-24.774zm107.355-24.775a24.715 24.715 0 0 0-24.774 24.775v82.58a24.715 24.715 0 0 0 24.774 24.774 24.715 24.715 0 0 0 24.774-24.774v-82.58a24.715 24.715 0 0 0-24.774-24.775M363.355 0a24.715 24.715 0 0 1 24.774 24.774c0 14.039 5.987 27.355 16.31 36.749l27.355 24.567c24.774 22.297 38.916 53.987 38.916 87.33a24.715 24.715 0 0 1-24.775 24.774 24.715 24.715 0 0 1-24.774-24.775c0-19.303-8.155-37.574-22.503-50.477l-27.355-24.568c-20.851-18.787-32.722-45.522-32.722-73.6A24.715 24.715 0 0 1 363.355 0M90.839 24.774c31.896 0 57.806 25.91 57.806 57.807 0 31.896-25.91 57.806-57.806 57.806-31.897 0-57.807-25.91-57.807-57.806 0-31.897 25.91-57.807 57.807-57.807"/></svg>