<svg xmlns="http://www.w3.org/2000/svg" viewBox="0 0 512 512"><!--! Font Awesome Free 7.0.1 by @fontawesome - https://fontawesome.com License - https://fontawesome.com/license/free (Icons: CC BY 4.0, Fonts: SIL OFL 1.1, Code: MIT License) Copyright 2025 Fonticons, Inc.--><path fill="currentColor" d="M171.345 21.236C175.612 8.533 187.442 0 200.825 0h110.448c13.382 0 25.212 8.533 29.479 21.236l8.339 25.31h93.09c17.164 0 31.031 13.866 31.031 31.03 0 17.163-13.867 31.03-31.03 31.03H69.818c-17.163 0-31.03-13.867-31.03-31.03 0-17.164 13.867-31.03 31.03-31.03h93.091zM69.818 155.152h372.364v294.787c0 34.23-27.83 62.061-62.06 62.061H131.878c-34.23 0-62.06-27.83-62.06-62.06zm85.334 62.06a23.217 23.217 0 0 0-23.273 23.273v186.182a23.217 23.217 0 0 0 23.273 23.272 23.217 23.217 0 0 0 23.272-23.272V240.485a23.217 23.217 0 0 0-23.272-23.273m100.848 0a23.217 23.217 0 0 0-23.273 23.273v186.182A23.217 23.217 0 0 0 256 449.939a23.217 23.217 0 0 0 23.273-23.272V240.485A23.217 23.217 0 0 0 256 217.212m100.848 0a23.217 23.217 0 0 0-23.272 23.273v186.182a23.217 23.217 0 0 0 23.272 23.272 23.217 23.217 0 0 0 23.273-23.272V240.485a23.217 23.217 0 0 0-23.273-23.273"/></svg>