<svg xmlns="http://www.w3.org/2000/svg" viewBox="0 0 512 512"><!--! Font Awesome Free 7.0.1 by @fontawesome - https://fontawesome.com License - https://fontawesome.com/license/free (Icons: CC BY 4.0, Fonts: SIL OFL 1.1, Code: MIT License) Copyright 2025 Fonticons, Inc.--><path fill="currentColor" d="M256 0c16.659 0 30.118 13.459 30.118 30.118v30.117h30.117c16.66 0 30.118 13.46 30.118 30.118 0 16.659-13.459 30.118-30.118 30.118h-30.117v60.235H430.87c19.858 0 35.953 16.094 35.953 35.953a35.55 35.55 0 0 1-4.424 17.223L376.47 391.53l52.895 66.165c4.706 5.93 7.34 13.27 7.34 20.894 0 18.447-14.964 33.412-33.41 33.412h-294.59c-18.446 0-33.41-14.965-33.41-33.412 0-7.623 2.54-14.964 7.34-20.894l52.894-66.165L49.6 233.976a36.2 36.2 0 0 1-4.424-17.317c0-19.859 16.095-35.953 35.953-35.953h144.753V120.47h-30.117c-16.66 0-30.118-13.46-30.118-30.118 0-16.659 13.459-30.118 30.118-30.118h30.117V30.118C225.882 13.458 239.342 0 256 0"/></svg>