<svg xmlns="http://www.w3.org/2000/svg" viewBox="0 0 512 512"><!--! Font Awesome Free 7.0.1 by @fontawesome - https://fontawesome.com License - https://fontawesome.com/license/free (Icons: CC BY 4.0, Fonts: SIL OFL 1.1, Code: MIT License) Copyright 2025 Fonticons, Inc.--><path fill="currentColor" d="M73.143 0C32.8 0 0 32.8 0 73.143v365.714C0 479.2 32.8 512 73.143 512h365.714C479.2 512 512 479.2 512 438.857V73.143C512 32.8 479.2 0 438.857 0zm299.2 123.086 16.457 16.457c17.829 17.828 17.829 46.743 0 64.686l-27.2 27.2-81.143-81.143 27.2-27.2c17.829-17.829 46.743-17.829 64.686 0M137.029 293.714 241.6 189.03l81.143 81.142-104.686 104.572a36.2 36.2 0 0 1-17.028 9.6l-68.686 17.143c-6.286 1.6-12.8-.229-17.372-4.8-4.571-4.572-6.4-11.086-4.8-17.372l17.143-68.685c1.6-6.4 4.915-12.343 9.6-17.029z"/></svg>