<svg xmlns="http://www.w3.org/2000/svg" viewBox="0 0 512 512"><!--! Font Awesome Free 7.0.1 by @fontawesome - https://fontawesome.com License - https://fontawesome.com/license/free (Icons: CC BY 4.0, Fonts: SIL OFL 1.1, Code: MIT License) Copyright 2025 Fonticons, Inc.--><path fill="currentColor" d="M241.73 4.49a31.91 31.91 0 0 1 28.54 0L429.925 84.32c15.766 7.883 22.153 27.042 14.27 42.808-5.588 11.176-16.864 17.662-28.539 17.662v79.828c0 17.662-14.27 31.932-31.931 31.932h-12.973l31.932 191.588h44.903c17.662 0 31.932 14.27 31.932 31.932S465.25 512 447.588 512H64.412c-17.662 0-31.932-14.27-31.932-31.931s14.27-31.932 31.932-31.932h44.903l31.932-191.588h-12.973c-17.662 0-31.931-14.27-31.931-31.932V144.79c-11.675 0-22.95-6.486-28.539-17.662-7.883-15.766-1.496-34.925 14.27-42.808zm100.784 443.647L256 386.37l-86.514 61.767zM189.842 256.55l-3.492 21.154 69.75 49.793 69.75-49.793-3.493-21.154H189.942zM177.57 330.29l-10.079 60.47 47.398-33.827zm119.642 26.643 47.399 33.827-10.079-60.47zm-113.057-228.11a23.89 23.89 0 0 0-23.948 23.949 23.89 23.89 0 0 0 23.948 23.948h143.692a23.89 23.89 0 0 0 23.948-23.948 23.89 23.89 0 0 0-23.948-23.949z"/></svg>