<svg xmlns="http://www.w3.org/2000/svg" viewBox="0 0 512 512"><!--! Font Awesome Free 7.0.1 by @fontawesome - https://fontawesome.com License - https://fontawesome.com/license/free (Icons: CC BY 4.0, Fonts: SIL OFL 1.1, Code: MIT License) Copyright 2025 Fonticons, Inc.--><path fill="currentColor" d="M464.362 9.074C455.288 0 440.615 0 431.638 9.074l-46.431 46.335a23.1 23.1 0 0 0-5.31 8.205l-14.865 39.578L290.22 178.1c-43.535-28.38-95.855-29.153-126.455 1.544-10.619 10.618-17.376 23.747-20.658 38.226-3.572 16.024-18.437 29.635-34.848 30.504-24.711 1.255-47.59 10.329-64.965 27.608C.048 319.228 8.157 397.418 61.345 450.606 114.534 503.795 192.724 512 235.97 468.754c17.279-17.279 26.45-40.253 27.608-64.965.868-16.41 14.48-31.18 30.503-34.848 14.48-3.282 27.608-10.136 38.227-20.657 30.697-30.697 29.924-82.92 1.544-126.456l74.908-74.908 39.578-14.866a23.1 23.1 0 0 0 8.205-5.309l46.335-46.335c9.074-9.074 9.074-23.746 0-32.724zM216.278 249.436c25.58 0 46.334 20.754 46.334 46.335 0 25.58-20.754 46.335-46.334 46.335s-46.335-20.755-46.335-46.335 20.754-46.335 46.335-46.335"/></svg>