<svg xmlns="http://www.w3.org/2000/svg" viewBox="0 0 512 512"><!--! Font Awesome Free 7.0.1 by @fontawesome - https://fontawesome.com License - https://fontawesome.com/license/free (Icons: CC BY 4.0, Fonts: SIL OFL 1.1, Code: MIT License) Copyright 2025 Fonticons, Inc.--><path fill="currentColor" d="M353.468 11.698C341.77 0 322.772 0 311.074 11.698l-89.84 89.841c-11.699 11.698-11.699 30.696 0 42.394 11.697 11.698 30.695 11.698 42.393 0l38.744-38.744V288.52c-17.594-10.201-38.089-16.003-59.894-16.003H135.136l38.744-38.744c11.698-11.698 11.698-30.696 0-42.394s-30.696-11.698-42.394 0l-89.841 89.841c-11.698 11.698-11.698 30.696 0 42.394l89.841 89.84c11.698 11.699 30.696 11.699 42.394 0 11.698-11.697 11.698-30.695 0-42.393l-38.744-38.744h107.341c33.035 0 59.894 26.859 59.894 59.894 0 66.164 53.624 119.788 119.788 119.788h29.947c16.564 0 29.947-13.383 29.947-29.947s-13.383-29.947-29.947-29.947h-29.947c-33.035 0-59.894-26.859-59.894-59.894V105.189l38.744 38.744c11.698 11.698 30.696 11.698 42.394 0s11.698-30.696 0-42.394l-89.841-89.841z"/></svg>