<svg xmlns="http://www.w3.org/2000/svg" viewBox="0 0 512 512"><!--! Font Awesome Free 7.0.1 by @fontawesome - https://fontawesome.com License - https://fontawesome.com/license/free (Icons: CC BY 4.0, Fonts: SIL OFL 1.1, Code: MIT License) Copyright 2025 Fonticons, Inc.--><path fill="currentColor" d="M153.6 115.2c0-28.24 22.96-51.2 51.2-51.2h256c28.24 0 51.2 22.96 51.2 51.2v179.2c0 28.24-22.96 51.2-51.2 51.2h-256c-28.24 0-51.2-22.96-51.2-51.2zM256 140.8c0-14.16-11.44-25.6-25.6-25.6s-25.6 11.44-25.6 25.6 11.44 25.6 25.6 25.6 25.6-11.44 25.6-25.6m125.2 9.2c-3.52-5.68-9.68-9.2-16.4-9.2s-12.88 3.52-16.4 9.2l-43.2 70.64-14.32-20.48c-3.6-5.12-9.44-8.16-15.76-8.16s-12.16 3.04-15.76 8.16l-44.8 64c-4.08 5.84-4.64 13.52-1.28 19.84s10 10.4 17.12 10.4h204.8c6.96 0 13.36-3.76 16.72-9.84s3.28-13.44-.4-19.44l-70.4-115.2zm-266 16.4v128c0 49.52 40.08 89.6 89.6 89.6h153.6v12.8c0 28.24-22.96 51.2-51.2 51.2h-256C22.96 448 0 425.04 0 396.8V217.6c0-28.24 22.96-51.2 51.2-51.2zm-73.6 54.4V240c0 7.04 5.76 12.8 12.8 12.8h19.2c7.04 0 12.8-5.76 12.8-12.8v-19.2c0-7.04-5.76-12.8-12.8-12.8H54.4c-7.04 0-12.8 5.76-12.8 12.8m12.8 64c-7.04 0-12.8 5.76-12.8 12.8v19.2c0 7.04 5.76 12.8 12.8 12.8h19.2c7.04 0 12.8-5.76 12.8-12.8v-19.2c0-7.04-5.76-12.8-12.8-12.8zm0 76.8c-7.04 0-12.8 5.76-12.8 12.8v19.2c0 7.04 5.76 12.8 12.8 12.8h19.2c7.04 0 12.8-5.76 12.8-12.8v-19.2c0-7.04-5.76-12.8-12.8-12.8z"/></svg>