<svg xmlns="http://www.w3.org/2000/svg" viewBox="0 0 512 512"><!--! Font Awesome Free 7.0.1 by @fontawesome - https://fontawesome.com License - https://fontawesome.com/license/free (Icons: CC BY 4.0, Fonts: SIL OFL 1.1, Code: MIT License) Copyright 2025 Fonticons, Inc.--><path fill="currentColor" d="M140.625 250.155h-33.199A27.987 27.987 0 0 1 79.372 222.1a27.987 27.987 0 0 1 28.054-28.054h13.56C103.57 96.672 177.914 0 284.055 0h9.585c39.277 0 77.385 13.21 108.128 37.64l18.82 14.846c16.249 12.858 18.937 36.354 6.079 52.603-12.859 16.248-36.355 18.937-52.603 6.078l-18.82-14.846a99.3 99.3 0 0 0-61.72-21.508h-9.586c-62.89 0-105.322 61.837-85.918 119.233h189.838a27.987 27.987 0 0 1 28.054 28.054 27.987 27.987 0 0 1-28.054 28.055H218.243a203 203 0 0 1 4.559 37.407h165.056a27.987 27.987 0 0 1 28.054 28.054 27.987 27.987 0 0 1-28.054 28.055H216.723c-5.61 21.743-14.728 42.667-27.587 61.838l-21.158 31.678H416.03c20.69 0 37.407 16.716 37.407 37.407S436.72 512 416.029 512H98.075c-13.794 0-26.418-7.598-32.964-19.755-6.547-12.157-5.845-26.886 1.87-38.459l59.85-89.775c4.325-6.546 8.066-13.326 10.988-20.34h-30.393a27.987 27.987 0 0 1-28.054-28.055 27.987 27.987 0 0 1 28.054-28.054h40.68c-.585-12.625-3.04-25.25-7.481-37.407"/></svg>