<svg xmlns="http://www.w3.org/2000/svg" viewBox="0 0 512 512"><!--! Font Awesome Free 7.0.1 by @fontawesome - https://fontawesome.com License - https://fontawesome.com/license/free (Icons: CC BY 4.0, Fonts: SIL OFL 1.1, Code: MIT License) Copyright 2025 Fonticons, Inc.--><path fill="currentColor" d="M402.571 23.164a14.02 14.02 0 0 1 8.431 10.295l14.999 73.84 73.84 14.91c4.615.976 8.431 4.083 10.295 8.431 1.864 4.35 1.331 9.32-1.242 13.224l-41.624 62.747 41.624 62.746c2.573 3.905 3.106 8.875 1.242 13.224-1.864 4.348-5.68 7.543-10.295 8.431l-55.202 11.271a128.3 128.3 0 0 0-34.968-18.105c-2.219-11.271-6.035-21.921-11.271-31.684 8.431-13.223 13.401-28.932 13.401-45.883 0-47.038-38.163-85.2-85.2-85.2-42.512 0-77.745 31.15-84.135 71.798-23.52-18.016-52.807-28.844-84.668-29.199l-13.401-20.146c-2.574-3.905-3.107-8.875-1.243-13.224 1.864-4.348 5.68-7.543 10.295-8.431l73.752-14.91 14.91-73.84c.976-4.615 4.082-8.431 8.43-10.295 4.35-1.864 9.32-1.331 13.225 1.242L326.6 66.12l62.746-41.624c3.905-2.574 8.875-3.106 13.224-1.242zm-33.37 183.535c0 3.373-.355 6.657-1.154 9.852-19.259-15.088-43.487-24.052-69.846-24.052-4.083 0-8.077.178-11.982.621 5.68-16.862 21.656-29.02 40.382-29.02 23.519 0 42.6 19.08 42.6 42.6m-284 284C38.162 490.7 0 452.538 0 405.5c0-37.718 24.495-69.757 58.486-80.94-1.153-5.946-1.686-12.158-1.686-18.46 0-54.936 44.464-99.4 99.4-99.4 38.252 0 71.444 21.567 88.04 53.25 13.047-15.176 32.394-24.85 53.96-24.85 39.228 0 71 31.773 71 71 0 4.882-.532 9.586-1.42 14.2h1.42c47.039 0 85.201 38.163 85.201 85.2s-38.162 85.2-85.2 85.2z"/></svg>