<svg xmlns="http://www.w3.org/2000/svg" viewBox="0 0 512 512"><!--! Font Awesome Free 7.0.1 by @fontawesome - https://fontawesome.com License - https://fontawesome.com/license/free (Icons: CC BY 4.0, Fonts: SIL OFL 1.1, Code: MIT License) Copyright 2025 Fonticons, Inc.--><path fill="currentColor" d="M238.88 8.56c10.391-6.73 23.849-6.73 34.24 0l221.662 142.497c11.775 7.62 17.218 22.067 13.26 35.525s-16.328 22.76-30.38 22.76h-31.666v205.83l50.666 37.998c8.015 5.938 12.666 15.339 12.666 25.333 0 17.516-14.15 31.666-31.666 31.666H34.338c-17.515 0-31.666-14.15-31.666-31.666 0-9.994 4.65-19.395 12.666-25.333l50.666-37.999V209.342H34.338c-14.052 0-26.421-9.302-30.38-22.76s1.485-28.004 13.26-35.525zm96.285 200.782v205.83h63.332v-205.83zm-110.831 205.83h63.332v-205.83h-63.332zm-110.831-205.83v205.83h63.332v-205.83z"/></svg>