<svg xmlns="http://www.w3.org/2000/svg" viewBox="0 0 512 512"><!--! Font Awesome Free 7.0.1 by @fontawesome - https://fontawesome.com License - https://fontawesome.com/license/free (Icons: CC BY 4.0, Fonts: SIL OFL 1.1, Code: MIT License) Copyright 2025 Fonticons, Inc.--><path fill="currentColor" d="M21.333 35.556h469.334A21.28 21.28 0 0 1 512 56.889a21.28 21.28 0 0 1-21.333 21.333H21.333A21.28 21.28 0 0 1 0 56.89a21.28 21.28 0 0 1 21.333-21.333m0 398.222h469.334A21.28 21.28 0 0 1 512 455.11a21.28 21.28 0 0 1-21.333 21.333H21.333A21.28 21.28 0 0 1 0 455.111a21.28 21.28 0 0 1 21.333-21.333M348.444 192c0-27.467 22.312-49.778 49.778-49.778C425.69 142.222 448 164.533 448 192s-22.311 49.778-49.778 49.778-49.778-22.311-49.778-49.778m24.178 89.244c8.09-2.577 16.711-3.91 25.6-3.91 47.111 0 85.334 38.222 85.334 85.333v9.51c0 10.49-8.534 18.934-18.934 18.934h-70.044c2.4-6.667 3.644-13.867 3.644-21.333v-7.111c0-30.311-9.422-58.4-25.6-81.423m-233.244 0c-16.178 23.023-25.6 51.112-25.6 81.423v7.11c0 7.467 1.244 14.667 3.644 21.334H47.378c-10.4 0-18.934-8.533-18.934-18.933v-9.511c0-47.111 38.223-85.334 85.334-85.334 8.889 0 17.51 1.334 25.6 3.911M64 192c0-27.467 22.311-49.778 49.778-49.778s49.778 22.311 49.778 49.778-22.312 49.778-49.778 49.778C86.31 241.778 64 219.467 64 192m135.111-14.222c0-31.378 25.511-56.89 56.889-56.89s56.889 25.512 56.889 56.89-25.511 56.889-56.889 56.889-56.889-25.511-56.889-56.89m-42.667 184.889c0-55.023 44.534-99.556 99.556-99.556s99.556 44.533 99.556 99.556v7.11a21.28 21.28 0 0 1-21.334 21.334H177.778a21.28 21.28 0 0 1-21.334-21.333z"/></svg>