<svg xmlns="http://www.w3.org/2000/svg" viewBox="0 0 512 512"><!--! Font Awesome Free 7.0.1 by @fontawesome - https://fontawesome.com License - https://fontawesome.com/license/free (Icons: CC BY 4.0, Fonts: SIL OFL 1.1, Code: MIT License) Copyright 2025 Fonticons, Inc.--><path fill="currentColor" d="M247.23 110.376c0 14.645-11.832 26.477-26.478 26.477-14.645 0-26.477-11.832-26.477-26.477S206.107 83.9 220.752 83.9c14.646 0 26.477 11.832 26.477 26.477m-26.478-79.43c-43.852 0-79.43 35.578-79.43 79.43 0 34.586 22.091 64.042 52.953 74.88v213.39c-52.044-11.833-91.18-57.671-92.587-112.942l13.322 11.666c8.274 7.199 20.768 6.371 28.049-1.903s6.37-20.768-1.903-28.049l-52.954-46.335c-7.447-6.536-18.7-6.536-26.146 0L9.1 267.418C.827 274.617 0 287.193 7.198 295.468c7.199 8.273 19.775 9.1 28.05 1.902l13.404-11.666c1.737 93.58 78.107 168.874 172.1 168.874 13.735 0 27.057-1.572 39.881-4.634-16.796-25.236-26.642-55.436-26.642-88.036 0-22.588 4.716-44.1 13.238-63.627V185.257c30.863-10.922 52.955-40.295 52.955-74.88 0-43.853-35.579-79.432-79.432-79.432M512 361.907c0-65.779-53.368-119.147-119.147-119.147S273.707 296.13 273.707 361.908c0 65.78 53.367 119.147 119.146 119.147 65.78 0 119.147-53.368 119.147-119.147m-71.654-50.389c5.875 4.303 7.199 12.577 2.896 18.451l-52.954 72.812c-2.316 3.144-5.792 5.13-9.68 5.378-3.89.249-7.695-1.075-10.426-3.806l-33.096-33.096c-5.13-5.13-5.13-13.57 0-18.7s13.57-5.13 18.7 0l22.174 22.175 43.853-60.318c4.302-5.875 12.576-7.198 18.533-2.896"/></svg>