<svg xmlns="http://www.w3.org/2000/svg" viewBox="0 0 512 512"><!--! Font Awesome Free 7.0.1 by @fontawesome - https://fontawesome.com License - https://fontawesome.com/license/free (Icons: CC BY 4.0, Fonts: SIL OFL 1.1, Code: MIT License) Copyright 2025 Fonticons, Inc.--><path fill="currentColor" d="M190.171 10.971c60.618 0 109.715 49.098 109.715 109.715S250.789 230.4 190.17 230.4c-60.617 0-109.714-49.097-109.714-109.714S129.554 10.97 190.171 10.97M163.017 281.6h54.309c3.565 0 7.223.091 10.788.366-14.811 25.783-23.314 55.588-23.314 87.405 0 38.218 12.251 73.6 32.914 102.4H27.154C12.16 471.771 0 459.611 0 444.617 0 354.56 72.96 281.6 163.017 281.6m85.669 87.771c0-72.685 58.971-131.657 131.657-131.657S512 296.686 512 369.371c0 72.686-58.971 131.658-131.657 131.658S248.686 442.057 248.686 369.37m131.657-73.142c-8.046 0-14.629 6.582-14.629 14.628v58.514c0 8.046 6.583 14.629 14.629 14.629h43.886c8.045 0 14.628-6.583 14.628-14.629s-6.583-14.628-14.628-14.628H394.97v-43.886c0-8.046-6.582-14.628-14.628-14.628"/></svg>