<svg xmlns="http://www.w3.org/2000/svg" viewBox="0 0 512 512"><!--! Font Awesome Free 7.0.1 by @fontawesome - https://fontawesome.com License - https://fontawesome.com/license/free (Icons: CC BY 4.0, Fonts: SIL OFL 1.1, Code: MIT License) Copyright 2025 Fonticons, Inc.--><path fill="currentColor" d="m216.456 312.256-19.96-30.035c-1.977-3.012-1.6-6.967.941-9.509s6.497-2.919 9.51-.941l27.775 18.547c1.977 1.319 4.613-.094 4.707-2.447l8.756-265.322c.095-4.236 3.578-7.532 7.815-7.532s7.626 3.296 7.815 7.532l8.85 265.416c.094 2.353 2.73 3.672 4.708 2.448l27.774-18.548c3.013-1.978 6.968-1.6 9.51.941s2.919 6.497.941 9.51l-20.054 29.94c-1.224 1.789-.188 4.237 1.883 4.613l35.401 7.062c3.484.659 6.026 3.766 6.026 7.344s-2.542 6.685-6.026 7.344l-35.401 7.25c-2.071.376-3.107 2.824-1.883 4.613l19.96 30.034c1.977 3.013 1.6 6.968-.941 9.51s-6.497 2.918-9.51.941l-24.762-16.57c-2.071-1.319-4.801.188-4.707 2.636l1.977 57.903c56.303-10.168 98.954-59.41 98.954-118.631 0-34.837-14.782-66.284-38.414-88.221-6.59-6.12-6.12-17.512.941-22.973 32.012-24.762 52.537-63.553 52.537-107.24 0-15.817-2.73-31.07-7.72-45.193-4.331-12.24 9.603-28.245 20.148-20.713 50.372 35.778 87.28 89.256 101.496 151.302.471 1.978-.188 4.049-1.6 5.555l-26.74 26.74c-3.765 3.766-1.13 10.262 4.238 10.262h24.48c3.2 0 5.837 2.448 5.93 5.65.095 3.106.189 6.213.189 9.415 0 16.476-1.6 32.67-4.52 48.3-.188 1.13-.847 2.26-1.6 3.107l-43.78 43.78c-3.767 3.767-1.13 10.263 4.236 10.263h13.746c4.331 0 7.25 4.52 5.367 8.474-41.898 84.266-128.894 142.17-229.449 142.17S68.449 439.173 26.55 354.907c-1.976-3.954.942-8.474 5.368-8.474h13.746c5.367 0 8.097-6.496 4.237-10.262L6.12 292.39c-.847-.848-1.412-1.883-1.6-3.107-3.014-15.63-4.52-31.824-4.52-48.3 0-3.107.094-6.308.188-9.416.094-3.2 2.73-5.649 5.932-5.649H30.6c5.366 0 8.097-6.496 4.236-10.262L8.003 188.822c-1.412-1.412-2.071-3.577-1.6-5.555 14.31-62.14 51.124-115.619 101.495-151.302 10.64-7.532 24.48 8.38 20.15 20.713-4.991 14.123-7.721 29.376-7.721 45.193 0 43.593 20.619 82.384 52.537 107.24 7.061 5.46 7.532 16.853.941 22.973-23.632 22.031-38.414 53.384-38.414 88.22 0 59.222 42.745 108.464 98.954 118.632l1.977-57.903c.094-2.448-2.636-3.955-4.707-2.637l-24.762 16.571c-3.013 1.977-6.968 1.6-9.51-.941s-2.919-6.497-.941-9.51l20.054-30.034c1.224-1.79.188-4.237-1.883-4.614l-35.401-7.061c-3.484-.66-6.026-3.766-6.026-7.344s2.542-6.685 6.026-7.344l35.401-7.061c2.071-.377 3.107-2.825 1.883-4.614z"/></svg>