<svg xmlns="http://www.w3.org/2000/svg" viewBox="0 0 512 512"><!--! Font Awesome Free 7.0.1 by @fontawesome - https://fontawesome.com License - https://fontawesome.com/license/free (Icons: CC BY 4.0, Fonts: SIL OFL 1.1, Code: MIT License) Copyright 2025 Fonticons, Inc.--><path fill="currentColor" d="M105.365 30.118C105.365 13.458 118.824 0 135.482 0h240.942c16.658 0 30.117 13.459 30.117 30.118s-13.459 30.117-30.117 30.117h-27.765l9.694 126.212c34.918 19.953 61.93 53.082 73.6 93.835l3.576 12.612c2.636 9.13.753 18.824-4.894 26.447-5.647 7.624-14.682 11.953-24.094 11.953H105.365c-9.412 0-18.353-4.423-24-11.953s-7.53-17.317-4.894-26.447l3.482-12.612c11.67-40.753 38.588-73.882 73.6-93.835l9.694-126.212h-27.765c-16.658 0-30.117-13.459-30.117-30.117m120.47 346.353h60.236v105.411c0 16.66-13.46 30.118-30.118 30.118-16.659 0-30.118-13.459-30.118-30.118z"/></svg>