<svg xmlns="http://www.w3.org/2000/svg" viewBox="0 0 512 512"><!--! Font Awesome Free 7.0.1 by @fontawesome - https://fontawesome.com License - https://fontawesome.com/license/free (Icons: CC BY 4.0, Fonts: SIL OFL 1.1, Code: MIT License) Copyright 2025 Fonticons, Inc.--><path fill="currentColor" d="M224.438 125.02c16.57-7.891 28.055-24.812 28.055-44.362 0-27.09-22.005-49.096-49.096-49.096s-49.096 22.005-49.096 49.096c0 19.55 11.485 36.47 28.055 44.361v86.62a43.3 43.3 0 0 0-7.014 4.12l-70.224-40.154c1.403-18.235-7.54-36.47-24.46-46.29-23.496-13.589-53.48-5.523-67.069 17.973s-5.523 53.48 17.973 67.068c1.14.702 2.28 1.315 3.506 1.841v79.606c-1.14.526-2.367 1.14-3.506 1.84C8.066 311.234 0 341.217 13.589 364.714c13.59 23.495 43.573 31.561 67.069 17.972 16.92-9.732 25.775-28.055 24.372-46.29l44.274-25.337c-10.082-9.82-17.446-22.444-20.866-36.56l-44.274 25.425c-2.28-1.578-4.559-2.893-7.013-4.12v-79.606a43.3 43.3 0 0 0 7.013-4.12l70.225 40.153c-.088 1.228-.175 2.455-.175 3.77 0 19.55 11.485 36.471 28.054 44.362v86.619c-16.57 7.89-28.054 24.81-28.054 44.361 0 27.09 22.005 49.096 49.096 49.096 26.915 0 48.745-21.654 49.095-48.394-6.575-11.31-11.835-23.496-15.43-36.384-3.682-3.507-7.978-6.4-12.624-8.68v-86.618a43.3 43.3 0 0 0 7.013-4.12l9.206 5.26c4.822-13.414 11.485-25.864 19.638-37.26l-7.978-4.56c.088-1.227.175-2.455.175-3.77 0-19.55-11.484-36.47-28.054-44.361v-86.62zm168.767 22.268c-13.589-23.496-43.572-31.562-67.068-17.973-16.92 9.732-25.775 28.055-24.373 46.29l-44.361 25.337c10.082 9.82 17.446 22.444 20.865 36.56l44.362-25.425c.35.263.702.526 1.14.789 19.025-8.329 39.978-12.976 62.071-12.976 1.754 0 3.507 0 5.173.088 10.608-15.167 12.098-35.594 2.28-52.69zm-7.452 333.15c69.7 0 126.247-56.548 126.247-126.246 0-69.699-56.548-126.247-126.247-126.247-69.698 0-126.246 56.548-126.246 126.247 0 69.698 56.548 126.246 126.246 126.246m41.995-197.26c3.77 3.244 4.734 8.68 2.28 13.063l-26.39 47.43h31.211c4.56 0 8.592 2.893 9.995 7.19a10.62 10.62 0 0 1-3.682 11.747l-84.165 63.124a10.45 10.45 0 0 1-13.238-.527c-3.77-3.331-4.734-8.679-2.28-13.063l26.39-47.43h-31.211c-4.56 0-8.592-2.893-9.995-7.189a10.62 10.62 0 0 1 3.682-11.748l84.165-63.123a10.45 10.45 0 0 1 13.238.526"/></svg>