<svg xmlns="http://www.w3.org/2000/svg" viewBox="0 0 512 512"><!--! Font Awesome Free 7.0.1 by @fontawesome - https://fontawesome.com License - https://fontawesome.com/license/free (Icons: CC BY 4.0, Fonts: SIL OFL 1.1, Code: MIT License) Copyright 2025 Fonticons, Inc.--><path fill="currentColor" d="M109.714 0C89.486 0 73.143 16.343 73.143 36.571v73.143H45.714a27.363 27.363 0 0 0-27.428 27.429 27.363 27.363 0 0 0 27.428 27.428h27.429v36.572H45.714a27.363 27.363 0 0 0-27.428 27.428A27.363 27.363 0 0 0 45.714 256h27.429v219.429c0 20.228 16.343 36.571 36.571 36.571 20.229 0 36.572-16.343 36.572-36.571V365.714H256c74.971 0 139.429-45.143 167.657-109.714h42.629a27.363 27.363 0 0 0 27.428-27.429 27.363 27.363 0 0 0-27.428-27.428h-28.343c.571-6.057.914-12.114.914-18.286 0-6.171-.343-12.228-.914-18.286h28.343a27.363 27.363 0 0 0 27.428-27.428 27.363 27.363 0 0 0-27.428-27.429h-42.629C395.43 45.143 330.971 0 256 0zM337.83 109.714H146.286V73.143H256c32.457 0 61.714 14.171 81.829 36.571m-191.543 54.857h217.943c1.028 5.943 1.485 12 1.485 18.286s-.571 12.343-1.485 18.286H146.286zM337.829 256c-20.115 22.4-49.258 36.571-81.829 36.571H146.286V256z"/></svg>