<svg xmlns="http://www.w3.org/2000/svg" viewBox="0 0 512 512"><!--! Font Awesome Free 7.0.1 by @fontawesome - https://fontawesome.com License - https://fontawesome.com/license/free (Icons: CC BY 4.0, Fonts: SIL OFL 1.1, Code: MIT License) Copyright 2025 Fonticons, Inc.--><path fill="currentColor" d="M24.774 41.29A24.715 24.715 0 0 0 0 66.065v49.548a24.715 24.715 0 0 0 24.774 24.774h49.549a24.715 24.715 0 0 0 24.774-24.774V66.065A24.715 24.715 0 0 0 74.323 41.29zm156.903 16.516c-18.27 0-33.032 14.762-33.032 33.033 0 18.27 14.761 33.032 33.032 33.032h297.29c18.272 0 33.033-14.761 33.033-33.032s-14.761-33.033-33.032-33.033zm0 165.162c-18.27 0-33.032 14.761-33.032 33.032s14.761 33.032 33.032 33.032h297.29C497.24 289.032 512 274.271 512 256s-14.761-33.032-33.032-33.032zm0 165.161c-18.27 0-33.032 14.761-33.032 33.032s14.761 33.033 33.032 33.033h297.29c18.272 0 33.033-14.762 33.033-33.033 0-18.27-14.761-33.032-33.032-33.032zM0 231.226v49.548a24.715 24.715 0 0 0 24.774 24.774h49.549a24.715 24.715 0 0 0 24.774-24.774v-49.548a24.715 24.715 0 0 0-24.774-24.774H24.774A24.715 24.715 0 0 0 0 231.226m24.774 140.387A24.715 24.715 0 0 0 0 396.387v49.548a24.715 24.715 0 0 0 24.774 24.775h49.549a24.715 24.715 0 0 0 24.774-24.775v-49.548a24.715 24.715 0 0 0-24.774-24.774z"/></svg>