<svg xmlns="http://www.w3.org/2000/svg" viewBox="0 0 512 512"><!--! Font Awesome Free 7.0.1 by @fontawesome - https://fontawesome.com License - https://fontawesome.com/license/free (Icons: CC BY 4.0, Fonts: SIL OFL 1.1, Code: MIT License) Copyright 2025 Fonticons, Inc.--><path fill="currentColor" d="M437.3 9.313c9.313-9.313 24.372-9.313 33.585 0l31.703 31.702c9.313 9.313 9.313 24.372 0 33.586l-86.192 86.192 38.638 38.637c6.836 6.836 8.817 17.04 5.152 25.957-3.666 8.916-12.285 14.762-21.895 14.762H295.628a23.72 23.72 0 0 1-23.777-23.777V73.709c0-9.61 5.747-18.328 14.663-21.994 8.916-3.665 19.12-1.684 25.957 5.152l38.637 38.638zM73.71 271.85h142.663a23.72 23.72 0 0 1 23.777 23.777v142.663c0 9.61-5.747 18.328-14.663 21.994-8.916 3.665-19.12 1.684-25.957-5.152l-38.637-38.638L74.7 502.687c-9.313 9.313-24.372 9.313-33.585 0L9.412 470.985c-9.313-9.313-9.313-24.372 0-33.586l86.192-86.192-38.638-38.637c-6.836-6.836-8.817-17.04-5.152-25.957 3.666-8.916 12.285-14.762 21.895-14.762"/></svg>