<svg xmlns="http://www.w3.org/2000/svg" viewBox="0 0 512 512"><!--! Font Awesome Free 7.0.1 by @fontawesome - https://fontawesome.com License - https://fontawesome.com/license/free (Icons: CC BY 4.0, Fonts: SIL OFL 1.1, Code: MIT License) Copyright 2025 Fonticons, Inc.--><path fill="currentColor" d="M0 256C0 114.6 114.6 0 256 0s256 114.6 256 256-114.6 256-256 256S0 397.4 0 256m256 32c-17.7 0-32-14.3-32-32s14.3-32 32-32 32 14.3 32 32-14.3 32-32 32m-96-32c0 53 43 96 96 96s96-43 96-96-43-96-96-96-96 43-96 96m-56-16c0-32.4 16.3-66.6 42.8-93.2S207.6 104 240 104c13.3 0 24-10.7 24-24s-10.7-24-24-24c-47.9 0-93.7 23.5-127.1 56.9S56 192.1 56 240c0 13.3 10.7 24 24 24s24-10.7 24-24"/></svg>