<svg xmlns="http://www.w3.org/2000/svg" viewBox="0 0 512 512"><!--! Font Awesome Free 7.0.1 by @fontawesome - https://fontawesome.com License - https://fontawesome.com/license/free (Icons: CC BY 4.0, Fonts: SIL OFL 1.1, Code: MIT License) Copyright 2025 Fonticons, Inc.--><path fill="currentColor" d="M213.333 49.778c0-3.911 3.2-7.111 7.111-7.111h71.112c3.91 0 7.11 3.2 7.11 7.11v64h-85.333zm156.445 64h-28.445v-64C341.333 22.31 319.023 0 291.556 0h-71.112c-27.466 0-49.777 22.311-49.777 49.778v64h-28.445c-31.378 0-56.889 25.51-56.889 56.889v256c0 31.377 25.511 56.889 56.89 56.889 0 15.733 12.71 28.444 28.444 28.444s28.444-12.711 28.444-28.444H312.89c0 15.733 12.711 28.444 28.444 28.444 15.734 0 28.445-12.711 28.445-28.444 31.378 0 56.889-25.512 56.889-56.89v-256c0-31.377-25.511-56.888-56.89-56.888M192 213.333h128a21.28 21.28 0 0 1 21.333 21.334A21.28 21.28 0 0 1 320 256H192a21.28 21.28 0 0 1-21.333-21.333A21.28 21.28 0 0 1 192 213.333m0 113.778h128a21.28 21.28 0 0 1 21.333 21.333A21.28 21.28 0 0 1 320 369.778H192a21.28 21.28 0 0 1-21.333-21.334A21.28 21.28 0 0 1 192 327.111"/></svg>