<svg xmlns="http://www.w3.org/2000/svg" viewBox="0 0 512 512"><!--! Font Awesome Free 7.0.1 by @fontawesome - https://fontawesome.com License - https://fontawesome.com/license/free (Icons: CC BY 4.0, Fonts: SIL OFL 1.1, Code: MIT License) Copyright 2025 Fonticons, Inc.--><path fill="currentColor" d="M463.361 63.354c12.693-15.277 10.671-37.967-4.605-50.66C443.479 0 420.788 2.021 408.095 17.298L256 199.835 103.905 17.299C91.212 2.022 68.521 0 53.245 12.693c-15.277 12.694-17.3 35.384-4.606 50.661L209.159 256 48.638 448.646c-12.693 15.277-10.671 37.967 4.605 50.66 15.277 12.694 37.968 10.672 50.661-4.605L256 312.165l152.095 182.536c12.693 15.277 35.384 17.299 50.66 4.606 15.277-12.694 17.3-35.384 4.606-50.661L302.841 256z"/></svg>