<svg xmlns="http://www.w3.org/2000/svg" viewBox="0 0 512 512"><!--! Font Awesome Free 7.0.1 by @fontawesome - https://fontawesome.com License - https://fontawesome.com/license/free (Icons: CC BY 4.0, Fonts: SIL OFL 1.1, Code: MIT License) Copyright 2025 Fonticons, Inc.--><path fill="currentColor" d="M111.2 182.857C142.629 77.143 240.571 0 356.571 0h73.143c20.229 0 36.572 16.343 36.572 36.571 0 20.229-16.343 36.572-36.572 36.572h-73.143c-74.971 0-139.428 45.143-167.657 109.714h149.372a27.363 27.363 0 0 1 27.428 27.429 27.363 27.363 0 0 1-27.428 27.428H174.629c-.572 6.057-.915 12.115-.915 18.286s.343 12.229.915 18.286h163.657a27.363 27.363 0 0 1 27.428 27.428 27.363 27.363 0 0 1-27.428 27.429H188.914c28.229 64.571 92.686 109.714 167.657 109.714h73.143c20.229 0 36.572 16.343 36.572 36.572 0 20.228-16.343 36.571-36.572 36.571h-73.143c-116 0-213.942-77.143-245.371-182.857H73.143a27.363 27.363 0 0 1-27.429-27.429 27.363 27.363 0 0 1 27.429-27.428h28.114c-.8-12-.8-24.572 0-36.572H73.143a27.363 27.363 0 0 1-27.429-27.428 27.363 27.363 0 0 1 27.429-27.429z"/></svg>