<svg xmlns="http://www.w3.org/2000/svg" viewBox="0 0 512 512"><!--! Font Awesome Free 7.0.1 by @fontawesome - https://fontawesome.com License - https://fontawesome.com/license/free (Icons: CC BY 4.0, Fonts: SIL OFL 1.1, Code: MIT License) Copyright 2025 Fonticons, Inc.--><path fill="currentColor" d="M26.947 74.105C12.042 74.105 0 86.147 0 101.053 0 115.958 12.042 128 26.947 128v134.737c0 35.2 22.485 65.179 53.895 76.21v58.527H20.211c-11.2 0-20.211 9.01-20.211 20.21s9.01 20.21 20.21 20.21h424.422c37.22 0 67.368-30.147 67.368-67.368v-6.737c0-11.2-9.01-20.21-20.21-20.21s-20.211 9.01-20.211 20.21v6.737c0 14.906-12.042 26.948-26.947 26.948h-67.369v-53.895c44.632 0 80.842-36.21 80.842-80.842v-80.842c14.906 0 26.948-12.042 26.948-26.948 0-14.905-12.042-26.947-26.948-26.947h-26.947c-14.905 0-26.947 12.042-26.947 26.947v26.948c0 29.726-24.169 53.894-53.895 53.894h-41.18c-40.841 0-78.147-23.073-96.42-59.62l-21.221-42.527c-18.274-36.463-55.58-59.537-96.421-59.537zm309.895 323.369H121.263v-53.895h215.58z"/></svg>