<svg xmlns="http://www.w3.org/2000/svg" viewBox="0 0 512 512"><!--! Font Awesome Free 7.0.1 by @fontawesome - https://fontawesome.com License - https://fontawesome.com/license/free (Icons: CC BY 4.0, Fonts: SIL OFL 1.1, Code: MIT License) Copyright 2025 Fonticons, Inc.--><path fill="currentColor" d="m190.568 55.439 20.762-12.492c18.61-11.2 39.889-17.058 61.599-17.058 31.704 0 62.201 12.578 84.6 35.063l55.052 55.051c12.923 12.923 20.16 30.498 20.16 48.762v26.621l16.971 16.972c13.44-13.44 35.236-13.44 48.762 0s13.44 35.236 0 48.762l-55.137 55.137c-13.44 13.44-35.236 13.44-48.762 0s-13.44-35.236 0-48.762l-16.972-17.058h-26.62c-18.265 0-35.84-7.237-48.763-20.16l-42.3-42.3c-12.923-12.923-20.16-30.498-20.16-48.762v-10.941c0-9.65-5.083-18.695-13.353-23.606l-35.84-21.538c-8.96-5.341-8.96-18.264 0-23.605zM21.538 386.606 212.88 195.263l77.967 77.967L99.505 464.573c-21.538 21.538-56.43 21.538-77.967 0C0 443.036 0 408.144 21.538 386.606"/></svg>