<svg xmlns="http://www.w3.org/2000/svg" viewBox="0 0 512 512"><!--! Font Awesome Free 7.0.1 by @fontawesome - https://fontawesome.com License - https://fontawesome.com/license/free (Icons: CC BY 4.0, Fonts: SIL OFL 1.1, Code: MIT License) Copyright 2025 Fonticons, Inc.--><path fill="currentColor" d="M117.833 39.526c4.464-6.05 11.605-9.72 19.143-9.72h238.048c7.538 0 14.68 3.57 19.143 9.72l111.088 150.763c6.745 9.125 6.05 21.722-1.487 30.153L273.655 474.359c-4.463 4.96-10.91 7.835-17.655 7.835s-13.093-2.876-17.655-7.835L8.232 220.442C.595 212.01 0 199.414 6.745 190.289zm38.187 39.476c-3.273 2.48-4.166 6.943-2.083 10.415l56.933 94.92L64.868 196.44c-4.067.297-7.24 3.769-7.24 7.934 0 4.166 3.173 7.539 7.24 7.935l190.438 15.87h1.29l190.437-15.87c4.067-.297 7.24-3.769 7.24-7.935s-3.173-7.538-7.24-7.934l-146.002-12.2 56.933-94.822c2.082-3.472 1.19-8.035-2.083-10.415s-7.836-1.984-10.613.992L256 176.8l-89.367-96.806c-2.777-2.976-7.34-3.373-10.613-.992"/></svg>