<svg xmlns="http://www.w3.org/2000/svg" viewBox="0 0 512 512"><!--! Font Awesome Free 7.0.1 by @fontawesome - https://fontawesome.com License - https://fontawesome.com/license/free (Icons: CC BY 4.0, Fonts: SIL OFL 1.1, Code: MIT License) Copyright 2025 Fonticons, Inc.--><path fill="currentColor" d="M0 36.571C0 16.343 16.343 0 36.571 0h109.715c20.228 0 36.571 16.343 36.571 36.571 0 20.229-16.343 36.572-36.571 36.572H128v128h256v-128h-18.286c-20.228 0-36.571-16.343-36.571-36.572C329.143 16.343 345.486 0 365.714 0H475.43C495.657 0 512 16.343 512 36.571c0 20.229-16.343 36.572-36.571 36.572h-18.286v365.714h18.286c20.228 0 36.571 16.343 36.571 36.572C512 495.657 495.657 512 475.429 512H365.714c-20.228 0-36.571-16.343-36.571-36.571 0-20.229 16.343-36.572 36.571-36.572H384V274.286H128v164.571h18.286c20.228 0 36.571 16.343 36.571 36.572 0 20.228-16.343 36.571-36.571 36.571H36.57C16.343 512 0 495.657 0 475.429c0-20.229 16.343-36.572 36.571-36.572h18.286V73.143H36.571C16.343 73.143 0 56.8 0 36.57"/></svg>