<svg xmlns="http://www.w3.org/2000/svg" viewBox="0 0 512 512"><!--! Font Awesome Free 7.0.1 by @fontawesome - https://fontawesome.com License - https://fontawesome.com/license/free (Icons: CC BY 4.0, Fonts: SIL OFL 1.1, Code: MIT License) Copyright 2025 Fonticons, Inc.--><path fill="currentColor" d="M153.6 0c-18.88 0-34.133 15.253-34.133 34.133v34.134H85.333c-37.653 0-68.266 30.613-68.266 68.266v51.2h477.866v-51.2c0-37.653-30.613-68.266-68.266-68.266h-34.134V34.133C392.533 15.253 377.28 0 358.4 0s-34.133 15.253-34.133 34.133v34.134H187.733V34.133C187.733 15.253 172.48 0 153.6 0M17.067 238.933v204.8C17.067 481.387 47.68 512 85.333 512h341.334c37.653 0 68.266-30.613 68.266-68.267v-204.8z"/></svg>