<svg xmlns="http://www.w3.org/2000/svg" viewBox="0 0 512 512"><!--! Font Awesome Free 7.0.1 by @fontawesome - https://fontawesome.com License - https://fontawesome.com/license/free (Icons: CC BY 4.0, Fonts: SIL OFL 1.1, Code: MIT License) Copyright 2025 Fonticons, Inc.--><path fill="currentColor" d="M300.363 0c34.339 0 66.313 17.89 84.202 47.19 1.234 2.057 13.366 21.9 36.293 59.425 21.693 35.47 18.814 80.707-7.197 113.093l-68.883 86.361L433.4 417.414c5.654 7.094 4.523 17.375-2.57 23.132l-82.25 65.8c-7.093 5.654-17.477 4.523-23.132-2.57L98.339 219.81c-26.011-32.385-28.89-77.622-7.197-113.092 23.03-37.629 35.059-57.471 36.395-59.528C145.427 17.89 177.298 0 211.74 0h88.726zm-44.312 194.519 49.967-62.92H205.982l49.967 62.92zM135.762 345.65l88.624 110.83-37.835 47.294c-5.655 7.094-16.039 8.225-23.133 2.57L81.17 440.546c-7.093-5.654-8.224-16.038-2.57-23.132z"/></svg>