<svg xmlns="http://www.w3.org/2000/svg" viewBox="0 0 512 512"><!--! Font Awesome Free 7.0.1 by @fontawesome - https://fontawesome.com License - https://fontawesome.com/license/free (Icons: CC BY 4.0, Fonts: SIL OFL 1.1, Code: MIT License) Copyright 2025 Fonticons, Inc.--><path fill="currentColor" d="M21.333 85.333h49.778v341.334H21.333A21.28 21.28 0 0 1 0 405.333 21.28 21.28 0 0 1 21.333 384h7.111v-35.556h-7.11A21.28 21.28 0 0 1 0 327.111a21.28 21.28 0 0 1 21.333-21.333h7.111v-28.445h-7.11A21.28 21.28 0 0 1 0 256a21.28 21.28 0 0 1 21.333-21.333h7.111v-28.445h-7.11A21.28 21.28 0 0 1 0 184.89a21.28 21.28 0 0 1 21.333-21.333h7.111V128h-7.11A21.28 21.28 0 0 1 0 106.667a21.28 21.28 0 0 1 21.333-21.334m92.445 0h284.444v341.334H113.778zM512 106.667A21.28 21.28 0 0 1 490.667 128h-7.111v35.556h7.11A21.28 21.28 0 0 1 512 184.889a21.28 21.28 0 0 1-21.333 21.333h-7.111v28.445h7.11A21.28 21.28 0 0 1 512 256a21.28 21.28 0 0 1-21.333 21.333h-7.111v28.445h7.11A21.28 21.28 0 0 1 512 327.11a21.28 21.28 0 0 1-21.333 21.333h-7.111V384h7.11A21.28 21.28 0 0 1 512 405.333a21.28 21.28 0 0 1-21.333 21.334h-49.778V85.333h49.778A21.28 21.28 0 0 1 512 106.667"/></svg>