<svg xmlns="http://www.w3.org/2000/svg" viewBox="0 0 512 512"><!--! Font Awesome Free 7.0.1 by @fontawesome - https://fontawesome.com License - https://fontawesome.com/license/free (Icons: CC BY 4.0, Fonts: SIL OFL 1.1, Code: MIT License) Copyright 2025 Fonticons, Inc.--><path fill="currentColor" d="M305.888 29.019c-11.925 4.969-19.677 16.497-19.677 29.416v79.503H174.907C78.31 137.938 0 216.248 0 312.845 0 425.44 80.994 475.727 99.578 485.863c2.484 1.392 5.267 1.889 8.05 1.889 10.832 0 19.577-8.845 19.577-19.578 0-7.454-4.273-14.31-9.74-19.379-9.34-8.745-22.061-26.236-22.061-56.348 0-52.67 42.733-95.404 95.403-95.404h95.404v79.504c0 12.82 7.752 24.447 19.677 29.416s25.54 2.186 34.683-6.857l159.007-159.007c12.422-12.422 12.422-32.596 0-45.018L340.57 36.075c-9.142-9.143-22.757-11.827-34.683-6.858z"/></svg>