<svg xmlns="http://www.w3.org/2000/svg" viewBox="0 0 512 512"><!--! Font Awesome Free 7.0.1 by @fontawesome - https://fontawesome.com License - https://fontawesome.com/license/free (Icons: CC BY 4.0, Fonts: SIL OFL 1.1, Code: MIT License) Copyright 2025 Fonticons, Inc.--><path fill="currentColor" d="m217.256 398.389-74.867 74.867c-11.698 11.698-30.696 11.698-42.394 0L25.127 398.39c-11.698-11.698-11.698-30.696 0-42.394s30.696-11.698 42.394 0l23.77 23.77v-107.34H31.399c-16.565 0-29.947-13.384-29.947-29.948s13.382-29.947 29.947-29.947h239.575V105.19l-23.77 23.77c-11.698 11.698-30.696 11.698-42.394 0s-11.698-30.695 0-42.393l74.868-74.868C291.375 0 310.373 0 322.07 11.698l74.867 74.868c11.698 11.698 11.698 30.695 0 42.393s-30.696 11.698-42.394 0l-23.77-23.77v88.718c-23.677 18.997-40.054 46.886-43.985 78.517H151.092v107.341l23.77-23.77c11.698-11.698 30.696-11.698 42.394 0s11.698 30.696 0 42.394m-66.07-365.54v134.76H91.292V32.85c0-16.565 13.382-29.948 29.947-29.948s29.947 13.383 29.947 29.947M435.682 287.49c0-16.564-13.383-29.947-29.947-29.947s-29.947 13.383-29.947 29.947v44.827h59.894zM300.92 377.24c0-19.56 12.54-36.218 29.947-42.394V287.49c0-41.364 33.504-74.867 74.868-74.867s74.867 33.503 74.867 74.867v47.354c17.407 6.176 29.947 22.834 29.947 42.394v89.84c0 24.8-20.12 44.921-44.92 44.921H345.841c-24.8 0-44.92-20.12-44.92-44.92z"/></svg>