<svg xmlns="http://www.w3.org/2000/svg" viewBox="0 0 512 512"><!--! Font Awesome Free 7.0.1 by @fontawesome - https://fontawesome.com License - https://fontawesome.com/license/free (Icons: CC BY 4.0, Fonts: SIL OFL 1.1, Code: MIT License) Copyright 2025 Fonticons, Inc.--><path fill="currentColor" d="M142.198 99.583V184.9h118.557l-51.191-85.318zm-56.88 112.869V71.143c0-15.73 12.71-28.44 28.44-28.44h95.806c19.996 0 38.482 10.488 48.791 27.64l68.788 114.558h56.88v-63.989c0-11.82 9.509-21.33 21.329-21.33s21.33 9.51 21.33 21.33v63.99h42.659c23.551 0 42.659 19.107 42.659 42.658v36.883c0 12.62-5.599 24.707-15.375 32.794l-31.106 25.951c23.552 13.51 39.371 38.838 39.371 67.9 0 43.192-35.016 78.208-78.209 78.208-43.192 0-78.208-35.016-78.208-78.208 0-12.798 3.11-24.885 8.532-35.55h-89.94c-2.666 11.91-7.021 23.107-12.798 33.506 6.843 8.354 6.399 20.796-1.422 28.617l-20.085 20.085c-7.821 7.821-20.175 8.265-28.618 1.422-8.265 4.622-17.152 8.265-26.484 10.932-1.066 10.753-10.132 19.196-21.24 19.196h-28.44c-11.02 0-20.174-8.443-21.241-19.196-9.332-2.667-18.13-6.4-26.484-10.932-8.354 6.843-20.797 6.4-28.618-1.422L31.55 417.572c-7.82-7.82-8.265-20.174-1.422-28.617-4.621-8.266-8.265-17.153-10.931-26.485C8.443 361.404 0 352.34 0 341.23v-28.44c0-11.02 8.443-20.174 19.197-21.24 2.666-9.332 6.399-18.13 10.931-26.485-6.843-8.354-6.399-20.796 1.422-28.617l20.085-20.086c7.821-7.82 20.175-8.265 28.618-1.422 1.688-.888 3.288-1.777 5.066-2.666zm56.88 57.768c-31.373 0-56.88 25.506-56.88 56.879s25.507 56.879 56.88 56.879c31.372 0 56.879-25.507 56.879-56.88 0-31.372-25.507-56.878-56.88-56.878m248.845 120.868c0 19.64 15.909 35.549 35.55 35.549s35.549-15.908 35.549-35.55c0-19.64-15.908-35.549-35.55-35.549-19.64 0-35.549 15.909-35.549 35.55"/></svg>