<svg xmlns="http://www.w3.org/2000/svg" viewBox="0 0 512 512"><!--! Font Awesome Free 7.0.1 by @fontawesome - https://fontawesome.com License - https://fontawesome.com/license/free (Icons: CC BY 4.0, Fonts: SIL OFL 1.1, Code: MIT License) Copyright 2025 Fonticons, Inc.--><path fill="currentColor" d="M73.143 0C32.8 0 0 32.8 0 73.143v365.714C0 479.2 32.8 512 73.143 512h365.714C479.2 512 512 479.2 512 438.857V73.143C512 32.8 479.2 0 438.857 0zm109.714 128c0-30.286 24.572-54.857 54.857-54.857 30.286 0 54.857 24.571 54.857 54.857S268 182.857 237.714 182.857 182.857 158.286 182.857 128m91.429 118.857c0-35.314 28.685-64 64-64s64 28.686 64 64v116.686c0 41.6-33.715 75.314-75.315 75.314-20 0-39.2-7.886-53.257-22.057L211.2 354.286l-32.114 64.343c-9.029 18.057-30.972 25.371-49.029 16.342S104.686 404 113.714 385.943l54.857-109.714c5.258-10.515 15.2-17.829 26.858-19.772 11.657-1.943 23.428 1.943 31.771 10.286l47.314 47.314v-67.086z"/></svg>