<svg xmlns="http://www.w3.org/2000/svg" viewBox="0 0 512 512"><!--! Font Awesome Free 7.0.1 by @fontawesome - https://fontawesome.com License - https://fontawesome.com/license/free (Icons: CC BY 4.0, Fonts: SIL OFL 1.1, Code: MIT License) Copyright 2025 Fonticons, Inc.--><path fill="currentColor" d="m436.5 256.5-.7-1.9C401.8 160.8 346 76.5 273.1 8.5l-3.3-3C266.1 2 261.1 0 256 0s-10.1 2-13.8 5.5l-3.3 3C166 76.5 110.2 160.8 76.2 254.6l-.7 1.9C67.9 277.3 64 299.4 64 321.6 64 426.7 150.8 512 256 512s192-85.3 192-190.4c0-22.2-3.9-44.2-11.5-65.1M345.7 306a73.3 73.3 0 0 1 6.2 29.5c0 53-43 96.5-96 96.5s-96-43.5-96-96.5c0-10.1 2.1-20.3 6.2-29.5l1.9-4.3c15.8-35.4 37.9-67.7 65.3-95.1l8.9-8.9c3.6-3.6 8.5-5.6 13.6-5.6s10 2 13.6 5.6l8.9 8.9c27.4 27.4 49.6 59.7 65.3 95.1l1.9 4.3z"/></svg>