<svg xmlns="http://www.w3.org/2000/svg" viewBox="0 0 512 512"><!--! Font Awesome Free 7.0.1 by @fontawesome - https://fontawesome.com License - https://fontawesome.com/license/free (Icons: CC BY 4.0, Fonts: SIL OFL 1.1, Code: MIT License) Copyright 2025 Fonticons, Inc.--><path fill="currentColor" d="M255.912 115.34c-79.912 0-152.264 31.649-205.45 83.165-11.165 10.814-29.011 10.55-39.737-.615C0 186.725.175 168.88 11.341 158.154 74.549 96.79 160.879 59.077 255.912 59.077s181.363 37.714 244.66 99.077c11.164 10.813 11.428 28.66.615 39.736-10.813 11.077-28.66 11.429-39.736.615-53.275-51.516-125.627-83.164-205.539-83.164m-42.198 295.385c0-23.296 18.901-42.198 42.198-42.198s42.198 18.902 42.198 42.198c0 23.297-18.901 42.198-42.198 42.198s-42.198-18.901-42.198-42.198m-63.296-93.01c-10.286 11.692-28.044 12.747-39.737 2.46-11.692-10.285-12.747-28.043-2.461-39.735 36.044-40.792 88.879-66.638 147.692-66.638s111.648 25.846 147.692 66.638c10.286 11.692 9.143 29.45-2.461 39.736s-29.45 9.143-39.736-2.462c-25.847-29.274-63.473-47.648-105.495-47.648s-79.648 18.374-105.494 47.648"/></svg>