<svg xmlns="http://www.w3.org/2000/svg" viewBox="0 0 512 512"><!--! Font Awesome Free 7.0.1 by @fontawesome - https://fontawesome.com License - https://fontawesome.com/license/free (Icons: CC BY 4.0, Fonts: SIL OFL 1.1, Code: MIT License) Copyright 2025 Fonticons, Inc.--><path fill="currentColor" d="M15.059 60.235C15.059 27.012 42.07 0 75.294 0h271.059c33.223 0 60.235 27.012 60.235 60.235h15.06c41.6 0 75.293 33.694 75.293 75.294v90.353c0 41.6-33.694 75.294-75.294 75.294H271.06c-8.283 0-15.059 6.777-15.059 15.06v17.6c17.506 6.211 30.118 22.964 30.118 42.635v90.353c0 24.94-20.236 45.176-45.177 45.176h-30.117c-24.942 0-45.177-20.235-45.177-45.176V376.47c0-19.671 12.612-36.424 30.118-42.636v-17.6c0-41.6 33.694-75.294 75.294-75.294h150.588c8.282 0 15.059-6.776 15.059-15.059V135.53c0-8.282-6.777-15.058-15.059-15.058h-15.059c0 33.223-27.012 60.235-60.235 60.235H75.294c-33.223 0-60.235-27.012-60.235-60.235z"/></svg>