<svg xmlns="http://www.w3.org/2000/svg" viewBox="0 0 512 512"><!--! Font Awesome Free 7.0.1 by @fontawesome - https://fontawesome.com License - https://fontawesome.com/license/free (Icons: CC BY 4.0, Fonts: SIL OFL 1.1, Code: MIT License) Copyright 2025 Fonticons, Inc.--><path fill="currentColor" d="M480 64.8c0-11.1-5.7-21.4-15.2-27.2s-21.2-6.4-31.1-1.4l-32 16c-15.8 7.9-22.2 27.1-14.3 42.9 5.6 11.2 16.9 17.7 28.6 17.7v80c-17.7 0-32 14.3-32 32s14.3 32 32 32h64c17.7 0 32-14.3 32-32s-14.3-32-32-32zm-448 32c-17.7 0-32 14.3-32 32s14.3 32 32 32h15.3l89.6 128-89.6 128H32c-17.7 0-32 14.3-32 32s14.3 32 32 32h32c10.4 0 20.2-5.1 26.2-13.6L176 344.6l85.8 122.6c6 8.6 15.8 13.6 26.2 13.6h32c17.7 0 32-14.3 32-32s-14.3-32-32-32h-15.3l-89.6-128 89.6-128H320c17.7 0 32-14.3 32-32s-14.3-32-32-32h-32c-10.4 0-20.2 5.1-26.2 13.6L176 233 90.2 110.4c-6-8.5-15.8-13.6-26.2-13.6z"/></svg>