<svg xmlns="http://www.w3.org/2000/svg" viewBox="0 0 512 512"><!--! Font Awesome Free 7.0.1 by @fontawesome - https://fontawesome.com License - https://fontawesome.com/license/free (Icons: CC BY 4.0, Fonts: SIL OFL 1.1, Code: MIT License) Copyright 2025 Fonticons, Inc.--><path fill="currentColor" d="M255.9 17.676c14.598 0 28.004 8.043 34.955 20.853l214.492 397.207c6.653 12.314 6.355 27.209-.795 39.224-7.15 12.016-20.158 19.364-34.06 19.364H41.508a39.59 39.59 0 0 1-34.06-19.364C.298 462.945 0 448.05 6.653 435.736L221.145 38.53l2.88-4.568c7.249-10.129 19.066-16.285 31.876-16.285M170.403 265.83l26.613 26.613c6.156 6.156 16.285 6.156 22.442 0l42.998-42.998c5.958-5.958 14.001-9.334 22.442-9.334h42.501l-71.597-132.568-85.498 158.287z"/></svg>