<svg xmlns="http://www.w3.org/2000/svg" viewBox="0 0 512 512"><!--! Font Awesome Free 7.0.1 by @fontawesome - https://fontawesome.com License - https://fontawesome.com/license/free (Icons: CC BY 4.0, Fonts: SIL OFL 1.1, Code: MIT License) Copyright 2025 Fonticons, Inc.--><path fill="currentColor" d="M278.383 12.353C266.03 0 245.97 0 233.617 12.353L170.37 75.599c-12.353 12.353-12.353 32.414 0 44.767s32.414 12.353 44.767 0l9.29-9.29v113.35h-113.35l9.289-9.29c12.353-12.352 12.353-32.413 0-44.766s-32.414-12.353-44.767 0l-63.246 63.247C0 245.97 0 266.03 12.353 278.383l63.246 63.247c12.353 12.353 32.414 12.353 44.767 0s12.353-32.414 0-44.767l-9.29-9.29h113.35v113.35l-9.29-9.289c-12.352-12.353-32.413-12.353-44.766 0s-12.353 32.414 0 44.767l63.247 63.246c12.353 12.353 32.413 12.353 44.766 0l63.247-63.246c12.353-12.353 12.353-32.414 0-44.767s-32.414-12.353-44.767 0l-9.29 9.29v-113.35h113.35l-9.289 9.29c-12.353 12.352-12.353 32.413 0 44.766s32.414 12.353 44.767 0l63.246-63.247c12.353-12.353 12.353-32.413 0-44.766l-63.246-63.247c-12.353-12.353-32.414-12.353-44.767 0s-12.353 32.414 0 44.767l9.29 9.29h-113.35v-113.35l9.29 9.289c12.352 12.353 32.413 12.353 44.766 0s12.353-32.414 0-44.767z"/></svg>