<svg xmlns="http://www.w3.org/2000/svg" viewBox="0 0 512 512"><!--! Font Awesome Free 7.0.1 by @fontawesome - https://fontawesome.com License - https://fontawesome.com/license/free (Icons: CC BY 4.0, Fonts: SIL OFL 1.1, Code: MIT License) Copyright 2025 Fonticons, Inc.--><path fill="currentColor" d="M56.889 28.444C25.51 28.444 0 53.956 0 85.334v64a21.28 21.28 0 0 0 21.333 21.333 21.28 21.28 0 0 0 21.334-21.334v-64c0-7.822 6.4-14.222 14.222-14.222h64a21.28 21.28 0 0 0 21.333-21.333 21.28 21.28 0 0 0-21.333-21.334zm334.222 0a21.28 21.28 0 0 0-21.333 21.334A21.28 21.28 0 0 0 391.11 71.11h64c7.822 0 14.222 6.4 14.222 14.222v64a21.28 21.28 0 0 0 21.334 21.334A21.28 21.28 0 0 0 512 149.333v-64c0-31.377-25.511-56.889-56.889-56.889zM42.667 362.667a21.28 21.28 0 0 0-21.334-21.334A21.28 21.28 0 0 0 0 362.667v64c0 31.377 25.511 56.889 56.889 56.889h64a21.28 21.28 0 0 0 21.333-21.334 21.28 21.28 0 0 0-21.333-21.333h-64c-7.822 0-14.222-6.4-14.222-14.222zm469.333 0a21.28 21.28 0 0 0-21.333-21.334 21.28 21.28 0 0 0-21.334 21.334v64c0 7.822-6.4 14.222-14.222 14.222h-64a21.28 21.28 0 0 0-21.333 21.333 21.28 21.28 0 0 0 21.333 21.334h64c31.378 0 56.889-25.512 56.889-56.89zM256 220.444c27.467 0 49.778-22.31 49.778-49.777S283.467 120.889 256 120.889s-49.778 22.311-49.778 49.778 22.311 49.777 49.778 49.777M256 256c-47.111 0-85.333 38.222-85.333 85.333v21.334A21.28 21.28 0 0 0 192 384h128a21.28 21.28 0 0 0 21.333-21.333v-21.334c0-47.11-38.222-85.333-85.333-85.333m170.667-56.889c0-23.555-19.111-42.667-42.667-42.667s-42.667 19.112-42.667 42.667 19.111 42.667 42.667 42.667 42.667-19.111 42.667-42.667M149.333 270.49c-43.822 3.644-78.222 40.267-78.222 85.067v9.51c0 10.49 8.533 18.934 18.933 18.934h41.6c-2.4-6.667-3.644-13.867-3.644-21.333v-21.334c0-26.222 7.822-50.577 21.333-70.844M380.356 384h41.6c10.488 0 18.933-8.533 18.933-18.933v-9.511c0-44.712-34.4-81.423-78.222-85.067C376.177 290.756 384 315.11 384 341.333v21.334c0 7.466-1.244 14.666-3.644 21.333m-209.69-184.889c0-23.555-19.11-42.667-42.666-42.667s-42.667 19.112-42.667 42.667 19.111 42.667 42.667 42.667 42.667-19.111 42.667-42.667"/></svg>