<svg xmlns="http://www.w3.org/2000/svg" viewBox="0 0 512 512"><!--! Font Awesome Free 7.0.1 by @fontawesome - https://fontawesome.com License - https://fontawesome.com/license/free (Icons: CC BY 4.0, Fonts: SIL OFL 1.1, Code: MIT License) Copyright 2025 Fonticons, Inc.--><path fill="currentColor" d="M256 0c16.659 0 30.118 13.459 30.118 30.118V47.34c92.33 13.177 165.364 86.212 178.54 178.541h17.224c16.66 0 30.118 13.46 30.118 30.118 0 16.659-13.459 30.118-30.118 30.118H464.66c-13.177 92.33-86.212 165.364-178.541 178.54v17.224c0 16.66-13.46 30.118-30.118 30.118-16.659 0-30.118-13.459-30.118-30.118V464.66c-92.33-13.177-165.364-86.212-178.54-178.541H30.117C13.458 286.118 0 272.658 0 256c0-16.659 13.459-30.118 30.118-30.118H47.34c13.177-92.33 86.212-165.364 178.541-178.54V30.117C225.882 13.458 239.342 0 256 0M108.424 286.118c11.952 59.011 58.447 105.506 117.458 117.458V391.53c0-16.658 13.46-30.117 30.118-30.117 16.659 0 30.118 13.459 30.118 30.117v12.047c59.011-11.952 105.506-58.447 117.458-117.458H391.53c-16.658 0-30.117-13.46-30.117-30.118 0-16.659 13.459-30.118 30.117-30.118h12.047c-11.952-59.011-58.447-105.506-117.458-117.458v12.047c0 16.658-13.46 30.117-30.118 30.117-16.659 0-30.118-13.459-30.118-30.117v-12.047c-59.011 11.952-105.506 58.447-117.458 117.458h12.047c16.658 0 30.117 13.46 30.117 30.118 0 16.659-13.459 30.118-30.117 30.118zM256 210.824c24.941 0 45.176 20.235 45.176 45.176S280.941 301.176 256 301.176 210.824 280.941 210.824 256s20.235-45.176 45.176-45.176"/></svg>