<svg xmlns="http://www.w3.org/2000/svg" viewBox="0 0 512 512"><!--! Font Awesome Free 7.0.1 by @fontawesome - https://fontawesome.com License - https://fontawesome.com/license/free (Icons: CC BY 4.0, Fonts: SIL OFL 1.1, Code: MIT License) Copyright 2025 Fonticons, Inc.--><path fill="currentColor" d="M502.644 272.92c9.356-9.355 9.356-24.485 0-33.741L359.316 95.75c-6.868-6.868-17.12-8.858-26.078-5.176s-14.731 12.442-14.731 22.097v79.627H207.03c-26.377 0-47.777 21.4-47.777 47.776v31.85c0 26.377 21.4 47.776 47.777 47.776h111.477v79.627c0 9.655 5.773 18.414 14.73 22.097 8.959 3.682 19.21 1.692 26.079-5.176zM159.254 96.748c17.617 0 31.85-14.234 31.85-31.851 0-17.618-14.233-31.85-31.85-31.85H95.551C42.8 33.045 0 75.843 0 128.596v254.806c0 52.753 42.8 95.552 95.552 95.552h63.701c17.618 0 31.851-14.233 31.851-31.85s-14.233-31.852-31.85-31.852H95.551c-17.617 0-31.85-14.233-31.85-31.85V128.597c0-17.617 14.233-31.85 31.85-31.85z"/></svg>