<svg xmlns="http://www.w3.org/2000/svg" viewBox="0 0 512 512"><!--! Font Awesome Free 7.0.1 by @fontawesome - https://fontawesome.com License - https://fontawesome.com/license/free (Icons: CC BY 4.0, Fonts: SIL OFL 1.1, Code: MIT License) Copyright 2025 Fonticons, Inc.--><path fill="currentColor" d="M51.2 100.6h179.2v7.84c0 31.2-18.96 59.2-47.92 70.72-48.4 19.36-80.08 66.16-80.08 118.32v59.04H51.2v-256zm230.4 0h179.2v256h-54.16l-2.96-3.6-60.16-72.16C336.24 272.12 325.44 267 314 267h-56.88l-32.8-50.48c-.24-.4-.48-.8-.8-1.12 35.76-23.2 58-63.2 58-106.88v-7.84zm58.4 256h-21.28l34.16 51.2H473.6c21.2 0 38.4-17.2 38.4-38.4V87.8c0-21.2-17.2-38.4-38.4-38.4H38.4C17.2 49.4 0 66.6 0 87.8v281.6c0 21.2 17.2 38.4 38.4 38.4h208.16l26.56 39.84c7.84 11.76 23.76 14.96 35.52 7.12s14.96-23.76 7.12-35.52L248.4 318.28h59.68l32 38.4zm-127.6 0h-58.8v-59.04c0-8.16 1.28-16.08 3.76-23.6zm-58.8-204.8c0-21.2-17.2-38.4-38.4-38.4s-38.4 17.2-38.4 38.4 17.2 38.4 38.4 38.4 38.4-17.2 38.4-38.4"/></svg>