<svg xmlns="http://www.w3.org/2000/svg" viewBox="0 0 512 512"><!--! Font Awesome Free 7.0.1 by @fontawesome - https://fontawesome.com License - https://fontawesome.com/license/free (Icons: CC BY 4.0, Fonts: SIL OFL 1.1, Code: MIT License) Copyright 2025 Fonticons, Inc.--><path fill="currentColor" d="M420.571 146.286C420.571 65.486 355.086 0 274.286 0h-36.572C156.914 0 91.43 65.486 91.43 146.286c0 39.543 15.657 75.428 41.142 101.714-36 26.629-59.428 69.486-59.428 117.714 0 80.8 65.486 146.286 146.286 146.286h73.142c80.8 0 146.286-65.486 146.286-146.286 0-48.228-23.428-91.085-59.428-117.714 25.485-26.286 41.142-62.171 41.142-101.714M274.4 292.57h18.171c40.343 0 73.143 32.8 73.143 73.143s-32.8 73.143-73.143 73.143H219.43c-40.343 0-73.143-32.8-73.143-73.143s32.8-73.143 73.143-73.143zm0-73.142h-36.686c-40.343 0-73.143-32.8-73.143-73.143s32.8-73.143 73.143-73.143h36.572c40.343 0 73.143 32.8 73.143 73.143s-32.686 73.143-73.143 73.143z"/></svg>