<svg xmlns="http://www.w3.org/2000/svg" viewBox="0 0 512 512"><!--! Font Awesome Free 7.0.1 by @fontawesome - https://fontawesome.com License - https://fontawesome.com/license/free (Icons: CC BY 4.0, Fonts: SIL OFL 1.1, Code: MIT License) Copyright 2025 Fonticons, Inc.--><path fill="currentColor" d="M256 70.4c45.92 0 83.2 37.28 83.2 83.2s-37.28 83.2-83.2 83.2-83.2-37.28-83.2-83.2 37.28-83.2 83.2-83.2M76.8 128c31.84 0 57.6 25.76 57.6 57.6s-25.76 57.6-57.6 57.6-57.6-25.76-57.6-57.6S44.96 128 76.8 128M0 390.4C0 333.84 45.84 288 102.4 288c10.24 0 20.16 1.52 29.52 4.32C105.6 321.76 89.6 360.64 89.6 403.2V416c0 9.12 1.92 17.76 5.36 25.6H25.6C11.44 441.6 0 430.16 0 416zm417.04 51.2a63.5 63.5 0 0 0 5.36-25.6v-12.8c0-42.56-16-81.44-42.32-110.88 9.36-2.8 19.28-4.32 29.52-4.32 56.56 0 102.4 45.84 102.4 102.4V416c0 14.16-11.44 25.6-25.6 25.6zm-39.44-256c0-31.84 25.76-57.6 57.6-57.6s57.6 25.76 57.6 57.6-25.76 57.6-57.6 57.6-57.6-25.76-57.6-57.6M128 403.2c0-70.72 57.28-128 128-128s128 57.28 128 128V416c0 14.16-11.44 25.6-25.6 25.6H153.6c-14.16 0-25.6-11.44-25.6-25.6z"/></svg>