<svg xmlns="http://www.w3.org/2000/svg" viewBox="0 0 512 512"><!--! Font Awesome Free 7.0.1 by @fontawesome - https://fontawesome.com License - https://fontawesome.com/license/free (Icons: CC BY 4.0, Fonts: SIL OFL 1.1, Code: MIT License) Copyright 2025 Fonticons, Inc.--><path fill="currentColor" d="M27.324 78.079c-14.06 0-25.418 11.358-25.418 25.417s11.359 25.417 25.418 25.417h457.511c14.06 0 25.418-11.358 25.418-25.417S498.894 78.08 484.835 78.08zm0 305.008c-14.06 0-25.418 11.358-25.418 25.417s11.359 25.417 25.418 25.417h457.511c14.06 0 25.418-11.358 25.418-25.417s-11.359-25.417-25.418-25.417zM7.466 185.308c-7.466 7.466-7.466 19.54 0 26.927l43.686 43.686-43.686 43.686c-7.466 7.466-7.466 19.54 0 26.926 7.467 7.387 19.54 7.466 26.927 0l43.686-43.686 43.686 43.686c7.466 7.466 19.54 7.466 26.926 0 7.387-7.466 7.467-19.54 0-26.926l-43.686-43.686 43.686-43.686c7.467-7.467 7.467-19.54 0-26.927s-19.54-7.466-26.926 0l-43.686 43.686-43.686-43.686c-7.467-7.466-19.54-7.466-26.927 0m204.927 0c-7.466-7.466-19.54-7.466-26.926 0-7.387 7.466-7.466 19.54 0 26.927l43.686 43.686-43.686 43.686c-7.466 7.466-7.466 19.54 0 26.926 7.466 7.387 19.54 7.466 26.926 0l43.686-43.686 43.686 43.686c7.467 7.466 19.54 7.466 26.927 0s7.466-19.54 0-26.926l-43.686-43.686 43.686-43.686c7.466-7.467 7.466-19.54 0-26.927s-19.54-7.466-26.927 0l-43.686 43.686zm150.916 0c-7.467 7.466-7.467 19.54 0 26.927l43.686 43.686-43.686 43.686c-7.467 7.466-7.467 19.54 0 26.926 7.466 7.387 19.54 7.466 26.926 0l43.686-43.686 43.686 43.686c7.467 7.466 19.54 7.466 26.927 0s7.466-19.54 0-26.926l-43.686-43.686 43.686-43.686c7.466-7.467 7.466-19.54 0-26.927s-19.54-7.466-26.927 0l-43.686 43.686-43.686-43.686c-7.466-7.466-19.54-7.466-26.926 0"/></svg>