<svg xmlns="http://www.w3.org/2000/svg" viewBox="0 0 512 512"><!--! Font Awesome Free 7.0.1 by @fontawesome - https://fontawesome.com License - https://fontawesome.com/license/free (Icons: CC BY 4.0, Fonts: SIL OFL 1.1, Code: MIT License) Copyright 2025 Fonticons, Inc.--><path fill="currentColor" d="M73.143 0C32.8 0 0 32.8 0 73.143v365.714C0 479.2 32.8 512 73.143 512h365.714C479.2 512 512 479.2 512 438.857V73.143C512 32.8 479.2 0 438.857 0zM420.57 146.286c0 40.343-32.8 73.143-73.142 73.143-17.6 0-33.715-6.172-46.4-16.572L203.543 256l97.486 53.143c12.571-10.4 28.8-16.572 46.4-16.572 40.342 0 73.142 32.8 73.142 73.143s-32.8 73.143-73.142 73.143c-40.343 0-73.143-32.8-73.143-73.143 0-2.857.114-5.6.457-8.343l-93.6-51.085c-13.372 14.057-32.229 22.857-53.143 22.857-40.343 0-73.143-32.8-73.143-73.143s32.8-73.143 73.143-73.143c20.914 0 39.771 8.8 53.143 22.857l93.6-51.085c-.343-2.743-.457-5.6-.457-8.343 0-40.343 32.8-73.143 73.143-73.143 40.342 0 73.142 32.8 73.142 73.143"/></svg>