<svg xmlns="http://www.w3.org/2000/svg" viewBox="0 0 512 512"><!--! Font Awesome Free 7.0.1 by @fontawesome - https://fontawesome.com License - https://fontawesome.com/license/free (Icons: CC BY 4.0, Fonts: SIL OFL 1.1, Code: MIT License) Copyright 2025 Fonticons, Inc.--><path fill="currentColor" d="M28.444 28.444C12.711 28.444 0 41.156 0 56.89s12.711 28.444 28.444 28.444h7.112v56.89H0v99.555c33.422 8.355 56.889 38.4 56.889 72.889v83.555c0 15.734 12.711 28.445 28.444 28.445h28.445c15.733 0 28.444-12.711 28.444-28.445v-56.889c0-47.11 38.222-85.333 85.334-85.333 5.688 0 11.288.533 16.622 1.6 30.844-44 81.955-72.711 139.822-72.711 25.422 0 49.422 5.511 71.111 15.467v-58.134h-35.555V85.333h7.11c15.734 0 28.445-12.71 28.445-28.444S442.4 28.444 426.667 28.444zm348.445 56.89v56.888h-71.111V85.333zm-113.778 0v56.888H192V85.333zm-184.889 0h71.111v56.888h-71.11zM384 483.555c70.667 0 128-57.334 128-128 0-70.667-57.333-128-128-128s-128 57.333-128 128c0 70.666 57.333 128 128 128m0-88.89c9.778 0 17.778 8 17.778 17.778s-8 17.778-17.778 17.778-17.778-8-17.778-17.778 8-17.777 17.778-17.777m0-124.444c7.822 0 14.222 6.4 14.222 14.222v71.112c0 7.822-6.4 14.222-14.222 14.222s-14.222-6.4-14.222-14.222v-71.112c0-7.822 6.4-14.222 14.222-14.222"/></svg>