<svg xmlns="http://www.w3.org/2000/svg" viewBox="0 0 512 512"><!--! Font Awesome Free 7.0.1 by @fontawesome - https://fontawesome.com License - https://fontawesome.com/license/free (Icons: CC BY 4.0, Fonts: SIL OFL 1.1, Code: MIT License) Copyright 2025 Fonticons, Inc.--><path fill="currentColor" d="M481.956 84.335c12.752 0 19.997 14.587 12.366 24.73L466.5 146.163v170.022c0 76.8-62.31 139.11-139.11 139.11H219.194l-44.728 44.727c-10.046 10.047-25.6 11.979-37.772 4.637l-93.802-56.223c-16.423-9.854-14.49-34.295 3.285-41.443l111.19-44.438C25.794 323.043 10.048 186.542 24.055 114.958c3.478-17.195 22.509-23.474 37.966-14.973L311.934 238.9v-77.283c0-42.699 34.584-77.283 77.283-77.283zm-92.74 54.098a23.13 23.13 0 0 0-23.184 23.185 23.13 23.13 0 0 0 23.185 23.185 23.13 23.13 0 0 0 23.185-23.185 23.13 23.13 0 0 0-23.185-23.185M179.104 13.235c11.98-13.235 32.17-8.598 41.057 6.859l54.485 94.961c-5.603 13.911-8.888 29.078-9.081 44.92L136.21 88.2c9.757-30.527 26.083-56.416 42.892-74.964"/></svg>