<svg xmlns="http://www.w3.org/2000/svg" viewBox="0 0 512 512"><!--! Font Awesome Free 7.0.1 by @fontawesome - https://fontawesome.com License - https://fontawesome.com/license/free (Icons: CC BY 4.0, Fonts: SIL OFL 1.1, Code: MIT License) Copyright 2025 Fonticons, Inc.--><path fill="currentColor" d="M192 25.6C192 11.44 203.44 0 217.6 0h76.8C308.56 0 320 11.44 320 25.6c0 9.44-5.12 17.76-12.8 22.16v116.48C352.4 184 384 229.12 384 281.6v179.2c0 28.24-22.96 51.2-51.2 51.2H179.2c-28.24 0-51.2-22.96-51.2-51.2V281.6c0-52.48 31.6-97.6 76.8-117.36V47.76A25.52 25.52 0 0 1 192 25.6m12.8 256c-14.16 0-25.6 11.44-25.6 25.6v102.4c0 14.16 11.44 25.6 25.6 25.6h102.4c14.16 0 25.6-11.44 25.6-25.6V307.2c0-14.16-11.44-25.6-25.6-25.6z"/></svg>