<svg xmlns="http://www.w3.org/2000/svg" viewBox="0 0 512 512"><!--! Font Awesome Free 7.0.1 by @fontawesome - https://fontawesome.com License - https://fontawesome.com/license/free (Icons: CC BY 4.0, Fonts: SIL OFL 1.1, Code: MIT License) Copyright 2025 Fonticons, Inc.--><path fill="currentColor" d="M227.556 28.444h56.888c15.734 0 28.445 12.712 28.445 28.445v56.889H199.11v-56.89c0-15.732 12.711-28.444 28.445-28.444M56.889 85.334h99.555v28.444c0 23.555 19.112 42.666 42.667 42.666H312.89c23.555 0 42.667-19.11 42.667-42.666V85.333h99.555c31.378 0 56.889 25.511 56.889 56.89v284.444c0 31.377-25.511 56.889-56.889 56.889H56.89C25.51 483.556 0 458.044 0 426.666V142.223c0-31.378 25.511-56.889 56.889-56.889m99.555 327.11c0 7.823 6.4 14.223 14.223 14.223h170.666c7.823 0 14.223-6.4 14.223-14.223 0-39.288-31.823-71.11-71.112-71.11h-56.888c-39.29 0-71.112 31.822-71.112 71.11M256 305.778c27.467 0 49.778-22.311 49.778-49.778S283.467 206.222 256 206.222 206.222 228.533 206.222 256s22.311 49.778 49.778 49.778"/></svg>