<svg xmlns="http://www.w3.org/2000/svg" viewBox="0 0 512 512"><!--! Font Awesome Free 7.0.1 by @fontawesome - https://fontawesome.com License - https://fontawesome.com/license/free (Icons: CC BY 4.0, Fonts: SIL OFL 1.1, Code: MIT License) Copyright 2025 Fonticons, Inc.--><path fill="currentColor" d="M279.53 119.718c8.658-6.87 14.117-17.506 14.117-29.365 0-20.8-16.847-37.647-37.647-37.647s-37.647 16.847-37.647 37.647c0 11.859 5.553 22.494 14.118 29.365l-64.377 101.27c-9.412 14.777-29.459 18.447-43.482 7.906l-56-41.882c4.235-6.024 6.682-13.46 6.682-21.365 0-20.8-16.847-37.647-37.647-37.647S0 144.847 0 165.647c0 20.518 16.47 37.27 36.894 37.647L67.576 408c4.424 29.459 29.742 51.294 59.577 51.294h257.694c29.835 0 55.153-21.835 59.577-51.294l30.682-204.706c20.423-.376 36.894-17.13 36.894-37.647 0-20.8-16.847-37.647-37.647-37.647s-37.647 16.847-37.647 37.647c0 7.906 2.447 15.341 6.682 21.365l-55.906 41.976c-14.023 10.541-34.07 6.87-43.482-7.906z"/></svg>