<svg xmlns="http://www.w3.org/2000/svg" viewBox="0 0 512 512"><!--! Font Awesome Free 7.0.1 by @fontawesome - https://fontawesome.com License - https://fontawesome.com/license/free (Icons: CC BY 4.0, Fonts: SIL OFL 1.1, Code: MIT License) Copyright 2025 Fonticons, Inc.--><path fill="currentColor" d="M438.857 0C479.2 0 512 32.8 512 73.143v365.714C512 479.2 479.2 512 438.857 512H73.143C32.8 512 0 479.2 0 438.857V73.143C0 32.8 32.8 0 73.143 0zM192 146.286c-11.086 0-21.143 6.628-25.371 16.914-4.229 10.286-1.943 22.057 5.942 29.943l40 40L136 309.714c-10.743 10.743-10.743 28.115 0 38.743l27.429 27.429c10.742 10.743 28.114 10.743 38.742 0l76.572-76.572 40 40c7.886 7.886 19.657 10.172 29.943 5.943 10.285-4.228 17.028-14.171 17.028-25.257V173.714a27.363 27.363 0 0 0-27.428-27.428z"/></svg>