<svg xmlns="http://www.w3.org/2000/svg" viewBox="0 0 512 512"><!--! Font Awesome Free 7.0.1 by @fontawesome - https://fontawesome.com License - https://fontawesome.com/license/free (Icons: CC BY 4.0, Fonts: SIL OFL 1.1, Code: MIT License) Copyright 2025 Fonticons, Inc.--><path fill="currentColor" d="M481.172 240.137c-17.559-1.197-32.823 11.972-34.12 29.63-3.292 46.89-23.545 89.192-54.672 120.718l-31.626-31.726c-6.883-6.884-17.16-8.879-26.138-5.188-8.98 3.692-14.766 12.471-14.766 22.148v111.739a23.886 23.886 0 0 0 23.944 23.943h111.738c9.678 0 18.457-5.786 22.148-14.765 3.692-8.979 1.696-19.255-5.187-26.139l-34.919-34.918c41.603-42.101 68.74-98.569 73.229-161.422 1.197-17.558-11.972-32.823-29.63-34.12zM39.507 41.503 74.426 76.42C32.823 118.522 5.686 174.99 1.197 237.843 0 255.4 13.17 270.666 30.827 271.963c17.66 1.297 32.824-11.972 34.12-29.631 3.293-46.89 23.546-89.19 54.673-120.717l31.626 31.626c6.883 6.884 17.16 8.879 26.138 5.188 8.98-3.692 14.766-12.471 14.766-22.148V24.542A23.886 23.886 0 0 0 168.206.6H56.468C46.79.599 38.01 6.385 34.32 15.364c-3.692 8.979-1.597 19.255 5.187 26.139m200.53-10.675c-1.197 17.559 11.972 32.823 29.631 34.12 46.89 3.292 89.19 23.545 120.717 54.672l-31.626 31.626c-6.884 6.883-8.879 17.16-5.188 26.138 3.692 8.98 12.471 14.766 22.148 14.766h111.739a23.886 23.886 0 0 0 23.943-23.944V56.468c0-9.678-5.786-18.457-14.765-22.148-8.979-3.692-19.255-1.597-26.139 5.187L435.58 74.426C393.478 32.823 337.01 5.686 274.157 1.197 256.6 0 241.334 13.17 240.037 30.827M41.503 472.493l34.918-34.919c42.101 41.603 98.569 68.74 161.422 73.229 17.558 1.197 32.823-11.972 34.12-29.63 1.297-17.66-11.972-32.824-29.631-34.12-46.89-3.293-89.19-23.546-120.717-54.673l31.626-31.626c6.884-6.883 8.879-17.16 5.188-26.138-3.692-8.98-12.471-14.766-22.148-14.766H24.542A23.886 23.886 0 0 0 .6 343.794v111.738c0 9.678 5.786 18.457 14.765 22.148 8.979 3.692 19.255 1.597 26.139-5.187"/></svg>