<svg xmlns="http://www.w3.org/2000/svg" viewBox="0 0 512 512"><!--! Font Awesome Free 7.0.1 by @fontawesome - https://fontawesome.com License - https://fontawesome.com/license/free (Icons: CC BY 4.0, Fonts: SIL OFL 1.1, Code: MIT License) Copyright 2025 Fonticons, Inc.--><path fill="currentColor" d="M210.518 131.411c0-25.096 20.386-45.482 45.482-45.482s45.482 20.386 45.482 45.482c0 25.097-20.386 45.482-45.482 45.482s-45.482-20.385-45.482-45.482m-105.665-18.193c13.644-4.548 28.345 2.843 32.893 16.406l8.853 26.64c7.635 22.985 26.964 40.203 50.761 45.157a66 66 0 0 0 13.889 1.462h71.472c13.97 0 27.858-2.274 41.096-6.66l92.914-30.944c13.645-4.548 28.345 2.843 32.893 16.406 4.549 13.564-2.842 28.345-16.406 32.894l-92.995 30.944a184 184 0 0 1-20.873 5.604l-21.523 71.716a124 124 0 0 0-14.538 9.502c-17.949 13.482-23.634 13.482-41.583 0-21.28-16-46.214-24.528-71.31-25.421l16.406-54.579c-41.827-8.69-75.94-39.066-89.503-79.594l-8.852-26.64c-4.549-13.644 2.842-28.345 16.406-32.893M323.736 394.64C304 409.42 281.259 423.797 256 423.797s-48-14.376-67.736-29.157c-17.3-13.077-40.528-13.077-57.827 0-19.33 14.538-43.94 28.832-71.554 28.67-16.568-.082-33.056-5.442-48.568-17.137-8.61-6.498-10.315-18.68-3.818-27.29 6.498-8.609 18.68-10.314 27.29-3.817 9.177 6.904 17.543 9.259 25.34 9.34 14.294.081 30.294-7.634 47.837-20.873 31.188-23.553 73.503-23.553 104.772 0 19.492 14.7 33.056 21.36 44.264 21.36s24.772-6.66 44.264-21.36c31.188-23.553 73.502-23.553 104.772 0 13.725 10.315 26.72 17.462 38.822 19.98 11.127 2.274 22.254.73 34.355-8.366 8.61-6.497 20.792-4.792 27.29 3.817s4.791 20.792-3.818 27.29c-21.441 16.162-44.02 19.817-65.543 15.512-20.548-4.142-39.066-15.35-54.579-27.045-17.299-13.076-40.527-13.076-57.827 0z"/></svg>