<svg xmlns="http://www.w3.org/2000/svg" viewBox="0 0 512 512"><!--! Font Awesome Free 7.0.1 by @fontawesome - https://fontawesome.com License - https://fontawesome.com/license/free (Icons: CC BY 4.0, Fonts: SIL OFL 1.1, Code: MIT License) Copyright 2025 Fonticons, Inc.--><path fill="currentColor" d="M195.765 30.118v75.294h120.47V82.824H384a22.534 22.534 0 0 0 22.588-22.589A22.534 22.534 0 0 0 384 37.647h-67.765v-7.53C316.235 13.46 302.776 0 286.118 0h-60.236c-16.658 0-30.117 13.459-30.117 30.118m-30.118 120.47c-33.223 0-60.235 27.012-60.235 60.236v240.94c0 33.224 27.012 60.236 60.235 60.236h180.706c33.223 0 60.235-27.012 60.235-60.235V210.824c0-33.224-27.012-60.236-60.235-60.236zm60.235 112.941c0-8.282 6.777-15.058 15.06-15.058h30.117c8.282 0 15.059 6.776 15.059 15.058v37.647h37.647c8.282 0 15.059 6.777 15.059 15.06v30.117c0 8.282-6.777 15.059-15.06 15.059h-37.646v37.647c0 8.282-6.777 15.059-15.06 15.059h-30.117c-8.282 0-15.059-6.777-15.059-15.06v-37.646h-37.647c-8.282 0-15.059-6.777-15.059-15.06v-30.117c0-8.282 6.777-15.059 15.06-15.059h37.646z"/></svg>