<svg xmlns="http://www.w3.org/2000/svg" viewBox="0 0 512 512"><!--! Font Awesome Free 7.0.1 by @fontawesome - https://fontawesome.com License - https://fontawesome.com/license/free (Icons: CC BY 4.0, Fonts: SIL OFL 1.1, Code: MIT License) Copyright 2025 Fonticons, Inc.--><path fill="currentColor" d="M275.593 7.32a37.39 37.39 0 0 0-39.007 0c-21.78 13.3-35.258 16.87-60.787 16.334-14.014-.357-27.046 7.23-33.83 19.548-12.228 22.405-22.136 32.313-44.54 44.541-12.319 6.695-19.817 19.816-19.549 33.83.625 25.529-3.035 39.007-16.335 60.787a37.39 37.39 0 0 0 0 39.007c13.3 21.78 16.87 35.258 16.335 60.786-.357 14.014 7.23 27.046 19.548 33.83 19.727 10.8 29.724 19.727 40.257 37.043L94.215 439.7c-5.267 10.622-.982 23.475 9.55 28.742l76.765 38.382c10.265 5.088 22.761 1.25 28.296-8.748l47.13-84.887 47.13 84.887c5.533 9.998 18.03 13.925 28.295 8.748l76.764-38.382c10.622-5.267 14.907-18.12 9.551-28.742l-43.38-86.762c10.443-17.316 20.53-26.242 40.256-37.043 12.318-6.695 19.816-19.816 19.548-33.83-.625-25.528 3.035-39.007 16.335-60.786a37.39 37.39 0 0 0 0-39.007c-13.3-21.78-16.87-35.258-16.335-60.787.357-14.014-7.23-27.046-19.548-33.83-22.405-12.229-32.313-22.137-44.541-44.541-6.695-12.318-19.816-19.816-33.83-19.548-25.529.625-39.007-3.035-60.787-16.335zm-19.548 108.808c47.308 0 85.69 38.382 85.69 85.69s-38.382 85.691-85.69 85.691-85.69-38.382-85.69-85.69 38.381-85.69 85.69-85.69"/></svg>