<svg xmlns="http://www.w3.org/2000/svg" viewBox="0 0 512 512"><!--! Font Awesome Free 7.0.1 by @fontawesome - https://fontawesome.com License - https://fontawesome.com/license/free (Icons: CC BY 4.0, Fonts: SIL OFL 1.1, Code: MIT License) Copyright 2025 Fonticons, Inc.--><path fill="currentColor" d="M375.449 36.811c27.31 0 49.494 22.184 49.494 49.495S402.76 135.8 375.45 135.8s-49.494-22.184-49.494-49.494 22.184-49.495 49.494-49.495m88.206 171.197c6.717 13.434 1.679 29.697-11.136 37.12v159.355h-28.283V259.359l-8.926 4.419c-24.217 12.108-53.649 5.391-70.176-16.086l-17.323-22.538-34.911 60.808 21.919 10.96c26.072 12.991 37.916 43.748 27.487 70.882l-24.924 64.873h132.043a35.3 35.3 0 0 0 19.621-5.922l6.982-4.684c9.722-6.54 22.891-3.89 29.432 5.921 6.54 9.81 3.889 22.891-5.922 29.432l-6.982 4.684c-12.639 8.573-27.664 13.08-43.042 13.08H21.212A21.16 21.16 0 0 1 0 453.978a21.16 21.16 0 0 1 21.212-21.212h77.776c0-7.247 2.74-14.495 8.308-19.974l65.492-65.492 9.015-31.73c9.987 16.175 24.482 29.874 42.777 39.066l4.242 2.121-1.679 6.01a56.53 56.53 0 0 1-14.406 24.482l-45.517 45.517h89.531l32.79-85.2-49.14-24.571c-36.768-18.384-50.113-64.343-28.902-99.607l33.32-55.416-24.481-6.805c-7.955-2.21-15.998 2.828-17.677 10.87l-5.214 25.897c-2.74 13.787-15.114 23.244-28.725 22.714L53.825 404.483h-33.32L144.77 205.622c-3.005-5.568-4.066-12.197-2.74-18.826l5.214-25.896c8.043-40.302 48.7-65.226 88.294-54.266l28.725 7.954a198.13 198.13 0 0 1 103.938 70.087l22.007 28.548 35.706-17.853c13.965-6.983 30.934-1.326 37.917 12.638z"/></svg>