<svg xmlns="http://www.w3.org/2000/svg" viewBox="0 0 512 512"><!--! Font Awesome Free 7.0.1 by @fontawesome - https://fontawesome.com License - https://fontawesome.com/license/free (Icons: CC BY 4.0, Fonts: SIL OFL 1.1, Code: MIT License) Copyright 2025 Fonticons, Inc.--><path fill="currentColor" d="M32 208v80c0 53 43 96 96 96h192c53 0 96-43 96-96V176h40c13.3 0 24-10.7 24-24s-10.7-24-24-24h-64c-13.3 0-24 10.7-24 24v56zm.2-48H256V32c0-17.7-14.3-32-32-32h-24C109.9 0 36.4 70.9 32.2 160M128 464c0-26.5-21.5-48-48-48s-48 21.5-48 48 21.5 48 48 48 48-21.5 48-48m288 0c0-26.5-21.5-48-48-48s-48 21.5-48 48 21.5 48 48 48 48-21.5 48-48"/></svg>