<svg xmlns="http://www.w3.org/2000/svg" viewBox="0 0 512 512"><!--! Font Awesome Free 7.0.1 by @fontawesome - https://fontawesome.com License - https://fontawesome.com/license/free (Icons: CC BY 4.0, Fonts: SIL OFL 1.1, Code: MIT License) Copyright 2025 Fonticons, Inc.--><path fill="currentColor" d="M171.153 0c27.31 0 49.494 22.184 49.494 49.494s-22.184 49.494-49.494 49.494-49.494-22.184-49.494-49.494S143.843 0 171.153 0m-56.565 209.732-19.975 19.974c-5.302 5.303-8.307 12.462-8.307 19.975v33.143c0 15.644-12.64 28.283-28.283 28.283s-28.282-12.64-28.282-28.283v-33.143a84.82 84.82 0 0 1 24.835-60.012l30.404-30.404c20.505-20.504 48.257-31.994 77.158-31.994 31.906 0 62.133 13.964 82.903 38.093l60.63 70.706c10.164 11.843 8.75 29.696-3.093 39.86s-29.697 8.75-39.86-3.093l-49.23-57.449V320.21l30.492 26.161c15.644 13.434 25.896 31.995 28.813 52.411l11.136 77.865c2.21 15.467-8.573 29.785-24.04 31.994-15.467 2.21-29.785-8.573-31.995-24.04l-11.136-77.865c-.972-6.805-4.419-12.992-9.634-17.5l-63.105-54.09c-18.825-16.085-29.608-39.683-29.608-64.43v-61.25zm.088 146.538c2.122 2.033 4.243 4.066 6.54 6.01l40.657 34.823-1.945 6.717c-3.977 13.876-11.401 26.515-21.565 36.679l-60.365 60.365c-11.048 11.048-28.99 11.048-40.038 0s-11.048-28.99 0-40.037l60.366-60.366c3.358-3.358 5.833-7.6 7.159-12.197l9.191-32.082zm206.374-54.974c9.368-7.07 22.625-5.126 29.696 4.242l127.27 169.695c7.072 9.368 5.127 22.626-4.241 29.696-9.369 7.071-22.626 5.127-29.697-4.242l-127.27-169.694c-7.071-9.369-5.127-22.626 4.242-29.697"/></svg>