<svg xmlns="http://www.w3.org/2000/svg" viewBox="0 0 512 512"><!--! Font Awesome Free 7.0.1 by @fontawesome - https://fontawesome.com License - https://fontawesome.com/license/free (Icons: CC BY 4.0, Fonts: SIL OFL 1.1, Code: MIT License) Copyright 2025 Fonticons, Inc.--><path fill="currentColor" d="M307.7 43.1C296.1 32 279 28.9 264.3 35.2S240 56 240 72v136.3L67.7 43.2C56.1 32 39 28.9 24.3 35.2S0 56 0 72v368c0 16 9.6 30.5 24.3 36.8s31.8 3.2 43.4-7.9L240 303.7V440c0 16 9.6 30.5 24.3 36.8s31.8 3.2 43.4-7.9l192-184c7.9-7.5 12.3-18 12.3-28.9s-4.5-21.3-12.3-28.9z"/></svg>