<svg xmlns="http://www.w3.org/2000/svg" viewBox="0 0 512 512"><!--! Font Awesome Free 7.0.1 by @fontawesome - https://fontawesome.com License - https://fontawesome.com/license/free (Icons: CC BY 4.0, Fonts: SIL OFL 1.1, Code: MIT License) Copyright 2025 Fonticons, Inc.--><path fill="currentColor" d="M234.42 12.473c12.176-11.285 30.984-11.285 43.062 0l89.392 82.859V83.155c0-17.522 14.156-31.678 31.678-31.678h31.678c17.523 0 31.679 14.156 31.679 31.678v100.48l37.42 34.747c9.503 8.91 12.671 22.67 7.92 34.747-4.752 12.077-16.434 20.096-29.501 20.096h-15.84v174.23c0 34.946-28.41 63.357-63.356 63.357H113.448c-34.945 0-63.357-28.411-63.357-63.356v-174.23H34.252c-13.067 0-24.749-8.02-29.5-20.097s-1.584-25.936 7.92-34.747zm-18.018 213.235a23.7 23.7 0 0 0-23.759 23.758v79.196a23.7 23.7 0 0 0 23.76 23.759h79.195a23.7 23.7 0 0 0 23.759-23.759v-79.196a23.7 23.7 0 0 0-23.76-23.758z"/></svg>