<svg xmlns="http://www.w3.org/2000/svg" viewBox="0 0 512 512"><!--! Font Awesome Free 7.0.1 by @fontawesome - https://fontawesome.com License - https://fontawesome.com/license/free (Icons: CC BY 4.0, Fonts: SIL OFL 1.1, Code: MIT License) Copyright 2025 Fonticons, Inc.--><path fill="currentColor" d="M28.444 56.889c15.734 0 28.445 12.711 28.445 28.444v199.111H256V170.667c0-15.734 12.711-28.445 28.444-28.445h142.223c47.11 0 85.333 38.222 85.333 85.334v199.11c0 15.734-12.711 28.445-28.444 28.445-15.734 0-28.445-12.711-28.445-28.444v-56.89H56.89v56.89c0 15.733-12.711 28.444-28.445 28.444S0 442.4 0 426.667V85.333C0 69.6 12.711 56.89 28.444 56.89M99.556 199.11c0-31.378 25.51-56.889 56.888-56.889s56.89 25.511 56.89 56.89c0 31.377-25.512 56.888-56.89 56.888-31.377 0-56.888-25.511-56.888-56.889"/></svg>