<svg xmlns="http://www.w3.org/2000/svg" viewBox="0 0 512 512"><!--! Font Awesome Free 7.0.1 by @fontawesome - https://fontawesome.com License - https://fontawesome.com/license/free (Icons: CC BY 4.0, Fonts: SIL OFL 1.1, Code: MIT License) Copyright 2025 Fonticons, Inc.--><path fill="currentColor" d="M132.42 84.36a20.547 20.547 0 0 0-20.597-20.596 20.547 20.547 0 0 0-20.597 20.597v32.697L37.16 62.992c-8.067-8.067-21.112-8.067-29.093 0S0 84.017 7.981 92.084l54.067 54.067H29.35a20.547 20.547 0 0 0-20.596 20.597 20.547 20.547 0 0 0 20.596 20.596h82.387a20.547 20.547 0 0 0 20.597-20.596V84.36zm0 343.28v-82.388a20.547 20.547 0 0 0-20.597-20.596H29.436A20.547 20.547 0 0 0 8.84 345.252a20.547 20.547 0 0 0 20.597 20.597h32.697L8.067 419.916C0 427.983 0 441.027 8.067 449.008c8.067 7.982 21.112 8.067 29.093 0l54.066-54.066v32.697a20.547 20.547 0 0 0 20.597 20.597 20.547 20.547 0 0 0 20.597-20.597m267.757 20.596a20.547 20.547 0 0 0 20.597-20.597v-32.697l54.066 54.066c8.067 8.067 21.112 8.067 29.093 0s8.067-21.111 0-29.092l-54.066-54.067h32.697a20.547 20.547 0 0 0 20.597-20.597 20.547 20.547 0 0 0-20.597-20.596h-82.387a20.547 20.547 0 0 0-20.597 20.596v82.387a20.547 20.547 0 0 0 20.597 20.597M379.58 84.361v82.387a20.547 20.547 0 0 0 20.597 20.596h82.387a20.547 20.547 0 0 0 20.597-20.596 20.547 20.547 0 0 0-20.597-20.597h-32.697l54.066-54.067c8.067-8.067 8.067-21.111 0-29.092-8.067-7.982-21.112-8.067-29.093 0l-54.066 54.066V84.361a20.547 20.547 0 0 0-20.597-20.597 20.547 20.547 0 0 0-20.597 20.597M256 139.285c-49.175 0-85.305 29.179-107.79 55.182-17.163 19.825-27.805 39.306-32.268 48.145-2.145 4.291-4.205 8.325-4.205 13.388s1.974 9.097 4.205 13.388c4.463 8.84 15.105 28.32 32.269 48.145 22.484 26.003 58.529 55.182 107.789 55.182s85.305-29.179 107.79-55.182c17.163-19.825 27.805-39.306 32.268-48.145 2.145-4.291 4.205-8.325 4.205-13.388s-1.974-9.097-4.205-13.388c-4.463-8.84-15.105-28.32-32.269-48.145-22.484-26.003-58.529-55.182-107.789-55.182M201.075 256c0-30.294 24.63-54.925 54.925-54.925s54.925 24.63 54.925 54.925-24.63 54.925-54.925 54.925-54.925-24.63-54.925-54.925"/></svg>