<svg xmlns="http://www.w3.org/2000/svg" viewBox="0 0 512 512"><!--! Font Awesome Free 7.0.1 by @fontawesome - https://fontawesome.com License - https://fontawesome.com/license/free (Icons: CC BY 4.0, Fonts: SIL OFL 1.1, Code: MIT License) Copyright 2025 Fonticons, Inc.--><path fill="currentColor" d="M9.033 119.688C0 110.655 0 96.048 9.033 87.11l69.19-69.19c9.032-9.032 23.639-9.032 32.576 0 8.937 9.034 9.033 23.64 0 32.577l-29.79 29.79h349.982l-29.79-29.79c-9.033-9.033-9.033-23.64 0-32.576s23.64-9.033 32.577 0l69.189 69.19c9.033 9.032 9.033 23.639 0 32.576l-69.19 69.189c-9.032 9.033-23.639 9.033-32.576 0s-9.033-23.64 0-32.577l29.79-29.79H81.009l29.79 29.79c9.033 9.033 9.033 23.64 0 32.577s-23.64 9.033-32.577 0zm36.132 348.829 22.294-176.24c1.154-9.322 6.535-17.586 14.511-22.391l157.021-95.424c9.802-5.957 22.006-5.957 31.808-.096l159.039 95.52c8.072 4.805 13.453 13.165 14.703 22.486l22.294 176.145c2.306 18.354-12.012 34.594-30.463 34.594H367.28c-11.627 0-22.294-6.534-27.483-17.009l-65.634-131.075c-1.73-3.46-5.285-5.67-9.129-5.67a10.13 10.13 0 0 0-10.186 10.187V472.36c0 17.01-13.742 30.751-30.75 30.751H75.626c-18.546 0-32.864-16.24-30.462-34.594"/></svg>