<svg xmlns="http://www.w3.org/2000/svg" viewBox="0 0 512 512"><!--! Font Awesome Free 7.0.1 by @fontawesome - https://fontawesome.com License - https://fontawesome.com/license/free (Icons: CC BY 4.0, Fonts: SIL OFL 1.1, Code: MIT License) Copyright 2025 Fonticons, Inc.--><path fill="currentColor" d="M327.054 56.923c37.06 0 67.455 28.262 70.832 64.434l76.076 23.373C496.536 151.663 512 172.548 512 196.188c0 19.375-10.398 37.238-27.284 46.836L356.294 315.99l82.208 82.208h45.058c15.731 0 28.44 12.708 28.44 28.439s-12.709 28.44-28.44 28.44h-56.879c-7.554 0-14.753-3.022-20.085-8.355l-98.294-98.116c10.398-31.994 2.844-68.521-22.574-93.94-36.082-36.082-94.472-36.082-130.555-.088l-65.41 62.211c-5.689 5.422-5.955 14.398-.534 20.086s14.397 5.865 20.085.533l65.589-62.39.089-.088.089-.089c3.11-3.11 6.487-5.865 10.042-8.176 24.796-16.442 58.568-13.687 80.43 8.176 21.953 21.952 24.619 55.902 8 80.786-2.311 3.377-4.977 6.666-8 9.687l-32.882 32.884h80.164c15.73 0 28.44 12.708 28.44 28.439s-12.71 28.44-28.44 28.44H56.879C25.507 455.077 0 429.57 0 398.197c0-147.885 112.87-269.375 257.11-283.061 6.133-33.15 35.106-58.213 69.944-58.213m0 92.429c11.82 0 21.33-9.51 21.33-21.33s-9.51-21.33-21.33-21.33-21.33 9.51-21.33 21.33 9.51 21.33 21.33 21.33"/></svg>