<svg xmlns="http://www.w3.org/2000/svg" viewBox="0 0 512 512"><!--! Font Awesome Free 7.0.1 by @fontawesome - https://fontawesome.com License - https://fontawesome.com/license/free (Icons: CC BY 4.0, Fonts: SIL OFL 1.1, Code: MIT License) Copyright 2025 Fonticons, Inc.--><path fill="currentColor" d="M283.4 496.845c-15.155 15.155-39.767 15.155-54.922 0L34.493 302.86c-15.155-15.156-15.155-39.767 0-54.923s39.767-15.155 54.922 0L256 414.522 422.585 248.06c15.155-15.155 39.767-15.155 54.922 0s15.155 39.767 0 54.922L283.522 496.966zM477.386 70.077 283.4 264.063c-15.155 15.155-39.767 15.155-54.922 0L34.493 70.077c-15.155-15.155-15.155-39.767 0-54.922S74.26 0 89.415 15.155L256 181.74 422.585 15.276c15.155-15.155 39.767-15.155 54.922 0s15.155 39.767 0 54.922z"/></svg>