<svg xmlns="http://www.w3.org/2000/svg" viewBox="0 0 512 512"><!--! Font Awesome Free 7.0.1 by @fontawesome - https://fontawesome.com License - https://fontawesome.com/license/free (Icons: CC BY 4.0, Fonts: SIL OFL 1.1, Code: MIT License) Copyright 2025 Fonticons, Inc.--><path fill="currentColor" d="M256.996 478.04c140.822 0 254.954-107.062 254.954-239.02C511.95 107.06 397.818 0 256.996 0S2.042 107.06 2.042 239.02c0 54.078 19.121 103.874 51.389 143.91l-48.6 91.922c-4.781 8.964-3.287 19.919 3.584 27.388s17.728 9.76 26.99 5.776l117.916-50.493c31.67 13.147 66.726 20.516 103.675 20.516m-114.73-305.946h19.122c8.764 0 15.935 7.17 15.935 15.935 0 8.764-7.17 15.934-15.935 15.934h-19.122c-5.278 0-9.56 4.283-9.56 9.561 0 5.279 4.282 9.561 9.56 9.561 22.907 0 41.43 18.524 41.43 41.43s-18.523 41.43-41.43 41.43h-25.495c-8.764 0-15.935-7.17-15.935-15.934 0-8.765 7.171-15.935 15.935-15.935h25.495c5.279 0 9.561-4.283 9.561-9.56 0-5.28-4.282-9.562-9.56-9.562-22.907 0-41.43-18.524-41.43-41.43s18.523-41.43 41.43-41.43m188.03 41.43c0-22.906 18.523-41.43 41.43-41.43h19.12c8.765 0 15.936 7.17 15.936 15.935 0 8.764-7.171 15.934-15.935 15.934h-19.122c-5.278 0-9.56 4.283-9.56 9.561 0 5.279 4.282 9.561 9.56 9.561 22.906 0 41.43 18.524 41.43 41.43s-18.524 41.43-41.43 41.43H346.23c-8.764 0-15.935-7.17-15.935-15.934 0-8.765 7.17-15.935 15.935-15.935h25.495c5.279 0 9.561-4.283 9.561-9.56 0-5.28-4.282-9.562-9.56-9.562-22.907 0-41.43-18.524-41.43-41.43m-97.9-33.662 24.6 40.932 24.599-40.932c3.685-6.174 11.055-9.063 17.926-7.17 6.872 1.892 11.653 8.166 11.653 15.337V290.01c0 8.764-7.17 15.934-15.935 15.934-8.764 0-15.935-7.17-15.935-15.934v-44.418l-8.664 14.44c-2.888 4.78-8.067 7.769-13.644 7.769s-10.756-2.988-13.644-7.769l-8.665-14.44v44.418c0 8.764-7.17 15.934-15.934 15.934s-15.935-7.17-15.935-15.934V188.029c0-7.17 4.78-13.445 11.652-15.337 6.872-1.893 14.242.996 17.927 7.17"/></svg>