<svg xmlns="http://www.w3.org/2000/svg" viewBox="0 0 512 512"><!--! Font Awesome Free 7.0.1 by @fontawesome - https://fontawesome.com License - https://fontawesome.com/license/free (Icons: CC BY 4.0, Fonts: SIL OFL 1.1, Code: MIT License) Copyright 2025 Fonticons, Inc.--><path fill="currentColor" d="M304.166 235.454h-96.22l48.11-120.444zm77.995 0L300.09 29.771C292.846 11.773 275.414 0 256.057 0s-36.79 11.773-44.035 29.771l-82.07 205.683H38.715a27.103 27.103 0 0 0-27.168 27.168 27.103 27.103 0 0 0 27.168 27.168h69.504l-21.734 54.336H38.601a27.103 27.103 0 0 0-27.168 27.167 27.103 27.103 0 0 0 27.168 27.168H64.75l-23.545 58.977c-7.472 18.565 1.584 39.62 20.262 47.09 18.678 7.472 39.62-1.584 47.091-20.262l34.3-85.918h226.398l34.3 85.918c7.47 18.565 28.525 27.62 47.09 20.263 18.565-7.358 27.62-28.526 20.263-47.091l-23.659-58.977h26.15a27.103 27.103 0 0 0 27.167-27.168 27.103 27.103 0 0 0-27.168-27.167h-47.883l-21.734-54.336h69.504a27.103 27.103 0 0 0 27.168-27.168 27.103 27.103 0 0 0-27.168-27.168h-91.239zM325.9 289.79l21.734 54.336h-182.93l21.734-54.336h139.575z"/></svg>