<svg xmlns="http://www.w3.org/2000/svg" viewBox="0 0 512 512"><!--! Font Awesome Free 7.0.1 by @fontawesome - https://fontawesome.com License - https://fontawesome.com/license/free (Icons: CC BY 4.0, Fonts: SIL OFL 1.1, Code: MIT License) Copyright 2025 Fonticons, Inc.--><path fill="currentColor" d="M256 63.988c-78.985 0-144.672 57.288-157.67 132.674 9.299-3 19.297-4.7 29.695-4.7h15.997c26.495 0 47.99 21.496 47.99 47.991v95.981c0 26.495-21.495 47.991-47.99 47.991h-15.997c-52.99 0-95.981-42.992-95.981-95.981v-63.988C32.044 100.28 132.324 0 256 0s223.956 100.28 223.956 223.956v168.067C479.956 458.31 426.166 512 359.88 512l-87.883-.1h-31.994c-26.495 0-47.99-21.496-47.99-47.99s21.495-47.991 47.99-47.991h31.994c26.495 0 47.99 21.496 47.99 47.99h39.993c39.792 0 71.986-32.193 71.986-71.986v-20.895c-14.098 8.198-30.494 12.797-47.991 12.797h-15.997c-26.495 0-47.99-21.496-47.99-47.99v-95.982c0-26.495 21.495-47.99 47.99-47.99h15.997c10.398 0 20.296 1.6 29.694 4.699C400.672 121.276 335.085 63.888 256 63.888z"/></svg>