<svg xmlns="http://www.w3.org/2000/svg" viewBox="0 0 512 512"><!--! Font Awesome Free 7.0.1 by @fontawesome - https://fontawesome.com License - https://fontawesome.com/license/free (Icons: CC BY 4.0, Fonts: SIL OFL 1.1, Code: MIT License) Copyright 2025 Fonticons, Inc.--><path fill="currentColor" d="M165.887 140.039c8.32-8.321 8.32-21.776 0-30.009-8.321-8.232-21.776-8.32-30.009 0l-27.44 27.442v-90.38c-.09-11.772-9.561-21.244-21.334-21.244a21.194 21.194 0 0 0-21.245 21.245v90.379L38.418 110.03c-8.321-8.32-21.776-8.32-30.097-.088s-8.232 21.776 0 30.097l63.734 63.734c8.321 8.321 21.776 8.321 30.009 0l63.734-63.734zm-25.848 123.574-20.98 165.886H30.451c-15.668 0-28.327 12.659-28.327 28.327s12.659 28.326 28.327 28.326h453.223c15.668 0 28.326-12.658 28.326-28.326 0-2.479-.354-4.869-.885-7.082L487.39 263.701c-1.062-8.586-6.107-16.287-13.543-20.713l-146.5-87.99c-9.03-5.4-20.272-5.4-29.301.09l-144.642 87.9c-7.347 4.514-12.304 12.127-13.366 20.625m258.655 165.886h-85.953V297.25a9.33 9.33 0 0 1 9.383-9.383c3.541 0 6.817 2.036 8.41 5.223z"/></svg>