<svg xmlns="http://www.w3.org/2000/svg" viewBox="0 0 512 512"><!--! Font Awesome Free 7.0.1 by @fontawesome - https://fontawesome.com License - https://fontawesome.com/license/free (Icons: CC BY 4.0, Fonts: SIL OFL 1.1, Code: MIT License) Copyright 2025 Fonticons, Inc.--><path fill="currentColor" d="M305.733 49.778C305.733 22.31 283.423 0 255.956 0s-49.778 22.311-49.778 49.778 22.31 49.778 49.778 49.778c27.466 0 49.777-22.312 49.777-49.778m21.334 189.066 41.155 55.467c9.334 12.622 27.2 15.289 39.822 5.867s15.29-27.2 5.867-39.822l-62.667-84.445A118.68 118.68 0 0 0 255.956 128c-37.6 0-72.89 17.778-95.29 47.911L98 260.356c-9.333 12.622-6.756 30.4 5.867 39.822 12.622 9.422 30.4 6.755 39.822-5.867l41.155-55.467v244.712c0 15.733 12.712 28.444 28.445 28.444s28.444-12.711 28.444-28.444V341.333c0-7.822 6.4-14.222 14.223-14.222 7.822 0 14.222 6.4 14.222 14.222v142.223c0 15.733 12.71 28.444 28.444 28.444s28.445-12.711 28.445-28.444z"/></svg>