<svg xmlns="http://www.w3.org/2000/svg" viewBox="0 0 512 512"><!--! Font Awesome Free 7.0.1 by @fontawesome - https://fontawesome.com License - https://fontawesome.com/license/free (Icons: CC BY 4.0, Fonts: SIL OFL 1.1, Code: MIT License) Copyright 2025 Fonticons, Inc.--><path fill="currentColor" d="M21.46 19.94A21.41 21.41 0 0 0 0 41.4a21.41 21.41 0 0 0 21.46 21.46h40.506c3.487 0 6.438 2.504 7.064 5.901l46.586 256c5.544 30.58 32.19 52.846 63.307 52.846H407.74a21.41 21.41 0 0 0 21.46-21.46 21.41 21.41 0 0 0-21.46-21.46H178.923c-10.373 0-19.225-7.422-21.103-17.615l-4.56-25.305h271.47c27.54 0 51.146-19.583 56.242-46.676l27.72-148.342c3.308-17.615-10.194-33.89-28.167-33.89H111.503l-.358-1.787C106.853 37.287 86.108 19.94 61.876 19.94zm164.527 472.12c23.695 0 42.92-19.225 42.92-42.92s-19.225-42.92-42.92-42.92c-23.696 0-42.92 19.225-42.92 42.92s19.224 42.92 42.92 42.92m200.293 0c23.696 0 42.92-19.225 42.92-42.92s-19.224-42.92-42.92-42.92c-23.695 0-42.92 19.225-42.92 42.92s19.225 42.92 42.92 42.92"/></svg>