<svg xmlns="http://www.w3.org/2000/svg" viewBox="0 0 512 512"><!--! Font Awesome Free 7.0.1 by @fontawesome - https://fontawesome.com License - https://fontawesome.com/license/free (Icons: CC BY 4.0, Fonts: SIL OFL 1.1, Code: MIT License) Copyright 2025 Fonticons, Inc.--><path fill="currentColor" d="M351.062 190.082c11.825.335 19.96 9.56 27.424 18.198 1.677 1.93 3.354 3.858 5.032 5.62l15.934 16.689 10.232-11.574c4.529-5.116 11.154-7.464 17.528-7.464 6.038 0 11.993 2.18 16.69 6.542 16.52 15.347 33.378 36.23 46.125 59.209 12.664 22.811 21.973 48.81 21.973 73.97 0 74.388-59.796 134.017-134.185 134.017-75.144 0-134.185-59.796-134.185-134.018 0-31.281 13.418-61.557 30.862-87.64 17.528-26.25 39.837-49.48 59.461-67.176 4.78-4.36 10.987-6.457 17.025-6.29zM200.607 34.51c10.231-7.8 24.908-7.297 34.552 1.677l123.702 114.896c-16.102-3.606-33.546.42-46.545 12.077-30.527 27.34-56.777 58.538-75.73 89.233-8.64 13.921-16.522 29.269-22.477 45.036h-10.65c-22.225 0-40.256 18.03-40.256 40.255v80.511h54.177c6.122 14.425 14.09 28.011 23.65 40.256H96.11c-29.605 0-53.674-24.07-53.674-53.674V257.174H29.018A26.87 26.87 0 0 1 4.026 240.15C0 229.918 2.684 218.177 10.735 210.713L198.594 36.272l2.013-1.677zm185.091 282.795c-4.528-3.942-10.986-3.942-15.515 0-14.844 12.915-45.874 43.526-45.874 74.137 0 29.605 24.07 53.674 53.674 53.674s53.674-24.07 53.674-53.674c0-30.61-31.03-61.222-45.875-74.137z"/></svg>