<svg xmlns="http://www.w3.org/2000/svg" viewBox="0 0 512 512"><!--! Font Awesome Free 7.0.1 by @fontawesome - https://fontawesome.com License - https://fontawesome.com/license/free (Icons: CC BY 4.0, Fonts: SIL OFL 1.1, Code: MIT License) Copyright 2025 Fonticons, Inc.--><path fill="currentColor" d="M232 464V293.9c0-3.9-.5-7.8-1.4-11.6L176.4 65.4C194.1 77.2 220.2 88 256 88s61.9-10.8 79.6-22.6l-54.2 216.9c-1 3.8-1.4 7.7-1.4 11.6V464c0 26.5 21.5 48 48 48h104c26.5 0 48-21.5 48-48V270.5c0-9.5-2.8-18.7-8.1-26.6L424 172.1c-5.3-7.9-8.1-17.1-8.1-26.6L416 48c0-26.5-21.5-48-48-48h-6.3c-18.8 0-34.1 9.7-44.1 18.8-9.3 8.4-28.5 21.2-61.7 21.2s-52.4-12.8-61.7-21.2C184.2 9.7 168.9 0 150.1 0H144c-26.5 0-48 21.5-48 48v97.5c0 9.5-2.8 18.7-8.1 26.6l-47.8 71.8c-5.3 7.9-8.1 17.2-8.1 26.6V464c0 26.5 21.5 48 48 48h104c26.5 0 48-21.5 48-48"/></svg>