<svg xmlns="http://www.w3.org/2000/svg" viewBox="0 0 512 512"><!--! Font Awesome Free 7.0.1 by @fontawesome - https://fontawesome.com License - https://fontawesome.com/license/free (Icons: CC BY 4.0, Fonts: SIL OFL 1.1, Code: MIT License) Copyright 2025 Fonticons, Inc.--><path fill="currentColor" d="M256 60.235c-33.224 0-60.235 27.012-60.235 60.236v60.235H376.47c33.223 0 60.235 27.012 60.235 60.235v210.824c0 33.223-27.012 60.235-60.235 60.235H135.529c-33.223 0-60.235-27.012-60.235-60.235V240.94c0-33.223 27.012-60.235 60.235-60.235V120.47C135.53 53.929 189.46 0 256 0c59.765 0 109.27 43.388 118.776 100.424 2.73 16.376-8.282 31.905-24.752 34.729-16.471 2.823-31.906-8.282-34.73-24.753-4.706-28.424-29.459-50.165-59.294-50.165m37.647 308.706a22.534 22.534 0 0 0 22.588-22.588 22.534 22.534 0 0 0-22.588-22.588h-75.294a22.534 22.534 0 0 0-22.588 22.588 22.534 22.534 0 0 0 22.588 22.588z"/></svg>