<svg xmlns="http://www.w3.org/2000/svg" viewBox="0 0 512 512"><!--! Font Awesome Free 7.0.1 by @fontawesome - https://fontawesome.com License - https://fontawesome.com/license/free (Icons: CC BY 4.0, Fonts: SIL OFL 1.1, Code: MIT License) Copyright 2025 Fonticons, Inc.--><path fill="currentColor" d="M422.4 67.79c-8.674-7.074-21.39-5.727-28.463 2.947s-5.726 21.39 2.947 28.463c45.642 37.053 74.695 93.474 74.695 156.8s-29.053 119.747-74.695 156.884c-8.673 7.074-9.937 19.79-2.947 28.463s19.79 9.937 28.463 2.948C477.053 399.747 512 331.958 512 256s-34.947-143.832-89.6-188.21m-50.947 62.736c-8.674-7.073-21.39-5.726-28.464 2.948s-5.726 21.39 2.948 28.463c27.368 22.231 44.8 56.084 44.8 94.063s-17.432 71.832-44.8 94.147c-8.674 7.074-9.937 19.79-2.948 28.464 6.99 8.673 19.79 9.936 28.464 2.947 36.379-29.642 59.705-74.863 59.705-125.474 0-50.61-23.326-95.831-59.705-125.473zm-50.948 62.737c-8.673-7.074-21.39-5.726-28.463 2.948s-5.726 21.389 2.947 28.463c9.095 7.41 14.906 18.694 14.906 31.326s-5.81 23.916-14.906 31.41c-8.673 7.074-9.936 19.79-2.947 28.464 6.99 8.673 19.79 9.937 28.463 2.947 18.106-14.905 29.81-37.474 29.81-62.821s-11.704-47.916-29.81-62.737M40.421 336.843h40.421L193.768 437.22a29.2 29.2 0 0 0 19.453 7.41c16.168 0 29.305-13.136 29.305-29.305V96.674c0-16.169-13.137-29.306-29.305-29.306a29.2 29.2 0 0 0-19.453 7.41L80.842 175.159h-40.42C18.104 175.158 0 193.263 0 215.578v80.843c0 22.316 18.105 40.421 40.421 40.421"/></svg>