<svg xmlns="http://www.w3.org/2000/svg" viewBox="0 0 512 512"><!--! Font Awesome Free 7.0.1 by @fontawesome - https://fontawesome.com License - https://fontawesome.com/license/free (Icons: CC BY 4.0, Fonts: SIL OFL 1.1, Code: MIT License) Copyright 2025 Fonticons, Inc.--><path fill="currentColor" d="M403.721 34.493c11.998-4.999 25.695-2.2 34.893 6.899l63.988 63.987c5.999 6 9.398 14.098 9.398 22.596s-3.4 16.597-9.398 22.596l-63.988 63.987c-9.198 9.198-22.895 11.898-34.893 6.899-11.998-5-19.796-16.497-19.796-29.395V160.07h-31.994c-10.098 0-19.596 4.699-25.595 12.797l-32.393 43.192-39.993-53.29 21.196-28.294c18.097-24.196 46.591-38.393 76.785-38.393h31.994V64.087c0-12.897 7.798-24.595 19.796-29.594M153.97 296.043l39.992 53.289-21.196 28.294c-18.096 24.196-46.59 38.393-76.785 38.393H31.994C14.297 416.019 0 401.722 0 384.025s14.297-31.994 31.994-31.994H95.98c10.098 0 19.596-4.699 25.595-12.797zm284.544 174.565c-9.198 9.198-22.895 11.898-34.893 6.899-11.997-5-19.696-16.597-19.696-29.495V416.02h-31.994c-30.194 0-58.688-14.197-76.785-38.393l-153.57-204.76c-5.999-8.098-15.497-12.797-25.595-12.797H31.994C14.297 160.069 0 145.772 0 128.075s14.297-31.994 31.994-31.994H95.98c30.194 0 58.689 14.197 76.785 38.393l153.57 204.76c6 8.098 15.497 12.797 25.595 12.797h31.994v-31.994c0-12.897 7.798-24.595 19.796-29.594s25.695-2.2 34.893 6.899l63.988 63.987c5.999 6 9.398 14.098 9.398 22.596s-3.4 16.597-9.398 22.596l-63.988 63.987z"/></svg>