<svg xmlns="http://www.w3.org/2000/svg" viewBox="0 0 512 512"><!--! Font Awesome Free 7.0.1 by @fontawesome - https://fontawesome.com License - https://fontawesome.com/license/free (Icons: CC BY 4.0, Fonts: SIL OFL 1.1, Code: MIT License) Copyright 2025 Fonticons, Inc.--><path fill="currentColor" d="M17.067 153.6v119.467C17.067 405.013 124.053 512 256 512s238.933-106.987 238.933-238.933V153.6H358.4v119.467c0 56.533-45.867 102.4-102.4 102.4s-102.4-45.867-102.4-102.4V153.6zm0-51.2H153.6V34.133C153.6 15.253 138.347 0 119.467 0H51.2C32.32 0 17.067 15.253 17.067 34.133zm341.333 0h136.533V34.133C494.933 15.253 479.68 0 460.8 0h-68.267C373.653 0 358.4 15.253 358.4 34.133z"/></svg>