<svg xmlns="http://www.w3.org/2000/svg" viewBox="0 0 512 512"><!--! Font Awesome Free 7.0.1 by @fontawesome - https://fontawesome.com License - https://fontawesome.com/license/free (Icons: CC BY 4.0, Fonts: SIL OFL 1.1, Code: MIT License) Copyright 2025 Fonticons, Inc.--><path fill="currentColor" d="M73.143 0C32.8 0 0 32.8 0 73.143v365.714C0 479.2 32.8 512 73.143 512h365.714C479.2 512 512 479.2 512 438.857V73.143C512 32.8 479.2 0 438.857 0zm73.143 91.429c30.285 0 54.857 24.571 54.857 54.857s-24.572 54.857-54.857 54.857c-30.286 0-54.857-24.572-54.857-54.857 0-30.286 24.571-54.857 54.857-54.857m164.571 128c9.6 0 18.4 5.028 23.429 13.142l100.571 164.572a27.73 27.73 0 0 1 .572 27.771c-4.8 8.686-14.058 13.943-24 13.943H100.57c-10.171 0-19.657-5.714-24.342-14.743-4.686-9.028-4-20 1.828-28.343l64-91.428c5.143-7.314 13.486-11.657 22.514-11.657 9.029 0 17.372 4.343 22.515 11.657l30.171 43.2 70.172-114.857c5.028-8.115 13.828-13.143 23.428-13.143z"/></svg>