<svg xmlns="http://www.w3.org/2000/svg" viewBox="0 0 512 512"><!--! Font Awesome Free 7.0.1 by @fontawesome - https://fontawesome.com License - https://fontawesome.com/license/free (Icons: CC BY 4.0, Fonts: SIL OFL 1.1, Code: MIT License) Copyright 2025 Fonticons, Inc.--><path fill="currentColor" d="M267.457.622c-4.885-.622-9.77 1.243-12.878 5.062s-4.085 8.97-2.487 13.588c2.487 7.283 3.82 15.01 3.82 23.18 0 19.272-7.55 33.038-19.45 42.274-12.345 9.592-30.285 15.098-51.6 15.098h-21.315c-43.163 0-78.154 34.992-78.154 78.155a77.95 77.95 0 0 0 9.058 36.501c-37.3 5.862-65.898 38.19-65.898 77.178 0 41.386 32.15 75.224 72.737 77.977a57.64 57.64 0 0 1 17.407-28.864l125.491-112.08c10.835-9.681 24.867-15.099 39.432-15.099 39.61 0 67.941 38.19 56.574 76.112l-11.28 37.656c25.578 1.066 46.804 18.74 53.11 42.541h23.269c43.162 0 78.154-34.992 78.154-78.154 0-38.989-28.509-71.316-65.898-77.178 5.772-10.924 9.058-23.268 9.058-36.501 0-43.163-34.991-78.155-78.154-78.155h-8.348a89 89 0 0 0 1.243-14.742c0-43.252-32.06-78.954-73.802-84.55zM157.064 398.32h54.885l-27.709 92.453C181.043 501.343 188.947 512 200.05 512c4.085 0 7.993-1.51 11.012-4.174l125.314-112.258c3.108-2.753 4.884-6.75 4.884-11.013 0-8.17-6.572-14.743-14.742-14.743H271.63l27.71-92.453c3.196-10.568-4.708-21.226-15.81-21.226-4.085 0-7.992 1.51-11.012 4.174L147.206 372.654c-3.109 2.753-4.885 6.75-4.885 11.013 0 8.17 6.572 14.743 14.743 14.743z"/></svg>