<svg xmlns="http://www.w3.org/2000/svg" viewBox="0 0 512 512"><!--! Font Awesome Free 7.0.1 by @fontawesome - https://fontawesome.com License - https://fontawesome.com/license/free (Icons: CC BY 4.0, Fonts: SIL OFL 1.1, Code: MIT License) Copyright 2025 Fonticons, Inc.--><path fill="currentColor" d="M286.118 0c16.658 0 30.117 13.459 30.117 30.118s-13.459 30.117-30.117 30.117c-16.66 0-30.118-13.459-30.118-30.117C256 13.458 269.459 0 286.118 0m-120.47 52.706c0-16.659 13.458-30.118 30.117-30.118s30.117 13.46 30.117 30.118c0 16.659-13.458 30.118-30.117 30.118-16.66 0-30.118-13.46-30.118-30.118M45.175 301.176c0-33.223 27.012-60.235 60.236-60.235h128V150.4L51.388 202.447c-11.953 3.388-24.47-3.482-27.953-15.53-3.482-12.046 3.483-24.47 15.53-27.952l210.823-60.236 210.824-60.235c11.953-3.388 24.47 3.482 27.953 15.53 3.482 12.047-3.483 24.47-15.53 27.952l-194.447 55.53V240.94h128c33.224 0 60.236 27.012 60.236 60.235v150.589c0 33.223-27.012 60.235-60.236 60.235H105.412c-33.224 0-60.236-27.012-60.236-60.235zm75.295 0c-8.283 0-15.06 6.777-15.06 15.06v60.235c0 8.282 6.777 15.058 15.06 15.058h52.705v-90.353zm173.176 90.353v-90.353h-75.294v90.353zm45.177 0h52.705c8.283 0 15.06-6.776 15.06-15.058v-60.236c0-8.282-6.777-15.059-15.06-15.059h-52.705z"/></svg>