<svg xmlns="http://www.w3.org/2000/svg" viewBox="0 0 512 512"><!--! Font Awesome Free 7.0.1 by @fontawesome - https://fontawesome.com License - https://fontawesome.com/license/free (Icons: CC BY 4.0, Fonts: SIL OFL 1.1, Code: MIT License) Copyright 2025 Fonticons, Inc.--><path fill="currentColor" d="M166.346 102.456c0-7.041-5.76-12.802-12.802-12.802s-12.802 5.76-12.802 12.802 5.76 12.802 12.802 12.802 12.802-5.76 12.802-12.802m38.406 0c0 12.962-4.8 24.884-12.802 33.845l12.482 24.964c14.962-4.8 31.925-7.601 51.528-7.601s36.646 2.8 51.528 7.601l12.482-24.964c-8.001-9.041-12.802-20.883-12.802-33.845 0-28.244 22.964-51.208 51.208-51.208s51.208 22.964 51.208 51.208-22.964 51.208-51.208 51.208c-1.36 0-2.72-.08-4.08-.16l-12.083 24.164c16.883 10.881 30.165 24.164 41.127 37.126 5.68 6.64 10.802 13.282 15.442 19.203l1.12 1.44c5.041 6.48 9.282 11.842 13.363 16.322 8.56 9.362 12.882 10.722 15.522 10.722 2 0 3.44-.48 5.68-2.64 2.961-2.8 5.682-7.042 10.002-13.923l.48-.72c3.681-5.92 8.802-14.082 15.523-20.563 7.761-7.441 18.323-13.362 32.325-13.362A19.157 19.157 0 0 1 512 230.476a19.157 19.157 0 0 1-19.203 19.203c-2 0-3.44.48-5.68 2.64-2.961 2.8-5.682 7.042-10.002 13.923l-.48.72c-3.681 5.92-8.802 14.082-15.523 20.563-7.761 7.441-18.323 13.362-32.325 13.362-14.802 0-26.324-6.801-35.446-14.882-2.48 3.2-5.28 6.64-8.4 10.161 1.12 3.44 2.24 6.801 3.2 10.002.72 2.4 1.44 4.64 2.08 6.88 2.4 7.842 4.4 14.563 6.881 20.724 3.12 7.841 5.921 12.322 8.641 14.802 2.08 1.92 4.721 3.441 10.242 3.441 6.961 0 13.522-3.36 26.964-10.562 12.002-6.4 28.565-15.042 49.848-15.042A19.157 19.157 0 0 1 512 345.614a19.157 19.157 0 0 1-19.203 19.203c-10.722 0-19.763 4.16-31.765 10.562-.8.48-1.68.88-2.56 1.36-10.482 5.68-25.284 13.682-42.487 13.682-14.722 0-26.884-4.88-36.406-13.762-8.881-8.241-14.322-18.963-18.163-28.805-2.88-7.2-5.36-15.282-7.6-22.803-13.123 9.841-28.885 18.883-47.128 25.044 2.88 8.641 6.721 18.803 11.522 28.964 6 12.722 12.962 24.324 20.643 32.405 7.681 8.162 14.162 10.962 19.603 10.962a19.157 19.157 0 0 1 19.203 19.203 19.157 19.157 0 0 1-19.203 19.203c-20.163 0-36.006-10.802-47.607-23.044-11.602-12.322-20.564-27.924-27.365-42.406-6.4-13.602-11.281-27.044-14.642-37.526-4.16.32-8.481.48-12.802.48s-8.641-.16-12.802-.48c-3.36 10.402-8.241 23.924-14.642 37.526-6.801 14.482-15.843 30.084-27.365 42.406-11.521 12.242-27.444 23.044-47.607 23.044a19.157 19.157 0 0 1-19.203-19.203 19.157 19.157 0 0 1 19.203-19.203c5.44 0 12.002-2.8 19.603-10.962 7.601-8.081 14.642-19.683 20.643-32.405 4.721-10.081 8.562-20.323 11.522-28.964-18.243-6.161-34.005-15.203-47.127-25.044-2.32 7.521-4.801 15.602-7.601 22.803-3.841 9.762-9.282 20.484-18.163 28.805-9.522 8.881-21.684 13.762-36.406 13.762-10.482 0-19.603-3.28-27.044-7.121-6.321-3.2-12.562-7.361-17.683-10.802l-1.92-1.28c-12.242-8.161-20.643-12.802-30.165-12.802A19.157 19.157 0 0 1 .08 339.213a19.157 19.157 0 0 1 19.203-19.203c22.484 0 39.686 11.362 51.448 19.203l1.92 1.28c5.521 3.68 9.682 6.481 13.763 8.562 4.4 2.24 7.28 2.88 9.601 2.88 5.44 0 8.161-1.52 10.242-3.44 2.72-2.56 5.6-7.042 8.641-14.803 2.4-6.16 4.48-12.882 6.881-20.723.64-2.16 1.36-4.48 2.08-6.881.96-3.2 2.08-6.561 3.2-10.002-3.12-3.6-5.92-7.04-8.4-10.161-9.122 8.08-20.724 14.882-35.446 14.882-14.002 0-24.564-5.92-32.325-13.362-6.721-6.481-11.842-14.642-15.522-20.563l-.48-.72c-4.321-6.881-7.042-11.122-10.002-13.923-2.24-2.16-3.68-2.64-5.681-2.64A19.157 19.157 0 0 1 0 230.396a19.157 19.157 0 0 1 19.203-19.203c14.002 0 24.564 5.92 32.325 13.362 6.721 6.481 11.842 14.642 15.522 20.563l.48.72c4.321 6.881 7.042 11.122 10.002 13.923 2.24 2.16 3.68 2.64 5.681 2.64 2.64 0 6.961-1.36 15.522-10.722 4.081-4.48 8.322-9.841 13.363-16.322l1.12-1.44c4.64-5.921 9.761-12.562 15.442-19.203 11.042-12.962 24.244-26.245 41.127-37.126l-12.082-24.164c-1.36.08-2.72.16-4.081.16-28.244 0-51.208-22.964-51.208-51.208s22.964-51.208 51.208-51.208 51.208 22.964 51.208 51.208zm166.426 0c0-7.041-5.76-12.802-12.802-12.802s-12.802 5.76-12.802 12.802 5.76 12.802 12.802 12.802 12.802-5.76 12.802-12.802"/></svg>