<svg xmlns="http://www.w3.org/2000/svg" viewBox="0 0 512 512"><!--! Font Awesome Free 7.0.1 by @fontawesome - https://fontawesome.com License - https://fontawesome.com/license/free (Icons: CC BY 4.0, Fonts: SIL OFL 1.1, Code: MIT License) Copyright 2025 Fonticons, Inc.--><path fill="currentColor" d="M30.617 43.625c-11.415 0-21.768 6.902-26.193 17.521C0 71.765 2.478 83.888 10.62 91.941L172.2 253.61v101.497c0 7.522 3.01 14.69 8.318 19.999l56.634 56.633a28.2 28.2 0 0 0 7.344 5.31c-18.76-27.344-29.732-60.439-29.732-96.1 0-87.959 66.81-160.255 152.467-169.015l79.995-79.994c8.14-8.141 10.53-20.265 6.105-30.883-4.424-10.619-14.866-17.433-26.28-17.433zM512 340.95c0-70.35-57.076-127.425-127.425-127.425S257.15 270.601 257.15 340.95s57.076 127.425 127.425 127.425c70.35 0 127.425-57.076 127.425-127.425m-141.583-70.792c0-7.787 6.371-14.158 14.158-14.158s14.158 6.371 14.158 14.158v7.08h14.159c7.787 0 14.158 6.37 14.158 14.158s-6.371 14.158-14.158 14.158h-40.528c-4.956 0-9.026 4.07-9.026 9.026a9.01 9.01 0 0 0 7.344 8.849l39.82 7.256c17.698 3.186 30.618 18.671 30.618 36.723 0 20.618-16.725 37.343-37.343 37.343h-5.132v7.079c0 7.787-6.371 14.158-14.158 14.158s-14.159-6.371-14.159-14.158v-7.08H356.17c-7.787 0-14.158-6.37-14.158-14.158s6.371-14.158 14.158-14.158h47.607c4.956 0 9.026-4.07 9.026-9.026a9.01 9.01 0 0 0-7.344-8.849l-39.82-7.256c-17.698-3.185-30.618-18.671-30.618-36.723 0-19.999 15.663-36.28 35.396-37.254z"/></svg>