<svg xmlns="http://www.w3.org/2000/svg" viewBox="0 0 512 512"><!--! Font Awesome Free 7.0.1 by @fontawesome - https://fontawesome.com License - https://fontawesome.com/license/free (Icons: CC BY 4.0, Fonts: SIL OFL 1.1, Code: MIT License) Copyright 2025 Fonticons, Inc.--><path fill="currentColor" d="M256 38.4c17.68 0 32 14.32 32 32s-14.32 32-32 32-32-14.32-32-32 14.32-32 32-32M32 115.2c17.68 0 32 14.32 32 32v128.16c0 13.6 5.36 26.64 14.96 36.24l40.88 40.88c6.64 6.64 17.04 7.68 24.8 2.48 10.32-6.88 11.76-21.52 2.96-30.24l-37.76-37.76c-10-10-10-26.24 0-36.24s26.24-10 36.24 0l37.76 37.76 20.24 20.24a89.62 89.62 0 0 1 26.24 63.36v63.12c0 21.2-17.2 38.4-38.4 38.4h-53.36c-13.6 0-26.64-5.36-36.24-14.96l-79.84-79.92A76.77 76.77 0 0 1 0 324.4V147.2c0-17.68 14.32-32 32-32m448 0c17.68 0 32 14.32 32 32v177.2c0 20.4-8.08 39.92-22.48 54.32l-79.92 79.92c-9.6 9.6-22.64 14.96-36.24 14.96H320c-21.2 0-38.4-17.2-38.4-38.4v-63.12c0-23.76 9.44-46.56 26.24-63.36l20.24-20.24 37.76-37.76c10-10 26.24-10 36.24 0s10 26.24 0 36.24l-37.76 37.76c-8.8 8.8-7.36 23.36 2.96 30.24 7.76 5.2 18.16 4.16 24.8-2.48l40.88-40.88c9.6-9.6 14.96-22.64 14.96-36.24L448 147.2c0-17.68 14.32-32 32-32m-172.4 68-15.84-13.36 8.88 71.04c1.28 10.56-6.16 20.08-16.64 21.44s-20.08-6.16-21.44-16.64l-3.52-28h-6.08l-3.52 28c-1.28 10.56-10.88 18-21.44 16.64s-18-10.88-16.64-21.44l8.88-71.04-15.84 13.36c-8.08 6.88-20.24 5.84-27.04-2.24s-5.84-20.24 2.24-27.04l22.32-18.88c15.12-12.8 34.32-19.84 54.08-19.84s38.96 7.04 54.08 19.76l22.32 18.88c8.08 6.88 9.12 18.96 2.24 27.04s-18.96 9.12-27.04 2.24z"/></svg>