<svg xmlns="http://www.w3.org/2000/svg" viewBox="0 0 512 512"><!--! Font Awesome Free 7.0.1 by @fontawesome - https://fontawesome.com License - https://fontawesome.com/license/free (Icons: CC BY 4.0, Fonts: SIL OFL 1.1, Code: MIT License) Copyright 2025 Fonticons, Inc.--><path fill="currentColor" d="M503.06 79.263c8.94-8.94 8.94-23.394 0-32.238-8.938-8.844-23.393-8.939-32.237 0l-30.62 30.526c-25.297-18.639-56.488-29.67-90.248-29.67-33.378 0-64.19 10.746-89.295 28.91-15.216 11.126-5.611 31.952 13.218 31.952h22.823a22.77 22.77 0 0 1 22.824 22.823v76.077a22.77 22.77 0 0 0 22.823 22.824h76.077a22.77 22.77 0 0 1 22.823 22.823v22.823c0 18.83 20.826 28.434 31.953 13.218 18.163-25.105 28.909-55.916 28.909-89.295 0-33.76-11.031-64.951-29.67-90.247zm-261.515 67.043L89.771 363.126c-8.654 12.268-22.538 19.495-37.468 19.495h-6.657C20.446 382.621 0 403.067 0 428.267c0 25.201 20.446 45.647 45.646 45.647h25.772c62.478 0 123.34-19.21 174.502-54.966l157.765-110.407c-5.23-9.7-8.083-20.826-8.083-32.428h-53.254c-37.849 0-68.47-30.621-68.47-68.47V154.39c-11.602 0-22.728-2.853-32.333-8.083"/></svg>