<svg xmlns="http://www.w3.org/2000/svg" viewBox="0 0 512 512"><!--! Font Awesome Free 7.0.1 by @fontawesome - https://fontawesome.com License - https://fontawesome.com/license/free (Icons: CC BY 4.0, Fonts: SIL OFL 1.1, Code: MIT License) Copyright 2025 Fonticons, Inc.--><path fill="currentColor" d="M478.906 197.47H347.624c-8.843 0-16.866-5.288-20.24-13.493s-1.55-17.595 4.741-23.886l42.576-42.575C306.05 64.09 206.678 68.923 143.59 132.01c-68.376 68.376-68.376 179.146 0 247.522s179.145 68.376 247.521 0q11.214-11.214 19.966-23.795c9.208-13.22 27.442-16.41 40.66-7.202 13.22 9.208 16.411 27.441 7.203 40.66-7.75 11.123-16.592 21.699-26.53 31.636-91.168 91.168-238.951 91.168-330.028 0s-91.168-238.86 0-330.029C188.353 4.832 324.558 0 416.274 76.034l47.133-47.225c6.291-6.29 15.681-8.114 23.886-4.74 8.206 3.373 13.493 11.395 13.493 20.239V175.59a21.83 21.83 0 0 1-21.88 21.88"/></svg>