<svg xmlns="http://www.w3.org/2000/svg" viewBox="0 0 512 512"><!--! Font Awesome Free 7.0.1 by @fontawesome - https://fontawesome.com License - https://fontawesome.com/license/free (Icons: CC BY 4.0, Fonts: SIL OFL 1.1, Code: MIT License) Copyright 2025 Fonticons, Inc.--><path fill="currentColor" d="M502.907 131.677c-4.472 10.435-18.286 9.74-24.746.398-27.627-39.752-65.689-71.752-110.31-92.025-10.335-4.671-13.615-18.187-4.075-24.448C378.683 5.764 396.571 0 415.752 0c52.273 0 94.608 42.335 94.608 94.609a94.3 94.3 0 0 1-7.553 37.068zm-468.97.398c-6.459 9.341-20.372 10.037-24.744-.398A94.3 94.3 0 0 1 1.64 94.609C1.64 42.335 43.975 0 96.248 0c19.18 0 37.069 5.764 51.976 15.602 9.54 6.261 6.26 19.777-4.075 24.448-44.522 20.273-82.584 52.273-110.31 92.025zm355.48 332.422c-37.169 27.826-83.38 44.323-133.367 44.323-49.988 0-96.2-16.497-133.267-44.323l-35.081 34.981c-12.422 12.423-32.596 12.423-45.019 0-12.422-12.422-12.422-32.596 0-45.018l34.982-34.982C49.938 382.41 33.44 336.198 33.44 286.211c0-122.931 99.677-222.609 222.609-222.609 122.931 0 222.608 99.678 222.608 222.61 0 49.987-16.497 96.198-44.323 133.366l34.982 34.981c12.422 12.422 12.422 32.596 0 45.019-12.423 12.422-32.597 12.422-45.019 0l-34.981-34.982zM279.9 182.857a23.794 23.794 0 0 0-23.851-23.85 23.794 23.794 0 0 0-23.851 23.85v103.354c0 6.36 2.484 12.423 6.956 16.895l55.652 55.652c9.342 9.341 24.448 9.341 33.69 0 9.242-9.342 9.342-24.447 0-33.69L279.8 276.373v-93.516z"/></svg>