<svg xmlns="http://www.w3.org/2000/svg" viewBox="0 0 512 512"><!--! Font Awesome Free 7.0.1 by @fontawesome - https://fontawesome.com License - https://fontawesome.com/license/free (Icons: CC BY 4.0, Fonts: SIL OFL 1.1, Code: MIT License) Copyright 2025 Fonticons, Inc.--><path fill="currentColor" d="M275.048 73.143h92.749c-10.87-24.99-29.968-45.613-53.74-58.514zm-.915-71.822C268.241.406 262.146 0 256.051 0c-49.981 0-92.953 30.07-111.746 73.143h81.88L274.031 1.32zM256.051 243.81c67.352 0 121.905-54.553 121.905-121.905h-243.81c0 67.352 54.552 121.905 121.905 121.905m-127.29 95.288C78.579 367.95 44.75 422.095 44.75 484.165c0 15.34 12.495 27.835 27.835 27.835h153.397l-97.32-172.902zm45.817-17.98 43.378 77.104h86.857c44.901 0 81.27 36.368 81.27 81.27A80.6 80.6 0 0 1 379.276 512h60.14c15.34 0 27.835-12.495 27.835-27.835 0-92.343-74.87-167.213-167.213-167.213h-88.28c-12.8 0-25.295 1.423-37.282 4.165zm70.806 125.866L281.956 512h22.857c17.98 0 32.508-14.527 32.508-32.508 0-17.98-14.527-32.508-32.508-32.508z"/></svg>