<svg xmlns="http://www.w3.org/2000/svg" viewBox="0 0 512 512"><!--! Font Awesome Free 7.0.1 by @fontawesome - https://fontawesome.com License - https://fontawesome.com/license/free (Icons: CC BY 4.0, Fonts: SIL OFL 1.1, Code: MIT License) Copyright 2025 Fonticons, Inc.--><path fill="currentColor" d="M481.377 339.9h-85.602l-7.522-59.186c-2.596-20.774-14.237-39.31-31.698-50.86l-132.79-87.393c-16.118-10.655-35.548-14.058-53.815-10.297 2.239-3.85 5.283-7.074 9.044-9.581L311.874 35.1a28.77 28.77 0 0 1 31.519 0l132.88 87.483c6.984 4.566 11.64 11.998 12.715 20.326l20.863 164.757C512 324.768 498.658 339.9 481.466 339.9zM2.239 450.933l20.863-164.756c1.074-8.328 5.64-15.76 12.715-20.326l132.88-87.483a28.77 28.77 0 0 1 31.518 0l132.88 87.483c6.985 4.566 11.64 11.998 12.715 20.326l20.864 164.756c2.149 17.103-11.193 32.236-28.385 32.236h-44.502a28.47 28.47 0 0 1-24.445-13.79l-68.947-113.45c-1.523-2.507-4.298-4.118-7.253-4.118-4.746 0-8.507 3.85-8.507 8.506v94.198c0 15.85-12.804 28.654-28.653 28.654H30.623c-17.281 0-30.623-15.133-28.384-32.236"/></svg>