<svg xmlns="http://www.w3.org/2000/svg" viewBox="0 0 512 512"><!--! Font Awesome Free 7.0.1 by @fontawesome - https://fontawesome.com License - https://fontawesome.com/license/free (Icons: CC BY 4.0, Fonts: SIL OFL 1.1, Code: MIT License) Copyright 2025 Fonticons, Inc.--><path fill="currentColor" d="M113.056 60.914c-21.523 0-38.985 17.462-38.985 38.984v142.945H61.076c-21.523 0-38.985 17.462-38.985 38.984v64.65c14.295-1.624 29.239 2.03 41.665 11.37 2.762 2.112 4.955 1.138 7.96-.243l.65-.325c4.629-2.111 10.477-5.604 17.624-10.964 22.335-16.812 48.65-25.34 74.964-25.503 26.884-.162 53.848 8.284 76.67 25.503 17.95 13.482 23.635 13.482 41.584 0 22.335-16.812 48.65-25.34 75.046-25.503 26.883-.162 53.848 8.284 76.67 25.503 5.604 4.223 10.396 7.31 14.62 9.502.486.244.974.488 1.461.812 3.411 1.868 6.904 3.736 10.234 1.219 8.69-6.579 18.599-10.315 28.67-11.452v-64.569c0-21.522-17.462-38.984-38.985-38.984h-45.482V127.43l38.172 38.173c7.635 7.635 19.98 7.635 27.533 0s7.635-19.98 0-27.533L399.757 66.6c-7.635-7.635-19.98-7.635-27.534 0l-71.472 71.472c-7.634 7.635-7.634 19.98 0 27.533s19.98 7.635 27.533 0l38.173-38.173v115.412H256V99.898c0-21.522-17.462-38.984-38.985-38.984zm268.507 360.69c15.432 11.695 34.03 22.904 54.58 27.046 21.522 4.386 44.1.65 65.542-15.513 8.61-6.497 10.315-18.68 3.818-27.29-6.498-8.608-18.68-10.314-27.29-3.817-12.101 9.097-23.228 10.64-34.355 8.366-12.102-2.437-25.097-9.665-38.822-19.98-31.188-23.553-73.503-23.553-104.772 0-19.492 14.7-33.056 21.36-44.264 21.36s-24.772-6.66-44.264-21.36c-31.188-23.553-73.502-23.553-104.772 0-17.543 13.239-33.543 20.955-47.837 20.873-7.797-.08-16.163-2.436-25.34-9.34-8.61-6.497-20.792-4.792-27.29 3.817s-4.71 20.874 3.899 27.371c15.513 11.695 32 17.056 48.568 17.137 27.533.163 52.224-14.132 71.554-28.67 17.3-13.076 40.528-13.076 57.827 0 19.655 14.863 42.477 29.157 67.736 29.157s48-14.375 67.736-29.157c17.3-13.076 40.528-13.076 57.828 0z"/></svg>