<svg xmlns="http://www.w3.org/2000/svg" viewBox="0 0 512 512"><!--! Font Awesome Free 7.0.1 by @fontawesome - https://fontawesome.com License - https://fontawesome.com/license/free (Icons: CC BY 4.0, Fonts: SIL OFL 1.1, Code: MIT License) Copyright 2025 Fonticons, Inc.--><path fill="currentColor" d="M301.544 31.752C301.544 14.189 287.355 0 269.792 0S238.04 14.19 238.04 31.752v5.358c0 44.651-23.417 85.929-61.618 108.949l-4.565 2.778c-57.45 34.431-92.576 96.347-92.576 163.324v68.862c0 17.563 14.189 31.752 31.752 31.752s31.751-14.189 31.751-31.752v-68.862c0-16.57 3.275-32.744 9.328-47.628l188.328 231.79c11.014 13.593 31.058 15.677 44.651 4.663s15.678-31.057 4.664-44.651L276.936 317.519h103.988l38.102 50.803c10.518 13.991 30.462 16.869 44.453 6.35 13.99-10.517 16.868-30.461 6.35-44.452l-42.865-57.153c-9.03-12.007-23.119-19.051-38.102-19.051h-88.31L238.14 179.1c39.987-35.721 63.404-87.219 63.404-141.99zM87.22 142.884c30.66 0 55.565-24.906 55.565-55.566S117.88 31.752 87.22 31.752 31.653 56.657 31.653 87.318c0 30.66 24.905 55.566 55.566 55.566"/></svg>