<svg xmlns="http://www.w3.org/2000/svg" viewBox="0 0 512 512"><!--! Font Awesome Free 7.0.1 by @fontawesome - https://fontawesome.com License - https://fontawesome.com/license/free (Icons: CC BY 4.0, Fonts: SIL OFL 1.1, Code: MIT License) Copyright 2025 Fonticons, Inc.--><path fill="currentColor" d="M256 0a27.363 27.363 0 0 0-27.429 27.429v47.428c-108.228 13.486-192 105.829-192 217.714V475.43c0 20.228 16.343 36.571 36.572 36.571 20.228 0 36.571-16.343 36.571-36.571V292.57c0-71.428 51.2-130.857 118.857-143.771v335.771A27.363 27.363 0 0 0 256 512a27.363 27.363 0 0 0 27.429-27.429V148.8c67.657 12.8 118.857 72.343 118.857 143.771V475.43c0 20.228 16.343 36.571 36.571 36.571 20.229 0 36.572-16.343 36.572-36.571V292.57c0-111.885-83.772-204.228-192-217.714V27.43A27.363 27.363 0 0 0 256 0"/></svg>