<svg xmlns="http://www.w3.org/2000/svg" viewBox="0 0 512 512"><!--! Font Awesome Free 7.0.1 by @fontawesome - https://fontawesome.com License - https://fontawesome.com/license/free (Icons: CC BY 4.0, Fonts: SIL OFL 1.1, Code: MIT License) Copyright 2025 Fonticons, Inc.--><path fill="currentColor" d="M115.2 89.6c0-21.2 17.2-38.4 38.4-38.4S192 68.4 192 89.6v256c0 26 9.68 49.68 25.6 67.76v21.84c0 5.68.72 11.28 2.16 16.56L153.6 435.2l-86.48 21.6c-8.08 2.08-15.92-4.08-15.92-12.4v-15.84c0-3.92 1.76-7.6 4.8-10l59.2-47.36v-46.08l-97.68 39.04C9.12 367.52 0 361.36 0 352.32v-35.2c0-6.4 2.4-12.48 6.64-17.2L115.2 180.48zm179.2 64H448c35.36 0 64 28.64 64 64v128c0 20.96-10.08 39.52-25.6 51.2v38.4c0 14.16-11.44 25.6-25.6 25.6s-25.6-11.44-25.6-25.6v-25.6h-128v25.6c0 14.16-11.44 25.6-25.6 25.6S256 449.36 256 435.2v-38.4c-15.52-11.68-25.6-30.24-25.6-51.2v-128c0-35.36 28.64-64 64-64m0 140.8H448v-25.6c0-14.16-11.44-25.6-25.6-25.6H320c-14.16 0-25.6 11.44-25.6 25.6zm0 70.4c10.64 0 19.2-8.56 19.2-19.2s-8.56-19.2-19.2-19.2-19.2 8.56-19.2 19.2 8.56 19.2 19.2 19.2m172.8-19.2c0-10.64-8.56-19.2-19.2-19.2s-19.2 8.56-19.2 19.2 8.56 19.2 19.2 19.2 19.2-8.56 19.2-19.2"/></svg>