<svg xmlns="http://www.w3.org/2000/svg" viewBox="0 0 512 512"><!--! Font Awesome Free 7.0.1 by @fontawesome - https://fontawesome.com License - https://fontawesome.com/license/free (Icons: CC BY 4.0, Fonts: SIL OFL 1.1, Code: MIT License) Copyright 2025 Fonticons, Inc.--><path fill="currentColor" d="M255.089 73.794C154.419 73.794 72.883 155.33 72.883 256s81.537 182.206 182.206 182.206c88.142 0 161.708-62.633 178.562-145.765h-142.12c-20.157 0-36.442-16.284-36.442-36.441s16.285-36.441 36.441-36.441h163.986c29.38 0 56.484 24.37 53.75 57.622C498.449 408.142 388.784 511.09 255.09 511.09 114.221 511.089 0 396.869 0 256 0 115.132 114.22.911 255.089.911c65.367 0 124.925 24.598 170.021 64.911 15.032 13.438 16.285 36.441 2.847 51.473-13.437 15.032-36.441 16.285-51.473 2.847-32.228-28.811-74.705-46.348-121.395-46.348"/></svg>