<svg xmlns="http://www.w3.org/2000/svg" viewBox="0 0 512 512"><!--! Font Awesome Free 7.0.1 by @fontawesome - https://fontawesome.com License - https://fontawesome.com/license/free (Icons: CC BY 4.0, Fonts: SIL OFL 1.1, Code: MIT License) Copyright 2025 Fonticons, Inc.--><path fill="currentColor" d="m291.085 127.98 46.088 76.812H230.436V127.98zm105.777 76.812-61.93-103.136c-9.201-15.443-25.924-24.884-43.847-24.884h-86.253c-14.162 0-25.604 11.442-25.604 25.604v102.416H64.01c-21.203 0-38.406 17.203-38.406 38.406v64.01C11.442 307.208 0 318.65 0 332.812s11.442 25.604 25.604 25.604h25.924c-.16 2.08-.32 4.24-.32 6.401 0 38.886 31.525 70.411 70.411 70.411s70.411-31.525 70.411-70.411c0-2.16-.08-4.32-.32-6.401h128.58c-.16 2.08-.32 4.24-.32 6.401 0 38.886 31.525 70.411 70.411 70.411s70.411-31.525 70.411-70.411c0-2.16-.08-4.32-.32-6.401h25.924c14.162 0 25.604-11.442 25.604-25.604s-11.442-25.604-25.604-25.604v-64.01c0-21.203-17.203-38.406-38.406-38.406h-51.208zM89.614 364.817c0-17.683 14.322-32.005 32.005-32.005s32.005 14.322 32.005 32.005-14.322 32.005-32.005 32.005-32.005-14.322-32.005-32.005m300.847-32.005c17.683 0 32.005 14.322 32.005 32.005s-14.322 32.005-32.005 32.005-32.005-14.322-32.005-32.005 14.322-32.005 32.005-32.005"/></svg>