<svg xmlns="http://www.w3.org/2000/svg" viewBox="0 0 512 512"><!--! Font Awesome Free 7.0.1 by @fontawesome - https://fontawesome.com License - https://fontawesome.com/license/free (Icons: CC BY 4.0, Fonts: SIL OFL 1.1, Code: MIT License) Copyright 2025 Fonticons, Inc.--><path fill="currentColor" d="M296.889 12.395c12.346-12.346 32.395-12.346 44.74 0L499.655 170.42c12.346 12.345 12.346 32.395 0 44.74-12.345 12.346-32.395 12.346-44.74 0l-1.383-1.382L296.889 370.42c-17.778 17.778-41.877 27.753-67.062 27.753h-58.271c-8.396 0-16.396 3.358-22.321 9.284l-92.149 92.148c-12.345 12.346-32.395 12.346-44.74 0C0 487.259 0 467.21 12.346 454.865l15.802-15.803 76.346-76.346c5.926-5.926 9.284-13.926 9.284-22.32v-58.273c0-25.185 9.975-49.283 27.753-67.061L298.173 58.42l-1.284-1.383c-12.346-12.346-12.346-32.395 0-44.74zm46.025 90.765-81.68 81.68 65.877 65.876 81.68-81.679zm-126.42 126.42-30.222 30.222c-5.926 5.926-9.284 13.926-9.284 22.321v52.84h52.84c8.394 0 16.394-3.358 22.32-9.284l30.222-30.222z"/></svg>