<svg xmlns="http://www.w3.org/2000/svg" viewBox="0 0 512 512"><!--! Font Awesome Free 7.0.1 by @fontawesome - https://fontawesome.com License - https://fontawesome.com/license/free (Icons: CC BY 4.0, Fonts: SIL OFL 1.1, Code: MIT License) Copyright 2025 Fonticons, Inc.--><path fill="currentColor" d="M496.845 283.4c15.155-15.155 15.155-39.767 0-54.922L302.86 34.493c-15.156-15.155-39.767-15.155-54.923 0s-15.155 39.767 0 54.922L414.522 256 248.06 422.585c-15.155 15.155-15.155 39.767 0 54.922s39.767 15.155 54.922 0l193.985-193.985zM70.077 477.386 264.063 283.4c15.155-15.155 15.155-39.767 0-54.922L70.077 34.493c-15.155-15.155-39.767-15.155-54.922 0S0 74.26 15.155 89.415L181.74 256 15.276 422.585c-15.155 15.155-15.155 39.767 0 54.922s39.767 15.155 54.922 0z"/></svg>