<svg xmlns="http://www.w3.org/2000/svg" viewBox="0 0 512 512"><!--! Font Awesome Free 7.0.1 by @fontawesome - https://fontawesome.com License - https://fontawesome.com/license/free (Icons: CC BY 4.0, Fonts: SIL OFL 1.1, Code: MIT License) Copyright 2025 Fonticons, Inc.--><path fill="currentColor" d="M158.167 132.928c33.941 0 61.536-27.595 61.536-61.536S192.108 9.855 158.167 9.855c-33.94 0-61.536 27.596-61.536 61.537 0 33.94 27.595 61.536 61.536 61.536m-15.384 338.449v-92.305h30.768v92.305c0 17.018 13.75 30.768 30.768 30.768s30.768-13.75 30.768-30.768V286.576l20.096 31.922c9.038 14.422 28.076 18.653 42.402 9.615s18.653-28.076 9.615-42.403l-38.364-60.863c-23.845-38.075-65.67-61.151-110.669-61.151s-86.824 23.076-110.765 61.151l-38.364 60.96C0 300.229 4.327 319.17 18.653 328.209s33.364 4.711 42.402-9.615l20.096-31.922v184.8c0 17.02 13.75 30.769 30.768 30.769s30.768-13.75 30.768-30.768zM419.696 9.855h-30.768c-8.462 0-15.384 6.923-15.384 15.384s6.922 15.384 15.384 15.384v96.44a30.67 30.67 0 0 0-15.384 26.633v30.768c-17.019 0-30.768 13.75-30.768 30.768v138.456c0 17.019 13.75 30.768 30.768 30.768h15.384v92.305c0 8.46 6.923 15.384 15.384 15.384h57.21c9.999 0 17.306-9.423 14.902-19.134l-22.114-88.555h42.306c8.461 0 15.384-6.922 15.384-15.384v-15.384c0-8.461-6.923-15.384-15.384-15.384h-46.152v-25.672l51.056-17.018A15.425 15.425 0 0 0 512 290.999v-81.247c0-8.461-6.923-15.384-15.384-15.384h-15.384c-8.461 0-15.384 6.923-15.384 15.384v53.844l-15.384 5.096V163.6a30.67 30.67 0 0 0-15.384-26.634V25.143c0-8.46-6.923-15.384-15.384-15.384z"/></svg>