<svg xmlns="http://www.w3.org/2000/svg" viewBox="0 0 512 512"><!--! Font Awesome Free 7.0.1 by @fontawesome - https://fontawesome.com License - https://fontawesome.com/license/free (Icons: CC BY 4.0, Fonts: SIL OFL 1.1, Code: MIT License) Copyright 2025 Fonticons, Inc.--><path fill="currentColor" d="M78.59 138.114c0-59.21 47.959-107.169 107.17-107.169s107.169 47.958 107.169 107.17c0 59.21-47.958 107.168-107.17 107.168-59.21 0-107.168-47.958-107.168-107.169M0 454.531c0-87.968 71.267-159.236 159.235-159.236h53.049c87.968 0 159.235 71.268 159.235 159.236 0 14.646-11.878 26.524-26.524 26.524H26.525C11.877 481.055 0 469.177 0 454.53m503.605-319.9c8.395 8.395 8.395 21.97 0 30.275l-30.275 30.276 30.275 30.275c8.395 8.395 8.395 21.97 0 30.275s-21.97 8.395-30.275 0l-30.275-30.275-30.276 30.275c-8.395 8.395-21.97 8.395-30.275 0s-8.395-21.97 0-30.275l30.275-30.275-30.275-30.276c-8.395-8.395-8.395-21.97 0-30.275s21.97-8.395 30.275 0l30.276 30.275 30.275-30.275c8.395-8.395 21.97-8.395 30.275 0"/></svg>