<svg xmlns="http://www.w3.org/2000/svg" viewBox="0 0 512 512"><!--! Font Awesome Free 7.0.1 by @fontawesome - https://fontawesome.com License - https://fontawesome.com/license/free (Icons: CC BY 4.0, Fonts: SIL OFL 1.1, Code: MIT License) Copyright 2025 Fonticons, Inc.--><path fill="currentColor" d="M21.997 242.578 0 308.384V121.778c0-32.903 26.751-59.654 59.654-59.654h129.282c12.863 0 25.446 4.195 35.792 11.931l35.793 26.844c5.126 3.915 11.464 5.966 17.896 5.966h109.335c32.903 0 59.654 26.75 59.654 59.654v14.913H106.818c-38.495 0-72.703 24.608-84.914 61.146zm393.158 207.298H62.078c-30.573 0-52.105-29.92-42.41-58.909l44.74-134.221c6.058-18.27 23.209-30.573 42.41-30.573h353.078c30.573 0 52.104 29.92 42.41 58.908l-44.74 134.222c-6.059 18.27-23.21 30.573-42.41 30.573"/></svg>