<svg xmlns="http://www.w3.org/2000/svg" viewBox="0 0 512 512"><!--! Font Awesome Free 7.0.1 by @fontawesome - https://fontawesome.com License - https://fontawesome.com/license/free (Icons: CC BY 4.0, Fonts: SIL OFL 1.1, Code: MIT License) Copyright 2025 Fonticons, Inc.--><path fill="currentColor" d="M196.512 7.313C205.232 0 218.076.28 226.42 8.157c11.532 10.875 21.845 22.876 31.783 35.064 12.657 15.47 27.846 35.909 42.472 60.192 4.875-6.376 9.375-12.001 13.313-16.783 1.031-1.219 2.063-2.531 3.094-3.844 7.407-9.188 16.595-20.72 28.877-20.72 12.563 0 21.376 11.157 28.876 20.72a95 95 0 0 0 3.657 4.5c9.657 11.626 22.501 28.409 35.346 49.129 25.501 41.158 52.128 99.756 52.128 165.572C465.966 417.963 371.929 512 255.953 512S46.034 418.057 46.034 302.08c0-85.41 38.534-159.384 75.473-210.95 18.658-25.97 37.221-46.784 51.191-61.034 7.688-7.876 15.47-15.658 23.908-22.69zm61.129 414.775c23.72 0 44.721-6.563 64.504-19.688 39.47-27.565 50.065-82.693 26.345-126.008-4.219-8.438-15-9-21.095-1.875l-23.626 27.47c-6.188 7.126-17.345 6.938-23.158-.469-16.22-20.72-46.034-58.503-61.223-77.817-5.062-6.469-14.25-7.5-20.157-1.781-17.157 16.688-48.284 53.253-48.284 97.787 0 64.316 47.44 102.381 106.6 102.381z"/></svg>