<svg xmlns="http://www.w3.org/2000/svg" viewBox="0 0 512 512"><!--! Font Awesome Free 7.0.1 by @fontawesome - https://fontawesome.com License - https://fontawesome.com/license/free (Icons: CC BY 4.0, Fonts: SIL OFL 1.1, Code: MIT License) Copyright 2025 Fonticons, Inc.--><path fill="currentColor" d="M256 140.8c-113.12 0-204.8 91.68-204.8 204.8v51.2c0 14.16-11.44 25.6-25.6 25.6S0 410.96 0 396.8v-51.2c0-141.36 114.64-256 256-256s256 114.64 256 256v51.2c0 14.16-11.44 25.6-25.6 25.6s-25.6-11.44-25.6-25.6v-51.2c0-113.12-91.68-204.8-204.8-204.8m0 89.6c-63.6 0-115.2 51.6-115.2 115.2v51.2c0 14.16-11.44 25.6-25.6 25.6s-25.6-11.44-25.6-25.6v-51.2c0-91.92 74.48-166.4 166.4-166.4s166.4 74.48 166.4 166.4v51.2c0 14.16-11.44 25.6-25.6 25.6s-25.6-11.44-25.6-25.6v-51.2c0-63.6-51.6-115.2-115.2-115.2m-25.6 115.2v51.2c0 14.16-11.44 25.6-25.6 25.6s-25.6-11.44-25.6-25.6v-51.2c0-42.4 34.4-76.8 76.8-76.8s76.8 34.4 76.8 76.8v51.2c0 14.16-11.44 25.6-25.6 25.6s-25.6-11.44-25.6-25.6v-51.2c0-14.16-11.44-25.6-25.6-25.6s-25.6 11.44-25.6 25.6"/></svg>