<svg xmlns="http://www.w3.org/2000/svg" viewBox="0 0 512 512"><!--! Font Awesome Free 7.0.1 by @fontawesome - https://fontawesome.com License - https://fontawesome.com/license/free (Icons: CC BY 4.0, Fonts: SIL OFL 1.1, Code: MIT License) Copyright 2025 Fonticons, Inc.--><path fill="currentColor" d="M409.001 0c-27.346 0-53.495 10.879-72.858 30.141l-17.665 17.765-13.074-13.074c-28.046-28.045-73.557-28.045-101.602 0l-100.005 99.905c-9.381 9.382-9.381 24.552 0 33.834s24.552 9.381 33.834 0l100.005-99.805c9.382-9.382 24.552-9.382 33.834 0l13.074 12.974-99.905 100.005 145.616 145.616 151.604-151.504C501.22 156.494 512 130.345 512 102.999 512 46.109 465.89 0 409.001 0M103.198 263.186C53.396 312.989 20.061 376.964 7.885 446.328l-6.488 36.529c-1.397 7.785 1.098 15.57 6.587 21.159 5.49 5.589 13.374 7.984 21.06 6.687l36.628-6.488c69.364-12.276 133.34-45.51 183.142-95.314l47.607-47.706-145.616-145.616z"/></svg>