<svg xmlns="http://www.w3.org/2000/svg" viewBox="0 0 512 512"><!--! Font Awesome Free 7.0.1 by @fontawesome - https://fontawesome.com License - https://fontawesome.com/license/free (Icons: CC BY 4.0, Fonts: SIL OFL 1.1, Code: MIT License) Copyright 2025 Fonticons, Inc.--><path fill="currentColor" d="m443.84 213.92 13.04 1.84C438.16 121.92 355.36 51.2 256 51.2S73.84 121.92 55.12 215.76l13.04-1.84c29.6-4.24 54.88 21.12 50.72 50.72L113.52 302c-3.28 23.2-17.28 42.56-36.64 53.44 34.96 62.8 102.08 105.36 179.04 105.36S400 418.32 434.96 355.44c-19.28-10.8-33.28-30.24-36.64-53.44l-5.36-37.36c-4.24-29.6 21.12-54.88 50.72-50.72zm-67.6 98.8C358.32 361.76 311.28 396.8 256 396.8s-102.32-35.04-120.24-84.08c-3.44-9.44 6.16-17.44 15.68-14.48C182.8 308 218.4 313.52 256 313.52s73.2-5.52 104.56-15.28c9.52-2.96 19.12 5.04 15.68 14.48M169.6 217.6v6.4c0 8.8-7.2 16-16 16s-16-7.2-16-16v-6.4c0-30.08 24.32-54.4 54.4-54.4s54.4 24.32 54.4 54.4v6.4c0 8.8-7.2 16-16 16s-16-7.2-16-16v-6.4c0-12.4-10-22.4-22.4-22.4s-22.4 10-22.4 22.4M320 195.2c-12.4 0-22.4 10-22.4 22.4v6.4c0 8.8-7.2 16-16 16s-16-7.2-16-16v-6.4c0-30.08 24.32-54.4 54.4-54.4s54.4 24.32 54.4 54.4v6.4c0 8.8-7.2 16-16 16s-16-7.2-16-16v-6.4c0-12.4-10-22.4-22.4-22.4m192 96.48c0-20.48-15.04-37.84-35.28-40.72l-37.44-5.36c-8.48-1.2-15.68 6-14.48 14.48l5.36 37.36c2.88 20.24 20.24 35.28 40.72 35.28 22.72 0 41.12-18.4 41.12-41.12zm-512 0c0 22.72 18.4 41.12 41.12 41.12 20.48 0 37.84-15.04 40.72-35.28l5.36-37.36c1.2-8.48-6-15.68-14.48-14.48l-37.36 5.36C15.04 253.84 0 271.2 0 291.68"/></svg>