<svg xmlns="http://www.w3.org/2000/svg" viewBox="0 0 512 512"><!--! Font Awesome Free 7.0.1 by @fontawesome - https://fontawesome.com License - https://fontawesome.com/license/free (Icons: CC BY 4.0, Fonts: SIL OFL 1.1, Code: MIT License) Copyright 2025 Fonticons, Inc.--><path fill="currentColor" d="m236.354 29.394-12.498 18.597a107.7 107.7 0 0 1-89.682 47.99H67.887C30.394 95.981 0 126.375 0 163.868c0 17.996 7.199 35.193 19.896 47.89l26.995 26.995a58.64 58.64 0 0 1 17.196 41.492c0 15.797-6.398 30.894-17.696 41.992l-13.098 12.798c-11.097 10.797-17.296 25.695-17.296 41.192 0 36.792 34.093 64.187 70.086 56.189l62.288-13.798c7.699-1.7 15.697-2.6 23.595-2.6 32.794 0 64.188 14.598 85.184 39.793l30.494 36.593C298.042 504.8 313.339 512 329.536 512c30.094 0 54.489-24.395 54.489-54.49v-51.19c0-41.391 25.395-78.484 63.987-93.481l22.196-8.598C495.403 294.442 512 270.147 512 243.153c0-26.395-15.897-50.29-40.292-60.489l-42.892-17.896a111.09 111.09 0 0 1-65.487-78.085l-7.898-35.193C348.63 21.396 321.937 0 291.143 0c-21.996 0-42.592 10.998-54.79 29.394m-76.485 162.569c17.696 0 31.994 14.297 31.994 31.993 0 17.697-14.298 31.994-31.994 31.994-17.697 0-31.994-14.297-31.994-31.994s14.297-31.993 31.994-31.993m95.981 0c0-17.697 14.297-31.994 31.994-31.994s31.994 14.297 31.994 31.994-14.298 31.993-31.994 31.993c-17.697 0-31.994-14.297-31.994-31.993m31.994 95.98c17.696 0 31.994 14.298 31.994 31.995 0 17.696-14.298 31.993-31.994 31.993-17.697 0-31.994-14.297-31.994-31.993 0-17.697 14.297-31.994 31.994-31.994"/></svg>