<svg xmlns="http://www.w3.org/2000/svg" viewBox="0 0 512 512"><!--! Font Awesome Free 7.0.1 by @fontawesome - https://fontawesome.com License - https://fontawesome.com/license/free (Icons: CC BY 4.0, Fonts: SIL OFL 1.1, Code: MIT License) Copyright 2025 Fonticons, Inc.--><path fill="currentColor" d="M123.502 21.725C112.64 4.865 90.236 0 73.49 10.862S51.766 44.015 62.628 60.874L201.35 276.65h-63.024a27.09 27.09 0 0 0-27.156 27.156 27.09 27.09 0 0 0 27.156 27.155h81.467v36.208h-81.467a27.09 27.09 0 0 0-27.156 27.156 27.09 27.09 0 0 0 27.156 27.156h81.467v54.311C219.792 495.82 235.972 512 256 512s36.208-16.18 36.208-36.208v-54.311h81.467a27.09 27.09 0 0 0 27.156-27.156 27.09 27.09 0 0 0-27.156-27.156h-81.467v-36.208h81.467a27.09 27.09 0 0 0 27.156-27.155 27.09 27.09 0 0 0-27.156-27.156h-63.024l138.72-215.776c10.863-16.859 5.998-39.263-10.861-50.012s-39.263-5.997-50.012 10.863L256 227.769z"/></svg>