<svg xmlns="http://www.w3.org/2000/svg" viewBox="0 0 512 512"><!--! Font Awesome Free 7.0.1 by @fontawesome - https://fontawesome.com License - https://fontawesome.com/license/free (Icons: CC BY 4.0, Fonts: SIL OFL 1.1, Code: MIT License) Copyright 2025 Fonticons, Inc.--><path fill="currentColor" d="M146.242 300.626H40.912c-25.341 0-40.912-27.58-27.886-49.358l53.836-89.76c8.854-14.757 24.73-23.713 41.93-23.713h96.68C282.918 6.615 398.426 0 475.668 11.296c13.027 1.934 23.204 12.11 25.036 25.036 11.296 77.242 4.681 192.75-126.5 270.196v96.68c0 17.2-8.955 33.076-23.711 41.93l-89.76 53.836c-21.678 13.026-49.359-2.646-49.359-27.885V365.758c0-35.925-29.207-65.132-65.132-65.132h-.102zm276.812-162.83c0-26.97-21.88-48.85-48.85-48.85-26.968 0-48.848 21.88-48.848 48.85 0 26.968 21.88 48.848 48.849 48.848s48.849-21.88 48.849-48.849"/></svg>