<svg xmlns="http://www.w3.org/2000/svg" viewBox="0 0 512 512"><!--! Font Awesome Free 7.0.1 by @fontawesome - https://fontawesome.com License - https://fontawesome.com/license/free (Icons: CC BY 4.0, Fonts: SIL OFL 1.1, Code: MIT License) Copyright 2025 Fonticons, Inc.--><path fill="currentColor" d="M429.282 60.75c10.984-16.477 6.5-38.782-9.976-49.766s-38.78-6.5-49.765 9.976l-60.974 91.572H40.8c-19.84 0-35.867 16.028-35.867 35.867 0 19.84 16.028 35.867 35.867 35.867h219.909L165.1 327.734H40.799c-19.84 0-35.867 16.028-35.867 35.867s16.028 35.867 35.867 35.867h76.44L82.719 451.25c-10.984 16.477-6.5 38.782 9.976 49.766s38.78 6.5 49.765-9.976l60.974-91.572H471.2c19.84 0 35.867-16.028 35.867-35.867 0-19.84-16.028-35.867-35.867-35.867H251.292L346.9 184.266h124.301c19.84 0 35.867-16.028 35.867-35.867s-16.028-35.867-35.867-35.867h-76.44z"/></svg>