<svg xmlns="http://www.w3.org/2000/svg" viewBox="0 0 512 512"><!--! Font Awesome Free 7.0.1 by @fontawesome - https://fontawesome.com License - https://fontawesome.com/license/free (Icons: CC BY 4.0, Fonts: SIL OFL 1.1, Code: MIT License) Copyright 2025 Fonticons, Inc.--><path fill="currentColor" d="M215.87 28.953c-4.53-16.84-21.765-26.786-38.605-22.256S150.478 28.46 155.008 45.3L207.104 239.8c2.462 9.06-4.431 17.923-13.787 17.923-6.303 0-11.817-4.136-13.689-10.143L136.79 106.753c-5.022-16.643-22.65-25.999-39.293-20.977-16.644 5.023-26 22.651-20.977 39.294l61.846 203.264c2.364 7.78-7.09 13.59-13 7.977l-54.558-51.998c-15.756-14.969-40.672-14.378-55.74 1.379C0 301.449.69 326.364 16.448 341.432l110.691 105.374c42.445 40.475 98.875 63.027 157.57 63.027h18.809c.098 0 .098-.098.098-.098l.099-.099c57.414-3.446 106.95-42.543 123.396-98.185l79.966-270.82c4.924-16.644-4.629-34.174-21.272-39.196-16.643-5.023-34.173 4.628-39.195 21.272l-37.127 126.252c-1.576 5.22-6.303 8.764-11.818 8.764-7.78 0-13.59-7.189-12.014-14.87L421.103 75.14c3.643-17.038-7.288-33.78-24.325-37.324-17.037-3.546-33.779 7.287-37.324 24.324l-37.029 175a25.935 25.935 0 0 1-25.408 20.582c-11.72 0-22.06-7.878-25.014-19.203z"/></svg>