<svg xmlns="http://www.w3.org/2000/svg" viewBox="0 0 512 512"><!--! Font Awesome Free 7.0.1 by @fontawesome - https://fontawesome.com License - https://fontawesome.com/license/free (Icons: CC BY 4.0, Fonts: SIL OFL 1.1, Code: MIT License) Copyright 2025 Fonticons, Inc.--><path fill="currentColor" d="M0 256c0-70.72 57.28-128 128-128 40.32 0 78.24 18.96 102.4 51.2l25.6 34.16 25.6-34.16C305.76 146.96 343.68 128 384 128c70.72 0 128 57.28 128 128s-57.28 128-128 128c-40.32 0-78.24-18.96-102.4-51.2L256 298.64l-25.6 34.16C206.24 365.04 168.32 384 128 384 57.28 384 0 326.72 0 256m224 0-34.56-46.08c-14.48-19.36-37.28-30.72-61.44-30.72-42.4 0-76.8 34.4-76.8 76.8s34.4 76.8 76.8 76.8c24.16 0 46.96-11.36 61.44-30.72zm64 0 34.56 46.08c14.48 19.36 37.28 30.72 61.44 30.72 42.4 0 76.8-34.4 76.8-76.8s-34.4-76.8-76.8-76.8c-24.16 0-46.96 11.36-61.44 30.72z"/></svg>