<svg xmlns="http://www.w3.org/2000/svg" viewBox="0 0 512 512"><!--! Font Awesome Free 7.0.1 by @fontawesome - https://fontawesome.com License - https://fontawesome.com/license/free (Icons: CC BY 4.0, Fonts: SIL OFL 1.1, Code: MIT License) Copyright 2025 Fonticons, Inc.--><path fill="currentColor" d="M0 153.956V454.31c0 15.733 12.711 28.445 28.444 28.445 15.734 0 28.445-12.712 28.445-28.445V240.978c0-15.734 12.711-28.445 28.444-28.445h341.334c15.733 0 28.444 12.711 28.444 28.445V454.31c0 15.733 12.711 28.445 28.445 28.445S512 470.044 512 454.31V153.956c0-24.445-15.644-46.223-38.933-53.956L269.51 32.178a42.6 42.6 0 0 0-27.022 0L38.933 100C15.644 107.733 0 129.511 0 153.956M412.444 255.2H99.556v56.889h312.888zM99.556 397.422h312.888v-56.889H99.556zm312.888 28.445H99.556v56.889h312.888z"/></svg>