<svg xmlns="http://www.w3.org/2000/svg" viewBox="0 0 512 512"><!--! Font Awesome Free 7.0.1 by @fontawesome - https://fontawesome.com License - https://fontawesome.com/license/free (Icons: CC BY 4.0, Fonts: SIL OFL 1.1, Code: MIT License) Copyright 2025 Fonticons, Inc.--><path fill="currentColor" d="M15.155 228.6C0 243.755 0 268.367 15.155 283.522L209.14 477.507c15.156 15.155 39.767 15.155 54.923 0s15.155-39.767 0-54.922L97.478 256 263.94 89.415c15.155-15.155 15.155-39.767 0-54.922s-39.767-15.155-54.922 0L15.034 228.478zM441.923 34.614 247.937 228.6c-15.155 15.155-15.155 39.767 0 54.922l193.986 193.985c15.155 15.155 39.767 15.155 54.922 0s15.155-39.767 0-54.922L330.26 256 496.724 89.415c15.155-15.155 15.155-39.767 0-54.922s-39.767-15.155-54.922 0z"/></svg>