<svg xmlns="http://www.w3.org/2000/svg" viewBox="0 0 512 512"><!--! Font Awesome Free 7.0.1 by @fontawesome - https://fontawesome.com License - https://fontawesome.com/license/free (Icons: CC BY 4.0, Fonts: SIL OFL 1.1, Code: MIT License) Copyright 2025 Fonticons, Inc.--><path fill="currentColor" d="M0 256C0 114.793 114.444.35 255.65.35c32.955 0 64.512 6.29 93.473 17.675 7.39 2.896 11.484 10.686 9.786 18.375a15.84 15.84 0 0 1-16.677 12.383c-4.793-.3-9.687-.499-14.58-.499-114.743 0-207.716 92.973-207.716 207.716s92.973 207.716 207.716 207.716c4.893 0 9.787-.2 14.58-.5 7.89-.499 14.98 4.694 16.677 12.384 1.698 7.69-2.396 15.479-9.786 18.375-28.96 11.384-60.518 17.675-93.473 17.675C114.444 511.65 0 397.207 0 256m374.887-118.438c3.496-7.09 13.682-7.09 17.177 0l31.457 63.713a9.84 9.84 0 0 0 7.19 5.293l70.304 10.186c7.89 1.098 10.985 10.785 5.293 16.377l-50.83 49.533c-2.298 2.197-3.296 5.392-2.797 8.488l11.984 70.004c1.298 7.79-6.89 13.781-13.881 10.086l-62.914-33.054a9.35 9.35 0 0 0-8.888 0l-62.914 33.054c-6.99 3.695-15.28-2.296-13.881-10.086l11.983-70.004c.5-3.096-.499-6.291-2.796-8.488l-50.73-49.533c-5.693-5.592-2.597-15.179 5.292-16.377l70.304-10.186c3.096-.5 5.792-2.397 7.19-5.293z"/></svg>