<svg xmlns="http://www.w3.org/2000/svg" viewBox="0 0 512 512"><!--! Font Awesome Free 7.0.1 by @fontawesome - https://fontawesome.com License - https://fontawesome.com/license/free (Icons: CC BY 4.0, Fonts: SIL OFL 1.1, Code: MIT License) Copyright 2025 Fonticons, Inc.--><path fill="currentColor" d="M151.184 2.949C158.223 0 166.212.856 172.584 5.04l83.511 55.357 83.51-55.357a23.13 23.13 0 0 1 21.401-2.092c7.039 2.853 11.985 9.13 13.506 16.55l19.88 98.157 98.157 19.88c7.419 1.521 13.697 6.657 16.55 13.6 2.853 6.944 2.093 15.029-2.092 21.401l-55.357 83.51 55.357 83.51a23.13 23.13 0 0 1 2.092 21.402 22.5 22.5 0 0 1-16.55 13.6l-98.253 19.785-19.784 98.253c-1.521 7.419-6.658 13.696-13.601 16.55-6.943 2.853-15.028 2.092-21.4-2.093L256 451.698l-83.51 55.356a23.13 23.13 0 0 1-21.401 2.093 22.5 22.5 0 0 1-13.601-16.55l-19.784-98.253-98.253-19.88c-7.419-1.521-13.697-6.657-16.55-13.6-2.853-6.944-2.093-15.029 2.092-21.401l55.357-83.415-55.357-83.51a23.13 23.13 0 0 1-2.092-21.401 22.5 22.5 0 0 1 16.55-13.602l98.253-19.784 19.879-98.253c1.522-7.418 6.658-13.696 13.601-16.55m27.964 253.099c0-42.231 34.24-76.472 76.472-76.472 42.23 0 76.471 34.24 76.471 76.472 0 42.23-34.24 76.471-76.471 76.471s-76.472-34.24-76.472-76.471m198.598 0c0-67.436-54.69-122.127-122.126-122.127s-122.127 54.69-122.127 122.127 54.69 122.126 122.127 122.126 122.126-54.69 122.126-122.126"/></svg>