<svg xmlns="http://www.w3.org/2000/svg" viewBox="0 0 512 512"><!--! Font Awesome Free 7.0.1 by @fontawesome - https://fontawesome.com License - https://fontawesome.com/license/free (Icons: CC BY 4.0, Fonts: SIL OFL 1.1, Code: MIT License) Copyright 2025 Fonticons, Inc.--><path fill="currentColor" d="M62.906 207.978c0-104.19 76.132-190.58 175.897-206.57C247.954 0 256 7.442 256 16.795v63.66c0 8.449 6.537 15.388 14.784 16.595 100.871 14.985 178.31 101.877 178.31 206.871 0 104.19-76.132 190.58-175.897 206.57C263.945 512 256 504.558 256 495.205v-63.66c0-8.449-6.537-15.388-14.784-16.695-100.871-14.885-178.31-101.877-178.31-206.872m289.64 48.273c0-53.301-43.244-96.546-96.546-96.546s-96.547 43.245-96.547 96.546 43.245 96.547 96.547 96.547 96.547-43.245 96.547-96.547M256 224.07c17.8 0 32.182 14.382 32.182 32.182S273.801 288.434 256 288.434c-17.8 0-32.182-14.382-32.182-32.183 0-17.8 14.381-32.182 32.182-32.182"/></svg>