<svg xmlns="http://www.w3.org/2000/svg" viewBox="0 0 512 512"><!--! Font Awesome Free 7.0.1 by @fontawesome - https://fontawesome.com License - https://fontawesome.com/license/free (Icons: CC BY 4.0, Fonts: SIL OFL 1.1, Code: MIT License) Copyright 2025 Fonticons, Inc.--><path fill="currentColor" d="M116.562 11.215C130.06 0 150.107 1.786 161.322 15.284c11.214 13.497 9.427 33.544-4.07 44.759-55.874 46.545-91.8 117.703-91.8 197.892 0 105.199 85.35 190.549 190.548 190.549s190.549-85.35 190.549-190.549c0-74.532-60.44-134.972-134.972-134.972s-134.972 60.44-134.972 134.972c0 43.866 35.53 79.395 79.395 79.395 43.866 0 79.395-35.529 79.395-79.395 0-13.2-10.619-23.818-23.818-23.818a23.76 23.76 0 0 0-23.819 23.818c0 17.566-14.192 31.758-31.758 31.758s-31.758-14.192-31.758-31.758c0-48.232 39.102-87.334 87.335-87.334s87.334 39.102 87.334 87.334c0 78.9-64.012 142.912-142.911 142.912s-142.911-64.013-142.911-142.912c0-109.664 88.823-198.488 198.488-198.488 109.664 0 198.488 88.824 198.488 198.488C510.065 398.266 396.33 512 256 512S1.935 398.266 1.935 257.935c0-99.442 44.66-188.464 114.627-246.72"/></svg>