<svg xmlns="http://www.w3.org/2000/svg" viewBox="0 0 512 512"><!--! Font Awesome Free 7.0.1 by @fontawesome - https://fontawesome.com License - https://fontawesome.com/license/free (Icons: CC BY 4.0, Fonts: SIL OFL 1.1, Code: MIT License) Copyright 2025 Fonticons, Inc.--><path fill="currentColor" d="M170.667 270.222v-56.889h136.266c15.2-37.51 49.778-65.066 91.29-70.222V99.556c0-31.378-25.512-56.89-56.89-56.89H56.89C25.51 42.667 0 68.179 0 99.557V384c0 31.378 25.511 56.889 56.889 56.889h214.489c-.8-4.622-1.156-9.422-1.156-14.311V384h-99.555v-56.889h100.71c3.29-19.555 13.156-36.8 27.29-49.422v-7.467zm0-170.666h170.666v56.888H170.667zm270.222 156.533v42.578H384v-42.578c0-15.733 12.711-28.445 28.444-28.445 15.734 0 28.445 12.712 28.445 28.445m-128 85.244v85.334c0 23.555 19.111 42.666 42.667 42.666h113.777c23.556 0 42.667-19.11 42.667-42.666v-85.334c0-18.577-11.911-34.4-28.444-40.266v-44.978c0-39.289-31.823-71.111-71.112-71.111s-71.11 31.822-71.11 71.11v44.979c-16.534 5.866-28.445 21.689-28.445 40.266"/></svg>