<svg xmlns="http://www.w3.org/2000/svg" viewBox="0 0 512 512"><!--! Font Awesome Free 7.0.1 by @fontawesome - https://fontawesome.com License - https://fontawesome.com/license/free (Icons: CC BY 4.0, Fonts: SIL OFL 1.1, Code: MIT License) Copyright 2025 Fonticons, Inc.--><path fill="currentColor" d="M255.952 93.09c25.696 0 46.545-20.848 46.545-46.545S281.648 0 255.952 0s-46.546 20.848-46.546 46.545 20.849 46.546 46.546 46.546M13.042 194.91 131.83 387.878l-54.497 68.17c-4.848 6.109-7.563 13.672-7.563 21.527 0 19.006 15.418 34.424 34.424 34.424h303.418c19.006 0 34.424-15.418 34.424-34.424 0-7.855-2.618-15.418-7.563-21.528l-54.4-68.17L498.86 194.91a36.53 36.53 0 0 0 5.333-19.006v-.582c0-19.685-16-35.685-35.685-35.685-7.079 0-13.964 2.134-19.782 6.012l-16.388 10.958c-12.315 8.242-28.703 6.594-39.175-3.879l-33.067-33.066c-7.079-7.08-16.679-11.055-26.57-11.055-9.89 0-19.49 3.976-26.472 10.958l-29.188 29.188c-12.122 12.12-31.806 12.12-43.928 0l-29.187-29.188c-6.885-6.982-16.485-10.958-26.376-10.958s-19.491 3.976-26.473 10.958l-33.067 33.066c-10.472 10.473-26.86 12.122-39.175 3.88l-16.388-10.862c-5.915-3.878-12.8-6.012-19.782-6.012-19.685 0-35.685 16-35.685 35.685v.582a36.53 36.53 0 0 0 5.333 19.006z"/></svg>