<svg xmlns="http://www.w3.org/2000/svg" viewBox="0 0 512 512"><!--! Font Awesome Free 7.0.1 by @fontawesome - https://fontawesome.com License - https://fontawesome.com/license/free (Icons: CC BY 4.0, Fonts: SIL OFL 1.1, Code: MIT License) Copyright 2025 Fonticons, Inc.--><path fill="currentColor" d="m298.719 99.395 42.674 56.899H227.595V99.395zm113.797 56.899-68.278-91.038c-10.758-14.314-27.65-22.76-45.52-22.76h-99.572c-15.736 0-28.45 12.714-28.45 28.45v85.348H42.674C19.114 156.294 0 175.408 0 198.968v56.899c0 16.091 8.98 30.138 22.137 37.428a21.28 21.28 0 0 0 4.179 14.58c-3.29 6.135-6.046 12.536-8.002 19.382C8.001 328.768 0 337.659 0 348.416v14.225c0 10.757 7.912 19.648 18.314 21.159 1.956 6.757 4.712 13.247 8.002 19.381-6.224 8.357-5.601 20.27 2.044 27.827l10.047 10.046a21.18 21.18 0 0 0 27.827 1.956c6.045 3.29 12.535 6.046 19.292 8.002 1.511 10.313 10.402 18.314 21.16 18.314h14.224c10.757 0 19.648-7.913 21.16-18.314 6.756-1.956 13.246-4.712 19.291-8.002 8.357 6.224 20.27 5.601 27.827-1.956l10.047-10.046c7.645-7.646 8.268-19.47 2.044-27.827 3.29-6.045 6.046-12.535 8.002-19.292 10.313-1.512 18.314-10.402 18.314-21.16v-14.224c0-10.757-7.912-19.648-18.314-21.16-1.956-6.756-4.712-13.246-8.002-19.292 2.134-2.844 3.468-6.045 4.001-9.334H306.81c.533 3.289 1.867 6.49 4 9.334-3.289 6.135-6.045 12.536-8 19.382-10.314 1.511-18.315 10.401-18.315 21.159v14.225c0 10.757 7.912 19.647 18.314 21.159 1.956 6.757 4.712 13.247 8.002 19.38-6.224 8.358-5.601 20.271 1.955 27.828l10.047 10.046c7.556 7.646 19.47 8.268 27.827 1.956 6.045 3.29 12.535 6.046 19.292 8.001 1.511 10.313 10.402 18.315 21.16 18.315h14.224c10.757 0 19.648-7.913 21.159-18.315 6.757-1.955 13.247-4.711 19.381-8 8.357 6.222 20.27 5.6 27.827-1.957l10.046-10.046a21.18 21.18 0 0 0 1.956-27.827c3.29-6.046 6.046-12.536 8.002-19.292 10.313-1.512 18.314-10.402 18.314-21.16v-14.224c0-10.758-7.912-19.648-18.314-21.16-1.956-6.756-4.712-13.246-8.002-19.292a21.28 21.28 0 0 0 4.179-14.58C503.02 286.361 512 272.403 512 256.222v-56.899c0-23.56-19.114-42.674-42.674-42.674h-56.899zM113.798 312.765c23.56 0 42.674 19.115 42.674 42.674s-19.115 42.675-42.674 42.675-42.675-19.115-42.675-42.675 19.115-42.674 42.675-42.674m241.82 42.674c0-23.56 19.114-42.674 42.673-42.674s42.674 19.115 42.674 42.674-19.114 42.675-42.674 42.675-42.674-19.115-42.674-42.675"/></svg>