<svg xmlns="http://www.w3.org/2000/svg" viewBox="0 0 512 512"><!--! Font Awesome Free 7.0.1 by @fontawesome - https://fontawesome.com License - https://fontawesome.com/license/free (Icons: CC BY 4.0, Fonts: SIL OFL 1.1, Code: MIT License) Copyright 2025 Fonticons, Inc.--><path fill="currentColor" d="M319.967 31.962c-14.948-4.309-30.51 4.396-34.82 19.344L172.602 445.219c-4.308 14.948 4.396 30.511 19.344 34.82 14.948 4.308 30.51-4.397 34.82-19.345L339.31 66.781c4.308-14.948-4.396-30.511-19.344-34.82m56.801 119.668c-10.99 10.991-10.99 28.84 0 39.831L441.307 256l-64.539 64.539c-10.99 10.99-10.99 28.84 0 39.83 10.99 10.991 28.84 10.991 39.831 0l84.41-84.41c10.991-10.99 10.991-28.84 0-39.83l-84.41-84.41c-10.99-10.992-28.84-10.992-39.831 0zm-241.536 0c-10.99-10.99-28.84-10.99-39.831 0l-84.41 84.41C0 247.032 0 264.88 10.99 275.873l84.41 84.41c10.99 10.99 28.84 10.99 39.831 0 10.99-10.991 10.99-28.84 0-39.831L70.693 256l64.451-64.539c10.991-10.99 10.991-28.84 0-39.83z"/></svg>