<svg xmlns="http://www.w3.org/2000/svg" viewBox="0 0 512 512"><!--! Font Awesome Free 7.0.1 by @fontawesome - https://fontawesome.com License - https://fontawesome.com/license/free (Icons: CC BY 4.0, Fonts: SIL OFL 1.1, Code: MIT License) Copyright 2025 Fonticons, Inc.--><path fill="currentColor" d="M349.09 0c-17.163 0-31.03 13.867-31.03 31.03v31.03H217.213a23.217 23.217 0 0 0-23.273 23.273 23.217 23.217 0 0 0 23.273 23.273h100.849v70.012c-22.206-14.836-48.873-23.466-77.576-23.466-77.091 0-139.637 62.545-139.637 139.636s62.546 139.636 139.637 139.636c29.09 0 56.048-8.824 78.351-24.048 3.2 13.77 15.516 24.048 30.255 24.048 17.164 0 31.03-13.866 31.03-31.03V108.606h38.788a23.217 23.217 0 0 0 23.273-23.273 23.217 23.217 0 0 0-23.273-23.272h-38.788V31.03C380.121 13.866 366.255 0 349.091 0M162.91 294.788c0-42.86 34.714-77.576 77.575-77.576 42.86 0 77.576 34.715 77.576 77.576s-34.716 77.576-77.576 77.576-77.576-34.716-77.576-77.576M93.09 465.455a23.217 23.217 0 0 0-23.272 23.272A23.217 23.217 0 0 0 93.091 512h325.818a23.217 23.217 0 0 0 23.273-23.273 23.217 23.217 0 0 0-23.273-23.272z"/></svg>