<svg xmlns="http://www.w3.org/2000/svg" viewBox="0 0 512 512"><!--! Font Awesome Free 7.0.1 by @fontawesome - https://fontawesome.com License - https://fontawesome.com/license/free (Icons: CC BY 4.0, Fonts: SIL OFL 1.1, Code: MIT License) Copyright 2025 Fonticons, Inc.--><path fill="currentColor" d="M51.2 142.2C22.96 142.2 0 165.16 0 193.4v204.8c0 28.24 22.96 51.2 51.2 51.2H272c-8.4-11.68-15.2-24.56-20.08-38.4H179.2v-70.4c0-17.68 14.32-32 32-32h38.4c.8 0 1.52 0 2.32.08 21.04-59.68 78-102.48 144.88-102.48 22.88 0 44.48 4.96 64 13.92V193.4c0-28.24-22.96-51.2-51.2-51.2h-51.2L256.08 50.12c-14.64-13.12-36.8-13.12-51.36 0L102.4 142.2zm51.2 192c0 7.04-5.76 12.8-12.8 12.8H64c-7.04 0-12.8-5.76-12.8-12.8v-25.6c0-7.04 5.76-12.8 12.8-12.8h25.6c7.04 0 12.8 5.76 12.8 12.8zm-12.8-89.6H64c-7.04 0-12.8-5.76-12.8-12.8v-25.6c0-7.04 5.76-12.8 12.8-12.8h25.6c7.04 0 12.8 5.76 12.8 12.8v25.6c0 7.04-5.76 12.8-12.8 12.8m140.8-102.4c28.24 0 51.2 22.96 51.2 51.2s-22.96 51.2-51.2 51.2-51.2-22.96-51.2-51.2 22.96-51.2 51.2-51.2M512 359.8c0-63.6-51.6-115.2-115.2-115.2s-115.2 51.6-115.2 115.2S333.2 475 396.8 475 512 423.4 512 359.8m-69.28-48.72c5.68 4.16 6.96 12.16 2.8 17.84l-51.2 70.4c-2.24 3.04-5.6 4.96-9.36 5.2s-7.44-1.04-10.08-3.68l-32-32c-4.96-4.96-4.96-13.12 0-18.08s13.12-4.96 18.08 0l21.44 21.44 42.4-58.32c4.16-5.68 12.16-6.96 17.92-2.8"/></svg>