<svg xmlns="http://www.w3.org/2000/svg" viewBox="0 0 512 512"><!--! Font Awesome Free 7.0.1 by @fontawesome - https://fontawesome.com License - https://fontawesome.com/license/free (Icons: CC BY 4.0, Fonts: SIL OFL 1.1, Code: MIT License) Copyright 2025 Fonticons, Inc.--><path fill="currentColor" d="M455.911 224.006H311.939a23.94 23.94 0 0 1-23.995-23.995V56.039c0-9.698 5.799-18.496 14.797-22.196 8.998-3.699 19.296-1.6 26.195 5.2l39.992 39.992 73.386-73.386c3.599-3.6 8.498-5.599 13.597-5.599s9.998 2 13.697 5.699l36.693 36.693c3.6 3.599 5.599 8.498 5.599 13.597s-2 9.998-5.699 13.697l-73.286 73.286 39.993 39.992c6.898 6.899 8.898 17.197 5.199 26.195-3.7 8.998-12.498 14.797-22.196 14.797m0 63.988c9.698 0 18.496 5.799 22.196 14.797 3.699 8.998 1.7 19.296-5.2 26.195l-39.992 39.992 73.386 73.386c3.6 3.599 5.699 8.498 5.699 13.697s-2 9.998-5.699 13.697l-36.693 36.693c-3.699 3.5-8.598 5.499-13.697 5.499s-9.998-2-13.697-5.699l-73.286-73.286-39.992 39.993c-6.899 6.898-17.197 8.898-26.195 5.199-8.998-3.7-14.797-12.498-14.797-22.196V311.989a23.94 23.94 0 0 1 23.995-23.995zm-255.95 0a23.94 23.94 0 0 1 23.995 23.995v143.972c0 9.698-5.799 18.496-14.797 22.196-8.998 3.699-19.296 1.7-26.195-5.2l-39.992-39.992-73.386 73.386c-3.599 3.6-8.498 5.599-13.597 5.599s-9.998-2-13.697-5.699L5.699 469.658C1.999 465.96 0 461.06 0 455.961c0-5.1 2-9.998 5.699-13.697l73.286-73.286-39.993-39.992c-6.898-6.899-8.898-17.197-5.199-26.195 3.7-8.998 12.498-14.797 22.196-14.797zM55.989 224.006c-9.698 0-18.496-5.799-22.196-14.797-3.699-8.998-1.6-19.296 5.2-26.195l39.992-39.992L5.699 69.736C1.999 66.037 0 61.138 0 56.04s2-9.998 5.699-13.697L42.292 5.749C45.99 2.049 50.89.05 55.989.05c5.1 0 9.998 2 13.697 5.699l73.286 73.286 39.992-39.993c6.899-6.898 17.197-8.898 26.195-5.199 8.998 3.7 14.797 12.498 14.797 22.196v143.972a23.94 23.94 0 0 1-23.995 23.995z"/></svg>