<svg xmlns="http://www.w3.org/2000/svg" viewBox="0 0 512 512"><!--! Font Awesome Free 7.0.1 by @fontawesome - https://fontawesome.com License - https://fontawesome.com/license/free (Icons: CC BY 4.0, Fonts: SIL OFL 1.1, Code: MIT License) Copyright 2025 Fonticons, Inc.--><path fill="currentColor" d="M256 0c99.765 0 180.706 80.941 180.706 180.706v125.647c0 16-6.4 31.247-17.6 42.541L376.47 391.53l47.811 47.718c8 8 12.424 18.824 12.424 30.118 0 23.53-19.106 42.54-42.541 42.635H117.929c-23.529 0-42.54-19.106-42.54-42.635 0-11.294 4.517-22.118 12.423-30.118l47.717-47.718v-32.564c0-17.6 7.718-34.26 20.989-45.741l84.423-72.283h-45.176l-11.389 11.388c-11.952 11.953-28.235 18.73-45.176 18.73-35.294 0-63.906-28.612-63.906-63.906v-8.188c0-21.46 7.718-42.26 21.741-58.636l68.612-80.094V30.118C165.647 13.458 179.106 0 195.765 0zm-30.118 97.882a22.534 22.534 0 0 0-22.588 22.589 22.534 22.534 0 0 0 22.588 22.588 22.534 22.534 0 0 0 22.589-22.588 22.534 22.534 0 0 0-22.589-22.589"/></svg>