<svg xmlns="http://www.w3.org/2000/svg" viewBox="0 0 512 512"><!--! Font Awesome Free 7.0.1 by @fontawesome - https://fontawesome.com License - https://fontawesome.com/license/free (Icons: CC BY 4.0, Fonts: SIL OFL 1.1, Code: MIT License) Copyright 2025 Fonticons, Inc.--><path fill="currentColor" d="M228.393 43.294c13.028 0 24.992 7.18 31.196 18.612l191.435 354.51a35.48 35.48 0 0 1-.709 35.007c-6.38 10.724-17.991 17.283-30.399 17.283H37.046a35.33 35.33 0 0 1-30.399-17.283 35.48 35.48 0 0 1-.709-35.008L197.373 61.906l2.57-4.077c6.47-9.04 17.017-14.535 28.45-14.535m-76.309 221.48 23.753 23.752c5.494 5.495 14.534 5.495 20.03 0l38.375-38.375c5.318-5.318 12.496-8.331 20.03-8.331h37.932l-63.9-118.318-76.308 141.272zm289.014-79.676c-39.173 0-70.902-31.728-70.902-70.902s31.729-70.902 70.902-70.902S512 75.023 512 114.196s-31.729 70.902-70.902 70.902"/></svg>