<svg xmlns="http://www.w3.org/2000/svg" viewBox="0 0 512 512"><!--! Font Awesome Free 7.0.1 by @fontawesome - https://fontawesome.com License - https://fontawesome.com/license/free (Icons: CC BY 4.0, Fonts: SIL OFL 1.1, Code: MIT License) Copyright 2025 Fonticons, Inc.--><path fill="currentColor" d="M188.174 0c-17.007 0-33.314 6.703-45.318 18.707L18.707 142.956C6.703 154.96 0 171.166 0 188.174v135.652c0 17.007 6.703 33.314 18.707 45.318l124.249 124.149C154.96 505.297 171.266 512 188.274 512h135.653c17.006 0 33.313-6.703 45.317-18.707l124.049-124.249C505.297 357.04 512 340.734 512 323.726V188.073c0-17.006-6.703-33.313-18.707-45.317L369.144 18.707C357.14 6.703 340.834 0 323.826 0z"/></svg>