<svg xmlns="http://www.w3.org/2000/svg" viewBox="0 0 512 512"><!--! Font Awesome Free 7.0.1 by @fontawesome - https://fontawesome.com License - https://fontawesome.com/license/free (Icons: CC BY 4.0, Fonts: SIL OFL 1.1, Code: MIT License) Copyright 2025 Fonticons, Inc.--><path fill="currentColor" d="M90.353 90.353c0-33.224 27.012-60.235 60.235-60.235h301.177c33.223 0 60.235 27.011 60.235 60.235v240.941c0 33.224-27.012 60.235-60.235 60.235H150.588c-33.223 0-60.235-27.011-60.235-60.235zM22.588 120.47a22.534 22.534 0 0 1 22.588 22.588v278.588c0 8.282 6.777 15.059 15.06 15.059h338.823a22.534 22.534 0 0 1 22.588 22.588 22.534 22.534 0 0 1-22.588 22.588H60.235C27.012 481.882 0 454.871 0 421.647V143.06a22.534 22.534 0 0 1 22.588-22.588m158.118 30.117c16.659 0 30.118-13.459 30.118-30.117 0-16.66-13.46-30.118-30.118-30.118-16.659 0-30.118 13.459-30.118 30.118s13.46 30.117 30.118 30.117m184.941 10.824c-4.141-6.683-11.388-10.824-19.294-10.824s-15.153 4.141-19.294 10.824l-52.988 86.682-23.06-28.8c-4.329-5.365-10.729-8.47-17.6-8.47-6.87 0-13.364 3.105-17.6 8.47l-60.235 75.294c-5.458 6.777-6.494 16.094-2.729 23.906s11.67 12.8 20.33 12.8h256c8.188 0 15.717-4.423 19.67-11.576s3.859-15.812-.47-22.87l-82.824-135.53z"/></svg>