<svg xmlns="http://www.w3.org/2000/svg" viewBox="0 0 512 512"><!--! Font Awesome Free 7.0.1 by @fontawesome - https://fontawesome.com License - https://fontawesome.com/license/free (Icons: CC BY 4.0, Fonts: SIL OFL 1.1, Code: MIT License) Copyright 2025 Fonticons, Inc.--><path fill="currentColor" d="m4.431 168.273 46.613-93.307c8.945-17.808 27.081-29.05 47.023-29.05h250.214c19.86 0 38.078 11.242 46.941 29.05l45.628 91.173c-6.73-1.313-13.623-2.051-20.68-2.051-44.069 0-81.818 27.163-97.41 65.651h-47.024v144.434c0 21.747-17.643 39.39-39.39 39.39H78.782c-21.747 0-39.391-17.643-39.391-39.39V229.657C17.398 228.098 0 209.716 0 187.312c0-6.565 1.56-13.13 4.514-19.039zm87.4 61.466v91.913c0 7.221 5.908 13.13 13.13 13.13h105.042c7.222 0 13.13-5.909 13.13-13.13v-91.913zm354.517 39.473c0-14.525-11.735-26.26-26.26-26.26s-26.26 11.735-26.26 26.26v39.31h52.52zm-118.172 78.7c0-17.151 10.996-31.759 26.26-37.175v-41.525c0-36.272 29.38-65.651 65.652-65.651s65.651 29.379 65.651 65.651v41.525C501.003 316.153 512 330.761 512 347.912v78.782c0 21.747-17.644 39.39-39.39 39.39H367.566c-21.747 0-39.391-17.643-39.391-39.39z"/></svg>