<svg xmlns="http://www.w3.org/2000/svg" viewBox="0 0 512 512"><!--! Font Awesome Free 7.0.1 by @fontawesome - https://fontawesome.com License - https://fontawesome.com/license/free (Icons: CC BY 4.0, Fonts: SIL OFL 1.1, Code: MIT License) Copyright 2025 Fonticons, Inc.--><path fill="currentColor" d="M39.722 6.47C30.164 0 17.422 1.196 9.258 9.259S0 30.164 6.471 39.722l111.5 162.57-99.156 32.155A23.85 23.85 0 0 0 2.29 257.145a23.85 23.85 0 0 0 16.525 22.698l102.64 33.25-52.664 100.15c-4.878 9.259-3.186 20.608 4.28 27.975s18.717 9.159 27.975 4.28l100.15-52.663 33.25 102.64A23.85 23.85 0 0 0 257.146 512a23.85 23.85 0 0 0 22.698-16.526l33.25-102.639 100.15 52.664c9.259 4.878 20.608 3.185 27.975-4.281s9.159-18.716 4.28-27.974l-52.663-100.15 102.64-33.251A23.85 23.85 0 0 0 512 257.145a23.85 23.85 0 0 0-16.526-22.698L389.451 200.1l25.585-70.085a23.89 23.89 0 0 0-5.575-25.087 23.89 23.89 0 0 0-25.088-5.575l-70.085 25.585-34.346-106.024C276.657 8.96 267.498 2.29 257.145 2.29a23.85 23.85 0 0 0-22.698 16.525L202.29 117.97z"/></svg>