<svg xmlns="http://www.w3.org/2000/svg" viewBox="0 0 512 512"><!--! Font Awesome Free 7.0.1 by @fontawesome - https://fontawesome.com License - https://fontawesome.com/license/free (Icons: CC BY 4.0, Fonts: SIL OFL 1.1, Code: MIT License) Copyright 2025 Fonticons, Inc.--><path fill="currentColor" d="M417.374 77.113c26.985 40.745 31.006 92.303 11.884 136.176H281.466l36.993-36.993c.714-.715 1.34-1.43 1.965-2.145zm-137.427 56.561c-.715.625-1.43 1.251-2.145 1.966l-25.108 25.108c-22.339 22.339-58.527 22.339-80.866 0s-22.338-58.527 0-80.865l25.02-25.109C245.902 5.808 321.496 0 376.895 36.724zM152.796 341.959l71.483-71.484H386.01l-73.717 73.718v-2.234zm104.544 57.187-90.516 90.515c-22.338 22.339-58.527 22.339-80.865 0-22.339-22.338-22.339-58.527 0-80.865l9.56-9.561h161.732z"/></svg>