<svg xmlns="http://www.w3.org/2000/svg" viewBox="0 0 512 512"><!--! Font Awesome Free 7.0.1 by @fontawesome - https://fontawesome.com License - https://fontawesome.com/license/free (Icons: CC BY 4.0, Fonts: SIL OFL 1.1, Code: MIT License) Copyright 2025 Fonticons, Inc.--><path fill="currentColor" d="M73.143 0C32.8 0 0 32.8 0 73.143v365.714C0 479.2 32.8 512 73.143 512h365.714C479.2 512 512 479.2 512 438.857V73.143C512 32.8 479.2 0 438.857 0zM256 91.429a27.363 27.363 0 0 1 27.429 27.428c0 26.172 31.657 39.314 50.171 20.8 10.743-10.743 28.114-10.743 38.743 0 10.628 10.743 10.743 28.114 0 38.743-18.514 18.514-5.372 50.171 20.8 50.171A27.363 27.363 0 0 1 420.57 256a27.363 27.363 0 0 1-27.428 27.429c-26.172 0-39.314 31.657-20.8 50.171 10.743 10.743 10.743 28.114 0 38.743-10.743 10.628-28.114 10.743-38.743 0-18.514-18.514-50.171-5.372-50.171 20.8A27.363 27.363 0 0 1 256 420.57a27.363 27.363 0 0 1-27.429-27.428c0-26.172-31.657-39.314-50.171-20.8-10.743 10.743-28.114 10.743-38.743 0-10.628-10.743-10.743-28.114 0-38.743 18.514-18.514 5.372-50.171-20.8-50.171A27.363 27.363 0 0 1 91.43 256a27.363 27.363 0 0 1 27.428-27.429c26.172 0 39.314-31.657 20.8-50.171-10.743-10.743-10.743-28.114 0-38.743 10.743-10.628 28.114-10.743 38.743 0 18.514 18.514 50.171 5.372 50.171-20.8A27.363 27.363 0 0 1 256 91.43m-36.571 155.428a27.363 27.363 0 0 0 27.428-27.428A27.363 27.363 0 0 0 219.43 192 27.363 27.363 0 0 0 192 219.429a27.363 27.363 0 0 0 27.429 27.428M320 292.571a27.363 27.363 0 0 0-27.429-27.428 27.363 27.363 0 0 0-27.428 27.428A27.363 27.363 0 0 0 292.57 320 27.363 27.363 0 0 0 320 292.571"/></svg>