<svg xmlns="http://www.w3.org/2000/svg" viewBox="0 0 512 512"><!--! Font Awesome Free 7.0.1 by @fontawesome - https://fontawesome.com License - https://fontawesome.com/license/free (Icons: CC BY 4.0, Fonts: SIL OFL 1.1, Code: MIT License) Copyright 2025 Fonticons, Inc.--><path fill="currentColor" d="M51.2 132.44c0-12.64 16.4-17.6 23.44-7.12l78.96 118.4V132.36c0-12.64 16.4-17.6 23.44-7.12L256 243.64V132.28c0-12.64 16.4-17.6 23.44-7.12l78.96 118.4V132.2c0-12.64 16.4-17.6 23.44-7.12l103.6 155.68c11.36 17.04-.88 39.84-21.28 39.84H51.2zM25.6 346.2h460.8c14.16 0 25.6 11.44 25.6 25.6s-11.44 25.6-25.6 25.6H25.6C11.44 397.4 0 385.96 0 371.8s11.44-25.6 25.6-25.6"/></svg>