<svg xmlns="http://www.w3.org/2000/svg" viewBox="0 0 512 512"><!--! Font Awesome Free 7.0.1 by @fontawesome - https://fontawesome.com License - https://fontawesome.com/license/free (Icons: CC BY 4.0, Fonts: SIL OFL 1.1, Code: MIT License) Copyright 2025 Fonticons, Inc.--><path fill="currentColor" d="M283.429 329.143c33.828 0 65.257-10.172 91.428-27.657v36.8c0 55.543-45.028 100.571-100.571 100.571H155.429c-20.229 0-36.572 16.343-36.572 36.572 0 20.228 16.343 36.571 36.572 36.571h118.857C370.17 512 448 434.171 448 338.286V164.457C447.886 73.6 374.286 0 283.429 0H228.57C137.714 0 64 73.714 64 164.571c0 90.858 73.714 164.572 164.571 164.572zm91.428-164.572c0 50.515-40.914 91.429-91.428 91.429H228.57c-50.514 0-91.428-40.914-91.428-91.429s40.914-91.428 91.428-91.428h54.858c50.514 0 91.428 40.914 91.428 91.428"/></svg>