<svg xmlns="http://www.w3.org/2000/svg" viewBox="0 0 512 512"><!--! Font Awesome Free 7.0.1 by @fontawesome - https://fontawesome.com License - https://fontawesome.com/license/free (Icons: CC BY 4.0, Fonts: SIL OFL 1.1, Code: MIT License) Copyright 2025 Fonticons, Inc.--><path fill="currentColor" d="M73.143 0C32.8 0 0 32.8 0 73.143v365.714C0 479.2 32.8 512 73.143 512h365.714C479.2 512 512 479.2 512 438.857V73.143C512 32.8 479.2 0 438.857 0zm73.143 109.714c20.228 0 36.571 16.343 36.571 36.572 0 20.228-16.343 36.571-36.571 36.571-20.229 0-36.572-16.343-36.572-36.571 0-20.229 16.343-36.572 36.572-36.572M219.429 256c0-20.229 16.342-36.571 36.571-36.571S292.571 235.77 292.571 256 276.23 292.571 256 292.571 219.429 276.23 219.429 256m146.285 73.143c20.229 0 36.572 16.343 36.572 36.571 0 20.229-16.343 36.572-36.572 36.572-20.228 0-36.571-16.343-36.571-36.572 0-20.228 16.343-36.571 36.571-36.571"/></svg>