<svg xmlns="http://www.w3.org/2000/svg" viewBox="0 0 512 512"><!--! Font Awesome Free 7.0.1 by @fontawesome - https://fontawesome.com License - https://fontawesome.com/license/free (Icons: CC BY 4.0, Fonts: SIL OFL 1.1, Code: MIT License) Copyright 2025 Fonticons, Inc.--><path fill="currentColor" d="M73.143 0C32.8 0 0 32.8 0 73.143v365.714C0 479.2 32.8 512 73.143 512h365.714C479.2 512 512 479.2 512 438.857V73.143C512 32.8 479.2 0 438.857 0zm292.571 155.429V356.57A27.363 27.363 0 0 1 338.286 384a27.363 27.363 0 0 1-27.429-27.429V283.43H201.143v73.142A27.363 27.363 0 0 1 173.714 384a27.363 27.363 0 0 1-27.428-27.429V155.43A27.363 27.363 0 0 1 173.714 128a27.363 27.363 0 0 1 27.429 27.429v73.142h109.714V155.43A27.363 27.363 0 0 1 338.286 128a27.363 27.363 0 0 1 27.428 27.429"/></svg>