<svg xmlns="http://www.w3.org/2000/svg" viewBox="0 0 512 512"><!--! Font Awesome Free 7.0.1 by @fontawesome - https://fontawesome.com License - https://fontawesome.com/license/free (Icons: CC BY 4.0, Fonts: SIL OFL 1.1, Code: MIT License) Copyright 2025 Fonticons, Inc.--><path fill="currentColor" d="M173.313 112.94c23.373 0 42.336-18.963 42.336-42.336s-18.963-42.336-42.336-42.336-42.336 18.963-42.336 42.336 18.963 42.336 42.336 42.336M56.36 296.837l25.225-41.984v196.774c0 15.612 12.612 28.224 28.224 28.224s28.224-12.612 28.224-28.224V338.731h14.112v112.896c0 15.612 12.612 28.224 28.224 28.224s28.224-12.612 28.224-28.224V235.802l41.806 50.362c9.967 11.996 27.783 13.671 39.778 3.705 11.996-9.967 13.671-27.783 3.705-39.778l-65.003-78.41c-16.053-19.404-39.955-30.605-65.18-30.605h-31.664c-29.723 0-57.242 15.611-72.588 41.1l-51.42 85.555C0 281.049 4.321 298.424 17.64 306.45c13.318 8.025 30.694 3.704 38.72-9.614m370.968-56.89c0-23.372-18.963-42.335-42.336-42.335s-42.336 18.963-42.336 42.336 18.963 42.336 42.336 42.336 42.336-18.963 42.336-42.336m-14.112 91.728v51.774l-36.515-36.515c-6.438-6.439-15.523-9.35-24.52-7.938-8.995 1.411-16.669 7.144-20.726 15.259l-42.336 84.671c-6.968 13.936-1.323 30.87 12.613 37.838s30.87 1.323 37.837-12.612l24.784-49.657L412.6 462.74a58 58 0 0 0 41.1 17.023c32.106 0 58.125-26.019 58.125-58.124l.176-89.964c0-27.253-22.138-49.391-49.392-49.391s-49.392 22.138-49.392 49.391M257.984 70.604c0 7.762 6.35 14.112 14.112 14.112h49.392c7.762 0 14.112-6.35 14.112-14.112s-6.35-14.112-14.112-14.112h-49.392c-7.761 0-14.112 6.35-14.112 14.112m-.705 43.835c-6.968-3.528-15.435-.617-18.963 6.35-3.528 6.968-.617 15.436 6.35 18.964l42.336 21.168c6.968 3.528 15.435.617 18.963-6.35 3.528-6.969.618-15.436-6.35-18.964z"/></svg>