<svg xmlns="http://www.w3.org/2000/svg" viewBox="0 0 512 512"><!--! Font Awesome Free 7.0.1 by @fontawesome - https://fontawesome.com License - https://fontawesome.com/license/free (Icons: CC BY 4.0, Fonts: SIL OFL 1.1, Code: MIT License) Copyright 2025 Fonticons, Inc.--><path fill="currentColor" d="M442.756 75.975c-9.312 37.342-42.874 63.527-81.323 63.527s-72.01-26.185-81.322-63.527l-8.114-32.179c-3.872-15.766-19.916-25.356-35.774-21.39-15.86 3.964-25.356 19.915-21.391 35.774l8.021 32.178c10.142 40.57 37.066 73.393 72.195 91.834v281.863c0 16.32 13.185 29.505 29.504 29.505s29.505-13.185 29.505-29.505v-118.02h14.753v118.02c0 16.32 13.185 29.505 29.504 29.505s29.505-13.185 29.505-29.505V182.192c35.13-18.44 62.052-51.265 72.195-91.834l8.021-32.178c3.965-15.767-5.624-31.81-21.483-35.775s-31.81 5.625-35.682 21.391l-8.022 32.179zm-81.323 34.022c24.434 0 44.258-19.823 44.258-44.257s-19.824-44.257-44.258-44.257c-24.433 0-44.257 19.824-44.257 44.257 0 24.434 19.824 44.257 44.257 44.257m-295.047 0c24.433 0 44.257-19.823 44.257-44.257S90.819 21.483 66.386 21.483c-24.434 0-44.257 19.824-44.257 44.257 0 24.434 19.823 44.257 44.257 44.257m-7.376 29.505c-32.548 0-59.01 26.462-59.01 59.01v265.543c0 16.32 13.185 29.505 29.505 29.505s29.505-13.185 29.505-29.505v-118.02h14.752v118.02c0 16.32 13.185 29.505 29.505 29.505s29.504-13.185 29.504-29.505V254.479l11.987 18.901c5.44 8.483 14.844 13.738 24.894 13.738h44.258c16.32 0 29.504-13.185 29.504-29.504s-13.185-29.505-29.504-29.505h-28.03l-34.484-54.307c-13.461-21.391-36.973-34.3-62.236-34.3z"/></svg>