<svg xmlns="http://www.w3.org/2000/svg" viewBox="0 0 512 512"><!--! Font Awesome Free 7.0.1 by @fontawesome - https://fontawesome.com License - https://fontawesome.com/license/free (Icons: CC BY 4.0, Fonts: SIL OFL 1.1, Code: MIT License) Copyright 2025 Fonticons, Inc.--><path fill="currentColor" d="M406.19 22.53c-62.197 0-115.238 39.079-135.82 94.114 15.505 12.784 26.838 30.374 31.644 50.592 36.176 19.675 60.656 57.937 60.656 102.001 0 12.24-1.904 24.027-5.349 35.089 15.323 5.44 31.734 8.432 48.87 8.432 38.987 0 74.438-15.414 100.46-40.438 4.17-3.99 5.349-10.155 2.992-15.413s-7.798-8.432-13.51-7.98c-2.72.182-5.53.364-8.341.364-57.574 0-104.268-46.694-104.268-104.268 0-40.891 23.574-76.342 57.846-93.388a13.47 13.47 0 0 0 7.435-13.781c-.726-5.712-4.896-10.518-10.518-11.787-10.336-2.267-21.035-3.536-32.096-3.536M246.617 341.68c40.075 0 72.534-32.458 72.534-72.533 0-35.36-25.296-64.828-58.753-71.265.454-2.81.726-5.621.726-8.523 0-28.016-22.758-50.774-50.774-50.774-11.243 0-21.67 3.627-30.011 9.793-12.15-23.12-36.358-38.806-64.283-38.806-40.076 0-72.535 32.459-72.535 72.534 0 6.71.907 13.237 2.63 19.493C19.13 212.117 0 238.41 0 269.147c0 40.075 32.459 72.534 72.534 72.534zM62.56 386.2c-11.424-3.808-23.755 2.357-27.563 13.781l-19.403 58.118c-3.808 11.424 2.357 23.755 13.781 27.563s23.755-2.357 27.563-13.781l19.403-58.118c3.808-11.424-2.357-23.755-13.781-27.563m108.8 0c-11.423-3.808-23.754 2.357-27.562 13.781l-19.403 58.118c-3.808 11.424 2.357 23.755 13.781 27.563 11.425 3.808 23.755-2.357 27.563-13.781l19.403-58.118c3.808-11.424-2.357-23.755-13.781-27.563m108.802 0c-11.424-3.808-23.755 2.357-27.563 13.781l-19.403 58.118c-3.808 11.424 2.357 23.755 13.782 27.563 11.424 3.808 23.754-2.357 27.563-13.781l19.402-58.118c3.808-11.424-2.357-23.755-13.781-27.563"/></svg>