<svg xmlns="http://www.w3.org/2000/svg" viewBox="0 0 512 512"><!--! Font Awesome Free 7.0.1 by @fontawesome - https://fontawesome.com License - https://fontawesome.com/license/free (Icons: CC BY 4.0, Fonts: SIL OFL 1.1, Code: MIT License) Copyright 2025 Fonticons, Inc.--><path fill="currentColor" d="M220.444 106.667h71.112v42.666h-71.112zm-7.11-49.778c-23.556 0-42.667 19.111-42.667 42.667v56.888c0 23.556 19.11 42.667 42.666 42.667h14.223v28.445H28.444C12.711 227.556 0 240.266 0 256s12.711 28.444 28.444 28.444h85.334v28.445H99.556C76 312.889 56.889 332 56.889 355.556v56.888c0 23.556 19.111 42.667 42.667 42.667h85.333c23.555 0 42.667-19.111 42.667-42.667v-56.888c0-23.556-19.112-42.667-42.667-42.667h-14.222v-28.445h170.666v28.445h-14.222c-23.555 0-42.667 19.111-42.667 42.667v56.888c0 23.556 19.112 42.667 42.667 42.667h85.333c23.556 0 42.667-19.111 42.667-42.667v-56.888c0-23.556-19.111-42.667-42.667-42.667h-14.222v-28.445h85.334c15.733 0 28.444-12.71 28.444-28.444s-12.711-28.444-28.444-28.444H284.444V199.11h14.223c23.555 0 42.666-19.111 42.666-42.667V99.556c0-23.556-19.11-42.667-42.666-42.667zm184.888 305.778h7.111v42.666h-71.11v-42.666zm-227.555 0h7.11v42.666h-71.11v-42.666z"/></svg>