<svg xmlns="http://www.w3.org/2000/svg" viewBox="0 0 512 512"><!--! Font Awesome Free 7.0.1 by @fontawesome - https://fontawesome.com License - https://fontawesome.com/license/free (Icons: CC BY 4.0, Fonts: SIL OFL 1.1, Code: MIT License) Copyright 2025 Fonticons, Inc.--><path fill="currentColor" d="M256 14.222c-15.733 0-28.444 12.711-28.444 28.445v134.489c8.533-4.267 18.222-6.667 28.444-6.667s19.911 2.4 28.444 6.667V42.666c0-15.733-12.71-28.444-28.444-28.444m144.089 400.89c7.111 16.266 7.2 34.844.178 51.11 9.066 2.045 18.31 3.111 27.733 3.111 46.4 0 84-37.6 84-84v-5.51a447.46 447.46 0 0 0-92.8-272.89l-37.956-49.422c-7.2-9.422-18.4-14.844-30.222-14.844-21.066 0-38.133 17.066-38.133 38.133v124.356c1.067 1.955 1.955 4.088 2.755 6.133 23.467-10.311 51.823-5.867 71.023 13.333S410.31 272.267 400 295.644c24 9.423 40.889 32.623 40.889 59.734 0 27.11-16.889 50.4-40.8 59.644zM196.356 211.377c.8-2.134 1.777-4.178 2.755-6.134V82.134c0-21.778-17.689-39.467-39.467-39.467-11.11 0-21.688 4.71-29.155 12.889l-23.467 25.777A411.66 411.66 0 0 0 0 358.223v27.11c0 46.4 37.6 84 84 84 9.333 0 18.667-1.066 27.733-3.11-7.022-16.267-6.933-34.934.178-51.112-23.911-9.244-40.8-32.533-40.8-59.644s16.889-50.4 40.8-59.645C101.6 272.356 106.044 244 125.244 224.8s47.645-23.644 71.023-13.333zm-61.245 165.51c25.6 0 38.4 30.934 20.356 49.068-8.356 8.355-8.356 21.866 0 30.133s21.866 8.355 30.133 0c18.133-18.133 49.067-5.245 49.067 20.355A21.28 21.28 0 0 0 256 497.778a21.28 21.28 0 0 0 21.333-21.334c0-25.6 30.934-38.4 49.067-20.355 8.356 8.355 21.867 8.355 30.133 0 8.267-8.356 8.356-21.867 0-30.133-18.133-18.134-5.244-49.067 20.356-49.067a21.28 21.28 0 0 0 21.333-21.333 21.28 21.28 0 0 0-21.333-21.334c-25.6 0-38.4-30.933-20.356-49.066 8.356-8.356 8.356-21.867 0-30.134s-21.866-8.355-30.133 0c-18.133 18.134-49.067 5.245-49.067-20.355A21.28 21.28 0 0 0 256 213.333a21.28 21.28 0 0 0-21.333 21.334c0 25.6-30.934 38.4-49.067 20.355-8.356-8.355-21.867-8.355-30.133 0-8.267 8.356-8.356 21.867 0 30.134 18.133 18.133 5.244 49.066-20.356 49.066a21.28 21.28 0 0 0-21.333 21.334 21.28 21.28 0 0 0 21.333 21.333m92.445-71.11a21.28 21.28 0 0 1 21.333 21.333 21.28 21.28 0 0 1-21.333 21.333 21.28 21.28 0 0 1-21.334-21.333 21.28 21.28 0 0 1 21.334-21.333M263.11 384a21.28 21.28 0 0 1 21.333-21.333A21.28 21.28 0 0 1 305.778 384a21.28 21.28 0 0 1-21.334 21.333A21.28 21.28 0 0 1 263.111 384"/></svg>