<svg xmlns="http://www.w3.org/2000/svg" viewBox="0 0 512 512"><!--! Font Awesome Free 7.0.1 by @fontawesome - https://fontawesome.com License - https://fontawesome.com/license/free (Icons: CC BY 4.0, Fonts: SIL OFL 1.1, Code: MIT License) Copyright 2025 Fonticons, Inc.--><path fill="currentColor" d="M199.111 135.111c0-31.378 25.511-56.889 56.889-56.889s56.889 25.511 56.889 56.89C312.889 166.488 287.378 192 256 192s-56.889-25.511-56.889-56.889M156.444 320c0-55.022 44.534-99.556 99.556-99.556s99.556 44.534 99.556 99.556v7.111a21.28 21.28 0 0 1-21.334 21.333H177.778a21.28 21.28 0 0 1-21.334-21.333zm192-170.667c0-27.466 22.312-49.777 49.778-49.777 27.467 0 49.778 22.31 49.778 49.777s-22.311 49.778-49.778 49.778-49.778-22.311-49.778-49.778m24.178 89.245c8.09-2.578 16.711-3.911 25.6-3.911 47.111 0 85.334 38.222 85.334 85.333v9.511c0 10.489-8.534 18.933-18.934 18.933h-70.044c2.4-6.666 3.644-13.866 3.644-21.333V320c0-30.311-9.422-58.4-25.6-81.422m-233.244 0c-16.178 23.11-25.6 51.11-25.6 81.422v7.111c0 7.467 1.244 14.667 3.644 21.333H47.378c-10.4 0-18.934-8.533-18.934-18.933V320c0-47.111 38.223-85.333 85.334-85.333 8.889 0 17.51 1.333 25.6 3.91M64 149.333c0-27.466 22.311-49.777 49.778-49.777s49.778 22.31 49.778 49.777-22.312 49.778-49.778 49.778C86.31 199.111 64 176.8 64 149.333M0 412.444a21.28 21.28 0 0 1 21.333-21.333h469.334A21.28 21.28 0 0 1 512 412.444a21.28 21.28 0 0 1-21.333 21.334H21.333A21.28 21.28 0 0 1 0 412.444"/></svg>