<svg xmlns="http://www.w3.org/2000/svg" viewBox="0 0 512 512"><!--! Font Awesome Free 7.0.1 by @fontawesome - https://fontawesome.com License - https://fontawesome.com/license/free (Icons: CC BY 4.0, Fonts: SIL OFL 1.1, Code: MIT License) Copyright 2025 Fonticons, Inc.--><path fill="currentColor" d="M256 243.81c-67.352 0-121.905-54.553-121.905-121.905S188.648 0 256 0s121.905 54.552 121.905 121.905c0 67.352-54.553 121.905-121.905 121.905m-30.984 56.888h61.968a17.73 17.73 0 0 1 17.778 17.778c0 4.267-1.524 8.33-4.267 11.581l-27.835 32.508 31.492 116.927h.61l35.15-140.698c2.234-8.838 11.275-14.223 19.809-10.972 62.882 23.975 107.58 84.927 107.58 156.241 0 15.34-12.495 27.835-27.834 27.835L72.533 512c-15.34 0-27.835-12.495-27.835-27.835 0-71.314 44.699-132.267 107.581-156.241 8.534-3.251 17.575 2.133 19.81 10.971l35.15 140.699h.609l31.492-116.927-27.835-32.508c-2.743-3.251-4.267-7.315-4.267-11.581a17.73 17.73 0 0 1 17.778-17.778z"/></svg>