<svg xmlns="http://www.w3.org/2000/svg" viewBox="0 0 512 512"><!--! Font Awesome Free 7.0.1 by @fontawesome - https://fontawesome.com License - https://fontawesome.com/license/free (Icons: CC BY 4.0, Fonts: SIL OFL 1.1, Code: MIT License) Copyright 2025 Fonticons, Inc.--><path fill="currentColor" d="M145.76 124.88 104.64 310c11.76 13.92 29.28 22.8 48.96 22.8h204.8c19.68 0 37.2-8.88 48.96-22.8l-41.12-185.12c-4.56-20.64-22.88-35.28-44-35.28-9.76 0-19.28 3.2-27.04 9.04l-3.76 2.8c-21.04 15.76-49.92 15.76-70.88 0l-3.76-2.8c-7.84-5.84-17.28-9.04-27.04-9.04-21.12 0-39.44 14.64-44 35.28M51.2 268.8c0-14.16-11.44-25.6-25.6-25.6S0 254.64 0 268.8c0 84.8 68.8 153.6 153.6 153.6h204.8c84.8 0 153.6-68.8 153.6-153.6 0-14.16-11.44-25.6-25.6-25.6s-25.6 11.44-25.6 25.6c0 56.56-45.84 102.4-102.4 102.4H153.6c-56.56 0-102.4-45.84-102.4-102.4"/></svg>