<svg xmlns="http://www.w3.org/2000/svg" viewBox="0 0 512 512"><!--! Font Awesome Free 7.0.1 by @fontawesome - https://fontawesome.com License - https://fontawesome.com/license/free (Icons: CC BY 4.0, Fonts: SIL OFL 1.1, Code: MIT License) Copyright 2025 Fonticons, Inc.--><path fill="currentColor" d="m365.6 21.83-49.827 49.828 124.619 124.619 49.827-49.828c21.781-21.78 21.781-56.988 0-78.77l-45.85-45.848C422.59.05 387.383.05 365.602 21.83m-88.714 78.471-.497.1-143.317 42.965c-19.792 5.967-35.506 21.085-42.07 40.777L2.884 447.005C0 455.658.994 465.106 5.371 472.864l154.554-154.555c-1.094-3.978-1.59-8.056-1.59-12.332 0-26.356 21.382-47.74 47.738-47.74s47.739 21.384 47.739 47.74-21.383 47.739-47.739 47.739c-4.277 0-8.454-.597-12.333-1.592L39.186 506.58c7.757 4.376 17.106 5.37 25.858 2.486l262.863-88.118c19.593-6.564 34.81-22.278 40.777-42.07l42.965-143.316.1-.498-134.764-134.763z"/></svg>