<svg xmlns="http://www.w3.org/2000/svg" viewBox="0 0 512 512"><!--! Font Awesome Free 7.0.1 by @fontawesome - https://fontawesome.com License - https://fontawesome.com/license/free (Icons: CC BY 4.0, Fonts: SIL OFL 1.1, Code: MIT License) Copyright 2025 Fonticons, Inc.--><path fill="currentColor" d="M151.46 114.359c24.867 0 45.067-20.2 45.067-45.068s-20.2-45.067-45.068-45.067-45.067 20.2-45.067 45.067 20.2 45.068 45.067 45.068m-12.877 347.664V333.26c0-7.082 5.794-12.877 12.876-12.877s12.877 5.795 12.877 12.877v128.764c0 14.245 11.508 25.753 25.753 25.753 14.244 0 25.753-11.508 25.753-25.753V191.618h103.011c14.245 0 25.753-11.509 25.753-25.753s-11.508-25.753-25.753-25.753h-12.876v-38.63h154.517V256H305.977v-25.753H254.47v38.63c0 21.326 17.303 38.629 38.63 38.629h180.27c21.326 0 38.629-17.303 38.629-38.63V88.606c0-21.327-17.303-38.63-38.63-38.63H293.1c-21.326 0-38.63 17.303-38.63 38.63v51.506h-98.745c-36.698 0-71.223 17.383-93.033 46.838L8.45 259.943c-8.45 11.428-6.116 27.524 5.312 36.054s27.523 6.117 36.054-5.311l37.261-50.218v221.555c0 14.245 11.508 25.753 25.753 25.753s25.753-11.508 25.753-25.753"/></svg>