<svg xmlns="http://www.w3.org/2000/svg" viewBox="0 0 512 512"><!--! Font Awesome Free 7.0.1 by @fontawesome - https://fontawesome.com License - https://fontawesome.com/license/free (Icons: CC BY 4.0, Fonts: SIL OFL 1.1, Code: MIT License) Copyright 2025 Fonticons, Inc.--><path fill="currentColor" d="M21.903 63.124c14.456-5.432 30.664 1.927 36.096 16.383l96.547 257.577 74.557-255.562A27.966 27.966 0 0 1 256 61.372c12.44 0 23.392 8.235 26.897 20.15l74.557 255.562L454 79.594c5.432-14.455 21.553-21.814 36.096-16.383C504.641 68.643 512 84.764 506.568 99.22l-126.16 336.427c-4.205 11.302-15.244 18.661-27.335 18.135-12.09-.525-22.516-8.586-25.845-20.15L256 189.547l-71.228 244.172c-3.417 11.565-13.842 19.713-25.845 20.151s-23.042-6.834-27.335-18.136L5.432 99.22C0 84.764 7.359 68.556 21.902 63.124"/></svg>