<svg xmlns="http://www.w3.org/2000/svg" viewBox="0 0 512 512"><!--! Font Awesome Free 7.0.1 by @fontawesome - https://fontawesome.com License - https://fontawesome.com/license/free (Icons: CC BY 4.0, Fonts: SIL OFL 1.1, Code: MIT License) Copyright 2025 Fonticons, Inc.--><path fill="currentColor" d="M25.263 203.411 1.913 442.955C0 461.877 14.895 478.283 33.918 478.283h173.82c26.672 0 48.311-21.64 48.311-48.312V300.134a15.077 15.077 0 0 1 15.098-15.097c5.535 0 10.668 3.02 13.285 7.951l86.659 160.032c8.454 15.6 24.76 25.263 42.474 25.263h64.515c19.023 0 33.919-16.406 32.007-35.328l-23.15-239.343c-1.912-19.727-12.883-37.542-29.69-48.11L280.91 43.782c-15.802-10.065-36.033-9.964-51.835.1L54.652 155.403c-16.607 10.668-27.477 28.383-29.39 48.009"/></svg>