<svg xmlns="http://www.w3.org/2000/svg" viewBox="0 0 512 512"><!--! Font Awesome Free 7.0.1 by @fontawesome - https://fontawesome.com License - https://fontawesome.com/license/free (Icons: CC BY 4.0, Fonts: SIL OFL 1.1, Code: MIT License) Copyright 2025 Fonticons, Inc.--><path fill="currentColor" d="M455.337 128.51c0-39.134-31.695-70.83-70.828-70.83-15.936 0-30.633 5.313-42.497 14.166h-71.714C291.193 29.881 334.487 1.018 384.51 1.018 454.895 1.018 512 58.123 512 128.51S454.895 256 384.51 256c-5.756 0-11.51-.354-17.088-1.151l56.662-66.136c.974-1.15 1.948-2.39 2.922-3.63 17.176-12.926 28.331-33.466 28.331-56.662zM4.604 130.81c4.692-10.004 14.697-16.468 25.764-16.468h339.975c11.067 0 21.072 6.464 25.764 16.468s3.01 21.868-4.25 30.28l-163.17 190.35V454.32h56.662c15.671 0 28.332 12.66 28.332 28.332 0 15.67-12.66 28.33-28.332 28.33H115.362c-15.671 0-28.332-12.66-28.332-28.33 0-15.671 12.66-28.332 28.332-28.332h56.662V351.441L8.854 161.091a28.43 28.43 0 0 1-4.25-30.28m87.384 40.195 108.368 126.429 108.367-126.429z"/></svg>