<svg xmlns="http://www.w3.org/2000/svg" viewBox="0 0 512 512"><!--! Font Awesome Free 7.0.1 by @fontawesome - https://fontawesome.com License - https://fontawesome.com/license/free (Icons: CC BY 4.0, Fonts: SIL OFL 1.1, Code: MIT License) Copyright 2025 Fonticons, Inc.--><path fill="currentColor" d="M27.321 4.658C42.657 0 59.243 5.908 68.104 19.312L256 301.042l187.896-281.73C452.757 6.021 469.343 0 484.68 4.658a36.3 36.3 0 0 1 25.787 34.762v436.228c0 20.107-16.245 36.352-36.352 36.352s-36.352-16.245-36.352-36.352V159.496L286.218 386.812c-6.703 10.11-18.063 16.131-30.218 16.131s-23.515-6.02-30.218-16.131L74.238 159.496v316.152c0 20.107-16.245 36.352-36.352 36.352S1.534 495.755 1.534 475.648V39.42A36.3 36.3 0 0 1 27.32 4.658"/></svg>