<svg xmlns="http://www.w3.org/2000/svg" viewBox="0 0 512 512"><!--! Font Awesome Free 7.0.1 by @fontawesome - https://fontawesome.com License - https://fontawesome.com/license/free (Icons: CC BY 4.0, Fonts: SIL OFL 1.1, Code: MIT License) Copyright 2025 Fonticons, Inc.--><path fill="currentColor" d="M159.135 55.351c0-26.724 21.708-48.432 48.433-48.432C234.292 6.919 256 28.627 256 55.35V165.45l67.46 61.837c-59.936 25.082-102.055 84.238-102.055 153.255 0 42.637 16.087 81.556 42.465 110.962l-56.302-14.098-93.492 23.352c-8.735 2.162-17.211-4.411-17.211-13.406v-17.124c0-4.238 1.903-8.216 5.19-10.81l57.08-45.666v-86.227L18.25 374.486C9.254 377.427 0 370.768 0 361.341v-37.795c0-7.784 3.286-15.135 8.995-20.41l150.14-137.687zM387.46 256C456.216 256 512 311.784 512 380.54c0 68.757-55.784 124.541-124.54 124.541-68.757 0-124.541-55.784-124.541-124.54 0-68.757 55.784-124.541 124.54-124.541m51.287 92.8c5.362-5.362 5.362-14.184 0-19.546s-14.184-5.362-19.546 0l-31.74 31.74-31.741-31.74c-5.362-5.362-14.184-5.362-19.546 0s-5.362 14.184 0 19.546l31.74 31.74-31.74 31.741c-5.362 5.362-5.362 14.184 0 19.546s14.184 5.362 19.546 0l31.74-31.74 31.741 31.74c5.362 5.362 14.184 5.362 19.546 0s5.362-14.184 0-19.546l-31.74-31.74z"/></svg>