<svg xmlns="http://www.w3.org/2000/svg" viewBox="0 0 512 512"><!--! Font Awesome Free 7.0.1 by @fontawesome - https://fontawesome.com License - https://fontawesome.com/license/free (Icons: CC BY 4.0, Fonts: SIL OFL 1.1, Code: MIT License) Copyright 2025 Fonticons, Inc.--><path fill="currentColor" d="M482.662 75.158c19.03-6.344 29.225-26.846 22.881-45.877C499.2 10.251 478.697.057 459.667 6.4L24.694 151.391C9.968 156.261 0 170.081 0 185.713s9.968 29.452 24.807 34.436l434.974 144.99c19.03 6.344 39.532-3.964 45.876-22.88 6.343-18.917-3.965-39.533-22.882-45.877L150.881 185.713zM36.248 439.448C16.198 439.448 0 455.646 0 475.696s16.198 36.247 36.248 36.247H471.22c20.05 0 36.248-16.198 36.248-36.247 0-20.05-16.198-36.248-36.248-36.248z"/></svg>