<svg xmlns="http://www.w3.org/2000/svg" viewBox="0 0 512 512"><!--! Font Awesome Free 7.0.1 by @fontawesome - https://fontawesome.com License - https://fontawesome.com/license/free (Icons: CC BY 4.0, Fonts: SIL OFL 1.1, Code: MIT License) Copyright 2025 Fonticons, Inc.--><path fill="currentColor" d="M246.225 57.858a65.97 65.97 0 0 0-53.454-27.3c-36.459 0-65.96 29.501-65.96 65.96v2.113c0 56.713 72.212 117.476 107.613 143.807 11.449 8.542 26.86 8.542 38.308 0 35.401-26.419 107.613-87.094 107.613-143.807v-2.114c0-36.458-29.5-65.959-65.959-65.959a65.97 65.97 0 0 0-53.454 27.3l-7.31 10.303zM96.253 331.294l-37.515 37.427H28.18c-15.587 0-28.18 12.593-28.18 28.18v56.36c0 15.588 12.593 28.181 28.18 28.181h282.243c25.538 0 50.46-8.19 71.067-23.337l111.488-82.163c15.676-11.536 19.022-33.552 7.486-49.227-11.537-15.675-33.552-19.022-49.228-7.486l-105.5 77.672h-99.159a21.084 21.084 0 0 1-21.135-21.135 21.084 21.084 0 0 1 21.135-21.135h63.406c15.587 0 28.18-12.593 28.18-28.18s-12.593-28.18-28.18-28.18H175.95c-29.853 0-58.562 11.888-79.697 33.023"/></svg>