<svg xmlns="http://www.w3.org/2000/svg" viewBox="0 0 512 512"><!--! Font Awesome Free 7.0.1 by @fontawesome - https://fontawesome.com License - https://fontawesome.com/license/free (Icons: CC BY 4.0, Fonts: SIL OFL 1.1, Code: MIT License) Copyright 2025 Fonticons, Inc.--><path fill="currentColor" d="M82.58 165.161c18.272 0 33.033 14.762 33.033 33.033v264.258c0 18.27-14.761 33.032-33.032 33.032H33.032C14.762 495.484 0 480.723 0 462.452V198.194c0-18.271 14.761-33.033 33.032-33.033zM279.33 16.516c28.18 0 50.994 22.813 50.994 50.994v4.335a55.9 55.9 0 0 1-3.923 20.542l-29.11 72.774h165.162c27.354 0 49.548 22.194 49.548 49.549 0 20.335-12.284 37.78-29.832 45.419 17.548 7.639 29.832 25.084 29.832 45.42 0 24.154-17.342 44.283-40.258 48.619 4.542 7.535 7.226 16.31 7.226 25.703 0 22.916-15.484 42.116-36.542 47.794a49.2 49.2 0 0 1 3.51 18.27c0 27.355-22.194 49.549-49.549 49.549h-90.735c-37.471 0-73.91-12.8-103.123-36.232l-12.594-10.013c-15.69-12.49-24.774-31.484-24.774-51.613v-192.62c0-15.38 3.613-30.554 10.426-44.283L233.6 44.697a51.17 51.17 0 0 1 45.729-28.18"/></svg>