<svg xmlns="http://www.w3.org/2000/svg" viewBox="0 0 512 512"><!--! Font Awesome Free 7.0.1 by @fontawesome - https://fontawesome.com License - https://fontawesome.com/license/free (Icons: CC BY 4.0, Fonts: SIL OFL 1.1, Code: MIT License) Copyright 2025 Fonticons, Inc.--><path fill="currentColor" d="M159.938 143.994c-35.287 0-63.975-28.689-63.975-63.975s28.688-63.975 63.975-63.975c15.693 0 29.988 5.598 41.183 14.994C212.317 12.445 232.71.05 255.9.05s43.583 12.395 54.779 30.988c11.095-9.396 25.49-14.994 41.184-14.994 35.286 0 63.975 28.689 63.975 63.975s-28.69 63.975-63.975 63.975c-14.695 0-28.29-4.998-39.085-13.295L280.79 178.68c-5.597 8.297-14.894 13.295-24.89 13.295s-19.292-4.998-24.89-13.295L199.022 130.7c-10.796 8.297-24.39 13.295-39.084 13.295m-15.994 207.919 48.38-24.191c10.197-5.098 21.592-7.797 32.988-7.797 19.592 0 38.385 7.797 52.18 21.592l32.487 32.487c6.297 6.297 14.894 9.896 23.79 9.896 11.296 0 21.792-5.598 27.99-14.994l9.696-14.594-58.977-66.275c-9.097-10.196-22.191-16.093-35.886-16.093h-41.784c-13.694 0-26.79 5.897-35.886 16.093l-59.876 67.374 4.698-3.498zm19.392-95.763c18.193-20.492 44.283-32.187 71.772-32.187h41.784c27.39 0 53.479 11.695 71.772 32.187l150.141 168.934C507.302 434.58 512 446.975 512 459.77c0 28.79-23.39 52.18-52.18 52.18l-407.64-.1C23.39 511.85 0 488.46 0 459.67c0-12.695 4.698-25.09 13.195-34.586z"/></svg>