<svg xmlns="http://www.w3.org/2000/svg" viewBox="0 0 512 512"><!--! Font Awesome Free 7.0.1 by @fontawesome - https://fontawesome.com License - https://fontawesome.com/license/free (Icons: CC BY 4.0, Fonts: SIL OFL 1.1, Code: MIT License) Copyright 2025 Fonticons, Inc.--><path fill="currentColor" d="M99.556 28.444c-23.556 0-42.667 19.112-42.667 42.667v142.222H128V184.89c0-47.111 38.222-85.333 85.333-85.333h184.89V71.11c0-23.555-19.112-42.667-42.667-42.667zm113.777 113.778c-23.555 0-42.666 19.111-42.666 42.667v28.444h71.11c47.112 0 85.334 38.223 85.334 85.334v99.555h142.222c23.556 0 42.667-19.11 42.667-42.666V184.889c0-23.556-19.111-42.667-42.667-42.667zm177.778 56.89h42.667a21.28 21.28 0 0 1 21.333 21.332v42.667a21.28 21.28 0 0 1-21.333 21.333H391.11a21.28 21.28 0 0 1-21.333-21.333v-42.667a21.28 21.28 0 0 1 21.333-21.333M42.667 256C19.11 256 0 275.111 0 298.667v9.244l139.2 76.622c.978.534 1.956.8 3.022.8 1.067 0 2.134-.266 3.022-.8l139.2-76.622v-9.244c0-23.556-19.11-42.667-42.666-42.667zm241.777 100.622-118.577 65.245c-7.2 4-15.378 6.044-23.645 6.044s-16.355-2.133-23.644-6.044L0 356.622v84.267c0 23.555 19.111 42.667 42.667 42.667h199.11c23.556 0 42.667-19.112 42.667-42.667z"/></svg>