<svg xmlns="http://www.w3.org/2000/svg" viewBox="0 0 512 512"><!--! Font Awesome Free 7.0.1 by @fontawesome - https://fontawesome.com License - https://fontawesome.com/license/free (Icons: CC BY 4.0, Fonts: SIL OFL 1.1, Code: MIT License) Copyright 2025 Fonticons, Inc.--><path fill="currentColor" d="M58.588 116.855c0-24.26 19.681-43.941 43.94-43.941 24.26 0 43.94 19.682 43.94 43.94v102.529h-87.88zm-58.588 0v263.643c0 56.666 45.863 102.529 102.528 102.529s102.528-45.863 102.528-102.529v-96.852l106.465 155.165c32.498 47.328 96.395 58.863 142.807 25.724S512 366.126 479.502 318.798L361.87 147.338c-32.497-47.327-96.394-58.862-142.807-25.723a105 105 0 0 0-14.006 11.992v-16.752c0-56.665-45.863-102.529-102.528-102.529S0 60.19 0 116.855m242.223 117.358c-14.647-21.33-9.155-50.624 10.893-64.996 19.408-13.823 46.23-9.429 60.419 11.168l61.334 89.346-73.143 51.173-59.503-86.783z"/></svg>