<svg xmlns="http://www.w3.org/2000/svg" viewBox="0 0 512 512"><!--! Font Awesome Free 7.0.1 by @fontawesome - https://fontawesome.com License - https://fontawesome.com/license/free (Icons: CC BY 4.0, Fonts: SIL OFL 1.1, Code: MIT License) Copyright 2025 Fonticons, Inc.--><path fill="currentColor" d="m5.176 185.506 53.46-107.012c10.258-20.423 31.058-33.318 53.929-33.318h286.964c22.777 0 43.671 12.895 53.836 33.318l53.459 107.012c3.388 6.776 5.176 14.212 5.176 21.835 0 25.694-19.953 46.777-45.176 48.565v180.8c0 16.659-13.46 30.118-30.118 30.118-16.659 0-30.118-13.46-30.118-30.118V256h-90.353v165.647c0 24.941-20.235 45.177-45.176 45.177H90.353c-24.941 0-45.177-20.236-45.177-45.177V255.906C19.953 254.118 0 233.036 0 207.34c0-7.53 1.788-15.059 5.176-21.835M105.412 256v105.412c0 8.282 6.776 15.059 15.059 15.059h120.47c8.283 0 15.059-6.777 15.059-15.06V256z"/></svg>