<svg xmlns="http://www.w3.org/2000/svg" viewBox="0 0 512 512"><!--! Font Awesome Free 7.0.1 by @fontawesome - https://fontawesome.com License - https://fontawesome.com/license/free (Icons: CC BY 4.0, Fonts: SIL OFL 1.1, Code: MIT License) Copyright 2025 Fonticons, Inc.--><path fill="currentColor" d="M413.466 206.708c0 45.615-14.808 87.752-39.752 121.938l125.814 125.913c12.422 12.422 12.422 32.596 0 45.019-12.422 12.422-32.596 12.422-45.019 0L328.696 373.665c-34.187 24.944-76.323 39.751-121.938 39.751C92.57 413.416.05 320.894.05 206.708S92.57 0 206.758 0s206.708 92.522 206.708 206.708M286.26 174.907c0-43.926-35.578-79.503-79.503-79.503-43.926 0-79.503 35.577-79.503 79.503 0 48.497 46.21 110.907 68.174 137.739 5.962 7.255 16.695 7.255 22.559 0 21.962-26.832 68.173-89.242 68.173-137.74zm-111.304 0c0-17.59 14.21-31.801 31.8-31.801s31.802 14.21 31.802 31.8-14.211 31.802-31.801 31.802-31.801-14.211-31.801-31.801"/></svg>