<svg xmlns="http://www.w3.org/2000/svg" viewBox="0 0 512 512"><!--! Font Awesome Free 7.0.1 by @fontawesome - https://fontawesome.com License - https://fontawesome.com/license/free (Icons: CC BY 4.0, Fonts: SIL OFL 1.1, Code: MIT License) Copyright 2025 Fonticons, Inc.--><path fill="currentColor" d="M60.235 75.294C27.012 75.294 0 102.306 0 135.53v240.942c0 33.223 27.012 60.235 60.235 60.235h240.941c33.224 0 60.236-27.012 60.236-60.235V135.529c0-33.223-27.012-60.235-60.236-60.235zm346.353 256 69.177 55.341c3.953 3.2 8.847 4.894 13.93 4.894 12.329 0 22.305-9.976 22.305-22.305V142.776c0-12.329-9.976-22.305-22.306-22.305-5.082 0-9.976 1.694-13.93 4.894l-69.176 55.34z"/></svg>