<svg xmlns="http://www.w3.org/2000/svg" viewBox="0 0 512 512"><!--! Font Awesome Free 7.0.1 by @fontawesome - https://fontawesome.com License - https://fontawesome.com/license/free (Icons: CC BY 4.0, Fonts: SIL OFL 1.1, Code: MIT License) Copyright 2025 Fonticons, Inc.--><path fill="currentColor" d="M340.472 12.472C328.05.05 307.876.05 295.453 12.472c-12.422 12.422-12.422 32.596 0 45.019l9.342 9.242-276.87 276.87C10.037 361.49 0 385.738 0 411.08v5.466c0 52.67 42.733 95.403 95.404 95.403h5.466c25.341 0 49.59-10.037 67.478-27.925l276.87-276.87 9.341 9.342c12.422 12.422 32.596 12.422 45.019 0 12.422-12.422 12.422-32.596 0-45.019L340.57 12.472zM204.025 257.54l145.789-145.788 50.385 50.385-95.404 95.403h-100.87z"/></svg>