<svg xmlns="http://www.w3.org/2000/svg" viewBox="0 0 512 512"><!--! Font Awesome Free 7.0.1 by @fontawesome - https://fontawesome.com License - https://fontawesome.com/license/free (Icons: CC BY 4.0, Fonts: SIL OFL 1.1, Code: MIT License) Copyright 2025 Fonticons, Inc.--><path fill="currentColor" d="M58.713 6.468C26.33 6.468 0 32.797 0 65.18v352.281c0 32.384 26.33 58.714 58.713 58.714h134.124l10-49.999c3.945-19.907 13.76-38.163 28.072-52.475l121.28-121.28v-89.446c0-15.596-6.146-30.55-17.155-41.558L237.33 23.623c-11.009-11.009-25.962-17.155-41.466-17.155zm239.9 161.462h-85.777a21.965 21.965 0 0 1-22.017-22.018V60.135zM246.046 434.8l-10.917 54.678a12.5 12.5 0 0 0-.275 2.66c0 7.34 5.963 13.394 13.394 13.394a13 13 0 0 0 2.66-.275l54.677-10.917c11.376-2.293 21.834-7.89 30-16.054l109.078-109.079-73.392-73.392-109.079 109.079c-8.164 8.165-13.76 18.623-16.054 29.999zm245.68-112.84c20.274-20.274 20.274-53.116 0-73.39s-53.118-20.275-73.392 0l-26.421 26.42 73.391 73.392z"/></svg>