<svg xmlns="http://www.w3.org/2000/svg" viewBox="0 0 512 512"><!--! Font Awesome Free 7.0.1 by @fontawesome - https://fontawesome.com License - https://fontawesome.com/license/free (Icons: CC BY 4.0, Fonts: SIL OFL 1.1, Code: MIT License) Copyright 2025 Fonticons, Inc.--><path fill="currentColor" d="m2.076 137.319 25.722 145.937C40.433 355.006 96.66 411.234 168.41 423.87l11.462 1.985a214.8 214.8 0 0 1-27.617-85.288l-21.75 3.881c-8.755 1.534-16.968-5.235-15.253-13.989 4.332-22.292 17.238-42.058 35.83-54.964v-67.328c-1.264.722-2.708 1.174-4.242 1.444l-56.859 10.018c-7.852 1.354-15.613-3.97-14.35-11.823 2.798-17.689 16.607-32.49 35.289-35.83 15.523-2.707 30.595 3.16 40.252 14.26v-20.487c0-20.307 6.228-47.292 29.152-66.245 23.465-19.404 61.1-39.62 112.724-48.917-27.526-14.71-77.887-28.88-147.832-16.606C72.743 46.796 29.693 79.196 9.747 102.662 1.625 112.138 0 125.134 2.166 137.409zM194.313 156v157.76c0 72.834 45.577 137.996 114.078 162.815l25 9.116a58.05 58.05 0 0 0 39.44 0l25.09-9.026C466.423 451.756 512 386.685 512 313.761v-157.76c0-6.228-1.895-12.455-6.318-16.787-20.397-20.307-70.577-50.541-152.526-50.541s-132.129 30.324-152.526 50.54c-4.422 4.423-6.317 10.56-6.317 16.788m59.656 168.861c-1.263-6.317 6.318-9.927 11.462-5.956 24.278 18.592 54.693 29.693 87.725 29.693 33.033 0 63.357-11.101 87.725-29.693 5.145-3.971 12.726-.361 11.462 5.956-9.115 46.39-50.09 81.498-99.187 81.498s-90.071-35.018-99.187-81.498m.452-91.606c5.956-16.967 22.021-29.15 40.974-29.15s35.108 12.183 40.974 29.15c2.618 7.582-4.06 14.17-12.093 14.17h-57.762c-7.942 0-14.71-6.679-12.093-14.17m185.377 14.17h-57.761c-7.942 0-14.711-6.679-12.094-14.17 5.867-16.967 22.022-29.15 40.975-29.15s35.108 12.183 40.974 29.15c2.617 7.582-4.061 14.17-12.094 14.17"/></svg>