<svg xmlns="http://www.w3.org/2000/svg" viewBox="0 0 512 512"><!--! Font Awesome Free 7.0.1 by @fontawesome - https://fontawesome.com License - https://fontawesome.com/license/free (Icons: CC BY 4.0, Fonts: SIL OFL 1.1, Code: MIT License) Copyright 2025 Fonticons, Inc.--><path fill="currentColor" d="M256 51.2c56.56 0 102.4 45.84 102.4 102.4S312.56 256 256 256s-102.4-45.84-102.4-102.4S199.44 51.2 256 51.2M32 102.4c17.68 0 32 14.32 32 32v128.16c0 13.6 5.36 26.64 14.96 36.24l40.88 40.88c6.64 6.64 17.04 7.68 24.8 2.48 10.32-6.88 11.76-21.52 2.96-30.24l-37.76-37.76c-10-10-10-26.24 0-36.24s26.24-10 36.24 0l37.76 37.76 20.24 20.24a89.62 89.62 0 0 1 26.24 63.36v63.12c0 21.2-17.2 38.4-38.4 38.4h-53.36c-13.6 0-26.64-5.36-36.24-14.96l-79.84-79.92A76.77 76.77 0 0 1 0 311.6V134.4c0-17.68 14.32-32 32-32m448 0c17.68 0 32 14.32 32 32v177.2c0 20.4-8.08 39.92-22.48 54.32l-79.92 79.92c-9.6 9.6-22.64 14.96-36.24 14.96H320c-21.2 0-38.4-17.2-38.4-38.4v-63.12c0-23.76 9.44-46.56 26.24-63.36l20.24-20.24 37.76-37.76c10-10 26.24-10 36.24 0s10 26.24 0 36.24l-37.76 37.76c-8.8 8.8-7.36 23.36 2.96 30.24 7.76 5.2 18.16 4.16 24.8-2.48l40.88-40.88c9.6-9.6 14.96-22.64 14.96-36.24L448 134.4c0-17.68 14.32-32 32-32"/></svg>