<svg xmlns="http://www.w3.org/2000/svg" viewBox="0 0 512 512"><!--! Font Awesome Free 7.0.1 by @fontawesome - https://fontawesome.com License - https://fontawesome.com/license/free (Icons: CC BY 4.0, Fonts: SIL OFL 1.1, Code: MIT License) Copyright 2025 Fonticons, Inc.--><path fill="currentColor" d="M384 51.2c70.72 0 128 57.28 128 128v179.2c0 28.24-22.96 51.2-51.2 51.2h-4.48c-10.56 29.84-38.88 51.2-72.32 51.2s-61.84-21.36-72.32-51.2H200.4c-10.56 29.84-38.96 51.2-72.32 51.2s-61.76-21.36-72.32-51.2H51.2C22.96 409.6 0 386.64 0 358.4V128c0-42.4 34.4-76.8 76.8-76.8zM128 345.6c-21.2 0-38.4 17.2-38.4 38.4s17.2 38.4 38.4 38.4 38.4-17.2 38.4-38.4-17.2-38.4-38.4-38.4m256 0c-21.2 0-38.4 17.2-38.4 38.4s17.2 38.4 38.4 38.4 38.4-17.2 38.4-38.4-17.2-38.4-38.4-38.4m0-243.2c-14.16 0-25.6 11.44-25.6 25.6v153.6c0 14.16 11.44 25.6 25.6 25.6h51.2c14.16 0 25.6-11.44 25.6-25.6V179.2c0-42.4-34.4-76.8-76.8-76.8m-185.6 128h83.2c14.16 0 25.6-11.44 25.6-25.6V128c0-14.16-11.44-25.6-25.6-25.6h-83.2zm-121.6-128c-14.16 0-25.6 11.44-25.6 25.6v76.8c0 14.16 11.44 25.6 25.6 25.6H160v-128z"/></svg>