<svg xmlns="http://www.w3.org/2000/svg" viewBox="0 0 512 512"><!--! Font Awesome Free 7.0.1 by @fontawesome - https://fontawesome.com License - https://fontawesome.com/license/free (Icons: CC BY 4.0, Fonts: SIL OFL 1.1, Code: MIT License) Copyright 2025 Fonticons, Inc.--><path fill="currentColor" d="M36.571 0C16.343 0 0 16.343 0 36.571V475.43C0 495.657 16.343 512 36.571 512c20.229 0 36.572-16.343 36.572-36.571V36.57C73.143 16.343 56.8 0 36.57 0m100.572 0a27.363 27.363 0 0 0-27.429 27.429V484.57A27.363 27.363 0 0 0 137.143 512a27.363 27.363 0 0 0 27.428-27.429V27.43A27.363 27.363 0 0 0 137.143 0m82.286 36.571V475.43C219.429 495.657 235.77 512 256 512s36.571-16.343 36.571-36.571V36.57C292.571 16.343 276.23 0 256 0s-36.571 16.343-36.571 36.571m237.714-9.142V484.57A27.363 27.363 0 0 0 484.57 512 27.363 27.363 0 0 0 512 484.571V27.43A27.363 27.363 0 0 0 484.571 0a27.363 27.363 0 0 0-27.428 27.429m-109.714 0V484.57A27.363 27.363 0 0 0 374.857 512a27.363 27.363 0 0 0 27.429-27.429V27.43A27.363 27.363 0 0 0 374.857 0a27.363 27.363 0 0 0-27.428 27.429"/></svg>