<svg xmlns="http://www.w3.org/2000/svg" viewBox="0 0 512 512"><!--! Font Awesome Free 7.0.1 by @fontawesome - https://fontawesome.com License - https://fontawesome.com/license/free (Icons: CC BY 4.0, Fonts: SIL OFL 1.1, Code: MIT License) Copyright 2025 Fonticons, Inc.--><path fill="currentColor" d="M113.778 0c15.733 0 28.444 12.711 28.444 28.444v85.334H256V28.444C256 12.711 268.711 0 284.444 0c15.734 0 28.445 12.711 28.445 28.444v85.334h56.889c15.733 0 28.444 12.71 28.444 28.444s-12.71 28.445-28.444 28.445v43.289c-87.645 7.2-156.445 80.622-156.445 170.044 0 24.267 5.067 47.378 14.223 68.356v2.755c0 15.733-12.712 28.445-28.445 28.445s-28.444-12.712-28.444-28.445v-59.289C89.956 382.312 28.444 312.09 28.444 227.556v-56.89C12.711 170.667 0 157.957 0 142.223s12.711-28.444 28.444-28.444h56.89V28.444C85.333 12.711 98.043 0 113.777 0M256 384c0-70.667 57.333-128 128-128s128 57.333 128 128-57.333 128-128 128-128-57.333-128-128m157.689-68.444c-5.156-3.734-12.267-3.556-17.245.444l-71.11 56.889c-4.712 3.733-6.578 10.133-4.534 15.822s7.378 9.511 13.422 9.511h29.245l-14.134 37.69c-2.222 5.955-.177 12.71 4.978 16.532 5.156 3.823 12.267 3.556 17.245-.444l71.11-56.889c4.712-3.733 6.578-10.133 4.534-15.822s-7.378-9.511-13.422-9.511h-29.245l14.134-37.69c2.222-5.955.177-12.71-4.978-16.532"/></svg>