<svg xmlns="http://www.w3.org/2000/svg" viewBox="0 0 512 512"><!--! Font Awesome Free 7.0.1 by @fontawesome - https://fontawesome.com License - https://fontawesome.com/license/free (Icons: CC BY 4.0, Fonts: SIL OFL 1.1, Code: MIT License) Copyright 2025 Fonticons, Inc.--><path fill="currentColor" d="M96 0C78.3 0 64 14.3 64 32s14.3 32 32 32v11c0 42.4 16.9 83.1 46.9 113.1l67.9 67.9-67.9 67.9c-30 30-46.9 70.7-46.9 113.1v11c-17.7 0-32 14.3-32 32s14.3 32 32 32h320c17.7 0 32-14.3 32-32s-14.3-32-32-32v-11c0-42.4-16.9-83.1-46.9-113.1L301.2 256l67.9-67.9c30-30 46.9-70.7 46.9-113.1V64c17.7 0 32-14.3 32-32S433.7 0 416 0zm64 75V64h192v11c0 19-5.6 37.4-16 53H176c-10.3-15.6-16-34-16-53m16 309c3.5-5.3 7.6-10.3 12.1-14.9l67.9-67.9 67.9 67.9c4.6 4.6 8.6 9.6 12.2 14.9z"/></svg>