<svg xmlns="http://www.w3.org/2000/svg" viewBox="0 0 512 512"><!--! Font Awesome Free 7.0.1 by @fontawesome - https://fontawesome.com License - https://fontawesome.com/license/free (Icons: CC BY 4.0, Fonts: SIL OFL 1.1, Code: MIT License) Copyright 2025 Fonticons, Inc.--><path fill="currentColor" d="M329.143 146.286h109.714V73.143H329.143zM0 146.286V54.857C0 24.571 24.571 0 54.857 0h402.286C487.429 0 512 24.571 512 54.857v109.714c0 30.286-24.571 54.858-54.857 54.858H54.857C24.571 219.429 0 194.857 0 164.57zm182.857 292.571h256v-73.143h-256zM0 438.857V347.43c0-30.286 24.571-54.858 54.857-54.858h402.286c30.286 0 54.857 24.572 54.857 54.858v109.714C512 487.429 487.429 512 457.143 512H54.857C24.571 512 0 487.429 0 457.143z"/></svg>