<svg xmlns="http://www.w3.org/2000/svg" viewBox="0 0 512 512"><!--! Font Awesome Free 7.0.1 by @fontawesome - https://fontawesome.com License - https://fontawesome.com/license/free (Icons: CC BY 4.0, Fonts: SIL OFL 1.1, Code: MIT License) Copyright 2025 Fonticons, Inc.--><path fill="currentColor" d="M281.6 76.8c0-14.16-11.44-25.6-25.6-25.6s-25.6 11.44-25.6 25.6V128h-76.8c-42.4 0-76.8 34.4-76.8 76.8V384c0 42.4 34.4 76.8 76.8 76.8h204.8c42.4 0 76.8-34.4 76.8-76.8V204.8c0-42.4-34.4-76.8-76.8-76.8h-76.8zM128 371.2c0-10.64 8.56-19.2 19.2-19.2h25.6c10.64 0 19.2 8.56 19.2 19.2s-8.56 19.2-19.2 19.2h-25.6c-10.64 0-19.2-8.56-19.2-19.2m96 0c0-10.64 8.56-19.2 19.2-19.2h25.6c10.64 0 19.2 8.56 19.2 19.2s-8.56 19.2-19.2 19.2h-25.6c-10.64 0-19.2-8.56-19.2-19.2m96 0c0-10.64 8.56-19.2 19.2-19.2h25.6c10.64 0 19.2 8.56 19.2 19.2s-8.56 19.2-19.2 19.2h-25.6c-10.64 0-19.2-8.56-19.2-19.2M179.2 217.6c21.2 0 38.4 17.2 38.4 38.4s-17.2 38.4-38.4 38.4-38.4-17.2-38.4-38.4 17.2-38.4 38.4-38.4M294.4 256c0-21.2 17.2-38.4 38.4-38.4s38.4 17.2 38.4 38.4-17.2 38.4-38.4 38.4-38.4-17.2-38.4-38.4m-243.2 0c0-14.16-11.44-25.6-25.6-25.6S0 241.84 0 256v76.8c0 14.16 11.44 25.6 25.6 25.6s25.6-11.44 25.6-25.6zm435.2-25.6c-14.16 0-25.6 11.44-25.6 25.6v76.8c0 14.16 11.44 25.6 25.6 25.6s25.6-11.44 25.6-25.6V256c0-14.16-11.44-25.6-25.6-25.6"/></svg>