<svg xmlns="http://www.w3.org/2000/svg" viewBox="0 0 512 512"><!--! Font Awesome Free 7.0.1 by @fontawesome - https://fontawesome.com License - https://fontawesome.com/license/free (Icons: CC BY 4.0, Fonts: SIL OFL 1.1, Code: MIT License) Copyright 2025 Fonticons, Inc.--><path fill="currentColor" d="M237.5 10.845c14.49-5.012 30.53-4.192 44.474 2.46L439.09 88.949l5.742 3.19c12.941 8.202 22.328 21.235 25.791 36.363l38.824 169.968 1.094 6.562c1.458 13.032-1.55 26.247-8.567 37.457l-3.828 5.377-108.724 136.339c-11.028 13.852-27.888 21.963-45.568 21.963H169.512a58.25 58.25 0 0 1-45.568-21.963L15.22 347.956C4.192 334.103 0 315.876 4.01 298.56l38.824-169.968 1.822-6.38c5.104-14.49 15.676-26.428 29.71-33.172l157.119-75.643 6.106-2.46z"/></svg>