<svg xmlns="http://www.w3.org/2000/svg" viewBox="0 0 512 512"><!--! Font Awesome Free 7.0.1 by @fontawesome - https://fontawesome.com License - https://fontawesome.com/license/free (Icons: CC BY 4.0, Fonts: SIL OFL 1.1, Code: MIT License) Copyright 2025 Fonticons, Inc.--><path fill="currentColor" d="M200.824 0h110.449c13.382 0 25.212 8.533 29.479 21.236l8.339 25.31h93.09c17.164 0 31.031 13.866 31.031 31.03 0 17.163-13.867 31.03-31.03 31.03H69.818c-17.163 0-31.03-13.867-31.03-31.03 0-17.164 13.867-31.03 31.03-31.03h93.091l8.436-25.31C175.612 8.533 187.442 0 200.825 0M69.818 155.152h372.364l-20.46 313.309C420.17 492.994 399.805 512 375.271 512H136.728c-24.533 0-44.897-19.006-46.448-43.54zm202.667 76.606c-9.115-9.116-23.855-9.116-32.873 0l-69.818 69.818c-9.115 9.115-9.115 23.854 0 32.872s23.854 9.116 32.873 0l30.06-30.06v99.006A23.217 23.217 0 0 0 256 426.667a23.217 23.217 0 0 0 23.273-23.273v-99.006l30.06 30.06c9.115 9.116 23.855 9.116 32.873 0s9.115-23.854 0-32.872l-69.818-69.818z"/></svg>