<svg xmlns="http://www.w3.org/2000/svg" viewBox="0 0 512 512"><!--! Font Awesome Free 7.0.1 by @fontawesome - https://fontawesome.com License - https://fontawesome.com/license/free (Icons: CC BY 4.0, Fonts: SIL OFL 1.1, Code: MIT License) Copyright 2025 Fonticons, Inc.--><path fill="currentColor" d="M157.945 179.228c-3.12 0-5.761-2.24-6.481-5.28-8.162-33.686-38.486-58.73-74.652-58.73C34.405 115.218 0 149.623 0 192.03c0 23.284 10.322 44.087 26.644 58.17 3.44 2.96 3.44 8.64 0 11.6C10.322 275.884 0 296.767 0 319.97c0 42.407 34.405 76.812 76.812 76.812 36.166 0 66.49-25.044 74.652-58.73.72-3.04 3.36-5.28 6.48-5.28h196.111c3.12 0 5.761 2.24 6.481 5.28 8.162 33.686 38.486 58.73 74.652 58.73 42.407 0 76.812-34.405 76.812-76.812 0-23.284-10.322-44.087-26.644-58.17-3.44-2.96-3.44-8.64 0-11.6C501.678 236.116 512 215.233 512 192.03c0-42.407-34.405-76.812-76.812-76.812-36.166 0-66.49 25.044-74.652 58.73-.72 3.04-3.36 5.28-6.48 5.28z"/></svg>