<svg xmlns="http://www.w3.org/2000/svg" viewBox="0 0 512 512"><!--! Font Awesome Free 7.0.1 by @fontawesome - https://fontawesome.com License - https://fontawesome.com/license/free (Icons: CC BY 4.0, Fonts: SIL OFL 1.1, Code: MIT License) Copyright 2025 Fonticons, Inc.--><path fill="currentColor" d="M0 256c0-35.314 28.686-64 64-64s64 28.686 64 64-28.686 64-64 64-64-28.686-64-64m192 0c0-35.314 28.686-64 64-64s64 28.686 64 64-28.686 64-64 64-64-28.686-64-64m256-64c35.314 0 64 28.686 64 64s-28.686 64-64 64-64-28.686-64-64 28.686-64 64-64"/></svg>