<svg xmlns="http://www.w3.org/2000/svg" viewBox="0 0 512 512"><!--! Font Awesome Free 7.0.1 by @fontawesome - https://fontawesome.com License - https://fontawesome.com/license/free (Icons: CC BY 4.0, Fonts: SIL OFL 1.1, Code: MIT License) Copyright 2025 Fonticons, Inc.--><path fill="currentColor" d="M329.558 121.42c2.849-6.838 9.458-11.282 16.865-11.282h45.582v-27.35a27.284 27.284 0 0 0-27.349-27.349H252.98a74 74 0 0 1 2.28 18.233v72.931c0 40.226-32.706 72.931-72.932 72.931H72.931C32.705 219.534 0 186.83 0 146.604V73.671C0 33.446 32.705.74 72.931.74h291.725c45.354 0 82.048 36.693 82.048 82.047v27.35h45.582c7.407 0 14.016 4.444 16.865 11.281s1.254 14.7-3.988 19.828l-72.932 72.931c-7.065 7.066-18.688 7.066-25.753 0l-72.932-72.93c-5.242-5.243-6.723-13.106-3.988-19.829m108.03 243.977H72.93v72.931h364.656zm72.93 72.931c0 40.226-32.705 72.931-72.93 72.931H72.93C32.705 511.26 0 478.554 0 438.33v-72.932c0-40.226 32.705-72.931 72.931-72.931h364.656c40.226 0 72.932 32.705 72.932 72.93z"/></svg>