<svg xmlns="http://www.w3.org/2000/svg" viewBox="0 0 512 512"><!--! Font Awesome Free 7.0.1 by @fontawesome - https://fontawesome.com License - https://fontawesome.com/license/free (Icons: CC BY 4.0, Fonts: SIL OFL 1.1, Code: MIT License) Copyright 2025 Fonticons, Inc.--><path fill="currentColor" d="M256 512c-102.788 0-186.182-83.394-186.182-186.182 0-88.436 126.255-265.794 161.552-313.697C237.09 4.364 246.11 0 255.806 0h.388c9.697 0 18.715 4.364 24.436 12.121 35.297 47.903 161.552 225.26 161.552 313.697C442.182 428.606 358.788 512 256 512m-77.576-193.94a23.217 23.217 0 0 0-23.272-23.272 23.217 23.217 0 0 0-23.273 23.273c0 72.824 59.054 131.878 131.879 131.878a23.217 23.217 0 0 0 23.272-23.272 23.217 23.217 0 0 0-23.272-23.273c-47.128 0-85.334-38.206-85.334-85.333"/></svg>