<svg xmlns="http://www.w3.org/2000/svg" viewBox="0 0 512 512"><!--! Font Awesome Free 7.0.1 by @fontawesome - https://fontawesome.com License - https://fontawesome.com/license/free (Icons: CC BY 4.0, Fonts: SIL OFL 1.1, Code: MIT License) Copyright 2025 Fonticons, Inc.--><path fill="currentColor" d="M24.774 82.58V12.904C24.774 5.781 30.554 0 37.677 0c2.375 0 4.646.62 6.71 1.858l40.258 24.155c25.703 15.38 55.02 23.535 84.955 23.535h172.8c29.935 0 59.355-8.154 84.955-23.535l40.258-24.155C469.574.62 471.948 0 474.219 0c7.123 0 12.904 5.78 12.904 12.903l.103 69.678c0 36.438-29.626 66.064-66.065 66.064v66.065h16.516c18.271 0 33.033 14.761 33.033 33.032s-14.762 33.032-33.033 33.032h-16.516v198.194c0 18.27-14.761 33.032-33.032 33.032s-33.032-14.761-33.032-33.032V280.774H156.903v198.194c0 18.27-14.761 33.032-33.032 33.032s-33.032-14.761-33.032-33.032V280.774H74.323c-18.271 0-33.033-14.761-33.033-33.032s14.762-33.032 33.033-33.032h16.516v-66.065c-36.439 0-66.065-29.626-66.065-66.064m132.13 132.13h66.064v-66.065h-66.065zm132.128 0h66.065v-66.065h-66.065z"/></svg>