<svg xmlns="http://www.w3.org/2000/svg" viewBox="0 0 512 512"><!--! Font Awesome Free 7.0.1 by @fontawesome - https://fontawesome.com License - https://fontawesome.com/license/free (Icons: CC BY 4.0, Fonts: SIL OFL 1.1, Code: MIT License) Copyright 2025 Fonticons, Inc.--><path fill="currentColor" d="M159.135 55.351c0-26.724 21.708-48.432 48.433-48.432C234.292 6.919 256 28.627 256 55.35V165.45l71.005 65.037c-14.183 18.682-22.573 41.86-22.573 67.028v21.102c-6.313 5.708-11.762 12.281-16.173 19.633L256 327.524v86.227l20.757 16.606v33.124a83.7 83.7 0 0 0 6.746 32.951l-75.935-19.027-93.492 23.352c-8.735 2.162-17.211-4.411-17.211-13.406v-17.124c0-4.238 1.903-8.216 5.19-10.81l57.08-45.666v-86.227L18.25 374.486C9.254 377.427 0 370.768 0 361.341v-37.795c0-7.784 3.286-15.135 8.995-20.41l150.14-137.687zM442.811 297.6c0-15.308-12.368-27.676-27.676-27.676S387.46 282.292 387.46 297.6v41.427h55.352zm-124.54 82.94c0-18.075 11.588-33.47 27.675-39.178V297.6c0-38.227 30.962-69.19 69.19-69.19 38.226 0 69.188 30.963 69.188 69.19v43.762C500.411 347.07 512 362.465 512 380.541v83.027c0 22.918-18.595 41.513-41.514 41.513H359.784c-22.92 0-41.514-18.595-41.514-41.513z"/></svg>