<svg xmlns="http://www.w3.org/2000/svg" viewBox="0 0 512 512"><!--! Font Awesome Free 7.0.1 by @fontawesome - https://fontawesome.com License - https://fontawesome.com/license/free (Icons: CC BY 4.0, Fonts: SIL OFL 1.1, Code: MIT License) Copyright 2025 Fonticons, Inc.--><path fill="currentColor" d="M460.86 238.714c8.79 9.974 23.921 12.172 35.333 4.649 12.426-8.284 15.807-25.106 7.523-37.532l-40.575-60.862a27.04 27.04 0 0 0-9.382-8.622L284.275 42.181c-16.314-9.045-36.179-9.045-52.577 0l-169.4 94.082c-4.564 2.536-8.199 6.255-10.65 10.82l-40.997 75.992C0 242.855 7.439 267.454 27.219 278.105l27.895 14.962v45.054c0 19.442 10.482 37.447 27.388 47.084l148.773 84.276a54.05 54.05 0 0 0 53.339 0l148.773-84.276c16.99-9.637 27.388-27.557 27.388-47.084v-99.323zm-202.874-8.284-126.88-70.499 126.88-70.498 126.88 70.498zm-35.08 42.434-18.005 39.053-140.15-75.063 21.47-39.898z"/></svg>