<svg xmlns="http://www.w3.org/2000/svg" viewBox="0 0 512 512"><!--! Font Awesome Free 7.0.1 by @fontawesome - https://fontawesome.com License - https://fontawesome.com/license/free (Icons: CC BY 4.0, Fonts: SIL OFL 1.1, Code: MIT License) Copyright 2025 Fonticons, Inc.--><path fill="currentColor" d="M260.83 10.868c-93.453 18.9-158.031 66.573-199.508 130.1-24.466 37.381-40.006 79.068-49.037 121.28l238.885 238.78c93.453-18.902 158.031-66.574 199.613-130.101 24.466-37.381 40.006-79.068 49.037-121.28zM508.64 187.38c3.36-44.417.735-87.469-5.04-124.64-4.62-29.191-28.141-50.402-55.758-54.182-45.151-6.195-86.313-7.875-123.694-5.67L508.64 187.275zM187.957 509.112 3.36 324.62C0 369.037 2.625 412.09 8.4 449.26c4.62 29.191 28.141 50.402 55.758 54.182 45.151 6.195 86.313 7.875 123.694 5.67zm83.794-371.82c9.87-9.87 25.83-9.87 35.596 0l67.203 67.203c9.87 9.87 9.87 25.831 0 35.597-9.87 9.765-25.831 9.87-35.597 0l-67.202-67.203c-9.87-9.87-9.87-25.83 0-35.596m-67.203 67.203c9.87-9.87 25.831-9.87 35.596 0l67.203 67.203c9.87 9.87 9.87 25.831 0 35.597-9.87 9.765-25.831 9.87-35.596 0l-67.203-67.203c-9.87-9.87-9.87-25.831 0-35.597m-67.203 67.203c9.87-9.87 25.831-9.87 35.597 0l67.202 67.203c9.87 9.87 9.87 25.83 0 35.596s-25.83 9.87-35.596 0l-67.203-67.202c-9.87-9.87-9.87-25.832 0-35.597"/></svg>