<svg xmlns="http://www.w3.org/2000/svg" viewBox="0 0 512 512"><!--! Font Awesome Free 7.0.1 by @fontawesome - https://fontawesome.com License - https://fontawesome.com/license/free (Icons: CC BY 4.0, Fonts: SIL OFL 1.1, Code: MIT License) Copyright 2025 Fonticons, Inc.--><path fill="currentColor" d="M229.876 26.768c0-7.635-6.991-13.338-14.258-11.13-56.02 17.293-96.679 69.726-96.679 131.633 0 23.089 5.611 44.798 15.638 63.931-19.317 1.656-38.634 7.543-56.572 17.938C24.745 260.047 0 321.31 12.786 378.619c1.748 7.727 10.487 11.038 17.386 6.99 4.6-2.667 6.99-7.91 6.53-13.245-.275-3.036-.367-6.072-.367-9.291 0-113.604 169.624-113.604 169.624 0 0 81.317-86.928 104.497-136.325 69.358-4.14-2.943-9.658-3.587-14.074-1.012-6.439 3.772-7.91 12.51-2.483 17.57 42.866 40.29 108.544 49.58 161.989 18.581 16.465-9.566 30.172-21.985 40.934-36.243a135.5 135.5 0 0 0 40.934 36.243c53.445 31 119.123 21.71 161.99-18.581 5.427-5.06 3.955-13.89-2.484-17.57-4.416-2.575-9.935-1.931-14.074 1.012-49.397 35.14-136.325 11.959-136.325-69.358 0-113.604 169.624-113.604 169.624 0 0 3.128-.092 6.255-.368 9.29-.46 5.336 1.932 10.58 6.531 13.247 6.807 3.955 15.638.736 17.386-6.991 12.786-57.216-11.959-118.572-65.219-149.48-17.938-10.394-37.163-16.28-56.572-17.937 10.027-19.133 15.638-40.842 15.638-63.93 0-61.908-40.659-114.34-96.679-131.634-7.267-2.208-14.258 3.495-14.258 11.13 0 5.427 3.68 10.119 8.74 12.143 76.716 30.907 65.126 164.104-34.772 164.104S144.42 69.818 221.137 38.911c5.06-2.024 8.739-6.716 8.739-12.143m-10.67 253.333c0-20.33 16.465-36.795 36.794-36.795 20.33 0 36.795 16.465 36.795 36.795 0 20.329-16.466 36.794-36.795 36.794s-36.795-16.465-36.795-36.794m171.647 27.32c-14.902 0-28.884 5.06-38.727 13.798-9.29 8.37-16.65 21.525-16.65 41.946 0 19.41 6.624 32.195 15.179 40.566 29.62-22.629 51.053-55.652 58.78-93.643-5.796-1.747-12.143-2.76-18.582-2.76zm-214.33 55.744c0-20.513-7.359-33.667-16.65-41.946-9.842-8.83-23.824-13.798-38.726-13.798-6.44 0-12.786.92-18.581 2.76 7.726 37.99 29.067 71.013 58.78 93.642 8.646-8.37 15.177-21.249 15.177-40.658m37.899-206.327c8.279 9.383 21.34 16.742 41.578 16.742 20.237 0 33.3-7.36 41.578-16.742 6.163-6.991 10.579-16.098 12.51-26.124-16.833-6.256-35.139-9.659-54.088-9.659-18.95 0-37.255 3.403-54.088 9.659 2.023 10.026 6.347 19.133 12.51 26.216z"/></svg>