<svg xmlns="http://www.w3.org/2000/svg" viewBox="0 0 512 512"><!--! Font Awesome Free 7.0.1 by @fontawesome - https://fontawesome.com License - https://fontawesome.com/license/free (Icons: CC BY 4.0, Fonts: SIL OFL 1.1, Code: MIT License) Copyright 2025 Fonticons, Inc.--><path fill="currentColor" d="M18.9 56c0-30.9 25.1-56 56-56h381.6c21.3 0 36.6 20.3 30.8 40.8L476 80H362.9c-13.3 0-24 10.7-24 24s10.7 24 24 24h99.4L444 192h-81.1c-13.3 0-24 10.7-24 24s10.7 24 24 24h67.4l-27.4 96h-256l-9.1-96H74.9c-30.9 0-56-25.1-56-56zm114.3 136L119.5 48H74.9c-4.4 0-8 3.6-8 8v128c0 4.4 3.6 8 8 8zm21.7 192h240c22.1 0 40 17.9 40 40v48c0 22.1-17.9 40-40 40h-240c-22.1 0-40-17.9-40-40v-48c0-22.1 17.9-40 40-40m120 88c13.3 0 24-10.7 24-24s-10.7-24-24-24-24 10.7-24 24 10.7 24 24 24"/></svg>