<svg xmlns="http://www.w3.org/2000/svg" viewBox="0 0 512 512"><!--! Font Awesome Free 7.0.1 by @fontawesome - https://fontawesome.com License - https://fontawesome.com/license/free (Icons: CC BY 4.0, Fonts: SIL OFL 1.1, Code: MIT License) Copyright 2025 Fonticons, Inc.--><path fill="currentColor" d="M12.444 12.444C24.79.1 44.741.1 57.086 12.444L129.58 84.84V66.37c0-17.481 14.124-31.605 31.605-31.605S192.79 48.89 192.79 66.37v94.815c0 17.482-14.123 31.605-31.605 31.605H66.37c-17.481 0-31.605-14.123-31.605-31.605S48.89 129.58 66.37 129.58h18.47L12.346 57.086C.099 44.741.099 24.79 12.444 12.444M200.691 256c0-30.519 24.79-55.309 55.309-55.309s55.309 24.79 55.309 55.309-24.79 55.309-55.309 55.309-55.309-24.79-55.309-55.309M499.556 57.086 427.16 129.58h18.47c17.481 0 31.605 14.124 31.605 31.605S463.11 192.79 445.63 192.79h-94.815c-17.482 0-31.605-14.123-31.605-31.605V66.37c0-17.481 14.123-31.605 31.605-31.605S382.42 48.89 382.42 66.37v18.47l72.494-72.494C467.259 0 487.309 0 499.654 12.346 512 24.69 512 44.74 499.654 57.086zm-44.741 442.47L382.42 427.16v18.47c0 17.481-14.124 31.605-31.605 31.605S319.21 463.11 319.21 445.63v-94.815c0-17.482 14.123-31.605 31.605-31.605h94.815c17.481 0 31.605 14.123 31.605 31.605S463.11 382.42 445.63 382.42h-18.47l72.494 72.494c12.346 12.345 12.346 32.395 0 44.74-12.345 12.346-32.395 12.346-44.74 0zm-442.37-44.642L84.84 382.42H66.37c-17.481 0-31.605-14.124-31.605-31.605S48.89 319.21 66.37 319.21h94.815c17.482 0 31.605 14.123 31.605 31.605v94.815c0 17.481-14.123 31.605-31.605 31.605S129.58 463.11 129.58 445.63v-18.47l-72.494 72.494c-12.345 12.346-32.395 12.346-44.74 0C0 487.31 0 467.26 12.346 454.914z"/></svg>