<svg xmlns="http://www.w3.org/2000/svg" viewBox="0 0 512 512"><!--! Font Awesome Free 7.0.1 by @fontawesome - https://fontawesome.com License - https://fontawesome.com/license/free (Icons: CC BY 4.0, Fonts: SIL OFL 1.1, Code: MIT License) Copyright 2025 Fonticons, Inc.--><path fill="currentColor" d="M227.556 85.333H56.889C25.51 85.333 0 110.844 0 142.223v227.555c0 31.378 25.511 56.889 56.889 56.889h170.667zm42.666 341.334h184.89c31.377 0 56.888-25.511 56.888-56.89V142.223c0-31.378-25.511-56.889-56.889-56.889H270.222zm-213.333-256c0-15.734 12.711-28.445 28.444-28.445h56.89c15.733 0 28.444 12.711 28.444 28.445v170.666c0 15.734-12.711 28.445-28.445 28.445H85.333c-15.733 0-28.444-12.711-28.444-28.445z"/></svg>