<svg xmlns="http://www.w3.org/2000/svg" viewBox="0 0 512 512"><!--! Font Awesome Free 7.0.1 by @fontawesome - https://fontawesome.com License - https://fontawesome.com/license/free (Icons: CC BY 4.0, Fonts: SIL OFL 1.1, Code: MIT License) Copyright 2025 Fonticons, Inc.--><path fill="currentColor" d="M176.552 31.298c44.338 0 80.25 35.912 80.25 80.25v16.05c0 8.828-7.222 16.05-16.05 16.05-44.338 0-80.25-35.911-80.25-80.25v-16.05c0-8.828 7.222-16.05 16.05-16.05m-120.376 32.1h48.15a24.017 24.017 0 0 1 24.075 24.075 24.017 24.017 0 0 1-24.075 24.076h-48.15A24.017 24.017 0 0 1 32.1 87.473a24.017 24.017 0 0 1 24.076-24.075m-32.1 72.226h112.35a24.017 24.017 0 0 1 24.076 24.075 24.017 24.017 0 0 1-24.076 24.075H24.076A24.017 24.017 0 0 1 0 159.7a24.017 24.017 0 0 1 24.075-24.075m8.024 96.3a24.017 24.017 0 0 1 24.076-24.074h48.15a24.017 24.017 0 0 1 24.075 24.075A24.017 24.017 0 0 1 104.326 256h-48.15A24.017 24.017 0 0 1 32.1 231.925M272.853 47.349c0-8.828 7.222-16.05 16.05-16.05 44.338 0 80.25 35.912 80.25 80.25v16.05c0 8.828-7.222 16.05-16.05 16.05-44.338 0-80.25-35.911-80.25-80.25zm128.4-16.05c44.34 0 80.252 35.912 80.252 80.25v16.05c0 8.828-7.223 16.05-16.05 16.05-44.339 0-80.251-35.911-80.251-80.25v-16.05c0-8.828 7.222-16.05 16.05-16.05m80.252 160.501v16.05c0 44.34-35.913 80.251-80.251 80.251-8.828 0-16.05-7.222-16.05-16.05V256c0-44.339 35.912-80.25 80.25-80.25 8.828 0 16.05 7.222 16.05 16.05m-128.402-16.05c8.828 0 16.05 7.223 16.05 16.05v16.05c0 44.34-35.912 80.251-80.25 80.251-8.828 0-16.05-7.222-16.05-16.05V256c0-44.339 35.912-80.25 80.25-80.25m-96.3 16.05v16.05c0 44.34-35.913 80.251-80.251 80.251-8.828 0-16.05-7.222-16.05-16.05V256c0-44.339 35.912-80.25 80.25-80.25 8.828 0 16.05 7.222 16.05 16.05M3.51 347.887c-1.906-14.746 9.53-27.686 24.376-27.686h457.83c14.847 0 26.283 12.94 24.477 27.686-6.32 50.358-44.539 89.68-92.89 98.709v2.006c0 17.755-14.345 32.1-32.1 32.1H128.4c-17.755 0-32.1-14.345-32.1-32.1v-2.006c-48.351-9.029-86.57-48.351-92.79-98.709"/></svg>