<svg xmlns="http://www.w3.org/2000/svg" viewBox="0 0 512 512"><!--! Font Awesome Free 7.0.1 by @fontawesome - https://fontawesome.com License - https://fontawesome.com/license/free (Icons: CC BY 4.0, Fonts: SIL OFL 1.1, Code: MIT License) Copyright 2025 Fonticons, Inc.--><path fill="currentColor" d="M413.466 206.708c0 45.615-14.808 87.752-39.752 121.938l125.814 125.913c12.422 12.422 12.422 32.596 0 45.019-12.422 12.422-32.596 12.422-45.019 0L328.696 373.665c-34.187 24.944-76.323 39.751-121.938 39.751C92.57 413.416.05 320.894.05 206.708S92.57 0 206.758 0s206.708 92.522 206.708 206.708M210.733 95.404c-10.932 0-19.876 8.944-19.876 19.876v3.975c-28.621.298-51.677 23.552-51.677 52.174 0 25.54 18.385 47.304 43.627 51.478l41.441 6.956c5.963.994 10.336 6.162 10.336 12.224 0 6.857-5.565 12.422-12.423 12.422l-55.155-.1c-10.931 0-19.876 8.945-19.876 19.877s8.945 19.875 19.876 19.875h23.851v3.976c0 10.931 8.944 19.875 19.876 19.875s19.876-8.944 19.876-19.875v-4.671c24.844-4.075 43.726-25.54 43.726-51.478 0-25.54-18.385-47.305-43.627-51.479l-41.44-6.956c-5.964-.994-10.336-6.162-10.336-12.224 0-6.857 5.565-12.422 12.422-12.422h47.205c10.932 0 19.876-8.944 19.876-19.876s-8.944-19.876-19.876-19.876h-7.95v-3.975c0-10.932-8.944-19.876-19.876-19.876z"/></svg>