<svg xmlns="http://www.w3.org/2000/svg" viewBox="0 0 512 512"><!--! Font Awesome Free 7.0.1 by @fontawesome - https://fontawesome.com License - https://fontawesome.com/license/free (Icons: CC BY 4.0, Fonts: SIL OFL 1.1, Code: MIT License) Copyright 2025 Fonticons, Inc.--><path fill="currentColor" d="M344.22 27.955C351.763 9.77 371.69 0 390.746 5.224l5.32 1.45c62.489 17.025 115.885 77.58 100.31 151.289-35.887 169.28-169.086 302.48-338.366 338.366C84.205 512 23.748 458.507 6.723 396.02l-1.451-5.32c-5.224-19.056 4.546-38.983 22.732-46.528l94.12-39.176c15.96-6.675 34.436-2.032 45.463 11.414l37.339 45.657c68.002-33.76 122.655-90.25 154.093-159.51l-42.659-34.92c-13.445-10.93-17.992-29.407-11.414-45.464z"/></svg>