<svg xmlns="http://www.w3.org/2000/svg" viewBox="0 0 512 512"><!--! Font Awesome Free 7.0.1 by @fontawesome - https://fontawesome.com License - https://fontawesome.com/license/free (Icons: CC BY 4.0, Fonts: SIL OFL 1.1, Code: MIT License) Copyright 2025 Fonticons, Inc.--><path fill="currentColor" d="M352.031.05c-17.696 0-31.994 14.297-31.994 31.994s14.298 31.993 31.994 31.993h50.69l-58.688 58.689-17.397-17.397c-12.497-12.497-32.793-12.497-45.291 0s-12.498 32.794 0 45.292l17.397 17.396-22.996 22.996c-28.394-19.496-62.688-30.994-99.78-30.994C78.785 160.019 0 238.803 0 335.984S78.785 511.95 175.966 511.95c97.18 0 175.965-78.785 175.965-175.966 0-36.992-11.398-71.386-30.994-99.78l22.996-22.996 17.396 17.397c12.498 12.498 32.794 12.498 45.292 0 12.497-12.498 12.497-32.794 0-45.291l-17.297-17.297 58.688-58.688v50.69c0 17.696 14.298 31.993 31.994 31.993 17.697 0 31.994-14.297 31.994-31.993V32.044C512 14.347 497.703.05 480.006.05zM64.087 335.984c0-61.888 50.09-111.978 111.979-111.978s111.978 50.09 111.978 111.978-50.09 111.979-111.978 111.979-111.979-50.09-111.979-111.979"/></svg>