<svg xmlns="http://www.w3.org/2000/svg" viewBox="0 0 512 512"><!--! Font Awesome Free 7.0.1 by @fontawesome - https://fontawesome.com License - https://fontawesome.com/license/free (Icons: CC BY 4.0, Fonts: SIL OFL 1.1, Code: MIT License) Copyright 2025 Fonticons, Inc.--><path fill="currentColor" d="M458.114 307.865a20.16 20.16 0 0 1 20.207 20.207v13.472h13.472A20.16 20.16 0 0 1 512 361.75a20.16 20.16 0 0 1-20.207 20.207H478.32v40.415h13.472A20.16 20.16 0 0 1 512 442.58a20.16 20.16 0 0 1-20.207 20.207H478.32v13.472l-.084 2.104c-1.094 10.188-9.682 18.103-20.123 18.103-10.44 0-19.028-7.915-20.123-18.103l-.084-2.104v-13.472h-40.414v13.472l-.085 2.104c-1.094 10.188-9.682 18.103-20.123 18.103-10.44 0-19.028-7.915-20.123-18.103l-.084-2.104v-13.472h-13.471a20.16 20.16 0 0 1-20.208-20.207 20.16 20.16 0 0 1 20.208-20.207h13.471v-40.415h-13.471a20.16 20.16 0 0 1-20.208-20.207 20.16 20.16 0 0 1 20.208-20.207h13.471v-13.472a20.16 20.16 0 0 1 20.207-20.207 20.16 20.16 0 0 1 20.208 20.207v13.472h40.414v-13.472a20.16 20.16 0 0 1 20.207-20.207M335.103 25.217c6.483-7.915 17.934-9.683 26.438-3.62 8.503 5.977 11.03 17.597 6.23 26.69l-1.094 1.768-21.807 32.752 11.198 44.961a20.92 20.92 0 0 1-4.463 18.776l-2.02 2.021-37.636 32.247 109.876 12.209c36.037 4.041 63.232 34.436 63.232 70.64 0 3.285-.337 6.484-.758 9.684-6.146-2.947-12.882-4.884-20.039-5.642l-6.146-.252c-15.576 0-29.721 5.894-40.414 15.492-9.262-8.336-21.134-13.893-34.184-15.24l-6.23-.252c-25.512 0-47.235 15.745-56.244 38.057-10.525 4.21-19.534 11.282-26.185 20.207l-25.428-33.763v62.895c0 14.903-12.04 26.943-26.943 26.943-13.976 0-25.427-10.609-26.774-24.165l-.169-2.778v-62.81l-27.195 36.204v33.51c0 2.947-.59 5.81-1.768 8.504l-1.347 2.61-33.679 53.886-1.179 1.684c-6.314 8.083-17.681 10.188-26.353 4.462-8.673-5.725-11.535-17.26-6.989-26.522l1.01-1.852 30.48-48.834v-34.52l.253-3.369a20.65 20.65 0 0 1 3.873-9.177l33.089-43.95L130 314.768c-14.314 12.882-32.837 19.955-52.118 20.04h-6.82C31.826 334.808 0 302.981 0 263.745c0-36.204 27.28-66.684 63.232-70.64l109.876-12.21-37.636-32.247-2.02-2.02c-4.378-5.052-6.147-12.125-4.463-18.776l11.198-44.961-21.806-32.753-1.01-1.768c-4.8-9.093-2.274-20.712 6.23-26.69s19.954-4.294 26.437 3.62l1.263 1.684 26.943 40.414 1.18 1.853c2.357 4.462 2.946 9.767 1.767 14.818l-10.356 41.425 44.877 38.478v-24.249l.168-2.694c.926-8.756 6.062-16.334 13.303-20.544V65.547l.253-2.694c1.263-6.147 6.736-10.693 13.219-10.777 6.483 0 11.956 4.63 13.219 10.777l.252 2.694v50.94c7.325 4.209 12.461 11.787 13.303 20.543l.169 2.694v24.333l44.96-38.478-10.355-41.424c-1.263-4.968-.59-10.272 1.768-14.819l1.178-1.852 26.943-40.415 1.263-1.684zm62.39 397.156h40.414v-40.415h-40.414z"/></svg>