<svg xmlns="http://www.w3.org/2000/svg" viewBox="0 0 512 512"><!--! Font Awesome Free 7.0.1 by @fontawesome - https://fontawesome.com License - https://fontawesome.com/license/free (Icons: CC BY 4.0, Fonts: SIL OFL 1.1, Code: MIT License) Copyright 2025 Fonticons, Inc.--><path fill="currentColor" d="M256.996 478.04c140.822 0 254.954-107.062 254.954-239.02C511.95 107.06 397.818 0 256.996 0S2.042 107.06 2.042 239.02c0 54.078 19.121 103.874 51.389 143.91l-48.6 91.922c-4.781 8.964-3.287 19.919 3.584 27.388s17.728 9.76 26.99 5.776l117.916-50.493c31.67 13.147 66.726 20.516 103.675 20.516m-38.243-325.067c0-10.557 8.565-19.122 19.121-19.122h38.243c10.557 0 19.122 8.565 19.122 19.122v47.804h47.804c10.557 0 19.122 8.564 19.122 19.121v38.243c0 10.557-8.565 19.122-19.122 19.122h-47.804v47.804c0 10.556-8.565 19.121-19.122 19.121h-38.243c-10.556 0-19.121-8.565-19.121-19.121v-47.804h-47.804c-10.557 0-19.122-8.565-19.122-19.122v-38.243c0-10.557 8.565-19.121 19.122-19.121h47.804z"/></svg>