<svg xmlns="http://www.w3.org/2000/svg" viewBox="0 0 512 512"><!--! Font Awesome Free 7.0.1 by @fontawesome - https://fontawesome.com License - https://fontawesome.com/license/free (Icons: CC BY 4.0, Fonts: SIL OFL 1.1, Code: MIT License) Copyright 2025 Fonticons, Inc.--><path fill="currentColor" d="M159.869 38.352c0-13.017 10.013-23.832 22.93-24.934L334.809.701C344.12 0 352.13 7.31 352.13 16.723v30.642c0 8.812-7.21 16.022-16.021 16.022H184.903c-13.82 0-25.034-11.216-25.034-25.035m17.624 57.078h157.014c1.002 5.208 1.603 10.515 1.603 16.022 0 44.26-35.85 80.11-80.11 80.11s-80.11-35.85-80.11-80.11c0-5.507.601-10.814 1.603-16.022m228.312 364.8-53.674-90.725v110.451c0 1.302-.1 2.504-.2 3.805l-174.538-249.24c16.622-7.11 34.647-10.915 53.372-10.915h50.47c15.921 0 31.342 2.804 45.862 7.91l95.03-164.424c-7.71-4.406-10.314-14.22-5.908-21.93s14.22-10.314 21.93-5.908l27.738 16.022c7.71 4.406 10.314 14.219 5.908 21.93l-55.576 96.231 1.602.901c15.321 8.812 20.628 28.44 11.716 43.76l-36.65 63.587c2.003 2.804 3.905 5.808 5.708 8.812l76.204 128.976c11.215 19.027 4.907 43.56-14.12 54.876-19.025 11.315-43.559 4.906-54.874-14.12M320.088 512H191.912c-17.724 0-32.043-14.32-32.043-32.044v-110.45l-53.674 90.723c-11.215 19.026-35.849 25.335-54.875 14.12s-25.334-35.75-14.019-54.775l76.204-129.077a138.4 138.4 0 0 1 36.05-40.055l181.648 259.555A31.7 31.7 0 0 1 320.088 512m-24.033-192.263a23.975 23.975 0 0 0 24.033-24.033 23.975 23.975 0 0 0-24.033-24.033 23.975 23.975 0 0 0-24.033 24.033 23.975 23.975 0 0 0 24.033 24.033"/></svg>