<svg xmlns="http://www.w3.org/2000/svg" viewBox="0 0 512 512"><!--! Font Awesome Free 7.0.1 by @fontawesome - https://fontawesome.com License - https://fontawesome.com/license/free (Icons: CC BY 4.0, Fonts: SIL OFL 1.1, Code: MIT License) Copyright 2025 Fonticons, Inc.--><path fill="currentColor" d="M4.852 37.972C9.802 26.09 21.387 18.367 34.16 18.367H477.74c12.773 0 24.358 7.723 29.308 19.605 4.951 11.881 2.179 25.446-6.832 34.556L287.635 285.01v145.253h63.369c17.525 0 31.684 14.16 31.684 31.685s-14.159 31.684-31.684 31.684H160.897c-17.525 0-31.684-14.159-31.684-31.684 0-17.526 14.159-31.685 31.684-31.685h63.37V285.011L11.782 72.528C2.673 63.418 0 49.754 4.852 37.972m348.825 91.29 47.527-47.526H110.598l47.527 47.526z"/></svg>