<svg xmlns="http://www.w3.org/2000/svg" viewBox="0 0 512 512"><!--! Font Awesome Free 7.0.1 by @fontawesome - https://fontawesome.com License - https://fontawesome.com/license/free (Icons: CC BY 4.0, Fonts: SIL OFL 1.1, Code: MIT License) Copyright 2025 Fonticons, Inc.--><path fill="currentColor" d="M253.7 167.205c14.034 0 25.37-11.338 25.37-25.37s-11.336-25.37-25.37-25.37H152.22c-14.032 0-25.37 11.337-25.37 25.37 0 14.032 11.338 25.37 25.37 25.37h25.37v25.37H38.056C17.045 192.575 0 209.62 0 230.63v51.374c0 15.064 8.88 28.7 22.595 34.805l53.515 23.784v16.887c0 21.01 17.046 38.055 38.055 38.055h205.419c14.588 0 28.383-6.263 38.055-17.204l144.61-163.795c9.751-11.02-.238-28.066-14.588-24.974l-132.48 28.383-40.037-19.98c-7.056-3.487-14.826-5.39-22.675-5.39h-64.138v-25.37zM76.11 230.63v68.261l-38.055-16.887V230.63z"/></svg>