<svg xmlns="http://www.w3.org/2000/svg" viewBox="0 0 512 512"><!--! Font Awesome Free 7.0.1 by @fontawesome - https://fontawesome.com License - https://fontawesome.com/license/free (Icons: CC BY 4.0, Fonts: SIL OFL 1.1, Code: MIT License) Copyright 2025 Fonticons, Inc.--><path fill="currentColor" d="M469.042 217.212c2.619 4.558 4.17 9.891 4.17 15.515 0 17.164-13.867 31.03-31.03 31.03h-4.946l-21.72 206.546C412.993 493.963 393.017 512 369.163 512H142.642c-23.854 0-43.83-17.94-46.351-41.697L74.764 263.758h-4.946c-17.163 0-31.03-13.867-31.03-31.03 0-5.625 1.551-10.958 4.17-15.516zM256 0c77.09 0 139.636 62.545 139.636 139.636v31.03h-46.545v-31.03c0-51.394-41.697-93.09-93.091-93.09s-93.09 41.696-93.09 93.09v31.03h-46.546v-31.03C116.364 62.546 178.909 0 256 0"/></svg>