<svg xmlns="http://www.w3.org/2000/svg" viewBox="0 0 512 512"><!--! Font Awesome Free 7.0.1 by @fontawesome - https://fontawesome.com License - https://fontawesome.com/license/free (Icons: CC BY 4.0, Fonts: SIL OFL 1.1, Code: MIT License) Copyright 2025 Fonticons, Inc.--><path fill="currentColor" d="M247.244 0c27.467 0 49.778 22.311 49.778 49.778s-22.31 49.778-49.778 49.778c-27.466 0-49.777-22.312-49.777-49.778C197.467 22.31 219.777 0 247.244 0m-78.222 238.844-41.155 55.467c-9.334 12.622-27.2 15.289-39.823 5.867-12.622-9.422-15.288-27.2-5.866-39.822l62.666-84.445A118.68 118.68 0 0 1 240.134 128c37.6 0 72.888 17.778 95.288 47.911l62.667 84.445c9.333 12.622 6.755 30.4-5.867 39.822s-30.4 6.755-39.822-5.867l-41.156-55.467v244.712c0 15.733-12.71 28.444-28.444 28.444s-28.444-12.711-28.444-28.444V341.333c0-7.822-6.4-14.222-14.223-14.222-7.822 0-14.222 6.4-14.222 14.222v142.223c0 15.733-12.711 28.444-28.444 28.444-15.734 0-28.445-12.711-28.445-28.444zm220.445 130.934c-3.911 0-7.111 3.2-7.111 7.11a21.28 21.28 0 0 1-21.334 21.334 21.28 21.28 0 0 1-21.333-21.333c0-27.467 22.311-49.778 49.778-49.778s49.777 22.311 49.777 49.778v113.778A21.28 21.28 0 0 1 417.911 512a21.28 21.28 0 0 1-21.333-21.333V376.889c0-3.911-3.2-7.111-7.111-7.111"/></svg>