<svg xmlns="http://www.w3.org/2000/svg" viewBox="0 0 512 512"><!--! Font Awesome Free 7.0.1 by @fontawesome - https://fontawesome.com License - https://fontawesome.com/license/free (Icons: CC BY 4.0, Fonts: SIL OFL 1.1, Code: MIT License) Copyright 2025 Fonticons, Inc.--><path fill="currentColor" d="M38.259 8.287C29.972 0 16.573 0 8.375 8.287.176 16.573.088 29.972 8.287 38.259L473.74 503.713c8.287 8.287 21.686 8.287 29.884 0 8.199-8.286 8.287-21.685 0-29.884l-78.104-78.104c1.498-10.667-1.763-21.863-9.962-29.973-27.504-27.504-8.022-74.49 30.854-74.49 19.482 0 35.262-15.78 35.262-35.262s-15.78-35.262-35.262-35.262c-38.876 0-58.27-46.986-30.854-74.49 13.752-13.752 13.752-36.055 0-49.895s-36.055-13.752-49.895 0c-27.504 27.504-74.49 8.022-74.49-30.854 0-19.482-15.78-35.262-35.262-35.262s-35.262 15.78-35.262 35.262c0 38.876-46.986 58.27-74.49 30.854-8.199-8.199-19.394-11.46-29.973-9.962zM65.587 220.65c-19.482 0-35.262 15.78-35.262 35.262s15.78 35.262 35.262 35.262c38.876 0 58.27 46.986 30.854 74.49-13.752 13.752-13.752 36.055 0 49.895s36.055 13.752 49.895 0c27.504-27.504 74.49-8.022 74.49 30.854 0 19.482 15.78 35.262 35.262 35.262s35.262-15.78 35.262-35.262c0-18.865 11.107-33.146 25.653-39.757l-211.57-211.57c-6.7 14.457-20.981 25.564-39.846 25.564"/></svg>