<svg xmlns="http://www.w3.org/2000/svg" viewBox="0 0 512 512"><!--! Font Awesome Free 7.0.1 by @fontawesome - https://fontawesome.com License - https://fontawesome.com/license/free (Icons: CC BY 4.0, Fonts: SIL OFL 1.1, Code: MIT License) Copyright 2025 Fonticons, Inc.--><path fill="currentColor" d="M469.496 78.16a21.29 21.29 0 0 0-21.34-21.34 21.29 21.29 0 0 0-21.341 21.34v7.114H28.455C12.714 85.274 0 97.99 0 113.728v99.59c0 15.74 12.716 28.455 28.454 28.455h8.892c18.496 0 32.1 17.428 27.565 35.39L29.344 419.79c-2.135 8.537-.178 17.517 5.157 24.453s13.605 10.937 22.408 10.937h85.363c13.07 0 24.453-8.892 27.565-21.518l23.119-92.299h92.832c21.074 0 39.836-13.25 46.86-33.078l23.742-66.512h27.654c7.559 0 14.761-3.023 20.096-8.359l20.096-20.095h59.31c15.738 0 28.454-12.716 28.454-28.455v-71.136c0-15.738-12.716-28.454-28.454-28.454h-14.227V78.16zM285.788 298.681h-82.25l14.227-56.908h93.365l-18.673 52.196c-.978 2.845-3.735 4.712-6.669 4.712M71.136 142.183h341.452c7.825 0 14.227 6.402 14.227 14.227s-6.402 14.227-14.227 14.227H71.136c-7.825 0-14.227-6.402-14.227-14.227s6.402-14.227 14.227-14.227"/></svg>