<svg xmlns="http://www.w3.org/2000/svg" viewBox="0 0 512 512"><!--! Font Awesome Free 7.0.1 by @fontawesome - https://fontawesome.com License - https://fontawesome.com/license/free (Icons: CC BY 4.0, Fonts: SIL OFL 1.1, Code: MIT License) Copyright 2025 Fonticons, Inc.--><path fill="currentColor" d="M183.303 494.698c-17.165 17.164-45.069 17.164-62.325 0L17.165 390.884C0 373.72 0 345.816 17.165 328.56l15.604-15.604 67.465 67.465c8.628 8.628 22.58 8.628 31.116 0s8.628-22.58 0-31.116l-67.465-67.465 31.117-31.117 46.72 46.72c8.629 8.629 22.58 8.629 31.117 0 8.536-8.627 8.628-22.58 0-31.116l-46.72-46.72 31.116-31.117 67.465 67.465c8.628 8.628 22.58 8.628 31.116 0s8.629-22.58 0-31.116l-67.465-67.465 31.117-31.117 46.72 46.72c8.629 8.629 22.58 8.629 31.117 0 8.537-8.627 8.628-22.58 0-31.116l-46.72-46.72L281.7 64.022l67.465 67.465c8.628 8.628 22.58 8.628 31.117 0 8.536-8.628 8.628-22.58 0-31.117l-67.466-67.465 15.605-15.604c17.164-17.164 45.068-17.164 62.325 0L494.835 120.84c17.165 17.165 17.165 45.069 0 62.325z"/></svg>