<svg xmlns="http://www.w3.org/2000/svg" viewBox="0 0 512 512"><!--! Font Awesome Free 7.0.1 by @fontawesome - https://fontawesome.com License - https://fontawesome.com/license/free (Icons: CC BY 4.0, Fonts: SIL OFL 1.1, Code: MIT License) Copyright 2025 Fonticons, Inc.--><path fill="currentColor" d="M56.889 0c27.467 0 49.778 22.311 49.778 49.778S84.356 99.556 56.889 99.556 7.11 77.244 7.11 49.778C7.111 22.31 29.422 0 56.89 0M0 180.533C0 151.556 23.556 128 52.533 128c20.89 0 40.445 10.044 52.534 27.022l43.289 60.622c5.155 7.29 13.422 11.645 22.31 11.912v-85.334c0-15.733 12.712-28.444 28.445-28.444H312.89c15.733 0 28.444 12.71 28.444 28.444v85.334c8.89-.267 17.156-4.623 22.311-11.912l43.29-60.622C419.021 138.044 438.577 128 459.466 128 488.444 128 512 151.556 512 180.533v89.69c0 26.844-12.622 52.177-34.133 68.266l-68.267 51.2c-7.2 5.333-11.378 13.778-11.378 22.755v71.112c0 15.733-12.71 28.444-28.444 28.444s-28.445-12.711-28.445-28.444v-71.112c0-26.844 12.623-52.177 34.134-68.266l36.977-27.734v-71.2l-2.488 3.467c-16 22.4-41.867 35.733-69.423 35.733H312.89c-.533 0-1.156 0-1.689-.088-.533 0-1.156.088-1.689.088H202.49c-.533 0-1.156 0-1.689-.088-.533 0-1.156.088-1.689.088h-27.644c-27.556 0-53.423-13.333-69.423-35.733l-2.488-3.467v71.2l36.977 27.734c21.511 16.089 34.134 41.422 34.134 68.266v71.112c0 15.733-12.711 28.444-28.445 28.444s-28.444-12.711-28.444-28.444v-71.112c0-8.977-4.178-17.422-11.378-22.755l-68.267-51.2C12.623 322.4 0 297.067 0 270.222zM0 365.6c2.756 2.4 5.6 4.8 8.533 7.022L56.89 408.89v74.667c0 15.733-12.711 28.444-28.445 28.444S0 499.289 0 483.556zM504.889 49.778c0 27.466-22.311 49.778-49.778 49.778s-49.778-22.312-49.778-49.778C405.333 22.31 427.644 0 455.111 0s49.778 22.311 49.778 49.778M512 483.556C512 499.289 499.289 512 483.556 512c-15.734 0-28.445-12.711-28.445-28.444v-74.667l48.356-36.267c2.933-2.222 5.777-4.533 8.533-7.022z"/></svg>