<svg xmlns="http://www.w3.org/2000/svg" viewBox="0 0 512 512"><!--! Font Awesome Free 7.0.1 by @fontawesome - https://fontawesome.com License - https://fontawesome.com/license/free (Icons: CC BY 4.0, Fonts: SIL OFL 1.1, Code: MIT License) Copyright 2025 Fonticons, Inc.--><path fill="currentColor" d="M171.255 311.54c93.524 0 169.402-69.524 169.402-155.284S264.779.97 171.255.97 1.853 70.496 1.853 156.256c0 34.939 12.617 67.231 33.88 93.17l-31.41 59.292C0 316.923 1.5 326.98 8.03 333.598c6.529 6.618 16.675 8.118 24.88 3.706l71.997-38.115c20.38 7.94 42.791 12.352 66.349 12.352m2.823 42.351c14.47 72.261 83.554 127.052 166.579 127.052 23.557 0 45.968-4.412 66.349-12.352l71.996 38.115c8.205 4.323 18.264 2.824 24.88-3.705 6.618-6.53 8.118-16.676 3.706-24.881l-31.41-59.291c21.264-25.94 33.88-58.232 33.88-93.171 0-72.702-54.437-133.669-127.933-150.61-10.146 102.171-102.17 177.52-208.047 178.843m.706-296.453c9.705 0 17.646 7.94 17.646 17.646v3.53h7.059c9.705 0 17.646 7.94 17.646 17.645 0 9.706-7.941 17.646-17.646 17.646h-41.91c-6.088 0-11.029 4.941-11.029 11.029 0 5.382 3.883 9.97 9.176 10.852l36.792 6.176c22.323 3.706 38.733 23.029 38.733 45.704 0 23.028-16.763 42.086-38.82 45.703v4.147c0 9.705-7.942 17.646-17.647 17.646s-17.646-7.94-17.646-17.646v-3.53h-21.175c-9.706 0-17.646-7.94-17.646-17.645 0-9.706 7.94-17.647 17.646-17.647h48.968c6.087 0 11.028-4.94 11.028-11.028 0-5.382-3.882-9.97-9.176-10.853l-36.792-6.176c-22.322-3.705-38.733-23.028-38.733-45.703 0-25.41 20.47-46.056 45.88-46.32v-3.53c0-9.705 7.94-17.646 17.646-17.646"/></svg>