<svg xmlns="http://www.w3.org/2000/svg" viewBox="0 0 512 512"><!--! Font Awesome Free 7.0.1 by @fontawesome - https://fontawesome.com License - https://fontawesome.com/license/free (Icons: CC BY 4.0, Fonts: SIL OFL 1.1, Code: MIT License) Copyright 2025 Fonticons, Inc.--><path fill="currentColor" d="M342.276 169.768c-15.646 0-28.287-12.64-28.287-28.287s12.64-28.288 28.287-28.288h141.437c15.646 0 28.287 12.641 28.287 28.288v141.436c0 15.647-12.64 28.287-28.287 28.287s-28.288-12.64-28.288-28.287v-73.105L305.68 359.558c-11.05 11.05-28.995 11.05-40.045 0l-93.083-93.171-121.458 121.37c-11.05 11.05-28.995 11.05-40.044 0-11.05-11.05-11.05-28.995 0-40.044l141.436-141.437c11.05-11.05 28.995-11.05 40.044 0l93.172 93.172 129.68-129.68z"/></svg>