<svg xmlns="http://www.w3.org/2000/svg" viewBox="0 0 512 512"><!--! Font Awesome Free 7.0.1 by @fontawesome - https://fontawesome.com License - https://fontawesome.com/license/free (Icons: CC BY 4.0, Fonts: SIL OFL 1.1, Code: MIT License) Copyright 2025 Fonticons, Inc.--><path fill="currentColor" d="M498.543 8.83a34.1 34.1 0 0 1 12.766 26.594v323.39c0 47.02-45.743 85.104-102.124 85.104s-102.123-38.084-102.123-85.103c0-47.02 45.742-85.103 102.123-85.103 11.915 0 23.403 1.702 34.041 4.893V154.462l-238.288 52.976v219.46c0 47.018-45.742 85.102-102.123 85.102C46.435 512 .69 473.916.69 426.897c0-47.02 45.743-85.103 102.124-85.103 11.914 0 23.403 1.702 34.041 4.894V103.506c0-15.956 11.063-29.786 26.701-33.19l306.37-68.082a34.06 34.06 0 0 1 28.722 6.702z"/></svg>