<svg xmlns="http://www.w3.org/2000/svg" viewBox="0 0 512 512"><!--! Font Awesome Free 7.0.1 by @fontawesome - https://fontawesome.com License - https://fontawesome.com/license/free (Icons: CC BY 4.0, Fonts: SIL OFL 1.1, Code: MIT License) Copyright 2025 Fonticons, Inc.--><path fill="currentColor" d="m255.95 107.879-14.997-20.796c-24.995-34.593-65.087-55.09-107.879-55.09C59.588 31.994 0 91.584 0 165.069v2.6c0 23.595 6.199 47.99 16.597 72.285h105.98c3.198 0 6.098-1.9 7.398-4.899l31.793-76.285c3.7-8.798 12.298-14.597 21.796-14.797s18.297 5.399 22.196 14.097l51.29 113.878 41.392-82.784c4.099-8.098 12.397-13.297 21.496-13.297a23.98 23.98 0 0 1 21.495 13.297l23.196 46.291c1.4 2.7 4.099 4.4 7.198 4.4h123.576C505.901 215.557 512 191.162 512 167.566v-2.6c-.1-73.385-59.688-132.973-133.174-132.973-42.692 0-82.884 20.496-107.879 55.089l-14.997 20.696zm213.558 180.065h-97.78c-21.196 0-40.593-11.998-50.09-30.994l-1.7-3.4-42.492 85.084c-4.1 8.298-12.698 13.497-21.996 13.297s-17.596-5.699-21.396-14.097l-49.29-109.479-10.498 25.195c-8.698 20.896-29.094 34.494-51.69 34.494H42.392c47.19 73.785 122.976 141.672 170.366 177.865 12.398 9.398 27.595 14.097 43.092 14.097s30.794-4.599 43.092-14.097c47.59-36.293 123.376-104.18 170.566-177.965"/></svg>