<svg xmlns="http://www.w3.org/2000/svg" viewBox="0 0 512 512"><!--! Font Awesome Free 7.0.1 by @fontawesome - https://fontawesome.com License - https://fontawesome.com/license/free (Icons: CC BY 4.0, Fonts: SIL OFL 1.1, Code: MIT License) Copyright 2025 Fonticons, Inc.--><path fill="currentColor" d="M384.503 369.637c29.907 20.2 70.919 17.052 97.415-9.444 30.082-30.082 30.082-78.79 0-108.871-24.31-24.31-60.775-28.945-89.72-13.992-10.319 5.334-14.341 18.014-9.007 28.245s18.014 14.342 28.245 9.007c13.205-6.82 29.732-4.634 40.75 6.384 13.642 13.642 13.642 35.766 0 49.495s-35.765 13.641-49.494 0l-71.444-71.444c19.5-12.418 32.443-34.192 32.443-59.027 0-29.644-18.452-55.003-44.51-65.147 1.66-5.947 2.535-12.243 2.535-18.801 0-38.652-31.306-69.958-69.957-69.958-23.873 0-45.035 11.98-57.627 30.257-5.072-17.49-21.163-30.257-40.313-30.257-23.174 0-41.975 18.801-41.975 41.975 0 3.498.437 6.908 1.224 10.144zm35.24-295.482c0-15.478-12.504-27.983-27.982-27.983s-27.983 12.505-27.983 27.983 12.505 27.983 27.983 27.983 27.983-12.505 27.983-27.983m0 111.931c15.479 0 27.984-12.504 27.984-27.982s-12.505-27.983-27.983-27.983-27.983 12.504-27.983 27.983c0 15.478 12.505 27.982 27.983 27.982M59.727 94.267C37.689 72.231 0 87.884 0 119.015v276.943c0 38.652 31.306 69.958 69.957 69.958h276.944c31.13 0 46.784-37.69 24.747-59.726z"/></svg>