<svg xmlns="http://www.w3.org/2000/svg" viewBox="0 0 512 512"><!--! Font Awesome Free 7.0.1 by @fontawesome - https://fontawesome.com License - https://fontawesome.com/license/free (Icons: CC BY 4.0, Fonts: SIL OFL 1.1, Code: MIT License) Copyright 2025 Fonticons, Inc.--><path fill="currentColor" d="M162.933 27.862c-13.242-13.243-34.748-13.243-47.99 0l-101.7 101.7C0 142.806 0 164.31 13.242 177.553s34.747 13.243 47.99 0l43.858-43.858v324.913c0 18.751 15.149 33.9 33.9 33.9s33.9-15.149 33.9-33.9V133.694l43.859 43.859c13.242 13.242 34.748 13.242 47.99 0s13.242-34.748 0-47.99L163.04 27.862zm284.02-3.602c-8.792-6.356-20.233-8.157-30.51-4.661l-50.85 16.95c-17.797 5.932-27.332 25.107-21.4 42.905 5.933 17.797 25.108 27.332 42.906 21.4l6.25-2.12V153.4H376.4c-18.751 0-33.9 15.149-33.9 33.9s15.149 33.9 33.9 33.9h101.7c18.752 0 33.901-15.149 33.901-33.9s-15.15-33.9-33.9-33.9h-16.95V51.698c0-10.912-5.191-21.082-14.09-27.544zm-56.782 415.914c-10.17 15.679-5.72 36.654 9.958 46.93 15.679 10.277 36.655 5.721 46.93-9.958l44.6-68.754c13.137-20.34 20.235-44.07 20.235-68.33 0-46.825-37.926-84.75-84.75-84.75-46.825 0-84.751 37.925-84.751 84.75 0 38.244 25.319 70.66 60.173 81.149L390.17 440.28zm11.547-100.218a25.364 25.364 0 0 1 25.425-25.425 25.364 25.364 0 0 1 25.426 25.425 25.364 25.364 0 0 1-25.426 25.425 25.364 25.364 0 0 1-25.425-25.425"/></svg>