<svg xmlns="http://www.w3.org/2000/svg" viewBox="0 0 512 512"><!--! Font Awesome Free 7.0.1 by @fontawesome - https://fontawesome.com License - https://fontawesome.com/license/free (Icons: CC BY 4.0, Fonts: SIL OFL 1.1, Code: MIT License) Copyright 2025 Fonticons, Inc.--><path fill="currentColor" d="M0 107.79c0-29.727 24.168-53.895 53.895-53.895h269.473c59.537 0 107.79 48.252 107.79 107.79v161.683h53.895c14.905 0 26.947 12.043 26.947 26.948s-12.042 26.947-26.947 26.947h-249.6c.168 2.19.336 4.463.336 6.737 0 40.926-33.178 74.105-74.105 74.105-40.926 0-74.105-33.179-74.105-74.105 0-2.274.084-4.547.337-6.737H53.895C24.168 377.263 0 353.095 0 323.368zm269.474 215.578h53.894c14.906 0 26.948-12.042 26.948-26.947V256h-20.21c-11.2 0-20.211-9.01-20.211-20.21s9.01-20.211 20.21-20.211h20.21v-53.895c0-14.905-12.041-26.947-26.947-26.947h-53.894c-14.906 0-26.948 12.042-26.948 26.947v134.737c0 14.905 12.042 26.947 26.948 26.947M107.789 134.737c-14.905 0-26.947 12.042-26.947 26.947v53.895c0 14.905 12.042 26.947 26.947 26.947h53.895c14.905 0 26.948-12.042 26.948-26.947v-53.895c0-14.905-12.043-26.947-26.948-26.947zm53.895 282.947c18.61 0 33.684-15.073 33.684-33.684s-15.073-33.684-33.684-33.684S128 365.389 128 384s15.074 33.684 33.684 33.684"/></svg>