<svg xmlns="http://www.w3.org/2000/svg" viewBox="0 0 512 512"><!--! Font Awesome Free 7.0.1 by @fontawesome - https://fontawesome.com License - https://fontawesome.com/license/free (Icons: CC BY 4.0, Fonts: SIL OFL 1.1, Code: MIT License) Copyright 2025 Fonticons, Inc.--><path fill="currentColor" d="M56.899 71.079C25.516 71.079 0 96.595 0 127.978v184.92c0 31.384 25.516 56.9 56.899 56.9h.355c3.557 39.918 37.073 71.123 77.88 71.123 40.808 0 74.325-31.205 77.88-71.123h93.084c3.556 39.918 37.073 71.123 77.88 71.123 40.985 0 74.59-31.472 77.969-71.568C490.13 365.975 512 341.97 512 312.899v-90.06c0-12.27-4-24.271-11.38-34.14l-71.123-94.86c-10.669-14.314-27.56-22.76-45.43-22.76zm391.179 142.247H341.393v-85.348h42.674zm-391.18 0v-85.348h85.349v85.348zm142.248 0v-85.348h85.348v85.348zm149.359 149.36c0-19.649 15.914-35.563 35.562-35.563s35.561 15.914 35.561 35.562-15.913 35.562-35.561 35.562-35.562-15.914-35.562-35.562m-213.37-35.563c19.647 0 35.561 15.914 35.561 35.562s-15.914 35.562-35.561 35.562c-19.648 0-35.562-15.914-35.562-35.562s15.914-35.562 35.562-35.562"/></svg>