<svg xmlns="http://www.w3.org/2000/svg" viewBox="0 0 512 512"><!--! Font Awesome Free 7.0.1 by @fontawesome - https://fontawesome.com License - https://fontawesome.com/license/free (Icons: CC BY 4.0, Fonts: SIL OFL 1.1, Code: MIT License) Copyright 2025 Fonticons, Inc.--><path fill="currentColor" d="M73.143 0C32.8 0 0 32.8 0 73.143v187.543c20.686-14.515 45.943-22.972 73.143-22.972h365.714c27.2 0 52.457 8.457 73.143 22.972V73.143C512 32.8 479.2 0 438.857 0zM512 365.714c0-40.343-32.8-73.143-73.143-73.143H73.143C32.8 292.571 0 325.371 0 365.714v73.143C0 479.2 32.8 512 73.143 512h365.714C479.2 512 512 479.2 512 438.857zm-256 36.572c0-20.229 16.343-36.572 36.571-36.572 20.229 0 36.572 16.343 36.572 36.572 0 20.228-16.343 36.571-36.572 36.571-20.228 0-36.571-16.343-36.571-36.571m146.286-36.572c20.228 0 36.571 16.343 36.571 36.572 0 20.228-16.343 36.571-36.571 36.571-20.229 0-36.572-16.343-36.572-36.571 0-20.229 16.343-36.572 36.572-36.572"/></svg>