<svg xmlns="http://www.w3.org/2000/svg" viewBox="0 0 512 512"><!--! Font Awesome Free 7.0.1 by @fontawesome - https://fontawesome.com License - https://fontawesome.com/license/free (Icons: CC BY 4.0, Fonts: SIL OFL 1.1, Code: MIT License) Copyright 2025 Fonticons, Inc.--><path fill="currentColor" d="M323.411 220.06c26.152-20.222 43.046-51.898 43.046-87.471 0-60.995-49.462-110.457-110.457-110.457S145.543 71.594 145.543 132.589c0 35.655 16.894 67.33 43.046 87.472-26.152 13.238-47.919 33.95-62.376 59.37l-39.147-16.73v-32.65a19.446 19.446 0 0 0-19.492-19.493 19.446 19.446 0 0 0-19.493 19.493v15.919l-18.274-7.879c-9.909-4.223-21.36.325-25.584 10.234-4.223 9.909.325 21.36 10.234 25.584 29.32 12.588 61.645 26.396 96.974 41.583a149.9 149.9 0 0 0-4.873 37.93c0 56.852 31.757 106.233 78.457 131.492 6.416 3.492 13.726 4.954 21.036 4.954h99.898c7.31 0 14.62-1.462 21.036-4.954 46.7-25.26 78.457-74.721 78.457-131.493 0-13.157-1.706-25.827-4.873-37.929 35.33-15.187 67.736-28.995 96.974-41.583 9.909-4.224 14.457-15.675 10.234-25.584s-15.675-14.457-25.584-10.234l-18.274 7.879v-15.92a19.446 19.446 0 0 0-19.493-19.492 19.446 19.446 0 0 0-19.492 19.493v32.65l-39.147 16.73c-14.538-25.42-36.224-46.132-62.376-59.37m-86.903 165.93A19.446 19.446 0 0 1 256 366.497a19.446 19.446 0 0 1 19.492 19.493A19.446 19.446 0 0 1 256 405.482a19.446 19.446 0 0 1-19.492-19.492M256 288.528a19.446 19.446 0 0 1 19.492 19.492A19.446 19.446 0 0 1 256 327.513a19.446 19.446 0 0 1-19.492-19.493A19.446 19.446 0 0 1 256 288.528m-58.477-175.432a19.446 19.446 0 0 1 19.492-19.492 19.446 19.446 0 0 1 19.493 19.492 19.446 19.446 0 0 1-19.493 19.493 19.446 19.446 0 0 1-19.492-19.493m97.462-19.492a19.446 19.446 0 0 1 19.492 19.492 19.446 19.446 0 0 1-19.492 19.493 19.446 19.446 0 0 1-19.493-19.493 19.446 19.446 0 0 1 19.493-19.492m-61.564 83.899c-2.193-3.899-3.41-8.285-3.41-12.752 0-14.213 11.532-25.665 25.664-25.665h.65c14.213 0 25.665 11.533 25.665 25.665 0 4.467-1.137 8.853-3.411 12.752l-16.894 29.644c-2.517 4.386-8.771 4.386-11.29 0l-16.974-29.726z"/></svg>