<svg xmlns="http://www.w3.org/2000/svg" viewBox="0 0 512 512"><!--! Font Awesome Free 7.0.1 by @fontawesome - https://fontawesome.com License - https://fontawesome.com/license/free (Icons: CC BY 4.0, Fonts: SIL OFL 1.1, Code: MIT License) Copyright 2025 Fonticons, Inc.--><path fill="currentColor" d="m411.991 195.349 37.089-37.089h30.282c15.446 0 27.926-12.48 27.926-27.926V74.483c0-15.446-12.48-27.926-27.926-27.926H199.756c-25.308 0-50.005 8.116-70.425 23.126L18.85 151.104C3.316 162.536 0 184.354 11.432 199.887s33.25 18.85 48.783 7.418l104.46-76.97h98.263a20.894 20.894 0 0 1 20.944 20.944 20.894 20.894 0 0 1-20.944 20.944h-62.833c-15.446 0-27.926 12.48-27.926 27.926s12.48 27.925 27.926 27.925h132.822c29.583 0 58.033-11.78 78.977-32.725zM100.01 316.65 62.833 353.74H32.55c-15.447 0-27.926 12.48-27.926 27.926v55.851c0 15.446 12.48 27.926 27.926 27.926h279.693c25.308 0 50.005-8.116 70.425-23.126l110.481-81.421c15.534-11.432 18.85-33.25 7.418-48.783s-33.25-18.85-48.783-7.418l-104.547 76.97h-98.263a20.894 20.894 0 0 1-20.944-20.944 20.894 20.894 0 0 1 20.944-20.944h62.833c15.446 0 27.925-12.48 27.925-27.926s-12.479-27.925-27.925-27.925H178.986c-29.584 0-58.033 11.78-78.977 32.725"/></svg>