<svg xmlns="http://www.w3.org/2000/svg" viewBox="0 0 512 512"><!--! Font Awesome Free 7.0.1 by @fontawesome - https://fontawesome.com License - https://fontawesome.com/license/free (Icons: CC BY 4.0, Fonts: SIL OFL 1.1, Code: MIT License) Copyright 2025 Fonticons, Inc.--><path fill="currentColor" d="M256 28.444c31.378 0 56.889 25.512 56.889 56.89 0 31.377-25.511 56.888-56.889 56.888s-56.889-25.51-56.889-56.889c0-31.377 25.511-56.889 56.889-56.889m85.333 277.334c0 22.222-11.289 41.778-28.444 53.244v39.2H199.11v-39.2c-17.155-11.466-28.444-31.022-28.444-53.244v-35.556c0-47.11 38.222-85.333 85.333-85.333s85.333 38.222 85.333 85.333zm14.223 92.444v-24.266c17.688-20 28.444-46.4 28.444-75.29v-28.444c0-23.733-6.489-45.866-17.689-64.978 9.867-4 20.622-6.133 31.911-6.133 47.111 0 85.334 38.222 85.334 85.333v28.445c0 21.067-11.467 39.467-28.445 49.244v36.09zM56.889 362.133c-16.978-9.777-28.445-28.177-28.445-49.244v-28.445c0-47.11 38.223-85.333 85.334-85.333 11.289 0 22.044 2.222 31.91 6.133C134.489 224.267 128 246.49 128 270.222v28.445c0 28.889 10.756 55.2 28.444 75.289v24.266H56.89zM113.778 56.89c27.466 0 49.778 22.311 49.778 49.778s-22.312 49.777-49.778 49.777C86.31 156.444 64 134.134 64 106.667s22.311-49.778 49.778-49.778m284.444 0C425.69 56.889 448 79.2 448 106.667s-22.311 49.777-49.778 49.777-49.778-22.31-49.778-49.777 22.312-49.778 49.778-49.778m-376.889 384h469.334A21.28 21.28 0 0 1 512 462.222a21.28 21.28 0 0 1-21.333 21.334H21.333A21.28 21.28 0 0 1 0 462.222a21.28 21.28 0 0 1 21.333-21.333"/></svg>