<svg xmlns="http://www.w3.org/2000/svg" viewBox="0 0 512 512"><!--! Font Awesome Free 7.0.1 by @fontawesome - https://fontawesome.com License - https://fontawesome.com/license/free (Icons: CC BY 4.0, Fonts: SIL OFL 1.1, Code: MIT License) Copyright 2025 Fonticons, Inc.--><path fill="currentColor" d="M334.222 0C393.156 0 440.89 47.733 440.89 106.667v5.51c26.044 10.845 42.667 36.712 42.667 68.356 0 24.8-22.49 66.49-58.667 99.29-3.378 3.11-7.822 4.71-12.445 4.71-4.622 0-9.066-1.6-12.444-4.71-36.178-32.712-58.667-74.4-58.667-99.29 0-31.644 16.623-57.51 42.667-68.355v-5.511c0-27.467-22.311-49.778-49.778-49.778s-49.778 22.311-49.778 49.778v376.889c0 15.733-12.71 28.444-28.444 28.444s-28.444-12.711-28.444-28.444V220.444c0-27.466-22.312-49.777-49.778-49.777-27.467 0-49.778 22.31-49.778 49.777V254.4c26.044 10.844 42.667 36.711 42.667 68.356 0 24.8-22.49 66.488-58.667 99.288-3.378 3.112-7.822 4.712-12.444 4.712s-9.067-1.6-12.445-4.712c-36.178-32.8-58.667-74.488-58.667-99.288 0-31.734 16.623-57.512 42.667-68.356v-33.956c0-58.933 47.733-106.666 106.667-106.666 17.955 0 34.933 4.444 49.778 12.266v-19.377C227.556 47.733 275.289 0 334.222 0"/></svg>