<svg xmlns="http://www.w3.org/2000/svg" viewBox="0 0 512 512"><!--! Font Awesome Free 7.0.1 by @fontawesome - https://fontawesome.com License - https://fontawesome.com/license/free (Icons: CC BY 4.0, Fonts: SIL OFL 1.1, Code: MIT License) Copyright 2025 Fonticons, Inc.--><path fill="currentColor" d="M230.4 89.6c0-21.2 17.2-38.4 38.4-38.4h76.8c21.2 0 38.4 17.2 38.4 38.4V128h38.4V70.4c0-10.64 8.56-19.2 19.2-19.2s19.2 8.56 19.2 19.2V128h12.8c21.2 0 38.4 17.2 38.4 38.4v256c0 21.2-17.2 38.4-38.4 38.4H268.8c-21.2 0-38.4-17.2-38.4-38.4zm51.2 51.2v25.6c0 7.04 5.76 12.8 12.8 12.8H320c7.04 0 12.8-5.76 12.8-12.8v-25.6c0-7.04-5.76-12.8-12.8-12.8h-25.6c-7.04 0-12.8 5.76-12.8 12.8m12.8 64c-7.04 0-12.8 5.76-12.8 12.8v25.6c0 7.04 5.76 12.8 12.8 12.8H320c7.04 0 12.8-5.76 12.8-12.8v-25.6c0-7.04-5.76-12.8-12.8-12.8zm-12.8 89.6V320c0 7.04 5.76 12.8 12.8 12.8H320c7.04 0 12.8-5.76 12.8-12.8v-25.6c0-7.04-5.76-12.8-12.8-12.8h-25.6c-7.04 0-12.8 5.76-12.8 12.8m140.8-89.6c-7.04 0-12.8 5.76-12.8 12.8v25.6c0 7.04 5.76 12.8 12.8 12.8H448c7.04 0 12.8-5.76 12.8-12.8v-25.6c0-7.04-5.76-12.8-12.8-12.8zm-12.8 89.6V320c0 7.04 5.76 12.8 12.8 12.8H448c7.04 0 12.8-5.76 12.8-12.8v-25.6c0-7.04-5.76-12.8-12.8-12.8h-25.6c-7.04 0-12.8 5.76-12.8 12.8M76.8 435.2v-128H64c-35.36 0-64-28.64-64-64 0-21.36 10.48-40.24 26.56-51.92-.64-3.92-.96-8-.96-12.08 0-42.4 34.4-76.8 76.8-76.8s76.8 34.4 76.8 76.8V256c0 28.24-22.96 51.2-51.2 51.2v128c0 14.16-11.44 25.6-25.6 25.6s-25.6-11.44-25.6-25.6"/></svg>