<svg xmlns="http://www.w3.org/2000/svg" viewBox="0 0 512 512"><!--! Font Awesome Free 7.0.1 by @fontawesome - https://fontawesome.com License - https://fontawesome.com/license/free (Icons: CC BY 4.0, Fonts: SIL OFL 1.1, Code: MIT License) Copyright 2025 Fonticons, Inc.--><path fill="currentColor" d="M199.221 3.673C208.155 0 218.38 1.985 225.228 8.834l55.588 55.588c9.33 9.33 9.33 24.419 0 33.65l-55.588 55.588c-6.849 6.849-17.073 8.834-26.007 5.161a23.65 23.65 0 0 1-14.69-21.937v-23.823h-23.824c-17.57 0-31.764 14.195-31.764 31.764v213.118c28.092 12.21 47.646 40.202 47.646 72.76 0 43.875-35.536 79.411-79.41 79.411-43.875 0-79.41-35.536-79.41-79.41 0-32.559 19.554-60.551 47.646-72.76V144.824c0-52.61 42.683-95.293 95.292-95.293h23.823V25.71c0-9.628 5.758-18.364 14.691-22.036m191.777 77.624a23.766 23.766 0 0 0 23.823 23.823 23.766 23.766 0 0 0 23.823-23.823 23.766 23.766 0 0 0-23.823-23.824 23.766 23.766 0 0 0-23.823 23.824m-7.941 72.76c-28.092-12.21-47.646-40.202-47.646-72.76 0-43.875 35.536-79.411 79.41-79.411 43.875 0 79.41 35.536 79.41 79.41 0 32.559-19.554 60.551-47.646 72.76v213.119c0 52.61-42.683 95.293-95.292 95.293H327.47v23.823c0 9.628-5.758 18.364-14.691 22.036s-19.158 1.688-26.007-5.161l-55.588-55.588c-9.33-9.33-9.33-24.419 0-33.65l55.588-55.588c6.849-6.849 17.073-8.834 26.007-5.161a23.65 23.65 0 0 1 14.69 21.937v23.823h23.824c17.57 0 31.764-14.195 31.764-31.764zM73.356 430.703a23.766 23.766 0 0 0 23.823 23.824 23.766 23.766 0 0 0 23.823-23.824 23.766 23.766 0 0 0-23.823-23.823 23.766 23.766 0 0 0-23.823 23.823"/></svg>