<svg xmlns="http://www.w3.org/2000/svg" viewBox="0 0 512 512"><!--! Font Awesome Free 7.0.1 by @fontawesome - https://fontawesome.com License - https://fontawesome.com/license/free (Icons: CC BY 4.0, Fonts: SIL OFL 1.1, Code: MIT License) Copyright 2025 Fonticons, Inc.--><path fill="currentColor" d="M346.353 0H240.94c-8.282 0-15.059 6.776-15.059 15.059v135.53H60.235c-16.659 0-30.117 13.458-30.117 30.117s13.458 30.118 30.117 30.118h15.06v210.823l-48.19 36.141c-7.623 5.647-12.046 14.588-12.046 24.094 0 16.66 13.459 30.118 30.117 30.118h421.648c16.658 0 30.117-13.459 30.117-30.118 0-9.506-4.423-18.447-12.047-24.094l-48.188-36.14V210.823h15.059c16.659 0 30.117-13.46 30.117-30.118 0-16.659-13.458-30.118-30.117-30.118H271.059V90.353h75.294c8.282 0 15.059-6.777 15.059-15.059V15.06c0-8.283-6.777-15.059-15.06-15.059m45.176 210.824v210.823h-60.235V210.824zm-105.411 0v210.823h-60.236V210.824zm-105.412 0v210.823H120.47V210.824z"/></svg>