<svg xmlns="http://www.w3.org/2000/svg" viewBox="0 0 512 512"><!--! Font Awesome Free 7.0.1 by @fontawesome - https://fontawesome.com License - https://fontawesome.com/license/free (Icons: CC BY 4.0, Fonts: SIL OFL 1.1, Code: MIT License) Copyright 2025 Fonticons, Inc.--><path fill="currentColor" d="M305.822 49.778C305.822 22.31 283.512 0 256.044 0c-27.466 0-49.777 22.311-49.777 49.778s22.31 49.778 49.777 49.778 49.778-22.312 49.778-49.778m21.334 189.066 41.155 55.467c9.333 12.622 27.2 15.289 39.822 5.867s15.29-27.2 5.867-39.822l-62.667-84.445A118.68 118.68 0 0 0 256.044 128c-37.6 0-72.888 17.778-95.288 47.911l-62.667 84.445c-9.333 12.622-6.756 30.4 5.867 39.822 12.622 9.422 30.4 6.755 39.822-5.867l41.155-55.467v244.712c0 15.733 12.711 28.444 28.445 28.444s28.444-12.711 28.444-28.444V341.333c0-7.822 6.4-14.222 14.222-14.222 7.823 0 14.223 6.4 14.223 14.222v142.223c0 15.733 12.71 28.444 28.444 28.444s28.445-12.711 28.445-28.444zM34.71 34.667c-8.355 8.355-8.355 21.866 0 30.133l71.111 71.111c8.356 8.356 21.867 8.356 30.134 0s8.355-21.867 0-30.133L64.933 34.667c-8.355-8.267-21.866-8.267-30.222 0m412.445 0-71.112 71.11c-8.355 8.356-8.355 21.867 0 30.134s21.867 8.356 30.134 0l71.11-71.111c8.356-8.356 8.356-21.867 0-30.133-8.355-8.267-21.866-8.356-30.132 0M34.71 477.333c8.356 8.356 21.867 8.356 30.133 0l71.112-71.11c8.355-8.356 8.355-21.867 0-30.134s-21.867-8.356-30.134 0L34.712 447.2c-8.356 8.356-8.356 21.867 0 30.133m412.445 0c8.355 8.356 21.866 8.356 30.133 0s8.355-21.866 0-30.133l-71.111-71.111c-8.356-8.356-21.867-8.356-30.134 0s-8.355 21.867 0 30.133z"/></svg>