<svg xmlns="http://www.w3.org/2000/svg" viewBox="0 0 512 512"><!--! Font Awesome Free 7.0.1 by @fontawesome - https://fontawesome.com License - https://fontawesome.com/license/free (Icons: CC BY 4.0, Fonts: SIL OFL 1.1, Code: MIT License) Copyright 2025 Fonticons, Inc.--><path fill="currentColor" d="m117.538 136.541-23.843 68.251h98.335V127.98H129.7c-5.44 0-10.321 3.44-12.082 8.561zm-78.732 69.771 30.325-86.653c9.041-25.684 33.285-42.887 60.49-42.887h158.344c20.163 0 39.126 9.521 51.208 25.604l76.972 102.656C469.673 208.392 512 252.88 512 307.208v12.802c0 28.244-22.964 51.208-51.208 51.208H447.67c-3.2 35.926-33.365 64.01-70.091 64.01s-66.89-28.084-70.091-64.01H191.71c-3.2 35.926-33.365 64.01-70.091 64.01s-66.89-28.084-70.09-64.01h-.321C22.964 371.218 0 348.254 0 320.01V256c0-24.084 16.563-44.247 38.886-49.688zm313.169-1.52-53.768-71.691c-2.4-3.2-6.241-5.121-10.242-5.121h-57.609v76.812zm-230.436 192.03c17.683 0 32.005-14.322 32.005-32.005s-14.322-32.005-32.005-32.005-32.005 14.322-32.005 32.005 14.322 32.005 32.005 32.005m288.045-32.005c0-17.683-14.322-32.005-32.005-32.005s-32.005 14.322-32.005 32.005 14.322 32.005 32.005 32.005 32.005-14.322 32.005-32.005"/></svg>