<svg xmlns="http://www.w3.org/2000/svg" viewBox="0 0 512 512"><!--! Font Awesome Free 7.0.1 by @fontawesome - https://fontawesome.com License - https://fontawesome.com/license/free (Icons: CC BY 4.0, Fonts: SIL OFL 1.1, Code: MIT License) Copyright 2025 Fonticons, Inc.--><path fill="currentColor" d="M219.429 83.117c0-22.026 17.87-39.896 39.896-39.896h79.792c22.026 0 39.896 17.87 39.896 39.896v66.493h39.896V89.766a19.9 19.9 0 0 1 19.948-19.948 19.9 19.9 0 0 1 19.948 19.948v59.844h13.299c22.026 0 39.896 17.87 39.896 39.896v239.377c0 22.026-17.87 39.896-39.896 39.896h-212.78c-22.025 0-39.895-17.87-39.895-39.896zm53.194 53.195v26.597c0 7.314 5.985 13.299 13.3 13.299h26.596c7.315 0 13.3-5.985 13.3-13.299v-26.597c0-7.315-5.985-13.299-13.3-13.299h-26.597c-7.314 0-13.299 5.984-13.299 13.299m13.3 66.493c-7.315 0-13.3 5.985-13.3 13.299V242.7c0 7.315 5.985 13.299 13.3 13.299h26.596c7.315 0 13.3-5.984 13.3-13.299v-26.597c0-7.314-5.985-13.299-13.3-13.299zm-13.3 93.091v26.598c0 7.314 5.985 13.298 13.3 13.298h26.596c7.315 0 13.3-5.984 13.3-13.298v-26.598c0-7.314-5.985-13.299-13.3-13.299h-26.597c-7.314 0-13.299 5.985-13.299 13.3m146.286-66.493c-7.314 0-13.299 5.984-13.299 13.298V269.3c0 7.314 5.985 13.298 13.3 13.298h26.596c7.315 0 13.3-5.984 13.3-13.298V242.7c0-7.314-5.985-13.298-13.3-13.298zm-13.299 93.09v26.598c0 7.314 5.985 13.299 13.3 13.299h26.596c7.315 0 13.3-5.985 13.3-13.3v-26.596c0-7.315-5.985-13.3-13.3-13.3H418.91c-7.314 0-13.299 5.985-13.299 13.3M107.22 182.027l59.845 59.844c7.813 7.813 7.813 20.447 0 28.177L107.22 329.89c-7.813 7.813-20.447 7.813-28.177 0s-7.813-20.447 0-28.177l25.766-25.766H19.948A19.9 19.9 0 0 1 0 256a19.9 19.9 0 0 1 19.948-19.948h84.862l-25.766-25.766c-7.813-7.813-7.813-20.447 0-28.177s20.447-7.813 28.177 0z"/></svg>