<svg xmlns="http://www.w3.org/2000/svg" viewBox="0 0 512 512"><!--! Font Awesome Free 7.0.1 by @fontawesome - https://fontawesome.com License - https://fontawesome.com/license/free (Icons: CC BY 4.0, Fonts: SIL OFL 1.1, Code: MIT License) Copyright 2025 Fonticons, Inc.--><path fill="currentColor" d="M48.081 85.929H463.92v90.964c-30.538 7.635-51.98 35.087-51.98 66.6v62.05c-17.056-7.878-35.33-11.777-53.604-11.695-8.122.08-16.325.893-24.365 2.517v-28.507c0-43.046-34.924-77.97-77.97-77.97s-77.97 34.924-77.97 77.97v26.558c-4.304-.406-8.69-.65-12.994-.568-22.498.162-44.995 6.335-64.975 18.68v-69.036c0-31.512-21.442-58.964-51.98-66.599zm275.655 308.71C304 409.422 281.259 423.798 256 423.798s-48-14.376-67.736-29.157c-17.3-13.077-40.528-13.077-57.827 0-19.33 14.538-43.94 28.832-71.554 28.67-16.568-.082-33.056-5.442-48.568-17.137-8.61-6.498-10.315-18.68-3.818-27.29 6.498-8.609 18.68-10.314 27.29-3.817 9.177 6.904 17.543 9.259 25.34 9.34 14.294.081 30.294-7.634 47.837-20.873 31.188-23.553 73.503-23.553 104.772 0 19.492 14.7 33.056 21.36 44.264 21.36s24.772-6.66 44.264-21.36c31.188-23.553 73.502-23.553 104.772 0 13.725 10.315 26.72 17.462 38.822 19.98 11.127 2.274 22.254.73 34.355-8.366 8.61-6.497 20.792-4.792 27.29 3.817s4.791 20.792-3.818 27.29c-21.441 16.162-44.02 19.817-65.543 15.512-20.548-4.142-39.066-15.35-54.579-27.045-17.299-13.076-40.527-13.076-57.827 0z"/></svg>