<svg xmlns="http://www.w3.org/2000/svg" viewBox="0 0 512 512"><!--! Font Awesome Free 7.0.1 by @fontawesome - https://fontawesome.com License - https://fontawesome.com/license/free (Icons: CC BY 4.0, Fonts: SIL OFL 1.1, Code: MIT License) Copyright 2025 Fonticons, Inc.--><path fill="currentColor" d="M256.641 0c43.613 0 78.937 35.324 78.937 78.936s-35.324 78.936-78.937 78.936-78.936-35.324-78.936-78.936S213.03 0 256.641 0m209.97 377.71-62.458 78.147c-16.379 20.424-46.177 23.78-66.602 7.4-17.366-13.913-22.398-37.593-13.32-56.933l-.691-.099c-38.383-5.525-73.312-24.766-98.374-54.07v-36.311c0-17.465-14.11-31.575-31.575-31.575s-31.574 14.11-31.574 31.575v47.361c0 .79 0 1.579.098 2.368L262.167 415.6c23.385 11.742 32.857 40.159 21.214 63.544S243.222 512 219.837 500.357L62.458 421.618c-1.085-.493-2.17-1.085-3.256-1.677-4.835-2.763-9.078-6.315-12.432-10.46-4.54-5.328-7.697-11.544-9.473-18.155-3.256-11.84-1.874-24.865 4.737-36.113a34 34 0 0 1 1.973-3.157l66.208-99.361c26.345-39.567 70.746-63.248 118.207-63.248h74.2c45.881 0 88.902 22.2 115.641 59.498l50.026 69.957a51.8 51.8 0 0 1 5.427 9.275c2.861 6.611 4.243 13.617 3.947 20.524-.296 10.459-4.144 20.72-11.051 29.009m-115.246-50.125c0-23.977-19.438-43.415-43.415-43.415s-43.415 19.438-43.415 43.415S283.973 371 307.95 371s43.415-19.438 43.415-43.415"/></svg>