<svg xmlns="http://www.w3.org/2000/svg" viewBox="0 0 512 512"><!--! Font Awesome Free 7.0.1 by @fontawesome - https://fontawesome.com License - https://fontawesome.com/license/free (Icons: CC BY 4.0, Fonts: SIL OFL 1.1, Code: MIT License) Copyright 2025 Fonticons, Inc.--><path fill="currentColor" d="M276.066 11.05C265.016 0 247.072 0 236.022 11.05L151.16 95.912c-11.05 11.05-11.05 28.994 0 40.044s28.995 11.05 40.044 0l36.597-36.597v315.934l-36.597-36.508c-11.05-11.05-28.994-11.05-40.044 0s-11.05 28.994 0 40.044l84.862 84.862C241.326 508.994 248.486 512 256 512s14.674-3.006 19.978-8.31l84.862-84.861c11.05-11.05 11.05-28.995 0-40.044-11.05-11.05-28.995-11.05-40.044 0l-36.597 36.596V99.36l36.597 36.597c11.05 11.05 28.994 11.05 40.044 0s11.05-28.995 0-40.044L275.978 11.05z"/></svg>