<svg xmlns="http://www.w3.org/2000/svg" viewBox="0 0 512 512"><!--! Font Awesome Free 7.0.1 by @fontawesome - https://fontawesome.com License - https://fontawesome.com/license/free (Icons: CC BY 4.0, Fonts: SIL OFL 1.1, Code: MIT License) Copyright 2025 Fonticons, Inc.--><path fill="currentColor" d="M185.5 231.029c59.13 0 107.02-47.892 107.02-107.02S244.63 16.99 185.5 16.99c-59.128 0-107.019 47.892-107.019 107.02s47.891 107.02 107.02 107.02m-26.487 49.942C71.168 280.971 0 352.14 0 439.985c0 14.626 11.861 26.487 26.487 26.487h175.245l9.721-48.605c3.835-19.352 13.378-37.1 27.29-51.012l60.02-60.02c-24.971-16.321-54.758-25.775-86.864-25.775h-52.975zm94.445 145.28-10.613 53.153a12 12 0 0 0-.267 2.586c0 7.135 5.797 13.02 13.02 13.02.893 0 1.695-.089 2.587-.267l53.153-10.613c11.059-2.23 21.226-7.67 29.163-15.607L446.54 362.485l-71.347-71.347-106.038 106.039c-7.938 7.937-13.378 18.104-15.608 29.163zm238.833-109.696c19.709-19.71 19.709-51.637 0-71.346-19.71-19.71-51.637-19.71-71.347 0l-25.685 25.685 71.347 71.346z"/></svg>