<svg xmlns="http://www.w3.org/2000/svg" viewBox="0 0 512 512"><!--! Font Awesome Free 7.0.1 by @fontawesome - https://fontawesome.com License - https://fontawesome.com/license/free (Icons: CC BY 4.0, Fonts: SIL OFL 1.1, Code: MIT License) Copyright 2025 Fonticons, Inc.--><path fill="currentColor" d="M227.5 10.027c17.705-10.027 39.385-10.027 57 0l173.436 98.28c18.067 10.299 29.268 29.449 29.268 50.315v194.756c0 20.776-11.201 40.016-29.268 50.314L284.5 501.973c-17.705 10.027-39.385 10.027-57 0L54.064 403.602c-18.067-10.298-29.268-29.538-29.268-50.315V158.532c0-20.776 11.201-40.017 29.268-50.315zm46.973 66.123c-8.491-13.73-28.364-13.73-36.855 0l-69.195 111.74-77.143-41.824-3.432-1.445c-8.04-2.439-16.983.994-21.138 8.672s-2.168 17.073 4.246 22.402l2.98 2.078 75.337 40.83-67.387 108.94c-7.137 11.652-1.988 26.828 10.659 31.706l145.434 55.915v35.862c0 9.937 8.13 18.066 18.066 18.066 9.937 0 18.067-8.13 18.067-18.066v-35.862l145.434-55.915c12.646-4.878 17.795-20.054 10.659-31.616l-67.478-108.94 75.337-40.83c8.762-4.787 12.014-15.718 7.316-24.48s-15.717-12.014-24.48-7.317l-77.233 41.824zm-42.456 298.004-110.205-42.366 49.231-79.582zm158.261-42.366-110.205 42.366 60.974-121.948zm-77.053-104.784-57.18 114.36-57.18-114.36zm-10.207-36.133h-94.036l46.973-75.879 46.972 75.879z"/></svg>