<svg xmlns="http://www.w3.org/2000/svg" viewBox="0 0 512 512"><!--! Font Awesome Free 7.0.1 by @fontawesome - https://fontawesome.com License - https://fontawesome.com/license/free (Icons: CC BY 4.0, Fonts: SIL OFL 1.1, Code: MIT License) Copyright 2025 Fonticons, Inc.--><path fill="currentColor" d="M155.453 386.947c-2.61 6.148-4.548 12.548-5.727 19.032-12.21 7.41-26.526 11.705-41.937 11.705-44.631 0-80.842-36.21-80.842-80.842V94.316C12.042 94.316 0 82.274 0 67.368c0-14.905 12.042-26.947 26.947-26.947h161.685c14.905 0 26.947 12.042 26.947 26.947 0 14.906-12.042 26.948-26.947 26.948v215.242zM80.843 94.316v107.79h53.894V94.315zM296.42 40.42h134.737c14.905 0 26.947 12.042 26.947 26.947 0 14.906-12.042 26.948-26.947 26.948v129.179l76.884 179.368a49.2 49.2 0 0 1 3.705 14.316l.253.505h-.253q.253 2.274.253 4.548c0 27.2-22.063 49.347-49.347 49.347H237.895c-27.2 0-49.348-22.063-49.348-49.347q0-2.274.253-4.548h-.253l.253-.505a49.9 49.9 0 0 1 3.705-14.316l76.969-179.368V94.315c-14.906 0-26.948-12.041-26.948-26.947s12.042-26.947 26.948-26.947zm85.221 204.295c-2.863-6.737-4.379-13.895-4.379-21.221V94.315h-53.895v129.18c0 7.326-1.515 14.484-4.379 21.22l-27.957 65.18h118.484l-27.958-65.18z"/></svg>