<svg xmlns="http://www.w3.org/2000/svg" viewBox="0 0 512 512"><!--! Font Awesome Free 7.0.1 by @fontawesome - https://fontawesome.com License - https://fontawesome.com/license/free (Icons: CC BY 4.0, Fonts: SIL OFL 1.1, Code: MIT License) Copyright 2025 Fonticons, Inc.--><path fill="currentColor" d="M106.77 66.951c-11.012-11.012-28.895-11.012-39.907 0l-56.38 56.38C2.38 131.436 0 143.504 4.405 154.076c4.404 10.57 14.711 17.354 26.075 17.354h28.19v197.33c0 46.69 37.88 84.57 84.57 84.57H256c15.593 0 28.19-12.598 28.19-28.19s-12.597-28.19-28.19-28.19H143.24c-15.592 0-28.19-12.598-28.19-28.19V171.43h28.19c11.364 0 21.671-6.871 26.076-17.442s1.938-22.64-6.079-30.745l-56.38-56.38zM405.23 445.05c11.012 11.012 28.895 11.012 39.907 0l56.38-56.38c8.104-8.105 10.483-20.173 6.078-30.745-4.404-10.57-14.711-17.354-26.075-17.354h-28.19V143.24c0-46.69-37.88-84.57-84.57-84.57H256c-15.593 0-28.19 12.598-28.19 28.19s12.597 28.19 28.19 28.19h112.76c15.592 0 28.19 12.598 28.19 28.19v197.33h-28.19c-11.364 0-21.671 6.871-26.076 17.442s-1.938 22.64 6.079 30.745l56.38 56.38z"/></svg>