<svg xmlns="http://www.w3.org/2000/svg" viewBox="0 0 512 512"><!--! Font Awesome Free 7.0.1 by @fontawesome - https://fontawesome.com License - https://fontawesome.com/license/free (Icons: CC BY 4.0, Fonts: SIL OFL 1.1, Code: MIT License) Copyright 2025 Fonticons, Inc.--><path fill="currentColor" d="M236.8 160v-38.4h38.4V160zm-6.4-83.2c-21.2 0-38.4 17.2-38.4 38.4v3.2H97.28c-8.32-17.04-25.84-28.8-46.08-28.8C22.96 89.6 0 112.56 0 140.8S22.96 192 51.2 192c20.24 0 37.76-11.76 46.08-28.8h53.52c-47.12 31.68-79.12 84-83.2 144H64c-21.2 0-38.4 17.2-38.4 38.4v51.2c0 21.2 17.2 38.4 38.4 38.4h51.2c21.2 0 38.4-17.2 38.4-38.4v-51.2c0-21.2-17.2-38.4-38.4-38.4h-2.64c4.72-53.6 38.8-98.72 86-119.28 6.88 10.16 18.56 16.88 31.84 16.88h51.2c13.28 0 24.88-6.72 31.84-16.88 47.2 20.56 81.28 65.68 86 119.28h-2.64c-21.2 0-38.4 17.2-38.4 38.4v51.2c0 21.2 17.2 38.4 38.4 38.4H448c21.2 0 38.4-17.2 38.4-38.4v-51.2c0-21.2-17.2-38.4-38.4-38.4h-3.6c-4-60-36.08-112.32-83.2-144h53.52c8.32 17.04 25.84 28.8 46.08 28.8 28.24 0 51.2-22.96 51.2-51.2s-22.96-51.2-51.2-51.2c-20.24 0-37.76 11.76-46.08 28.8H320v-3.2c0-21.2-17.2-38.4-38.4-38.4zM70.4 352h38.4v38.4H70.4zm332.8 38.4V352h38.4v38.4z"/></svg>