<svg xmlns="http://www.w3.org/2000/svg" viewBox="0 0 512 512"><!--! Font Awesome Free 7.0.1 by @fontawesome - https://fontawesome.com License - https://fontawesome.com/license/free (Icons: CC BY 4.0, Fonts: SIL OFL 1.1, Code: MIT License) Copyright 2025 Fonticons, Inc.--><path fill="currentColor" d="M446.803 223.754H512C497.389 107.066 404.884 14.561 288.195.05v65.197c81.017 13.503 145.005 77.49 158.608 158.507m65.096 64.492h-65.196c-13.503 81.017-77.49 145.004-158.508 158.507v65.197C404.885 497.44 497.39 404.934 511.9 288.246M0 288.246C14.51 404.934 107.015 497.439 223.704 511.95v-65.197C142.687 433.25 78.8 369.263 65.197 288.246zm0-64.492h65.197C78.8 142.737 142.687 78.75 223.704 65.247V.05C107.015 14.56 14.511 107.066 0 223.754m207.581-64.49c0-17.837-14.41-32.246-32.245-32.246-17.836 0-32.246 14.41-32.246 32.245v193.474c0 17.836 14.41 32.245 32.246 32.245 17.835 0 32.245-14.41 32.245-32.245v-64.491h96.737v64.49c0 17.837 14.41 32.246 32.246 32.246s32.245-14.41 32.245-32.245V159.263c0-17.836-14.41-32.245-32.245-32.245-17.836 0-32.246 14.41-32.246 32.245v64.491h-96.737z"/></svg>