<svg xmlns="http://www.w3.org/2000/svg" viewBox="0 0 512 512"><!--! Font Awesome Free 7.0.1 by @fontawesome - https://fontawesome.com License - https://fontawesome.com/license/free (Icons: CC BY 4.0, Fonts: SIL OFL 1.1, Code: MIT License) Copyright 2025 Fonticons, Inc.--><path fill="currentColor" d="M64.037 255.95 92.532 27.995C94.532 11.998 108.129 0 124.326 0h168.567c14.997 0 27.095 12.098 27.095 27.095 0 3.2-.6 6.498-1.7 9.498l-46.291 123.376H411.27c20.196 0 36.693 16.397 36.693 36.693 0 7.398-2.2 14.597-6.4 20.696L249.402 498.303C243.502 506.9 233.804 512 223.506 512h-2.9c-15.696 0-28.494-12.798-28.494-28.494q0-3.45.9-6.9l46.991-188.662H96.031c-17.696 0-31.994-14.297-31.994-31.994"/></svg>