<svg xmlns="http://www.w3.org/2000/svg" viewBox="0 0 512 512"><!--! Font Awesome Free 7.0.1 by @fontawesome - https://fontawesome.com License - https://fontawesome.com/license/free (Icons: CC BY 4.0, Fonts: SIL OFL 1.1, Code: MIT License) Copyright 2025 Fonticons, Inc.--><path fill="currentColor" d="M255.956 512c-86.385 0-156.418-70.032-156.418-156.417 0-76.698 55.19-140.42 127.978-153.751v-41.949l-44.17 22.041-2.666 1.155c-13.509 5.066-28.884-.71-35.46-13.953-6.577-13.153-1.956-28.973 10.22-36.705l2.488-1.422 34.483-17.241-34.483-17.241c-14.042-7.021-19.73-24.085-12.709-38.127 6.577-13.153 22.04-19.02 35.55-13.864l2.666 1.155 44.17 22.04V28.44c0-15.731 12.709-28.44 28.44-28.44 15.73 0 28.439 12.709 28.439 28.44v39.282l44.17-22.041 2.666-1.155c13.509-5.155 28.884.71 35.46 13.864s1.956 29.061-10.22 36.705l-2.488 1.422-34.394 17.241 34.394 17.153c14.042 7.02 19.73 24.084 12.709 38.126-6.577 13.154-21.952 19.02-35.46 13.865l-2.667-1.156-44.17-22.04v41.948c72.787 13.42 127.978 77.142 127.978 153.751 0 86.385-70.033 156.417-156.418 156.417zm0-56.879c55.012 0 99.538-44.526 99.538-99.538 0-55.013-44.526-99.539-99.538-99.539-55.013 0-99.539 44.526-99.539 99.539s44.526 99.538 99.539 99.538"/></svg>