<svg xmlns="http://www.w3.org/2000/svg" viewBox="0 0 512 512"><!--! Font Awesome Free 7.0.1 by @fontawesome - https://fontawesome.com License - https://fontawesome.com/license/free (Icons: CC BY 4.0, Fonts: SIL OFL 1.1, Code: MIT License) Copyright 2025 Fonticons, Inc.--><path fill="currentColor" d="M410.445 508.48c-38.897 0-70.402-31.505-70.402-70.402s31.505-70.403 70.402-70.403 70.402 31.505 70.402 70.403c0 38.897-31.505 70.402-70.402 70.402m7.392-506.896a52.2 52.2 0 0 1 35.817 14.256l41.537 39.426C506.28 65.826 512 80.786 510.592 96.01c-1.056 11.704-6.16 22.705-14.52 30.977l-174.51 174.685c-6.424 6.425-13.816 11.793-22 15.84L183.31 375.597a84.9 84.9 0 0 0-22.001 15.84L80.347 472.4l1.496 1.584c6.776 8.272 6.248 20.504-1.496 28.249-7.745 7.744-19.977 8.184-28.25 1.496l-1.583-1.496L8.272 459.99l-1.496-1.584C0 450.134.528 437.902 8.272 430.157c7.745-7.744 19.977-8.184 28.25-1.496l1.583 1.496 80.963-80.962c6.424-6.424 11.792-13.817 15.84-22l58.17-116.252a84.9 84.9 0 0 1 15.84-22.001L381.14 16.809a51.9 51.9 0 0 1 36.697-15.225"/></svg>