<svg xmlns="http://www.w3.org/2000/svg" viewBox="0 0 512 512"><!--! Font Awesome Free 7.0.1 by @fontawesome - https://fontawesome.com License - https://fontawesome.com/license/free (Icons: CC BY 4.0, Fonts: SIL OFL 1.1, Code: MIT License) Copyright 2025 Fonticons, Inc.--><path fill="currentColor" d="M455.111 113.778H56.89C25.51 113.778 0 139.288 0 170.667v170.666c0 31.378 25.511 56.89 56.889 56.89h104.444c15.111 0 29.6-5.956 40.267-16.623l30.133-30.133c6.4-6.4 15.2-10.045 24.267-10.045s17.867 3.645 24.267 10.045L310.4 381.6c10.667 10.667 25.156 16.622 40.267 16.622H455.11c31.378 0 56.889-25.51 56.889-56.889V170.667c0-31.378-25.511-56.89-56.889-56.89m-384 128c0-31.378 25.511-56.89 56.889-56.89s56.889 25.512 56.889 56.89-25.511 56.889-56.889 56.889-56.889-25.511-56.889-56.89M384 184.888c31.378 0 56.889 25.512 56.889 56.89S415.378 298.667 384 298.667s-56.889-25.511-56.889-56.89c0-31.377 25.511-56.888 56.889-56.888"/></svg>