<svg xmlns="http://www.w3.org/2000/svg" viewBox="0 0 512 512"><!--! Font Awesome Free 7.0.1 by @fontawesome - https://fontawesome.com License - https://fontawesome.com/license/free (Icons: CC BY 4.0, Fonts: SIL OFL 1.1, Code: MIT License) Copyright 2025 Fonticons, Inc.--><path fill="currentColor" d="M346.07 12.823C358.891 0 379.716 0 392.54 12.823l82.068 82.068c12.823 12.823 12.823 33.648 0 46.47L392.54 223.43c-12.823 12.823-33.648 12.823-46.47 0-12.824-12.823-12.824-33.647 0-46.47l25.953-26.057H155.877c-36.212 0-65.654 29.442-65.654 65.654v32.827c0 18.158-14.67 32.827-32.827 32.827S24.57 267.54 24.57 249.383v-32.827c0-72.527 58.781-131.308 131.308-131.308h216.146L345.967 59.19c-12.823-12.823-12.823-33.647 0-46.47zM247.587 275.44c12.823-12.823 33.648-12.823 46.47 0l82.069 82.068c12.823 12.823 12.823 33.647 0 46.47l-82.068 82.068c-12.823 12.823-33.648 12.823-46.47 0-12.824-12.823-12.824-33.648 0-46.47l25.953-26.057H123.05c-18.157 0-32.827 14.67-32.827 32.827v32.827c0 18.157-14.67 32.827-32.827 32.827S24.57 497.33 24.57 479.173v-32.827c0-54.37 44.111-98.481 98.481-98.481h150.492l-26.057-26.057c-12.823-12.823-12.823-33.648 0-46.47z"/></svg>