<svg xmlns="http://www.w3.org/2000/svg" viewBox="0 0 512 512"><!--! Font Awesome Free 7.0.1 by @fontawesome - https://fontawesome.com License - https://fontawesome.com/license/free (Icons: CC BY 4.0, Fonts: SIL OFL 1.1, Code: MIT License) Copyright 2025 Fonticons, Inc.--><path fill="currentColor" d="M343.644 209.022 236.356 40.667c-4.267-6.756-11.2-11.378-19.023-12.711l-38.31-6.756c-9.6-1.689-17.956 6.489-16.534 16.089l21.333 143.644L90.49 164.49l-30.045-54.933c-3.11-5.778-8.71-9.778-15.022-10.845l-15.2-2.667c-8.71-1.51-16.71 5.245-16.71 14.045l.532 94.489c.178 27.466 19.912 50.933 47.023 55.733l12 2.133 371.2 65.423c27.11 4.8 52.889-13.334 57.689-40.356s-13.334-52.889-40.356-57.689zm-144.533 169.69c15.733 0 28.445-12.712 28.445-28.445s-12.712-28.445-28.445-28.445-28.444 12.711-28.444 28.445 12.71 28.444 28.444 28.444m116.622-13.6c0-15.734-12.71-28.445-28.444-28.445s-28.445 12.71-28.445 28.444 12.712 28.445 28.445 28.445 28.444-12.712 28.444-28.445M28.444 435.6C12.711 435.6 0 448.311 0 464.044c0 15.734 12.711 28.445 28.444 28.445h455.112c15.733 0 28.444-12.711 28.444-28.445S499.289 435.6 483.556 435.6z"/></svg>