<svg xmlns="http://www.w3.org/2000/svg" viewBox="0 0 512 512"><!--! Font Awesome Free 7.0.1 by @fontawesome - https://fontawesome.com License - https://fontawesome.com/license/free (Icons: CC BY 4.0, Fonts: SIL OFL 1.1, Code: MIT License) Copyright 2025 Fonticons, Inc.--><path fill="currentColor" d="M67.752 23.76c-10.633-6.493-24.56-3.01-31.053 7.622C13.362 69.964 0 115.226 0 163.5c0 48.274 13.362 93.536 36.7 132.117 6.492 10.634 20.325 14.115 31.052 7.622a22.543 22.543 0 0 0 7.622-31.053C56.272 240.568 45.262 203.304 45.262 163.5c0-39.804 11.01-77.068 30.206-108.78 6.493-10.633 3.012-24.56-7.622-31.053zm376.496 0c-10.634 6.493-14.115 20.326-7.622 31.053 19.196 31.712 30.206 68.976 30.206 108.78s-11.01 77.069-30.206 108.78c-6.493 10.634-3.012 24.56 7.622 31.054 10.633 6.493 24.56 3.01 31.053-7.623C498.638 257.224 512 211.961 512 163.688s-13.362-93.724-36.7-132.306c-6.492-10.633-20.325-14.115-31.052-7.622M286.159 215.631c17.973-10.445 30.112-29.83 30.112-52.132 0-33.217-27.007-60.224-60.224-60.224s-60.224 27.007-60.224 60.224c0 22.302 12.139 41.78 30.112 52.132v248.99c0 16.655 13.456 30.112 30.112 30.112s30.112-13.457 30.112-30.113zM154.607 98.571c6.775-10.54 3.67-24.467-6.775-31.242s-24.466-3.67-31.242 6.775c-16.561 25.784-26.16 56.46-26.16 89.395s9.599 63.612 26.16 89.396c6.776 10.539 20.702 13.55 31.242 6.775s13.55-20.702 6.775-31.241c-12.045-18.726-19.008-41.028-19.008-64.93 0-23.901 6.963-46.203 19.008-64.929m240.897-24.467c-6.775-10.54-20.702-13.55-31.242-6.775s-13.55 20.702-6.775 31.241c12.045 18.726 19.008 41.028 19.008 64.93 0 23.9-6.963 46.203-19.008 64.929-6.775 10.539-3.67 24.466 6.775 31.24 10.446 6.776 24.467 3.67 31.242-6.774 16.561-25.784 26.16-56.46 26.16-89.396s-9.599-63.611-26.16-89.395"/></svg>