<svg xmlns="http://www.w3.org/2000/svg" viewBox="0 0 512 512"><!--! Font Awesome Free 7.0.1 by @fontawesome - https://fontawesome.com License - https://fontawesome.com/license/free (Icons: CC BY 4.0, Fonts: SIL OFL 1.1, Code: MIT License) Copyright 2025 Fonticons, Inc.--><path fill="currentColor" d="M243.182 99.006c27.315 0 49.503-22.188 49.503-49.503S270.497 0 243.182 0 193.68 22.188 193.68 49.503s22.187 49.503 49.502 49.503m-76.552 130.74 19.978-19.978v61.26c0 24.751 10.784 48.353 29.613 64.442l63.116 54.1c5.215 4.507 8.663 10.695 9.635 17.502l11.138 77.878c2.21 15.47 16.53 26.254 32 24.044s26.255-16.53 24.045-32l-11.138-77.878c-2.918-20.42-13.172-38.983-28.818-52.42l-30.497-26.166V218.696l3.359 4.155c16.088 20.155 40.486 31.823 66.298 31.823h29.348c15.647 0 28.287-12.64 28.287-28.287s-12.64-28.288-28.287-28.288H355.36a28.34 28.34 0 0 1-22.1-10.607l-15.823-19.801a107.27 107.27 0 0 0-83.8-40.31c-28.465 0-55.78 11.315-75.846 31.47l-31.204 30.85a84.83 84.83 0 0 0-24.84 60.023v33.149c0 15.646 12.64 28.287 28.287 28.287s28.287-12.64 28.287-28.287v-33.15c0-7.513 3.006-14.673 8.31-19.977M177.59 388.33c-1.326 4.597-3.8 8.84-7.16 12.2l-60.376 60.375c-11.05 11.05-11.05 28.995 0 40.044 11.05 11.05 28.995 11.05 40.044 0l60.376-60.375c10.166-10.166 17.591-22.807 21.57-36.685l1.944-6.719-40.663-34.828c-2.21-1.945-4.42-3.89-6.541-6.012z"/></svg>