<svg xmlns="http://www.w3.org/2000/svg" viewBox="0 0 512 512"><!--! Font Awesome Free 7.0.1 by @fontawesome - https://fontawesome.com License - https://fontawesome.com/license/free (Icons: CC BY 4.0, Fonts: SIL OFL 1.1, Code: MIT License) Copyright 2025 Fonticons, Inc.--><path fill="currentColor" d="M117.6 70.489 94.844 184.267h-73.51A21.28 21.28 0 0 1 0 162.933v-3.644c0-2.311.356-4.533 1.067-6.756l22.489-67.466c2.933-8.711 11.11-14.578 20.266-14.578zm20.8 113.778 22.756-113.778h73.51v113.778zM277.333 70.489h73.511L373.6 184.267h-96.267zm117.067 0h73.778c9.155 0 17.333 5.867 20.266 14.578l22.49 67.466c.71 2.134 1.066 4.445 1.066 6.756v3.644a21.28 21.28 0 0 1-21.333 21.334h-73.511zM22.844 226.933h466.4c-.355 1.867-11.822 65.245-34.577 189.956-2.667 14.489-15.911 24.533-30.578 23.2s-25.867-13.511-25.867-28.267V397.6H113.778v14.222c0 14.756-11.2 27.022-25.867 28.356-14.667 1.333-27.911-8.8-30.578-23.29-22.666-124.8-34.222-188.088-34.489-189.955"/></svg>