<svg xmlns="http://www.w3.org/2000/svg" viewBox="0 0 512 512"><!--! Font Awesome Free 7.0.1 by @fontawesome - https://fontawesome.com License - https://fontawesome.com/license/free (Icons: CC BY 4.0, Fonts: SIL OFL 1.1, Code: MIT License) Copyright 2025 Fonticons, Inc.--><path fill="currentColor" d="M79.588 2.503C59.563 0 41.358 14.108 38.968 34.02 36.58 53.93 50.575 72.249 70.486 74.752l8.989 1.138c18.204 2.275 31.858 17.75 31.858 36.181v35.84H65.82a27.24 27.24 0 0 0-27.306 27.307 27.24 27.24 0 0 0 27.306 27.306h45.512v200.25c0 60.302 48.924 109.226 109.226 109.226h36.41c120.604 0 218.452-97.849 218.452-218.453v-36.41c0-60.301-48.924-109.226-109.226-109.226h-18.205c-20.138 0-36.409 16.27-36.409 36.409s16.27 36.409 36.41 36.409h18.204c20.138 0 36.409 16.27 36.409 36.409v36.409c0 80.44-65.195 145.635-145.636 145.635h-36.409c-20.138 0-36.409-16.27-36.409-36.409V202.524h45.511a27.24 27.24 0 0 0 27.307-27.306 27.24 27.24 0 0 0-27.307-27.307h-45.51v-35.84c.113-55.182-40.847-101.717-95.574-108.544L79.588 2.39z"/></svg>