<svg xmlns="http://www.w3.org/2000/svg" viewBox="0 0 512 512"><!--! Font Awesome Free 7.0.1 by @fontawesome - https://fontawesome.com License - https://fontawesome.com/license/free (Icons: CC BY 4.0, Fonts: SIL OFL 1.1, Code: MIT License) Copyright 2025 Fonticons, Inc.--><path fill="currentColor" d="M146.286 0c-20.229 0-36.572 16.343-36.572 36.571v237.715H64a27.363 27.363 0 0 0-27.429 27.428A27.363 27.363 0 0 0 64 329.143h45.714V384H64a27.363 27.363 0 0 0-27.429 27.429A27.363 27.363 0 0 0 64 438.857h45.714v36.572c0 20.228 16.343 36.571 36.572 36.571 20.228 0 36.571-16.343 36.571-36.571v-36.572h173.714A27.363 27.363 0 0 0 384 411.43 27.363 27.363 0 0 0 356.571 384H182.857v-54.857h128c90.857 0 164.572-73.714 164.572-164.572C475.429 73.714 401.714 0 310.857 0zm164.571 256h-128V73.143h128c50.514 0 91.429 40.914 91.429 91.428 0 50.515-40.915 91.429-91.429 91.429"/></svg>