<svg xmlns="http://www.w3.org/2000/svg" viewBox="0 0 512 512"><!--! Font Awesome Free 7.0.1 by @fontawesome - https://fontawesome.com License - https://fontawesome.com/license/free (Icons: CC BY 4.0, Fonts: SIL OFL 1.1, Code: MIT License) Copyright 2025 Fonticons, Inc.--><path fill="currentColor" d="M35.365 56.54C15.825 56.54 0 72.366 0 91.905v49.512c0 15.649 12.643 28.292 28.292 28.292s28.292-12.643 28.292-28.292v-28.292h56.585v282.921H84.877c-15.65 0-28.293 12.643-28.293 28.292s12.643 28.293 28.293 28.293h113.168c15.65 0 28.292-12.643 28.292-28.293s-12.643-28.292-28.292-28.292h-28.292V113.125h56.584v28.292c0 15.649 12.643 28.292 28.293 28.292s28.292-12.643 28.292-28.292V91.905c0-19.539-15.826-35.365-35.365-35.365zM387.78 347.773c-11.052-11.052-29-11.052-40.051 0s-11.052 29 0 40.05l56.584 56.585c11.052 11.052 29 11.052 40.051 0l56.584-56.584c11.052-11.052 11.052-29 0-40.051s-29-11.052-40.05 0l-8.312 8.31V153.177l8.311 8.31c11.052 11.052 29 11.052 40.051 0s11.052-28.999 0-40.05L444.364 64.85c-5.305-5.305-12.466-8.31-19.981-8.31s-14.677 3.005-19.982 8.31l-56.584 56.584c-11.052 11.052-11.052 29 0 40.051s29 11.052 40.051 0l8.31-8.31v202.908l-8.31-8.311z"/></svg>