<svg xmlns="http://www.w3.org/2000/svg" viewBox="0 0 512 512"><!--! Font Awesome Free 7.0.1 by @fontawesome - https://fontawesome.com License - https://fontawesome.com/license/free (Icons: CC BY 4.0, Fonts: SIL OFL 1.1, Code: MIT License) Copyright 2025 Fonticons, Inc.--><path fill="currentColor" d="M115.2 268.8c0-37.84-27.36-69.28-63.36-75.6 5.76-51.12 49.12-90.8 101.76-90.8h204.8c52.64 0 96 39.68 101.76 90.8-36 6.4-63.36 37.76-63.36 75.6v25.6H115.2zM0 358.4v-89.6c0-21.2 17.2-38.4 38.4-38.4s38.4 17.2 38.4 38.4v64h358.4v-64c0-21.2 17.2-38.4 38.4-38.4s38.4 17.2 38.4 38.4v89.6c0 28.24-22.96 51.2-51.2 51.2H51.2C22.96 409.6 0 386.64 0 358.4"/></svg>