<svg xmlns="http://www.w3.org/2000/svg" viewBox="0 0 512 512"><!--! Font Awesome Free 7.0.1 by @fontawesome - https://fontawesome.com License - https://fontawesome.com/license/free (Icons: CC BY 4.0, Fonts: SIL OFL 1.1, Code: MIT License) Copyright 2025 Fonticons, Inc.--><path fill="currentColor" d="M190.171 10.971c60.618 0 109.715 49.098 109.715 109.715S250.789 230.4 190.17 230.4c-60.617 0-109.714-49.097-109.714-109.714S129.554 10.97 190.171 10.97M163.017 281.6h54.309c27.154 0 52.754 6.674 75.245 18.377v3.932c-17.92 16.091-29.257 39.405-29.257 65.371v87.771c0 5.029.457 9.966 1.189 14.72H27.154C12.16 471.771 0 459.611 0 444.617 0 354.56 72.96 281.6 163.017 281.6m275.84.091c0-16.182-13.074-29.257-29.257-29.257s-29.257 13.075-29.257 29.257v43.795h58.514zM307.2 369.371c0-19.108 12.251-35.382 29.257-41.417v-46.263c0-40.411 32.732-73.142 73.143-73.142s73.143 32.731 73.143 73.142v46.263C499.749 333.99 512 350.263 512 369.371v87.772c0 24.228-19.657 43.886-43.886 43.886H351.086c-24.229 0-43.886-19.658-43.886-43.886z"/></svg>