<svg xmlns="http://www.w3.org/2000/svg" viewBox="0 0 512 512"><!--! Font Awesome Free 7.0.1 by @fontawesome - https://fontawesome.com License - https://fontawesome.com/license/free (Icons: CC BY 4.0, Fonts: SIL OFL 1.1, Code: MIT License) Copyright 2025 Fonticons, Inc.--><path fill="currentColor" d="M256.05 0c-67.352 0-121.904 54.552-121.904 121.905 0 67.352 54.552 121.905 121.905 121.905 67.352 0 121.905-54.553 121.905-121.905S323.403 0 256.05 0m60.953 317.765c-5.486-.508-11.174-.813-16.863-.813h-88.28c-5.689 0-11.276.305-16.863.813v68.572c16.762 7.72 28.444 24.685 28.444 44.292 0 26.92-21.841 48.761-48.762 48.761s-48.762-21.84-48.762-48.761c0-19.708 11.683-36.673 28.445-44.292V327.01C90.463 350.476 44.749 412.038 44.749 484.165c0 15.34 12.495 27.835 27.835 27.835h366.832c15.34 0 27.835-12.495 27.835-27.835 0-72.127-45.714-133.587-109.714-157.054v37.994c23.67 8.33 40.634 30.984 40.634 57.498v32.508c0 11.175-9.142 20.318-20.317 20.318s-20.317-9.143-20.317-20.318v-32.508c0-11.174-9.143-20.317-20.318-20.317s-20.317 9.143-20.317 20.317v32.508c0 11.175-9.143 20.318-20.318 20.318-11.174 0-20.317-9.143-20.317-20.318v-32.508c0-26.514 16.965-49.066 40.635-57.498v-47.34z"/></svg>