<svg xmlns="http://www.w3.org/2000/svg" viewBox="0 0 512 512"><!--! Font Awesome Free 7.0.1 by @fontawesome - https://fontawesome.com License - https://fontawesome.com/license/free (Icons: CC BY 4.0, Fonts: SIL OFL 1.1, Code: MIT License) Copyright 2025 Fonticons, Inc.--><path fill="currentColor" d="M25.6 76.8C11.44 76.8 0 88.24 0 102.4v307.2c0 14.16 11.44 25.6 25.6 25.6s25.6-11.44 25.6-25.6V264.24L119.36 128H51.2v-25.6c0-14.16-11.44-25.6-25.6-25.6M324.16 128h-59.44l-4.32 8.56-72.48 145.04h59.44l4.32-8.56zm-33.92 153.6h59.44l4.32-8.56L426.48 128h-59.44l-4.32 8.56zm-128-153.6-4.32 8.56L85.44 281.6h59.44l4.32-8.56L221.68 128zm230.4 153.6h68.16v128c0 14.16 11.44 25.6 25.6 25.6s25.6-11.44 25.6-25.6V102.4c0-14.16-11.44-25.6-25.6-25.6s-25.6 11.44-25.6 25.6v42.96z"/></svg>