<svg xmlns="http://www.w3.org/2000/svg" viewBox="0 0 512 512"><!--! Font Awesome Free 7.0.1 by @fontawesome - https://fontawesome.com License - https://fontawesome.com/license/free (Icons: CC BY 4.0, Fonts: SIL OFL 1.1, Code: MIT License) Copyright 2025 Fonticons, Inc.--><path fill="currentColor" d="M283.4 15.155C268.245 0 243.633 0 228.478 15.155L34.493 209.14c-15.155 15.156-15.155 39.767 0 54.923s39.767 15.155 54.922 0L256 97.478 422.585 263.94c15.155 15.155 39.767 15.155 54.922 0s15.155-39.767 0-54.922L283.522 15.034zm193.986 426.768L283.4 247.937c-15.155-15.155-39.767-15.155-54.922 0L34.493 441.923c-15.155 15.155-15.155 39.767 0 54.922s39.767 15.155 54.922 0L256 330.26l166.585 166.464c15.155 15.155 39.767 15.155 54.922 0s15.155-39.767 0-54.922z"/></svg>