<svg xmlns="http://www.w3.org/2000/svg" viewBox="0 0 512 512"><!--! Font Awesome Free 7.0.1 by @fontawesome - https://fontawesome.com License - https://fontawesome.com/license/free (Icons: CC BY 4.0, Fonts: SIL OFL 1.1, Code: MIT License) Copyright 2025 Fonticons, Inc.--><path fill="currentColor" d="M202.302 30.83h-67.024c-25.859 0-48.464 17.679-54.621 42.746L6.597 372.544C0 399.107 20.142 424.878 47.585 424.878h184.183c-9.851-21.461-15.305-45.21-15.305-70.366s5.454-48.992 15.305-70.366h-1.408c-15.568 0-28.146-12.578-28.146-28.146v-56.293c0-15.568 12.578-28.146 28.146-28.146s28.147 12.578 28.147 28.146v43.275c30.96-35.183 76.259-57.348 126.834-57.348q11.875 0 23.221 1.583l-28.146-113.64c-6.157-25.068-28.674-42.748-54.622-42.748h-67.287v56.293c0 15.568-12.578 28.146-28.147 28.146s-28.146-12.578-28.146-28.146V30.829zm183.04 450.34C455.266 481.17 512 424.439 512 354.513s-56.733-126.658-126.659-126.658-126.658 56.732-126.658 126.658 56.732 126.659 126.658 126.659M437.5 322.233l-32.28 32.28 32.28 32.28c5.453 5.454 5.453 14.426 0 19.879s-14.425 5.453-19.878 0l-32.28-32.28-32.281 32.28c-5.453 5.453-14.425 5.453-19.878 0-5.454-5.453-5.454-14.425 0-19.878l32.28-32.28-32.28-32.281c-5.454-5.453-5.454-14.425 0-19.878 5.453-5.454 14.425-5.454 19.878 0l32.28 32.28 32.28-32.28c5.454-5.454 14.426-5.454 19.88 0 5.452 5.453 5.452 14.425 0 19.878"/></svg>