<svg xmlns="http://www.w3.org/2000/svg" viewBox="0 0 512 512"><!--! Font Awesome Free 7.0.1 by @fontawesome - https://fontawesome.com License - https://fontawesome.com/license/free (Icons: CC BY 4.0, Fonts: SIL OFL 1.1, Code: MIT License) Copyright 2025 Fonticons, Inc.--><path fill="currentColor" d="m214.222 77.422 13.334 18.4 13.333-18.4c22.222-30.755 57.955-48.978 95.911-48.978 65.333 0 118.311 52.978 118.311 118.312v2.31c0 15.645-3.022 31.645-8.444 47.734A170.5 170.5 0 0 0 384 184.889c-94.222 0-170.667 76.444-170.667 170.667 0 25.333 5.511 49.422 15.467 71.11h-1.244c-13.778 0-27.378-4.088-38.312-12.533C124.356 364.623 0 248.8 0 149.067v-2.311C0 81.422 52.978 28.444 118.311 28.444c37.956 0 73.689 18.223 95.911 48.978M256 355.556c0-70.667 57.333-128 128-128s128 57.333 128 128c0 70.666-57.333 128-128 128s-128-57.334-128-128m157.689-68.445c-5.156-3.733-12.267-3.555-17.245.445l-71.11 56.888c-4.712 3.734-6.578 10.134-4.534 15.823s7.378 9.51 13.422 9.51h29.245l-14.134 37.69c-2.222 5.955-.177 12.71 4.978 16.533 5.156 3.822 12.267 3.556 17.245-.444l71.11-56.89c4.712-3.733 6.578-10.133 4.534-15.822-2.044-5.688-7.378-9.51-13.422-9.51h-29.245l14.134-37.69c2.222-5.955.177-12.71-4.978-16.533"/></svg>