<svg xmlns="http://www.w3.org/2000/svg" viewBox="0 0 512 512"><!--! Font Awesome Free 7.0.1 by @fontawesome - https://fontawesome.com License - https://fontawesome.com/license/free (Icons: CC BY 4.0, Fonts: SIL OFL 1.1, Code: MIT License) Copyright 2025 Fonticons, Inc.--><path fill="currentColor" d="M0 48.04C0 21.547 21.496.05 47.99.05h95.982c26.495 0 47.99 21.496 47.99 47.99V415.97c0 52.99-42.991 95.981-95.98 95.981S0 468.958 0 415.969zm239.953 361.53V138.123l48.09-48.09c18.697-18.697 49.091-18.697 67.887 0l67.887 67.886c18.697 18.697 18.697 49.09 0 67.887zM205.46 511.95l191.962-191.962h66.587c26.495 0 47.991 21.495 47.991 47.99v95.981c0 26.495-21.496 47.991-47.99 47.991H205.56zM79.984 64.037c-8.798 0-15.996 7.2-15.996 15.997v31.994c0 8.798 7.198 15.997 15.996 15.997h31.994c8.798 0 15.997-7.199 15.997-15.997V80.034c0-8.798-7.199-15.997-15.997-15.997zM63.988 208.01v31.994c0 8.798 7.198 15.997 15.996 15.997h31.994c8.798 0 15.997-7.199 15.997-15.997V208.01c0-8.798-7.199-15.997-15.997-15.997H79.984c-8.798 0-15.996 7.2-15.996 15.997M95.98 439.964a23.94 23.94 0 0 0 23.996-23.995 23.94 23.94 0 0 0-23.996-23.996 23.94 23.94 0 0 0-23.995 23.996 23.94 23.94 0 0 0 23.995 23.995"/></svg>