<svg xmlns="http://www.w3.org/2000/svg" viewBox="0 0 512 512"><!--! Font Awesome Free 7.0.1 by @fontawesome - https://fontawesome.com License - https://fontawesome.com/license/free (Icons: CC BY 4.0, Fonts: SIL OFL 1.1, Code: MIT License) Copyright 2025 Fonticons, Inc.--><path fill="currentColor" d="M227.556 35.556a21.28 21.28 0 0 1 21.333-21.334h99.555a21.28 21.28 0 0 1 21.334 21.334v42.666a21.28 21.28 0 0 1-21.334 21.334h-64v17.066l113.778 68.267h56.89c31.377 0 56.888 25.511 56.888 56.889v199.11c0 31.379-25.511 56.89-56.889 56.89H56.89C25.51 497.778 0 472.267 0 440.888v-199.11c0-31.378 25.511-56.89 56.889-56.89h56.889l113.778-68.266zM213.333 384v71.111h85.334V384c0-23.556-19.111-42.667-42.667-42.667S213.333 360.444 213.333 384M99.556 412.444c7.822 0 14.222-6.4 14.222-14.222v-28.444c0-7.822-6.4-14.222-14.222-14.222H71.11c-7.822 0-14.222 6.4-14.222 14.222v28.444c0 7.822 6.4 14.222 14.222 14.222zm14.222-128V256c0-7.822-6.4-14.222-14.222-14.222H71.11c-7.822 0-14.222 6.4-14.222 14.222v28.444c0 7.823 6.4 14.223 14.222 14.223h28.445c7.822 0 14.222-6.4 14.222-14.223m327.11 128c7.823 0 14.223-6.4 14.223-14.222v-28.444c0-7.822-6.4-14.222-14.222-14.222h-28.445c-7.822 0-14.222 6.4-14.222 14.222v28.444c0 7.822 6.4 14.222 14.222 14.222zm14.223-128V256c0-7.822-6.4-14.222-14.222-14.222h-28.445c-7.822 0-14.222 6.4-14.222 14.222v28.444c0 7.823 6.4 14.223 14.222 14.223h28.445c7.822 0 14.222-6.4 14.222-14.223m-199.111 0c23.556 0 42.667-19.11 42.667-42.666S279.556 199.11 256 199.11s-42.667 19.111-42.667 42.667c0 23.555 19.111 42.666 42.667 42.666"/></svg>