<svg xmlns="http://www.w3.org/2000/svg" viewBox="0 0 512 512"><!--! Font Awesome Free 7.0.1 by @fontawesome - https://fontawesome.com License - https://fontawesome.com/license/free (Icons: CC BY 4.0, Fonts: SIL OFL 1.1, Code: MIT License) Copyright 2025 Fonticons, Inc.--><path fill="currentColor" d="M128.025 0C92.732 0 64.037 28.694 64.037 63.988V303.94h182.065l-30.994-30.994c-9.398-9.398-9.398-24.596 0-33.894s24.595-9.398 33.893 0l71.986 71.986c9.398 9.398 9.398 24.595 0 33.894l-71.986 71.986c-9.398 9.398-24.595 9.398-33.893 0s-9.398-24.596 0-33.894l30.994-30.994H64.037v95.981c0 35.294 28.695 63.988 63.988 63.988h255.95c35.293 0 63.988-28.694 63.988-63.988V170.567c0-16.997-6.7-33.294-18.697-45.291L322.687 18.696C310.689 6.7 294.492 0 277.496 0zm261.449 175.966h-93.482a23.94 23.94 0 0 1-23.995-23.996V58.49z"/></svg>