<svg xmlns="http://www.w3.org/2000/svg" viewBox="0 0 512 512"><!--! Font Awesome Free 7.0.1 by @fontawesome - https://fontawesome.com License - https://fontawesome.com/license/free (Icons: CC BY 4.0, Fonts: SIL OFL 1.1, Code: MIT License) Copyright 2025 Fonticons, Inc.--><path fill="currentColor" d="M158.136 0a22.53 22.53 0 0 1 22.584 22.584v67.752h45.168c0-16.655 13.456-30.112 30.112-30.112s30.112 13.457 30.112 30.112h30.112c0-16.655 13.457-30.112 30.112-30.112 16.656 0 30.112 13.457 30.112 30.112h15.057c24.936 0 45.168 20.232 45.168 45.169v151.407a59.6 59.6 0 0 1-6.4 26.913l-19.007 38.016c-3.106 6.305-4.8 13.174-4.8 20.232v79.703c0 33.217-27.006 60.224-60.224 60.224l-180.578-.094c-33.218 0-60.225-27.007-60.225-60.224v-79.703c0-7.058-1.6-13.927-4.799-20.232l-18.914-37.922a59.6 59.6 0 0 1-6.399-26.913V135.505c0-24.937 20.232-45.169 45.168-45.169h15.057V22.584A22.53 22.53 0 0 1 158.136 0m30.112 165.617a22.53 22.53 0 0 0-22.584 22.584 22.53 22.53 0 0 0 22.584 22.584h135.504a22.53 22.53 0 0 0 22.584-22.584 22.53 22.53 0 0 0-22.584-22.584zm0 90.336a22.53 22.53 0 0 0-22.584 22.584 22.53 22.53 0 0 0 22.584 22.584h135.504a22.53 22.53 0 0 0 22.584-22.584 22.53 22.53 0 0 0-22.584-22.584z"/></svg>