<svg xmlns="http://www.w3.org/2000/svg" viewBox="0 0 512 512"><!--! Font Awesome Free 7.0.1 by @fontawesome - https://fontawesome.com License - https://fontawesome.com/license/free (Icons: CC BY 4.0, Fonts: SIL OFL 1.1, Code: MIT License) Copyright 2025 Fonticons, Inc.--><path fill="currentColor" d="M295.289 52.978c10.667 4.444 17.6 14.755 17.6 26.31V150.4h42.667c86.4 0 156.444 70.044 156.444 156.444 0 100.712-72.444 145.69-89.067 154.756-2.222 1.244-4.71 1.689-7.2 1.689-9.689 0-17.51-7.911-17.51-17.511 0-6.667 3.821-12.8 8.71-17.334 8.356-7.822 19.734-23.466 19.734-50.4 0-47.11-38.223-85.333-85.334-85.333H312.89v71.111c0 11.467-6.933 21.867-17.6 26.311-10.667 4.445-22.845 1.956-31.022-6.133L122.044 241.778c-11.11-11.111-11.11-29.156 0-40.267L264.267 59.29c8.177-8.178 20.355-10.578 31.022-6.133zm-112.533 4.178c8.355 8.355 8.355 21.866 0 30.133L48.533 221.51l134.223 134.133c8.355 8.356 8.355 21.867 0 30.134s-21.867 8.355-30.134 0L8.89 242.133C3.2 236.8 0 229.333 0 221.511s3.2-15.289 8.889-20.622L152.533 57.156c8.356-8.356 21.867-8.356 30.134 0z"/></svg>