<svg xmlns="http://www.w3.org/2000/svg" viewBox="0 0 512 512"><!--! Font Awesome Free 7.0.1 by @fontawesome - https://fontawesome.com License - https://fontawesome.com/license/free (Icons: CC BY 4.0, Fonts: SIL OFL 1.1, Code: MIT License) Copyright 2025 Fonticons, Inc.--><path fill="currentColor" d="M0 71.111c0-31.378 25.511-56.889 56.889-56.889h227.555c31.378 0 56.89 25.511 56.89 56.89v107.821c-41.69 16.89-71.112 57.778-71.112 105.511 0 24.623 7.822 47.467 21.156 66.134-45.778 18.666-78.045 63.644-78.045 116.178v2.577H56.89C25.51 469.333 0 443.823 0 412.444zm128 298.667v56.889h47.467c6.4-26.134 18.933-49.867 35.91-69.6-5.421-17.334-21.6-29.956-40.71-29.956-23.556 0-42.667 19.111-42.667 42.667M244.444 213.6a13.6 13.6 0 0 0-2.666-.267h-28.445c-7.822 0-14.222 6.4-14.222 14.223V256c0 7.822 6.4 14.222 14.222 14.222h14.845c1.866-20.266 7.466-39.378 16.266-56.622M99.556 99.556c-7.823 0-14.223 6.4-14.223 14.222v28.444c0 7.822 6.4 14.222 14.223 14.222H128c7.822 0 14.222-6.4 14.222-14.222v-28.444c0-7.822-6.4-14.222-14.222-14.222zm99.555 14.222v28.444c0 7.822 6.4 14.222 14.222 14.222h28.445c7.822 0 14.222-6.4 14.222-14.222v-28.444c0-7.822-6.4-14.222-14.222-14.222h-28.445c-7.822 0-14.222 6.4-14.222 14.222m-99.555 99.555c-7.823 0-14.223 6.4-14.223 14.223V256c0 7.822 6.4 14.222 14.223 14.222H128c7.822 0 14.222-6.4 14.222-14.222v-28.444c0-7.823-6.4-14.223-14.222-14.223zm213.333 71.111c0-39.288 31.822-71.11 71.111-71.11s71.111 31.822 71.111 71.11c0 39.29-31.822 71.112-71.111 71.112s-71.111-31.823-71.111-71.112M256 469.334C256 422.221 294.222 384 341.333 384h85.334c47.11 0 85.333 38.222 85.333 85.333 0 15.734-12.711 28.445-28.444 28.445H284.444c-15.733 0-28.444-12.711-28.444-28.445"/></svg>