<svg xmlns="http://www.w3.org/2000/svg" viewBox="0 0 512 512"><!--! Font Awesome Free 7.0.1 by @fontawesome - https://fontawesome.com License - https://fontawesome.com/license/free (Icons: CC BY 4.0, Fonts: SIL OFL 1.1, Code: MIT License) Copyright 2025 Fonticons, Inc.--><path fill="currentColor" d="M195.765 120.47c0-33.223 27.011-60.235 60.235-60.235 29.835 0 54.588 21.647 59.388 50.165 2.73 16.376 18.26 27.482 34.73 24.753 16.47-2.73 27.482-18.259 24.753-34.73C365.27 43.389 315.765 0 256 0c-66.541 0-120.47 53.93-120.47 120.47v60.236c-33.224 0-60.236 27.012-60.236 60.235v210.824c0 33.223 27.012 60.235 60.235 60.235h240.942c33.223 0 60.235-27.012 60.235-60.235V240.94c0-33.223-27.012-60.235-60.235-60.235H195.765z"/></svg>