<svg xmlns="http://www.w3.org/2000/svg" viewBox="0 0 512 512"><!--! Font Awesome Free 7.0.1 by @fontawesome - https://fontawesome.com License - https://fontawesome.com/license/free (Icons: CC BY 4.0, Fonts: SIL OFL 1.1, Code: MIT License) Copyright 2025 Fonticons, Inc.--><path fill="currentColor" d="M478.994 234.057H460.8v131.657c0 32.275-26.24 58.515-58.514 58.515H277.029c-21.943-83.84-85.486-150.858-167.315-177.646v-12.526H91.52c-14.171 0-25.691-11.52-25.691-25.691a25.66 25.66 0 0 1 7.862-18.469L260.114 10.15C266.88 3.657 275.84 0 285.257 0s18.377 3.657 25.143 10.149l186.423 179.748a25.66 25.66 0 0 1 7.863 18.469c0 14.171-11.52 25.691-25.692 25.691m-215.68-43.886a21.89 21.89 0 0 0-21.943 21.943V256a21.89 21.89 0 0 0 21.943 21.943H307.2A21.89 21.89 0 0 0 329.143 256v-43.886a21.89 21.89 0 0 0-21.943-21.943zM29.257 277.943c117.12 0 212.114 94.994 212.114 212.114A21.89 21.89 0 0 1 219.43 512a21.89 21.89 0 0 1-21.943-21.943c0-92.891-75.337-168.228-168.229-168.228a21.89 21.89 0 0 1-21.943-21.943 21.89 21.89 0 0 1 21.943-21.943m7.314 175.543c16.183 0 29.258 13.074 29.258 29.257S52.754 512 36.57 512c-16.182 0-29.257-13.074-29.257-29.257s13.075-29.257 29.257-29.257M7.314 387.657a21.89 21.89 0 0 1 21.943-21.943c68.663 0 124.343 55.68 124.343 124.343A21.89 21.89 0 0 1 131.657 512a21.89 21.89 0 0 1-21.943-21.943c0-44.434-36.023-80.457-80.457-80.457a21.89 21.89 0 0 1-21.943-21.943"/></svg>