<svg xmlns="http://www.w3.org/2000/svg" viewBox="0 0 512 512"><!--! Font Awesome Free 7.0.1 by @fontawesome - https://fontawesome.com License - https://fontawesome.com/license/free (Icons: CC BY 4.0, Fonts: SIL OFL 1.1, Code: MIT License) Copyright 2025 Fonticons, Inc.--><path fill="currentColor" d="M269.421 2.905A32.3 32.3 0 0 0 256 0a32.3 32.3 0 0 0-13.421 2.905L53.984 82.93c-22.034 9.314-38.46 31.048-38.36 57.29.501 99.354 41.365 281.138 213.935 363.767a61.18 61.18 0 0 0 52.882 0c172.67-82.629 213.534-264.413 213.935-363.768.1-26.24-16.326-47.975-38.36-57.29zM256 128.2a23.98 23.98 0 0 1 24.038 24.038c0 22.936 27.743 34.454 43.968 18.228 9.415-9.414 24.639-9.414 33.953 0s9.415 24.639 0 33.953c-16.225 16.226-4.707 43.97 18.229 43.97a23.98 23.98 0 0 1 24.037 24.037 23.98 23.98 0 0 1-24.037 24.037c-22.936 0-34.454 27.744-18.229 43.969 9.415 9.415 9.415 24.638 0 33.953s-24.638 9.415-33.953 0c-16.225-16.225-43.968-4.707-43.968 18.228A23.98 23.98 0 0 1 256 416.651a23.98 23.98 0 0 1-24.038-24.038c0-22.935-27.743-34.453-43.968-18.228-9.415 9.415-24.639 9.415-33.953 0s-9.415-24.639 0-33.953c16.225-16.225 4.707-43.969-18.229-43.969a23.98 23.98 0 0 1-24.037-24.037 23.98 23.98 0 0 1 24.037-24.038c22.936 0 34.454-27.743 18.229-43.969-9.415-9.414-9.415-24.638 0-33.953 9.414-9.314 24.638-9.414 33.953 0 16.225 16.226 43.968 4.708 43.968-18.228A23.98 23.98 0 0 1 256 128.2m-32.05 136.213a23.98 23.98 0 0 0 24.037-24.037 23.98 23.98 0 0 0-24.037-24.038 23.98 23.98 0 0 0-24.038 24.038 23.98 23.98 0 0 0 24.038 24.037m88.138 40.063a23.98 23.98 0 0 0-24.038-24.038 23.98 23.98 0 0 0-24.037 24.038 23.98 23.98 0 0 0 24.037 24.037 23.98 23.98 0 0 0 24.038-24.037"/></svg>