<svg xmlns="http://www.w3.org/2000/svg" viewBox="0 0 512 512"><!--! Font Awesome Free 7.0.1 by @fontawesome - https://fontawesome.com License - https://fontawesome.com/license/free (Icons: CC BY 4.0, Fonts: SIL OFL 1.1, Code: MIT License) Copyright 2025 Fonticons, Inc.--><path fill="currentColor" d="M67.27 0C34.29 0 7.474 26.815 7.474 59.796v358.773c0 32.981 26.815 59.796 59.796 59.796h74.745V373.723c0-32.981 26.814-59.796 59.795-59.796h164.438V159.299c0-15.883-6.26-31.112-17.471-42.324L249.18 17.472C237.968 6.26 222.832 0 206.949 0zm244.321 164.438h-87.357a22.37 22.37 0 0 1-22.424-22.423V54.657zm-109.78 190.598c-10.278 0-18.687 8.41-18.687 18.687v119.59c0 10.278 8.409 18.687 18.686 18.687 10.278 0 18.686-8.409 18.686-18.686v-26.16h11.212c30.926 0 56.058-25.134 56.058-56.06 0-30.925-25.132-56.058-56.058-56.058zm29.897 74.745h-11.212v-37.372h11.212c10.277 0 18.686 8.409 18.686 18.686s-8.409 18.686-18.686 18.686m89.693-74.745c-10.277 0-18.686 8.41-18.686 18.687v119.59c0 10.278 8.41 18.687 18.686 18.687H351.3c26.815 0 48.584-21.77 48.584-48.584V403.62c0-26.814-21.77-48.584-48.584-48.584zm18.687 119.592v-82.22h11.211c6.167 0 11.212 5.046 11.212 11.212v59.796c0 6.166-5.045 11.212-11.212 11.212zm82.219-100.905v119.59c0 10.278 8.408 18.687 18.686 18.687 10.277 0 18.686-8.409 18.686-18.686v-41.11h26.16c10.278 0 18.687-8.408 18.687-18.686 0-10.277-8.41-18.686-18.687-18.686h-26.16V392.41h26.16c10.278 0 18.687-8.409 18.687-18.686 0-10.278-8.41-18.687-18.687-18.687h-44.846c-10.278 0-18.686 8.41-18.686 18.687"/></svg>