<svg xmlns="http://www.w3.org/2000/svg" viewBox="0 0 512 512"><!--! Font Awesome Free 7.0.1 by @fontawesome - https://fontawesome.com License - https://fontawesome.com/license/free (Icons: CC BY 4.0, Fonts: SIL OFL 1.1, Code: MIT License) Copyright 2025 Fonticons, Inc.--><path fill="currentColor" d="M36.571 0C16.343 0 0 16.343 0 36.571V475.43C0 495.657 16.343 512 36.571 512c20.229 0 36.572-16.343 36.572-36.571V73.143h146.286c40.342 0 73.142 32.8 73.142 73.143v182.857c0 20.228 16.343 36.571 36.572 36.571 20.228 0 36.571-16.343 36.571-36.571V146.286C365.714 65.486 300.23 0 219.43 0zm329.143 512C446.514 512 512 446.514 512 365.714V36.571C512 16.343 495.657 0 475.429 0c-20.229 0-36.572 16.343-36.572 36.571v329.143c0 40.343-32.8 73.143-73.143 73.143H219.43v-256c0-20.228-16.343-36.571-36.572-36.571-20.228 0-36.571 16.343-36.571 36.571V475.43c0 20.228 16.343 36.571 36.571 36.571z"/></svg>