<svg xmlns="http://www.w3.org/2000/svg" viewBox="0 0 512 512"><!--! Font Awesome Free 7.0.1 by @fontawesome - https://fontawesome.com License - https://fontawesome.com/license/free (Icons: CC BY 4.0, Fonts: SIL OFL 1.1, Code: MIT License) Copyright 2025 Fonticons, Inc.--><path fill="currentColor" d="M93.09 0a23.217 23.217 0 0 0-23.272 23.273c0 37.72 22.691 57.6 37.915 70.885l1.067.97c15.806 13.866 23.079 21.139 23.079 36.75a23.217 23.217 0 0 0 23.273 23.274 23.217 23.217 0 0 0 23.272-23.273c0-37.721-22.69-57.6-37.915-70.885l-1.067-.97c-15.806-13.77-23.078-21.14-23.078-36.751A23.217 23.217 0 0 0 93.09 0M38.789 201.697c-17.164 0-31.03 13.867-31.03 31.03V418.91c0 51.394 41.697 93.091 93.09 93.091H287.03c40.534 0 75.055-25.89 87.758-62.06h5.333c68.558 0 124.121-55.564 124.121-124.122s-55.563-124.121-124.12-124.121zM380.12 387.879V263.758c34.23 0 62.06 27.83 62.06 62.06s-27.83 62.06-62.06 62.06M224.97 23.273A23.217 23.217 0 0 0 201.697 0a23.217 23.217 0 0 0-23.273 23.273c0 37.72 22.691 57.6 37.915 70.885l1.067.97c15.806 13.866 23.079 21.139 23.079 36.75a23.217 23.217 0 0 0 23.273 23.274 23.217 23.217 0 0 0 23.272-23.273c0-37.721-22.69-57.6-37.915-70.885l-1.067-.97c-15.806-13.77-23.078-21.14-23.078-36.751"/></svg>