<svg xmlns="http://www.w3.org/2000/svg" viewBox="0 0 512 512"><!--! Font Awesome Free 7.0.1 by @fontawesome - https://fontawesome.com License - https://fontawesome.com/license/free (Icons: CC BY 4.0, Fonts: SIL OFL 1.1, Code: MIT License) Copyright 2025 Fonticons, Inc.--><path fill="currentColor" d="M141.52 19.193C132.714 5.983 116.23 0 100.989 4.629A36.07 36.07 0 0 0 75.36 39.176v216.768H39.233a27.03 27.03 0 0 0-27.096 27.095 27.03 27.03 0 0 0 27.096 27.096H75.36v162.576c0 19.983 16.144 36.128 36.127 36.128s36.128-16.145 36.128-36.128V310.135h101.046l121.705 182.672c8.807 13.21 25.29 19.193 40.531 14.564 15.242-4.629 25.741-18.741 25.741-34.66V310.135h36.128a27.03 27.03 0 0 0 27.096-27.096 27.03 27.03 0 0 0-27.096-27.095H436.64V39.176c0-19.983-16.144-36.128-36.127-36.128s-36.128 16.145-36.128 36.128v216.768h-64.918L141.633 19.193zm194.074 290.942h28.79v43.241zm-123.06-54.191h-64.918V158.51z"/></svg>