<svg xmlns="http://www.w3.org/2000/svg" viewBox="0 0 512 512"><!--! Font Awesome Free 7.0.1 by @fontawesome - https://fontawesome.com License - https://fontawesome.com/license/free (Icons: CC BY 4.0, Fonts: SIL OFL 1.1, Code: MIT License) Copyright 2025 Fonticons, Inc.--><path fill="currentColor" d="M157.184 50.207a21.24 21.24 0 0 0-21.29 21.288 21.24 21.24 0 0 0 21.29 21.29h134.83v42.577H96.155L67.06 100.413c-3.991-4.79-10.023-7.629-16.321-7.629H22.353c-7.362 0-14.192 3.815-18.095 10.113S0 117 3.282 123.653L45.86 208.81a21.35 21.35 0 0 0 19.071 11.71h95.623l92.253 126.935a70.97 70.97 0 0 0 57.391 29.184h66.972c66.617 0 120.637-54.021 120.637-120.638s-54.02-120.638-120.637-120.638h-42.578V92.784h134.83a21.24 21.24 0 0 0 21.289-21.289 21.24 21.24 0 0 0-21.289-21.288zm177.408 141.926h42.578c35.304 0 63.867 28.563 63.867 63.867s-28.563 63.867-63.867 63.867h-42.578zM490.71 390.83a21.24 21.24 0 0 0-21.289 21.29c0 3.902-3.193 7.096-7.096 7.096H221.05a21.24 21.24 0 0 0-21.29 21.289 21.24 21.24 0 0 0 21.29 21.288h241.275c27.41 0 49.674-22.264 49.674-49.674a21.24 21.24 0 0 0-21.289-21.289"/></svg>