<svg xmlns="http://www.w3.org/2000/svg" viewBox="0 0 512 512"><!--! Font Awesome Free 7.0.1 by @fontawesome - https://fontawesome.com License - https://fontawesome.com/license/free (Icons: CC BY 4.0, Fonts: SIL OFL 1.1, Code: MIT License) Copyright 2025 Fonticons, Inc.--><path fill="currentColor" d="M483.327 5.241c11.819 5.242 19.32 16.957 19.32 29.906V462.67c0 12.95-7.501 24.665-19.32 29.906-11.818 5.242-25.487 3.29-35.25-5.24l-47.89-41.828c-44.808-39.156-101.435-61.97-160.733-64.745v98.35c0 18.19-14.696 32.887-32.886 32.887H173.68c-18.19 0-32.886-14.696-32.886-32.886v-98.66c-72.556 0-131.443-58.887-131.443-131.545S68.24 117.363 140.898 117.363h86.84A263.64 263.64 0 0 0 400.29 52.31l47.89-41.827C457.84 1.953 471.715 0 483.43 5.24zm-243.77 309.44v.206a329.16 329.16 0 0 1 197.318 75.433V107.395a329.16 329.16 0 0 1-197.318 75.433z"/></svg>