<svg xmlns="http://www.w3.org/2000/svg" viewBox="0 0 512 512"><!--! Font Awesome Free 7.0.1 by @fontawesome - https://fontawesome.com License - https://fontawesome.com/license/free (Icons: CC BY 4.0, Fonts: SIL OFL 1.1, Code: MIT License) Copyright 2025 Fonticons, Inc.--><path fill="currentColor" d="M512 374.6c0 13.52-5.68 25.76-14.72 34.48l-28-18.64-234.16-156.08c-28.88-19.28-62.88-29.52-97.6-29.52h-3.12c-2.16 0-4.32 0-6.4.08l17.76-80c4.56-20.64 22.88-35.28 44-35.28 9.76 0 19.28 3.2 27.04 9.04l3.76 2.8c21.04 15.76 49.92 15.76 70.88 0l3.76-2.8c7.84-5.84 17.28-9.04 27.04-9.04 21.12 0 39.44 14.64 44 35.28l26.4 118.8C459.6 249.8 512 306.04 512 374.6M137.52 243.16c27.12 0 53.68 8 76.32 23.12L448 422.36H44.8c-24.72 0-44.8-20.08-44.8-44.8 0-74.24 60.16-134.4 134.4-134.4z"/></svg>