<svg xmlns="http://www.w3.org/2000/svg" viewBox="0 0 512 512"><!--! Font Awesome Free 7.0.1 by @fontawesome - https://fontawesome.com License - https://fontawesome.com/license/free (Icons: CC BY 4.0, Fonts: SIL OFL 1.1, Code: MIT License) Copyright 2025 Fonticons, Inc.--><path fill="currentColor" d="M38.259 8.287C29.972 0 16.573 0 8.375 8.287.176 16.573.088 29.972 8.287 38.259L473.74 503.713c8.287 8.287 21.686 8.287 29.884 0 8.199-8.286 8.287-21.685 0-29.884L376.507 346.534c30.149-30.5 48.75-72.462 48.75-118.832v-35.261a21.106 21.106 0 0 0-21.158-21.157 21.106 21.106 0 0 0-21.157 21.157v35.261c0 34.645-13.84 66.028-36.408 88.948l-29.884-29.884c14.81-15.25 23.978-36.143 23.978-59.064V114.865c0-46.722-37.906-84.628-84.628-84.628s-84.628 37.906-84.628 84.628v26.623L38.259 8.375zm262.964 382.589-36.496-36.496c-2.909.176-5.73.265-8.639.265-70.082 0-126.942-56.86-126.942-126.943v-8.991l-38.435-38.436c-2.469 3.438-3.879 7.67-3.879 12.166v35.261c0 86.304 64.617 157.532 148.1 167.934v43.637h-42.315a21.106 21.106 0 0 0-21.157 21.157 21.106 21.106 0 0 0 21.157 21.157H319.56a21.106 21.106 0 0 0 21.157-21.157 21.106 21.106 0 0 0-21.157-21.157h-42.314v-43.637a182 182 0 0 0 24.066-4.76z"/></svg>