<svg xmlns="http://www.w3.org/2000/svg" viewBox="0 0 512 512"><!--! Font Awesome Free 7.0.1 by @fontawesome - https://fontawesome.com License - https://fontawesome.com/license/free (Icons: CC BY 4.0, Fonts: SIL OFL 1.1, Code: MIT License) Copyright 2025 Fonticons, Inc.--><path fill="currentColor" d="M142.222 178.933c25.156-10.933 42.667-36 42.667-65.155 0-39.29-31.822-71.111-71.111-71.111s-71.111 31.822-71.111 71.11c0 29.156 17.51 54.223 42.666 65.156v48.623H28.444C12.711 227.556 0 240.266 0 256s12.711 28.444 28.444 28.444h199.112v48.623c-25.156 10.933-42.667 36-42.667 65.155 0 39.29 31.822 71.111 71.111 71.111s71.111-31.822 71.111-71.11c0-29.156-17.511-54.223-42.667-65.156v-48.623h199.112c15.733 0 28.444-12.71 28.444-28.444s-12.711-28.444-28.444-28.444h-56.89v-48.623c25.156-10.933 42.667-36 42.667-65.155 0-39.29-31.822-71.111-71.11-71.111-39.29 0-71.112 31.822-71.112 71.11 0 29.156 17.511 54.223 42.667 65.156v48.623H142.222z"/></svg>