<svg xmlns="http://www.w3.org/2000/svg" viewBox="0 0 512 512"><!--! Font Awesome Free 7.0.1 by @fontawesome - https://fontawesome.com License - https://fontawesome.com/license/free (Icons: CC BY 4.0, Fonts: SIL OFL 1.1, Code: MIT License) Copyright 2025 Fonticons, Inc.--><path fill="currentColor" d="M465.398 87.389c-10.042-37.616-48.715-59.904-86.331-49.861L365.5 41.14c-15.064 4.052-23.961 19.556-19.909 34.532l21.583 80.518-95.317 24.754-5.55-15.945c-4.052-11.276-14.712-18.852-26.692-18.852s-22.64 7.576-26.605 18.852l-11.98 34.357-116.46 30.216v-34.004a21.09 21.09 0 0 0-21.143-21.143 21.09 21.09 0 0 0-21.142 21.143v232.567H28.19c-15.593 0-28.19 12.597-28.19 28.19 0 15.592 12.597 28.19 28.19 28.19h451.04c15.592 0 28.19-12.598 28.19-28.19s-12.598-28.19-28.19-28.19H358.276l-54.09-154.516-54.794 14.183 19.469 55.675h-58.67l17.53-50.125-65.718 17.002-41.14 117.605H84.482V287.714l297.228-77.082 22.2 82.808c4.051 15.064 19.468 23.961 34.532 19.909l13.654-3.612c37.616-10.043 59.904-48.716 49.861-86.332zM180.68 428.047l14.8-42.285h88.27l14.8 42.285z"/></svg>