<svg xmlns="http://www.w3.org/2000/svg" viewBox="0 0 512 512"><!--! Font Awesome Free 7.0.1 by @fontawesome - https://fontawesome.com License - https://fontawesome.com/license/free (Icons: CC BY 4.0, Fonts: SIL OFL 1.1, Code: MIT License) Copyright 2025 Fonticons, Inc.--><path fill="currentColor" d="M404.315.05c19.144 0 37.49 7.578 50.951 21.138l35.596 35.596C504.422 70.244 512 88.59 512 107.734s-7.578 37.49-21.138 50.951l-44.769 44.769L308.596 65.957l44.769-44.77C366.825 7.628 385.172.05 404.315.05m-129.52 99.708 137.497 137.497L197.82 451.727c-10.668 10.668-24.03 18.446-38.587 22.534L31.807 509.657c-8.276 2.293-17.25 0-23.332-6.182S0 488.419 2.293 480.143L37.79 352.816c4.088-14.557 11.766-27.818 22.534-38.587l180.571-180.67-17.05-16.95c-9.372-9.373-24.528-9.373-33.8 0l-99.808 99.807c-9.373 9.373-24.529 9.373-33.801 0s-9.373-24.528 0-33.801l99.708-99.907c28.017-28.018 73.484-28.018 101.502 0z"/></svg>