<svg xmlns="http://www.w3.org/2000/svg" viewBox="0 0 512 512"><!--! Font Awesome Free 7.0.1 by @fontawesome - https://fontawesome.com License - https://fontawesome.com/license/free (Icons: CC BY 4.0, Fonts: SIL OFL 1.1, Code: MIT License) Copyright 2025 Fonticons, Inc.--><path fill="currentColor" d="M268.987 49.307C268.987 22.1 291.087 0 318.294 0s49.307 22.1 49.307 49.307-22.1 49.307-49.307 49.307-49.307-22.1-49.307-49.307m-7.044 159.631-19.899 19.9c-5.283 5.282-8.276 12.414-8.276 19.898v33.018c0 10.83-6.164 20.251-15.144 25.006-.793 3.698-2.114 7.396-3.787 10.83l-60.753 121.594-.704-.352-24.39 48.69C120.275 504.957 99.143 512 81.71 503.284L49.13 486.906c-17.434-8.716-24.478-29.848-15.76-47.282l44.552-88.928c8.716-17.434 29.848-24.478 47.281-15.76l27.031 13.47 24.918-49.835a3.45 3.45 0 0 0 .352-1.585v-48.338a84.5 84.5 0 0 1 24.742-59.785l30.905-30.905c20.074-20.075 47.193-31.345 75.545-31.345 32.49 0 63.218 14.792 83.47 40.15l15.76 19.9a28.23 28.23 0 0 0 22.012 10.565h29.232c15.585 0 28.176 12.59 28.176 28.175s-12.591 28.176-28.176 28.176H429.94c-25.71 0-49.923-11.71-66.036-31.698l-3.346-4.138v101.432l30.377 26.062c15.584 13.383 25.798 31.873 28.703 52.212l11.095 77.57c2.2 15.41-8.541 29.673-23.95 31.874s-29.672-8.54-31.873-23.949l-11.094-77.57c-.969-6.78-4.402-12.943-9.597-17.434l-62.867-53.885c-18.754-16.025-29.496-39.534-29.496-64.187V208.85zm.088 145.984c2.113 2.025 4.227 4.05 6.516 5.987l40.502 34.691-1.937 6.692c-3.962 13.824-11.358 26.414-21.484 36.54l-60.137 60.137c-11.006 11.006-28.88 11.006-39.885 0-11.007-11.006-11.007-28.88 0-39.886l60.224-60.137c3.346-3.346 5.812-7.572 7.132-12.15l9.07-31.962z"/></svg>