<svg xmlns="http://www.w3.org/2000/svg" viewBox="0 0 512 512"><!--! Font Awesome Free 7.0.1 by @fontawesome - https://fontawesome.com License - https://fontawesome.com/license/free (Icons: CC BY 4.0, Fonts: SIL OFL 1.1, Code: MIT License) Copyright 2025 Fonticons, Inc.--><path fill="currentColor" d="M402.286 36.571C402.286 16.343 385.943 0 365.714 0H146.286c-20.229 0-36.572 16.343-36.572 36.571 0 20.229 16.343 36.572 36.572 36.572h219.428c20.229 0 36.572-16.343 36.572-36.572M512 182.857c0-20.228-16.343-36.571-36.571-36.571H36.57C16.343 146.286 0 162.629 0 182.857c0 20.229 16.343 36.572 36.571 36.572H475.43c20.228 0 36.571-16.343 36.571-36.572M0 475.43C0 495.657 16.343 512 36.571 512H475.43C495.657 512 512 495.657 512 475.429c0-20.229-16.343-36.572-36.571-36.572H36.57C16.343 438.857 0 455.2 0 475.43m402.286-146.286c0-20.229-16.343-36.572-36.572-36.572H146.286c-20.229 0-36.572 16.343-36.572 36.572 0 20.228 16.343 36.571 36.572 36.571h219.428c20.229 0 36.572-16.343 36.572-36.571"/></svg>