<svg xmlns="http://www.w3.org/2000/svg" viewBox="0 0 512 512"><!--! Font Awesome Free 7.0.1 by @fontawesome - https://fontawesome.com License - https://fontawesome.com/license/free (Icons: CC BY 4.0, Fonts: SIL OFL 1.1, Code: MIT License) Copyright 2025 Fonticons, Inc.--><path fill="currentColor" d="M141.144 28.229c15.614 0 28.229 12.615 28.229 28.229v28.228h112.915c15.614 0 28.229 12.615 28.229 28.23 0 15.613-12.615 28.228-28.229 28.228h-8.469l-7.41 20.378c-14.467 39.873-36.256 76.306-63.69 107.622 12.526 7.763 25.581 14.644 39.167 20.73l44.46 19.76 54.87-123.5c4.499-10.233 14.643-16.761 25.759-16.761s21.26 6.528 25.758 16.76l112.916 254.06c6.351 14.29-.089 30.963-14.291 37.227s-30.964-.089-37.227-14.291l-17.643-39.697H297.549l-17.643 39.697c-6.351 14.29-23.024 20.642-37.226 14.29-14.203-6.35-20.643-23.023-14.291-37.226l35.11-78.952-44.461-19.76a379.5 379.5 0 0 1-58.046-32.11c-18.79 15.172-39.343 28.404-61.309 39.431l-30.61 15.173c-13.939 6.97-30.876 1.323-37.845-12.615s-1.323-30.875 12.615-37.844l30.434-15.261c14.38-7.234 28.052-15.614 40.932-24.965-12.174-11.203-23.642-23.289-34.316-36.08l-8.91-10.762c-9.968-11.997-8.38-29.817 3.617-39.785s29.817-8.38 39.785 3.617l8.998 10.762c10.145 12.262 21.26 23.642 32.993 34.14a282.7 282.7 0 0 0 56.016-92.98l.441-1.058H28.317C12.615 141.144 0 128.529 0 112.915s12.615-28.229 28.229-28.229h84.686V56.458c0-15.614 12.615-28.23 28.229-28.23m225.83 238.886-44.372 99.86h88.745z"/></svg>