<svg xmlns="http://www.w3.org/2000/svg" viewBox="0 0 512 512"><!--! Font Awesome Free 7.0.1 by @fontawesome - https://fontawesome.com License - https://fontawesome.com/license/free (Icons: CC BY 4.0, Fonts: SIL OFL 1.1, Code: MIT License) Copyright 2025 Fonticons, Inc.--><path fill="currentColor" d="M442.59 8.901c-8.9-8.901-23.294-8.901-32.1 0s-8.9 23.294 0 32.1l14.204 14.204L381.04 98.86l-59.656-59.656c-8.901-8.902-23.294-8.902-32.1 0-8.807 8.9-8.902 23.294 0 32.1l6.628 6.629-73.955 73.954 38.824 38.824c8.901 8.9 8.901 23.294 0 32.1s-23.294 8.901-32.1 0l-38.824-38.823-43.653 43.653 38.823 38.823c8.901 8.902 8.901 23.295 0 32.101s-23.294 8.901-32.1 0l-38.824-38.824-35.699 35.7a52.96 52.96 0 0 0-15.53 37.497v84.087L8.902 470.998C0 479.9 0 494.293 8.901 503.098c8.901 8.807 23.294 8.902 32.1 0l53.975-53.974h84.087a52.96 52.96 0 0 0 37.498-15.529l217.507-217.508 6.629 6.629c8.9 8.9 23.294 8.9 32.1 0s8.902-23.295 0-32.1l-59.656-59.657 43.654-43.653 14.203 14.204c8.901 8.9 23.295 8.9 32.1 0 8.807-8.901 8.902-23.294 0-32.1L442.497 8.805z"/></svg>