<svg xmlns="http://www.w3.org/2000/svg" viewBox="0 0 512 512"><!--! Font Awesome Free 7.0.1 by @fontawesome - https://fontawesome.com License - https://fontawesome.com/license/free (Icons: CC BY 4.0, Fonts: SIL OFL 1.1, Code: MIT License) Copyright 2025 Fonticons, Inc.--><path fill="currentColor" d="M38.259 8.287C29.972 0 16.573 0 8.375 8.287.176 16.573.088 29.972 8.287 38.259L473.74 503.713c8.287 8.287 21.686 8.287 29.884 0 8.199-8.286 8.287-21.685 0-29.884L410.8 380.915a169.5 169.5 0 0 0 14.457-68.584c0-80.397-114.777-241.631-146.865-285.18-5.2-7.052-13.4-11.019-22.215-11.019h-.352c-8.816 0-17.014 3.967-22.215 11.02-13.752 18.688-42.755 58.975-71.317 105.256zm81.102 200.727c-19.041 38.611-32.617 75.724-32.617 103.317 0 93.443 75.812 169.256 169.256 169.256 38.259 0 73.52-12.694 101.818-34.028z"/></svg>