<svg xmlns="http://www.w3.org/2000/svg" viewBox="0 0 512 512"><!--! Font Awesome Free 7.0.1 by @fontawesome - https://fontawesome.com License - https://fontawesome.com/license/free (Icons: CC BY 4.0, Fonts: SIL OFL 1.1, Code: MIT License) Copyright 2025 Fonticons, Inc.--><path fill="currentColor" d="M28.444 56.889h184.89v56.889H192v56.889h21.333V285.6c-40.355 6.756-71.11 41.867-71.11 84.178v56.889c0 15.733-12.712 28.444-28.445 28.444H85.333c-15.733 0-28.444-12.711-28.444-28.444V343.11c0-34.489-23.467-64.533-56.889-72.889v-99.555h35.556v-56.89h-7.112C12.711 113.778 0 101.068 0 85.334S12.711 56.89 28.444 56.89m49.778 56.889v56.889h71.111v-56.89zm220.445-56.89h64v64A21.28 21.28 0 0 0 384 142.223a21.28 21.28 0 0 0 21.333-21.333v-64h64C492.89 56.889 512 76 512 99.556v312.888c0 23.556-19.111 42.667-42.667 42.667h-64v-64A21.28 21.28 0 0 0 384 369.778a21.28 21.28 0 0 0-21.333 21.333v64h-64C275.11 455.111 256 436 256 412.444V99.556c0-23.556 19.111-42.667 42.667-42.667M384 199.112a21.28 21.28 0 0 0-21.333 21.333v71.112A21.28 21.28 0 0 0 384 312.889a21.28 21.28 0 0 0 21.333-21.333v-71.112A21.28 21.28 0 0 0 384 199.111"/></svg>