<svg xmlns="http://www.w3.org/2000/svg" viewBox="0 0 512 512"><!--! Font Awesome Free 7.0.1 by @fontawesome - https://fontawesome.com License - https://fontawesome.com/license/free (Icons: CC BY 4.0, Fonts: SIL OFL 1.1, Code: MIT License) Copyright 2025 Fonticons, Inc.--><path fill="currentColor" d="M247.453 49.517C296.971 0 377.326 0 426.843 49.517s49.517 129.872 0 179.39L282.345 373.405c-30.31 30.31-79.386 30.31-109.696 0s-30.31-79.386 0-109.695l134.63-134.454c11.014-11.014 28.9-11.014 39.914 0 11.013 11.013 11.013 28.9 0 39.913L212.563 303.71c-8.283 8.282-8.283 21.675 0 29.869s21.674 8.282 29.868 0L386.93 189.08c27.49-27.49 27.49-72.16 0-99.65s-72.161-27.49-99.651 0L142.78 233.928c-46.786 46.786-46.786 122.647 0 169.433s122.648 46.786 169.433 0l114.718-114.63c11.014-11.013 28.9-11.013 39.913 0 11.014 11.014 11.014 28.9 0 39.914L352.127 443.187c-68.813 68.813-180.359 68.813-249.172 0s-68.813-180.359 0-249.172z"/></svg>