<svg xmlns="http://www.w3.org/2000/svg" viewBox="0 0 512 512"><!--! Font Awesome Free 7.0.1 by @fontawesome - https://fontawesome.com License - https://fontawesome.com/license/free (Icons: CC BY 4.0, Fonts: SIL OFL 1.1, Code: MIT License) Copyright 2025 Fonticons, Inc.--><path fill="currentColor" d="M219.992 111.8c0-59.732-48.461-108.194-108.193-108.194S3.606 52.068 3.606 111.8c0 59.732 48.462 108.193 108.193 108.193 59.732 0 108.193-48.461 108.193-108.193m288.514 288.513c0-59.731-48.461-108.192-108.193-108.192s-108.192 48.461-108.192 108.192c0 59.732 48.461 108.193 108.192 108.193 59.732 0 108.193-48.461 108.193-108.193M497.912 65.141c14.088-14.088 14.088-36.966 0-51.053C483.825 0 460.947 0 446.86 14.088L14.088 446.858C0 460.948 0 483.826 14.088 497.913s36.965 14.088 51.053 0z"/></svg>