<svg xmlns="http://www.w3.org/2000/svg" viewBox="0 0 512 512"><!--! Font Awesome Free 7.0.1 by @fontawesome - https://fontawesome.com License - https://fontawesome.com/license/free (Icons: CC BY 4.0, Fonts: SIL OFL 1.1, Code: MIT License) Copyright 2025 Fonticons, Inc.--><path fill="currentColor" d="M512 256v2.7c-.4 36.492-33.593 61.288-70.086 61.288h-97.881c-26.495 0-47.99 21.495-47.99 47.99 0 3.4.4 6.699.999 9.898 2.1 10.198 6.499 19.996 10.798 29.894 6.099 13.798 12.098 27.495 12.098 41.992 0 31.794-21.596 60.688-53.39 61.988-3.5.1-6.999.2-10.598.2C114.578 511.95 0 397.372 0 256S114.678.05 256.05.05 512 114.628 512 256m-383.925 31.994c0-17.697-14.297-31.994-31.994-31.994s-31.994 14.297-31.994 31.994 14.298 31.994 31.994 31.994c17.697 0 31.994-14.298 31.994-31.994m0-95.982c17.697 0 31.994-14.297 31.994-31.993 0-17.697-14.297-31.994-31.994-31.994s-31.994 14.297-31.994 31.994 14.297 31.993 31.994 31.993m159.969-95.98c0-17.697-14.297-31.995-31.994-31.995s-31.994 14.298-31.994 31.994c0 17.697 14.297 31.994 31.994 31.994s31.994-14.297 31.994-31.994m95.981 95.98c17.697 0 31.994-14.297 31.994-31.993 0-17.697-14.297-31.994-31.994-31.994s-31.994 14.297-31.994 31.994 14.297 31.993 31.994 31.993"/></svg>