<svg xmlns="http://www.w3.org/2000/svg" viewBox="0 0 512 512"><!--! Font Awesome Free 7.0.1 by @fontawesome - https://fontawesome.com License - https://fontawesome.com/license/free (Icons: CC BY 4.0, Fonts: SIL OFL 1.1, Code: MIT License) Copyright 2025 Fonticons, Inc.--><path fill="currentColor" d="M47.169 26.692c-11.244-4.57-24.042.823-28.52 12.067C6.581 68.468 0 100.828 0 134.742s6.582 66.274 18.648 95.983c4.57 11.243 17.368 16.637 28.612 12.066s16.637-17.368 12.067-28.612c-9.964-24.407-15.45-51.282-15.45-79.437s5.486-55.03 15.45-79.529c4.57-11.244-.915-24.041-12.067-28.612zm417.57 0c-11.243 4.571-16.636 17.369-12.066 28.612 9.964 24.499 15.45 51.374 15.45 79.53 0 28.154-5.486 55.03-15.45 79.528-4.57 11.243.915 24.041 12.067 28.612s24.041-.914 28.612-12.067C505.327 201.198 512 168.838 512 134.924c0-33.913-6.582-66.273-18.648-95.982-4.57-11.244-17.368-16.637-28.612-12.067zM303.58 168.747c6.856-9.598 10.878-21.299 10.878-34.005 0-32.269-26.235-58.504-58.504-58.504s-58.504 26.235-58.504 58.504c0 12.706 4.023 24.407 10.879 34.005l-125.235 275.7c-6.673 14.717-.183 32.085 14.534 38.758s32.086.183 38.76-14.534l18.83-41.319h201.655l18.831 41.319c6.673 14.717 24.042 21.207 38.76 14.534s21.207-24.041 14.534-38.759zm33.274 214.636h-161.8l19.928-43.878h121.853l19.928 43.878zm-80.9-177.98 40.953 90.224H214.91l40.953-90.224zm-113.99-120.39c4.844-11.06-.184-24.041-11.336-28.886s-24.041.183-28.886 11.335c-8.959 20.66-13.986 43.421-13.986 67.28 0 23.858 5.027 46.62 13.986 67.28 4.845 11.06 17.825 16.179 28.886 11.334s16.18-17.825 11.335-28.886c-6.673-15.175-10.33-31.994-10.33-49.728s3.657-34.554 10.33-49.729m268.203-17.55c-4.845-11.062-17.826-16.18-28.887-11.336-11.06 4.845-16.18 17.826-11.335 28.886 6.673 15.175 10.33 31.995 10.33 49.729s-3.657 34.553-10.33 49.728c-4.844 11.06.183 24.041 11.335 28.886s24.042-.183 28.887-11.335c8.958-20.66 13.986-43.42 13.986-67.28 0-23.858-5.028-46.62-13.986-67.279"/></svg>