<svg xmlns="http://www.w3.org/2000/svg" viewBox="0 0 512 512"><!--! Font Awesome Free 7.0.1 by @fontawesome - https://fontawesome.com License - https://fontawesome.com/license/free (Icons: CC BY 4.0, Fonts: SIL OFL 1.1, Code: MIT License) Copyright 2025 Fonticons, Inc.--><path fill="currentColor" d="M7.758 217.212c0 51.394 41.697 93.091 93.09 93.091h37.43l120.34-107.636c11.83-10.57 27.152-16.485 43.055-16.485 43.248 0 74.182 41.697 61.77 83.103l-12.316 41.018h60.025c51.393 0 93.09-41.697 93.09-93.09 0-51.395-41.697-93.092-93.09-93.092H409.6c1.067-5.042 1.552-10.182 1.552-15.515 0-42.86-34.716-77.576-77.576-77.576-23.564 0-44.703 10.57-58.958 27.152C256.485 23.564 220.218 0 178.424 0 118.4 0 69.818 48.582 69.818 108.606c0 6.885.679 13.673 1.843 20.17C34.52 140.994 7.758 176 7.758 217.212M163.49 387.88h59.927l-30.254 100.945c-3.491 11.54 5.139 23.176 17.26 23.176 4.46 0 8.728-1.648 12.024-4.558l136.825-122.57c3.394-3.005 5.333-7.369 5.333-12.024a16.057 16.057 0 0 0-16.097-16.096h-59.927l30.254-100.946c3.491-11.54-5.139-23.176-17.26-23.176-4.46 0-8.728 1.649-12.024 4.558L152.727 359.855c-3.394 3.006-5.333 7.37-5.333 12.024a16.057 16.057 0 0 0 16.097 16.097z"/></svg>