<svg xmlns="http://www.w3.org/2000/svg" viewBox="0 0 512 512"><!--! Font Awesome Free 7.0.1 by @fontawesome - https://fontawesome.com License - https://fontawesome.com/license/free (Icons: CC BY 4.0, Fonts: SIL OFL 1.1, Code: MIT License) Copyright 2025 Fonticons, Inc.--><path fill="currentColor" d="M232.141 138.801c0-64.08-51.99-116.07-116.07-116.07C51.99 22.73 0 74.72 0 138.8s51.99 116.07 116.07 116.07c64.081 0 116.071-51.99 116.071-116.07m-118.73-54.247c4.997-4.997 13.219-4.997 18.216 0l45.139 45.139c4.997 4.997 4.997 13.219 0 18.216l-45.139 45.139c-4.997 4.997-13.219 4.997-18.216 0-4.998-4.998-4.998-13.22 0-18.217l23.133-23.133h-72.06c-7.094 0-12.897-5.804-12.897-12.897s5.803-12.897 12.897-12.897h72.06l-23.133-23.133c-4.998-4.998-4.998-13.22 0-18.217m157.42 54.247c0 57.31-31.113 107.285-77.38 134.045v10.318c17.813 3.627 34.982 11.204 50.297 22.73 17.814 13.38 23.456 13.38 41.27 0 22.166-16.685 48.282-25.148 74.478-25.31 26.68-.16 53.441 8.222 76.09 25.31 5.563 4.192 10.318 7.255 14.51 9.43.483.243.967.485 1.45.807 3.386 1.854 6.852 3.708 10.157 1.21a59.5 59.5 0 0 1 15.556-8.384v-92.856h3.628c12.252 0 22.166-9.915 22.166-22.166 0-6.368-2.74-12.494-7.577-16.686L357.884 56.987c-6.206-5.48-14.267-8.463-22.57-8.463-8.301 0-16.362 2.982-22.568 8.463l-47.235 41.35c3.466 12.897 5.32 26.439 5.32 40.464m25.794 70.932a19.3 19.3 0 0 1 19.345-19.345h38.69a19.3 19.3 0 0 1 19.345 19.345v38.69a19.3 19.3 0 0 1-19.345 19.345h-38.69a19.3 19.3 0 0 1-19.345-19.345zm85.924 170.962c15.315 11.607 33.773 22.73 54.166 26.842 21.36 4.352 43.769.644 65.048-15.396 8.544-6.448 10.237-18.539 3.789-27.083s-18.54-10.237-27.083-3.788c-12.01 9.027-23.053 10.559-34.096 8.302-12.01-2.418-24.907-9.592-38.53-19.829-30.951-23.375-72.946-23.375-103.979 0-19.345 14.59-32.806 21.2-43.93 21.2-11.123 0-24.584-6.61-43.929-21.2-30.952-23.375-72.947-23.375-103.98 0-17.41 13.139-33.29 20.796-47.476 20.715-7.738-.08-16.04-2.418-25.148-9.27-8.545-6.447-20.635-4.755-27.084 3.79-6.448 8.543-4.755 20.634 3.789 27.082 15.395 11.608 31.758 16.927 48.201 17.008 27.325.161 51.829-14.025 71.013-28.453 17.169-12.978 40.222-12.978 57.39 0 19.507 14.75 42.156 28.937 67.225 28.937s47.637-14.267 67.224-28.937c17.168-12.978 40.221-12.978 57.39 0zm-57.39 77.38c17.168-12.977 40.221-12.977 57.39 0 15.315 11.608 33.773 22.731 54.166 26.842 21.36 4.353 43.769.645 65.048-15.396 8.544-6.448 10.237-18.539 3.789-27.083s-18.54-10.236-27.083-3.788c-12.01 9.028-23.053 10.56-34.096 8.302-12.01-2.418-24.907-9.592-38.53-19.829-30.951-23.375-72.946-23.375-103.979 0-19.345 14.59-32.806 21.2-43.93 21.2-11.123 0-24.584-6.61-43.929-21.2-30.952-23.375-72.947-23.375-103.98 0-17.41 13.139-33.29 20.796-47.476 20.716-7.738-.08-16.04-2.418-25.148-9.27-8.545-6.448-20.635-4.755-27.084 3.789s-4.755 20.634 3.789 27.083c15.395 11.607 31.758 16.927 48.201 17.007 27.325.162 51.829-14.025 71.013-28.453 17.169-12.977 40.222-12.977 57.39 0 19.507 14.75 42.156 28.937 67.225 28.937s47.637-14.267 67.224-28.937z"/></svg>