<svg xmlns="http://www.w3.org/2000/svg" viewBox="0 0 512 512"><!--! Font Awesome Free 7.0.1 by @fontawesome - https://fontawesome.com License - https://fontawesome.com/license/free (Icons: CC BY 4.0, Fonts: SIL OFL 1.1, Code: MIT License) Copyright 2025 Fonticons, Inc.--><path fill="currentColor" d="M473.741 8.287c8.287-8.287 21.686-8.287 29.884 0 8.199 8.286 8.287 21.685 0 29.884L38.26 503.713c-8.287 8.287-21.686 8.287-29.884 0-8.199-8.286-8.287-21.685 0-29.884l118.479-118.655c-46.105-51.218-79.25-114.425-94.06-184.42-14.193-67.26 34.468-122.357 91.415-137.96l4.849-1.323c17.366-4.76 35.526 4.143 42.402 20.716l35.703 85.774c6.082 14.546 1.85 31.383-10.403 41.433l-38.876 31.824c11.372 25.124 26.094 48.308 43.637 69.2zM341.157 479.03a399.85 399.85 0 0 1-151.36-67.261l74.842-74.755c10.755 7.228 22.039 13.752 33.763 19.57l34.028-41.609c9.961-12.253 26.799-16.396 41.432-10.402l85.774 35.79c16.573 6.877 25.477 25.036 20.717 42.403l-1.323 4.848c-15.515 56.948-70.7 105.61-137.873 91.416"/></svg>