<svg xmlns="http://www.w3.org/2000/svg" viewBox="0 0 512 512"><!--! Font Awesome Free 7.0.1 by @fontawesome - https://fontawesome.com License - https://fontawesome.com/license/free (Icons: CC BY 4.0, Fonts: SIL OFL 1.1, Code: MIT License) Copyright 2025 Fonticons, Inc.--><path fill="currentColor" d="M341.333 85.333c0-15.733 12.711-28.444 28.445-28.444h113.778C499.289 56.889 512 69.6 512 85.333c0 15.734-12.711 28.445-28.444 28.445h-85.334v85.333c0 15.733-12.71 28.445-28.444 28.445h-85.334v85.333c0 15.733-12.71 28.444-28.444 28.444h-85.333v85.334c0 15.733-12.711 28.444-28.445 28.444H28.444C12.711 455.111 0 442.4 0 426.667c0-15.734 12.711-28.445 28.444-28.445h85.334V312.89c0-15.733 12.71-28.445 28.444-28.445h85.334v-85.333c0-15.733 12.71-28.444 28.444-28.444h85.333z"/></svg>