<svg xmlns="http://www.w3.org/2000/svg" viewBox="0 0 512 512"><!--! Font Awesome Free 7.0.1 by @fontawesome - https://fontawesome.com License - https://fontawesome.com/license/free (Icons: CC BY 4.0, Fonts: SIL OFL 1.1, Code: MIT License) Copyright 2025 Fonticons, Inc.--><path fill="currentColor" d="M434.39 0c6.69 0 12.604 4.266 14.737 10.568l13.088 39.168 39.169 13.088a15.55 15.55 0 0 1 10.568 14.737c0 6.69-4.266 12.604-10.568 14.737l-39.169 13.088-13.088 39.168a15.55 15.55 0 0 1-14.737 10.568 15.55 15.55 0 0 1-14.736-10.568l-13.089-39.168-39.168-13.088A15.55 15.55 0 0 1 356.83 77.56c0-6.69 4.266-12.604 10.568-14.737l39.168-13.088 13.089-39.168A15.55 15.55 0 0 1 434.39 0M280.626 109.943c12.119-12.12 31.8-12.12 43.919 0l77.56 77.56c12.12 12.12 12.12 31.8 0 43.92l-10.567 10.568c7.66 21.329 11.828 44.306 11.828 68.35C403.366 421.738 313.104 512 201.707 512S.048 421.641.048 310.244s90.262-201.659 201.66-201.659c23.946 0 47.02 4.17 68.35 11.926zM108.634 310.244c0-51.384 41.689-93.073 93.073-93.073a23.21 23.21 0 0 0 23.269-23.268 23.21 23.21 0 0 0-23.269-23.269c-77.076 0-139.61 62.534-139.61 139.61a23.21 23.21 0 0 0 23.269 23.269 23.21 23.21 0 0 0 23.268-23.269"/></svg>