<svg xmlns="http://www.w3.org/2000/svg" viewBox="0 0 512 512"><!--! Font Awesome Free 7.0.1 by @fontawesome - https://fontawesome.com License - https://fontawesome.com/license/free (Icons: CC BY 4.0, Fonts: SIL OFL 1.1, Code: MIT License) Copyright 2025 Fonticons, Inc.--><path fill="currentColor" d="M97.86 380.292v-88.403a55.67 55.67 0 0 1 16.327-39.423l21.603-21.603 40.817 40.817c9.358 9.358 24.49 9.358 33.748 0s9.358-24.49 0-33.749l-40.817-40.816 45.894-45.894 40.817 40.816c9.358 9.358 24.49 9.358 33.748 0 9.259-9.358 9.358-24.49 0-33.748l-40.816-40.817 45.893-45.894 40.817 40.817c9.358 9.358 24.49 9.358 33.749 0 9.258-9.358 9.357-24.49 0-33.748L328.823 37.83l7.765-7.765C355.901 10.752 381.984 0 409.262 0 466.007 0 512 45.993 512 102.738c0 27.278-10.851 53.36-30.065 72.674l-222.5 222.301a55.67 55.67 0 0 1-39.423 16.327h-88.403l-88.602 88.602c-9.358 9.358-24.49 9.358-33.749 0-9.258-9.358-9.258-24.49 0-33.848l88.602-88.602z"/></svg>