<svg xmlns="http://www.w3.org/2000/svg" viewBox="0 0 512 512"><!--! Font Awesome Free 7.0.1 by @fontawesome - https://fontawesome.com License - https://fontawesome.com/license/free (Icons: CC BY 4.0, Fonts: SIL OFL 1.1, Code: MIT License) Copyright 2025 Fonticons, Inc.--><path fill="currentColor" d="M256 18.286c35.314 0 64 28.685 64 64s-28.686 64-64 64-64-28.686-64-64 28.686-64 64-64M0 256c0-20.229 16.343-36.571 36.571-36.571H475.43C495.657 219.429 512 235.77 512 256s-16.343 36.571-36.571 36.571H36.57C16.343 292.571 0 276.23 0 256m192 173.714c0-35.314 28.686-64 64-64s64 28.686 64 64-28.686 64-64 64-64-28.685-64-64"/></svg>