<svg xmlns="http://www.w3.org/2000/svg" viewBox="0 0 512 512"><!--! Font Awesome Free 7.0.1 by @fontawesome - https://fontawesome.com License - https://fontawesome.com/license/free (Icons: CC BY 4.0, Fonts: SIL OFL 1.1, Code: MIT License) Copyright 2025 Fonticons, Inc.--><path fill="currentColor" d="M144.666 29.973c-13.123-13.123-34.434-13.123-47.557 0l-83.986 83.986C0 127.08 0 148.393 13.123 161.516s34.434 13.123 47.557 0l26.665-26.666v321.982c0 18.582 15.013 33.594 33.595 33.594s33.594-15.012 33.594-33.594V134.85l26.666 26.666c13.123 13.123 34.434 13.123 47.557 0s13.123-34.435 0-47.557l-83.986-83.986zm144.246 23.726c0 18.582 15.013 33.594 33.594 33.594h53.227l-77.058 77.057c-9.658 9.659-12.493 24.041-7.243 36.64 5.249 12.597 17.532 20.68 31.074 20.68h134.378c18.582 0 33.595-15.012 33.595-33.594s-15.013-33.594-33.595-33.594h-53.226l77.057-77.057c9.659-9.659 12.493-24.041 7.244-36.64-5.25-12.597-17.427-20.68-31.075-20.68H322.506c-18.581 0-33.594 15.012-33.594 33.594M419.72 273.847c-5.669-11.443-17.322-18.582-30.025-18.582s-24.356 7.139-30.025 18.582l-83.986 167.972c-8.293 16.587-1.575 36.744 15.013 45.038 16.587 8.293 36.744 1.574 45.037-15.013l7.559-15.012h92.805l7.558 15.012c8.294 16.587 28.45 23.306 45.038 15.013s23.306-28.45 15.012-45.038zm-30.025 90.18 21.207 42.413h-42.413z"/></svg>