<svg xmlns="http://www.w3.org/2000/svg" viewBox="0 0 512 512"><!--! Font Awesome Free 7.0.1 by @fontawesome - https://fontawesome.com License - https://fontawesome.com/license/free (Icons: CC BY 4.0, Fonts: SIL OFL 1.1, Code: MIT License) Copyright 2025 Fonticons, Inc.--><path fill="currentColor" d="M255.95 97.004c26.777 0 48.502-21.725 48.502-48.502S282.727 0 255.949 0s-48.502 21.725-48.502 48.502 21.725 48.502 48.502 48.502m-80.837 97.004c26.777 0 48.502-21.725 48.502-48.502s-21.725-48.502-48.502-48.502-48.502 21.725-48.502 48.502 21.725 48.502 48.502 48.502m101.854 193.806c1.01.102 2.122.203 3.234.203 40.216 0 72.753 32.536 72.753 72.753v22.937c0 16.572 16.167 28.192 31.93 23.039l12.934-4.345c18.188-6.063 37.69-6.568 56.182-1.516l19.603 5.355c18.087 4.952 34.76-11.721 29.808-29.808l-5.254-19.704c-5.053-18.492-4.446-37.993 1.515-56.182l4.345-12.934c5.255-15.662-6.467-31.93-23.038-31.93-34.962 0-63.356-28.394-63.356-63.356v-32.335c0-16.571-16.167-28.192-31.93-23.038l-12.934 4.345c-18.189 6.063-37.69 6.568-56.182 1.515l-29.91-8.184a23.8 23.8 0 0 0-8.79-.708c4.243 9.802 5.86 21.018 3.738 32.638l-6.366 35.164c-1.515 8.488-1.414 17.178.505 25.565l5.356 24.15c2.83 12.833 1.111 25.464-4.042 36.275zm-150.76-150.861c-15.663-5.255-31.931 6.467-31.931 23.038v32.335c0 34.962-28.394 63.356-63.356 63.356-16.571 0-28.192 16.167-23.038 31.93l4.345 12.934c6.062 18.189 6.568 37.69 1.515 56.182L8.387 476.33c-4.85 18.188 11.721 34.76 29.808 29.91l19.603-5.356c18.492-5.052 37.994-4.547 56.182 1.516l12.934 4.345c15.662 5.254 31.93-6.467 31.93-23.039v-32.335c0-34.962 28.394-63.355 63.356-63.355 16.572 0 28.192-16.168 23.039-31.931l-4.345-12.934c-6.063-18.188-6.568-37.69-1.516-56.181l5.355-19.603c4.952-18.088-11.721-34.76-29.808-29.809l-19.603 5.356c-18.492 5.052-37.993 4.446-56.182-1.516l-12.934-4.345zm259.081-91.447c0-26.777-21.725-48.502-48.502-48.502s-48.502 21.725-48.502 48.502 21.725 48.502 48.502 48.502 48.502-21.725 48.502-48.502"/></svg>