<svg xmlns="http://www.w3.org/2000/svg" viewBox="0 0 512 512"><!--! Font Awesome Free 7.0.1 by @fontawesome - https://fontawesome.com License - https://fontawesome.com/license/free (Icons: CC BY 4.0, Fonts: SIL OFL 1.1, Code: MIT License) Copyright 2025 Fonticons, Inc.--><path fill="currentColor" d="M0 82.824C0 49.6 27.012 22.588 60.235 22.588s60.236 27.012 60.236 60.236v30.117H0zm0 346.352V158.118h120.47L239.248 78.87c10.07-6.777 23.341-6.777 33.412 0l118.776 79.247h120.47v271.058c0 33.224-27.01 60.236-60.234 60.236H60.235C27.012 489.412 0 462.4 0 429.176m512-316.235H391.53V82.824c0-33.224 27.011-60.236 60.235-60.236C484.988 22.588 512 49.6 512 82.824zm-316.235 256v75.294h120.47v-75.294c0-33.223-27.011-60.235-60.235-60.235s-60.235 27.012-60.235 60.235M256 225.882c20.8 0 37.647-16.847 37.647-37.647S276.8 150.588 256 150.588s-37.647 16.847-37.647 37.647S235.2 225.882 256 225.882"/></svg>