<svg xmlns="http://www.w3.org/2000/svg" viewBox="0 0 512 512"><!--! Font Awesome Free 7.0.1 by @fontawesome - https://fontawesome.com License - https://fontawesome.com/license/free (Icons: CC BY 4.0, Fonts: SIL OFL 1.1, Code: MIT License) Copyright 2025 Fonticons, Inc.--><path fill="currentColor" d="M142.222 42.667C142.222 19.11 161.333 0 184.89 0H327.11c23.556 0 42.667 19.111 42.667 42.667V64h-92.445A21.28 21.28 0 0 0 256 85.333a21.28 21.28 0 0 0 21.333 21.334h92.445v42.666h-64a21.28 21.28 0 0 0-21.334 21.334A21.28 21.28 0 0 0 305.778 192h64v42.667h-92.445A21.28 21.28 0 0 0 256 256a21.28 21.28 0 0 0 21.333 21.333h92.445V320h-64a21.28 21.28 0 0 0-21.334 21.333 21.28 21.28 0 0 0 21.334 21.334h64v42.666h-92.445A21.28 21.28 0 0 0 256 426.667 21.28 21.28 0 0 0 277.333 448h92.445v21.333c0 23.556-19.111 42.667-42.667 42.667H184.89c-23.556 0-42.667-19.111-42.667-42.667z"/></svg>