<svg xmlns="http://www.w3.org/2000/svg" viewBox="0 0 512 512"><!--! Font Awesome Free 7.0.1 by @fontawesome - https://fontawesome.com License - https://fontawesome.com/license/free (Icons: CC BY 4.0, Fonts: SIL OFL 1.1, Code: MIT License) Copyright 2025 Fonticons, Inc.--><path fill="currentColor" d="M327.734 25.804c0-9.664-5.779-18.431-14.745-22.118-8.967-3.686-19.23-1.594-26.104 5.181L231.092 64.66c-9.365 9.365-9.365 24.51 0 33.775l55.793 55.793c6.875 6.874 17.137 8.867 26.104 5.18a23.74 23.74 0 0 0 14.745-22.018V113.48h23.911c17.635 0 31.882 14.247 31.882 31.882v213.906c-28.196 12.254-47.823 40.35-47.823 73.029 0 44.036 35.668 79.704 79.704 79.704 44.037 0 79.705-35.668 79.705-79.704 0-32.679-19.627-60.775-47.823-73.03V145.362c0-52.804-42.84-95.645-95.645-95.645h-23.911zM72.68 81.597a23.854 23.854 0 0 1 23.912-23.911 23.854 23.854 0 0 1 23.91 23.911 23.854 23.854 0 0 1-23.91 23.911 23.854 23.854 0 0 1-23.912-23.91m55.793 73.03c28.196-12.255 47.823-40.351 47.823-73.03 0-44.036-35.668-79.704-79.704-79.704-44.037 0-79.705 35.668-79.705 79.704 0 32.679 19.627 60.775 47.823 73.03v204.54c-28.196 12.255-47.823 40.35-47.823 73.03 0 44.036 35.668 79.703 79.705 79.703s79.704-35.667 79.704-79.704c0-32.679-19.627-60.774-47.823-73.029zM72.68 432.295a23.854 23.854 0 0 1 23.912-23.911 23.854 23.854 0 0 1 23.91 23.91 23.854 23.854 0 0 1-23.91 23.912 23.854 23.854 0 0 1-23.912-23.911m342.728-23.911a23.854 23.854 0 0 1 23.912 23.91 23.854 23.854 0 0 1-23.912 23.912 23.854 23.854 0 0 1-23.91-23.911 23.854 23.854 0 0 1 23.91-23.911"/></svg>