<svg xmlns="http://www.w3.org/2000/svg" viewBox="0 0 512 512"><!--! Font Awesome Free 7.0.1 by @fontawesome - https://fontawesome.com License - https://fontawesome.com/license/free (Icons: CC BY 4.0, Fonts: SIL OFL 1.1, Code: MIT License) Copyright 2025 Fonticons, Inc.--><path fill="currentColor" d="M277.535 12.426c-12.178-11.287-30.99-11.287-43.07 0L12.674 218.375C3.168 227.286 0 241.049 4.753 253.129s16.337 20.1 29.407 20.1h15.842v174.264c0 34.951 28.417 63.368 63.369 63.368h285.16c34.951 0 63.368-28.417 63.368-63.368V273.228h15.842c13.07 0 24.754-8.02 29.506-20.1 4.753-12.08 1.585-25.941-7.92-34.753zm-77.032 244.96c0-30.595 24.852-55.447 55.447-55.447s55.448 24.852 55.448 55.447-24.852 55.448-55.448 55.448c-30.595 0-55.447-24.853-55.447-55.448M145.055 431.65c0-43.764 35.447-79.21 79.211-79.21h63.369c43.764 0 79.21 35.446 79.21 79.21 0 8.714-7.128 15.843-15.841 15.843H160.897c-8.713 0-15.842-7.13-15.842-15.843"/></svg>