<svg xmlns="http://www.w3.org/2000/svg" viewBox="0 0 512 512"><!--! Font Awesome Free 7.0.1 by @fontawesome - https://fontawesome.com License - https://fontawesome.com/license/free (Icons: CC BY 4.0, Fonts: SIL OFL 1.1, Code: MIT License) Copyright 2025 Fonticons, Inc.--><path fill="currentColor" d="M38.259 8.287C29.972 0 16.573 0 8.375 8.287.176 16.573.088 29.972 8.287 38.259L473.74 503.713c8.287 8.287 21.686 8.287 29.884 0 8.199-8.286 8.287-21.685 0-29.884L249.741 219.945l12.518-12.518c3.702-3.702 8.375-5.73 13.135-6.083 5.994-.529 12.165 1.499 16.75 6.083l155.68 154.27 62.06-49.366V58.446l-98.732 56.419-20.981-14.017a84.8 84.8 0 0 0-46.986-14.192h-62.061c-.97 0-2.028 0-2.997.088-14.898.793-28.915 7.493-38.964 18.6l-49.19 54.744L160 130.116l39.052-43.372h-34.997a84.5 84.5 0 0 0-38.347 9.168zM2.116 91.769V312.33l137.873 114.865a112.7 112.7 0 0 0 72.198 26.181h13.84l-6.17-6.17c-8.287-8.287-8.287-21.686 0-29.885 8.286-8.198 21.686-8.286 29.884 0l36.143 36.144h7.934c19.57 0 38.612-5.113 55.361-14.458z"/></svg>