<svg xmlns="http://www.w3.org/2000/svg" viewBox="0 0 512 512"><!--! Font Awesome Free 7.0.1 by @fontawesome - https://fontawesome.com License - https://fontawesome.com/license/free (Icons: CC BY 4.0, Fonts: SIL OFL 1.1, Code: MIT License) Copyright 2025 Fonticons, Inc.--><path fill="currentColor" d="M70.548 113.405c23.369 0 42.328-18.96 42.328-42.328 0-23.37-18.96-42.329-42.328-42.329-23.37 0-42.329 18.96-42.329 42.329s18.96 42.328 42.329 42.328m-14.11 28.22C25.31 141.625 0 166.934 0 198.063v112.876c0 15.609 12.61 28.22 28.22 28.22 8.641 0 16.313-3.881 21.516-9.878L70.9 456.708c2.558 15.344 17.108 25.75 32.452 23.193 15.345-2.558 25.75-17.108 23.193-32.452l-18.078-108.203h13.845l26.455 118.961c3.351 15.256 18.431 24.78 33.687 21.43 15.256-3.352 24.78-18.431 21.429-33.687l-50.53-227.517 102.559 47.444c.44.264.97.44 1.41.617 7.585 3.175 15.874 2.734 22.84-.617 2.999-1.411 5.82-3.44 8.202-5.909 2.733-2.822 4.85-6.173 6.26-10.053.09-.264.177-.617.265-.882l2.205-6.613c5.027-15.08 16.138-27.25 30.6-33.687l7.055-3.086c.882-.353 1.675-.706 2.557-1.059l-14.903 55.998c-4.938 18.607-.088 38.448 12.963 52.646l62.347 67.99 19.4 77.69c3.792 15.08 19.136 24.34 34.216 20.548s24.339-19.136 20.547-34.216l-20.282-81.218c-1.676-6.878-5.115-13.14-9.877-18.342l-43.652-47.62 17.02-57.76 8.466 20.282c3.88 9.347 11.023 17.02 20.106 21.605l23.545 11.728c13.933 6.967 30.865 1.323 37.831-12.61s1.323-30.865-12.61-37.831l-18.872-9.436-13.492-32.452c-15.08-36.244-50.53-59.877-89.86-59.877-20.106 0-39.948 4.233-58.29 12.346l-7.055 3.086a113.67 113.67 0 0 0-51.235 45.503l-114.905-53.175c-11.11-5.203-23.28-7.848-35.538-7.848zm352.739-28.22c23.369 0 42.328-18.96 42.328-42.328 0-23.37-18.96-42.329-42.328-42.329-23.37 0-42.329 18.96-42.329 42.329s18.96 42.328 42.329 42.328m-100.795 211.29-22.046 55.028-52.382 52.382c-11.023 11.023-11.023 28.924 0 39.947s28.924 11.023 39.947 0l54.41-54.41a42.3 42.3 0 0 0 9.348-14.197l12.787-31.923-35.891-39.154c-2.205-2.381-4.233-4.938-6.173-7.584z"/></svg>