<svg xmlns="http://www.w3.org/2000/svg" viewBox="0 0 512 512"><!--! Font Awesome Free 7.0.1 by @fontawesome - https://fontawesome.com License - https://fontawesome.com/license/free (Icons: CC BY 4.0, Fonts: SIL OFL 1.1, Code: MIT License) Copyright 2025 Fonticons, Inc.--><path fill="currentColor" d="M83.852 0C63.169 0 46.418 16.752 46.418 37.434V89.84c0 16.564 13.382 29.947 29.947 29.947s29.947-13.383 29.947-29.947V59.894H226.1v149.735h-29.947c-16.565 0-29.947 13.383-29.947 29.947s13.382 29.947 29.947 29.947H315.94c16.564 0 29.947-13.383 29.947-29.947s-13.383-29.947-29.947-29.947h-29.947V59.894h119.788v29.947c0 16.564 13.382 29.947 29.947 29.947s29.947-13.383 29.947-29.947V37.434C465.676 16.752 448.924 0 428.242 0zm73.557 380.514c11.698-11.698 11.698-30.696 0-42.394s-30.696-11.698-42.394 0l-59.894 59.894c-11.698 11.698-11.698 30.696 0 42.394l59.894 59.894c11.698 11.698 30.696 11.698 42.394 0s11.698-30.696 0-42.394l-8.797-8.797h214.776l-8.797 8.797c-11.698 11.698-11.698 30.696 0 42.394s30.696 11.698 42.394 0l59.894-59.894c11.698-11.698 11.698-30.696 0-42.394l-59.894-59.894c-11.698-11.698-30.696-11.698-42.394 0s-11.698 30.696 0 42.394l8.797 8.797H148.612z"/></svg>