<svg xmlns="http://www.w3.org/2000/svg" viewBox="0 0 512 512"><!--! Font Awesome Free 7.0.1 by @fontawesome - https://fontawesome.com License - https://fontawesome.com/license/free (Icons: CC BY 4.0, Fonts: SIL OFL 1.1, Code: MIT License) Copyright 2025 Fonticons, Inc.--><path fill="currentColor" d="M258.382 210.662c46.347 0 83.974-37.627 83.974-83.974s-37.627-83.974-83.974-83.974-83.974 37.627-83.974 83.974 37.627 83.974 83.974 83.974m-180.867 6.46c32.136 0 58.136-26 58.136-58.136s-26-58.136-58.136-58.136-58.136 26-58.136 58.136 26 58.136 58.136 58.136M0 365.692v25.837c0 14.292 11.546 25.839 25.838 25.839h70.006a64.1 64.1 0 0 1-5.41-25.839V378.61c0-42.956 16.149-82.197 42.713-111.911a103.9 103.9 0 0 0-29.794-4.36C46.267 262.338 0 308.604 0 365.69m497.385-206.706c0-32.137-26-58.136-58.136-58.136s-58.136 26-58.136 58.136 26 58.136 58.136 58.136 58.136-26 58.136-58.136M129.191 378.61v12.92c0 14.291 11.546 25.838 25.838 25.838h126.607c-5.733-17.441-5.087-35.85 8.64-51.677-11.304-13.08-16.553-32.055-9.205-51.111 5.33-13.807 12.838-26.726 22.124-38.192 4.36-5.33 9.366-9.447 14.776-12.435-17.844-9.285-38.111-14.534-59.589-14.534-71.378 0-129.191 57.813-129.191 129.191m375.138-35.608c5.087-2.907 7.671-8.963 5.49-14.534-3.875-10.012-9.285-19.46-16.067-27.776-3.714-4.602-10.255-5.41-15.342-2.422-17.602 10.173-39.241-2.261-39.241-22.69 0-5.894-3.957-11.142-9.77-12.03-10.417-1.615-21.64-1.615-32.056 0-5.814.888-9.77 6.136-9.77 12.03 0 20.348-21.64 32.863-39.242 22.69-5.087-2.907-11.627-2.1-15.341 2.422-6.783 8.317-12.193 17.764-16.068 27.776-2.1 5.49.403 11.547 5.49 14.453 17.683 10.174 17.683 35.124 0 45.379-5.087 2.906-7.67 8.962-5.49 14.453 3.875 10.012 9.285 19.46 16.068 27.776 3.714 4.602 10.254 5.41 15.341 2.422 17.602-10.174 39.242 2.342 39.242 22.69 0 5.894 3.956 11.142 9.77 12.03 10.416 1.615 21.64 1.615 32.056 0 5.813-.888 9.77-6.136 9.77-12.03 0-20.348 21.64-32.864 39.241-22.69 5.087 2.907 11.628 2.1 15.342-2.422 6.782-8.317 12.192-17.764 16.068-27.776 2.1-5.49-.404-11.547-5.49-14.453-17.684-10.174-17.684-35.124 0-45.379zm-123.216 22.69c0-17.845 14.454-32.299 32.298-32.299s32.298 14.454 32.298 32.298-14.453 32.298-32.298 32.298c-17.844 0-32.298-14.453-32.298-32.298"/></svg>