<svg xmlns="http://www.w3.org/2000/svg" viewBox="0 0 512 512"><!--! Font Awesome Free 7.0.1 by @fontawesome - https://fontawesome.com License - https://fontawesome.com/license/free (Icons: CC BY 4.0, Fonts: SIL OFL 1.1, Code: MIT License) Copyright 2025 Fonticons, Inc.--><path fill="currentColor" d="M212.844 24.978C221.467 10.044 237.556 0 256.044 0c27.467 0 49.778 22.311 49.778 49.778 0 22.578-15.022 41.6-35.555 47.733a50 50 0 0 1-14.223 2.045c-27.466 0-49.777-22.312-49.777-49.778 0-8.978 2.4-17.511 6.577-24.8M368.311 294.31l-41.155-55.467v244.712c0 15.733-12.712 28.444-28.445 28.444s-28.444-12.711-28.444-28.444V128.888A118.8 118.8 0 0 1 351.333 176L414 260.444c9.333 12.623 6.756 30.4-5.867 39.823-12.622 9.422-30.4 6.755-39.822-5.867zM241.822 128.89v354.667c0 15.733-12.71 28.444-28.444 28.444s-28.445-12.711-28.445-28.444V369.778H162c-9.689 0-16.533-9.511-13.511-18.756l38.222-114.666-42.933 57.866c-9.334 12.622-27.2 15.29-39.822 5.867s-15.29-27.2-5.867-39.822l62.667-84.445c19.555-26.31 48.977-43.2 81.066-47.11z"/></svg>