<svg xmlns="http://www.w3.org/2000/svg" viewBox="0 0 512 512"><!--! Font Awesome Free 7.0.1 by @fontawesome - https://fontawesome.com License - https://fontawesome.com/license/free (Icons: CC BY 4.0, Fonts: SIL OFL 1.1, Code: MIT License) Copyright 2025 Fonticons, Inc.--><path fill="currentColor" d="M73.143 0C32.8 0 0 32.8 0 73.143v365.714C0 479.2 32.8 512 73.143 512h365.714C479.2 512 512 479.2 512 438.857V73.143C512 32.8 479.2 0 438.857 0zm100.571 110.514c11.2-3.085 22.972 2.743 27.429 13.486l23.2 55.657c3.886 9.486 1.257 20.343-6.743 26.857l-25.257 20.572C210.857 268 243.2 301.37 283.314 321.257l22.057-26.971a23.33 23.33 0 0 1 26.858-6.743l55.657 23.2c10.743 4.457 16.457 16.228 13.485 27.428l-.914 3.2c-10.057 36.915-45.828 68.458-89.371 59.2-100-21.142-178.629-99.885-199.886-199.885-9.257-43.543 22.286-79.315 59.2-89.372l3.2-.914z"/></svg>