<svg xmlns="http://www.w3.org/2000/svg" viewBox="0 0 512 512"><!--! Font Awesome Free 7.0.1 by @fontawesome - https://fontawesome.com License - https://fontawesome.com/license/free (Icons: CC BY 4.0, Fonts: SIL OFL 1.1, Code: MIT License) Copyright 2025 Fonticons, Inc.--><path fill="currentColor" d="M38.259 8.287C29.972 0 16.573 0 8.375 8.287.176 16.573.088 29.972 8.287 38.259L473.74 503.713c8.287 8.287 21.686 8.287 29.884 0 8.199-8.286 8.287-21.685 0-29.884l-50.248-50.248V255.824c23.626-1.675 42.314-21.422 42.314-45.488 0-7.052-1.674-14.105-4.848-20.452L440.86 89.653c-9.61-19.13-29.091-31.207-50.513-31.207H121.653c-9.433 0-18.513 2.38-26.623 6.7zm247.537 247.625h111.25v111.25zm26.623 146.16L256 345.652v8.993c0 7.757-6.347 14.104-14.105 14.104H129.058c-7.758 0-14.105-6.347-14.105-14.104v-98.733h51.306L47.427 137.08l-26.358 52.804c-3.174 6.347-4.849 13.312-4.849 20.452 0 24.066 18.69 43.813 42.314 45.488v155.24c0 23.36 18.954 42.313 42.314 42.313h169.257c23.36 0 42.314-18.953 42.314-42.314z"/></svg>