<svg xmlns="http://www.w3.org/2000/svg" viewBox="0 0 512 512"><!--! Font Awesome Free 7.0.1 by @fontawesome - https://fontawesome.com License - https://fontawesome.com/license/free (Icons: CC BY 4.0, Fonts: SIL OFL 1.1, Code: MIT License) Copyright 2025 Fonticons, Inc.--><path fill="currentColor" d="M164.571 0C144.343 0 128 16.343 128 36.571v292.572h-27.429a27.363 27.363 0 0 0-27.428 27.428A27.363 27.363 0 0 0 100.57 384H128v91.429C128 495.657 144.343 512 164.571 512c20.229 0 36.572-16.343 36.572-36.571V384h100.571a27.363 27.363 0 0 0 27.429-27.429 27.363 27.363 0 0 0-27.429-27.428H201.143V256h164.571c20.229 0 36.572-16.343 36.572-36.571 0-20.229-16.343-36.572-36.572-36.572H201.143V73.143h201.143c20.228 0 36.571-16.343 36.571-36.572C438.857 16.343 422.514 0 402.286 0z"/></svg>