<svg xmlns="http://www.w3.org/2000/svg" viewBox="0 0 512 512"><!--! Font Awesome Free 7.0.1 by @fontawesome - https://fontawesome.com License - https://fontawesome.com/license/free (Icons: CC BY 4.0, Fonts: SIL OFL 1.1, Code: MIT License) Copyright 2025 Fonticons, Inc.--><path fill="currentColor" d="M490.667 284.444A21.28 21.28 0 0 1 512 305.778v92.444c0 31.378-25.511 56.89-56.889 56.89H56.89C25.51 455.111 0 429.6 0 398.221v-92.444a21.28 21.28 0 0 1 21.333-21.334 21.28 21.28 0 0 1 21.334 21.334v92.444c0 7.822 6.4 14.222 14.222 14.222H455.11c7.822 0 14.222-6.4 14.222-14.222v-92.444a21.28 21.28 0 0 1 21.334-21.334M369.777 56.89c31.379 0 56.89 25.511 56.89 56.889v199.11c0 31.379-25.511 56.89-56.89 56.89H142.223c-31.378 0-56.889-25.511-56.889-56.89v-199.11c0-31.378 25.511-56.89 56.89-56.89zm-32.977 75.2c-9.511-6.933-22.844-4.8-29.778 4.711l-76.089 104.622-23.555-24.355c-8.178-8.445-21.69-8.711-30.134-.534-8.444 8.178-8.71 21.69-.533 30.134l41.245 42.666a21.22 21.22 0 0 0 16.8 6.49 21.54 21.54 0 0 0 15.822-8.712l90.933-125.244c6.933-9.511 4.8-22.845-4.711-29.778"/></svg>