<svg xmlns="http://www.w3.org/2000/svg" viewBox="0 0 512 512"><!--! Font Awesome Free 7.0.1 by @fontawesome - https://fontawesome.com License - https://fontawesome.com/license/free (Icons: CC BY 4.0, Fonts: SIL OFL 1.1, Code: MIT License) Copyright 2025 Fonticons, Inc.--><path fill="currentColor" d="M412.444 398.222h42.667c31.378 0 56.889-25.51 56.889-56.889V170.667c0-31.378-25.511-56.89-56.889-56.89h-42.667zm-42.666-284.444H142.222v284.444h227.556zm-312.89 0C25.512 113.778 0 139.288 0 170.667v170.666c0 31.378 25.511 56.89 56.889 56.89h42.667V113.777zM192 213.333A21.28 21.28 0 0 1 213.333 192a21.28 21.28 0 0 1 21.334 21.333 21.28 21.28 0 0 1-21.334 21.334A21.28 21.28 0 0 1 192 213.333M298.667 192A21.28 21.28 0 0 1 320 213.333a21.28 21.28 0 0 1-21.333 21.334 21.28 21.28 0 0 1-21.334-21.334A21.28 21.28 0 0 1 298.667 192M192 298.667a21.28 21.28 0 0 1 21.333-21.334 21.28 21.28 0 0 1 21.334 21.334A21.28 21.28 0 0 1 213.333 320 21.28 21.28 0 0 1 192 298.667m106.667-21.334A21.28 21.28 0 0 1 320 298.667 21.28 21.28 0 0 1 298.667 320a21.28 21.28 0 0 1-21.334-21.333 21.28 21.28 0 0 1 21.334-21.334"/></svg>