<svg xmlns="http://www.w3.org/2000/svg" viewBox="0 0 512 512"><!--! Font Awesome Free 7.0.1 by @fontawesome - https://fontawesome.com License - https://fontawesome.com/license/free (Icons: CC BY 4.0, Fonts: SIL OFL 1.1, Code: MIT License) Copyright 2025 Fonticons, Inc.--><path fill="currentColor" d="m106.306 119.53 63.435-63.436C205.694 20.141 254.447 0 305.271 0c105.882 0 191.717 85.835 191.717 191.624 0 43.67-14.87 85.74-41.882 119.529-22.212-15.812-49.318-25.13-78.588-25.13s-56.377 9.318-78.494 25.036zm134.588 302.117c0 9.13.941 17.977 2.635 26.541-18.635-4.894-35.764-14.588-49.6-28.423-11.482-11.483-30.023-11.483-41.505 0l-46.495 46.494c-9.976 9.976-23.529 15.623-37.647 15.623-29.364 0-53.27-23.811-53.27-53.27 0-14.118 5.647-27.67 15.623-37.647L77.13 344.47c11.483-11.483 11.483-30.024 0-41.506-20.423-20.424-31.905-48.189-31.905-77.083 0-27.67 10.447-54.211 29.27-74.353L265.93 343.153c-15.717 22.118-25.035 49.223-25.035 78.494m135.53-90.353c49.882 0 90.352 40.47 90.352 90.353S426.306 512 376.424 512s-90.353-40.47-90.353-90.353 40.47-90.353 90.353-90.353"/></svg>