<svg xmlns="http://www.w3.org/2000/svg" viewBox="0 0 512 512"><!--! Font Awesome Free 7.0.1 by @fontawesome - https://fontawesome.com License - https://fontawesome.com/license/free (Icons: CC BY 4.0, Fonts: SIL OFL 1.1, Code: MIT License) Copyright 2025 Fonticons, Inc.--><path fill="currentColor" d="M290.133 34.133C290.133 15.253 274.88 0 256 0s-34.133 15.253-34.133 34.133V258.88l-44.16-44.16c-13.334-13.333-34.987-13.333-48.32 0-13.334 13.333-13.334 34.987 0 48.32l102.4 102.4c13.333 13.333 34.986 13.333 48.32 0l102.4-102.4c13.333-13.333 13.333-34.987 0-48.32s-34.987-13.333-48.32 0l-44.054 44.16zm-204.8 307.2c-37.653 0-68.266 30.614-68.266 68.267v34.133C17.067 481.387 47.68 512 85.333 512h341.334c37.653 0 68.266-30.613 68.266-68.267V409.6c0-37.653-30.613-68.267-68.266-68.267H376.64l-60.373 60.374c-33.28 33.28-87.36 33.28-120.64 0l-60.267-60.374zM409.6 401.067a25.54 25.54 0 0 1 25.6 25.6 25.54 25.54 0 0 1-25.6 25.6 25.54 25.54 0 0 1-25.6-25.6 25.54 25.54 0 0 1 25.6-25.6"/></svg>