<svg xmlns="http://www.w3.org/2000/svg" viewBox="0 0 512 512"><!--! Font Awesome Free 7.0.1 by @fontawesome - https://fontawesome.com License - https://fontawesome.com/license/free (Icons: CC BY 4.0, Fonts: SIL OFL 1.1, Code: MIT License) Copyright 2025 Fonticons, Inc.--><path fill="currentColor" d="M284.543 56.82c0-15.74-12.715-28.455-28.454-28.455s-28.454 12.716-28.454 28.455v126.177l-28.455 17.072V96.3c0-21.785-17.695-39.48-39.48-39.48-11.115 0-21.697 4.712-29.166 12.893L107.06 95.5A411.8 411.8 0 0 0 0 372.485v27.12c0 46.417 37.613 84.03 84.03 84.03 19.562 0 38.857-4.535 56.374-13.338l4.446-2.223c33.256-16.628 54.241-50.596 54.241-87.853V266.404L256 232.258l56.909 34.146V380.22c0 37.168 20.985 71.225 54.24 87.853l4.447 2.223c17.517 8.714 36.812 13.338 56.375 13.338 46.416 0 84.029-37.613 84.029-84.03v-5.513a447.6 447.6 0 0 0-92.832-272.983l-37.791-49.44c-7.203-9.425-18.407-14.85-30.233-14.85-21.074 0-38.146 17.073-38.146 38.147V200.07l-28.455-17.072z"/></svg>