<svg xmlns="http://www.w3.org/2000/svg" viewBox="0 0 512 512"><!--! Font Awesome Free 7.0.1 by @fontawesome - https://fontawesome.com License - https://fontawesome.com/license/free (Icons: CC BY 4.0, Fonts: SIL OFL 1.1, Code: MIT License) Copyright 2025 Fonticons, Inc.--><path fill="currentColor" d="M148.235 269.476c52.135 0 94.331-42.197 94.331-94.331s-42.196-94.332-94.331-94.332-94.331 42.197-94.331 94.332 42.196 94.33 94.33 94.33m148.235-94.331c0 72.685-52.304 133.158-121.368 145.792.085.842.085 1.6.085 2.443v53.903h26.952c14.907 0 26.951 12.044 26.951 26.952s-12.044 26.952-26.951 26.952h-26.952v26.952c0 14.907-12.044 26.951-26.952 26.951s-26.952-12.044-26.952-26.951v-26.952H94.331c-14.907 0-26.951-12.044-26.951-26.952s12.044-26.952 26.951-26.952h26.952V323.38c0-.843 0-1.6.084-2.443C52.303 308.303 0 247.83 0 175.145 0 93.278 66.369 26.91 148.235 26.91S296.47 93.278 296.47 175.145m-8.844 127.178a191.5 191.5 0 0 0 30.405-44.723c13.56 7.58 29.226 11.876 45.903 11.876 52.134 0 94.33-42.197 94.33-94.331s-42.28-94.332-94.415-94.332c-16.676 0-32.258 4.296-45.902 11.876-8.001-16.34-18.192-31.416-30.405-44.723 22.235-13.392 48.345-21.056 76.223-21.056C445.631 26.91 512 93.278 512 175.145c0 72.685-52.303 133.158-121.367 145.792.084.758.084 1.6.084 2.443v53.903h26.952c14.907 0 26.951 12.044 26.951 26.952s-12.044 26.952-26.951 26.952h-26.952v26.952c0 14.907-12.044 26.951-26.952 26.951s-26.952-12.044-26.952-26.951v-26.952h-26.952c-14.907 0-26.951-12.044-26.951-26.952s12.044-26.952 26.951-26.952h26.952V323.38c0-.843 0-1.6.085-2.443-17.772-3.285-34.448-9.686-49.356-18.698z"/></svg>