<svg xmlns="http://www.w3.org/2000/svg" viewBox="0 0 512 512"><!--! Font Awesome Free 7.0.1 by @fontawesome - https://fontawesome.com License - https://fontawesome.com/license/free (Icons: CC BY 4.0, Fonts: SIL OFL 1.1, Code: MIT License) Copyright 2025 Fonticons, Inc.--><path fill="currentColor" d="M184.664 10.565c58.862 0 106.538 47.675 106.538 106.537S243.526 223.64 184.664 223.64 78.127 175.964 78.127 117.102 125.803 10.565 184.664 10.565m-26.367 262.792h52.735c5.949 0 11.72.355 17.49.976-.799 4.35-1.243 8.79-1.243 13.317v81.768a85.2 85.2 0 0 0 24.948 60.282l28.32 28.321H26.369C11.808 458.021 0 446.213 0 431.653c0-87.45 70.847-158.296 158.297-158.296m111.597 96.06V287.65c0-15.714 12.696-28.41 28.41-28.41h81.767c11.276 0 22.107 4.528 30.097 12.519l85.23 85.23c16.602 16.601 16.602 43.59 0 60.282l-67.562 67.562c-16.602 16.602-43.592 16.602-60.283 0l-85.23-85.23c-7.99-7.99-12.518-18.821-12.518-30.096zm92.332-39.24c0-11.808-9.5-21.308-21.307-21.308a21.256 21.256 0 0 0-21.307 21.308c0 11.807 9.5 21.307 21.307 21.307 11.808 0 21.307-9.5 21.307-21.307"/></svg>