<svg xmlns="http://www.w3.org/2000/svg" viewBox="0 0 512 512"><!--! Font Awesome Free 7.0.1 by @fontawesome - https://fontawesome.com License - https://fontawesome.com/license/free (Icons: CC BY 4.0, Fonts: SIL OFL 1.1, Code: MIT License) Copyright 2025 Fonticons, Inc.--><path fill="currentColor" d="M135.565 50.911c10.849 7.565 13.437 22.495 5.872 33.245l-55.739 79.626c-4.08 5.773-10.45 9.456-17.518 10.053-7.066.597-14.034-1.791-19.01-6.768L9.356 127.253c-9.256-9.356-9.256-24.485 0-33.84 9.257-9.357 24.485-9.257 33.842 0l19.707 19.707 39.415-56.336c7.565-10.85 22.495-13.437 33.245-5.873m0 159.254c10.849 7.564 13.437 22.494 5.872 33.244l-55.739 79.627c-4.08 5.773-10.45 9.455-17.518 10.053-7.066.597-14.034-1.792-19.01-6.769L9.356 286.507C0 277.151 0 262.022 9.356 252.765s24.485-9.356 33.742 0l19.708 19.708 39.415-56.336c7.564-10.85 22.494-13.437 33.244-5.873zm89.779-99.832c0-17.618 14.233-31.85 31.85-31.85H480.15c17.618 0 31.851 14.232 31.851 31.85 0 17.617-14.233 31.85-31.85 31.85H257.193c-17.617 0-31.85-14.233-31.85-31.85m0 159.253c0-17.617 14.233-31.85 31.85-31.85H480.15c17.618 0 31.851 14.233 31.851 31.85s-14.233 31.851-31.85 31.851H257.193c-17.617 0-31.85-14.233-31.85-31.85M161.642 428.84c0-17.618 14.234-31.85 31.851-31.85h286.656c17.618 0 31.851 14.232 31.851 31.85 0 17.617-14.233 31.85-31.85 31.85H193.492c-17.617 0-31.85-14.233-31.85-31.85M66.09 389.026c21.997 0 39.814 17.817 39.814 39.814s-17.817 39.813-39.814 39.813-39.813-17.816-39.813-39.813 17.816-39.814 39.813-39.814"/></svg>