<svg xmlns="http://www.w3.org/2000/svg" viewBox="0 0 512 512"><!--! Font Awesome Free 7.0.1 by @fontawesome - https://fontawesome.com License - https://fontawesome.com/license/free (Icons: CC BY 4.0, Fonts: SIL OFL 1.1, Code: MIT License) Copyright 2025 Fonticons, Inc.--><path fill="currentColor" d="M256 512c141.4 0 256-114.6 256-256S397.4 0 256 0 0 114.6 0 256s114.6 256 256 256m96-344v176c0 13.3-10.7 24-24 24s-24-10.7-24-24v-64h-96v64c0 13.3-10.7 24-24 24s-24-10.7-24-24V168c0-13.3 10.7-24 24-24s24 10.7 24 24v64h96v-64c0-13.3 10.7-24 24-24s24 10.7 24 24"/></svg>