<svg xmlns="http://www.w3.org/2000/svg" viewBox="0 0 512 512"><!--! Font Awesome Free 7.0.1 by @fontawesome - https://fontawesome.com License - https://fontawesome.com/license/free (Icons: CC BY 4.0, Fonts: SIL OFL 1.1, Code: MIT License) Copyright 2025 Fonticons, Inc.--><path fill="currentColor" d="M256 0c6.222 0 12.178 2.756 16.267 7.556l120.889 142.222c5.422 6.31 6.577 15.2 3.11 22.755-3.466 7.556-11.022 12.356-19.377 12.356h-22.133l66.844 78.667c5.422 6.31 6.578 15.2 3.111 22.755-3.467 7.556-11.022 12.356-19.378 12.356h-34.222l78.933 92.889c5.423 6.31 6.578 15.2 3.112 22.755-3.467 7.556-11.023 12.356-19.378 12.356H284.444v56.889c0 15.733-12.71 28.444-28.444 28.444s-28.444-12.711-28.444-28.444v-56.89H78.222c-8.355 0-15.91-4.8-19.378-12.355-3.466-7.555-2.31-16.444 3.112-22.755l78.933-92.89h-34.222c-8.356 0-15.911-4.8-19.378-12.355s-2.311-16.444 3.111-22.755l66.844-78.667h-22.133c-8.355 0-15.911-4.8-19.378-12.356-3.466-7.555-2.31-16.444 3.111-22.755L239.734 7.556C243.821 2.756 249.777 0 256 0"/></svg>