<svg xmlns="http://www.w3.org/2000/svg" viewBox="0 0 512 512"><!--! Font Awesome Free 7.0.1 by @fontawesome - https://fontawesome.com License - https://fontawesome.com/license/free (Icons: CC BY 4.0, Fonts: SIL OFL 1.1, Code: MIT License) Copyright 2025 Fonticons, Inc.--><path fill="currentColor" d="M146.954 10.142C109.144 0 70.252 22.449 60.209 60.258L10.191 246.843c-10.142 37.81 12.307 76.702 50.117 86.843l186.584 50.019c37.81 10.141 76.702-12.308 86.843-50.117l50.019-186.585c10.141-37.81-12.308-76.701-50.117-86.843zM169.6 212.677c-6.006-9.748-6.203-22.055-.59-32 5.612-9.945 16.245-16.05 27.765-15.95 11.422.098 21.859 6.4 27.373 16.442 6.006 9.748 6.203 22.056.59 32-5.612 9.945-16.246 16.05-27.766 15.951-11.421-.098-21.858-6.4-27.372-16.443m-83.89 12.11c9.748-6.005 22.056-6.202 32-.59 9.945 5.612 16.05 16.246 15.952 27.766-.099 11.422-6.4 21.859-16.444 27.372-9.747 6.007-22.055 6.203-32 .591S69.17 263.68 69.268 252.16c.098-11.422 6.4-21.858 16.443-27.372m182.155 94.918c-9.748 6.006-22.056 6.203-32 .59-9.945-5.612-16.05-16.246-15.951-27.766.098-11.421 6.4-21.858 16.443-27.372 9.748-6.006 22.055-6.203 32-.59 9.945 5.611 16.05 16.245 15.95 27.765-.098 11.422-6.4 21.859-16.442 27.373m8.861-205.194c9.748-6.006 22.056-6.203 32-.591 9.945 5.612 16.05 16.246 15.95 27.766-.098 11.422-6.4 21.859-16.442 27.372-9.748 6.007-22.056 6.204-32 .591-9.945-5.612-16.05-16.246-15.95-27.766.098-11.421 6.4-21.858 16.442-27.372m-119.138 14.178c-9.748 6.006-22.056 6.203-32 .591-9.945-5.612-16.05-16.246-15.951-27.766.098-11.422 6.4-21.859 16.443-27.372 9.748-6.007 22.055-6.204 32-.591s16.05 16.246 15.95 27.766c-.098 11.421-6.4 21.858-16.442 27.372m261.71 68.234-39.975 148.874c-16.935 63.015-81.723 100.43-144.738 83.594l-37.711-10.142v29.736c0 34.757 28.258 63.015 63.015 63.015h189.046c34.757 0 63.016-28.258 63.016-63.015V259.938c0-34.756-28.259-63.015-63.016-63.015z"/></svg>