<svg xmlns="http://www.w3.org/2000/svg" viewBox="0 0 512 512"><!--! Font Awesome Free 7.0.1 by @fontawesome - https://fontawesome.com License - https://fontawesome.com/license/free (Icons: CC BY 4.0, Fonts: SIL OFL 1.1, Code: MIT License) Copyright 2025 Fonticons, Inc.--><path fill="currentColor" d="m130.635 176.861-17.289-17.289c-11.556-11.556-11.556-30.324 0-41.88L219.39 11.557C230.945 0 249.713 0 261.269 11.557l17.29 17.38c11.556 11.557 11.556 30.325 0 41.881L172.515 176.861c-11.557 11.556-30.325 11.556-41.881 0m98.369 53.9-29.03-29.03L303.52 98.184l110.388 110.388-103.546 103.546-29.03-29.03-214.49 214.49C52.42 512 29.03 512 14.516 497.577s-14.423-37.813 0-52.328zm106.227 150.604c-11.556-11.556-11.556-30.324 0-41.88l106.043-106.043c11.557-11.557 30.324-11.557 41.88 0l17.29 17.288c11.556 11.557 11.556 30.325 0 41.881L394.4 398.746c-11.557 11.557-30.324 11.557-41.881 0l-17.289-17.288z"/></svg>