<svg xmlns="http://www.w3.org/2000/svg" viewBox="0 0 512 512"><!--! Font Awesome Free 7.0.1 by @fontawesome - https://fontawesome.com License - https://fontawesome.com/license/free (Icons: CC BY 4.0, Fonts: SIL OFL 1.1, Code: MIT License) Copyright 2025 Fonticons, Inc.--><path fill="currentColor" d="M186.007 126.991c9.254-9.254 9.254-24.217 0-33.372s-24.217-9.254-33.372 0l-30.517 30.517V23.626A23.57 23.57 0 0 0 98.492 0a23.57 23.57 0 0 0-23.626 23.626v100.51L44.348 93.62c-9.253-9.254-24.216-9.254-33.372 0s-9.253 24.217 0 33.372l70.879 70.879c9.254 9.253 24.217 9.253 33.372 0l70.879-70.879zm244.138 70.879 70.879-70.879c9.253-9.254 9.253-24.217 0-33.372s-24.217-9.254-33.372 0l-30.518 30.517V23.626A23.57 23.57 0 0 0 413.508 0a23.57 23.57 0 0 0-23.626 23.626v100.51L359.365 93.62c-9.254-9.254-24.217-9.254-33.372 0s-9.254 24.217 0 33.372l70.878 70.879c9.254 9.253 24.217 9.253 33.372 0zM62.757 295.918 39.918 476.462c-2.362 18.803 12.306 35.44 31.207 35.44h152.094c17.424 0 31.501-14.078 31.501-31.502V364.828a10.38 10.38 0 0 1 10.435-10.435c3.938 0 7.58 2.265 9.352 5.808l67.138 134.375C346.961 505.207 357.888 512 369.8 512h70.78c19 0 33.667-16.637 31.206-35.44l-22.74-180.543c-1.181-9.549-6.793-18.114-15.062-23.036L271.062 175.13c-10.041-6.005-22.544-6.005-32.585.099L77.622 272.98c-8.17 5.02-13.684 13.487-14.865 22.937"/></svg>