<svg xmlns="http://www.w3.org/2000/svg" viewBox="0 0 512 512"><!--! Font Awesome Free 7.0.1 by @fontawesome - https://fontawesome.com License - https://fontawesome.com/license/free (Icons: CC BY 4.0, Fonts: SIL OFL 1.1, Code: MIT License) Copyright 2025 Fonticons, Inc.--><path fill="currentColor" d="m336.229 37.993-99.103 99.103-9.17-9.17c-12.192-12.192-31.993-12.192-44.186 0-12.193 12.194-12.193 31.995 0 44.188L339.838 328.18c12.192 12.193 31.994 12.193 44.186 0s12.193-31.994 0-44.186l-9.169-9.17 99.103-99.102C512 137.68 512 76.034 473.958 38.09 435.917.146 374.27.05 336.326 38.09zM57.062 324.865c-14.631 14.631-22.825 34.53-22.825 55.209v41.358l-25.946 38.92C0 472.738 1.658 489.223 12.193 499.757c10.534 10.535 27.019 12.193 39.407 3.902l38.92-25.946h41.357c20.68 0 40.578-8.194 55.21-22.825l106.71-106.711-44.186-44.187L142.9 410.702c-2.927 2.927-6.926 4.585-11.023 4.585H96.665v-35.213c0-4.097 1.658-8.096 4.584-11.022L207.96 262.34l-44.186-44.186z"/></svg>