<svg xmlns="http://www.w3.org/2000/svg" viewBox="0 0 512 512"><!--! Font Awesome Free 7.0.1 by @fontawesome - https://fontawesome.com License - https://fontawesome.com/license/free (Icons: CC BY 4.0, Fonts: SIL OFL 1.1, Code: MIT License) Copyright 2025 Fonticons, Inc.--><path fill="currentColor" d="M187.927 14.613c-9.984-12.525-28.318-14.522-40.753-4.538s-14.522 28.318-4.538 40.844c7.08 8.804 15.067 16.791 23.961 23.689-42.477 28.681-70.342 77.331-70.342 132.425 0 78.33 56.365 143.498 130.7 157.112v31.677h-29.044c-16.065 0-29.044 12.98-29.044 29.045s12.979 29.044 29.044 29.044h29.045v29.045C226.956 499.02 239.935 512 256 512s29.044-12.98 29.044-29.044V453.91h29.045c16.065 0 29.044-12.98 29.044-29.044 0-16.066-12.979-29.045-29.044-29.045h-29.045v-31.677c74.336-13.614 130.7-78.783 130.7-157.112 0-55.094-27.864-103.744-70.341-132.425 8.894-6.989 16.972-14.885 23.961-23.69 10.075-12.525 7.988-30.768-4.538-40.843s-30.769-7.987-40.753 4.538C308.099 34.581 283.502 47.288 256 47.288s-52.008-12.707-68.073-32.675M256 308.689c-56.183 0-101.656-45.473-101.656-101.656S199.817 105.377 256 105.377s101.656 45.473 101.656 101.656c0 56.092-45.473 101.656-101.565 101.656z"/></svg>