<svg xmlns="http://www.w3.org/2000/svg" viewBox="0 0 512 512"><!--! Font Awesome Free 7.0.1 by @fontawesome - https://fontawesome.com License - https://fontawesome.com/license/free (Icons: CC BY 4.0, Fonts: SIL OFL 1.1, Code: MIT License) Copyright 2025 Fonticons, Inc.--><path fill="currentColor" d="M0 193.4c0-28.24 22.96-51.2 51.2-51.2h51.2l102.32-92.08c14.64-13.12 36.8-13.12 51.36 0L358.4 142.2h51.2c26.4 0 48.16 20 50.88 45.76a102.1 102.1 0 0 0-38.08-7.36C365.84 180.6 320 226.44 320 283v19.52c-15.68 14.08-25.6 34.48-25.6 57.2v76.8c0 4.4.4 8.72 1.04 12.88H51.2C22.96 449.4 0 426.44 0 398.2zM265.84 313c-4.8-2.8-10.32-4.4-16.24-4.4h-38.4c-17.68 0-32 14.32-32 32V411H256v-51.28c0-16.64 3.52-32.4 9.84-46.72M89.6 347c7.04 0 12.8-5.76 12.8-12.8v-25.6c0-7.04-5.76-12.8-12.8-12.8H64c-7.04 0-12.8 5.76-12.8 12.8v25.6c0 7.04 5.76 12.8 12.8 12.8zm12.8-115.2v-25.6c0-7.04-5.76-12.8-12.8-12.8H64c-7.04 0-12.8 5.76-12.8 12.8v25.6c0 7.04 5.76 12.8 12.8 12.8h25.6c7.04 0 12.8-5.76 12.8-12.8m179.2-38.4c0-28.24-22.96-51.2-51.2-51.2s-51.2 22.96-51.2 51.2 22.96 51.2 51.2 51.2 51.2-22.96 51.2-51.2m166.4 128v-38.32c0-14.16-11.44-25.6-25.6-25.6s-25.6 11.44-25.6 25.6v38.32zm-89.6 2.16v-40.48c0-35.36 28.64-64 64-64s64 28.64 64 64v40.48c14.88 5.28 25.6 19.52 25.6 36.24v76.8c0 21.2-17.2 38.4-38.4 38.4H371.2c-21.2 0-38.4-17.2-38.4-38.4v-76.8c0-16.72 10.72-30.96 25.6-36.24"/></svg>