<svg xmlns="http://www.w3.org/2000/svg" viewBox="0 0 512 512"><!--! Font Awesome Free 7.0.1 by @fontawesome - https://fontawesome.com License - https://fontawesome.com/license/free (Icons: CC BY 4.0, Fonts: SIL OFL 1.1, Code: MIT License) Copyright 2025 Fonticons, Inc.--><path fill="currentColor" d="M35.287 76.438c6.744-23.361 28.151-39.392 52.49-39.392h336.25c24.34 0 45.746 16.03 52.589 39.392l22.872 78.394c12.512 42.715-19.647 85.528-64.122 85.528-25.707 0-48.287-14.564-59.43-36.264-11.339 21.407-33.82 36.264-60.017 36.264-26 0-48.58-14.662-59.919-36.166-11.339 21.504-33.918 36.166-59.92 36.166-26.195 0-48.677-14.76-60.016-36.264-11.143 21.602-33.723 36.264-59.43 36.264-44.573 0-76.634-42.715-64.122-85.528zm64.22 273.4h312.79v-64.905c7.43 1.564 15.152 2.346 22.971 2.346 13.978 0 27.37-2.541 39.588-7.038v147.794c0 25.903-21.016 46.919-46.919 46.919H83.867c-25.903 0-46.919-21.016-46.919-46.919V280.241a114.3 114.3 0 0 0 39.588 7.038c7.918 0 15.542-.782 22.97-2.346z"/></svg>