<svg xmlns="http://www.w3.org/2000/svg" viewBox="0 0 512 512"><!--! Font Awesome Free 7.0.1 by @fontawesome - https://fontawesome.com License - https://fontawesome.com/license/free (Icons: CC BY 4.0, Fonts: SIL OFL 1.1, Code: MIT License) Copyright 2025 Fonticons, Inc.--><path fill="currentColor" d="M277.638 35.552v115.645a21.63 21.63 0 0 1-21.683 21.683 21.63 21.63 0 0 1-21.684-21.683V35.552a21.63 21.63 0 0 1 21.684-21.684 21.63 21.63 0 0 1 21.683 21.684M140.31 295.753c0-15.992 12.92-28.911 28.911-28.911H342.69c15.991 0 28.91 12.92 28.91 28.911v28.911h72.279c23.942 0 43.367 19.425 43.367 43.367v86.734c0 23.942-19.425 43.367-43.367 43.367H68.032c-23.942 0-43.367-19.425-43.367-43.367V368.03c0-23.942 19.425-43.367 43.367-43.367h72.278zM6.595 139.181c6.686-9.939 20.148-12.65 30.086-6.054l86.734 57.823c9.938 6.685 12.649 20.147 6.053 30.085s-20.147 12.65-30.086 6.054L12.65 169.266C2.71 162.581 0 149.12 6.595 139.181m468.634-6.054c9.938-6.685 23.4-3.975 30.085 6.054s3.976 23.4-6.053 30.085l-86.734 57.823c-9.938 6.685-23.4 3.975-30.085-6.054s-3.976-23.4 6.053-30.085z"/></svg>