<svg xmlns="http://www.w3.org/2000/svg" viewBox="0 0 512 512"><!--! Font Awesome Free 7.0.1 by @fontawesome - https://fontawesome.com License - https://fontawesome.com/license/free (Icons: CC BY 4.0, Fonts: SIL OFL 1.1, Code: MIT License) Copyright 2025 Fonticons, Inc.--><path fill="currentColor" d="M512 73.143C512 32.8 479.2 0 438.857 0H73.143C32.8 0 0 32.8 0 73.143v365.714C0 479.2 32.8 512 73.143 512h365.714C479.2 512 512 479.2 512 438.857zm-219.429 64a27.363 27.363 0 0 1-27.428 27.428h-128a27.363 27.363 0 0 1-27.429-27.428 27.363 27.363 0 0 1 27.429-27.429h128a27.363 27.363 0 0 1 27.428 27.429m82.286 91.428A27.363 27.363 0 0 1 402.286 256a27.363 27.363 0 0 1-27.429 27.429H137.143A27.363 27.363 0 0 1 109.714 256a27.363 27.363 0 0 1 27.429-27.429zM219.43 374.857A27.363 27.363 0 0 1 192 402.286h-54.857a27.363 27.363 0 0 1-27.429-27.429 27.363 27.363 0 0 1 27.429-27.428H192a27.363 27.363 0 0 1 27.429 27.428"/></svg>