<svg xmlns="http://www.w3.org/2000/svg" viewBox="0 0 512 512"><!--! Font Awesome Free 7.0.1 by @fontawesome - https://fontawesome.com License - https://fontawesome.com/license/free (Icons: CC BY 4.0, Fonts: SIL OFL 1.1, Code: MIT License) Copyright 2025 Fonticons, Inc.--><path fill="currentColor" d="M190.171 230.354c60.618 0 109.715-49.097 109.715-109.714S250.789 10.926 190.17 10.926c-60.617 0-109.714 49.097-109.714 109.714s49.097 109.714 109.714 109.714m-27.154 51.2C72.96 281.554 0 354.514 0 444.571c0 14.995 12.16 27.155 27.154 27.155h229.943C224 432.777 204.8 382.583 204.8 329.463v-28.434c0-6.675.914-13.258 2.651-19.475zM392.503 450.24l-12.16 5.76V284.023l87.771 29.257v17.92c0 51.017-29.44 97.371-75.611 119.131zm-21.394-209.371-102.4 34.102c-11.978 4.023-20.023 15.178-20.023 27.795V331.2c0 68.023 39.314 129.92 100.754 158.811l16.914 7.955c4.389 2.011 9.143 3.108 13.897 3.108 4.755 0 9.6-1.097 13.898-3.108l16.914-7.955C472.686 461.03 512 399.131 512 331.11v-28.435c0-12.617-8.046-23.771-20.023-27.794l-102.4-34.103c-6.034-2.011-12.526-2.011-18.468 0z"/></svg>