<svg xmlns="http://www.w3.org/2000/svg" viewBox="0 0 512 512"><!--! Font Awesome Free 7.0.1 by @fontawesome - https://fontawesome.com License - https://fontawesome.com/license/free (Icons: CC BY 4.0, Fonts: SIL OFL 1.1, Code: MIT License) Copyright 2025 Fonticons, Inc.--><path fill="currentColor" d="M26.868 121.241c0-29.731 24.172-53.904 53.903-53.904h188.663c19.961 0 37.395 10.865 46.66 26.952h34.027c27.288 0 51.882 16.508 62.326 41.691l36.89 89.53 1.432 3.538h20.803c22.32 0 40.428 18.108 40.428 40.428v53.904c0 22.319-18.108 40.427-40.428 40.427h-.337c.169 2.19.337 4.464.337 6.738 0 40.933-33.184 74.118-74.117 74.118s-74.118-33.185-74.118-74.118c0-2.274.085-4.548.337-6.738H201.802c.168 2.19.337 4.464.337 6.738 0 40.933-33.185 74.118-74.118 74.118s-74.117-33.185-74.117-74.118q0-4.548.505-8.843c-16.003-5.39-27.457-20.551-27.457-38.322v-40.428C12.044 282.952 0 270.908 0 256v-80.855c0-14.908 12.044-26.952 26.952-26.952V121.24zm296.47 26.952v80.855h69.148l-29.816-72.517c-2.105-5.053-6.99-8.338-12.465-8.338zM161.626 370.545c0-18.613-15.077-33.69-33.69-33.69-18.614 0-33.69 15.077-33.69 33.69 0 18.614 15.076 33.69 33.69 33.69s33.69-15.076 33.69-33.69m235.828 33.69c18.613 0 33.69-15.076 33.69-33.69s-15.077-33.69-33.69-33.69c-18.614 0-33.69 15.077-33.69 33.69 0 18.614 15.076 33.69 33.69 33.69"/></svg>