<svg xmlns="http://www.w3.org/2000/svg" viewBox="0 0 512 512"><!--! Font Awesome Free 7.0.1 by @fontawesome - https://fontawesome.com License - https://fontawesome.com/license/free (Icons: CC BY 4.0, Fonts: SIL OFL 1.1, Code: MIT License) Copyright 2025 Fonticons, Inc.--><path fill="currentColor" d="M450.85 193c-.1-.4-.2-.9-.2-1.3C434.95 83.3 341.75 0 228.95 0c-85 0-159 47.4-196.9 117.2L288.25 288h172.7l-13.1 48h-106.9c-8.8 0-16 7.2-16 16s7.2 16 16 16h98.2l-8.7 32h-89.5c-8.8 0-16 7.2-16 16s7.2 16 16 16h80.6c-6.7 19.1-24.8 32-45.3 32h-83.3c-17.7 0-32-14.3-32-32V327.5l-247.5-165c-5.5 19.6-8.5 40.2-8.5 61.5 0 54 19.1 103.5 50.9 142.2 8 9.7 13.1 21.6 13.1 34.2V464c0 26.5 21.5 48 48 48h259.3c44.9 0 83.8-31.1 93.6-74.9l33.9-150.3c3.3-14.4-.3-29.5-9.7-41zm-157.9-1c0-17.7 14.3-32 32-32s32 14.3 32 32-14.3 32-32 32-32-14.3-32-32"/></svg>