<svg xmlns="http://www.w3.org/2000/svg" viewBox="0 0 512 512"><!--! Font Awesome Free 7.0.1 by @fontawesome - https://fontawesome.com License - https://fontawesome.com/license/free (Icons: CC BY 4.0, Fonts: SIL OFL 1.1, Code: MIT License) Copyright 2025 Fonticons, Inc.--><path fill="currentColor" d="m265.236 107.23 94.833-94.833c12.349-12.348 32.402-12.348 44.75 0l94.833 94.834c12.348 12.348 12.348 32.4 0 44.749-12.348 12.348-32.401 12.348-44.75 0l-40.896-40.897V224.39h63.222c17.485 0 31.61 14.126 31.61 31.611s-14.125 31.611-31.61 31.611h-316.11v113.306l40.896-40.897c12.348-12.348 32.402-12.348 44.75 0s12.348 32.401 0 44.75l-94.833 94.833c-12.349 12.348-32.402 12.348-44.75 0l-94.833-94.834C0 392.421 0 372.37 12.348 360.02c12.348-12.348 32.401-12.348 44.75 0l40.797 40.897V287.61H34.673c-17.484 0-31.61-14.126-31.61-31.611s14.126-31.611 31.61-31.611h316.11V111.083l-40.896 40.897c-12.348 12.348-32.401 12.348-44.75 0-12.347-12.348-12.347-32.401 0-44.75zm148.77 227.798v142.25c0 17.484-14.126 31.61-31.611 31.61s-31.611-14.126-31.611-31.61v-142.25zM97.896 176.972V34.722c0-17.484 14.126-31.61 31.61-31.61s31.611 14.126 31.611 31.61v142.25z"/></svg>