<svg xmlns="http://www.w3.org/2000/svg" viewBox="0 0 512 512"><!--! Font Awesome Free 7.0.1 by @fontawesome - https://fontawesome.com License - https://fontawesome.com/license/free (Icons: CC BY 4.0, Fonts: SIL OFL 1.1, Code: MIT License) Copyright 2025 Fonticons, Inc.--><path fill="currentColor" d="M256.095 3.978c12.501 0 23.677 7.671 28.223 19.32l30.213 77.662 73.115-40.062c10.987-5.966 24.435-4.64 34.001 3.315 9.566 7.956 13.26 21.12 9.187 32.959l-26.708 78.893 81.734 16.29c12.218 2.463 21.783 12.123 23.962 24.435s-3.41 24.72-14.112 31.16l-71.222 43.282 52.09 64.97c7.862 9.756 8.809 23.3 2.558 34.096-6.251 10.797-18.469 16.67-30.876 14.775l-82.397-12.596-1.894 83.344c-.284 12.502-8.145 23.488-19.89 27.845-11.743 4.356-24.908.947-33.147-8.524L256 432.539l-54.932 62.603c-8.24 9.376-21.404 12.785-33.148 8.524s-19.7-15.343-19.889-27.845l-1.894-83.344-82.397 12.596c-12.313 1.894-24.625-3.978-30.876-14.775-6.25-10.797-5.209-24.34 2.557-34.095l52.09-64.971L16.29 247.95C5.588 241.51 0 229.102 2.178 216.79c2.179-12.312 11.65-21.972 23.962-24.435l81.734-16.29-26.708-78.893c-3.978-11.839-.379-24.909 9.187-32.959s23.11-9.376 34-3.315l73.022 40.062L227.587 23.3c4.736-11.65 16.006-19.321 28.508-19.321m0 113.84-14.586 37.316c-3.125 8.145-9.66 14.49-17.9 17.522-8.24 3.03-17.237 2.273-24.908-1.895l-35.043-19.226 12.88 37.884c2.842 8.24 1.895 17.332-2.462 24.909a30.18 30.18 0 0 1-20.362 14.585l-39.21 7.861 34.19 20.741a30.21 30.21 0 0 1 14.112 20.647 30.54 30.54 0 0 1-6.156 24.246l-25.004 31.254 39.589-6.062c8.618-1.325 17.426 1.137 24.056 6.725s10.608 13.827 10.797 22.54l.852 39.968 26.424-30.117c5.778-6.535 14.017-10.324 22.825-10.324s17.048 3.789 22.825 10.324l26.424 30.117.853-39.967c.19-8.714 4.167-16.953 10.797-22.541s15.437-8.05 24.056-6.725l39.589 6.062-25.004-31.254a30.24 30.24 0 0 1-6.25-24.246 30.21 30.21 0 0 1 14.111-20.647l34.19-20.741-39.21-7.86c-8.523-1.706-16.005-7.01-20.362-14.586s-5.21-16.67-2.463-24.909l12.881-37.884-35.043 19.226c-7.671 4.168-16.763 4.925-24.908 1.895a30.79 30.79 0 0 1-17.9-17.522l-14.49-37.315z"/></svg>