<svg xmlns="http://www.w3.org/2000/svg" viewBox="0 0 512 512"><!--! Font Awesome Free 7.0.1 by @fontawesome - https://fontawesome.com License - https://fontawesome.com/license/free (Icons: CC BY 4.0, Fonts: SIL OFL 1.1, Code: MIT License) Copyright 2025 Fonticons, Inc.--><path fill="currentColor" d="M.054 68.87v160.874c0 18.293 7.21 35.833 20.123 48.746l206.607 206.608c26.902 26.902 70.484 26.902 97.386 0l160.874-160.874c26.902-26.902 26.902-70.484 0-97.386L278.436 20.23C265.523 7.21 248.091 0 229.797 0H68.923C30.937 0 .053 30.884.053 68.87m120.521 17.217c19.047 0 34.435 15.388 34.435 34.434 0 19.047-15.388 34.435-34.435 34.435S86.14 139.568 86.14 120.52c0-19.046 15.388-34.434 34.435-34.434"/></svg>