<svg xmlns="http://www.w3.org/2000/svg" viewBox="0 0 512 512"><!--! Font Awesome Free 7.0.1 by @fontawesome - https://fontawesome.com License - https://fontawesome.com/license/free (Icons: CC BY 4.0, Fonts: SIL OFL 1.1, Code: MIT License) Copyright 2025 Fonticons, Inc.--><path fill="currentColor" d="M341.393 28.405c31.383 0 56.898 25.515 56.898 56.899v341.392c0 31.384-25.515 56.9-56.898 56.9H170.696c-31.383 0-56.898-25.516-56.898-56.9V85.304c0-31.384 25.515-56.9 56.898-56.9zm-120.91 369.842a21.286 21.286 0 0 0-21.337 21.337 21.286 21.286 0 0 0 21.337 21.337h71.123a21.286 21.286 0 0 0 21.337-21.337 21.286 21.286 0 0 0-21.337-21.337zM43.385 147.003c8.357-6.845 20.715-6.312 28.539 1.512 8.357 8.357 8.357 21.87 0 30.138l-27.56 27.56 22.581 22.582 2.578 2.845A38.54 38.54 0 0 1 78.236 256c0 10.224-4.09 20.003-11.291 27.205l-22.582 22.581 27.56 27.56 1.512 1.601c6.846 8.357 6.312 20.715-1.511 28.538s-20.182 8.268-28.539 1.512l-1.6-1.423-30.494-30.583A38.56 38.56 0 0 1 .178 309.61L0 305.786l.178-3.822a38.56 38.56 0 0 1 11.113-23.382L33.873 256 11.29 233.418A38.56 38.56 0 0 1 .178 210.036L0 206.214l.178-3.823a38.56 38.56 0 0 1 11.113-23.382l30.494-30.583zm396.691 1.423c7.824-7.824 20.182-8.268 28.539-1.512l1.6 1.512 30.494 30.494a38.56 38.56 0 0 1 11.113 23.382l.178 3.823-.178 3.823a38.56 38.56 0 0 1-11.113 23.381l-22.582 22.582 22.582 22.582a38.56 38.56 0 0 1 11.113 23.382l.178 3.823-.178 3.822a38.56 38.56 0 0 1-11.113 23.382l-30.494 30.494-1.6 1.512c-8.357 6.845-20.715 6.312-28.539-1.512-7.823-7.823-8.268-20.18-1.511-28.538l1.511-1.6 27.56-27.56-22.581-22.582c-7.201-7.201-11.29-16.98-11.29-27.205 0-8.89 3.11-17.514 8.712-24.36l2.578-2.845 22.582-22.581-27.56-27.56c-8.358-8.358-8.358-21.871 0-30.14"/></svg>