<svg xmlns="http://www.w3.org/2000/svg" viewBox="0 0 512 512"><!--! Font Awesome Free 7.0.1 by @fontawesome - https://fontawesome.com License - https://fontawesome.com/license/free (Icons: CC BY 4.0, Fonts: SIL OFL 1.1, Code: MIT License) Copyright 2025 Fonticons, Inc.--><path fill="currentColor" d="M8.064 8.064c-7.978 8.065-7.978 21.105 0 29.17l48.043 48.042c8.065 8.064 21.105 8.064 29.083 0 7.979-8.064 8.065-21.104 0-29.083L37.233 8.064C29.17 0 16.13 0 8.15 8.064zm495.872 0C495.87 0 482.83 0 474.853 8.064l-48.13 48.043c-8.063 8.065-8.063 21.105 0 29.083 8.065 7.979 21.105 8.065 29.084 0l48.129-47.957C512 29.17 512 16.13 503.936 8.15zM37.233 503.936l48.043-48.043c8.064-8.065 8.064-21.105 0-29.083-8.064-7.979-21.104-8.065-29.083 0L8.064 474.767C0 482.83 0 495.87 8.064 503.85s21.105 8.064 29.083 0zm466.703 0c8.064-8.065 8.064-21.105 0-29.083l-48.043-48.043c-8.065-8.065-21.105-8.065-29.083 0-7.979 8.064-8.065 21.104 0 29.083l48.043 48.043c8.064 8.064 21.104 8.064 29.083 0M256 214.82c30.284 0 54.906-24.622 54.906-54.906S286.284 105.008 256 105.008s-54.906 24.622-54.906 54.906S225.716 214.82 256 214.82m0 27.453c-53.105 0-96.086 42.982-96.086 96.086v6.864a20.54 20.54 0 0 0 20.59 20.59h150.992a20.54 20.54 0 0 0 20.59-20.59v-6.864c0-53.104-42.981-96.086-96.086-96.086m185.308-68.632c0-26.51-21.533-48.043-48.043-48.043s-48.042 21.533-48.042 48.043 21.533 48.043 48.042 48.043c26.51 0 48.043-21.534 48.043-48.043m-72.75 86.134c15.614 22.22 24.707 49.33 24.707 78.584v6.864c0 7.206-1.2 14.155-3.517 20.59h67.603c10.124 0 18.274-8.237 18.274-18.274v-9.18c0-45.469-36.89-82.359-82.36-82.359-8.579 0-16.9 1.287-24.707 3.775m-225.116 0c-7.807-2.488-16.128-3.775-24.707-3.775-45.47 0-82.36 36.89-82.36 82.36v9.179c0 10.123 8.236 18.273 18.274 18.273h67.603c-2.316-6.434-3.517-13.383-3.517-20.59v-6.863c0-29.254 9.093-56.364 24.707-78.584m23.335-86.134c0-26.51-21.533-48.043-48.042-48.043-26.51 0-48.043 21.533-48.043 48.043s21.533 48.043 48.043 48.043 48.042-21.534 48.042-48.043"/></svg>