<svg xmlns="http://www.w3.org/2000/svg" viewBox="0 0 512 512"><!--! Font Awesome Free 7.0.1 by @fontawesome - https://fontawesome.com License - https://fontawesome.com/license/free (Icons: CC BY 4.0, Fonts: SIL OFL 1.1, Code: MIT License) Copyright 2025 Fonticons, Inc.--><path fill="currentColor" d="M181.419 22.58c57.8 0 104.614 46.814 104.614 104.614 0 57.799-46.815 104.614-104.614 104.614S76.804 184.993 76.804 127.194 123.62 22.579 181.42 22.579m-25.98 258.048h53.092c-11.246 23.364-6.8 50.738 10.026 69.307-17.61 19.44-21.62 48.646-8.195 72.707l19.615 35.22a64 64 0 0 0 2.528 4.097H25.892C11.595 461.96 0 450.365 0 436.067c0-85.87 69.569-155.439 155.44-155.439m179.501-49.169a20.873 20.873 0 0 1 20.923-20.923h41.846a20.873 20.873 0 0 1 20.923 20.923v5.318c0 16.477 21.01 28.595 35.307 20.4l4.359-2.528c10.113-5.841 23.102-2.267 28.769 7.933l19.528 35.046c5.405 9.764 2.267 21.969-7.149 27.897l-4.097 2.528c-14.123 8.805-14.123 34.784 0 43.677l4.01 2.528c9.415 5.928 12.641 18.133 7.236 27.897l-19.615 35.22c-5.667 10.2-18.656 13.862-28.77 7.933l-4.271-2.528c-14.297-8.282-35.307 3.923-35.307 20.4v5.318a20.873 20.873 0 0 1-20.923 20.923h-41.846a20.873 20.873 0 0 1-20.923-20.923v-5.144c0-16.564-21.097-28.769-35.481-20.487l-4.185 2.441c-10.113 5.841-23.015 2.267-28.769-7.933l-19.702-35.22c-5.405-9.764-2.267-22.056 7.235-27.984l3.836-2.354c14.21-8.805 14.21-34.959 0-43.764l-3.923-2.44c-9.502-5.929-12.64-18.221-7.236-27.985l19.616-35.133c5.666-10.2 18.656-13.774 28.681-7.933l4.185 2.44c14.384 8.283 35.482-3.922 35.482-20.486v-5.144zm87.092 118.737c0-25.02-20.313-45.332-45.333-45.332s-45.333 20.312-45.333 45.332 20.313 45.333 45.333 45.333 45.333-20.312 45.333-45.333"/></svg>