<svg xmlns="http://www.w3.org/2000/svg" viewBox="0 0 512 512"><!--! Font Awesome Free 7.0.1 by @fontawesome - https://fontawesome.com License - https://fontawesome.com/license/free (Icons: CC BY 4.0, Fonts: SIL OFL 1.1, Code: MIT License) Copyright 2025 Fonticons, Inc.--><path fill="currentColor" d="M288 284.4c64.1-14.5 112-71.9 112-140.4C400 64.5 335.5 0 256 0S112 64.5 112 144c0 68.5 47.9 125.9 112 140.4V480c0 17.7 14.3 32 32 32s32-14.3 32-32zM264 96c-30.9 0-56 25.1-56 56 0 13.3-10.7 24-24 24s-24-10.7-24-24c0-57.4 46.6-104 104-104 13.3 0 24 10.7 24 24s-10.7 24-24 24"/></svg>