<svg xmlns="http://www.w3.org/2000/svg" viewBox="0 0 512 512"><!--! Font Awesome Free 7.0.1 by @fontawesome - https://fontawesome.com License - https://fontawesome.com/license/free (Icons: CC BY 4.0, Fonts: SIL OFL 1.1, Code: MIT License) Copyright 2025 Fonticons, Inc.--><path fill="currentColor" d="M8.872 40.374c0-19.878 16.06-35.938 35.938-35.938h431.252C495.94 4.436 512 20.496 512 40.374S495.94 76.31 476.062 76.31H44.81c-19.766 0-35.938-16.06-35.938-35.937m215.626 143.75c0-19.877 16.06-35.937 35.938-35.937h215.626c19.878 0 35.938 16.06 35.938 35.938s-16.06 35.937-35.938 35.937H260.436c-19.878 0-35.938-16.06-35.938-35.937m35.938 107.814h215.626c19.878 0 35.938 16.06 35.938 35.937 0 19.878-16.06 35.938-35.938 35.938H260.436c-19.878 0-35.938-16.06-35.938-35.938s16.06-35.937 35.938-35.937M8.872 471.626c0-19.878 16.06-35.937 35.938-35.937h431.252c19.878 0 35.938 16.06 35.938 35.937 0 19.878-16.06 35.938-35.938 35.938H44.81c-19.878 0-35.938-16.06-35.938-35.938M9.21 270.15C0 262.963 0 248.925 9.209 241.737l114.44-89.058c11.791-9.209 28.974-.786 28.974 14.15v178.117c0 14.936-17.183 23.36-28.975 14.15z"/></svg>