<svg xmlns="http://www.w3.org/2000/svg" viewBox="0 0 512 512"><!--! Font Awesome Free 7.0.1 by @fontawesome - https://fontawesome.com License - https://fontawesome.com/license/free (Icons: CC BY 4.0, Fonts: SIL OFL 1.1, Code: MIT License) Copyright 2025 Fonticons, Inc.--><path fill="currentColor" d="M256 166.228c45.901 0 83.114-37.213 83.114-83.114S301.9 0 256 0s-83.114 37.212-83.114 83.114S210.1 166.228 256 166.228m0 282.114v-141.01c15.395-6.422 31.073-12.94 46.94-19.55 36.835-15.3 76.314-23.234 116.265-23.234h18.134v151.116h-18.134c-55.818 0-111.164 11.05-162.733 32.584l-.472.189zm0-206.556-23.706-9.917c-44.202-18.418-91.614-27.862-139.5-27.862H59.55c-25.028 0-45.335 20.306-45.335 45.334v181.34c0 25.028 20.307 45.334 45.335 45.334h33.246c47.885 0 95.297 9.445 139.499 27.863l12.089 5.005a30.04 30.04 0 0 0 23.234 0l12.09-5.005c44.2-18.418 91.613-27.863 139.498-27.863h33.246c25.028 0 45.335-20.306 45.335-45.334V249.34c0-25.028-20.307-45.334-45.335-45.334h-33.246c-47.885 0-95.297 9.444-139.499 27.862z"/></svg>