<svg xmlns="http://www.w3.org/2000/svg" viewBox="0 0 512 512"><!--! Font Awesome Free 7.0.1 by @fontawesome - https://fontawesome.com License - https://fontawesome.com/license/free (Icons: CC BY 4.0, Fonts: SIL OFL 1.1, Code: MIT License) Copyright 2025 Fonticons, Inc.--><path fill="currentColor" d="M38.259 8.287C29.972 0 16.573 0 8.375 8.287.176 16.573.088 29.972 8.287 38.259L473.74 503.713c8.287 8.287 21.686 8.287 29.884 0 8.199-8.286 8.287-21.685 0-29.884L286.59 256.705l40.11-141.84h90.622l-5.289 21.333c-3.79 15.075 5.377 30.414 20.54 34.204s30.413-5.377 34.204-20.54l9.697-38.876c6.611-26.71-13.576-52.54-41.08-52.54H154.182a42.24 42.24 0 0 0-39.229 26.535zm122.887 122.887 4.055-16.309h102.876l-27.151 96.088zm53.421 173.046-26.181 92.739h-45.223c-15.604 0-28.21 12.606-28.21 28.209s12.606 28.21 28.21 28.21h141.046c15.604 0 28.21-12.607 28.21-28.21s-12.606-28.21-28.21-28.21h-37.2l13.31-46.986z"/></svg>