<svg xmlns="http://www.w3.org/2000/svg" viewBox="0 0 512 512"><!--! Font Awesome Free 7.0.1 by @fontawesome - https://fontawesome.com License - https://fontawesome.com/license/free (Icons: CC BY 4.0, Fonts: SIL OFL 1.1, Code: MIT License) Copyright 2025 Fonticons, Inc.--><path fill="currentColor" d="M76.8 140.8c0-21.2 17.2-38.4 38.4-38.4s38.4 17.2 38.4 38.4v89.6h204.8v-89.6c0-21.2 17.2-38.4 38.4-38.4s38.4 17.2 38.4 38.4v12.8H448c21.2 0 38.4 17.2 38.4 38.4v38.4c14.16 0 25.6 11.44 25.6 25.6s-11.44 25.6-25.6 25.6V320c0 21.2-17.2 38.4-38.4 38.4h-12.8v12.8c0 21.2-17.2 38.4-38.4 38.4s-38.4-17.2-38.4-38.4v-89.6H153.6v89.6c0 21.2-17.2 38.4-38.4 38.4s-38.4-17.2-38.4-38.4v-12.8H64c-21.2 0-38.4-17.2-38.4-38.4v-38.4C11.44 281.6 0 270.16 0 256s11.44-25.6 25.6-25.6V192c0-21.2 17.2-38.4 38.4-38.4h12.8z"/></svg>