<svg xmlns="http://www.w3.org/2000/svg" viewBox="0 0 512 512"><!--! Font Awesome Free 7.0.1 by @fontawesome - https://fontawesome.com License - https://fontawesome.com/license/free (Icons: CC BY 4.0, Fonts: SIL OFL 1.1, Code: MIT License) Copyright 2025 Fonticons, Inc.--><path fill="currentColor" d="M0 73.143C0 52.914 16.343 36.57 36.571 36.57H475.43c20.228 0 36.571 16.343 36.571 36.572 0 20.228-16.343 36.571-36.571 36.571H36.57C16.343 109.714 0 93.371 0 73.143M0 256c0-20.229 16.343-36.571 36.571-36.571H475.43C495.657 219.429 512 235.77 512 256s-16.343 36.571-36.571 36.571H36.57C16.343 292.571 0 276.23 0 256m512 182.857c0 20.229-16.343 36.572-36.571 36.572H36.57C16.343 475.429 0 459.086 0 438.857c0-20.228 16.343-36.571 36.571-36.571H475.43c20.228 0 36.571 16.343 36.571 36.571"/></svg>