<svg xmlns="http://www.w3.org/2000/svg" viewBox="0 0 512 512"><!--! Font Awesome Free 7.0.1 by @fontawesome - https://fontawesome.com License - https://fontawesome.com/license/free (Icons: CC BY 4.0, Fonts: SIL OFL 1.1, Code: MIT License) Copyright 2025 Fonticons, Inc.--><path fill="currentColor" d="M177 5.7 256 32l79-26.3C346.3 1.9 358 0 369.9 0 430.7 0 480 49.3 480 110.1v68.5c0 29.4-9.5 58.1-27.2 81.6l-1.1 1.5c-12.9 17.2-21.3 37.4-24.3 58.7l-21.7 151.5c-3.3 23-23 40.1-46.2 40.1-22.8 0-42.3-16.5-46-39l-20.2-121.4c-3-18.2-18.8-31.6-37.3-31.6s-34.2 13.4-37.3 31.6L198.5 473c-3.8 22.5-23.2 39-46 39-23.2 0-42.9-17.1-46.2-40.1L84.6 320.5c-3-21.3-11.4-41.5-24.3-58.7l-1.1-1.5C41.5 236.7 32 208.1 32 178.7v-68.5C32 49.3 81.3 0 142.1 0 154 0 165.7 1.9 177 5.7"/></svg>