<svg xmlns="http://www.w3.org/2000/svg" viewBox="0 0 512 512"><!--! Font Awesome Free 7.0.1 by @fontawesome - https://fontawesome.com License - https://fontawesome.com/license/free (Icons: CC BY 4.0, Fonts: SIL OFL 1.1, Code: MIT License) Copyright 2025 Fonticons, Inc.--><path fill="currentColor" d="m346.75 63.46 139.227 141.2c26.023 26.398 26.023 68.673 0 95.071l-146.93 148.715c-8.737 8.831-23.016 8.925-31.847.188-8.83-8.737-8.925-23.016-.188-31.847l146.93-148.809c8.643-8.737 8.643-22.923 0-31.66L314.622 95.214c-8.737-8.83-8.643-23.11.188-31.847 8.83-8.737 23.11-8.643 31.847.188zM0 242.33V116.914C0 83.752 26.962 56.79 60.125 56.79H185.54c15.97 0 31.284 6.294 42.557 17.567L363.38 209.638c23.486 23.486 23.486 61.534 0 85.02L237.963 420.075c-23.487 23.486-61.534 23.486-85.02 0L17.661 284.795C6.388 273.52.094 258.207.094 242.236zm135.28-80.323c0-16.628-13.433-30.062-30.062-30.062-16.628 0-30.062 13.434-30.062 30.062s13.434 30.062 30.062 30.062c16.629 0 30.063-13.434 30.063-30.062"/></svg>