<svg xmlns="http://www.w3.org/2000/svg" viewBox="0 0 512 512"><!--! Font Awesome Free 7.0.1 by @fontawesome - https://fontawesome.com License - https://fontawesome.com/license/free (Icons: CC BY 4.0, Fonts: SIL OFL 1.1, Code: MIT License) Copyright 2025 Fonticons, Inc.--><path fill="currentColor" d="M230.4 89.56c0-14.16 11.44-25.6 25.6-25.6h102.4c14.16 0 25.6 11.44 25.6 25.6v102.4c0 14.16-11.44 25.6-25.6 25.6s-25.6-11.44-25.6-25.6V151.4l-76 76c15.6 22.72 24.8 50.16 24.8 79.84 0 77.76-63.04 140.8-140.8 140.8S0 384.92 0 307.16s63.04-140.8 140.8-140.8c29.6 0 57.12 9.12 79.84 24.8l76-76h-40.56c-14.16 0-25.6-11.44-25.6-25.6zm-89.6 307.2c49.52 0 89.6-40.08 89.6-89.6s-40.08-89.6-89.6-89.6-89.6 40.08-89.6 89.6 40.08 89.6 89.6 89.6m128 51.2c-5.44 0-10.72-.32-16-.88 18.88-15.12 34.64-34 46.08-55.52 34.64-12.4 59.52-45.52 59.52-84.4 0-20.16-6.64-38.8-17.92-53.76 5.68 1.68 11.68 2.56 17.92 2.56 13.6 0 26.16-4.24 36.56-11.44 9.36 18.88 14.64 40.16 14.64 62.64 0 77.76-63.04 140.8-140.8 140.8M422.4 189.8V89.56c0-9.12-1.92-17.76-5.36-25.6h69.36c14.16 0 25.6 11.44 25.6 25.6v102.4c0 14.16-11.44 25.6-25.6 25.6s-25.6-11.44-25.6-25.6V151.4z"/></svg>