<svg xmlns="http://www.w3.org/2000/svg" viewBox="0 0 512 512"><!--! Font Awesome Free 7.0.1 by @fontawesome - https://fontawesome.com License - https://fontawesome.com/license/free (Icons: CC BY 4.0, Fonts: SIL OFL 1.1, Code: MIT License) Copyright 2025 Fonticons, Inc.--><path fill="currentColor" d="M504.028 78.837c0-39.086-31.779-70.865-70.865-70.865-7.308 0-14.395 1.108-21.038 3.211-24.914 7.751-53.26 16.499-78.616 9.966C250.242 0 160.332 33.329 96.886 96.775 33.439 160.221 0 250.242 21.149 333.51c6.422 25.356-2.215 53.591-9.966 78.616-2.103 6.643-3.21 13.73-3.21 21.038 0 39.086 31.778 70.865 70.864 70.865a71 71 0 0 0 21.15-3.211c24.913-7.751 53.259-16.499 78.615-9.966C261.87 512 351.78 478.671 415.225 415.225S512 261.758 490.85 178.49c-6.422-25.356 2.215-53.591 9.966-78.616 2.103-6.643 3.21-13.73 3.21-21.148zM254.56 130.88c-57.578 16.83-106.852 66.104-123.682 123.682-4.097 14.062-18.934 22.145-32.997 18.048s-22.145-18.824-17.937-32.886c21.924-74.962 84.816-137.854 159.778-159.778 14.062-4.097 28.9 3.986 32.997 18.048s-3.986 28.9-18.049 32.997z"/></svg>