<svg xmlns="http://www.w3.org/2000/svg" viewBox="0 0 512 512"><!--! Font Awesome Free 7.0.1 by @fontawesome - https://fontawesome.com License - https://fontawesome.com/license/free (Icons: CC BY 4.0, Fonts: SIL OFL 1.1, Code: MIT License) Copyright 2025 Fonticons, Inc.--><path fill="currentColor" d="M291.874 134.4c-6.569-9.853-18.863-14.316-30.232-10.863-11.368 3.452-19.116 13.979-19.116 25.852v215.58c0 14.905 12.042 26.947 26.948 26.947 14.905 0 26.947-12.042 26.947-26.948V238.4l58.442 87.663c4.969 7.495 13.39 11.958 22.4 11.958s17.432-4.463 22.4-11.958l58.442-87.663v126.568c0 14.906 12.042 26.948 26.948 26.948 14.905 0 26.947-12.042 26.947-26.948V149.39a26.91 26.91 0 0 0-19.116-25.768c-11.368-3.453-23.663.926-30.231 10.863l-85.39 128zM26.947 122.442C12.042 122.442 0 134.484 0 149.39c0 14.906 12.042 26.948 26.947 26.948h53.895v188.631c0 14.906 12.042 26.948 26.947 26.948 14.906 0 26.948-12.042 26.948-26.948V176.337h53.895c14.905 0 26.947-12.042 26.947-26.948 0-14.905-12.042-26.947-26.947-26.947z"/></svg>