<svg xmlns="http://www.w3.org/2000/svg" viewBox="0 0 512 512"><!--! Font Awesome Free 7.0.1 by @fontawesome - https://fontawesome.com License - https://fontawesome.com/license/free (Icons: CC BY 4.0, Fonts: SIL OFL 1.1, Code: MIT License) Copyright 2025 Fonticons, Inc.--><path fill="currentColor" d="M73.143 0C32.8 0 0 32.8 0 73.143v365.714C0 479.2 32.8 512 73.143 512h365.714C479.2 512 512 479.2 512 438.857V73.143C512 32.8 479.2 0 438.857 0zm33.143 160.343 40 72V173.6a27.363 27.363 0 0 1 27.428-27.429 27.363 27.363 0 0 1 27.429 27.429v164.571c0 12.458-8.457 23.429-20.572 26.515-12.114 3.085-24.8-2.286-30.857-13.257l-40-72v58.742A27.363 27.363 0 0 1 82.286 365.6a27.363 27.363 0 0 1-27.429-27.429V173.6c0-12.457 8.457-23.429 20.572-26.514s24.8 2.285 30.857 13.257m131.428 13.371a27.363 27.363 0 0 1 27.429-27.428h91.428A27.363 27.363 0 0 1 384 173.714a27.363 27.363 0 0 1-27.429 27.429h-64v36.571h45.715a27.363 27.363 0 0 1 27.428 27.429 27.363 27.363 0 0 1-27.428 27.428H292.57v45.715a27.363 27.363 0 0 1-27.428 27.428 27.363 27.363 0 0 1-27.429-27.428zm219.429 0v164.572a27.363 27.363 0 0 1-27.429 27.428 27.363 27.363 0 0 1-27.428-27.428V173.714a27.363 27.363 0 0 1 27.428-27.428 27.363 27.363 0 0 1 27.429 27.428"/></svg>