<svg xmlns="http://www.w3.org/2000/svg" viewBox="0 0 512 512"><!--! Font Awesome Free 7.0.1 by @fontawesome - https://fontawesome.com License - https://fontawesome.com/license/free (Icons: CC BY 4.0, Fonts: SIL OFL 1.1, Code: MIT License) Copyright 2025 Fonticons, Inc.--><path fill="currentColor" d="M38.259 8.287C29.972 0 16.573 0 8.375 8.287.176 16.573.088 29.972 8.287 38.259L473.74 503.713c8.287 8.287 21.686 8.287 29.884 0 8.199-8.286 8.287-21.685 0-29.884L276.716 246.832c48.485-9.609 85.07-52.452 85.07-103.758 0-58.446-47.34-105.785-105.786-105.785-51.306 0-94.149 36.584-103.758 85.07zM209.807 299.46c-77.311 9.873-137.168 75.9-137.168 155.945 0 14.457 11.725 26.182 26.182 26.182h293.113z"/></svg>