<svg xmlns="http://www.w3.org/2000/svg" viewBox="0 0 512 512"><!--! Font Awesome Free 7.0.1 by @fontawesome - https://fontawesome.com License - https://fontawesome.com/license/free (Icons: CC BY 4.0, Fonts: SIL OFL 1.1, Code: MIT License) Copyright 2025 Fonticons, Inc.--><path fill="currentColor" d="M256 512c141.4 0 256-114.6 256-256S397.4 0 256 0 0 114.6 0 256s114.6 256 256 256M134.1 153.9l25.9 25.9 25.9-25.9c7.8-7.8 20.5-7.8 28.3 0s7.8 20.5 0 28.3l-25.9 25.9 25.9 25.9c7.8 7.8 7.8 20.5 0 28.3s-20.5 7.8-28.3 0L160 236.4l-25.9 25.9c-7.8 7.8-20.5 7.8-28.3 0s-7.8-20.5 0-28.3l25.9-25.9-25.9-25.9c-7.8-7.8-7.8-20.5 0-28.3s20.5-7.8 28.3 0m192 0 25.9 25.9 25.9-25.9c7.8-7.8 20.5-7.8 28.3 0s7.8 20.5 0 28.3l-25.9 25.9 25.9 25.9c7.8 7.8 7.8 20.5 0 28.3s-20.5 7.8-28.3 0L352 236.4l-25.9 25.9c-7.8 7.8-20.5 7.8-28.3 0s-7.8-20.5 0-28.3l25.9-25.9-25.9-25.9c-7.8-7.8-7.8-20.5 0-28.3s20.5-7.8 28.3 0M256 304c35.3 0 64 28.7 64 64s-28.7 64-64 64-64-28.7-64-64 28.7-64 64-64"/></svg>