<svg xmlns="http://www.w3.org/2000/svg" viewBox="0 0 512 512"><!--! Font Awesome Free 7.0.1 by @fontawesome - https://fontawesome.com License - https://fontawesome.com/license/free (Icons: CC BY 4.0, Fonts: SIL OFL 1.1, Code: MIT License) Copyright 2025 Fonticons, Inc.--><path fill="currentColor" d="M122.57 5.333 98.715 46.158c-3.685 6.303-5.624 13.575-5.624 20.945v2.715c0 21.43 17.357 38.788 38.788 38.788s38.788-17.358 38.788-38.788v-2.715c0-7.37-1.94-14.545-5.625-20.945L141.188 5.333C139.248 2.036 135.66 0 131.878 0c-3.781 0-7.369 2.036-9.308 5.333m124.12 0-23.854 40.825c-3.684 6.303-5.624 13.575-5.624 20.945v2.715c0 21.43 17.358 38.788 38.788 38.788s38.788-17.358 38.788-38.788v-2.715c0-7.37-1.94-14.545-5.624-20.945L265.309 5.333C263.37 2.036 259.782 0 256 0s-7.37 2.036-9.31 5.333m100.268 40.825c-3.685 6.303-5.625 13.575-5.625 20.945v2.715c0 21.43 17.358 38.788 38.788 38.788s38.788-17.358 38.788-38.788v-2.715c0-7.37-1.94-14.545-5.624-20.945L389.43 5.333C387.49 2.036 383.903 0 380.121 0s-7.37 2.036-9.309 5.333zM162.909 170.667c0-17.164-13.867-31.03-31.03-31.03-17.164 0-31.03 13.866-31.03 31.03v51.878c-36.17 12.703-62.061 47.225-62.061 87.758v20.17c20.267 1.26 40.34 7.079 58.473 17.454l6.884 3.976c25.503 14.545 57.116 12.994 81.067-4.073 42.376-30.254 99.2-30.254 141.576 0 23.854 17.067 55.564 18.715 81.067 4.073l6.884-3.976c18.134-10.375 38.11-16.194 58.473-17.454v-20.17c0-40.533-25.89-75.055-62.06-87.758v-51.878c0-17.164-13.867-31.03-31.03-31.03-17.164 0-31.031 13.866-31.031 31.03v46.545h-62.06v-46.545c0-17.164-13.867-31.03-31.031-31.03s-31.03 13.866-31.03 31.03v46.545h-62.06zm310.303 206.545c-12.315 1.164-24.34 4.849-35.394 11.152l-6.885 3.975c-41.309 23.564-92.509 21.043-131.2-6.594a75.15 75.15 0 0 0-87.466 0c-38.691 27.637-89.891 30.255-131.2 6.594l-6.885-3.975c-11.055-6.303-23.079-10.085-35.394-11.152v72.727c0 34.23 27.83 62.061 62.06 62.061h310.304c34.23 0 62.06-27.83 62.06-62.06z"/></svg>