<svg xmlns="http://www.w3.org/2000/svg" viewBox="0 0 512 512"><!--! Font Awesome Free 7.0.1 by @fontawesome - https://fontawesome.com License - https://fontawesome.com/license/free (Icons: CC BY 4.0, Fonts: SIL OFL 1.1, Code: MIT License) Copyright 2025 Fonticons, Inc.--><path fill="currentColor" d="M192 0H27.429A27.363 27.363 0 0 0 0 27.429V192c0 11.086 6.629 21.143 16.914 25.371C27.2 221.6 38.971 219.2 46.857 211.43l45.714-45.715L182.857 256l-90.286 90.286-45.714-45.715c-7.886-7.885-19.657-10.171-29.943-5.942C6.63 298.857 0 308.914 0 320v164.571A27.363 27.363 0 0 0 27.429 512H192c11.086 0 21.143-6.629 25.371-16.914 4.229-10.286 1.943-22.057-5.942-29.943l-45.715-45.714L256 329.143l90.286 90.286-45.715 45.714c-7.885 7.886-10.171 19.657-5.942 29.943C298.857 505.37 308.914 512 320 512h164.571A27.363 27.363 0 0 0 512 484.571V320c0-11.086-6.629-21.143-16.914-25.371-10.286-4.229-22.057-1.943-29.943 5.942l-45.714 45.715L329.143 256l90.286-90.286 45.714 45.715c7.886 7.885 19.657 10.171 29.943 5.942C505.37 213.143 512 203.086 512 192V27.429A27.363 27.363 0 0 0 484.571 0H320c-11.086 0-21.143 6.629-25.371 16.914C290.4 27.2 292.8 38.971 300.57 46.857l45.715 45.714L256 182.857l-90.286-90.286 45.715-45.714c7.885-7.886 10.171-19.657 5.942-29.943C213.143 6.63 203.086 0 192 0"/></svg>