<svg xmlns="http://www.w3.org/2000/svg" viewBox="0 0 512 512"><!--! Font Awesome Free 7.0.1 by @fontawesome - https://fontawesome.com License - https://fontawesome.com/license/free (Icons: CC BY 4.0, Fonts: SIL OFL 1.1, Code: MIT License) Copyright 2025 Fonticons, Inc.--><path fill="currentColor" d="M380.718 6.564c-14.523 0-26.256 11.733-26.256 26.257 0 14.523 11.733 26.256 26.256 26.256h41.6L375.795 105.6c-21.58-12.882-46.851-20.267-73.846-20.267-29.046 0-56.123 8.616-78.77 23.385-22.646-14.77-49.723-23.385-78.769-23.385C64.656 85.333 0 149.99 0 229.743c0 70.81 50.954 129.724 118.154 142.031v28.636H91.897c-14.523 0-26.256 11.734-26.256 26.257s11.733 26.256 26.256 26.256h26.257v26.256c0 14.524 11.733 26.257 26.256 26.257s26.257-11.733 26.257-26.257v-26.256h26.256c14.523 0 26.256-11.733 26.256-26.256s-11.733-26.257-26.256-26.257h-26.256v-28.636c19.118-3.528 36.84-10.748 52.512-21.005 22.647 14.77 49.724 23.385 78.77 23.385 79.754 0 144.41-64.657 144.41-144.41 0-33.723-11.57-64.82-31.015-89.436l44.143-44.062v41.6c0 14.523 11.734 26.257 26.257 26.257S512 152.369 512 137.846V32.821c0-14.524-11.733-26.257-26.256-26.257zM262.564 312.78c16.574-23.466 26.257-52.102 26.257-83.035 0-30.934-9.683-59.57-26.257-83.036 11.98-5.662 25.272-8.862 39.385-8.862 50.79 0 91.897 41.108 91.897 91.898s-41.108 91.897-91.897 91.897c-14.113 0-27.487-3.2-39.385-8.862M223.18 182.4c8.37 13.867 13.129 30.03 13.129 47.344 0 17.312-4.76 33.559-13.129 47.343-8.369-13.866-13.128-30.03-13.128-47.343s4.76-33.56 13.128-47.344m-39.384-35.692c-16.574 23.466-26.257 52.102-26.257 83.036 0 30.933 9.683 59.569 26.257 83.035-11.898 5.662-25.272 8.862-39.385 8.862-50.79 0-91.897-41.108-91.897-91.897s41.108-91.898 91.897-91.898c14.113 0 27.487 3.2 39.385 8.862"/></svg>