<svg xmlns="http://www.w3.org/2000/svg" viewBox="0 0 512 512"><!--! Font Awesome Free 7.0.1 by @fontawesome - https://fontawesome.com License - https://fontawesome.com/license/free (Icons: CC BY 4.0, Fonts: SIL OFL 1.1, Code: MIT License) Copyright 2025 Fonticons, Inc.--><path fill="currentColor" d="M182.857 36.571C182.857 16.343 166.514 0 146.286 0c-20.229 0-36.572 16.343-36.572 36.571v73.143H36.571C16.343 109.714 0 126.057 0 146.286c0 20.228 16.343 36.571 36.571 36.571h109.715c20.228 0 36.571-16.343 36.571-36.571zM36.571 329.143C16.343 329.143 0 345.486 0 365.714c0 20.229 16.343 36.572 36.571 36.572h73.143v73.143c0 20.228 16.343 36.571 36.572 36.571 20.228 0 36.571-16.343 36.571-36.571V365.714c0-20.228-16.343-36.571-36.571-36.571zM402.286 36.57C402.286 16.343 385.943 0 365.714 0c-20.228 0-36.571 16.343-36.571 36.571v109.715c0 20.228 16.343 36.571 36.571 36.571H475.43c20.228 0 36.571-16.343 36.571-36.571 0-20.229-16.343-36.572-36.571-36.572h-73.143zm-36.572 292.572c-20.228 0-36.571 16.343-36.571 36.571V475.43c0 20.228 16.343 36.571 36.571 36.571 20.229 0 36.572-16.343 36.572-36.571v-73.143h73.143c20.228 0 36.571-16.343 36.571-36.572 0-20.228-16.343-36.571-36.571-36.571z"/></svg>