<svg xmlns="http://www.w3.org/2000/svg" viewBox="0 0 512 512"><!--! Font Awesome Free 7.0.1 by @fontawesome - https://fontawesome.com License - https://fontawesome.com/license/free (Icons: CC BY 4.0, Fonts: SIL OFL 1.1, Code: MIT License) Copyright 2025 Fonticons, Inc.--><path fill="currentColor" d="M113.778 0c15.733 0 28.444 12.711 28.444 28.444 0 15.734-12.71 28.445-28.444 28.445H87.022l33.867 33.867 13.333-13.423c8.356-8.355 21.867-8.355 30.134 0s8.355 21.867 0 30.134L151.022 120.8l12.622 12.622c24.8-21.155 57.067-33.955 92.267-33.955 32.622 0 62.756 11.022 86.756 29.51l72.177-72.088h-16.622c-15.733 0-28.444-12.711-28.444-28.445S382.488 0 398.222 0h85.334C499.289 0 512 12.711 512 28.444v85.334c0 15.733-12.711 28.444-28.444 28.444-15.734 0-28.445-12.71-28.445-28.444V97.156l-75.022 75.022c11.555 20.533 18.133 44.355 18.133 69.6 0 68.8-48.889 126.222-113.778 139.378v31.288h28.445c15.733 0 28.444 12.712 28.444 28.445s-12.71 28.444-28.444 28.444h-28.445v14.223c0 15.733-12.71 28.444-28.444 28.444s-28.444-12.711-28.444-28.444v-14.223H199.11c-15.733 0-28.444-12.71-28.444-28.444s12.71-28.445 28.444-28.445h28.445v-31.288C162.666 368 113.778 310.578 113.778 241.778c0-27.911 8-53.956 21.955-75.911l-14.844-14.845-13.333 13.334c-8.356 8.355-21.867 8.355-30.134 0s-8.355-21.867 0-30.134l13.334-13.333-33.867-33.867v26.756c0 15.733-12.711 28.444-28.445 28.444S0 129.512 0 113.778V28.444C0 12.711 12.711 0 28.444 0zM256 327.111c47.111 0 85.333-38.222 85.333-85.333S303.111 156.444 256 156.444s-85.333 38.223-85.333 85.334c0 47.11 38.222 85.333 85.333 85.333"/></svg>