<svg xmlns="http://www.w3.org/2000/svg" viewBox="0 0 512 512"><!--! Font Awesome Free 7.0.1 by @fontawesome - https://fontawesome.com License - https://fontawesome.com/license/free (Icons: CC BY 4.0, Fonts: SIL OFL 1.1, Code: MIT License) Copyright 2025 Fonticons, Inc.--><path fill="currentColor" d="M240.941 62.024 60.611 195.576l148.8 110.306c4.989 3.67 10.542 6.494 16.471 8.189v152.753c0 5.176.47 10.164 1.224 15.058H60.236C27.011 481.882 0 454.871 0 421.647V195.86c0-19.106 9.035-37.083 24.376-48.377l185.036-137.13C218.542 3.577 229.552 0 240.942 0c11.387 0 22.4 3.67 31.529 10.353l185.035 137.13a59 59 0 0 1 16.376 18.446 89 89 0 0 0-7.058-.282H380.8zM271.06 256c0-24.941 20.235-45.176 45.176-45.176h150.589c24.94 0 45.176 20.235 45.176 45.176v210.824c0 24.94-20.235 45.176-45.176 45.176H316.235c-24.94 0-45.176-20.235-45.176-45.176zm75.294 15.059a22.534 22.534 0 0 0-22.588 22.588 22.534 22.534 0 0 0 22.588 22.588h90.353a22.534 22.534 0 0 0 22.588-22.588 22.534 22.534 0 0 0-22.588-22.588zm0 90.353A22.534 22.534 0 0 0 323.765 384a22.534 22.534 0 0 0 22.588 22.588h52.706A22.534 22.534 0 0 0 421.647 384a22.534 22.534 0 0 0-22.588-22.588z"/></svg>