<svg xmlns="http://www.w3.org/2000/svg" viewBox="0 0 512 512"><!--! Font Awesome Free 7.0.1 by @fontawesome - https://fontawesome.com License - https://fontawesome.com/license/free (Icons: CC BY 4.0, Fonts: SIL OFL 1.1, Code: MIT License) Copyright 2025 Fonticons, Inc.--><path fill="currentColor" d="M71.9 14.4C71.1 6.2 64.2 0 56 0S40.9 6.2 40 14.3L25.9 149.7c-1.3 6-1.9 12.1-1.9 18.2 0 45.9 35.1 83.6 80 87.7V480c0 17.7 14.3 32 32 32s32-14.3 32-32V255.6c44.9-4.1 80-41.8 80-87.7 0-6.1-.6-12.2-1.9-18.2L231.9 14.3C231.1 6.2 224.2 0 216 0s-15.1 6.2-15.9 14.4l-13.6 135.5c-.6 5.7-5.4 10.1-11.1 10.1-5.8 0-10.6-4.4-11.2-10.2L151.9 14.6C151.2 6.3 144.3 0 136 0s-15.2 6.3-15.9 14.6l-12.3 135.2c-.5 5.8-5.4 10.2-11.2 10.2s-10.6-4.4-11.1-10.1zM456 0c-16 0-128 32-128 176v112c0 35.3 28.7 64 64 64h32v128c0 17.7 14.3 32 32 32s32-14.3 32-32V32c0-17.7-14.3-32-32-32"/></svg>