<svg xmlns="http://www.w3.org/2000/svg" viewBox="0 0 512 512"><!--! Font Awesome Free 7.0.1 by @fontawesome - https://fontawesome.com License - https://fontawesome.com/license/free (Icons: CC BY 4.0, Fonts: SIL OFL 1.1, Code: MIT License) Copyright 2025 Fonticons, Inc.--><path fill="currentColor" d="M60.271 0C27.054 0 .047 27.007.047 60.224V421.57c0 33.217 27.007 60.224 60.224 60.224h189.33c-11.762-13.833-21.831-28.983-29.924-45.168h-84.22v-75.28c0-16.656 13.457-30.113 30.113-30.113h30.112v-25.125c0-17.032 5.74-33.123 15.62-45.92q-.564-1.977-.564-4.235V225.84c0-8.281 6.775-15.056 15.056-15.056h30.112c8.28 0 15.056 6.775 15.056 15.056v.94l81.585-27.194c2.917-.941 5.834-1.694 8.751-2.353l.094-137.01C361.392 27.007 334.386 0 301.168 0zm30.112 105.392c0-8.28 6.776-15.056 15.056-15.056h30.113c8.28 0 15.056 6.776 15.056 15.056v30.113c0 8.28-6.776 15.056-15.056 15.056h-30.113c-8.28 0-15.056-6.776-15.056-15.056zm135.505-15.056H256c8.28 0 15.056 6.776 15.056 15.056v30.113c0 8.28-6.775 15.056-15.056 15.056h-30.112c-8.28 0-15.056-6.776-15.056-15.056v-30.113c0-8.28 6.775-15.056 15.056-15.056M90.383 225.841c0-8.281 6.776-15.056 15.056-15.056h30.113c8.28 0 15.056 6.775 15.056 15.056v30.112c0 8.28-6.776 15.056-15.056 15.056h-30.113c-8.28 0-15.056-6.775-15.056-15.056zm298.58 233.84-12.515 5.928V288.606l90.337 30.112v18.444c0 52.508-30.3 100.216-77.821 122.612zm-22.019-215.49L261.552 279.29c-12.327 4.14-20.608 15.62-20.608 28.606v29.266c0 70.01 40.463 133.716 103.699 163.452l17.408 8.187c4.517 2.07 9.41 3.199 14.303 3.199s9.88-1.13 14.304-3.2l17.408-8.186c63.424-29.83 103.887-93.536 103.887-163.547v-29.265c0-12.986-8.28-24.466-20.608-28.606l-105.392-35.1c-6.211-2.07-12.892-2.07-19.009 0z"/></svg>