<svg xmlns="http://www.w3.org/2000/svg" viewBox="0 0 512 512"><!--! Font Awesome Free 7.0.1 by @fontawesome - https://fontawesome.com License - https://fontawesome.com/license/free (Icons: CC BY 4.0, Fonts: SIL OFL 1.1, Code: MIT License) Copyright 2025 Fonticons, Inc.--><path fill="currentColor" d="M73.143 143.429C73.143 64.229 137.37 0 216.57 0H384c20.229 0 36.571 16.343 36.571 36.571 0 20.229-16.342 36.572-36.571 36.572H216.571c-38.857 0-70.285 31.428-70.285 70.286 0 35.428 26.4 65.371 61.6 69.714l105.371 13.143c71.772 9.028 125.6 69.943 125.6 142.285 0 79.2-64.228 143.429-143.428 143.429H128c-20.229 0-36.571-16.343-36.571-36.571 0-20.229 16.342-36.572 36.571-36.572h167.429c38.857 0 70.285-31.428 70.285-70.286 0-35.428-26.4-65.371-61.6-69.714l-105.371-13.143c-71.772-9.028-125.6-69.943-125.6-142.285"/></svg>