<svg xmlns="http://www.w3.org/2000/svg" viewBox="0 0 512 512"><!--! Font Awesome Free 7.0.1 by @fontawesome - https://fontawesome.com License - https://fontawesome.com/license/free (Icons: CC BY 4.0, Fonts: SIL OFL 1.1, Code: MIT License) Copyright 2025 Fonticons, Inc.--><path fill="currentColor" d="M506.745 52.684c0 23.6-17.33 43.604-40.654 46.923l-43.142 6.176c-9.772 1.383-18.069-6.914-16.686-16.685l6.176-43.051C415.758 22.632 435.762 5.3 459.362 5.3c26.18 0 47.383 21.202 47.383 47.383M362.475 82.83c-5.532 38.902 27.84 72.274 66.742 66.742l34.846-4.978c47.937 89.328 34.201 202.994-41.207 278.31-75.408 75.315-188.98 89.05-278.309 41.206l4.978-34.846c5.532-38.902-27.84-72.273-66.742-66.742l-34.846 4.978C0 278.17 13.736 164.506 89.144 89.189 164.552 13.875 278.124.047 367.453 47.984zm13.182 122.515c-17.607 33.556-42.037 67.019-72.734 97.717-30.698 30.698-64.162 55.127-97.717 72.734-10.233 5.347-11.431 19.728-1.014 24.522 54.574 25.351 121.5 15.487 166.487-29.5 44.987-44.986 54.85-111.913 29.5-166.487-4.886-10.417-19.175-9.219-24.522 1.014M95.505 269.505c1.567 7.375 8.296 12.353 15.763 11.708L151 277.618l-3.595 39.732c-.645 7.467 4.333 14.288 11.708 15.763s14.657-2.673 16.962-9.771l25.812-77.99c1.751-5.254.369-11.154-3.595-15.026s-9.772-5.347-15.027-3.595l-77.989 25.812c-7.098 2.397-11.339 9.68-9.771 17.054zm185.57-158.098c.645-7.467-4.333-14.29-11.708-15.764s-14.658 2.673-17.054 9.771l-25.812 77.99c-1.752 5.254-.37 11.154 3.595 15.026 3.964 3.872 9.771 5.347 15.026 3.595l77.99-25.812c7.098-2.397 11.338-9.68 9.771-16.962-1.567-7.283-8.297-12.353-15.764-11.708l-39.732 3.596 3.595-39.732zM45.909 412.485l43.05-6.176c9.772-1.383 18.069 6.914 16.686 16.686l-6.177 43.05c-3.226 23.416-23.23 40.747-46.83 40.747-26.18 0-47.383-21.203-47.383-47.384 0-23.6 17.33-43.604 40.654-46.923"/></svg>