<svg xmlns="http://www.w3.org/2000/svg" viewBox="0 0 512 512"><!--! Font Awesome Free 7.0.1 by @fontawesome - https://fontawesome.com License - https://fontawesome.com/license/free (Icons: CC BY 4.0, Fonts: SIL OFL 1.1, Code: MIT License) Copyright 2025 Fonticons, Inc.--><path fill="currentColor" d="M301.176 120.47c0-33.223 27.012-60.235 60.236-60.235s60.235 27.012 60.235 60.236v30.117c0 16.66 13.459 30.118 30.118 30.118s30.117-13.459 30.117-30.118v-30.117C481.882 53.929 427.952 0 361.412 0c-66.541 0-120.47 53.93-120.47 120.47v60.236H90.351c-33.223 0-60.234 27.012-60.234 60.235v210.824c0 33.223 27.011 60.235 60.235 60.235h240.941c33.224 0 60.235-27.012 60.235-60.235V240.94c0-33.223-27.011-60.235-60.235-60.235h-30.118z"/></svg>