<svg xmlns="http://www.w3.org/2000/svg" viewBox="0 0 512 512"><!--! Font Awesome Free 7.0.1 by @fontawesome - https://fontawesome.com License - https://fontawesome.com/license/free (Icons: CC BY 4.0, Fonts: SIL OFL 1.1, Code: MIT License) Copyright 2025 Fonticons, Inc.--><path fill="currentColor" d="M38.259 8.287C29.972 0 16.573 0 8.375 8.287.176 16.573.088 29.972 8.287 38.259L473.74 503.713c8.287 8.287 21.686 8.287 29.884 0 8.199-8.286 8.287-21.685 0-29.884l-84.98-84.98c2.38-2.116 4.76-4.232 7.052-6.348 41.256-38.347 68.848-84.099 81.983-115.57a28.03 28.03 0 0 0 0-21.686c-13.135-31.47-40.727-77.311-81.983-115.57-41.52-38.523-98.557-71.052-169.785-71.052-50.072 0-93.091 16.044-128.705 38.964zm144.132 144.22c20.716-14.81 46.193-23.537 73.609-23.537 70.083 0 126.942 56.86 126.942 126.942 0 27.416-8.727 52.804-23.537 73.609l-30.59-30.59c11.196-18.865 14.987-42.05 8.904-64.97-12.077-45.135-58.534-71.933-103.67-59.856-7.58 2.027-14.721 5.024-21.156 8.815l-30.59-30.59zm106.49 226.027c-10.49 2.821-21.51 4.32-32.881 4.32-70.083 0-126.942-56.86-126.942-126.942 0-11.372 1.498-22.391 4.32-32.882l-70.083-70.082c-28.739 32.44-48.485 66.82-58.975 92.12a28.03 28.03 0 0 0 0 21.687c13.135 31.47 40.727 77.311 81.983 115.57 41.52 38.523 98.557 71.052 169.785 71.052 32.882 0 62.766-6.964 89.477-18.16l-56.595-56.594z"/></svg>