<svg xmlns="http://www.w3.org/2000/svg" viewBox="0 0 512 512"><!--! Font Awesome Free 7.0.1 by @fontawesome - https://fontawesome.com License - https://fontawesome.com/license/free (Icons: CC BY 4.0, Fonts: SIL OFL 1.1, Code: MIT License) Copyright 2025 Fonticons, Inc.--><path fill="currentColor" d="M169.724 1.414c27.315 0 49.503 22.188 49.503 49.503s-22.188 49.503-49.503 49.503-49.503-22.188-49.503-49.503 22.188-49.503 49.503-49.503M281.37 294.1l-40.928-55.16v215.072h240.442c15.646 0 28.287 12.64 28.287 28.287s-12.64 28.288-28.287 28.288H28.287C12.641 510.586 0 497.945 0 482.298s12.64-28.287 28.287-28.287h70.719V238.939L58.077 294.1c-9.281 12.553-27.05 15.205-39.602 5.835s-15.204-27.05-5.834-39.603l62.32-83.977a118.02 118.02 0 0 1 94.763-47.647c37.392 0 72.486 17.68 94.762 47.647l62.32 83.977c9.282 12.553 6.719 30.233-5.834 39.603-12.552 9.37-30.232 6.718-39.602-5.835M155.58 454.011h28.287v-113.15c0-7.778-6.364-14.143-14.143-14.143s-14.144 6.365-14.144 14.144zm345.282-277.039-70.718 70.719c-11.05 11.05-28.995 11.05-40.045 0l-70.718-70.719c-11.05-11.05-11.05-28.994 0-40.044s28.995-11.05 40.044 0l22.453 22.453V29.701c0-15.646 12.641-28.287 28.288-28.287s28.287 12.641 28.287 28.288v129.68l22.453-22.454c11.05-11.05 28.995-11.05 40.044 0 11.05 11.05 11.05 28.995 0 40.044z"/></svg>