<svg xmlns="http://www.w3.org/2000/svg" viewBox="0 0 512 512"><!--! Font Awesome Free 7.0.1 by @fontawesome - https://fontawesome.com License - https://fontawesome.com/license/free (Icons: CC BY 4.0, Fonts: SIL OFL 1.1, Code: MIT License) Copyright 2025 Fonticons, Inc.--><path fill="currentColor" d="M272.178 99.556c27.466 0 49.778-22.312 49.778-49.778C321.956 22.31 299.644 0 272.178 0 244.71 0 222.4 22.311 222.4 49.778s22.311 49.778 49.778 49.778m71.11 285.51c7.645-4 14.934-8.888 21.6-14.666l3.556-3.022c20.09-17.245 31.734-42.4 31.734-68.978 0-31.911-16.711-61.422-44.09-77.867l-27.021-16.177v-1.6c0-41.334-33.511-74.756-74.756-74.756-24.978 0-48.355 12.533-62.222 33.333l-71.556 107.29c-8.71 13.066-5.155 30.755 7.911 39.466 13.067 8.711 30.756 5.155 39.467-7.911l25.778-38.667L166.578 362.4c-2.311 8.533-.534 17.689 4.889 24.711 5.422 7.022 13.6 11.111 22.489 11.111h7.11v85.334c0 15.733 12.712 28.444 28.445 28.444s28.445-12.711 28.445-28.444v-85.334H286.4v85.334c0 15.733 12.711 28.444 28.444 28.444 15.734 0 28.445-12.711 28.445-28.444z"/></svg>