<svg xmlns="http://www.w3.org/2000/svg" viewBox="0 0 512 512"><!--! Font Awesome Free 7.0.1 by @fontawesome - https://fontawesome.com License - https://fontawesome.com/license/free (Icons: CC BY 4.0, Fonts: SIL OFL 1.1, Code: MIT License) Copyright 2025 Fonticons, Inc.--><path fill="currentColor" d="M73.143 0C32.8 0 0 32.8 0 73.143v365.714C0 479.2 32.8 512 73.143 512h365.714C479.2 512 512 479.2 512 438.857V73.143C512 32.8 479.2 0 438.857 0zm64 219.429a27.363 27.363 0 0 1 27.428 27.428v128a27.363 27.363 0 0 1-27.428 27.429 27.363 27.363 0 0 1-27.429-27.429v-128a27.363 27.363 0 0 1 27.429-27.428M347.429 320a27.363 27.363 0 0 1 27.428-27.429A27.363 27.363 0 0 1 402.286 320v54.857a27.363 27.363 0 0 1-27.429 27.429 27.363 27.363 0 0 1-27.428-27.429zM256 109.714a27.363 27.363 0 0 1 27.429 27.429v237.714A27.363 27.363 0 0 1 256 402.286a27.363 27.363 0 0 1-27.429-27.429V137.143A27.363 27.363 0 0 1 256 109.714"/></svg>