<svg xmlns="http://www.w3.org/2000/svg" viewBox="0 0 512 512"><!--! Font Awesome Free 7.0.1 by @fontawesome - https://fontawesome.com License - https://fontawesome.com/license/free (Icons: CC BY 4.0, Fonts: SIL OFL 1.1, Code: MIT License) Copyright 2025 Fonticons, Inc.--><path fill="currentColor" d="M298.858 0C416.545 0 512 95.455 512 213.142c0 12.219-9.83 22.05-22.05 22.05a21.996 21.996 0 0 1-22.048-22.05c0-93.342-75.702-169.044-169.044-169.044a21.996 21.996 0 0 1-22.05-22.049C276.809 9.83 286.64 0 298.859 0m7.35 176.393c16.261 0 29.399 13.138 29.399 29.4 0 16.26-13.138 29.398-29.4 29.398-16.26 0-29.398-13.138-29.398-29.399s13.138-29.399 29.399-29.399m-29.4-66.147c0-12.22 9.831-22.05 22.05-22.05 68.996 0 124.945 55.95 124.945 124.946 0 12.219-9.83 22.05-22.049 22.05a21.996 21.996 0 0 1-22.049-22.05c0-44.65-36.197-80.847-80.847-80.847a21.996 21.996 0 0 1-22.05-22.05m-161.601-79.56c18.099-4.962 37.024 4.317 44.19 21.589l37.208 89.39c6.34 15.16 1.93 32.707-10.84 43.18l-40.516 33.166c29.858 65.78 81.766 119.433 146.351 151.496l35.463-43.363c10.381-12.77 27.929-17.088 43.18-10.84l89.39 37.299c17.272 7.166 26.551 26.091 21.59 44.19l-1.378 5.053c-16.17 59.44-73.59 110.154-143.687 95.363C175.383 463.124 48.876 336.617 14.79 175.842 0 105.744 50.713 48.324 110.062 32.063l5.053-1.378z"/></svg>