<svg xmlns="http://www.w3.org/2000/svg" viewBox="0 0 512 512"><!--! Font Awesome Free 7.0.1 by @fontawesome - https://fontawesome.com License - https://fontawesome.com/license/free (Icons: CC BY 4.0, Fonts: SIL OFL 1.1, Code: MIT License) Copyright 2025 Fonticons, Inc.--><path fill="currentColor" d="M256.15 51.29 92.982 112.378l154.67 58.689a23.72 23.72 0 0 0 16.996 0l154.67-58.689zM.2 129.275c0-19.996 12.398-37.893 31.094-44.891l207.96-77.985a47.7 47.7 0 0 1 33.693 0l207.96 77.985C499.601 91.382 512 109.279 512 129.274v35.994l-253.15 95.981c-1.8.7-3.8.7-5.7 0L0 165.268v-35.993zm0 139.972v-52.69l236.054 89.583a55.44 55.44 0 0 0 39.692 0L512 216.558v52.69l-127.975 48.59v51.29L512 320.538v62.187c0 19.996-12.398 37.893-31.094 44.891l-207.96 77.985a47.7 47.7 0 0 1-33.693 0l-207.96-77.985C12.599 420.618.2 402.621.2 382.626v-62.189l127.975 48.59v-51.29L.2 269.148zM236.254 410.02a55.44 55.44 0 0 0 39.692 0l60.088-22.796v-51.29L258.85 365.23c-1.8.7-3.799.7-5.698 0l-77.185-29.295v51.29l60.088 22.796z"/></svg>