<svg xmlns="http://www.w3.org/2000/svg" viewBox="0 0 512 512"><!--! Font Awesome Free 7.0.1 by @fontawesome - https://fontawesome.com License - https://fontawesome.com/license/free (Icons: CC BY 4.0, Fonts: SIL OFL 1.1, Code: MIT License) Copyright 2025 Fonticons, Inc.--><path fill="currentColor" d="M144.896 46.458c8.94 5.084 12.71 16.129 8.765 25.683l-20.336 49.35c-3.418 8.416-12.009 13.5-21.037 12.623l-17.707-1.753c-13.411 36.553-14.025 76.874-1.84 113.865l19.634-1.928c9.029-.877 17.532 4.207 21.038 12.622l20.336 49.35c3.945 9.555.175 20.512-8.766 25.684l-2.542 1.403c-29.452 16.83-71.615 14.2-93.09-18.934C0 238.513 0 139.899 49.35 63.989c21.563-33.046 63.726-35.676 93.09-18.934l2.542 1.403zm63.638 282.954-26.56-279.185c-.789-8.24 5.698-15.34 13.938-15.34h284.006c18.67 0 32.082 17.794 26.998 35.764l-9.905 34.361h-99.14a20.987 20.987 0 0 0-21.037 21.038 20.987 20.987 0 0 0 21.038 21.037h87.13l-16.041 56.1h-71.09a20.987 20.987 0 0 0-21.037 21.038 20.987 20.987 0 0 0 21.038 21.037h59.08l-24.018 84.15zm7.013 42.075h210.375c19.372 0 35.062 15.69 35.062 35.063v42.075c0 19.372-15.69 35.062-35.062 35.062H215.547c-19.372 0-35.063-15.69-35.063-35.062V406.55c0-19.372 15.69-35.063 35.063-35.063m105.187 77.138a20.987 20.987 0 0 0 21.038-21.038 20.987 20.987 0 0 0-21.038-21.037 20.987 20.987 0 0 0-21.037 21.037 20.987 20.987 0 0 0 21.037 21.038"/></svg>