<svg xmlns="http://www.w3.org/2000/svg" viewBox="0 0 512 512"><!--! Font Awesome Free 7.0.1 by @fontawesome - https://fontawesome.com License - https://fontawesome.com/license/free (Icons: CC BY 4.0, Fonts: SIL OFL 1.1, Code: MIT License) Copyright 2025 Fonticons, Inc.--><path fill="currentColor" d="M278.464 12.425C266.039 0 245.861 0 233.437 12.425l-127.23 127.23c-12.425 12.424-12.425 32.602 0 45.027s32.603 12.425 45.027 0l72.959-72.958v209.432c0 17.593 14.214 31.807 31.807 31.807s31.807-14.214 31.807-31.807V111.724l72.959 72.958c12.424 12.425 32.602 12.425 45.027 0s12.425-32.603 0-45.028l-127.23-127.23zM96.963 352.963c0-17.594-14.214-31.807-31.807-31.807-17.594 0-31.808 14.213-31.808 31.807v63.615c0 52.68 42.741 95.422 95.422 95.422h254.46c52.68 0 95.422-42.741 95.422-95.422v-63.615c0-17.594-14.214-31.807-31.808-31.807-17.593 0-31.807 14.213-31.807 31.807v63.615c0 17.593-14.214 31.807-31.807 31.807H128.77c-17.593 0-31.807-14.214-31.807-31.807z"/></svg>