<svg xmlns="http://www.w3.org/2000/svg" viewBox="0 0 512 512"><!--! Font Awesome Free 7.0.1 by @fontawesome - https://fontawesome.com License - https://fontawesome.com/license/free (Icons: CC BY 4.0, Fonts: SIL OFL 1.1, Code: MIT License) Copyright 2025 Fonticons, Inc.--><path fill="currentColor" d="M141.44 204.8c-3.2-10.773-4.907-22.293-4.907-34.133C136.533 104.64 189.973 51.2 256 51.2s119.467 53.44 119.467 119.467c0 11.84-1.707 23.36-4.907 34.133h-75.733l26.24-47.253c6.826-12.374 2.453-27.947-9.92-34.774-12.374-6.826-27.947-2.453-34.774 9.92l-40.106 72.214h-94.72zM153.6 34.133H85.333c-37.653 0-68.266 30.614-68.266 68.267v341.333C17.067 481.387 47.68 512 85.333 512h341.334c37.653 0 68.266-30.613 68.266-68.267V102.4c0-37.653-30.613-68.267-68.266-68.267H358.4C329.92 12.693 294.4 0 256 0s-73.92 12.693-102.4 34.133"/></svg>