<svg xmlns="http://www.w3.org/2000/svg" viewBox="0 0 512 512"><!--! Font Awesome Free 7.0.1 by @fontawesome - https://fontawesome.com License - https://fontawesome.com/license/free (Icons: CC BY 4.0, Fonts: SIL OFL 1.1, Code: MIT License) Copyright 2025 Fonticons, Inc.--><path fill="currentColor" d="M417.2 102.68c13.44-4.48 20.64-18.96 16.16-32.4s-18.96-20.64-32.32-16.24l-90.4 30.16c-11.12-18.8-31.68-31.44-55.12-31.44-35.36 0-64 28.64-64 64 0 2.4.16 4.72.4 7.04l-98.08 32.64c-13.44 4.48-20.64 18.96-16.16 32.4s18.96 20.64 32.4 16.16l108.4-36.16c3.6 2.56 7.44 4.72 11.52 6.56v261.36c0 14.16 11.44 25.6 25.6 25.6h153.6c14.16 0 25.6-11.44 25.6-25.6s-11.44-25.6-25.6-25.6h-128V175.4c16.8-7.36 29.76-21.6 35.36-39.2l100.72-33.6zm-66 180.48 57.92-99.36 57.92 99.36H351.12zm57.92 76.8c50.32 0 92.16-27.2 100.8-63.12 2.08-8.8-.8-17.84-5.36-25.68L428.4 140.6c-4-6.88-11.36-11.04-19.28-11.04s-15.28 4.24-19.28 11.04l-76.16 130.64c-4.56 7.84-7.44 16.88-5.36 25.68 8.64 35.84 50.48 63.12 100.8 63.12zM102.8 286.2l57.92 99.36H44.8l57.92-99.36zM2.08 399.24c8.64 35.92 50.48 63.12 100.72 63.12s92.16-27.2 100.8-63.12c2.08-8.8-.8-17.84-5.36-25.68L122.08 243c-4-6.88-11.36-11.04-19.28-11.04S87.52 236.2 83.52 243L7.44 373.64c-4.56 7.84-7.44 16.88-5.36 25.68z"/></svg>