<svg xmlns="http://www.w3.org/2000/svg" viewBox="0 0 512 512"><!--! Font Awesome Free 7.0.1 by @fontawesome - https://fontawesome.com License - https://fontawesome.com/license/free (Icons: CC BY 4.0, Fonts: SIL OFL 1.1, Code: MIT License) Copyright 2025 Fonticons, Inc.--><path fill="currentColor" d="M323.357 53.886c-14.902 0-26.943-12.04-26.943-26.943S308.454 0 323.357 0h94.3c14.903 0 26.944 12.04 26.944 26.943v94.3c0 14.903-12.04 26.943-26.943 26.943s-26.943-12.04-26.943-26.943V92.027l-53.044 53.044c16.418 23.912 26.1 52.791 26.1 84.028 0 72.662-52.285 133.115-121.242 145.745v29.384h26.942c14.903 0 26.943 12.04 26.943 26.943s-12.04 26.943-26.943 26.943H242.53v26.943c0 14.903-12.04 26.943-26.943 26.943s-26.943-12.04-26.943-26.943v-26.943H161.7c-14.903 0-26.943-12.04-26.943-26.943s12.04-26.943 26.943-26.943h26.943v-29.384c-68.957-12.63-121.244-73.083-121.244-145.745 0-81.839 66.347-148.186 148.187-148.186 31.152 0 60.116 9.598 84.028 26.101l53.044-53.044h-29.216zm-13.471 175.129c0-52.118-42.183-94.3-94.3-94.3-52.118 0-94.3 42.182-94.3 94.3s42.182 94.3 94.3 94.3 94.3-42.182 94.3-94.3"/></svg>