<svg xmlns="http://www.w3.org/2000/svg" viewBox="0 0 512 512"><!--! Font Awesome Free 7.0.1 by @fontawesome - https://fontawesome.com License - https://fontawesome.com/license/free (Icons: CC BY 4.0, Fonts: SIL OFL 1.1, Code: MIT License) Copyright 2025 Fonticons, Inc.--><path fill="currentColor" d="M109.714 36.571C109.714 16.343 93.371 0 73.143 0 52.914 0 36.57 16.343 36.57 36.571v256c0 40.343 32.8 73.143 73.143 73.143h219.429V475.43c0 20.228 16.343 36.571 36.571 36.571 20.229 0 36.572-16.343 36.572-36.571V365.714h36.571c20.229 0 36.572-16.343 36.572-36.571 0-20.229-16.343-36.572-36.572-36.572h-36.571v-256C402.286 16.343 385.943 0 365.714 0c-20.228 0-36.571 16.343-36.571 36.571v256H109.714z"/></svg>