<svg xmlns="http://www.w3.org/2000/svg" viewBox="0 0 512 512"><!--! Font Awesome Free 7.0.1 by @fontawesome - https://fontawesome.com License - https://fontawesome.com/license/free (Icons: CC BY 4.0, Fonts: SIL OFL 1.1, Code: MIT License) Copyright 2025 Fonticons, Inc.--><path fill="currentColor" d="M51.2 128c0-28.24 22.96-51.2 51.2-51.2h307.2c28.24 0 51.2 22.96 51.2 51.2v192h-51.2V128H102.4v192H51.2zM0 373.76c0-8.48 6.88-15.36 15.36-15.36h481.28c8.48 0 15.36 6.88 15.36 15.36 0 33.92-27.52 61.44-61.44 61.44H61.44C27.52 435.2 0 407.68 0 373.76M230.4 179.2c0-7.04 5.76-12.8 12.8-12.8h25.6c7.04 0 12.8 5.76 12.8 12.8v32h32c7.04 0 12.8 5.76 12.8 12.8v25.6c0 7.04-5.76 12.8-12.8 12.8h-32v32c0 7.04-5.76 12.8-12.8 12.8h-25.6c-7.04 0-12.8-5.76-12.8-12.8v-32h-32c-7.04 0-12.8-5.76-12.8-12.8V224c0-7.04 5.76-12.8 12.8-12.8h32z"/></svg>