<svg xmlns="http://www.w3.org/2000/svg" viewBox="0 0 512 512"><!--! Font Awesome Free 7.0.1 by @fontawesome - https://fontawesome.com License - https://fontawesome.com/license/free (Icons: CC BY 4.0, Fonts: SIL OFL 1.1, Code: MIT License) Copyright 2025 Fonticons, Inc.--><path fill="currentColor" d="M38.259 8.287C29.972 0 16.573 0 8.375 8.287.176 16.573.088 29.972 8.287 38.259L473.74 503.713c8.287 8.287 21.686 8.287 29.884 0 8.199-8.286 8.287-21.685 0-29.884l-83.305-83.306c35.438-20.275 61.267-85.421 61.267-162.732 0-93.444-37.907-169.257-84.628-169.257s-84.628 75.813-84.628 169.257c0 21.245 1.939 41.608 5.553 60.297l-47.78-47.868v-12.518c0-51.922 10.403-100.936 29.268-138.578 5.201-10.314 11.548-20.893 19.306-30.678H114.953c-7.317 0-14.457 1.852-21.245 5.378L38.171 8.287zm-7.934 219.415V460.43c0 27.24 22.127 49.366 49.366 49.366h141.047c27.24 0 49.367-22.127 49.367-49.366V359.758L44.43 134.083c-8.904 26.799-14.105 58.975-14.105 93.62m366.722 56.42c-15.603 0-28.21-25.301-28.21-56.42 0-31.118 12.607-56.418 28.21-56.418s28.21 25.3 28.21 56.418c0 31.119-12.607 56.42-28.21 56.42"/></svg>