<svg xmlns="http://www.w3.org/2000/svg" viewBox="0 0 512 512"><!--! Font Awesome Free 7.0.1 by @fontawesome - https://fontawesome.com License - https://fontawesome.com/license/free (Icons: CC BY 4.0, Fonts: SIL OFL 1.1, Code: MIT License) Copyright 2025 Fonticons, Inc.--><path fill="currentColor" d="M256 57.51c-71.598 0-128.93 32.608-170.667 71.42-41.47 38.547-69.206 84.536-82.409 116.17a28.18 28.18 0 0 0 0 21.8c13.203 31.634 40.939 77.712 82.41 116.17 41.736 38.723 99.068 71.42 170.666 71.42s128.93-32.608 170.667-71.42c41.47-38.547 69.206-84.536 82.409-116.17a28.18 28.18 0 0 0 0-21.8c-13.203-31.634-40.939-77.712-82.41-116.17C384.93 90.207 327.599 57.51 256 57.51M128.399 256c0-70.447 57.154-127.601 127.601-127.601S383.601 185.553 383.601 256 326.447 383.601 256 383.601 128.399 326.447 128.399 256M256 199.288c0 31.28-25.432 56.712-56.712 56.712-10.19 0-19.76-2.658-28.09-7.443-.886 9.658-.088 19.583 2.57 29.419 12.14 45.37 58.838 72.307 104.208 60.167s72.307-58.838 60.167-104.207c-10.81-40.496-49.18-66.282-89.586-62.738a56.54 56.54 0 0 1 7.443 28.09"/></svg>