<svg xmlns="http://www.w3.org/2000/svg" viewBox="0 0 512 512"><!--! Font Awesome Free 7.0.1 by @fontawesome - https://fontawesome.com License - https://fontawesome.com/license/free (Icons: CC BY 4.0, Fonts: SIL OFL 1.1, Code: MIT License) Copyright 2025 Fonticons, Inc.--><path fill="currentColor" d="M158.165 82.824v37.647H84.659c-13.459 0-24.377 10.917-24.377 24.376 0 3.765.847 7.53 2.542 10.918l31.435 62.87c-10.73 1.694-19.012 11.012-19.012 22.306a22.534 22.534 0 0 0 22.588 22.588h5.27l-12.8 128-52.893 66.165c-4.706 5.93-7.341 13.27-7.341 20.894C30.07 497.035 45.035 512 63.482 512h234.26c18.446 0 33.41-14.965 33.41-33.412 0-7.623-2.54-14.964-7.34-20.894l-52.706-66.165-12.8-128h5.27a22.534 22.534 0 0 0 22.589-22.588c0-11.2-8.189-20.612-19.012-22.306l31.435-62.87c1.694-3.389 2.541-7.153 2.541-10.918 0-13.459-10.917-24.376-24.376-24.376h-73.506V82.824h15.059a22.534 22.534 0 0 0 22.588-22.589c0-12.517-9.976-22.588-22.494-22.588h-15.059V22.588A22.534 22.534 0 0 0 180.753 0a22.534 22.534 0 0 0-22.588 22.588v15.06h-15.06a22.534 22.534 0 0 0-22.587 22.587 22.534 22.534 0 0 0 22.588 22.589zM306.682 293.27l8 80.47 44.612 55.718 3.953 5.365c8.659 12.894 13.27 28.14 13.27 43.764 0 11.953-2.635 23.341-7.435 33.412h78.212c19.106 0 34.635-15.53 34.635-34.635 0-6.87-2.07-13.553-5.835-19.2l-24.282-36.424v-60.235l12.517-12.518c11.295-11.294 17.6-26.635 17.6-42.635v-95.53c0-16.658-13.458-30.117-30.117-30.117-16.66 0-30.118 13.459-30.118 30.118v15.058h-30.118v-15.058c0-16.66-13.458-30.118-30.117-30.118s-30.118 13.459-30.118 30.118v30.117c0 21.083-9.6 39.906-24.659 52.33"/></svg>