<svg xmlns="http://www.w3.org/2000/svg" viewBox="0 0 512 512"><!--! Font Awesome Free 7.0.1 by @fontawesome - https://fontawesome.com License - https://fontawesome.com/license/free (Icons: CC BY 4.0, Fonts: SIL OFL 1.1, Code: MIT License) Copyright 2025 Fonticons, Inc.--><path fill="currentColor" d="M213.333 0h85.334C314.4 0 327.11 12.711 327.11 28.444c0 15.734-12.711 28.445-28.444 28.445h-85.334c-15.733 0-28.444-12.711-28.444-28.445S197.6 0 213.333 0M128 156.444c0-31.377 25.511-56.888 56.889-56.888H327.11c31.378 0 56.889 25.51 56.889 56.888 0 21.423-11.822 40.09-29.333 49.778C372.177 215.912 384 234.578 384 256s-11.822 40.089-29.333 49.778c17.51 9.689 29.333 28.355 29.333 49.778s-11.822 40.088-29.333 49.777c17.51 9.69 29.333 28.356 29.333 49.778C384 486.49 358.489 512 327.111 512H184.89C153.51 512 128 486.489 128 455.111c0-21.422 11.822-40.089 29.333-49.778-17.51-9.689-29.333-28.355-29.333-49.777s11.822-40.09 29.333-49.778C139.823 296.088 128 277.422 128 256s11.822-40.089 29.333-49.778C139.823 196.533 128 177.867 128 156.444"/></svg>