<svg xmlns="http://www.w3.org/2000/svg" viewBox="0 0 512 512"><!--! Font Awesome Free 7.0.1 by @fontawesome - https://fontawesome.com License - https://fontawesome.com/license/free (Icons: CC BY 4.0, Fonts: SIL OFL 1.1, Code: MIT License) Copyright 2025 Fonticons, Inc.--><path fill="currentColor" d="M255.9 0c4.607 0 9.214 1.002 13.42 2.905L458.017 82.93c22.034 9.314 38.46 31.048 38.36 57.29-.501 99.354-41.365 281.138-213.935 363.767a61.18 61.18 0 0 1-52.882 0C56.889 421.358 16.125 239.574 15.624 140.22c-.1-26.24 16.326-47.975 38.36-57.29L242.58 2.906C246.786 1.002 251.293 0 255.899 0m0 66.905v378.691c138.216-66.904 175.374-215.136 176.275-303.875L255.9 67.005z"/></svg>