<svg xmlns="http://www.w3.org/2000/svg" viewBox="0 0 512 512"><!--! Font Awesome Free 7.0.1 by @fontawesome - https://fontawesome.com License - https://fontawesome.com/license/free (Icons: CC BY 4.0, Fonts: SIL OFL 1.1, Code: MIT License) Copyright 2025 Fonticons, Inc.--><path fill="currentColor" d="M350.067 203.874 229.15 324.791l60.459 60.551c7.314 7.315 10.277 17.962 7.777 28.054s-10 18.147-19.906 21.202L40.46 508.667c-10.555 3.24-22.035.463-29.813-7.314S0 482.095 3.333 471.54l74.069-237.02c3.055-9.907 11.11-17.499 21.202-19.906s20.74.463 28.054 7.777l60.55 60.459 120.918-120.917c-13.24-13.518-13.147-35.183.278-48.608l88.327-88.327C421.636.093 462.004.093 487 24.998c24.999 24.906 24.906 65.273 0 90.271l-88.326 88.327c-13.425 13.425-35.09 13.518-48.608.278"/></svg>