<svg xmlns="http://www.w3.org/2000/svg" viewBox="0 0 512 512"><!--! Font Awesome Free 7.0.1 by @fontawesome - https://fontawesome.com License - https://fontawesome.com/license/free (Icons: CC BY 4.0, Fonts: SIL OFL 1.1, Code: MIT License) Copyright 2025 Fonticons, Inc.--><path fill="currentColor" d="M235.036 101.32c13.911 41.735-.292 83.858-31.715 94.17s-68.195-15.176-82.106-56.91c-13.912-41.735.291-83.858 31.714-94.17s68.195 15.176 82.107 56.91M104.579 204.148c18.387 31.52 13.912 68.196-9.923 81.815-23.834 13.62-58.078-.875-76.367-32.395s-13.911-68.195 9.923-81.815 58.078.876 76.367 32.395M74.227 401.243c50.976-137.46 141.547-172.385 181.724-172.385 40.178 0 130.749 34.925 181.725 172.385 3.502 9.437 5.059 19.554 5.059 29.672v1.556c0 25.1-20.333 45.431-45.432 45.431a135 135 0 0 1-33.076-4.086l-85.609-21.402a94.04 94.04 0 0 0-45.334 0l-85.609 21.402a135 135 0 0 1-33.076 4.086c-25.099 0-45.43-20.332-45.43-45.43v-1.557c0-10.118 1.556-20.235 5.058-29.672m343.02-115.28c-23.835-13.62-28.31-50.295-9.923-81.815 18.386-31.52 52.532-46.015 76.367-32.395 23.834 13.62 28.309 50.295 9.923 81.815s-52.533 46.015-76.368 32.395M308.58 195.49c-31.422-10.312-45.625-52.435-31.714-94.17s50.685-67.222 82.107-56.91 45.626 52.435 31.714 94.17-50.684 67.222-82.107 56.91"/></svg>