<svg xmlns="http://www.w3.org/2000/svg" viewBox="0 0 512 512"><!--! Font Awesome Free 7.0.1 by @fontawesome - https://fontawesome.com License - https://fontawesome.com/license/free (Icons: CC BY 4.0, Fonts: SIL OFL 1.1, Code: MIT License) Copyright 2025 Fonticons, Inc.--><path fill="currentColor" d="M0 71.143c0-23.551 19.108-42.66 42.66-42.66 18.574 0 34.393 11.91 40.259 28.44H429.08c5.866-16.53 21.685-28.44 40.26-28.44 23.551 0 42.659 19.109 42.659 42.66v369.714c0 23.551-19.108 42.66-42.66 42.66-18.574 0-34.393-11.91-40.259-28.44H82.92c-5.866 16.53-21.685 28.44-40.26 28.44C19.108 483.516 0 464.407 0 440.856zm158.106 224.85c-1.067 1.778-1.689 3.733-1.689 5.866 0 6.132 4.977 11.109 11.11 11.109h50.568l27.107 43.726a12.75 12.75 0 0 0 10.842 6.043c4.444 0 8.532-2.31 10.843-6.043l27.106-43.726h50.57c6.132 0 11.109-4.977 11.109-11.11 0-2.043-.534-4.087-1.689-5.865L329.276 256l24.707-39.993c1.066-1.778 1.689-3.733 1.689-5.866 0-6.132-4.977-11.109-11.11-11.109h-50.569l-27.106-43.726a12.75 12.75 0 0 0-10.843-6.043c-4.443 0-8.531 2.31-10.842 6.043l-27.107 43.726h-50.569c-6.132 0-11.109 4.977-11.109 11.11 0 2.043.534 4.087 1.689 5.865L182.813 256z"/></svg>