<svg xmlns="http://www.w3.org/2000/svg" viewBox="0 0 512 512"><!--! Font Awesome Free 7.0.1 by @fontawesome - https://fontawesome.com License - https://fontawesome.com/license/free (Icons: CC BY 4.0, Fonts: SIL OFL 1.1, Code: MIT License) Copyright 2025 Fonticons, Inc.--><path fill="currentColor" d="M358.4 406.588c39.059-38.306 63.247-91.576 63.247-150.588 0-116.424-94.4-210.824-210.823-210.824C94.4 45.176 0 139.576 0 256s94.4 210.824 210.824 210.824h271.058c16.66 0 30.118-13.46 30.118-30.118 0-16.659-13.459-30.118-30.118-30.118zm-147.576-240.94c49.882 0 90.352 40.47 90.352 90.352s-40.47 90.353-90.352 90.353S120.47 305.883 120.47 256s40.47-90.353 90.353-90.353M256 256c0-24.941-20.235-45.176-45.176-45.176S165.647 231.059 165.647 256s20.235 45.176 45.177 45.176c24.94 0 45.176-20.235 45.176-45.176"/></svg>