<svg xmlns="http://www.w3.org/2000/svg" viewBox="0 0 512 512"><!--! Font Awesome Free 7.0.1 by @fontawesome - https://fontawesome.com License - https://fontawesome.com/license/free (Icons: CC BY 4.0, Fonts: SIL OFL 1.1, Code: MIT License) Copyright 2025 Fonticons, Inc.--><path fill="currentColor" d="M383.9 128.15c0 70.672-57.278 127.95-127.95 127.95-57.178 0-105.559-37.485-121.952-89.265-1.1 1.3-2.2 2.599-3.499 3.798-15.794 15.794-38.785 20.692-53.579 22.092-8.097.8-14.594-5.698-13.795-13.795 1.4-14.694 6.298-37.785 22.092-53.579 5.797-5.798 12.595-10.096 19.592-13.395-6.997-3.198-13.795-7.597-19.592-13.395-15.794-15.793-20.692-38.784-22.092-53.579-.8-8.096 5.698-14.594 13.795-13.794 14.694 1.4 37.785 6.297 53.579 22.091 4.798 4.798 8.697 10.396 11.695 16.094C163.486 28.189 206.47 0 255.95 0 326.622 0 383.9 57.278 383.9 127.95zm-207.919-15.994c0 8.797 7.197 15.994 15.994 15.994h127.95c8.797 0 15.994-7.197 15.994-15.994 0-8.796-7.197-15.994-15.994-15.994h-127.95c-8.797 0-15.994 7.198-15.994 15.994m-1.4 210.918 66.975 50.18c8.496 6.398 20.292 6.398 28.788 0l66.974-50.18c6.498-4.898 15.194-6.198 22.591-2.8 61.376 28.19 104.06 90.166 104.06 162.038 0 16.393-13.295 29.688-29.689 29.688H77.72c-16.394 0-29.689-13.295-29.689-29.688 0-71.972 42.684-133.948 104.06-162.037 7.397-3.399 16.093-2.1 22.59 2.799z"/></svg>