<svg xmlns="http://www.w3.org/2000/svg" viewBox="0 0 512 512"><!--! Font Awesome Free 7.0.1 by @fontawesome - https://fontawesome.com License - https://fontawesome.com/license/free (Icons: CC BY 4.0, Fonts: SIL OFL 1.1, Code: MIT License) Copyright 2025 Fonticons, Inc.--><path fill="currentColor" d="M28.444 113.778C12.711 113.778 0 126.488 0 142.222v227.556c0 15.733 12.711 28.444 28.444 28.444 15.734 0 28.445-12.71 28.445-28.444V142.222c0-15.733-12.711-28.444-28.445-28.444m318.756 219.2 56.889-56.89c11.111-11.11 11.111-29.155 0-40.266L347.2 178.933c-11.111-11.11-29.156-11.11-40.267 0-11.11 11.111-11.11 29.156 0 40.267l8.356 8.356H196.622l8.356-8.356c11.11-11.111 11.11-29.156 0-40.267-11.111-11.11-29.156-11.11-40.267 0l-56.889 56.89c-5.333 5.333-8.355 12.533-8.355 20.088s3.022 14.756 8.355 20.089l56.89 56.889c11.11 11.111 29.155 11.111 40.266 0s11.11-29.156 0-40.267l-8.356-8.355H315.29l-8.356 8.355c-11.11 11.111-11.11 29.156 0 40.267 11.111 11.111 29.156 11.111 40.267 0zM512 142.222c0-15.733-12.711-28.444-28.444-28.444-15.734 0-28.445 12.71-28.445 28.444v227.556c0 15.733 12.711 28.444 28.445 28.444S512 385.512 512 369.778z"/></svg>