<svg xmlns="http://www.w3.org/2000/svg" viewBox="0 0 512 512"><!--! Font Awesome Free 7.0.1 by @fontawesome - https://fontawesome.com License - https://fontawesome.com/license/free (Icons: CC BY 4.0, Fonts: SIL OFL 1.1, Code: MIT License) Copyright 2025 Fonticons, Inc.--><path fill="currentColor" d="M60.235 0C27.012 0 0 27.012 0 60.235v361.412c0 33.224 27.012 60.235 60.235 60.235h169.412c-21.365-29.647-33.882-66.07-33.882-105.411 0-94.683 72.847-172.424 165.647-180.047v-35.86c0-16-6.306-31.34-17.6-42.635L243.482 17.6C232.188 6.306 216.942 0 200.942 0zm246.118 165.647h-88a22.534 22.534 0 0 1-22.588-22.588v-88zM376.47 512C451.294 512 512 451.294 512 376.47c0-74.823-60.706-135.529-135.53-135.529-74.823 0-135.529 60.706-135.529 135.53 0 74.823 60.706 135.529 135.53 135.529m0-94.118c10.353 0 18.823 8.47 18.823 18.824 0 10.353-8.47 18.823-18.823 18.823s-18.824-8.47-18.824-18.823 8.47-18.824 18.824-18.824m0-94.117c-10.918 0-20.047 7.717-22.118 18.07-1.694 8.189-9.6 13.46-17.788 11.765-8.189-1.694-13.46-9.6-11.765-17.788 4.894-24.094 26.165-42.165 51.67-42.165 29.083 0 52.706 23.624 52.706 52.706 0 18.635-11.011 35.576-28.047 43.2l-9.788 4.33a15.004 15.004 0 0 1-14.87 12.705c-8.283 0-15.06-6.776-15.06-15.059 0-10.54 6.213-20.047 15.813-24.376l11.67-5.177c6.212-2.729 10.165-8.847 10.165-15.623a22.534 22.534 0 0 0-22.588-22.588"/></svg>