<svg xmlns="http://www.w3.org/2000/svg" viewBox="0 0 512 512"><!--! Font Awesome Free 7.0.1 by @fontawesome - https://fontawesome.com License - https://fontawesome.com/license/free (Icons: CC BY 4.0, Fonts: SIL OFL 1.1, Code: MIT License) Copyright 2025 Fonticons, Inc.--><path fill="currentColor" d="M224.647 37.213h-74.426c-28.716 0-53.818 19.632-60.655 47.47L7.326 416.67C0 446.17 22.366 474.787 52.84 474.787h171.806v-62.51c0-17.289 13.967-31.256 31.255-31.256s31.256 13.967 31.256 31.255v62.51h172.001c30.474 0 52.841-28.617 45.516-58.115L422.532 84.682c-6.935-27.837-31.94-47.469-60.753-47.469h-74.621v62.51c0 17.289-13.968 31.256-31.256 31.256s-31.255-13.967-31.255-31.255zm62.51 187.532v62.51c0 17.288-13.967 31.255-31.255 31.255s-31.255-13.967-31.255-31.255v-62.51c0-17.288 13.967-31.255 31.255-31.255s31.256 13.967 31.256 31.255"/></svg>