<svg xmlns="http://www.w3.org/2000/svg" viewBox="0 0 512 512"><!--! Font Awesome Free 7.0.1 by @fontawesome - https://fontawesome.com License - https://fontawesome.com/license/free (Icons: CC BY 4.0, Fonts: SIL OFL 1.1, Code: MIT License) Copyright 2025 Fonticons, Inc.--><path fill="currentColor" d="M284.489 28.444C284.489 12.711 271.778 0 256.044 0S227.6 12.711 227.6 28.444v55.2l-13.333-13.333c-8.356-8.355-21.867-8.355-30.134 0s-8.355 21.867 0 30.133L227.69 144v62.756l-54.4-31.378-15.911-59.467c-3.022-11.378-14.756-18.133-26.134-15.111s-18.222 14.756-15.2 26.133l4.89 18.223L73.2 117.6c-13.6-7.822-31.022-3.2-38.844 10.4s-3.2 31.022 10.4 38.844L92.489 194.4l-18.222 4.889c-11.378 3.022-18.134 14.755-15.111 26.133s14.755 18.134 26.133 15.111l59.467-15.91 54.4 31.377-54.4 31.378-59.467-15.911c-11.378-3.023-23.111 3.733-26.133 15.11-3.023 11.379 3.733 23.112 15.11 26.134L92.49 317.6l-47.733 27.556c-13.6 7.822-18.223 25.244-10.4 38.844S59.6 402.311 73.2 394.4l47.733-27.556-4.889 18.223c-3.022 11.377 3.734 23.11 15.112 26.133s23.11-3.733 26.133-15.111l15.911-59.467 54.4-31.378V368l-43.556 43.556c-8.355 8.355-8.355 21.866 0 30.133s21.867 8.355 30.134 0l13.333-13.333v55.2c0 15.733 12.711 28.444 28.445 28.444s28.444-12.711 28.444-28.444v-55.2l13.333 13.333c8.356 8.355 21.867 8.355 30.134 0s8.355-21.867 0-30.133L284.31 368v-62.756l54.4 31.378 15.911 59.467c3.022 11.378 14.756 18.133 26.134 15.111s18.133-14.756 15.11-26.133l-4.888-18.223L438.71 394.4c13.6 7.822 31.022 3.2 38.845-10.4 7.822-13.6 3.2-31.022-10.4-38.844L419.422 317.6l18.222-4.889c11.378-3.022 18.134-14.755 15.112-26.133S438 268.444 426.622 271.467l-59.466 15.91-54.4-31.377 54.4-31.378 59.466 15.911c11.378 3.023 23.111-3.733 26.134-15.11 3.022-11.379-3.734-23.112-15.112-26.134l-18.222-4.889 47.734-27.556c13.6-7.822 18.31-25.244 10.4-38.844-7.912-13.6-25.245-18.222-38.845-10.4l-47.733 27.556 4.889-18.223c3.022-11.377-3.734-23.11-15.111-26.133s-23.112 3.733-26.134 15.111l-15.91 59.467-54.4 31.378V144l43.555-43.556c8.355-8.355 8.355-21.866 0-30.133s-21.867-8.355-30.134 0L284.4 83.644v-55.2z"/></svg>