<svg xmlns="http://www.w3.org/2000/svg" viewBox="0 0 512 512"><!--! Font Awesome Free 7.0.1 by @fontawesome - https://fontawesome.com License - https://fontawesome.com/license/free (Icons: CC BY 4.0, Fonts: SIL OFL 1.1, Code: MIT License) Copyright 2025 Fonticons, Inc.--><path fill="currentColor" d="M51.2 115.2c0-28.24 22.96-51.2 51.2-51.2h230.4c28.24 0 51.2 22.96 51.2 51.2v25.6h40.56c13.6 0 26.64 5.36 36.24 14.96L497.04 192c9.6 9.6 14.96 22.64 14.96 36.24V345.6c0 28.24-22.96 51.2-51.2 51.2h-2.64c-8.32 29.52-35.52 51.2-67.76 51.2s-59.36-21.68-67.76-51.2h-82.08c-8.32 29.52-35.52 51.2-67.76 51.2s-59.36-21.68-67.76-51.2h-2.64c-28.24 0-51.2-22.96-51.2-51.2v-38.4h-32C8.56 307.2 0 298.64 0 288s8.56-19.2 19.2-19.2h89.6c10.64 0 19.2-8.56 19.2-19.2s-8.56-19.2-19.2-19.2H19.2C8.56 230.4 0 221.84 0 211.2S8.56 192 19.2 192H160c10.64 0 19.2-8.56 19.2-19.2s-8.56-19.2-19.2-19.2H19.2C8.56 153.6 0 145.04 0 134.4s8.56-19.2 19.2-19.2zm409.6 153.6v-40.56L424.56 192H384v76.8zm-256 108.8c0-17.68-14.32-32-32-32s-32 14.32-32 32 14.32 32 32 32 32-14.32 32-32m185.6 32c17.68 0 32-14.32 32-32s-14.32-32-32-32-32 14.32-32 32 14.32 32 32 32"/></svg>