<svg xmlns="http://www.w3.org/2000/svg" viewBox="0 0 512 512"><!--! Font Awesome Free 7.0.1 by @fontawesome - https://fontawesome.com License - https://fontawesome.com/license/free (Icons: CC BY 4.0, Fonts: SIL OFL 1.1, Code: MIT License) Copyright 2025 Fonticons, Inc.--><path fill="currentColor" d="M212.267 70.933a77.5 77.5 0 0 0-6.045 30.045v89.244L71.112 291.556v-42.667a21.28 21.28 0 0 0-21.334-21.333 21.28 21.28 0 0 0-21.334 21.333v128a21.28 21.28 0 0 0 21.334 21.333A21.28 21.28 0 0 0 71.11 376.89v-7.111h135.111v48.355l-58.666 46.934c-3.378 2.666-5.334 6.755-5.334 11.11v21.6c0 7.823 6.4 14.223 14.222 14.223h78.223v-35.556A21.28 21.28 0 0 1 256 455.111a21.28 21.28 0 0 1 21.333 21.333V512h78.223c7.822 0 14.222-6.4 14.222-14.222v-21.6c0-4.356-1.956-8.445-5.334-11.111l-58.666-46.934v-48.355h135.11v7.11a21.28 21.28 0 0 0 21.334 21.334 21.28 21.28 0 0 0 21.334-21.333v-128a21.28 21.28 0 0 0-21.334-21.333 21.28 21.28 0 0 0-21.333 21.333v42.667L305.778 190.222v-89.244a77.5 77.5 0 0 0-6.045-30.045l-24.089-57.777A21.18 21.18 0 0 0 256 0c-8.622 0-16.356 5.156-19.733 13.156l-24.09 57.777z"/></svg>