<svg xmlns="http://www.w3.org/2000/svg" viewBox="0 0 512 512"><!--! Font Awesome Free 7.0.1 by @fontawesome - https://fontawesome.com License - https://fontawesome.com/license/free (Icons: CC BY 4.0, Fonts: SIL OFL 1.1, Code: MIT License) Copyright 2025 Fonticons, Inc.--><path fill="currentColor" d="M75.272 0C42.387 0 15.651 26.737 15.651 59.622V417.35c0 32.885 26.736 59.621 59.621 59.621h44.716V372.635c0-32.885 26.737-59.622 59.622-59.622h193.77V59.622C373.38 26.737 346.643 0 313.758 0zm29.811 104.338c0-8.198 6.707-14.906 14.905-14.906H149.8c8.198 0 14.906 6.708 14.906 14.906v29.81c0 8.198-6.708 14.906-14.906 14.906h-29.81c-8.199 0-14.906-6.708-14.906-14.906zm134.148-14.906h29.811c8.198 0 14.906 6.708 14.906 14.906v29.81c0 8.198-6.708 14.906-14.906 14.906h-29.81c-8.199 0-14.906-6.708-14.906-14.906v-29.81c0-8.198 6.707-14.906 14.905-14.906M105.083 223.581c0-8.198 6.707-14.906 14.905-14.906H149.8c8.198 0 14.906 6.708 14.906 14.906v29.81c0 8.199-6.708 14.906-14.906 14.906h-29.81c-8.199 0-14.906-6.707-14.906-14.905zm134.148-14.906h29.811c8.198 0 14.906 6.708 14.906 14.906v29.81c0 8.199-6.708 14.906-14.906 14.906h-29.81c-8.199 0-14.906-6.707-14.906-14.905V223.58c0-8.198 6.707-14.906 14.905-14.906m201.223 145.328c-22.637 0-40.99 18.352-40.99 40.99v74.527c0 22.637 18.353 40.99 40.99 40.99h14.906c22.637 0 40.99-18.353 40.99-40.99v-74.527c0-22.638-18.353-40.99-40.99-40.99zm-3.726 40.99a3.737 3.737 0 0 1 3.726-3.727h14.906a3.737 3.737 0 0 1 3.726 3.727v74.527a3.737 3.737 0 0 1-3.726 3.726h-14.906a3.737 3.737 0 0 1-3.726-3.726zm-156.507 0v74.527c0 22.637 18.353 40.99 40.99 40.99h14.905c22.638 0 40.99-18.353 40.99-40.99v-22.358c0-10.248-8.384-18.632-18.631-18.632h-7.453c-10.248 0-18.632 8.384-18.632 18.632 0 6.055 2.888 11.551 7.453 14.905v7.453a3.737 3.737 0 0 1-3.727 3.726h-14.905a3.737 3.737 0 0 1-3.726-3.726v-74.527a3.737 3.737 0 0 1 3.726-3.727h19.004c1.77 8.478 9.223 14.906 18.26 14.906 10.247 0 18.631-8.385 18.631-18.632 0-18.539-14.998-33.537-33.537-33.537h-22.358c-22.637 0-40.99 18.352-40.99 40.99m-83.936-30.65c-3.82-7.732-12.576-11.83-20.96-9.781-8.385 2.05-14.347 9.409-14.347 18.073v119.243c0 10.247 8.384 18.631 18.632 18.631 10.247 0 18.632-8.384 18.632-18.631V451.54l24.314 48.629c3.82 7.732 12.576 11.831 20.96 9.782 8.385-2.05 14.347-9.41 14.347-18.073V372.635c0-10.248-8.384-18.632-18.632-18.632-10.247 0-18.631 8.384-18.631 18.632v40.337z"/></svg>