<svg xmlns="http://www.w3.org/2000/svg" viewBox="0 0 512 512"><!--! Font Awesome Free 7.0.1 by @fontawesome - https://fontawesome.com License - https://fontawesome.com/license/free (Icons: CC BY 4.0, Fonts: SIL OFL 1.1, Code: MIT License) Copyright 2025 Fonticons, Inc.--><path fill="currentColor" d="M493.6 76.6c-4.6-8.7-16.3-9.7-23.3-2.7L296.2 248c-7 7-6 18.7 2.7 23.3 20.1 10.7 43 16.7 67.4 16.7 79.5 0 144-64.5 144-144 0-24.3-6-47.3-16.7-67.4M239 211.4c4.6 8.7 16.3 9.7 23.3 2.7L436.4 40c7-7 6-18.7-2.7-23.3C413.6 6 390.7 0 366.3 0c-79.5 0-144 64.5-144 144 0 24.3 6 47.3 16.7 67.4M142.3 224C77.5 224 22.7 266.8 4.6 325.6 1.7 335.1 9.3 344 19.2 344h246.2c9.9 0 17.5-8.9 14.6-18.4q-1.35-4.5-3-8.7c-37.4-18.1-68-48-87-84.8-14.9-5.2-30.9-8.1-47.6-8.1zM280 410.4c2.9-9.5-4.7-18.4-14.6-18.4H19.2c-9.9 0-17.5 8.9-14.6 18.4C22.7 469.2 77.5 512 142.3 512S261.9 469.2 280 410.4"/></svg>