<svg xmlns="http://www.w3.org/2000/svg" viewBox="0 0 512 512"><!--! Font Awesome Free 7.0.1 by @fontawesome - https://fontawesome.com License - https://fontawesome.com/license/free (Icons: CC BY 4.0, Fonts: SIL OFL 1.1, Code: MIT License) Copyright 2025 Fonticons, Inc.--><path fill="currentColor" d="M286.118 30.118C286.118 13.458 272.658 0 256 0c-16.659 0-30.118 13.459-30.118 30.118v240.94c0 16.66 13.46 30.118 30.118 30.118 16.659 0 30.118-13.458 30.118-30.117zm-133.365 92.611c13.647-9.505 16.941-28.329 7.435-41.976s-28.33-16.941-41.976-7.435C55.906 116.8 15.059 189.176 15.059 271.058 15.059 404.142 122.918 512 256 512s240.941-107.859 240.941-240.941c0-81.883-40.847-154.259-103.247-197.741-13.647-9.506-32.376-6.212-41.976 7.435s-6.212 32.376 7.435 41.976c46.87 32.753 77.459 86.965 77.459 148.33 0 99.765-80.941 180.706-180.706 180.706S75.294 370.824 75.294 271.059c0-61.365 30.588-115.67 77.459-148.33"/></svg>