<svg xmlns="http://www.w3.org/2000/svg" viewBox="0 0 512 512"><!--! Font Awesome Free 7.0.1 by @fontawesome - https://fontawesome.com License - https://fontawesome.com/license/free (Icons: CC BY 4.0, Fonts: SIL OFL 1.1, Code: MIT License) Copyright 2025 Fonticons, Inc.--><path fill="currentColor" d="M68.705 204.879c4.939 11.854 16.398 19.56 29.24 19.56h316.11c12.743 0 24.301-7.706 29.24-19.56 4.94-11.854 2.174-25.388-6.816-34.476L278.424 12.348C266.076 0 246.023 0 233.674 12.348L75.62 170.403c-9.089 9.088-11.756 22.622-6.817 34.476zm0 102.242c-4.94 11.854-2.174 25.388 6.816 34.476l158.055 158.055c12.348 12.348 32.401 12.348 44.75 0L436.38 341.597c9.089-9.088 11.756-22.622 6.817-34.476-4.94-11.854-16.399-19.46-29.142-19.46H97.945c-12.743 0-24.301 7.705-29.24 19.559z"/></svg>