<svg xmlns="http://www.w3.org/2000/svg" viewBox="0 0 512 512"><!--! Font Awesome Free 7.0.1 by @fontawesome - https://fontawesome.com License - https://fontawesome.com/license/free (Icons: CC BY 4.0, Fonts: SIL OFL 1.1, Code: MIT License) Copyright 2025 Fonticons, Inc.--><path fill="currentColor" d="M512 35.31a26.42 26.42 0 0 0-26.483-26.482 26.42 26.42 0 0 0-26.483 26.482v441.38a26.42 26.42 0 0 0 26.483 26.482A26.42 26.42 0 0 0 512 476.69zM370.759 114.76a26.42 26.42 0 0 0-26.483 26.482V476.69a26.42 26.42 0 0 0 26.483 26.482 26.42 26.42 0 0 0 26.482-26.482V141.24a26.42 26.42 0 0 0-26.482-26.482m-88.276 132.413A26.42 26.42 0 0 0 256 220.69a26.42 26.42 0 0 0-26.483 26.482V476.69A26.42 26.42 0 0 0 256 503.172a26.42 26.42 0 0 0 26.483-26.482zM141.24 326.621a26.42 26.42 0 0 0-26.482 26.482V476.69a26.42 26.42 0 0 0 26.482 26.482 26.42 26.42 0 0 0 26.483-26.482V353.103a26.42 26.42 0 0 0-26.483-26.482M26.483 397.24A26.42 26.42 0 0 0 0 423.724v52.966a26.42 26.42 0 0 0 26.483 26.482 26.42 26.42 0 0 0 26.483-26.482v-52.966a26.42 26.42 0 0 0-26.483-26.483"/></svg>