<svg xmlns="http://www.w3.org/2000/svg" viewBox="0 0 512 512"><!--! Font Awesome Free 7.0.1 by @fontawesome - https://fontawesome.com License - https://fontawesome.com/license/free (Icons: CC BY 4.0, Fonts: SIL OFL 1.1, Code: MIT License) Copyright 2025 Fonticons, Inc.--><path fill="currentColor" d="M142.222 56.889c-31.378 0-56.889 25.511-56.889 56.889v199.11c0 31.379 25.511 56.89 56.89 56.89H455.11c31.378 0 56.889-25.511 56.889-56.89v-199.11c0-31.378-25.511-56.89-56.889-56.89zm156.445 85.333c39.289 0 71.11 31.822 71.11 71.111s-31.821 71.111-71.11 71.111-71.111-31.822-71.111-71.11c0-39.29 31.822-71.112 71.11-71.112m-156.445 21.334v-42.667c0-3.911 3.2-7.111 7.111-7.111H192c3.911 0 7.2 3.2 6.667 7.11-3.2 25.779-23.645 46.134-49.334 49.334-3.91.445-7.11-2.755-7.11-6.666m0 99.555c0-3.911 3.2-7.2 7.111-6.667 25.778 3.2 46.134 23.645 49.334 49.334.444 3.91-2.756 7.11-6.667 7.11h-42.667c-3.91 0-7.11-3.2-7.11-7.11zM448 170.222c-25.778-3.2-46.133-23.644-49.333-49.333-.445-3.911 2.755-7.111 6.666-7.111H448c3.911 0 7.111 3.2 7.111 7.11v42.668c0 3.91-3.2 7.2-7.111 6.666m7.111 92.89v42.666c0 3.91-3.2 7.11-7.111 7.11h-42.667c-3.91 0-7.2-3.2-6.666-7.11 3.2-25.778 23.644-46.134 49.333-49.334 3.911-.444 7.111 2.756 7.111 6.667M42.667 163.555a21.28 21.28 0 0 0-21.334-21.334A21.28 21.28 0 0 0 0 163.556v234.666c0 31.378 25.511 56.89 56.889 56.89h348.444a21.28 21.28 0 0 0 21.334-21.334 21.28 21.28 0 0 0-21.334-21.334H56.89c-7.822 0-14.222-6.4-14.222-14.222z"/></svg>