<svg xmlns="http://www.w3.org/2000/svg" viewBox="0 0 512 512"><!--! Font Awesome Free 7.0.1 by @fontawesome - https://fontawesome.com License - https://fontawesome.com/license/free (Icons: CC BY 4.0, Fonts: SIL OFL 1.1, Code: MIT License) Copyright 2025 Fonticons, Inc.--><path fill="currentColor" d="M473.212 23.273A23.217 23.217 0 0 0 449.94 0h-98.715a23.217 23.217 0 0 0-23.272 23.273 23.217 23.217 0 0 0 23.272 23.272h42.57L285.867 154.473l-92.219-79.03a23.23 23.23 0 0 0-30.254 0l-108.606 93.09c-9.794 8.34-10.86 23.08-2.521 32.776 8.34 9.697 23.078 10.86 32.775 2.521l93.48-80.097L272 203.83c9.212 7.952 22.982 7.37 31.612-1.26L426.764 79.418v42.57a23.217 23.217 0 0 0 23.272 23.273 23.217 23.217 0 0 0 23.273-23.273zM54.303 263.758c-25.697 0-46.545 20.848-46.545 46.545v155.152C7.758 491.152 28.606 512 54.303 512h403.394c25.697 0 46.545-20.848 46.545-46.545V310.303c0-25.697-20.848-46.545-46.545-46.545zm45.867 54.303c-3.297 19.49-18.618 34.909-38.206 38.206-4.267.678-7.758-2.812-7.758-7.08v-31.03c0-4.266 3.491-7.757 7.758-7.757h31.03c4.267 0 7.854 3.49 7.079 7.758zm0 139.733c.678 4.267-2.812 7.758-7.08 7.758H62.06c-4.266 0-7.757-3.491-7.757-7.758v-31.03c0-4.267 3.49-7.855 7.758-7.08 19.49 3.298 34.909 18.619 38.206 38.207zm349.77-38.206c4.266-.679 7.757 2.812 7.757 7.079v31.03c0 4.267-3.49 7.758-7.758 7.758h-31.03c-4.267 0-7.854-3.491-7.079-7.758 3.297-19.49 18.618-34.91 38.206-38.206zM411.83 318.06c-.678-4.267 2.812-7.758 7.08-7.758h31.03c4.266 0 7.757 3.49 7.757 7.758v31.03c0 4.267-3.49 7.854-7.758 7.079-19.49-3.297-34.909-18.618-38.206-38.206zm-217.89 69.818c0-34.23 27.83-62.06 62.06-62.06s62.06 27.83 62.06 62.06-27.83 62.06-62.06 62.06-62.06-27.83-62.06-62.06"/></svg>