<svg xmlns="http://www.w3.org/2000/svg" viewBox="0 0 512 512"><!--! Font Awesome Free 7.0.1 by @fontawesome - https://fontawesome.com License - https://fontawesome.com/license/free (Icons: CC BY 4.0, Fonts: SIL OFL 1.1, Code: MIT License) Copyright 2025 Fonticons, Inc.--><path fill="currentColor" d="M73.143 0C32.8 0 0 32.8 0 73.143v73.143c0 40.343 32.8 73.143 73.143 73.143h365.714c40.343 0 73.143-32.8 73.143-73.143V73.143C512 32.8 479.2 0 438.857 0zM320 82.286a27.363 27.363 0 0 1 27.429 27.428A27.363 27.363 0 0 1 320 137.143a27.363 27.363 0 0 1-27.429-27.429A27.363 27.363 0 0 1 320 82.286m64 27.428a27.363 27.363 0 0 1 27.429-27.428 27.363 27.363 0 0 1 27.428 27.428 27.363 27.363 0 0 1-27.428 27.429A27.363 27.363 0 0 1 384 109.714M73.143 292.571C32.8 292.571 0 325.371 0 365.714v73.143C0 479.2 32.8 512 73.143 512h365.714C479.2 512 512 479.2 512 438.857v-73.143c0-40.343-32.8-73.143-73.143-73.143zM320 374.857a27.363 27.363 0 0 1 27.429 27.429A27.363 27.363 0 0 1 320 429.714a27.363 27.363 0 0 1-27.429-27.428A27.363 27.363 0 0 1 320 374.857m64 27.429a27.363 27.363 0 0 1 27.429-27.429 27.363 27.363 0 0 1 27.428 27.429 27.363 27.363 0 0 1-27.428 27.428A27.363 27.363 0 0 1 384 402.286"/></svg>