<svg xmlns="http://www.w3.org/2000/svg" viewBox="0 0 512 512"><!--! Font Awesome Free 7.0.1 by @fontawesome - https://fontawesome.com License - https://fontawesome.com/license/free (Icons: CC BY 4.0, Fonts: SIL OFL 1.1, Code: MIT License) Copyright 2025 Fonticons, Inc.--><path fill="currentColor" d="M512 36.571c0 20.229-16.343 36.572-36.571 36.572h-256c-20.229 0-36.572-16.343-36.572-36.572C182.857 16.343 199.2 0 219.43 0h256C495.657 0 512 16.343 512 36.571m0 292.572c0 20.228-16.343 36.571-36.571 36.571h-256c-20.229 0-36.572-16.343-36.572-36.571 0-20.229 16.343-36.572 36.572-36.572h256c20.228 0 36.571 16.343 36.571 36.572M0 182.857c0-20.228 16.343-36.571 36.571-36.571H475.43c20.228 0 36.571 16.343 36.571 36.571 0 20.229-16.343 36.572-36.571 36.572H36.57C16.343 219.429 0 203.086 0 182.857M512 475.43C512 495.657 495.657 512 475.429 512H36.57C16.343 512 0 495.657 0 475.429c0-20.229 16.343-36.572 36.571-36.572H475.43c20.228 0 36.571 16.343 36.571 36.572"/></svg>