<svg xmlns="http://www.w3.org/2000/svg" viewBox="0 0 512 512"><!--! Font Awesome Free 7.0.1 by @fontawesome - https://fontawesome.com License - https://fontawesome.com/license/free (Icons: CC BY 4.0, Fonts: SIL OFL 1.1, Code: MIT License) Copyright 2025 Fonticons, Inc.--><path fill="currentColor" d="M38.266 8.2C29.978 0 16.576 0 8.288 8.2s-8.2 21.69 0 29.977l465.535 465.535c8.288 8.288 21.69 8.288 29.89 0s8.287-21.69 0-29.89l-85.173-85.171c39.148-38.09 63.13-89.757 63.13-146.802 0-116.825-101.042-211.607-225.714-211.607-55.547 0-106.509 18.868-145.832 50.08zM55.37 144.862c-16.046 29.096-25.04 61.984-25.04 96.899 0 47.876 16.929 91.96 45.496 127.404l-43.027 81.38c-4.232 7.936-2.91 17.635 3.174 24.247 6.084 6.613 15.606 8.641 23.894 5.114l104.393-44.702c28.038 11.727 59.161 18.251 91.784 18.251 32.094 0 62.512-6.26 90.197-17.545L55.282 144.95z"/></svg>