<svg xmlns="http://www.w3.org/2000/svg" viewBox="0 0 512 512"><!--! Font Awesome Free 7.0.1 by @fontawesome - https://fontawesome.com License - https://fontawesome.com/license/free (Icons: CC BY 4.0, Fonts: SIL OFL 1.1, Code: MIT License) Copyright 2025 Fonticons, Inc.--><path fill="currentColor" d="m296.47 311.53 149.083-202.448-27.577-27.576L215.53 230.588zm-176 4.705v-67.482c0-14.4 6.777-27.859 18.354-36.33L395.859 22.966c6.965-5.177 15.435-7.906 24.094-7.906a40.39 40.39 0 0 1 28.612 11.859l51.576 51.576C507.765 86.118 512 96.376 512 107.2c0 8.659-2.73 17.13-7.906 24.094L314.73 388.235c-8.47 11.577-22.023 18.353-36.329 18.353h-67.482l-23.906 23.906c-11.765 11.765-30.87 11.765-42.636 0L96.66 382.776c-11.765-11.764-11.765-30.87 0-42.635zM6.589 453.93l48.66-48.658 66.446 66.447-18.541 18.54c-4.235 4.236-9.977 6.59-16 6.59l-64.565.093A22.534 22.534 0 0 1 0 474.353v-4.424c0-6.023 2.353-11.764 6.588-16"/></svg>