<svg xmlns="http://www.w3.org/2000/svg" viewBox="0 0 512 512"><!--! Font Awesome Free 7.0.1 by @fontawesome - https://fontawesome.com License - https://fontawesome.com/license/free (Icons: CC BY 4.0, Fonts: SIL OFL 1.1, Code: MIT License) Copyright 2025 Fonticons, Inc.--><path fill="currentColor" d="M42.667 369.778C19.11 369.778 0 350.667 0 327.11V184.89c0-23.556 19.111-42.667 42.667-42.667H64v92.445A21.28 21.28 0 0 0 85.333 256a21.28 21.28 0 0 0 21.334-21.333v-92.445h42.666v64a21.28 21.28 0 0 0 21.334 21.334A21.28 21.28 0 0 0 192 206.222v-64h42.667v92.445A21.28 21.28 0 0 0 256 256a21.28 21.28 0 0 0 21.333-21.333v-92.445H320v64a21.28 21.28 0 0 0 21.333 21.334 21.28 21.28 0 0 0 21.334-21.334v-64h42.666v92.445A21.28 21.28 0 0 0 426.667 256 21.28 21.28 0 0 0 448 234.667v-92.445h21.333c23.556 0 42.667 19.111 42.667 42.667V327.11c0 23.556-19.111 42.667-42.667 42.667z"/></svg>