<svg xmlns="http://www.w3.org/2000/svg" viewBox="0 0 512 512"><!--! Font Awesome Free 7.0.1 by @fontawesome - https://fontawesome.com License - https://fontawesome.com/license/free (Icons: CC BY 4.0, Fonts: SIL OFL 1.1, Code: MIT License) Copyright 2025 Fonticons, Inc.--><path fill="currentColor" d="M128 0C92.7 0 64 28.7 64 64v384c0 35.3 28.7 64 64 64h256c35.3 0 64-28.7 64-64V170.5c0-17-6.7-33.3-18.7-45.3L322.7 18.7C310.7 6.7 294.5 0 277.5 0zm261.5 176H296c-13.3 0-24-10.7-24-24V58.5zM128 384v-64c0-17.7 14.3-32 32-32h192c17.7 0 32 14.3 32 32v64c0 17.7-14.3 32-32 32H160c-17.7 0-32-14.3-32-32m24-320h48c13.3 0 24 10.7 24 24s-10.7 24-24 24h-48c-13.3 0-24-10.7-24-24s10.7-24 24-24m0 96h48c13.3 0 24 10.7 24 24s-10.7 24-24 24h-48c-13.3 0-24-10.7-24-24s10.7-24 24-24"/></svg>