<svg xmlns="http://www.w3.org/2000/svg" viewBox="0 0 512 512"><!--! Font Awesome Free 7.0.1 by @fontawesome - https://fontawesome.com License - https://fontawesome.com/license/free (Icons: CC BY 4.0, Fonts: SIL OFL 1.1, Code: MIT License) Copyright 2025 Fonticons, Inc.--><path fill="currentColor" d="M289.914 119.124v223.304c0 18.76-15.155 33.915-33.914 33.915s-33.914-15.156-33.914-33.915V119.124l-43.877 43.877c-13.248 13.247-34.762 13.247-48.01 0s-13.248-34.763 0-48.01L231.942 13.248C245.19 0 266.704 0 279.952 13.248L381.695 114.99c13.248 13.247 13.248 34.762 0 48.01s-34.762 13.247-48.01 0zM256 427.214c46.844 0 84.786-37.941 84.786-84.786h84.786c37.411 0 67.828 30.417 67.828 67.83v33.913c0 37.412-30.417 67.829-67.828 67.829H86.428C49.017 512 18.6 481.583 18.6 444.171v-33.914c0-37.412 30.417-67.829 67.828-67.829h84.786c0 46.845 37.942 84.786 84.786 84.786m152.614 25.436a25.375 25.375 0 0 0 25.436-25.436 25.375 25.375 0 0 0-25.436-25.435 25.375 25.375 0 0 0-25.435 25.435 25.375 25.375 0 0 0 25.435 25.436"/></svg>