<svg xmlns="http://www.w3.org/2000/svg" viewBox="0 0 512 512"><!--! Font Awesome Free 7.0.1 by @fontawesome - https://fontawesome.com License - https://fontawesome.com/license/free (Icons: CC BY 4.0, Fonts: SIL OFL 1.1, Code: MIT License) Copyright 2025 Fonticons, Inc.--><path fill="currentColor" d="M84.646 237.008c0 93.533 75.757 169.29 169.29 169.29 30.579 0 59.253-8.146 84.012-22.324l-76.182-91.418c-11.956-14.39-10.051-35.762 4.339-47.719 14.39-11.956 35.762-10.051 47.719 4.338l75.017 90.042c21.584-28.356 34.387-63.801 34.387-102.21 0-93.533-75.758-169.29-169.291-169.29-93.534 0-169.291 75.757-169.291 169.29M381.857 436.56c-36.926 23.7-80.836 37.455-127.92 37.455-130.883 0-237.008-106.124-237.008-237.007S123.054 0 253.937 0s237.007 106.124 237.007 237.008c0 59.357-21.796 113.636-57.876 155.218l50.047 60.099c11.956 14.39 10.051 35.763-4.338 47.719-14.39 11.956-35.763 10.051-47.72-4.338l-49.305-59.146z"/></svg>