<svg xmlns="http://www.w3.org/2000/svg" viewBox="0 0 512 512"><!--! Font Awesome Free 7.0.1 by @fontawesome - https://fontawesome.com License - https://fontawesome.com/license/free (Icons: CC BY 4.0, Fonts: SIL OFL 1.1, Code: MIT License) Copyright 2025 Fonticons, Inc.--><path fill="currentColor" d="M232.178 61.592c-106.818 0-193.482 86.663-193.482 193.48 0 106.819 86.664 193.482 193.482 193.482 5.965 0 15.881-1.854 27.168-5.885 11.125-3.95 21.847-9.432 29.586-15.236 30.957-23.38 72.959-23.38 103.996 0 12.415 9.351 28.458 17.01 44.34 19.67 15.72 2.66 29.828.323 41.195-8.223 8.546-6.45 20.638-4.756 27.088 3.79s4.756 20.637-3.79 27.087c-22.008 16.526-47.725 19.348-70.862 15.478-22.976-3.87-44.662-14.511-61.188-26.926-17.172-12.98-40.228-12.98-57.4 0-11.69 8.787-26.12 15.882-39.905 20.8-13.544 4.836-28.136 8.142-40.228 8.142h-.081C103.916 487.17 0 383.254 0 255.073 0 126.81 103.916 22.895 232.178 22.895a19.3 19.3 0 0 1 19.348 19.348 19.3 19.3 0 0 1-19.348 19.349m36.116 134.147 77.393-58.045c9.19-6.852 21.847-6.852 31.037 0l76.99 58.045c6.45 4.837 10.238 12.495 10.238 20.557l.242 97.95c-1.774 1.048-3.467 2.096-5.16 3.386-3.466 2.499-7.013.645-10.641-1.21l-.967-.483-.565-.242q-6.53-3.265-15.236-9.432c-23.782-17.01-51.837-25.475-79.892-25.314-27.49.161-54.9 8.626-78.199 25.314-6.288 4.514-11.125 7.497-15.559 9.029v-98.917c0-8.143 3.79-15.801 10.32-20.638m44.017 185.177c-11.69 8.788-26.12 15.882-39.905 20.8-13.544 4.837-28.136 8.142-40.228 8.142-85.455 0-154.785-69.33-154.785-154.785 0-85.454 69.33-154.785 154.785-154.785a19.3 19.3 0 0 1 19.348 19.348 19.3 19.3 0 0 1-19.348 19.348c-64.091 0-116.09 51.998-116.09 116.089 0 64.09 51.999 116.089 116.09 116.089 5.965 0 15.881-1.854 27.168-5.885 11.125-3.95 21.847-9.433 29.586-15.237 30.957-23.379 72.959-23.379 103.996 0 12.415 9.352 28.458 17.01 44.34 19.67 15.72 2.661 29.828.323 41.195-8.222 8.546-6.45 20.638-4.757 27.088 3.789s4.756 20.638-3.79 27.087c-22.008 16.527-47.725 19.348-70.862 15.479-22.976-3.87-44.662-14.512-61.188-26.927-17.172-12.979-40.228-12.979-57.4 0"/></svg>