<svg xmlns="http://www.w3.org/2000/svg" viewBox="0 0 512 512"><!--! Font Awesome Free 7.0.1 by @fontawesome - https://fontawesome.com License - https://fontawesome.com/license/free (Icons: CC BY 4.0, Fonts: SIL OFL 1.1, Code: MIT License) Copyright 2025 Fonticons, Inc.--><path fill="currentColor" d="M327.111 113.778c23.556 0 42.667-19.111 42.667-42.667 0-23.555-19.111-42.667-42.667-42.667-23.555 0-42.667 19.112-42.667 42.667s19.112 42.667 42.667 42.667m24.178 56.889-54.933-43.378c-15.378-12.089-37.067-12.267-52.534-.267l-73.866 57.067c-27.29 21.155-25.334 62.933 3.822 81.422l53.778 34.133v98.578c0 15.734 12.71 28.445 28.444 28.445s28.444-12.711 28.444-28.445V284.444c0-9.51-4.71-18.4-12.622-23.644l-38.044-25.333 53.6-43.111 36.178 28.977c5.066 4 11.288 6.223 17.777 6.223h56.89c15.733 0 28.444-12.712 28.444-28.445s-12.711-28.444-28.445-28.444zM99.556 483.556c55.022 0 99.555-44.534 99.555-99.556s-44.533-99.556-99.555-99.556S0 328.978 0 384s44.533 99.556 99.556 99.556m312.888 0C467.467 483.556 512 439.022 512 384s-44.533-99.556-99.556-99.556S312.89 328.978 312.89 384s44.533 99.556 99.555 99.556"/></svg>