<svg xmlns="http://www.w3.org/2000/svg" viewBox="0 0 512 512"><!--! Font Awesome Free 7.0.1 by @fontawesome - https://fontawesome.com License - https://fontawesome.com/license/free (Icons: CC BY 4.0, Fonts: SIL OFL 1.1, Code: MIT License) Copyright 2025 Fonticons, Inc.--><path fill="currentColor" d="M64 32v101.5c0 17 6.7 33.3 18.7 45.3L128 224v160l-56.2 70.3c-5.1 6.3-7.8 14.1-7.8 22.2 0 19.6 15.9 35.5 35.5 35.5h312.9c19.6 0 35.5-15.9 35.5-35.5 0-8.1-2.7-15.9-7.8-22.2L383.9 384V224l45.3-45.3c12-12 18.7-28.3 18.7-45.3L448 32c0-17.7-14.3-32-32-32h-32c-17.7 0-32 14.3-32 32v32h-48V32c0-17.7-14.3-32-32-32h-32c-17.7 0-32 14.3-32 32v32h-48V32c0-17.7-14.3-32-32-32H96C78.3 0 64 14.3 64 32"/></svg>