<svg xmlns="http://www.w3.org/2000/svg" viewBox="0 0 512 512"><!--! Font Awesome Free 7.0.1 by @fontawesome - https://fontawesome.com License - https://fontawesome.com/license/free (Icons: CC BY 4.0, Fonts: SIL OFL 1.1, Code: MIT License) Copyright 2025 Fonticons, Inc.--><path fill="currentColor" d="M295.984 39.984C295.984 17.893 278.091 0 256 0s-39.984 17.893-39.984 39.984c0 44.083-53.28 66.075-84.467 34.987-15.594-15.594-40.884-15.594-56.578 0s-15.594 40.884 0 56.578c31.188 31.187 9.096 84.467-34.987 84.467C17.893 216.016 0 233.909 0 256s17.893 39.984 39.984 39.984c44.083 0 66.075 53.28 34.987 84.467-15.594 15.594-15.594 40.884 0 56.578s40.884 15.594 56.578 0c31.187-31.188 84.467-9.096 84.467 34.987C216.016 494.107 233.909 512 256 512s39.984-17.893 39.984-39.984c0-44.083 53.28-66.075 84.467-34.987 15.594 15.594 40.884 15.594 56.578 0s15.594-40.884 0-56.578c-31.188-31.187-9.096-84.467 34.987-84.467C494.107 295.984 512 278.091 512 256s-17.893-39.984-39.984-39.984c-44.083 0-66.075-53.28-34.987-84.467 15.594-15.594 15.594-40.884 0-56.578s-40.884-15.594-56.578 0c-31.187 31.088-84.467 9.096-84.467-34.987M160.037 223.913c0-17.694 14.295-31.988 31.988-31.988s31.987 14.294 31.987 31.988-14.294 31.987-31.987 31.987-31.988-14.294-31.988-31.987M319.975 255.9c17.693 0 31.988 14.294 31.988 31.988s-14.295 31.987-31.988 31.987-31.987-14.294-31.987-31.987c0-17.694 14.294-31.988 31.987-31.988"/></svg>