<svg xmlns="http://www.w3.org/2000/svg" viewBox="0 0 512 512"><!--! Font Awesome Free 7.0.1 by @fontawesome - https://fontawesome.com License - https://fontawesome.com/license/free (Icons: CC BY 4.0, Fonts: SIL OFL 1.1, Code: MIT License) Copyright 2025 Fonticons, Inc.--><path fill="currentColor" d="M197.708 81.934a20.434 20.434 0 0 1-20.484-20.484V20.483A20.434 20.434 0 0 1 197.708 0a20.434 20.434 0 0 1 20.483 20.483V61.45a20.434 20.434 0 0 1-20.483 20.484M27.013 170.695a20.434 20.434 0 0 1 20.483-20.483h40.967a20.434 20.434 0 0 1 20.483 20.483 20.434 20.434 0 0 1-20.483 20.484H47.496a20.434 20.434 0 0 1-20.483-20.484m78.946 120.682c-8.023 8.022-20.996 8.022-28.933 0s-8.022-20.996 0-28.933l28.933-28.933c8.023-8.023 20.995-8.023 28.933 0s8.022 20.995 0 28.933zM77.026 50.014c8.023-8.023 20.996-8.023 28.933 0l28.933 28.932c8.022 8.023 8.022 20.996 0 28.933s-20.996 8.023-28.933 0L77.026 78.946c-8.022-8.022-8.022-20.995 0-28.932m247.337-29.616c26.373 0 47.795 21.422 47.795 47.795 0 26.372-21.422 47.794-47.795 47.794-26.372 0-47.794-21.422-47.794-47.794 0-26.373 21.422-47.795 47.794-47.795m107.794 282.586-39.516-53.257v234.962c0 15.106-12.204 27.311-27.31 27.311-15.107 0-27.312-12.205-27.312-27.311V348.133c0-7.51-6.145-13.656-13.656-13.656-7.51 0-13.655 6.145-13.655 13.656v136.556c0 15.106-12.205 27.311-27.311 27.311s-27.312-12.205-27.312-27.311V249.727l-39.516 53.257c-8.961 12.12-26.116 14.68-38.235 5.633s-14.68-26.117-5.633-38.236l60.17-81.08c21.507-28.933 55.476-46.002 91.492-46.002s69.985 17.07 91.493 46.002l60.17 81.08c8.961 12.12 6.486 29.189-5.633 38.236s-29.189 6.486-38.236-5.633"/></svg>