<svg xmlns="http://www.w3.org/2000/svg" viewBox="0 0 512 512"><!--! Font Awesome Free 7.0.1 by @fontawesome - https://fontawesome.com License - https://fontawesome.com/license/free (Icons: CC BY 4.0, Fonts: SIL OFL 1.1, Code: MIT License) Copyright 2025 Fonticons, Inc.--><path fill="currentColor" d="M137.745 54.303C137.745 24.339 162.085 0 192.048 0c29.964 0 54.304 24.34 54.304 54.303 0 29.964-24.34 54.303-54.304 54.303-29.963 0-54.303-24.34-54.303-54.303m-17.551 152.824 12.218 61.091c-37.43 12.024-64.485 47.224-64.485 88.63 0 51.394 41.697 93.091 93.091 93.091 34.521 0 64.679-18.812 80.776-46.739 2.23.097 4.46.194 6.788.194h60.509C289.309 466.327 230.545 512 161.018 512 75.297 512 5.867 442.57 5.867 356.848c0-71.563 48.485-131.781 114.327-149.72M264.29 179.88l22.982 114.909h58.666c32.291 0 61.285 20.073 72.63 50.327l24.728 65.94 18.133-6.013c16.291-5.43 33.843 3.394 39.273 19.588s-3.394 33.843-19.588 39.273l-46.545 15.515c-15.806 5.237-32.97-2.909-38.885-18.521l-35.2-93.964c-2.23-6.012-8.049-10.085-14.546-10.085h-97.454c-29.576 0-55.079-20.848-60.897-49.842l-21.43-107.54c-6.206-30.933 17.454-59.83 49.066-59.83 23.855 0 44.412 16.873 49.067 40.243"/></svg>