<svg xmlns="http://www.w3.org/2000/svg" viewBox="0 0 512 512"><!--! Font Awesome Free 7.0.1 by @fontawesome - https://fontawesome.com License - https://fontawesome.com/license/free (Icons: CC BY 4.0, Fonts: SIL OFL 1.1, Code: MIT License) Copyright 2025 Fonticons, Inc.--><path fill="currentColor" d="M60.235 0C27.012 0 0 27.012 0 60.235v361.412c0 33.224 27.012 60.235 60.235 60.235h169.412c-9.882-13.74-17.882-28.894-23.623-45.176h-70.495v-75.294c0-16.66 13.46-30.118 30.118-30.118h30.118c1.882 0 3.764.188 5.553.47 5.647-22.211 15.34-42.729 28.33-60.705h-3.766c-8.282 0-15.058-6.777-15.058-15.059v-30.118c0-8.282 6.776-15.058 15.058-15.058H256c8.282 0 15.059 6.776 15.059 15.058v3.765c25.882-18.635 56.753-30.494 90.353-33.318V60.235C361.412 27.012 334.4 0 301.176 0zm30.118 105.412c0-8.283 6.776-15.06 15.059-15.06h30.117c8.283 0 15.06 6.777 15.06 15.06v30.117c0 8.283-6.777 15.06-15.06 15.06h-30.117c-8.283 0-15.06-6.777-15.06-15.06zm135.53-15.06H256c8.282 0 15.059 6.777 15.059 15.06v30.117c0 8.283-6.777 15.06-15.059 15.06h-30.118c-8.282 0-15.058-6.777-15.058-15.06v-30.117c0-8.283 6.776-15.06 15.058-15.06m-135.53 135.53c0-8.282 6.776-15.058 15.059-15.058h30.117c8.283 0 15.06 6.776 15.06 15.058V256c0 8.282-6.777 15.059-15.06 15.059h-30.117c-8.283 0-15.06-6.777-15.06-15.059zM376.47 512C451.294 512 512 451.294 512 376.47c0-74.823-60.706-135.529-135.53-135.529-74.823 0-135.529 60.706-135.529 135.53 0 74.823 60.706 135.529 135.53 135.529m0-94.118c10.353 0 18.823 8.47 18.823 18.824 0 10.353-8.47 18.823-18.823 18.823s-18.824-8.47-18.824-18.823 8.47-18.824 18.824-18.824m0-131.764c8.282 0 15.058 6.776 15.058 15.058v75.295c0 8.282-6.776 15.058-15.058 15.058s-15.06-6.776-15.06-15.058v-75.295c0-8.282 6.777-15.058 15.06-15.058"/></svg>