<svg xmlns="http://www.w3.org/2000/svg" viewBox="0 0 512 512"><!--! Font Awesome Free 7.0.1 by @fontawesome - https://fontawesome.com License - https://fontawesome.com/license/free (Icons: CC BY 4.0, Fonts: SIL OFL 1.1, Code: MIT License) Copyright 2025 Fonticons, Inc.--><path fill="currentColor" d="M511.95 258.85a298.7 298.7 0 0 1-72.586 15.096c5.899-98.58-30.694-191.062-94.881-258.25C442.263 51.69 511.95 145.673 511.95 255.95zm-5.899 51.99c-5.199 23.695-13.597 46.19-24.895 66.886-94.681 52.19-213.958 49.99-308.34-13.597 21.696-31.294 49.79-58.889 83.784-80.484 79.484 41.591 168.467 49.09 249.451 27.094zm-226.356-69.287c-3.699-89.683-41.691-170.467-101.28-229.655C200.711 4.799 224.406.7 248.901 0c92.482 55.89 150.271 160.269 142.373 273.747-37.993-3.2-75.886-13.698-111.579-32.294zm-149.17-208.76c18.596 16.297 35.293 34.894 49.39 55.39C91.532 132.274 29.745 210.259 3.749 299.442 1.35 285.244.05 270.747.05 255.95c0-95.781 52.59-179.265 130.475-223.156m73.385 96.982c16.297 34.493 26.095 72.585 27.895 112.778-75.785 47.99-126.776 121.276-148.271 202.46-17.597-16.097-32.994-34.593-45.491-54.99 2.1-108.078 63.687-210.358 165.867-260.248M256 511.9c-47.69 0-92.282-12.997-130.475-35.693a301.2 301.2 0 0 1 23.196-70.386c82.384 54.39 180.765 68.886 270.947 46.99C375.277 489.805 318.188 512 256 512z"/></svg>