<svg xmlns="http://www.w3.org/2000/svg" viewBox="0 0 512 512"><!--! Font Awesome Free 7.0.1 by @fontawesome - https://fontawesome.com License - https://fontawesome.com/license/free (Icons: CC BY 4.0, Fonts: SIL OFL 1.1, Code: MIT License) Copyright 2025 Fonticons, Inc.--><path fill="currentColor" d="M136.094 24.188C138.918 10.165 151.247 0 165.647 0h180.706c14.4 0 26.73 10.165 29.553 24.188l27.67 138.636c1.977 9.882 3.012 19.952 3.012 30.117v2.824c0 72.847-51.764 133.647-120.47 147.576v108.424h60.235c16.659 0 30.118 13.459 30.118 30.117 0 16.66-13.46 30.118-30.118 30.118H165.647c-16.659 0-30.118-13.459-30.118-30.118s13.46-30.117 30.118-30.117h60.235V343.34c-68.706-13.93-120.47-74.73-120.47-147.576v-2.824c0-10.07 1.035-20.141 3.012-30.117zm42.165 96.283h155.388L321.6 60.235H190.306z"/></svg>