<svg xmlns="http://www.w3.org/2000/svg" viewBox="0 0 512 512"><!--! Font Awesome Free 7.0.1 by @fontawesome - https://fontawesome.com License - https://fontawesome.com/license/free (Icons: CC BY 4.0, Fonts: SIL OFL 1.1, Code: MIT License) Copyright 2025 Fonticons, Inc.--><path fill="currentColor" d="M202.39 30.83h-67.112c-25.859 0-48.464 17.679-54.621 42.746L6.597 372.544C0 399.107 20.142 424.878 47.585 424.878h184.183c-9.851-21.461-15.305-45.21-15.305-70.366s5.454-48.992 15.305-70.366h-1.32c-15.568 0-28.146-12.578-28.146-28.146v-56.293c0-15.568 12.578-28.146 28.146-28.146s28.147 12.578 28.147 28.146v43.1c30.96-35.096 76.259-57.173 126.658-57.173 7.917 0 15.657.528 23.31 1.583l-28.147-113.64c-6.157-25.068-28.674-42.748-54.622-42.748h-67.2v56.293c0 15.568-12.577 28.146-28.146 28.146-15.568 0-28.146-12.578-28.146-28.146V30.829zm182.951 450.34C455.267 481.17 512 424.439 512 354.513s-56.733-126.658-126.659-126.658-126.658 56.732-126.658 126.658 56.732 126.659 126.658 126.659m0-87.956c9.676 0 17.592 7.916 17.592 17.591s-7.916 17.591-17.592 17.591-17.591-7.916-17.591-17.591 7.916-17.591 17.591-17.591m0-123.14c7.74 0 14.074 6.332 14.074 14.072v70.366c0 7.74-6.333 14.073-14.074 14.073s-14.073-6.332-14.073-14.073v-70.366c0-7.74 6.333-14.073 14.073-14.073"/></svg>