<svg xmlns="http://www.w3.org/2000/svg" viewBox="0 0 512 512"><!--! Font Awesome Free 7.0.1 by @fontawesome - https://fontawesome.com License - https://fontawesome.com/license/free (Icons: CC BY 4.0, Fonts: SIL OFL 1.1, Code: MIT License) Copyright 2025 Fonticons, Inc.--><path fill="currentColor" d="M201.143 0a27.363 27.363 0 0 1 27.428 27.429v47.428A218 218 0 0 1 256 73.143q13.886 0 27.429 1.714V27.43A27.363 27.363 0 0 1 310.857 0a27.363 27.363 0 0 1 27.429 27.429v61.714C405.6 116.343 456.229 176 471.086 248.8c4 19.771-8.8 39.086-28.572 43.086s-39.085-8.8-43.085-28.572c-7.658-37.943-30.172-70.628-61.029-91.657v93.486a27.363 27.363 0 0 1-27.429 27.428 27.363 27.363 0 0 1-27.428-27.428V148.8c-8.914-1.714-18.057-2.514-27.429-2.514s-18.514.914-27.428 2.514l-.115 116.343a27.363 27.363 0 0 1-27.428 27.428 27.363 27.363 0 0 1-27.429-27.428v-93.486c-38.628 26.286-64 70.743-64 120.914 0 80.8 65.486 146.286 146.286 146.286h182.857c20.229 0 36.572 16.343 36.572 36.572 0 20.228-16.343 36.571-36.572 36.571H73.143c-20.229 0-36.572-16.343-36.572-36.571 0-20.229 16.343-36.572 36.572-36.572h19.314C57.714 400 36.571 348.8 36.571 292.571c0-92.114 56.686-170.971 137.143-203.428V27.429A27.363 27.363 0 0 1 201.143 0"/></svg>