<svg xmlns="http://www.w3.org/2000/svg" viewBox="0 0 512 512"><!--! Font Awesome Free 7.0.1 by @fontawesome - https://fontawesome.com License - https://fontawesome.com/license/free (Icons: CC BY 4.0, Fonts: SIL OFL 1.1, Code: MIT License) Copyright 2025 Fonticons, Inc.--><path fill="currentColor" d="m104.1 467.1-11.2 9c-3.2 2.5-7.1 3.9-11.1 3.9-9.8 0-17.8-8-17.8-17.8V192C64 86 150 0 256 0s192 86 192 192v270.2c0 9.8-8 17.8-17.8 17.8-4 0-7.9-1.4-11.1-3.9l-11.2-9c-13.4-10.7-32.8-9-44.1 3.9l-30.5 35c-3.3 3.8-8.2 6-13.3 6s-9.9-2.2-13.3-6l-26.6-30.5c-12.7-14.6-35.4-14.6-48.2 0L205.3 506c-3.3 3.8-8.2 6-13.3 6s-9.9-2.2-13.3-6l-30.5-35c-11.3-12.9-30.7-14.6-44.1-3.9M224 192c0-17.7-14.3-32-32-32s-32 14.3-32 32 14.3 32 32 32 32-14.3 32-32m96 32c17.7 0 32-14.3 32-32s-14.3-32-32-32-32 14.3-32 32 14.3 32 32 32"/></svg>