<svg xmlns="http://www.w3.org/2000/svg" viewBox="0 0 512 512"><!--! Font Awesome Free 7.0.1 by @fontawesome - https://fontawesome.com License - https://fontawesome.com/license/free (Icons: CC BY 4.0, Fonts: SIL OFL 1.1, Code: MIT License) Copyright 2025 Fonticons, Inc.--><path fill="currentColor" d="M249.769 98.149c7.07-24.129 29.166-40.745 54.267-40.745H480.8c15.644 0 28.282 12.64 28.282 28.283s-12.638 28.282-28.282 28.282H304.036L210.969 433.03c-3.182 10.871-12.462 18.737-23.686 20.151s-22.184-4.065-27.84-13.787l-90.858-155.73H28.282C12.64 283.664 0 271.025 0 255.38 0 239.738 12.639 227.1 28.282 227.1h40.303c20.151 0 38.711 10.694 48.875 28.106l57.626 98.811L249.68 98.15zm97.928 137.258c11.048-11.048 28.99-11.048 40.037 0l36.59 36.59 36.59-36.59c11.049-11.048 28.99-11.048 40.038 0s11.048 28.99 0 40.037l-36.59 36.59 36.59 36.59c11.048 11.049 11.048 28.99 0 40.038s-28.99 11.048-40.037 0l-36.59-36.59-36.59 36.59c-11.049 11.048-28.99 11.048-40.038 0s-11.048-28.99 0-40.037l36.59-36.59-36.59-36.59c-11.048-11.049-11.048-28.99 0-40.038"/></svg>