<svg xmlns="http://www.w3.org/2000/svg" viewBox="0 0 512 512"><!--! Font Awesome Free 7.0.1 by @fontawesome - https://fontawesome.com License - https://fontawesome.com/license/free (Icons: CC BY 4.0, Fonts: SIL OFL 1.1, Code: MIT License) Copyright 2025 Fonticons, Inc.--><path fill="currentColor" d="M398.222 240.044v-69.422h14.222l8.712 17.422c11.11 22.312 37.51 32.356 60.71 23.112A47.9 47.9 0 0 0 512 166.622v-67.11c0-16.979-7.467-32.268-19.289-42.668h5.067c7.822 0 14.222-6.4 14.222-14.222S505.6 28.4 497.778 28.4h-99.556c-62.844 0-113.778 50.933-113.778 113.778H132.267c-27.29 0-51.2 14.489-64.445 36.266C29.512 183.511 0 216.311 0 255.956v49.777a21.28 21.28 0 0 0 21.333 21.334 21.28 21.28 0 0 0 21.334-21.334v-49.777c0-11.912 5.866-22.4 14.844-28.89 1.422 11.556 5.6 22.578 12.089 32.356l25.067 37.69c7.377 11.021 5.689 25.51-1.067 36.977-14.667 24.889-18.311 55.289-8.889 83.467l15.556 46.577c3.91 11.645 14.755 19.467 27.022 19.467h29.955c19.378 0 33.156-19.022 27.023-37.422l-18.49-55.556c-1.866-5.689-.444-11.91 3.823-16.178l11.289-11.288a62.5 62.5 0 0 0 18.311-44.178q0-3.068-.267-6.134l74.667 21.334c3.644 1.066 7.289 1.866 10.933 2.489l-.089 118.4c0 15.733 12.712 28.444 28.445 28.444h28.444c15.734 0 28.445-12.711 28.445-28.444V309.022c17.066-17.066 28-40.622 28.444-67.289zM440.89 85.29c7.822 0 14.222 6.4 14.222 14.222s-6.4 14.222-14.222 14.222-14.222-6.4-14.222-14.222 6.4-14.222 14.222-14.222"/></svg>