<svg xmlns="http://www.w3.org/2000/svg" viewBox="0 0 512 512"><!--! Font Awesome Free 7.0.1 by @fontawesome - https://fontawesome.com License - https://fontawesome.com/license/free (Icons: CC BY 4.0, Fonts: SIL OFL 1.1, Code: MIT License) Copyright 2025 Fonticons, Inc.--><path fill="currentColor" d="M73.143 146.286h73.143V73.143H73.143zM0 54.857C0 24.571 24.571 0 54.857 0h109.714c30.286 0 54.858 24.571 54.858 54.857v109.714c0 30.286-24.572 54.858-54.858 54.858H54.857C24.571 219.429 0 194.857 0 164.57zm73.143 384h73.143v-73.143H73.143zM0 347.43c0-30.286 24.571-54.858 54.857-54.858h109.714c30.286 0 54.858 24.572 54.858 54.858v109.714c0 30.286-24.572 54.857-54.858 54.857H54.857C24.571 512 0 487.429 0 457.143zM365.714 73.143v73.143h73.143V73.143zM347.43 0h109.714C487.429 0 512 24.571 512 54.857v109.714c0 30.286-24.571 54.858-54.857 54.858H347.429c-30.286 0-54.858-24.572-54.858-54.858V54.857C292.571 24.571 317.143 0 347.43 0m-18.286 365.714c-20.229 0-36.572-16.343-36.572-36.571 0-20.229 16.343-36.572 36.572-36.572 20.228 0 36.571 16.343 36.571 36.572 0 20.228-16.343 36.571-36.571 36.571m0 73.143c20.228 0 36.571 16.343 36.571 36.572 0 20.228-16.343 36.571-36.571 36.571-20.229 0-36.572-16.343-36.572-36.571 0-20.229 16.343-36.572 36.572-36.572m109.714 36.572c0-20.229 16.343-36.572 36.572-36.572 20.228 0 36.571 16.343 36.571 36.572C512 495.657 495.657 512 475.429 512c-20.229 0-36.572-16.343-36.572-36.571m36.572-109.715c-20.229 0-36.572-16.343-36.572-36.571 0-20.229 16.343-36.572 36.572-36.572 20.228 0 36.571 16.343 36.571 36.572 0 20.228-16.343 36.571-36.571 36.571m-36.572 36.572c0 20.228-16.343 36.571-36.571 36.571-20.229 0-36.572-16.343-36.572-36.571 0-20.229 16.343-36.572 36.572-36.572 20.228 0 36.571 16.343 36.571 36.572"/></svg>