<svg xmlns="http://www.w3.org/2000/svg" viewBox="0 0 512 512"><!--! Font Awesome Free 7.0.1 by @fontawesome - https://fontawesome.com License - https://fontawesome.com/license/free (Icons: CC BY 4.0, Fonts: SIL OFL 1.1, Code: MIT License) Copyright 2025 Fonticons, Inc.--><path fill="currentColor" d="M512 142.222c0-31.378-25.511-56.889-56.889-56.889H182.49c-15.111 0-29.6 5.956-40.267 16.623L8.356 235.91C3.022 241.244 0 248.444 0 256s3.022 14.756 8.356 20.089l133.866 133.955c10.667 10.667 25.156 16.623 40.267 16.623H455.11c31.378 0 56.889-25.511 56.889-56.89zm-259.467 53.422c8.356-8.355 21.867-8.355 30.134 0l30.133 30.134 30.133-30.134c8.356-8.355 21.867-8.355 30.134 0s8.355 21.867 0 30.134l-30.134 30.133 30.134 30.133c8.355 8.356 8.355 21.867 0 30.134s-21.867 8.355-30.134 0L312.8 286.044l-30.133 30.134c-8.356 8.355-21.867 8.355-30.134 0s-8.355-21.867 0-30.134l30.134-30.133-30.134-30.133c-8.355-8.356-8.355-21.867 0-30.134"/></svg>