<svg xmlns="http://www.w3.org/2000/svg" viewBox="0 0 512 512"><!--! Font Awesome Free 7.0.1 by @fontawesome - https://fontawesome.com License - https://fontawesome.com/license/free (Icons: CC BY 4.0, Fonts: SIL OFL 1.1, Code: MIT License) Copyright 2025 Fonticons, Inc.--><path fill="currentColor" d="M206.005 49.995C206.005 22.408 228.414 0 256 0s49.995 22.408 49.995 49.995v113.649l154.984 142.128c5.892 5.445 9.284 13.034 9.284 21.069v39.014c0 9.73-9.552 16.605-18.837 13.57l-145.431-48.477v89.008l58.922 47.138c3.393 2.678 5.357 6.785 5.357 11.16v17.676c0 9.285-8.75 16.07-17.766 13.838L256 485.663l-96.508 24.105c-9.017 2.232-17.766-4.553-17.766-13.838v-17.676c0-4.375 1.964-8.482 5.357-11.16l58.922-47.138v-89.008L60.574 379.425c-9.285 3.035-18.837-3.84-18.837-13.57V326.84c0-8.035 3.392-15.624 9.284-21.07l154.984-142.127z"/></svg>