<svg xmlns="http://www.w3.org/2000/svg" viewBox="0 0 512 512"><!--! Font Awesome Free 7.0.1 by @fontawesome - https://fontawesome.com License - https://fontawesome.com/license/free (Icons: CC BY 4.0, Fonts: SIL OFL 1.1, Code: MIT License) Copyright 2025 Fonticons, Inc.--><path fill="currentColor" d="M36.571 0C16.343 0 0 16.343 0 36.571v109.715c0 20.228 16.343 36.571 36.571 36.571 20.229 0 36.572-16.343 36.572-36.571V73.143h73.143c20.228 0 36.571-16.343 36.571-36.572C182.857 16.343 166.514 0 146.286 0zm36.572 365.714c0-20.228-16.343-36.571-36.572-36.571C16.343 329.143 0 345.486 0 365.714V475.43C0 495.657 16.343 512 36.571 512h109.715c20.228 0 36.571-16.343 36.571-36.571 0-20.229-16.343-36.572-36.571-36.572H73.143zM365.714 0c-20.228 0-36.571 16.343-36.571 36.571 0 20.229 16.343 36.572 36.571 36.572h73.143v73.143c0 20.228 16.343 36.571 36.572 36.571 20.228 0 36.571-16.343 36.571-36.571V36.57C512 16.343 495.657 0 475.429 0zM512 365.714c0-20.228-16.343-36.571-36.571-36.571-20.229 0-36.572 16.343-36.572 36.571v73.143h-73.143c-20.228 0-36.571 16.343-36.571 36.572 0 20.228 16.343 36.571 36.571 36.571H475.43C495.657 512 512 495.657 512 475.429z"/></svg>