<svg xmlns="http://www.w3.org/2000/svg" viewBox="0 0 512 512"><!--! Font Awesome Free 7.0.1 by @fontawesome - https://fontawesome.com License - https://fontawesome.com/license/free (Icons: CC BY 4.0, Fonts: SIL OFL 1.1, Code: MIT License) Copyright 2025 Fonticons, Inc.--><path fill="currentColor" d="M390.095 33.132c12.713 0 25.078 1.393 37.007 4.092 6.444 1.48 11.32 6.792 12.103 13.41.784 6.618-2.612 12.974-8.533 15.935-39.532 19.679-66.7 60.517-66.7 107.624 0 66.351 53.813 120.163 120.164 120.163 3.222 0 6.444-.087 9.665-.348 6.618-.522 12.8 3.135 15.5 9.23a15.86 15.86 0 0 1-3.396 17.763c-22.64 21.77-51.461 37.181-83.505 43.45-9.665-22.03-26.297-40.315-47.107-52.07-6.618-55.205-53.639-98.046-110.673-98.046-9.752 0-19.243 1.306-28.299 3.657-4.18-3.657-8.62-7.14-13.235-10.275-.087-2.438-.174-4.876-.174-7.314 0-92.3 74.884-167.184 167.183-167.184zm-.087 376.076c0 38.487-31.173 69.66-69.66 69.66H83.592C37.442 478.868 0 441.426 0 395.276c0-41.447 30.128-75.755 69.66-82.373-.348-45.975 37.355-84.723 83.592-84.723 30.389 0 56.947 16.196 71.575 40.402 11.32-7.923 25.078-12.538 39.88-12.538 38.488 0 69.66 31.172 69.66 69.66 0 5.137-.522 10.187-1.654 14.976 32.566 5.834 57.295 34.308 57.295 68.528"/></svg>