<svg xmlns="http://www.w3.org/2000/svg" viewBox="0 0 512 512"><!--! Font Awesome Free 7.0.1 by @fontawesome - https://fontawesome.com License - https://fontawesome.com/license/free (Icons: CC BY 4.0, Fonts: SIL OFL 1.1, Code: MIT License) Copyright 2025 Fonticons, Inc.--><path fill="currentColor" d="M336.181 217.737c10.249-2.773 21.001 2.1 25.621 11.592l15.625 31.585c8.652 1.176 17.136 3.528 25.117 6.804l29.4-19.572a22.14 22.14 0 0 1 27.974 2.772l16.129 16.128c7.476 7.477 8.652 19.237 2.772 27.974l-19.573 29.317a112 112 0 0 1 4.2 12.348c1.176 4.284 1.932 8.484 2.52 12.769l31.67 15.624c9.492 4.704 14.364 15.457 11.592 25.621l-5.88 22.01c-2.772 10.164-12.265 17.052-22.85 16.38l-35.28-2.268c-5.293 6.804-11.425 13.104-18.397 18.48l2.268 35.198c.672 10.584-6.216 20.16-16.38 22.849l-22.01 5.88c-10.248 2.772-20.917-2.1-25.62-11.593l-15.625-31.585c-8.653-1.176-17.137-3.528-25.117-6.804l-29.401 19.573a22.14 22.14 0 0 1-27.974-2.772l-16.128-16.129a22.14 22.14 0 0 1-2.772-27.973l19.572-29.401a112 112 0 0 1-4.2-12.349c-1.176-4.284-1.932-8.568-2.52-12.768l-31.669-15.625c-9.492-4.704-14.28-15.456-11.592-25.62l5.88-22.01c2.772-10.164 12.264-17.052 22.849-16.38l35.197 2.268c5.292-6.805 11.424-13.105 18.397-18.481l-2.268-35.113c-.672-10.585 6.216-20.161 16.38-22.85l22.01-5.88zm27.301 108.784c-20.413 0-36.961 16.548-36.877 37.045 0 20.413 16.548 36.878 36.961 36.878s36.962-16.549 36.962-36.962c-.084-20.497-16.633-36.961-37.046-36.961M175.735 2.688l22.009 5.88c10.164 2.772 17.052 12.349 16.38 22.85l-2.268 35.113c6.973 5.376 13.105 11.592 18.397 18.48l35.281-2.268c10.5-.672 20.077 6.216 22.85 16.38l5.88 22.01c2.688 10.164-2.1 20.917-11.593 25.62l-31.67 15.625a111 111 0 0 1-2.52 12.769c-1.091 4.2-2.603 8.4-4.2 12.348l19.573 29.401a22.14 22.14 0 0 1-2.772 27.974l-16.128 16.128a22.14 22.14 0 0 1-27.974 2.772l-29.4-19.572c-7.981 3.276-16.465 5.628-25.118 6.804l-15.624 31.585c-4.704 9.492-15.457 14.28-25.621 11.592l-22.01-5.88c-10.248-2.772-17.052-12.348-16.38-22.849l2.268-35.197c-6.972-5.376-13.104-11.592-18.396-18.48l-35.282 2.267c-10.5.672-20.077-6.216-22.849-16.38l-5.88-22.01c-2.688-10.164 2.1-20.916 11.593-25.62l31.669-15.625c.588-4.284 1.428-8.484 2.52-12.768 1.176-4.284 2.52-8.4 4.2-12.349L33.097 79.971a22.14 22.14 0 0 1 2.772-27.973l16.129-16.129a22.14 22.14 0 0 1 27.973-2.772l29.401 19.573c7.98-3.276 16.465-5.628 25.117-6.804l15.625-31.585C154.818 4.788 165.486 0 175.734 2.688m-27.301 108.784c-20.413 0-36.962 16.549-36.962 36.962s16.549 36.961 36.962 36.961 36.961-16.548 36.961-36.961-16.548-36.962-36.961-36.962"/></svg>